P2
48
60
255
44 84 88 95 100 100 104 105 107 109 109 111 116 115 117 115 114 113 112 110 109 111 109 109 109 110 111 110 111 109 112 111 108 107 104 99 93 88 84 81 79 78 77 72 63 51 27 10 78 133 141 152 157 163 167 173 178 178 179 186 189 188 188 188 185 184 182 176 179 178 179 180 181 180 181 179 177 180 181 182 177 175 169 162 153 145 138 133 129 127 127 121 107 87 44 17 78 135 144 153 160 167 172 177 178 178 182 186 190 190 191 188 189 187 184 180 180 181 182 182 182 183 182 181 179 180 182 184 182 180 175 166 157 148 139 136 131 127 128 123 113 92 44 17 78 136 142 151 162 170 172 175 179 180 187 188 192 191 192 190 187 187 184 181 179 181 179 183 181 180 183 180 181 180 179 186 185 185 183 173 163 150 142 140 134 129 129 124 114 96 47 18 79 134 143 154 164 170 177 177 182 185 188 191 193 190 188 187 183 180 182 179 180 180 176 180 181 181 183 182 180 179 181 183 185 188 185 174 162 154 146 143 137 133 130 125 117 97 49 18 82 141 146 155 162 170 175 181 185 187 185 182 185 183 182 179 178 178 176 175 175 175 175 179 175 177 176 172 172 170 170 172 178 181 174 167 157 155 147 143 139 135 132 126 119 96 52 20 83 141 147 157 162 169 174 182 178 179 178 172 169 164 161 157 160 161 158 162 166 167 171 171 171 171 169 165 163 157 153 153 155 153 144 141 136 136 136 130 127 131 132 128 120 97 57 21 85 141 148 157 163 167 152 152 147 133 133 120 105 97 91 93 105 114 127 143 150 162 169 170 164 168 166 160 153 143 135 125 98 85 78 78 78 85 97 103 101 104 116 125 120 101 65 24 85 144 150 155 148 114 104 98 94 85 76 63 59 55 57 67 74 85 98 117 136 152 160 166 166 166 163 151 138 129 118 93 78 70 57 52 52 55 58 66 75 78 86 103 117 105 73 27 88 146 146 119 88 77 78 79 71 63 59 60 61 62 60 68 76 89 98 107 126 145 156 165 169 167 160 147 128 113 98 84 76 64 57 58 52 55 61 57 57 63 63 67 83 101 81 32 87 134 96 83 89 96 105 109 111 106 97 88 84 82 79 81 85 92 102 110 127 146 159 166 167 166 152 142 121 108 97 85 80 72 70 80 93 113 119 114 105 92 81 70 62 71 89 38 79 95 88 103 120 134 142 148 153 153 148 140 134 121 106 100 101 104 110 120 132 149 162 171 169 161 151 136 116 106 98 91 91 93 109 131 147 155 150 141 133 122 112 97 85 70 82 45 64 105 123 137 142 148 151 161 164 161 156 151 149 139 124 112 112 114 115 125 135 150 167 175 173 164 149 131 115 101 95 98 105 118 135 147 154 155 152 144 134 124 117 115 107 89 83 51 78 134 139 143 144 147 148 157 154 153 146 141 138 131 122 115 112 112 114 127 142 160 175 179 178 168 147 126 112 99 94 101 111 116 113 110 115 125 115 107 116 120 115 114 114 107 97 58 87 142 139 140 138 135 126 119 127 112 97 94 87 78 91 103 107 110 112 128 147 167 183 184 182 172 145 124 109 95 91 99 93 88 86 73 69 75 84 96 96 92 105 109 111 111 109 64 86 136 133 129 119 110 108 80 50 36 29 35 35 53 61 80 98 108 115 133 151 169 189 192 185 173 142 124 109 96 91 93 77 49 33 27 31 35 33 44 58 87 88 100 106 110 113 67 85 130 124 116 102 73 46 51 34 23 23 23 51 109 65 57 97 119 131 146 155 168 183 184 177 166 139 126 111 110 108 74 61 107 46 27 25 27 55 77 42 44 74 90 100 110 117 68 87 122 105 86 84 88 84 91 79 39 32 47 106 132 98 65 82 140 160 156 159 163 179 175 170 161 137 126 114 132 108 94 99 154 98 56 59 74 102 92 83 72 69 76 95 113 119 71 96 142 139 137 140 150 152 130 115 107 103 114 122 130 126 128 124 142 168 158 161 161 172 173 168 157 135 124 116 121 116 129 134 132 122 119 112 125 139 134 123 111 105 101 104 121 121 71 104 162 161 158 155 153 150 147 138 131 121 115 119 123 128 131 136 160 162 159 159 158 171 173 164 159 132 123 120 118 120 116 118 121 126 126 128 135 131 128 121 115 115 118 119 127 125 72 105 169 170 166 159 151 140 129 120 118 119 118 122 131 137 143 157 167 163 164 159 160 169 177 167 158 130 125 125 125 130 134 125 113 109 108 106 104 103 108 113 121 127 130 128 129 128 74 106 174 175 177 170 158 152 140 136 135 134 134 132 137 146 161 170 167 171 165 162 157 164 176 169 156 129 122 128 131 134 142 148 143 136 128 124 123 126 129 137 142 146 144 135 129 128 75 108 182 181 181 170 162 164 163 158 155 153 148 154 162 169 178 178 177 174 168 162 156 161 177 171 158 130 122 129 133 141 143 150 158 159 160 162 164 164 163 163 162 161 154 143 131 127 74 109 177 185 181 172 171 169 166 167 166 164 166 168 171 179 184 179 177 173 168 158 155 161 170 170 157 133 123 128 132 142 149 152 157 164 166 168 167 168 170 168 167 166 155 145 135 125 74 110 181 186 180 176 171 173 171 168 170 169 171 173 174 182 186 184 179 173 162 155 155 160 167 168 155 136 123 126 131 140 148 157 165 169 168 170 169 168 167 171 168 163 153 142 135 121 73 109 180 188 185 182 180 178 175 173 173 174 173 176 175 182 184 186 181 166 155 151 157 162 168 167 160 142 126 122 128 137 150 159 168 172 171 174 172 170 172 172 167 157 148 139 134 123 75 106 178 183 188 182 175 175 170 175 172 176 176 176 180 181 182 181 167 156 146 151 160 169 175 175 168 153 131 118 118 128 148 163 172 178 180 175 174 168 175 171 167 156 146 134 131 126 74 105 172 178 182 183 180 171 173 172 175 175 175 175 178 175 169 161 151 146 143 154 167 198 200 189 186 166 135 120 115 105 136 157 167 176 184 178 174 175 172 163 160 154 143 134 127 125 74 103 167 175 181 183 180 175 174 175 175 178 175 177 172 164 154 151 154 153 146 157 166 183 183 176 175 161 134 122 120 117 122 143 162 175 184 182 171 169 171 160 152 144 140 132 124 123 72 98 160 171 177 178 176 175 175 175 175 173 171 170 163 150 147 159 165 165 157 149 146 154 155 150 144 134 116 116 125 128 117 127 147 165 175 173 169 166 165 156 148 139 134 128 125 118 72 93 154 161 163 168 169 167 165 168 167 167 162 156 146 130 146 165 170 160 137 125 128 135 134 125 117 109 102 101 116 128 119 114 129 148 164 168 163 160 157 146 142 132 127 123 120 117 69 90 152 153 155 162 162 158 161 165 161 156 150 140 121 106 135 144 120 81 50 42 60 103 106 87 83 73 47 41 68 100 107 106 113 132 148 156 156 156 147 139 134 129 123 119 114 113 65 87 142 147 149 153 157 157 154 156 153 142 137 123 104 106 112 99 58 35 32 38 68 93 82 69 72 56 35 37 48 84 111 104 104 116 134 143 147 147 140 132 125 122 116 113 112 110 59 83 138 142 145 149 151 153 149 150 145 138 130 120 119 135 130 104 68 69 95 110 110 104 76 71 89 100 98 78 80 125 126 111 103 107 120 133 139 139 132 125 121 115 114 110 110 105 60 83 137 138 144 145 146 147 143 141 137 132 130 137 144 156 156 147 136 133 134 134 118 97 76 80 98 113 113 108 123 134 133 127 111 106 113 121 127 126 125 121 114 110 109 107 108 102 54 78 134 136 138 140 140 141 140 139 136 136 147 157 166 169 166 153 163 160 157 152 141 120 107 108 119 122 124 124 131 134 134 134 120 111 109 117 122 121 121 115 109 107 105 106 104 98 44 78 129 133 136 135 134 134 136 134 137 143 154 167 175 178 177 174 177 175 172 168 158 148 142 150 154 140 133 131 133 134 134 134 126 117 111 111 114 116 114 110 104 103 103 103 103 91 39 78 128 128 130 132 135 139 141 142 143 149 158 169 174 180 181 182 183 180 176 171 160 156 159 164 166 158 145 136 133 132 132 130 122 120 114 110 112 112 109 108 101 99 102 101 103 85 39 79 124 127 127 130 136 143 144 143 143 150 161 168 173 177 180 181 178 179 177 175 167 167 165 170 172 162 149 139 134 132 128 126 123 121 118 115 111 111 106 104 102 101 101 102 100 78 23 79 124 127 130 133 140 145 145 143 143 150 156 160 166 173 174 174 173 175 165 158 167 167 164 165 160 148 143 139 132 131 126 125 122 122 119 118 112 111 107 105 100 101 104 104 104 83 19 78 125 132 135 138 145 148 146 141 142 142 140 144 152 161 163 155 139 128 117 118 125 125 135 120 114 105 105 115 124 127 122 120 123 124 122 119 118 113 109 106 103 101 104 103 84 62 15 79 129 133 139 146 149 155 150 141 136 126 116 125 129 120 104 93 91 95 98 97 95 97 95 85 80 79 77 73 88 106 112 111 119 128 128 126 123 115 109 105 104 106 106 99 45 71 26 80 134 138 143 152 160 162 155 139 111 89 71 82 79 72 65 63 62 72 72 68 71 76 73 63 52 49 47 51 59 69 87 92 107 127 134 132 127 117 108 107 107 107 103 89 26 38 87 83 135 140 148 154 162 166 159 134 110 110 79 61 71 82 95 105 113 117 118 112 110 107 105 96 89 74 62 47 40 44 50 68 95 128 138 136 129 117 109 109 109 105 99 70 21 22 49 84 140 143 149 159 166 167 161 142 143 154 157 137 122 124 126 126 136 145 129 132 133 134 138 137 132 116 100 88 80 80 85 79 97 133 141 138 127 116 111 111 108 102 93 43 22 21 29 86 141 143 149 162 167 166 162 153 158 169 168 160 145 130 121 120 134 145 123 119 124 133 134 129 114 97 86 87 91 109 116 105 111 138 143 137 125 115 115 111 103 98 81 25 22 20 25 82 139 144 148 156 161 161 160 158 163 171 169 164 158 145 134 124 120 112 104 99 106 106 99 93 90 85 87 91 106 122 128 121 124 137 136 132 121 114 113 109 101 92 54 22 20 27 18 83 137 143 143 149 152 156 156 161 166 174 172 166 161 155 151 144 137 128 120 110 99 94 94 94 96 95 102 109 116 124 132 130 134 133 129 123 115 112 110 103 96 83 30 21 25 37 12 82 137 141 142 146 148 154 159 164 168 172 172 168 165 157 151 148 143 136 132 126 122 120 113 109 107 107 112 115 121 127 129 129 129 123 119 115 113 112 106 99 89 66 38 42 40 24 12 81 130 133 137 143 146 153 159 163 167 172 170 166 167 164 156 151 147 142 142 139 135 130 126 120 116 114 115 119 124 125 123 123 121 116 112 110 108 106 99 88 76 35 24 23 24 23 13 75 125 128 133 138 143 146 153 157 163 166 168 167 166 163 161 162 159 157 154 151 147 143 144 138 130 125 122 123 123 124 120 117 115 112 107 103 100 97 91 79 49 24 22 23 26 22 13 72 124 127 130 136 144 147 152 155 160 164 166 165 165 164 166 168 168 166 164 162 161 158 155 147 139 132 126 124 123 122 117 113 112 109 100 95 92 89 81 64 30 21 22 27 27 21 14 70 117 124 128 132 139 144 152 153 155 161 165 165 167 166 167 171 173 168 165 168 167 167 158 150 143 134 127 124 121 121 116 113 108 101 92 89 85 81 70 43 27 22 21 28 27 25 16 67 109 117 125 127 135 143 148 149 154 159 164 167 168 166 171 175 175 172 169 167 163 163 155 146 141 132 125 121 117 117 115 109 103 94 87 83 79 73 48 31 26 23 20 24 25 28 17 64 109 115 121 124 130 138 145 148 152 157 161 163 167 172 175 172 173 170 165 162 158 154 148 140 134 127 123 116 115 113 110 105 98 89 82 77 73 55 24 26 24 25 21 24 25 29 16 61 104 110 116 121 125 131 138 143 149 155 158 161 167 167 168 169 164 157 152 149 144 140 136 133 129 126 120 114 112 109 103 97 90 83 76 72 65 39 20 24 23 25 20 25 28 28 17 56 97 101 107 114 118 125 133 141 147 150 154 156 161 161 160 158 154 152 144 140 136 134 130 123 122 121 116 112 109 104 95 88 82 77 70 64 73 36 19 23 22 23 21 20 33 31 16 47 83 89 97 103 110 118 127 136 142 143 146 149 152 154 151 150 145 140 139 132 129 125 122 118 114 115 113 111 105 97 88 81 76 70 63 71 85 30 18 20 21 21 21 20 27 29 17 38 66 76 84 93 103 110 118 127 132 136 137 141 142 145 143 142 135 130 127 121 117 113 114 110 112 109 106 104 97 88 80 75 70 64 68 85 90 25 16 18 19 20 21 20 21 23 18 25 36 41 46 52 59 63 67 72 76 79 82 83 85 85 85 83 80 76 73 71 67 67 67 67 66 64 63 61 56 50 46 42 39 41 49 57 57 14 10 10 11 12 13 13 13 13 10 