P2
48
60
255
16 26 26 27 27 27 27 28 30 31 30 32 31 32 29 29 30 29 33 39 44 41 37 36 33 30 30 29 36 45 53 55 61 69 71 67 66 61 63 57 44 35 33 30 29 30 36 25 27 43 45 46 47 48 51 48 53 54 54 60 59 55 53 49 49 49 55 65 77 78 68 65 62 53 50 51 52 74 87 92 95 109 119 112 109 105 107 101 81 62 56 50 49 46 62 40 28 46 49 54 54 60 64 63 66 65 67 71 72 64 59 55 53 50 53 63 79 86 83 81 73 66 60 65 65 76 103 110 117 117 118 117 114 110 114 109 97 73 61 51 52 46 63 43 28 53 56 64 67 71 74 78 83 84 83 82 85 76 74 65 60 58 53 64 82 93 98 94 90 91 84 89 93 105 109 120 122 122 124 122 121 118 117 115 106 90 69 60 52 49 67 50 30 58 63 67 75 75 81 86 90 93 93 90 89 86 84 80 74 72 65 74 82 102 106 104 101 104 102 107 114 113 113 118 123 125 129 130 126 124 120 116 110 100 83 72 63 52 72 50 33 60 63 68 73 78 81 83 88 93 94 95 95 94 93 94 85 81 83 79 92 103 107 108 108 107 111 111 111 113 114 116 117 111 116 122 118 116 111 109 106 97 90 81 81 69 78 54 36 60 63 68 72 74 75 76 77 81 86 89 93 97 97 100 97 93 95 92 99 102 108 108 110 111 110 115 112 108 105 110 111 107 107 103 102 99 93 96 95 96 89 83 81 85 85 59 37 61 65 67 68 70 69 65 63 63 65 68 73 80 89 97 100 99 100 99 102 106 109 111 111 114 111 114 111 108 103 104 99 91 81 76 72 73 77 86 88 85 85 82 79 78 82 60 42 69 73 73 75 78 80 80 82 82 82 77 73 68 67 73 84 92 97 100 102 107 107 109 109 117 116 113 108 103 96 87 83 85 89 91 95 100 106 111 112 106 102 97 89 83 80 52 45 74 77 77 80 88 93 94 97 100 100 98 95 93 88 82 81 83 90 96 101 106 108 109 104 113 117 113 106 98 97 97 101 102 102 106 110 112 116 117 117 114 110 108 105 99 93 55 47 78 80 81 85 88 91 98 100 101 103 104 104 101 99 96 94 91 89 93 99 104 108 110 114 119 122 116 109 109 107 106 105 104 107 106 109 111 117 120 121 119 116 112 112 110 106 64 48 78 79 82 84 87 92 96 100 104 106 107 107 108 108 103 99 95 93 94 98 104 108 110 116 120 119 116 114 112 107 104 102 101 103 105 109 111 115 119 120 118 117 114 114 111 110 66 47 77 78 79 82 85 90 95 97 101 104 106 109 109 110 109 103 98 91 92 95 102 107 113 119 120 118 115 114 110 101 98 97 96 98 104 108 112 116 120 121 115 111 111 112 110 108 67 48 75 76 77 78 82 82 84 89 92 92 93 96 98 102 104 102 95 86 86 92 98 105 109 122 126 121 115 110 103 94 92 93 89 84 83 83 91 99 108 112 112 110 106 108 108 108 67 47 71 70 70 67 62 55 58 49 47 43 58 64 69 83 96 97 95 84 80 87 95 104 112 122 127 120 111 104 99 92 87 79 68 51 50 45 55 57 83 71 81 96 98 101 104 110 68 48 70 65 58 58 65 71 80 52 44 42 60 68 102 87 66 91 97 84 75 81 93 106 113 125 126 118 112 104 99 92 78 70 77 49 45 48 101 57 116 108 75 64 74 85 98 109 69 50 75 72 68 70 77 81 82 70 48 50 52 64 123 109 59 65 103 85 74 78 87 102 111 121 121 115 111 105 107 94 73 74 93 58 49 49 49 68 112 94 88 87 84 89 93 109 72 55 88 84 80 78 85 88 85 79 71 65 69 94 97 82 68 75 102 87 75 77 83 96 107 117 120 113 109 104 113 101 86 75 80 78 61 59 67 83 92 99 101 94 90 92 96 105 68 58 95 95 93 88 88 93 97 97 98 94 93 94 91 95 100 102 98 87 78 77 81 93 101 109 116 107 107 106 111 111 98 93 89 87 88 90 95 104 113 117 112 105 104 107 110 110 68 60 98 99 100 97 93 95 96 96 98 97 98 100 101 104 105 103 95 87 83 78 79 88 98 104 112 108 107 110 109 115 110 101 97 97 98 100 105 110 116 117 116 115 118 119 117 116 71 60 98 100 104 103 102 99 99 99 99 99 100 102 104 110 107 101 93 93 87 78 76 85 98 102 107 106 106 111 111 113 119 115 106 104 104 106 108 110 113 116 120 120 122 122 124 121 73 57 98 102 105 107 108 107 106 103 101 101 101 105 105 107 105 101 97 94 89 77 75 84 97 103 105 105 105 108 115 115 120 120 120 114 113 115 117 118 120 120 124 125 126 124 124 121 73 59 99 104 105 108 111 110 109 107 105 106 105 107 106 107 105 100 97 97 87 78 78 86 104 106 109 105 107 110 116 117 121 124 124 122 119 119 117 120 122 123 124 127 127 122 124 122 73 58 96 100 102 106 109 110 112 110 110 110 109 109 107 107 105 100 98 95 86 79 79 86 103 107 112 108 106 111 117 116 119 124 125 124 124 124 123 123 124 122 124 128 130 130 128 124 73 56 92 99 103 106 108 108 112 110 111 111 111 110 109 107 102 100 96 94 84 79 81 88 102 108 114 112 108 108 117 118 118 123 123 126 124 126 126 124 124 125 130 132 132 131 127 122 72 54 90 94 99 100 99 98 108 110 110 112 111 109 108 106 99 96 96 91 83 79 79 88 101 109 115 113 109 107 112 118 117 123 125 125 124 125 125 124 123 129 132 135 135 130 124 121 72 53 87 93 96 96 98 105 110 113 113 115 113 110 107 105 99 96 93 85 80 76 78 87 102 108 113 111 108 107 110 111 115 122 123 122 123 125 122 124 128 131 133 133 132 130 124 122 73 53 88 92 94 96 99 104 108 112 113 113 113 112 109 106 101 89 80 78 76 75 80 89 103 107 111 112 108 106 105 104 106 113 116 118 119 120 122 125 129 134 136 133 134 130 127 121 73 54 90 91 93 97 99 104 107 108 110 112 114 114 109 107 90 74 76 79 76 76 85 96 110 112 122 120 109 105 101 99 99 103 109 113 117 118 123 123 126 131 136 134 134 128 126 121 74 52 90 93 95 96 99 105 106 107 111 113 113 113 110 95 71 74 80 85 82 80 88 97 106 111 131 133 112 105 104 106 103 97 103 110 113 116 119 125 128 130 132 133 129 126 125 123 75 49 86 92 95 98 100 104 104 107 108 108 109 113 103 77 65 76 85 93 87 83 84 92 104 111 118 124 112 109 112 113 107 100 96 104 109 115 115 120 125 129 131 130 127 126 125 122 73 51 86 91 97 99 98 102 104 105 105 106 109 109 95 72 65 77 84 83 80 80 79 84 96 107 110 110 106 104 108 107 104 100 96 97 107 113 118 120 123 125 127 126 126 126 121 120 71 52 85 90 94 97 99 101 105 107 107 109 112 110 99 79 69 73 84 77 57 51 59 73 86 99 104 102 97 92 77 79 94 101 100 95 103 110 114 120 123 127 127 125 126 123 122 120 72 52 84 89 93 94 97 102 105 106 108 111 113 111 106 95 86 80 75 75 72 67 64 65 77 87 95 101 105 104 93 90 102 109 104 96 97 103 112 118 122 125 127 124 123 121 120 118 72 52 85 88 91 94 96 99 100 105 108 109 112 110 108 100 94 91 88 84 79 80 83 83 80 87 97 103 104 100 102 105 108 112 110 103 96 101 110 117 123 125 125 126 122 122 120 118 72 52 84 87 90 95 97 99 102 103 105 107 108 107 104 100 96 94 90 91 89 89 93 96 97 98 101 105 105 106 105 106 109 112 114 109 104 103 110 115 120 123 123 124 122 123 120 117 72 52 84 87 90 95 99 99 102 103 105 107 107 106 101 98 96 92 90 92 91 93 96 96 99 96 99 106 106 107 105 107 110 113 112 113 108 109 112 116 120 123 124 124 121 120 118 117 72 50 85 85 90 95 98 100 102 102 104 105 103 99 94 91 91 89 90 89 91 93 94 97 96 92 97 104 108 108 107 108 109 111 112 113 111 111 114 117 120 123 126 124 122 119 117 114 72 51 84 84 88 95 98 99 104 103 103 101 97 92 88 85 87 86 89 87 89 90 91 93 92 92 97 102 105 106 106 109 109 111 110 110 112 111 113 116 120 121 123 125 123 121 119 116 71 51 82 85 89 93 95 98 104 102 100 95 93 88 83 81 81 84 85 82 80 80 80 84 87 93 93 97 97 102 104 107 109 109 106 105 105 107 110 113 118 121 121 123 119 118 118 117 72 54 84 83 88 92 94 98 100 102 100 97 92 84 78 74 71 71 72 71 72 74 75 76 77 84 82 84 84 85 87 90 97 101 101 98 97 101 106 112 119 121 121 119 114 118 118 116 72 55 85 85 86 91 95 96 100 104 105 102 91 78 64 54 55 57 61 65 65 68 68 68 75 77 75 72 71 75 77 77 76 76 79 76 84 97 106 112 120 122 121 119 116 116 116 116 72 53 84 84 85 87 93 96 100 103 107 104 96 87 80 70 64 62 64 71 71 76 78 78 78 77 76 75 76 78 78 76 74 70 73 75 84 93 105 114 121 122 123 118 116 113 115 117 72 51 83 83 85 87 89 97 102 106 106 106 99 90 83 79 73 72 70 76 81 87 90 92 92 91 90 91 95 93 89 86 86 92 96 96 94 97 106 116 123 123 121 119 116 117 117 118 73 49 81 81 83 86 89 95 101 106 108 107 102 94 87 81 76 73 76 76 79 84 89 92 91 91 92 97 96 94 93 93 97 104 106 105 104 107 111 118 122 121 120 119 116 116 116 116 72 48 78 80 82 83 85 91 98 102 104 101 99 97 93 87 80 79 81 81 81 86 89 90 90 91 94 99 99 100 101 104 106 106 108 108 109 114 117 118 121 120 119 117 117 117 116 116 72 46 76 78 80 81 81 88 94 99 100 98 98 97 95 93 87 85 88 88 86 84 86 86 88 89 87 92 98 104 108 109 108 109 110 112 115 117 118 119 117 116 116 116 115 114 115 114 71 45 75 76 77 79 79 80 88 94 97 94 96 95 95 94 93 91 94 94 95 95 92 90 91 90 92 95 100 104 108 110 111 113 113 114 117 119 117 117 116 115 115 113 113 112 112 113 69 45 73 74 75 77 77 79 85 88 90 91 91 93 93 93 93 95 96 98 99 97 99 100 99 95 98 99 102 107 109 110 111 111 113 114 116 116 116 116 116 113 113 112 111 110 110 111 68 46 73 72 73 74 75 77 81 84 86 86 86 90 91 90 94 97 97 99 101 100 99 97 96 98 101 105 108 109 110 109 110 111 111 115 115 113 115 115 114 110 110 109 106 108 109 109 69 48 73 71 72 72 72 73 76 77 80 82 84 87 86 88 94 98 99 100 98 99 99 97 99 99 104 108 110 110 108 109 111 111 113 112 112 114 114 114 111 108 106 107 107 107 109 113 94 50 75 71 70 71 70 71 73 75 77 79 83 84 83 88 93 96 97 97 98 100 100 99 99 101 106 109 110 109 108 109 113 113 112 113 111 113 113 111 109 105 104 104 104 107 113 179 154 49 76 72 69 69 70 69 70 72 74 78 81 84 83 87 93 95 96 98 102 102 104 105 106 108 109 111 108 107 110 113 115 113 110 111 111 113 110 107 106 104 103 103 104 111 130 243 158 50 77 73 70 69 68 68 68 68 71 74 76 79 81 84 90 95 96 97 99 100 104 107 109 111 112 110 111 112 112 115 114 110 108 110 110 110 105 102 103 102 101 102 108 111 122 250 158 49 78 74 71 69 68 69 68 67 68 70 72 76 77 80 84 90 96 97 97 99 103 105 108 110 109 110 113 116 114 116 111 109 103 109 105 103 99 98 99 98 100 104 104 99 123 252 158 50 78 75 72 69 69 69 68 68 68 68 70 72 74 76 79 85 89 93 97 101 104 108 108 108 110 113 120 118 116 113 109 110 107 105 102 99 96 96 97 97 99 99 97 98 129 253 158 50 78 75 73 70 67 68 68 67 67 67 68 70 71 72 76 80 85 91 95 97 102 105 106 107 111 113 114 114 111 111 107 104 103 100 98 95 94 95 94 95 95 97 98 98 137 254 158 50 77 75 73 71 68 66 66 67 68 68 67 67 69 71 73 75 80 86 92 95 98 101 103 105 107 106 106 107 105 105 103 100 98 95 94 93 94 93 93 95 98 100 98 99 139 254 158 49 77 75 73 71 69 67 65 65 67 69 69 68 67 68 69 72 75 80 86 90 93 96 98 100 102 101 101 102 100 100 97 93 91 92 92 93 92 93 97 99 101 100 99 97 119 218 151 30 48 47 45 44 43 42 41 40 40 40 42 43 43 42 41 42 44 45 48 52 54 55 57 57 58 59 61 60 58 57 53 54 56 57 57 56 57 61 62 63 63 62 61 59 59 68 52 