P2
48
60
255
20 34 35 36 36 38 42 44 46 52 56 59 63 63 66 67 69 67 65 66 67 66 64 65 67 66 64 62 60 60 60 64 65 62 60 61 58 56 51 45 43 40 37 36 34 33 32 19 32 57 56 58 60 63 69 72 77 88 95 102 105 108 109 109 110 109 108 107 107 109 107 108 110 108 108 103 102 103 103 104 106 104 99 94 92 86 83 74 69 65 59 58 57 53 51 31 34 57 58 57 59 65 72 77 84 91 99 102 108 111 112 110 112 110 109 111 109 112 109 113 114 113 111 106 107 105 105 108 107 103 100 95 90 87 82 75 68 65 60 56 55 53 54 33 34 58 60 58 61 71 76 79 86 96 99 104 105 117 124 122 121 118 117 116 116 114 113 115 115 116 113 112 110 109 110 112 109 108 105 100 97 90 83 76 72 67 61 55 55 53 55 33 33 59 59 57 66 75 71 74 83 90 97 103 107 123 132 127 124 126 124 119 119 116 115 116 117 119 117 115 116 119 117 115 115 112 111 108 102 94 88 77 75 69 65 54 53 51 52 32 37 58 59 59 70 60 57 60 64 70 76 85 93 93 103 106 118 124 121 122 126 124 121 119 122 124 124 120 120 118 115 116 115 112 114 110 100 95 89 78 71 71 66 61 53 50 50 31 37 60 58 62 55 58 64 71 72 63 62 65 64 59 64 76 92 102 110 122 126 129 128 124 123 123 123 121 116 110 106 95 91 87 91 93 86 83 76 64 59 60 59 61 56 49 48 31 37 59 65 102 139 166 144 145 131 73 71 73 73 74 77 83 90 89 97 106 111 116 118 112 108 110 110 112 107 100 89 69 56 53 53 56 64 57 60 54 51 54 52 53 54 49 47 30 37 87 130 192 239 246 251 249 201 121 54 44 42 40 41 41 44 47 54 64 72 81 80 76 75 77 78 81 89 63 68 67 67 70 70 70 54 43 45 43 47 50 51 53 48 45 46 30 52 101 173 241 253 180 231 253 242 152 75 61 56 54 56 59 59 63 65 81 64 91 98 96 97 94 83 132 162 184 171 92 50 35 32 34 37 45 60 63 59 52 51 51 50 48 46 29 42 104 175 229 250 222 238 253 217 138 88 78 71 64 55 54 55 57 64 87 90 70 96 101 97 86 95 109 240 251 226 126 53 44 48 50 51 56 63 72 75 72 73 73 63 58 47 28 49 95 136 219 243 241 240 242 210 121 74 67 62 58 57 55 55 56 59 67 103 123 93 83 76 68 72 135 237 251 217 129 60 61 65 67 66 65 65 65 67 68 74 106 125 110 72 29 46 67 119 174 203 220 225 185 141 90 77 74 68 67 56 50 55 57 59 65 64 59 66 77 64 61 110 199 238 226 211 117 56 55 66 67 67 66 60 55 55 63 69 101 165 174 96 41 45 52 65 97 150 137 155 133 86 53 48 55 67 71 65 55 52 57 62 67 55 66 73 101 77 70 102 168 206 196 138 93 65 72 81 80 74 67 59 65 53 46 56 95 135 156 125 62 46 61 54 67 82 84 86 62 48 41 69 36 46 47 61 58 59 58 62 70 64 69 86 111 86 73 75 121 131 134 99 71 74 73 60 39 58 23 50 29 37 43 43 60 98 126 109 47 45 64 59 55 48 44 46 68 62 35 33 29 36 82 58 47 58 65 72 71 66 66 97 107 85 65 62 76 94 97 74 69 62 59 88 55 40 23 35 28 44 29 34 43 65 84 80 39 44 70 67 60 48 44 56 79 87 42 33 33 44 99 94 78 66 66 76 75 64 65 100 100 89 63 57 70 71 76 70 66 88 107 115 84 34 30 30 38 62 38 26 34 36 49 55 30 41 70 72 69 58 54 64 72 82 73 61 49 66 75 68 65 64 61 66 70 71 82 99 102 95 63 68 72 67 68 65 64 71 75 79 89 58 42 51 69 61 42 36 34 38 44 52 34 41 70 74 71 61 59 66 75 80 89 88 74 71 73 73 63 60 66 71 84 68 94 102 102 99 80 57 59 90 60 67 72 75 82 81 71 58 70 75 70 62 46 41 43 49 56 62 35 42 72 74 73 64 65 69 70 75 80 77 74 72 67 60 55 61 66 66 67 69 95 109 103 100 90 56 60 55 59 62 68 69 66 71 68 67 65 67 65 58 49 43 51 56 60 65 36 42 72 74 74 69 73 68 68 69 69 65 60 58 60 65 67 64 64 70 58 77 95 105 98 99 91 64 59 58 58 65 66 74 74 68 64 64 66 68 68 57 50 45 54 61 60 67 36 43 71 77 74 72 78 80 81 78 77 73 76 78 80 76 71 73 73 68 59 81 97 104 102 96 91 83 58 60 59 74 73 76 78 78 75 69 65 64 63 59 54 57 63 67 66 65 32 52 71 75 74 73 81 87 86 84 84 87 88 89 88 82 81 82 84 59 67 89 98 99 101 97 89 88 57 66 62 79 87 80 78 79 80 79 77 75 75 72 64 64 70 71 68 65 28 34 70 81 72 75 83 87 89 86 86 86 89 91 90 91 92 91 70 60 81 93 101 101 101 97 90 84 70 56 67 81 93 95 88 80 82 81 82 82 82 78 70 68 73 76 75 68 27 39 56 71 73 73 83 90 89 89 88 90 95 96 100 104 98 94 58 81 87 99 102 104 102 98 92 85 77 51 74 75 81 96 99 98 87 80 79 81 81 78 75 71 75 78 75 69 32 39 66 63 64 70 75 88 96 96 94 101 101 103 102 101 85 55 69 85 92 99 98 101 100 97 94 86 80 70 64 75 82 93 97 105 103 93 86 87 90 92 85 73 73 75 76 72 37 40 67 73 74 69 68 83 97 101 102 104 103 102 103 85 62 58 84 84 90 95 96 97 102 98 95 86 83 70 53 48 71 84 97 105 108 99 99 98 95 94 85 72 74 74 71 63 36 42 67 69 81 85 81 78 71 65 72 71 65 62 71 68 67 79 79 83 87 92 100 99 98 100 96 88 81 70 64 39 42 65 85 95 100 99 98 98 97 93 87 73 67 64 70 61 37 45 69 71 82 87 92 98 95 95 90 91 93 96 101 97 85 76 82 88 88 94 111 117 105 106 105 91 78 71 71 61 42 52 51 60 74 81 86 87 84 77 65 57 74 79 69 63 36 45 69 73 83 89 96 105 109 117 120 121 117 115 106 92 79 81 91 89 88 99 127 139 109 105 118 109 79 68 73 76 65 45 64 71 66 59 56 54 57 63 73 84 80 73 67 64 38 44 70 73 81 87 97 102 107 112 122 123 113 106 93 77 77 85 92 93 82 93 114 119 105 102 103 97 76 70 73 80 76 55 58 84 96 92 89 84 82 86 85 82 78 68 63 60 37 48 70 73 76 87 94 97 107 112 119 114 103 96 83 71 78 83 92 94 87 86 96 102 98 95 91 82 73 75 76 78 72 64 53 71 95 105 105 102 98 95 92 85 76 68 66 60 37 48 71 74 77 85 90 94 102 103 107 104 98 88 76 82 78 77 74 54 50 76 87 90 89 85 82 71 54 50 63 72 69 62 61 62 82 98 101 100 98 91 89 82 73 66 70 60 36 51 74 73 76 79 85 93 97 99 99 101 97 86 83 93 89 63 45 45 56 57 72 76 73 70 66 45 35 38 34 43 54 61 69 73 82 92 97 97 96 92 87 80 72 66 69 61 35 133 100 75 75 79 78 85 91 96 97 92 93 92 93 91 90 80 59 61 72 75 85 75 53 55 61 55 55 61 49 46 57 71 78 84 87 92 94 90 89 89 84 77 74 70 65 61 38 148 126 73 74 79 80 82 86 93 93 95 93 94 91 89 90 89 82 78 81 88 94 89 87 85 75 76 66 63 67 71 76 80 81 83 89 92 90 88 84 83 77 75 74 71 67 60 38 150 160 73 75 76 80 81 82 86 90 94 93 90 87 89 90 86 84 83 87 95 98 94 92 92 91 90 83 76 73 78 84 84 82 84 85 94 91 87 85 79 79 75 72 71 69 62 38 151 182 75 74 75 79 77 77 82 86 90 85 86 89 88 88 86 83 85 85 91 95 90 89 87 93 92 86 81 74 74 85 84 82 82 81 79 89 88 82 76 75 71 70 69 67 63 38 153 191 74 73 73 76 73 75 79 81 78 83 86 85 84 85 83 84 87 89 92 91 89 86 86 87 90 92 83 79 76 79 85 81 77 81 77 73 84 75 71 70 69 69 67 67 64 38 152 226 85 71 73 75 70 70 73 74 75 84 84 83 82 83 82 86 89 95 100 96 92 85 87 93 93 92 88 78 76 77 78 76 73 73 80 71 74 80 66 65 68 65 65 64 61 36 152 242 113 71 71 73 69 69 73 71 81 82 80 82 79 84 88 89 89 90 95 94 91 92 86 84 83 81 81 77 82 80 74 73 71 73 79 76 61 74 66 62 66 64 64 61 61 36 153 247 167 73 72 72 72 68 70 75 85 81 79 81 83 78 73 80 86 94 101 96 94 81 75 80 81 81 79 74 69 68 74 75 69 71 76 74 64 70 64 62 64 65 62 60 62 36 153 247 220 83 73 70 70 67 69 77 82 79 75 76 66 63 68 71 72 77 76 79 82 75 73 73 74 77 70 65 64 56 59 62 66 68 69 71 67 66 65 63 64 62 62 60 60 37 153 247 244 115 76 71 71 68 69 78 79 72 55 49 52 57 61 61 62 62 63 67 67 66 66 63 63 61 58 53 52 50 49 46 40 51 65 73 69 65 63 61 64 60 60 62 60 37 153 247 247 182 78 71 70 69 70 77 76 59 61 61 59 67 76 88 87 84 85 88 87 72 74 78 80 78 83 76 70 63 56 55 58 60 64 67 67 70 63 62 62 59 60 61 60 37 153 247 248 232 92 75 70 70 70 74 76 74 75 72 66 68 78 89 93 87 95 104 98 90 93 92 92 92 88 76 73 69 63 66 68 66 67 71 67 75 63 61 60 61 61 58 59 36 153 247 247 246 143 77 72 69 69 75 75 70 76 73 71 70 77 85 87 90 106 109 104 97 98 98 103 97 84 76 72 67 63 66 68 66 67 69 72 71 63 59 61 63 62 60 59 36 153 246 247 247 185 81 74 70 68 76 76 73 74 75 76 74 79 85 86 88 104 103 99 98 99 98 99 97 83 75 70 70 68 68 69 67 67 66 74 67 63 59 62 62 62 59 58 40 152 246 247 248 202 85 76 75 71 74 75 74 77 76 78 78 82 85 84 83 94 103 103 96 93 89 85 82 75 73 71 73 73 69 69 69 66 64 67 65 61 59 63 63 62 59 61 38 152 246 247 247 218 82 77 73 73 70 75 75 77 78 80 82 83 82 82 80 81 79 76 76 74 70 72 72 72 75 76 78 75 74 72 69 67 63 65 64 61 61 62 63 63 60 66 33 152 246 247 247 233 83 80 74 72 72 74 74 76 78 79 81 83 83 82 81 78 75 75 75 72 71 72 71 76 78 80 78 76 73 70 68 65 62 66 62 60 63 62 62 62 65 60 39 152 246 247 247 241 92 70 77 71 74 74 74 74 76 79 81 81 85 87 85 83 80 81 80 79 81 79 78 77 80 79 77 75 72 70 66 64 62 63 61 61 61 60 60 65 66 53 55 153 247 247 247 245 109 65 77 74 75 73 73 75 75 80 81 80 84 84 86 84 82 78 77 74 73 76 76 76 78 78 75 74 71 67 65 65 63 61 58 58 61 61 62 68 57 53 77 152 247 247 247 247 131 65 66 77 71 72 72 75 75 77 79 80 82 82 85 83 80 80 73 73 72 75 75 77 76 74 73 72 70 67 65 66 63 60 59 57 59 62 67 59 54 55 94 153 246 246 247 247 150 66 67 73 75 72 72 75 77 76 77 79 79 78 81 81 85 85 85 82 78 78 82 82 78 72 71 71 69 68 65 65 61 59 61 59 60 65 61 54 55 56 107 152 246 247 247 248 169 68 67 68 78 75 72 73 75 76 76 79 79 79 82 86 88 91 94 91 85 86 83 82 77 70 68 71 69 68 65 63 60 59 59 60 63 64 56 54 56 55 88 153 247 247 247 247 160 67 68 70 72 77 72 72 74 73 75 75 78 76 75 82 87 91 98 93 92 88 82 78 72 67 69 71 70 68 66 61 58 60 61 64 66 58 56 55 54 52 65 153 247 247 247 245 149 66 65 70 72 75 76 73 73 74 75 75 75 76 70 73 81 87 90 91 88 85 77 74 67 68 70 74 71 66 65 59 57 61 64 67 60 57 56 54 54 58 82 153 247 247 248 246 164 70 66 69 73 74 77 75 72 71 74 75 75 73 71 71 73 75 80 79 81 81 72 73 67 67 69 72 69 64 61 59 59 62 68 61 58 59 55 54 54 94 91 94 153 153 153 152 111 54 41 44 45 47 47 48 44 43 46 46 44 43 45 44 45 44 46 48 49 47 40 42 41 42 43 43 42 40 38 37 38 41 39 37 35 36 34 34 35 85 58 