P2
48
60
255
45 78 81 85 86 87 89 92 93 97 98 100 100 99 98 96 94 95 95 94 94 94 94 94 93 92 94 94 93 89 91 90 89 88 86 84 81 80 80 76 73 75 73 70 66 61 57 31 73 122 128 136 140 144 145 150 154 153 159 163 160 157 156 157 155 154 152 151 152 151 150 148 150 149 150 153 150 150 149 148 147 144 140 135 133 128 126 126 125 122 117 116 106 97 92 52 75 121 126 133 139 145 149 153 155 159 162 166 166 161 158 159 157 154 154 154 151 148 150 149 149 148 150 151 150 149 151 151 147 142 138 134 134 129 126 127 126 122 118 114 106 99 94 53 74 120 126 131 143 146 151 155 159 158 162 165 163 163 160 159 156 157 156 155 153 151 152 151 152 151 151 152 155 152 151 151 152 153 140 135 135 130 125 128 127 127 118 112 104 97 93 54 74 124 125 133 145 149 154 154 154 158 159 163 164 163 159 161 160 160 156 156 153 151 153 153 152 150 150 155 157 155 157 154 157 156 147 141 136 130 132 129 126 124 121 111 104 101 93 55 75 121 124 134 146 149 155 154 152 154 161 165 167 169 162 167 163 161 161 163 158 155 156 154 151 152 155 161 162 162 167 167 163 155 154 144 140 137 136 137 133 127 123 113 104 97 94 55 75 121 125 136 146 152 150 145 138 146 153 159 168 171 164 160 160 156 160 167 165 161 159 159 155 155 159 163 162 165 166 165 159 153 151 143 140 146 144 139 136 132 124 115 103 97 94 57 73 122 127 136 141 136 133 127 127 134 140 155 164 164 165 156 155 156 157 164 168 163 164 162 160 161 162 160 160 160 160 157 157 154 148 139 138 147 148 144 136 132 127 118 106 96 94 58 74 122 130 131 114 105 98 99 100 107 127 120 121 125 123 134 136 142 148 157 160 154 163 163 163 161 150 152 154 150 146 146 148 148 145 134 129 126 127 132 128 126 127 120 110 97 94 59 73 121 120 95 81 83 82 77 76 79 83 83 79 79 86 92 104 120 139 145 148 149 152 161 160 155 140 141 136 133 122 118 117 117 114 109 101 93 85 84 90 91 97 110 111 101 91 58 73 116 86 69 67 64 64 58 61 57 64 61 66 70 77 74 92 108 121 126 134 143 151 160 153 142 127 123 123 115 103 90 74 66 66 64 59 58 58 61 61 60 63 79 102 102 92 56 67 86 66 57 59 69 83 93 85 62 52 52 55 59 75 81 96 104 115 118 128 142 150 151 142 135 122 115 107 96 84 63 52 49 45 43 42 51 59 61 59 57 51 52 65 92 96 54 49 71 65 82 97 118 127 136 138 131 123 109 93 85 86 89 96 103 108 115 130 145 155 153 141 131 118 107 103 90 78 68 64 61 55 63 87 109 118 119 105 85 64 53 51 56 86 54 50 81 99 114 122 131 135 142 147 142 140 138 130 122 112 105 101 99 106 119 130 143 158 154 149 134 114 106 96 86 87 91 99 109 126 138 144 143 144 144 132 116 91 75 63 52 66 53 56 101 112 121 119 119 121 120 120 113 107 108 98 91 91 93 88 95 109 119 129 139 150 149 145 131 114 105 95 86 91 105 112 114 114 119 122 123 127 129 120 112 99 89 74 60 65 54 72 121 118 116 108 95 108 106 80 59 47 53 62 78 93 93 84 84 102 121 126 135 146 147 142 126 109 100 91 73 67 75 87 100 96 85 84 89 104 105 95 98 93 93 89 77 71 49 78 127 117 107 85 86 59 51 43 63 31 73 68 102 72 73 89 100 121 122 123 133 146 141 136 120 104 99 92 83 75 80 78 67 71 54 54 37 60 47 71 74 72 86 92 92 89 51 83 130 113 89 76 53 79 93 40 34 30 47 94 138 115 92 90 111 123 122 122 127 139 135 126 118 103 100 103 97 73 60 70 110 115 54 38 28 43 46 64 49 60 67 85 96 104 65 86 127 109 83 75 79 95 106 82 79 78 98 116 115 101 100 109 110 122 123 113 127 135 136 126 111 99 103 102 96 87 84 87 103 115 85 63 57 64 76 85 73 55 62 78 99 110 68 87 131 118 109 114 108 116 127 128 122 112 111 112 107 101 105 103 111 120 120 112 121 131 127 120 105 94 102 101 96 83 89 96 102 114 115 109 106 107 101 98 92 85 86 88 99 113 72 88 139 126 123 129 132 140 143 138 131 123 118 118 118 112 111 112 120 122 119 113 120 128 129 118 104 96 102 104 102 98 92 99 107 109 116 119 123 126 125 125 114 105 98 99 107 119 74 90 140 130 132 139 145 147 147 147 147 145 142 137 129 122 120 124 123 125 121 116 131 130 132 123 105 96 103 105 106 105 101 108 118 122 124 127 130 132 131 123 120 110 104 100 110 124 76 89 138 138 139 148 155 153 155 156 156 153 144 138 133 129 127 123 124 125 118 122 132 138 136 128 110 100 100 103 107 108 112 115 119 127 130 138 144 141 138 132 127 120 117 120 116 121 76 89 144 146 144 147 150 151 154 151 150 147 142 136 138 134 126 125 125 121 119 122 132 137 139 132 116 102 99 102 101 106 114 121 121 125 124 127 132 136 138 134 133 133 130 128 129 122 71 90 145 145 144 144 144 141 140 142 143 142 143 141 138 133 127 126 125 122 123 127 138 141 134 136 127 109 100 100 102 103 110 119 120 130 132 133 132 131 131 129 131 131 129 126 125 124 71 89 144 145 143 143 145 146 147 147 148 147 144 141 141 138 136 132 123 121 122 133 142 152 147 142 134 114 99 98 104 108 110 119 123 126 131 136 138 137 138 139 140 140 135 130 125 121 71 91 148 144 149 155 153 153 150 148 147 151 150 146 147 149 139 121 117 121 127 143 171 161 157 160 161 124 106 97 102 104 112 122 129 133 135 136 140 138 140 136 138 138 139 134 129 125 71 93 153 154 153 151 152 158 152 152 155 154 154 150 147 135 123 117 119 123 126 139 156 154 153 147 145 117 104 99 101 96 93 102 120 133 139 142 141 144 144 140 136 137 135 133 125 124 74 93 155 148 145 149 151 151 152 154 151 154 155 147 125 108 117 124 129 124 120 127 139 139 139 137 126 104 94 98 103 97 86 81 95 119 135 144 146 144 146 144 140 137 134 131 125 119 74 90 148 148 150 155 155 155 157 156 161 161 150 134 103 93 114 124 121 105 99 111 119 121 119 120 111 94 80 86 95 94 90 77 79 104 125 138 147 150 150 150 147 139 136 132 127 117 72 88 148 150 156 156 158 159 159 163 163 156 140 112 86 103 116 102 81 47 42 70 93 98 96 99 88 59 35 54 78 93 100 88 72 89 117 130 140 148 149 153 151 146 137 129 125 117 70 88 148 149 153 152 155 153 162 168 160 145 124 96 96 128 133 106 80 80 101 97 88 82 73 73 77 76 75 65 87 105 112 106 85 78 107 125 133 143 151 152 149 141 134 127 121 116 67 86 143 150 150 151 151 156 160 156 150 132 113 91 127 137 132 123 107 101 106 105 105 100 100 94 87 89 83 85 92 98 105 111 108 92 99 122 132 139 143 144 140 135 128 128 121 111 65 84 142 145 147 150 149 151 159 153 141 126 103 118 138 136 126 122 116 109 107 117 116 113 117 111 108 108 100 96 94 98 104 113 117 116 100 112 128 136 141 143 140 133 127 121 115 108 65 82 136 145 142 144 146 152 152 145 141 124 113 140 138 131 125 123 117 116 119 123 123 125 122 122 125 120 107 106 99 104 110 112 115 125 123 103 122 133 138 139 136 130 125 117 111 106 63 81 134 138 140 142 148 150 145 141 134 121 139 145 136 130 124 127 123 122 134 135 134 132 128 125 132 134 120 115 98 101 110 108 110 118 126 119 107 125 133 137 134 125 119 115 108 103 61 79 131 136 140 142 144 146 143 137 127 139 145 139 131 128 126 126 129 127 135 138 140 133 129 128 137 134 124 114 104 105 108 105 105 112 122 124 109 107 128 134 132 124 115 111 104 100 61 78 126 134 139 139 144 144 141 133 135 142 138 139 126 126 123 129 127 130 138 136 138 132 125 123 126 129 130 120 107 104 106 104 99 110 117 126 119 99 117 127 127 119 114 110 104 98 60 78 128 132 137 138 135 135 137 135 145 136 131 135 123 127 127 128 126 130 144 144 135 129 122 119 124 132 133 121 109 104 101 103 100 102 104 113 114 106 103 127 125 120 115 107 100 97 60 75 122 129 135 136 137 135 135 139 139 132 134 134 123 131 128 135 132 139 146 155 143 138 125 127 137 142 146 134 114 107 102 101 99 95 99 109 108 108 95 131 129 121 113 104 99 96 59 76 122 129 132 135 137 138 134 132 130 131 135 129 128 130 131 132 136 140 141 137 133 143 141 141 145 131 109 105 102 102 104 98 96 91 84 97 105 110 103 134 135 125 113 105 99 96 60 75 125 127 130 133 140 138 132 133 127 125 129 124 123 120 122 118 112 111 108 103 100 102 107 114 97 89 92 89 83 82 79 80 83 77 81 99 115 117 111 143 138 127 115 104 98 98 58 74 123 126 130 136 141 140 134 129 126 123 123 116 108 102 93 88 83 77 72 77 81 77 73 73 72 65 69 61 61 57 58 46 43 58 96 110 115 118 128 144 138 124 114 102 98 99 58 72 122 128 130 135 141 144 133 125 124 122 119 103 65 75 72 63 59 81 87 131 130 114 112 123 127 91 103 85 92 77 76 51 77 100 109 117 125 126 145 151 139 123 108 101 95 95 58 74 120 122 125 133 138 146 139 131 124 120 117 96 74 56 43 73 76 105 110 142 164 152 127 152 140 76 93 70 95 69 80 89 104 117 120 124 134 134 147 148 134 118 105 97 92 91 58 72 116 119 123 132 142 146 144 136 127 122 121 116 123 105 91 86 80 82 87 94 110 108 87 113 105 95 93 88 86 86 88 96 109 123 126 126 132 140 152 145 130 114 101 96 94 95 56 71 116 120 123 125 140 141 145 142 132 129 127 125 133 118 108 105 107 109 118 118 117 116 115 116 116 117 109 96 90 90 94 103 113 120 124 126 132 141 152 143 122 106 95 91 95 94 58 72 117 122 121 121 133 141 144 143 137 130 132 133 135 127 119 115 118 124 141 140 129 130 129 126 129 133 123 104 99 98 100 106 111 115 122 128 132 139 143 131 105 99 93 93 94 96 59 69 113 117 118 116 128 133 136 137 136 135 132 138 133 132 129 121 121 127 128 127 123 116 117 117 118 118 113 109 103 100 99 105 110 115 123 130 134 138 135 121 101 93 93 96 96 92 55 69 114 116 117 115 124 129 136 134 138 141 139 136 130 132 129 122 120 120 122 126 110 113 113 117 113 118 117 106 99 96 98 106 109 117 120 128 134 133 126 109 92 89 91 96 92 87 53 68 113 113 117 114 118 126 137 135 136 136 134 137 132 130 126 121 117 115 120 114 108 112 113 115 108 107 108 103 96 97 101 108 113 116 120 130 130 120 120 102 89 87 93 88 87 84 53 67 113 112 115 116 117 117 124 135 134 139 141 138 127 130 125 124 127 124 121 116 111 111 108 114 107 101 100 103 102 104 105 112 118 118 129 126 121 115 105 91 85 82 91 90 87 85 52 67 110 113 113 111 113 115 116 125 131 132 136 141 132 129 124 120 121 119 113 115 115 111 107 104 104 101 104 104 108 111 113 118 122 124 131 113 107 101 93 84 83 86 91 85 85 85 50 62 103 107 113 113 112 113 114 118 126 134 138 135 137 132 133 126 125 123 116 110 106 99 96 95 91 92 103 109 117 122 121 122 122 121 116 107 103 95 85 81 87 85 85 87 85 81 47 61 101 105 110 111 111 113 113 118 125 137 139 138 143 139 137 136 128 119 122 118 118 111 109 107 108 111 116 125 129 129 125 122 119 120 112 103 95 90 85 81 86 85 87 85 81 78 47 61 100 104 106 112 115 110 108 116 119 129 135 136 141 147 148 143 135 127 129 128 127 127 130 125 124 116 119 122 130 129 132 124 114 112 100 92 88 81 83 83 84 86 86 84 81 76 48 61 98 100 104 108 110 106 104 109 110 121 128 140 144 147 148 138 139 133 135 133 132 129 130 131 124 126 123 119 124 122 123 118 113 104 95 83 77 78 81 83 83 87 83 80 78 76 48 62 99 99 105 105 104 108 109 101 110 116 120 132 139 142 139 137 134 141 143 133 134 133 131 128 133 134 124 118 118 125 122 114 107 97 87 80 77 79 87 85 84 84 81 80 75 79 52 63 99 95 100 104 104 106 107 100 101 108 116 121 131 138 132 140 143 142 146 139 134 127 131 133 131 123 125 116 123 120 117 109 99 89 79 75 77 83 85 82 84 84 80 76 77 82 53 41 62 60 61 64 61 61 64 64 63 67 70 68 79 84 83 91 87 85 87 88 83 81 78 82 78 77 74 68 75 73 68 63 57 50 47 46 48 50 51 52 51 50 48 46 49 54 33 