P2
48
60
255
27 44 47 49 49 49 49 49 50 52 53 54 54 55 56 56 57 58 61 62 64 64 65 64 64 65 65 64 63 64 64 64 66 63 63 63 62 61 60 60 58 57 57 55 51 40 38 23 41 70 76 79 79 79 79 79 81 82 84 87 88 89 91 93 94 96 99 102 102 105 106 105 105 106 105 101 103 103 105 107 106 104 105 104 100 101 99 97 95 94 91 90 83 66 62 41 40 71 77 77 77 77 77 79 80 82 85 87 89 89 91 94 95 95 98 101 104 106 106 105 105 105 105 104 105 105 106 108 109 109 108 106 103 102 99 98 95 94 92 91 84 67 60 40 40 72 77 76 77 77 78 78 78 81 85 86 89 88 92 93 97 99 100 102 106 107 106 104 106 105 106 103 106 107 111 113 110 110 110 107 104 101 100 98 95 94 92 91 87 70 60 38 42 74 75 76 76 76 78 77 77 79 83 85 89 92 92 95 97 101 102 105 105 108 107 106 107 107 106 105 109 113 113 115 115 113 110 107 104 104 100 97 97 95 91 91 90 82 64 39 45 74 74 75 76 77 78 78 77 78 80 84 89 92 91 93 97 99 103 107 107 109 110 107 108 107 108 110 113 117 119 118 119 114 110 108 104 103 97 92 93 93 92 90 90 90 71 39 46 75 74 75 77 78 77 77 77 76 78 83 87 90 91 93 95 99 102 104 106 108 109 107 108 108 107 109 113 118 118 117 116 112 108 107 102 95 88 80 82 88 90 88 89 91 75 38 46 75 74 77 80 72 64 64 64 69 75 80 85 90 91 92 94 95 98 101 103 106 104 104 109 107 109 108 110 114 113 111 111 106 103 95 86 79 75 69 66 69 74 86 88 90 77 37 46 73 74 69 62 57 53 51 51 52 55 61 69 82 88 88 91 94 96 100 100 101 100 101 105 106 105 106 107 108 107 105 93 83 75 66 64 67 75 74 78 73 70 76 88 91 79 36 45 72 69 60 57 56 58 56 51 46 46 49 52 61 73 81 89 91 94 97 99 100 98 99 100 103 104 104 103 102 99 90 73 63 57 57 62 84 95 91 90 84 83 75 85 91 81 37 45 70 67 64 63 65 69 73 71 64 56 51 50 51 58 68 78 85 89 93 95 98 96 96 96 97 99 98 95 91 85 72 66 66 70 85 96 103 104 100 96 92 87 82 82 90 82 38 45 68 62 65 67 70 73 79 83 86 85 77 66 59 55 59 69 76 82 87 91 94 92 90 88 92 94 91 86 81 76 73 81 88 94 98 99 99 98 96 94 92 89 87 84 91 84 39 45 70 66 66 67 67 68 71 73 78 85 89 86 75 66 61 63 68 75 82 88 91 91 86 85 94 94 88 85 83 85 90 91 89 83 82 84 88 84 82 83 88 90 89 89 91 86 39 45 70 67 66 63 56 58 63 64 64 65 69 77 74 73 70 65 67 71 78 88 92 90 88 93 100 98 92 91 92 92 91 80 72 67 61 58 64 68 75 81 81 89 90 91 92 87 39 45 70 67 65 56 56 52 48 50 46 46 46 55 77 76 71 69 65 69 76 87 95 94 94 103 111 103 98 95 93 105 77 73 63 54 48 50 67 90 67 63 78 89 92 92 91 87 39 45 70 67 63 56 48 47 59 59 52 41 46 64 98 76 75 71 67 65 72 82 93 97 98 106 109 103 101 97 93 85 75 75 64 53 39 89 62 101 92 67 68 89 94 94 92 89 40 45 71 69 63 56 51 54 64 59 50 37 44 64 115 103 71 59 75 66 69 76 89 96 99 102 103 101 102 103 98 79 71 86 70 52 39 51 63 103 95 81 75 84 95 97 95 89 41 47 74 70 66 62 65 61 65 66 53 50 53 72 116 98 77 63 75 69 69 74 88 94 96 98 101 98 101 105 92 82 75 85 86 61 57 57 85 101 90 79 81 90 96 97 95 90 43 47 74 72 70 72 68 65 67 69 66 59 61 76 88 88 84 85 75 69 68 74 88 92 93 97 100 99 101 101 98 96 89 85 82 77 72 81 91 82 82 83 89 90 96 98 95 91 44 48 76 74 74 74 72 68 67 66 67 73 76 74 85 86 86 83 72 69 69 72 85 90 91 95 100 99 97 98 99 98 97 89 86 87 86 87 93 93 91 93 89 89 94 96 96 91 46 48 78 76 75 75 73 70 71 75 79 84 89 89 90 87 87 81 70 68 68 71 84 87 90 91 96 96 95 97 99 100 102 100 100 102 105 102 101 101 99 95 89 90 93 95 95 90 47 48 79 79 79 75 74 75 75 79 86 91 93 91 91 90 88 79 70 67 67 70 76 84 86 90 95 95 95 96 96 103 108 104 108 113 115 114 110 105 100 97 92 93 94 95 95 91 47 48 79 82 83 78 76 78 79 81 85 90 90 90 91 92 86 76 69 67 66 68 76 84 85 89 92 93 95 96 95 101 107 110 107 109 116 115 109 104 99 96 92 92 92 95 94 91 46 48 79 82 83 81 79 79 80 80 84 86 88 88 91 90 83 73 68 66 66 68 75 79 81 86 89 93 95 96 95 100 105 112 114 110 113 117 113 110 100 95 95 95 96 96 95 91 44 47 79 83 84 82 81 81 82 83 85 87 88 89 90 87 80 72 67 66 69 70 77 78 78 82 82 86 93 95 99 97 104 108 114 116 117 115 115 116 102 97 97 97 98 97 95 90 41 46 77 79 83 82 83 83 84 84 85 85 88 88 87 85 79 70 65 68 73 76 79 81 82 86 85 82 86 88 97 99 102 109 108 109 111 115 110 109 105 101 99 99 100 99 94 89 39 45 76 78 80 80 82 85 86 87 86 86 86 87 85 84 77 69 62 71 78 79 86 85 90 91 86 86 85 85 91 102 103 106 108 107 107 107 107 109 106 103 101 100 101 101 94 86 38 45 74 76 78 80 83 84 86 86 87 88 88 88 85 81 73 65 64 78 82 81 83 94 96 97 108 100 89 88 87 104 103 106 108 107 107 108 107 108 107 104 103 102 103 101 94 82 36 44 73 75 76 78 81 83 87 88 89 89 90 87 83 78 70 62 73 80 75 69 72 87 92 96 103 96 89 87 87 100 105 105 106 109 109 107 109 109 109 106 104 104 103 102 94 78 37 43 72 75 75 77 80 84 86 90 90 91 89 87 85 76 66 62 73 74 70 64 64 81 89 88 89 88 86 86 89 96 103 103 105 106 109 109 109 111 109 107 104 105 104 101 93 75 37 45 73 73 75 77 81 84 87 87 88 94 93 91 86 76 64 62 69 71 63 49 54 68 76 80 84 57 48 72 90 95 101 99 102 107 111 111 110 110 108 104 102 104 103 100 90 70 38 45 74 73 75 77 80 82 86 87 88 95 93 92 90 81 67 62 68 73 55 38 43 53 69 79 80 54 57 70 88 97 101 100 101 106 109 111 111 109 108 104 102 103 102 99 87 67 37 44 74 75 75 76 80 81 84 87 89 95 94 95 95 91 79 66 62 72 75 66 63 61 71 83 91 93 91 84 87 97 103 101 103 105 107 110 110 109 107 105 103 101 100 96 81 65 37 44 73 74 75 76 79 81 84 86 91 93 92 95 97 94 91 84 72 64 69 74 76 71 76 87 96 96 89 82 86 97 102 102 104 105 106 109 108 109 105 104 103 102 101 95 78 61 36 44 72 75 74 74 78 80 82 86 89 90 91 95 96 94 93 102 84 79 74 76 82 82 88 96 99 96 90 89 92 98 103 104 104 105 105 108 108 108 106 104 101 100 100 93 70 64 39 43 71 76 75 74 76 78 80 83 87 88 92 95 96 94 93 88 83 82 79 77 82 87 93 97 100 96 93 92 95 96 100 104 105 104 106 105 105 106 106 105 102 100 97 90 69 65 46 42 71 75 74 74 75 76 80 83 84 85 90 92 93 92 90 84 81 79 79 79 84 88 94 96 93 92 88 90 93 97 100 103 102 104 104 106 106 106 105 103 101 99 98 88 69 85 73 42 70 73 73 73 73 77 78 79 80 85 89 88 90 90 84 81 78 76 74 78 86 91 93 92 92 93 86 86 91 93 98 98 102 101 105 105 105 105 104 104 101 98 95 84 70 85 115 42 69 69 71 73 74 76 77 77 80 83 83 83 86 84 79 77 72 71 71 77 87 91 90 89 87 92 85 80 81 89 93 89 91 94 102 105 104 106 106 103 99 93 93 78 69 79 129 42 65 67 69 72 72 74 75 75 74 77 76 77 83 78 75 71 67 72 77 81 88 86 83 82 88 96 89 82 78 88 88 82 86 88 91 101 104 106 105 102 97 92 85 71 69 87 140 40 63 63 68 70 72 73 74 72 73 73 72 74 81 74 68 68 73 77 81 81 86 88 88 95 102 102 99 95 86 87 87 82 79 82 81 93 103 104 104 104 96 90 83 68 68 134 152 38 64 63 65 65 69 72 71 71 72 71 74 75 74 69 66 66 70 71 72 73 74 77 82 89 92 88 88 86 89 86 86 84 80 81 83 86 98 103 102 101 97 86 77 67 69 171 156 37 61 62 66 66 70 72 70 70 71 72 77 80 75 60 59 61 60 60 58 59 62 68 72 75 78 78 75 75 77 81 83 81 82 83 85 88 98 105 102 98 93 80 73 68 75 216 158 35 61 62 63 64 70 71 72 69 70 77 80 83 64 47 47 50 54 50 48 45 45 51 55 62 62 54 54 56 61 66 67 61 74 90 91 96 97 104 102 97 91 81 76 65 90 242 158 35 57 60 61 63 67 71 74 72 74 82 88 91 77 64 60 60 61 63 65 67 66 66 64 63 64 63 64 68 71 71 73 82 75 87 97 102 104 104 100 94 87 80 75 63 98 243 158 35 59 59 60 60 65 69 75 75 78 86 90 89 79 68 63 63 65 69 74 77 80 83 84 80 79 79 80 81 83 82 87 94 91 89 98 102 104 102 99 87 81 74 71 62 119 242 158 39 58 60 60 59 61 66 72 77 79 84 85 87 79 71 65 63 67 73 79 83 88 91 87 87 91 92 89 86 88 89 92 93 95 96 98 102 104 100 95 87 76 75 68 61 170 252 158 38 56 58 58 59 62 65 71 75 78 82 84 84 77 72 70 66 65 67 70 75 80 85 89 86 88 89 87 88 91 94 95 95 98 101 100 102 102 98 89 84 77 68 63 72 207 255 158 42 56 55 55 58 61 63 70 74 76 77 77 79 76 73 72 73 73 70 67 66 68 71 75 74 77 79 81 89 95 97 96 97 99 98 100 103 101 98 83 72 75 64 58 102 242 255 158 58 57 53 53 55 59 62 68 71 74 74 73 74 74 75 75 76 78 78 76 75 70 67 71 71 76 82 89 93 96 98 98 98 99 100 100 99 101 95 82 71 71 65 61 190 253 255 158 106 64 53 52 53 56 60 65 66 71 73 73 70 74 76 78 79 82 81 81 77 70 66 74 77 82 88 94 97 100 101 100 99 97 100 102 101 97 92 76 65 65 58 78 241 255 255 158 126 75 53 51 51 53 56 59 61 65 70 72 74 75 77 79 83 85 86 85 84 71 67 76 89 91 95 98 101 103 102 100 100 100 98 97 95 90 84 72 62 57 54 91 248 255 255 158 138 84 59 51 51 48 51 54 55 59 64 69 74 77 79 81 84 87 88 88 85 79 72 80 95 98 99 97 103 102 100 100 99 101 91 81 87 86 78 70 60 53 57 109 251 255 255 158 140 89 65 53 46 44 44 46 50 53 58 64 71 78 79 83 86 87 88 88 85 88 84 93 98 94 99 102 104 102 94 96 98 98 87 76 72 74 71 63 55 51 63 114 252 255 255 158 143 90 69 58 48 44 43 43 43 47 54 59 68 74 78 82 85 87 86 87 84 88 96 98 95 100 102 102 105 103 97 95 98 93 79 69 68 67 64 61 54 56 73 120 252 255 255 158 148 93 71 64 52 44 41 43 42 45 51 55 64 71 75 79 84 85 83 86 85 89 97 101 101 104 103 102 104 106 100 98 95 86 72 63 63 60 56 53 50 65 84 129 253 255 255 158 151 100 73 66 58 44 42 42 41 42 46 52 58 67 72 77 81 83 83 85 84 89 94 101 105 105 104 103 105 105 98 92 85 78 69 60 57 58 51 47 51 74 85 129 253 255 255 158 151 101 76 68 61 52 43 41 41 40 43 46 52 61 66 73 78 81 82 82 84 90 89 95 98 102 103 102 102 100 92 80 72 71 59 54 56 51 47 48 70 81 83 129 253 255 255 158 151 101 74 68 62 55 50 40 39 39 39 42 46 53 59 64 70 76 77 78 83 87 89 84 94 94 96 93 94 91 81 71 61 59 54 51 50 46 45 62 82 83 87 131 253 255 255 158 93 63 45 42 40 37 36 30 24 24 23 24 26 30 33 35 39 43 46 49 52 52 54 53 56 55 56 53 54 50 45 39 32 32 29 29 26 26 34 46 53 52 54 77 156 158 158 98 