P2
48
60
255
27 46 47 48 49 49 51 55 56 59 61 62 64 65 65 65 63 62 62 60 60 58 59 60 60 59 60 61 61 61 62 60 58 55 51 48 46 45 45 46 45 45 45 45 45 44 42 25 44 74 77 77 78 79 83 88 91 96 98 101 104 105 105 105 103 103 101 98 97 96 97 99 98 98 98 98 99 101 102 100 96 90 85 80 76 74 73 74 73 72 73 72 73 71 70 42 43 75 77 76 76 79 84 89 92 98 100 103 105 105 106 105 105 104 102 98 96 97 99 100 101 100 99 98 100 102 101 101 97 93 87 83 80 78 76 74 75 73 73 73 73 71 71 43 44 77 75 76 75 79 84 90 94 98 103 107 109 108 109 109 106 104 101 99 98 97 100 99 101 100 101 99 101 101 99 101 99 95 92 88 84 82 80 77 76 75 73 73 73 72 72 43 47 78 75 77 77 81 86 91 94 97 102 107 110 110 108 107 106 105 102 99 99 98 99 100 100 100 101 100 101 101 100 99 99 98 94 91 87 84 81 79 78 76 74 73 74 73 73 44 48 77 77 77 78 83 89 83 83 88 95 101 104 105 106 103 102 101 99 97 96 95 96 98 99 99 100 98 98 98 96 95 93 91 89 88 86 82 79 78 79 77 76 75 75 74 74 45 47 76 76 76 79 83 77 70 71 73 74 79 86 90 94 92 93 92 91 92 91 91 93 93 94 96 97 94 92 92 90 87 85 82 79 78 76 74 72 70 74 79 78 76 75 75 74 44 47 76 76 75 76 74 74 73 71 66 64 63 65 64 68 67 70 78 80 81 84 88 88 81 92 92 90 86 84 80 79 77 73 68 67 66 66 66 67 67 68 73 78 78 76 75 76 45 46 75 73 70 75 80 84 83 77 67 59 56 56 54 55 57 58 63 70 75 84 88 89 86 88 86 83 81 77 69 64 61 59 58 57 58 59 59 61 65 67 70 72 74 76 76 77 47 46 75 71 71 83 88 88 85 80 76 71 64 56 53 56 58 58 59 64 72 82 86 86 84 82 81 79 75 68 61 56 54 53 53 54 55 56 57 61 66 68 69 70 70 74 77 77 48 47 74 72 78 86 86 83 80 78 76 72 69 67 65 63 63 64 65 67 71 79 83 81 79 78 77 74 69 64 59 56 55 55 55 56 57 59 61 64 67 69 71 73 72 72 77 78 49 47 74 75 82 83 82 81 81 82 83 81 74 68 65 63 62 63 66 69 73 78 82 79 77 75 74 70 64 59 58 57 57 57 59 61 62 64 66 66 67 69 70 73 74 74 78 79 50 46 77 80 82 81 78 78 84 87 87 84 76 69 62 60 61 63 64 67 72 78 83 84 82 79 73 65 59 55 55 56 56 58 62 67 70 73 70 67 67 67 68 70 72 75 77 80 50 47 78 82 79 75 70 70 76 83 89 93 85 74 62 56 56 60 63 67 72 79 87 94 92 86 75 63 56 53 54 56 58 64 73 81 82 98 78 71 69 65 66 67 69 72 77 81 51 48 81 81 76 69 67 75 81 82 77 70 64 60 58 56 55 57 63 69 74 81 90 101 104 97 80 65 55 52 54 56 62 72 80 86 87 92 86 79 74 66 62 64 66 70 76 82 51 49 82 81 74 70 67 63 59 59 62 48 45 46 50 55 52 55 62 78 83 86 92 103 106 101 86 68 58 54 55 60 63 66 69 64 61 62 65 68 72 73 68 63 65 69 74 82 52 51 84 84 79 76 71 63 61 71 86 74 52 52 62 62 55 57 61 78 87 89 93 102 104 98 87 73 63 60 57 55 60 70 78 65 57 58 61 62 63 64 65 66 68 70 75 82 52 52 87 89 84 81 80 78 78 77 78 80 76 71 69 68 67 67 75 82 87 91 94 103 105 99 88 77 71 66 65 68 73 77 78 75 70 69 68 67 67 67 69 73 73 74 78 82 52 52 88 90 88 85 85 85 86 86 84 83 77 72 68 67 70 75 82 87 88 92 97 103 104 102 89 80 77 72 72 74 74 75 76 75 75 73 72 72 74 76 79 81 81 82 83 84 53 53 89 90 90 90 91 90 87 84 80 76 73 70 72 78 83 87 89 92 92 93 98 105 105 105 91 81 78 77 79 81 78 74 73 73 74 74 74 75 76 77 80 85 86 86 87 87 54 53 88 90 93 94 95 95 94 91 87 86 87 88 89 90 93 95 98 97 97 95 99 107 105 105 88 80 78 80 82 86 87 82 77 72 71 69 69 71 75 80 84 88 88 89 91 90 55 53 89 93 95 95 96 97 98 98 99 98 96 97 99 99 101 102 100 101 99 99 100 106 106 106 87 79 79 82 84 87 92 92 89 87 85 84 84 86 88 89 90 90 91 91 92 92 56 53 90 97 98 100 100 101 102 102 102 103 103 103 103 104 106 107 104 103 100 101 101 109 107 106 87 80 81 82 85 87 94 98 98 98 98 98 98 97 97 98 97 94 94 94 94 93 57 53 91 97 99 102 104 107 108 108 107 106 105 106 108 109 109 107 106 102 102 101 103 110 109 107 88 81 81 83 85 87 94 99 101 103 104 105 104 104 104 103 100 97 96 95 95 93 57 53 92 97 99 105 108 112 113 113 111 110 109 110 112 113 111 110 105 100 101 101 102 107 107 105 89 83 81 82 83 87 92 99 104 106 107 108 107 106 106 102 100 98 96 95 94 94 58 53 91 97 100 105 107 112 114 114 112 113 111 113 114 113 110 109 101 99 101 99 102 105 105 104 89 83 80 82 81 85 92 97 102 104 107 108 105 106 104 102 100 98 96 95 95 94 58 54 90 96 99 104 109 111 113 113 114 114 114 113 114 112 109 107 97 100 99 97 102 108 107 104 88 80 78 81 82 82 88 94 100 104 107 109 109 106 104 101 99 99 96 95 95 94 58 52 89 94 99 102 108 111 113 113 114 114 116 116 111 111 108 102 98 104 102 95 107 112 107 108 88 79 78 83 84 80 85 91 97 103 105 107 104 103 103 100 98 98 97 96 95 94 58 51 87 93 97 101 105 109 111 113 115 114 116 115 111 108 105 96 101 109 104 96 112 112 104 101 89 80 82 89 87 80 80 88 93 99 103 103 101 101 100 99 98 97 96 96 94 94 58 50 85 90 95 100 104 107 109 112 113 114 112 110 108 105 102 94 101 108 104 96 108 107 97 93 85 79 81 88 86 81 80 85 91 97 100 101 102 100 99 98 97 96 95 95 94 94 57 49 83 89 94 98 101 105 105 109 111 109 109 106 103 101 101 93 94 95 94 90 94 97 90 86 76 72 74 77 77 77 79 82 88 92 95 99 99 98 97 97 96 95 95 94 93 93 57 48 82 86 92 97 99 101 103 106 107 108 105 101 98 98 102 94 83 73 60 73 88 87 80 74 64 60 58 61 65 70 76 81 85 89 93 96 96 95 95 94 94 93 93 93 93 93 58 48 81 84 89 92 96 96 100 102 104 104 100 97 95 97 101 96 83 67 67 81 88 84 73 68 60 52 52 55 61 66 78 82 84 87 90 92 93 93 91 91 92 92 92 92 93 94 58 49 81 82 85 88 91 93 96 98 100 100 97 93 93 98 98 97 93 86 81 82 81 74 65 62 53 53 53 55 59 74 81 83 85 86 88 89 89 90 89 89 90 90 91 92 93 94 59 50 81 81 82 84 87 89 93 94 96 95 91 90 94 96 96 95 92 86 84 82 81 77 63 57 54 54 55 58 66 78 81 84 85 83 86 86 86 87 86 87 88 89 90 91 93 95 60 51 82 81 80 82 83 86 89 91 92 91 89 90 91 92 92 92 87 82 77 71 71 67 64 60 58 59 61 64 73 80 82 83 82 82 83 83 83 84 84 85 86 87 89 91 93 97 63 53 84 81 80 79 80 83 84 86 88 88 87 88 87 88 84 82 79 75 72 69 66 59 62 67 66 65 66 67 71 76 78 80 79 79 80 80 81 81 82 83 84 86 88 90 94 100 65 70 85 81 80 79 80 81 81 84 84 85 86 84 78 76 77 76 74 75 76 77 71 63 67 75 78 76 74 71 70 71 72 74 75 77 78 79 79 79 80 82 83 85 87 91 95 102 69 101 85 81 80 79 80 81 81 81 82 84 84 78 68 71 75 78 77 76 77 76 75 74 79 81 76 71 69 68 70 70 71 69 68 72 77 78 78 78 79 80 82 84 87 91 97 105 72 130 89 82 80 79 80 79 80 81 80 83 81 68 66 71 74 70 67 65 66 66 64 66 68 66 64 64 62 60 61 64 69 68 65 67 71 77 77 78 79 81 82 84 87 92 98 109 75 147 100 82 80 80 79 78 80 82 83 81 78 62 67 63 61 57 56 55 63 64 68 65 62 63 59 58 59 57 58 59 60 62 63 67 68 75 77 78 80 81 82 85 88 93 100 111 78 156 122 83 80 78 79 78 80 83 84 83 78 67 61 51 47 57 61 52 71 73 88 79 73 78 74 67 63 58 57 59 56 56 61 67 71 74 78 80 80 81 83 85 89 94 101 114 82 158 162 83 79 76 78 78 79 81 84 85 82 74 64 60 60 71 75 78 78 68 78 74 69 69 71 65 67 70 71 68 62 61 64 68 72 75 79 81 82 81 82 86 90 95 102 118 86 158 206 84 79 76 75 77 78 79 82 84 83 75 72 73 76 75 77 84 88 84 79 79 75 79 85 90 92 91 77 73 71 73 74 73 73 74 79 81 80 82 83 85 89 95 105 122 99 158 229 85 78 75 74 75 76 77 79 83 81 78 76 79 79 77 75 79 90 95 90 90 96 98 98 96 90 78 70 67 69 73 77 76 74 75 78 78 79 80 82 84 89 95 106 126 126 158 236 87 76 74 73 73 74 74 76 80 80 80 81 82 80 78 75 74 79 85 86 86 85 86 84 78 71 65 63 63 68 72 76 77 75 74 75 76 76 79 81 83 88 94 106 133 147 157 216 84 73 73 72 71 71 71 72 76 78 80 82 83 81 77 75 73 69 69 68 67 68 66 64 61 58 57 59 64 69 73 76 76 75 73 74 73 74 77 79 82 87 93 104 152 156 88 79 75 69 71 71 71 70 71 72 73 76 79 80 82 81 79 76 74 70 62 57 54 54 54 55 56 56 59 64 69 72 73 75 74 73 73 72 72 74 75 78 81 86 92 101 180 157 38 57 74 68 67 70 70 70 70 71 71 75 79 81 81 81 81 79 77 74 68 63 61 60 59 60 63 66 70 71 73 73 73 74 73 73 72 71 72 73 75 78 81 85 90 99 132 139 32 51 72 70 64 67 69 69 70 71 71 74 77 80 80 81 81 83 81 82 80 76 74 71 70 72 77 78 78 77 76 74 72 72 72 72 72 71 71 72 75 77 80 83 87 96 102 77 29 48 72 72 66 64 67 68 69 70 70 72 75 78 79 80 84 86 85 86 86 87 87 87 87 85 86 84 82 79 77 74 72 72 71 71 71 71 71 72 74 76 78 81 85 89 93 64 28 54 71 74 69 63 63 65 67 69 70 71 74 76 78 80 83 86 86 88 90 92 91 91 91 89 86 85 83 81 79 75 73 72 71 71 70 70 71 72 73 75 77 79 84 85 90 60 27 57 70 75 71 66 61 62 63 67 69 69 71 75 77 81 83 87 89 89 92 91 89 87 86 85 84 82 82 79 77 75 73 72 71 70 70 68 69 70 72 73 75 78 83 84 86 57 29 56 68 77 75 69 64 60 59 61 66 68 68 72 77 80 82 84 89 89 88 85 81 79 78 79 79 79 79 76 76 72 72 71 69 68 67 67 67 69 70 71 73 77 83 86 86 55 31 55 65 76 76 72 67 62 59 57 60 64 65 67 73 77 79 80 85 87 83 78 72 68 67 68 72 73 72 70 70 69 69 68 67 65 64 65 65 66 67 69 72 76 82 86 87 53 33 54 61 77 76 74 70 66 62 59 56 58 62 63 65 71 73 74 76 77 73 70 64 59 60 61 64 64 62 63 64 64 64 64 62 61 62 62 63 64 66 68 72 77 80 82 87 53 38 55 52 76 77 75 72 69 66 62 59 56 55 59 60 63 65 68 66 63 61 59 55 52 53 57 60 58 57 57 57 58 58 58 58 59 59 60 61 64 65 67 72 77 79 78 85 54 40 57 47 68 77 76 74 72 68 65 62 59 56 53 54 56 57 58 57 55 54 52 50 49 51 53 55 54 52 52 52 52 53 54 55 56 58 59 61 62 64 67 72 77 77 76 84 54 40 60 50 53 72 77 75 72 70 68 65 62 60 56 53 51 51 52 51 51 49 48 47 47 48 51 51 50 50 50 51 51 52 53 55 56 57 58 59 61 64 68 73 78 76 73 82 52 23 40 34 30 38 45 47 46 44 42 41 40 38 37 35 33 31 30 30 30 30 29 29 29 30 30 31 31 31 30 31 31 32 33 33 34 35 36 36 37 39 42 45 47 46 44 50 32 