P2
48
60
255
37 60 61 64 69 70 72 76 77 77 79 81 86 87 87 89 91 92 93 92 88 86 93 92 93 92 94 97 96 94 92 96 94 97 97 96 92 86 86 85 84 83 81 81 79 75 74 45 60 99 99 108 113 115 118 122 125 128 131 136 143 143 143 142 147 148 148 148 144 143 149 149 151 150 152 153 155 154 150 154 155 157 157 154 149 148 142 140 137 135 132 131 125 120 122 73 60 99 102 110 112 116 119 122 124 126 133 137 140 142 142 143 146 144 147 146 146 149 150 152 148 151 155 155 155 148 150 149 154 153 156 154 148 146 141 139 138 136 133 129 126 120 120 73 60 99 103 109 114 118 119 121 126 127 132 136 140 141 141 138 139 141 142 145 145 145 150 148 148 150 150 150 151 151 151 148 152 153 153 152 149 146 144 142 140 139 132 130 125 119 119 73 60 98 103 109 116 119 121 122 125 128 129 134 136 135 134 135 132 132 133 136 137 139 142 142 144 144 142 145 146 146 146 148 148 151 150 147 146 143 142 140 139 138 135 131 125 119 118 72 59 96 103 109 115 119 120 121 123 125 127 132 133 135 131 129 127 126 128 127 128 132 132 135 138 137 139 139 137 136 137 142 143 144 144 143 145 143 145 140 140 137 136 133 124 119 119 74 58 95 100 108 113 118 118 119 122 122 123 128 128 131 129 127 124 122 122 121 125 126 129 130 129 132 134 132 131 130 132 134 137 136 132 133 131 130 136 133 130 127 131 130 123 119 119 72 58 95 99 106 107 106 108 105 101 94 90 90 94 100 106 114 115 115 115 118 119 122 122 124 127 126 125 125 125 125 125 124 120 107 92 89 90 94 98 109 106 108 112 123 126 120 118 71 59 93 94 95 90 88 85 73 64 63 58 56 55 59 63 79 91 99 104 110 116 116 117 120 122 123 123 117 113 107 100 91 81 70 58 57 59 66 69 82 99 101 101 102 115 115 115 69 57 90 79 71 75 70 64 58 54 56 55 54 53 58 56 59 72 81 88 93 108 111 117 121 119 118 114 106 94 90 82 74 72 63 57 54 55 56 68 79 85 90 98 93 93 103 108 71 49 74 63 62 70 70 68 70 64 62 61 58 53 54 55 59 64 70 78 86 99 110 116 121 118 115 106 95 79 72 65 60 58 60 67 72 76 82 85 90 96 93 92 95 86 80 95 67 43 64 64 71 81 85 94 98 101 100 96 91 84 80 74 69 68 72 79 85 95 105 117 121 120 114 106 96 82 73 74 77 80 88 96 108 119 123 127 123 118 114 110 104 98 85 78 58 44 72 81 91 94 98 106 104 105 104 98 92 86 86 90 88 78 76 81 87 97 106 119 123 124 117 110 103 93 87 88 92 95 93 92 97 103 112 119 119 119 118 113 113 104 99 84 53 50 79 84 88 93 89 86 80 83 91 98 97 87 76 66 83 87 80 84 91 100 112 125 126 131 123 114 105 95 89 95 85 70 72 87 93 95 90 87 82 84 97 111 112 106 100 96 60 52 84 86 83 77 66 77 89 78 63 57 67 85 98 99 80 77 79 85 94 102 116 133 135 134 126 116 109 98 95 88 82 90 82 57 45 39 42 48 74 86 74 74 97 104 101 97 63 52 84 83 72 59 75 60 38 26 47 25 72 47 68 81 97 90 86 89 98 102 121 141 142 141 127 116 111 101 105 96 87 66 78 60 43 36 56 34 47 44 61 66 61 90 99 100 66 51 80 78 51 51 37 40 52 32 28 23 33 74 121 83 64 77 101 98 100 103 122 137 145 141 127 116 117 117 126 74 61 84 118 82 39 29 32 37 76 77 49 42 48 70 95 103 67 55 82 70 55 43 54 73 86 63 56 57 71 109 124 110 102 97 106 101 102 102 121 135 142 138 125 116 119 122 128 106 108 113 118 109 95 85 90 99 98 95 82 80 73 72 90 107 72 55 78 70 79 73 78 82 93 99 97 103 108 107 119 125 119 108 102 105 102 101 120 136 142 138 124 114 122 123 126 120 123 122 125 109 102 102 104 115 116 118 118 115 107 107 109 117 79 64 94 88 91 93 100 102 107 104 106 113 115 113 110 104 103 106 110 112 99 102 120 131 140 138 124 113 121 127 131 135 115 106 108 110 112 116 120 123 126 124 121 111 105 121 127 130 82 66 105 96 91 80 87 98 108 112 111 105 102 94 91 108 123 116 116 107 97 100 117 130 137 135 123 112 118 130 130 140 147 131 110 96 93 95 99 101 99 98 100 112 127 137 137 134 81 70 113 112 110 105 95 88 85 85 86 89 98 114 128 130 124 121 117 103 97 99 114 126 134 131 121 114 115 130 137 139 148 152 146 135 126 115 108 107 113 122 134 143 143 144 141 139 83 69 117 122 124 131 132 131 128 125 126 130 129 134 135 136 132 125 112 100 99 99 113 125 131 131 125 116 118 127 136 143 146 149 147 150 145 141 139 138 135 138 143 144 145 146 145 141 83 70 117 123 126 130 132 133 136 136 138 137 135 134 140 141 135 123 109 104 100 106 115 125 130 129 125 117 116 124 134 144 147 148 148 152 150 150 148 151 149 150 149 144 145 148 146 139 83 70 117 120 126 134 141 140 139 140 137 140 142 141 142 140 133 119 107 100 100 110 118 125 127 129 126 121 114 118 127 143 145 147 146 148 151 152 150 149 153 152 157 154 149 149 144 136 82 68 114 121 130 137 139 142 144 147 146 145 144 145 146 142 128 107 99 95 105 113 121 127 131 134 130 123 115 112 120 122 130 143 143 150 152 152 150 149 155 157 160 160 153 150 142 136 81 66 115 123 130 135 140 150 151 152 152 151 149 144 139 130 106 92 97 96 102 111 124 131 135 134 138 129 117 110 117 113 105 119 135 145 147 148 152 154 158 161 166 163 156 146 143 138 81 66 112 121 127 133 143 150 155 156 156 146 144 137 126 98 81 95 99 95 100 111 124 140 141 148 155 135 117 109 117 121 104 94 115 128 135 141 148 152 157 164 164 163 154 146 143 136 81 65 110 119 126 133 137 144 149 150 144 139 136 126 103 70 84 100 99 93 95 107 122 137 133 138 134 120 106 104 115 120 108 89 91 108 123 129 137 143 145 150 156 152 148 143 138 133 79 63 111 117 123 127 129 136 137 133 131 132 126 104 76 68 87 97 93 87 83 91 110 123 124 119 111 96 92 95 106 111 105 92 84 93 105 117 123 131 139 144 146 144 140 138 133 130 77 64 108 112 116 121 122 130 129 127 123 120 109 86 65 80 88 85 83 74 73 75 86 105 112 106 96 88 67 60 77 90 95 97 88 85 93 107 113 120 125 132 132 135 134 131 128 128 75 63 106 107 110 118 116 121 121 117 114 109 93 69 70 91 98 78 59 43 37 51 72 81 89 84 83 68 44 41 54 85 104 102 98 83 83 96 104 111 117 122 125 126 127 125 125 124 73 59 101 105 106 111 112 114 112 109 106 97 78 61 79 94 98 91 64 48 48 51 57 63 64 64 77 88 86 87 93 102 104 101 102 89 76 85 97 105 109 117 121 122 122 121 119 117 71 56 97 100 101 105 105 108 108 103 98 85 63 64 87 94 94 94 93 88 86 85 78 63 61 69 83 94 99 102 104 103 103 106 106 101 76 73 85 94 103 108 115 116 115 115 113 112 66 55 90 91 96 100 99 101 99 94 86 71 55 76 90 93 92 93 94 96 99 103 105 107 102 94 100 108 111 108 109 108 108 105 107 106 89 67 71 82 91 102 105 108 109 109 106 107 64 52 84 86 89 92 95 97 95 88 75 56 63 87 92 92 91 94 96 100 109 120 131 130 125 116 116 120 121 114 114 114 113 109 110 111 102 78 67 67 79 89 98 104 105 104 101 100 61 50 81 83 84 87 89 91 87 77 55 52 81 91 94 93 94 97 102 109 116 126 136 135 130 127 129 129 128 122 122 119 117 115 114 112 106 95 72 69 74 78 90 101 103 103 98 98 60 51 81 81 83 87 86 83 74 57 51 76 91 92 95 96 99 99 102 109 117 125 133 133 129 130 130 130 131 125 122 119 116 114 111 110 106 99 79 62 64 69 79 92 100 101 102 98 61 53 84 85 88 89 93 85 65 54 61 80 90 90 91 91 92 92 93 96 100 105 108 110 116 115 109 107 107 102 98 96 94 94 93 94 92 87 74 54 55 78 86 93 99 104 103 101 62 56 87 89 90 94 98 87 74 52 49 57 66 66 66 62 61 61 64 68 74 76 81 86 89 94 89 85 77 72 66 61 58 49 40 37 36 40 46 51 77 94 104 107 110 113 107 101 62 57 93 93 96 100 107 99 92 78 69 70 50 29 18 17 24 47 56 64 68 69 75 77 73 80 90 97 100 101 97 87 74 42 21 25 56 77 97 108 105 110 117 120 119 113 109 104 64 55 92 93 95 103 117 119 114 103 99 97 87 70 42 18 24 62 89 92 98 101 154 160 120 129 189 170 116 124 113 104 85 69 50 77 93 104 119 128 119 121 126 126 120 113 107 101 64 53 91 92 94 100 119 130 125 113 112 108 98 88 77 66 53 80 99 111 155 124 165 168 157 163 185 173 141 171 122 103 92 89 97 104 109 115 128 136 131 130 130 123 118 110 104 101 63 53 88 92 94 95 116 130 133 122 115 112 103 96 92 89 86 86 87 98 143 130 150 151 143 154 158 154 132 140 115 104 106 103 102 103 108 124 134 139 134 133 129 121 119 108 102 100 62 54 89 92 94 96 109 127 135 128 118 114 107 97 89 88 88 90 94 101 109 117 129 133 123 135 135 135 123 123 120 112 104 101 99 101 113 131 133 138 135 136 129 121 112 102 100 101 62 52 88 90 91 92 103 120 131 131 122 108 105 99 91 87 85 89 94 104 119 132 145 140 129 130 133 146 141 128 117 111 103 96 97 107 119 129 131 133 137 135 125 114 107 98 100 98 58 48 84 88 89 90 97 113 121 126 122 109 101 99 93 87 85 89 94 101 114 125 130 124 117 116 120 127 126 118 111 103 99 97 102 114 123 130 131 137 134 131 120 110 98 95 97 93 56 47 79 84 90 88 93 107 119 123 118 109 101 97 93 88 87 87 89 96 102 108 106 107 109 108 108 110 112 110 105 100 99 101 109 118 125 127 133 134 134 128 115 102 94 96 95 88 54 47 76 81 85 88 87 99 116 119 109 110 103 99 94 89 87 86 86 88 91 99 101 100 102 104 106 106 109 106 104 101 101 106 116 123 129 127 128 130 122 118 107 97 97 95 91 88 53 49 73 77 84 89 87 92 108 115 103 104 104 100 96 92 90 87 86 86 88 92 95 96 95 95 96 100 98 100 102 101 108 115 121 129 131 129 126 129 126 113 101 96 96 92 88 86 55 51 74 73 81 86 87 87 102 109 104 97 102 103 99 97 94 91 90 89 87 91 93 92 93 95 97 97 100 105 108 114 117 122 130 135 132 127 125 125 118 106 99 96 95 90 86 88 57 53 79 69 75 82 86 86 91 105 109 98 101 105 103 102 101 102 101 102 100 99 98 100 99 103 107 112 119 121 126 126 128 129 135 133 127 126 126 122 114 102 100 97 92 88 85 91 58 54 82 73 70 76 83 87 85 97 107 104 102 104 105 107 107 112 115 117 125 128 129 130 132 133 132 135 136 136 135 133 133 134 135 129 124 124 122 114 105 100 99 95 89 85 88 91 57 55 85 78 70 73 80 86 88 89 99 101 101 102 106 110 111 114 119 123 128 134 138 139 142 142 141 140 141 141 141 135 134 135 133 126 122 119 114 104 101 99 96 91 87 84 91 94 58 54 87 82 73 70 75 81 84 84 89 95 97 98 102 104 110 114 117 119 126 133 133 134 136 141 143 141 142 139 136 132 133 132 124 119 116 109 104 96 98 98 93 88 84 86 92 94 58 53 86 85 76 68 72 77 82 84 84 89 92 94 95 99 105 110 113 115 123 132 135 136 138 140 141 141 141 139 134 127 130 124 117 113 107 105 94 91 95 92 89 86 85 90 93 94 58 54 87 85 79 69 70 74 79 83 83 79 85 90 92 96 97 105 111 115 119 127 135 134 134 134 135 133 132 132 133 126 123 119 111 108 100 90 87 93 93 88 86 84 85 89 91 92 57 54 89 86 80 73 69 71 74 81 82 80 73 81 88 90 90 98 102 111 115 120 126 124 128 127 125 124 124 124 124 120 116 111 103 95 87 83 88 89 90 88 85 82 86 89 91 93 56 53 88 87 82 77 70 70 72 75 78 82 73 70 79 80 84 89 96 102 105 111 115 119 124 121 117 116 114 113 112 111 105 98 93 86 77 85 89 88 89 85 82 82 86 91 92 91 55 32 54 54 52 50 45 42 43 44 45 42 45 40 43 45 49 50 54 58 61 64 66 68 68 67 67 65 64 66 67 62 59 56 52 46 51 55 55 54 53 51 49 51 53 55 56 56 33 