P2
48
60
255
37 64 66 67 69 69 71 74 75 77 78 78 79 80 79 79 78 76 75 74 74 75 73 71 71 72 70 69 68 68 69 69 67 67 64 62 61 60 60 59 58 57 57 55 53 49 44 24 59 103 108 109 111 113 117 120 122 125 126 127 128 129 129 129 128 126 123 122 121 120 118 118 116 115 113 110 111 112 112 110 107 107 105 103 101 98 99 96 94 92 92 89 85 79 71 39 58 101 107 109 112 115 118 123 124 125 127 126 129 129 130 128 128 126 123 123 122 118 117 117 117 115 112 110 111 112 113 110 109 108 105 103 101 100 99 97 94 92 92 90 86 80 72 40 58 102 108 109 112 115 119 123 126 128 129 130 130 130 129 129 126 124 124 123 119 115 114 117 117 116 115 112 112 111 112 108 109 108 107 104 103 102 99 98 95 93 92 90 86 80 73 42 59 103 108 110 114 116 120 123 125 128 128 128 128 129 129 128 125 124 123 122 118 111 112 116 114 114 112 108 110 108 103 101 105 105 105 102 102 102 101 98 96 95 93 89 86 81 75 44 58 102 108 113 116 117 120 123 126 125 128 129 129 127 125 126 124 124 120 120 117 113 114 117 116 114 112 108 108 106 102 100 102 102 102 103 102 100 100 98 96 95 93 90 86 81 76 46 59 102 109 114 116 116 117 120 122 125 124 124 123 121 120 120 118 114 117 117 117 115 116 115 112 111 110 108 103 102 101 100 99 99 99 100 101 99 99 98 97 95 93 91 86 81 78 47 58 101 110 114 114 114 115 116 117 120 120 118 116 112 114 114 113 113 114 116 116 114 113 112 109 108 106 105 101 99 96 96 96 95 91 89 89 88 87 83 82 85 90 89 86 81 79 49 59 103 109 106 104 98 90 91 93 90 85 87 89 93 100 105 106 108 109 111 113 111 109 109 107 104 100 100 96 94 91 89 81 70 64 61 60 62 63 64 65 67 70 81 83 82 79 49 59 99 91 79 79 76 70 65 62 58 55 55 57 63 71 80 95 103 105 108 109 107 105 104 102 98 97 94 91 88 84 73 59 53 50 51 51 51 54 57 58 61 62 64 67 76 80 50 52 75 66 67 66 62 60 56 53 53 50 51 52 53 57 64 76 91 97 102 105 105 104 101 98 94 91 88 83 79 71 58 51 49 49 49 51 52 54 56 58 58 57 58 60 64 78 50 47 72 66 64 63 63 61 57 54 55 54 53 54 55 57 63 63 77 89 96 100 102 103 98 94 91 87 83 77 69 60 52 51 52 53 56 60 65 65 67 66 66 65 64 62 64 73 50 47 74 82 85 85 84 80 77 72 68 65 64 62 61 65 65 66 72 83 91 96 98 99 94 93 89 82 73 66 59 55 54 55 57 59 61 64 66 68 69 70 72 73 71 69 71 76 49 55 88 89 90 89 83 75 67 61 58 56 54 52 53 61 69 72 74 81 88 95 100 100 94 92 85 76 66 59 54 54 53 52 54 60 63 64 62 58 57 61 67 69 70 73 75 79 50 57 90 90 88 82 70 57 57 53 45 44 43 45 49 53 60 70 74 80 89 98 106 105 100 95 83 76 65 55 51 51 50 55 56 51 49 51 52 56 57 56 56 64 67 70 73 78 51 57 87 85 81 69 56 52 51 60 52 55 39 41 48 51 56 66 75 80 90 102 111 113 106 101 89 77 66 54 52 52 53 52 50 58 47 45 48 53 53 55 57 57 64 68 72 79 52 58 91 85 75 62 54 55 73 70 52 46 39 42 51 59 56 66 81 85 91 102 115 122 114 108 93 80 69 59 58 54 51 63 60 51 45 46 52 59 60 57 57 60 64 69 78 85 55 62 97 90 80 74 74 71 79 87 56 46 44 51 58 62 61 76 84 97 94 103 114 125 119 115 98 85 76 71 66 55 55 66 73 60 54 55 59 67 70 66 69 74 77 81 86 91 57 64 104 99 98 98 90 78 79 85 80 65 59 62 65 66 72 80 93 100 98 106 113 124 120 115 101 88 81 80 75 77 78 76 75 75 72 73 77 71 70 72 78 86 90 94 95 96 59 65 105 104 103 101 98 89 85 84 74 74 69 66 69 75 82 88 96 101 102 107 116 122 120 116 102 88 85 85 83 77 77 79 76 75 71 69 71 72 73 77 87 91 95 99 99 97 60 66 106 106 105 104 104 103 98 96 93 89 85 82 80 83 86 94 103 106 106 107 116 123 120 118 101 87 87 87 89 88 86 83 82 83 82 85 85 85 88 92 94 96 99 102 101 98 60 64 104 107 109 109 109 108 106 104 101 97 95 95 95 96 99 105 109 107 106 107 115 121 120 119 101 87 85 86 88 91 94 95 94 91 92 93 95 96 99 101 102 101 102 104 102 100 61 65 109 111 111 113 113 114 115 116 111 110 106 104 106 109 111 112 111 109 105 105 115 119 118 115 97 87 85 85 87 92 96 99 100 99 98 99 102 106 107 109 109 107 107 106 104 102 62 66 110 114 116 118 117 118 117 115 111 110 110 112 115 118 118 114 111 107 106 107 113 119 116 112 97 88 86 85 88 94 98 102 103 105 107 107 109 110 110 112 113 112 109 105 103 103 62 67 111 115 118 119 120 119 117 116 113 116 115 117 120 120 118 113 110 107 106 106 115 120 116 111 96 88 86 86 89 92 99 104 106 111 111 111 110 112 112 114 113 111 108 104 103 101 62 67 110 113 116 119 120 121 120 119 117 118 118 120 119 120 117 113 108 107 105 105 112 114 112 107 97 90 87 86 88 93 99 104 109 114 115 115 116 118 116 114 111 108 103 101 100 98 61 66 109 109 112 115 119 120 120 121 119 120 120 120 120 119 117 115 109 105 104 105 108 114 112 106 97 91 88 82 83 86 94 99 107 112 115 115 119 119 118 114 110 104 101 99 98 97 59 65 107 110 113 115 117 120 121 121 121 121 121 120 116 117 114 111 105 103 103 107 109 112 112 107 101 92 88 82 81 79 85 95 103 108 111 113 114 117 113 111 105 99 99 97 97 97 58 64 108 111 113 115 118 119 121 120 120 120 119 119 114 112 108 102 103 101 103 108 113 119 116 117 117 96 88 86 86 79 77 87 96 100 106 108 109 108 109 108 103 100 99 98 96 95 58 63 108 107 111 114 117 120 119 119 119 119 116 115 110 106 100 99 106 103 100 103 113 118 109 107 106 91 80 83 86 84 75 80 89 95 101 103 105 103 104 103 101 100 97 97 95 94 57 62 105 106 110 113 115 118 119 117 117 115 109 107 104 100 96 97 102 100 96 95 102 108 101 95 93 82 73 76 81 80 72 75 82 89 95 98 100 101 101 99 98 97 96 94 93 92 56 62 103 104 106 109 110 110 113 113 112 109 108 105 101 96 94 93 99 93 86 86 93 96 89 83 81 73 61 64 71 72 74 77 78 85 91 94 96 98 98 95 95 94 93 91 91 92 55 63 103 102 102 106 106 106 108 109 110 108 102 99 97 99 100 93 90 78 62 67 81 89 77 74 71 59 50 52 62 79 84 83 79 80 86 91 93 96 95 93 91 91 90 88 89 89 55 61 100 99 96 100 105 106 105 106 105 102 101 96 97 105 105 103 102 91 81 82 84 85 74 69 64 54 53 56 72 86 86 87 86 83 84 88 91 91 92 90 88 88 88 86 86 85 52 58 98 100 98 97 103 103 103 102 99 96 95 97 102 107 105 104 107 107 101 96 93 83 72 63 60 63 68 76 86 87 87 88 92 91 86 87 89 89 89 87 87 86 86 84 86 84 52 57 95 98 100 100 101 99 98 100 96 97 97 101 104 105 104 103 103 104 104 100 96 88 80 77 77 84 87 89 90 91 91 92 92 94 92 86 87 86 84 84 83 82 83 83 84 83 52 56 94 96 98 98 100 98 98 98 97 98 102 108 104 103 104 104 103 102 101 100 97 88 88 95 98 99 96 92 92 91 91 92 92 93 93 89 85 83 81 79 78 79 80 81 82 81 52 54 91 96 97 98 100 99 98 95 93 100 105 106 105 104 103 105 100 99 98 100 96 91 96 104 105 104 98 95 94 92 89 89 91 93 92 90 88 84 81 79 79 80 81 81 82 81 51 55 90 94 94 97 98 97 93 90 96 104 104 104 103 104 102 103 102 99 96 93 90 92 98 99 93 84 77 76 79 83 88 90 93 94 92 91 88 86 84 82 82 82 82 82 83 82 51 58 92 92 91 92 98 97 94 89 98 103 101 99 97 103 101 99 89 82 81 80 78 75 74 72 69 66 65 67 65 64 67 76 83 85 86 91 86 86 84 84 83 84 85 84 83 83 52 59 94 93 92 89 94 98 99 97 98 101 95 93 93 94 88 73 69 69 68 68 67 65 64 64 63 60 58 59 59 58 58 61 65 67 75 84 88 85 84 84 85 85 85 82 83 85 53 60 96 96 95 93 95 99 99 99 95 94 91 80 71 67 60 60 62 74 75 85 90 80 72 82 78 74 67 65 65 59 56 51 51 57 69 78 84 85 85 87 83 84 85 83 83 85 54 59 96 98 96 97 98 100 99 99 96 89 83 66 52 47 49 69 65 86 87 99 100 92 85 92 89 86 76 64 64 52 58 54 61 69 73 78 83 84 86 86 81 85 84 85 85 86 54 57 96 96 95 96 98 100 99 102 97 89 81 69 70 75 69 72 60 70 70 82 86 87 78 75 80 74 66 57 62 65 73 77 81 85 83 85 86 87 88 87 85 87 84 84 85 86 53 55 93 97 97 96 99 100 102 101 96 91 85 79 86 90 82 82 83 85 83 83 83 85 81 81 85 85 84 83 85 83 80 79 83 88 91 91 89 88 86 86 87 89 84 85 85 85 51 54 92 96 98 98 99 98 99 99 99 94 93 91 96 97 92 89 88 92 95 95 96 96 96 96 96 95 93 88 84 80 78 77 82 89 93 92 90 86 84 85 86 87 82 83 86 83 50 52 90 95 98 97 98 97 97 98 97 95 97 98 99 99 98 95 91 90 90 93 94 93 92 91 91 88 86 81 75 75 74 77 83 89 93 90 87 85 85 84 85 85 84 84 84 82 48 53 88 94 96 97 97 96 95 96 96 94 96 100 98 97 96 95 92 88 87 85 84 83 83 82 82 79 76 71 69 70 75 79 84 90 92 90 86 84 85 84 84 83 83 83 83 81 48 44 85 89 94 96 96 94 94 95 96 95 96 100 99 97 94 92 90 87 84 79 75 72 71 71 69 67 66 65 69 73 77 83 87 91 90 87 84 83 84 84 84 82 83 81 81 79 46 31 80 84 89 93 96 96 93 92 95 94 96 98 100 98 94 93 91 88 83 79 75 71 70 70 67 67 68 70 74 79 82 85 90 91 87 85 81 81 84 84 82 81 81 79 78 77 39 28 75 80 83 88 93 94 94 90 91 95 97 97 100 99 95 94 93 89 86 81 77 73 71 70 70 70 71 74 78 82 84 88 91 92 87 84 82 83 85 83 81 80 79 76 75 67 35 26 76 78 81 84 88 92 93 94 92 93 96 97 98 99 96 95 97 96 93 90 86 83 83 84 83 83 84 85 88 90 93 93 95 91 86 83 83 83 83 82 80 79 76 74 70 60 35 26 76 82 81 83 86 87 90 93 94 92 97 99 100 100 101 101 106 102 103 104 102 101 102 104 102 103 103 100 100 100 98 99 96 89 86 83 82 82 80 79 78 74 74 71 67 58 34 25 74 88 83 82 83 85 88 92 94 90 96 97 98 100 106 108 110 109 109 114 115 109 108 108 109 108 108 106 103 102 102 102 93 87 85 82 81 80 78 77 76 73 70 66 67 57 34 24 70 90 88 83 81 83 86 90 93 93 96 96 98 98 105 110 113 112 111 114 112 109 107 104 105 105 107 107 107 106 103 98 91 88 82 79 78 77 75 75 73 71 66 67 67 55 34 24 68 92 92 87 82 80 82 86 89 93 94 95 97 100 103 105 109 111 109 108 105 104 103 100 100 99 100 104 106 103 99 92 84 81 77 76 72 74 73 72 70 66 66 70 67 54 34 25 65 91 93 92 86 82 81 80 84 88 89 94 95 96 97 100 104 107 105 104 98 96 95 93 94 93 95 96 97 93 89 85 78 77 74 73 70 71 71 69 65 66 69 71 66 55 35 24 63 91 94 94 91 86 81 82 82 84 83 89 90 94 91 94 98 97 97 93 91 92 87 83 84 83 86 86 87 84 80 75 74 73 71 69 69 71 69 64 64 68 71 72 64 56 35 25 61 90 95 95 94 91 86 81 81 81 82 85 87 88 88 87 89 89 89 89 86 84 78 76 79 78 76 80 77 76 72 70 69 69 69 70 70 67 64 64 67 71 73 71 62 56 35 15 37 55 59 61 59 58 56 51 49 50 51 51 52 51 51 51 52 51 51 52 49 47 45 44 44 45 46 45 44 43 42 42 42 42 43 43 41 39 39 41 43 45 46 44 38 35 22 