P2
48
60
255
40 67 70 75 82 85 81 83 83 86 88 90 84 87 89 90 88 85 91 93 90 90 89 92 91 89 89 90 91 91 89 91 92 91 88 87 82 81 85 82 81 80 84 79 72 67 65 39 64 106 115 125 131 135 135 133 135 140 142 147 144 138 137 141 139 140 149 144 144 145 143 146 147 144 145 146 143 144 142 145 146 146 145 141 139 135 135 132 129 127 132 125 119 109 105 63 65 106 114 126 131 135 141 132 134 137 135 139 143 138 139 141 137 142 147 139 136 142 142 144 143 141 141 143 144 141 143 147 150 146 144 143 139 138 145 141 139 135 128 124 114 113 104 62 64 105 113 123 128 134 139 138 137 140 139 139 143 146 143 147 146 147 148 149 145 146 146 145 142 142 146 146 143 144 144 145 146 145 140 143 142 144 149 145 141 139 131 127 116 112 106 62 64 104 114 121 130 137 137 140 132 144 144 143 147 145 142 142 145 144 148 147 151 149 147 144 145 145 147 145 143 139 142 144 147 144 143 143 144 142 146 144 137 137 133 128 116 110 106 64 64 104 110 118 127 136 136 140 138 143 145 145 146 147 146 144 145 145 146 144 147 150 147 145 146 146 145 145 139 139 145 150 148 146 144 139 143 143 147 144 137 138 134 128 115 108 104 63 66 103 108 116 125 138 140 138 142 140 138 141 144 143 142 141 147 149 146 147 149 147 144 145 146 145 143 145 140 141 146 148 149 146 144 141 142 139 134 141 140 141 134 125 115 107 101 63 62 101 105 114 124 139 136 130 137 137 137 140 142 143 144 141 147 148 141 142 141 144 144 145 146 142 144 139 141 141 142 144 145 145 148 146 141 131 132 126 135 136 136 128 116 105 102 62 62 101 105 112 122 128 116 116 126 134 138 141 145 152 146 142 137 137 137 136 137 144 140 139 138 139 139 132 137 142 143 142 137 138 140 141 131 122 115 123 117 110 117 119 117 106 101 60 62 100 104 111 116 108 103 103 104 118 123 124 121 109 101 106 118 119 126 130 130 135 135 132 133 137 137 121 131 127 124 117 102 97 91 88 82 72 83 103 101 96 92 91 94 99 99 61 63 99 101 102 102 94 90 95 97 90 92 83 72 74 71 72 84 95 103 113 117 127 134 133 136 136 130 112 114 113 103 84 68 53 51 50 51 54 56 62 68 72 69 78 90 96 94 61 61 99 99 97 85 83 79 71 70 70 68 58 56 54 49 56 68 74 80 94 107 123 136 141 145 140 131 95 98 96 82 67 54 47 48 50 56 52 52 54 51 52 60 70 80 88 94 60 60 99 98 80 69 65 60 61 61 57 56 53 56 55 55 58 66 74 78 87 105 120 132 140 147 144 123 87 80 78 71 64 66 75 79 87 93 88 86 89 83 80 74 63 66 78 93 60 61 96 82 65 62 65 63 72 72 75 83 83 92 89 80 77 72 71 77 93 105 115 130 134 139 136 113 91 87 81 79 90 104 118 132 128 128 124 128 129 119 110 94 76 68 76 85 60 59 87 69 65 72 87 87 104 100 94 87 68 61 54 61 71 77 74 73 86 103 117 133 141 139 137 116 100 94 84 99 109 98 76 71 63 79 94 109 128 124 116 104 92 76 80 83 55 58 81 69 76 89 95 94 77 53 35 30 45 44 57 55 61 63 58 60 79 99 114 132 140 141 140 117 101 93 73 73 68 54 54 46 68 30 33 34 51 83 101 98 93 85 84 85 56 57 87 84 92 96 84 52 41 34 48 35 55 65 100 83 70 86 86 79 93 98 112 126 135 140 135 122 102 93 82 93 73 62 105 65 67 31 50 43 46 39 52 81 90 86 87 90 60 58 91 94 97 86 53 45 57 58 67 68 74 72 117 117 106 116 107 118 99 102 110 127 136 141 136 121 103 103 113 102 106 96 117 84 78 73 67 68 78 73 56 56 81 89 93 96 61 61 95 91 86 70 58 83 106 108 90 90 92 116 127 124 120 112 106 98 101 102 109 123 130 132 130 117 103 98 99 98 113 120 128 125 114 109 114 123 118 109 94 87 85 91 97 103 59 63 101 100 88 92 97 96 104 119 127 120 114 108 115 118 123 112 106 100 101 103 109 126 132 137 130 116 105 99 101 97 110 122 124 117 112 114 115 116 113 114 121 112 108 102 108 108 65 69 112 113 111 118 125 114 116 119 116 116 115 118 120 124 120 114 108 102 104 105 113 126 136 137 125 116 106 102 101 103 105 113 120 125 135 142 141 141 132 134 127 119 113 117 122 114 70 76 126 123 121 121 129 132 124 127 134 135 129 127 128 127 117 110 107 104 104 108 114 129 138 139 122 113 107 104 103 102 108 114 115 119 129 139 148 147 138 138 128 124 122 135 128 125 73 78 132 128 137 129 125 133 131 139 137 140 137 135 121 115 113 106 103 105 105 111 122 133 138 139 129 113 106 106 105 103 109 112 115 118 116 116 123 129 130 122 121 120 130 133 127 126 74 77 133 130 135 133 125 131 133 132 137 140 137 123 112 109 112 106 103 107 107 114 126 135 138 136 124 121 110 107 111 113 112 114 114 113 121 119 119 113 111 127 125 124 138 133 129 119 71 73 121 131 131 139 133 127 132 138 132 126 121 115 119 116 110 106 106 105 107 120 128 138 137 136 129 119 110 106 106 106 112 113 117 118 122 132 135 129 136 132 128 138 140 129 123 113 65 64 109 124 129 132 137 132 126 132 138 130 131 132 131 122 110 101 105 105 113 125 133 137 139 137 131 121 109 105 104 99 98 108 117 119 122 123 134 138 138 136 138 137 129 120 111 109 63 62 109 119 121 124 129 132 134 137 137 134 135 134 133 122 106 99 105 107 118 127 144 142 135 139 141 124 109 102 101 101 101 92 115 129 128 125 124 128 129 132 129 124 118 113 108 106 62 62 106 112 114 119 120 124 134 130 128 128 128 130 128 117 95 104 107 107 120 140 181 149 137 141 177 128 105 100 102 108 112 100 96 122 131 130 127 128 131 127 121 116 112 108 107 105 62 61 105 108 107 111 115 116 121 128 127 127 129 131 120 98 96 110 106 106 118 127 131 128 128 128 123 115 103 99 101 112 116 106 89 98 125 131 129 128 126 126 117 113 112 110 106 102 60 62 103 103 104 105 106 110 120 125 126 131 132 124 106 88 101 108 102 101 110 114 120 115 117 118 112 102 96 95 99 107 110 102 89 71 106 131 134 132 128 125 117 114 113 107 107 100 61 62 102 102 101 103 107 112 121 123 127 129 127 109 91 80 96 93 91 91 95 101 104 101 101 100 93 88 86 86 88 90 94 94 85 61 84 117 129 135 130 129 121 114 112 109 107 104 61 60 101 106 103 104 109 113 117 123 129 128 116 96 82 78 89 73 53 42 71 79 80 79 80 79 71 65 47 33 39 58 73 82 87 65 67 99 124 135 133 129 122 113 109 108 104 103 62 61 102 106 107 103 106 111 116 120 123 115 101 83 75 94 107 77 53 43 46 53 55 59 60 55 45 51 55 46 41 44 61 92 104 92 61 85 110 126 131 125 120 113 107 103 104 102 59 58 101 105 109 104 107 111 112 119 119 107 93 79 87 112 110 101 82 77 89 85 69 53 48 59 76 97 99 95 86 86 96 101 106 112 80 76 102 119 128 125 119 112 104 101 102 99 59 58 99 103 106 103 106 110 113 117 119 107 87 81 107 109 104 105 107 102 103 110 116 102 100 102 108 112 110 109 103 106 108 107 107 110 106 83 100 112 121 123 119 112 103 101 101 98 59 56 96 101 105 105 106 110 115 113 113 100 84 98 113 108 104 104 104 108 111 123 135 132 129 130 123 121 123 120 114 110 111 110 109 111 112 97 103 113 120 122 117 108 102 100 100 98 58 55 95 102 102 105 106 112 115 115 109 98 93 106 110 108 105 108 108 115 121 135 141 136 123 120 119 126 130 127 118 114 110 113 110 107 111 109 106 116 119 120 115 107 99 98 99 97 56 55 94 100 103 104 105 110 114 115 114 105 107 106 112 111 111 111 116 122 124 134 138 121 114 116 114 120 122 120 116 113 111 112 111 108 108 111 109 113 121 120 114 106 98 98 96 95 57 54 91 97 101 100 107 112 113 114 115 111 111 110 112 112 114 117 119 120 127 131 130 121 116 115 115 120 129 123 115 113 112 110 109 104 108 112 113 112 121 119 113 105 97 95 93 93 57 53 89 97 101 103 105 111 110 112 113 112 111 113 110 113 116 114 117 123 123 127 130 123 121 120 125 124 128 115 108 111 111 109 105 105 107 109 113 112 118 121 114 107 99 97 92 90 57 54 90 96 99 100 104 108 115 116 113 111 111 111 108 107 114 112 119 123 126 128 125 126 128 124 126 123 121 112 107 110 102 105 98 93 100 110 122 118 119 125 117 105 100 95 92 90 58 53 91 97 98 104 106 107 112 117 114 115 117 107 100 98 103 105 114 117 115 112 109 111 113 118 114 105 99 95 101 96 96 95 90 86 92 106 119 116 118 126 117 110 102 95 92 92 60 52 88 95 97 103 107 111 117 117 112 112 111 99 94 91 87 86 77 69 61 59 63 69 79 81 74 66 58 57 60 65 71 74 76 77 82 95 110 111 114 123 121 110 101 94 92 91 59 52 88 95 99 103 110 115 120 115 110 103 101 89 80 73 59 44 34 30 23 24 26 32 36 36 31 28 26 29 36 38 40 41 50 54 60 77 94 102 114 124 116 105 100 93 92 91 56 51 87 95 98 104 112 118 131 123 107 98 86 66 54 50 41 43 45 47 48 48 50 56 66 69 62 62 66 76 84 86 81 84 91 92 76 56 74 98 112 127 121 108 99 93 92 91 75 50 85 95 98 102 108 118 129 118 101 88 66 63 89 98 92 95 98 102 105 105 103 105 111 116 114 110 111 108 106 108 107 100 97 106 107 98 77 92 111 124 118 103 94 91 92 113 114 66 83 90 96 99 107 116 122 119 102 90 90 104 108 109 107 112 115 118 117 116 122 124 123 123 122 125 126 117 110 104 99 97 103 113 114 114 103 91 106 116 113 98 90 89 89 147 115 83 86 86 93 94 99 111 122 120 110 112 117 115 116 107 104 109 109 112 116 121 123 114 106 103 100 99 99 95 94 93 93 99 108 112 117 112 109 93 103 107 103 94 86 86 88 162 118 90 89 84 88 92 98 109 113 114 106 112 117 115 116 109 100 99 99 98 98 95 94 89 87 82 81 76 77 78 80 86 92 102 109 111 114 114 114 98 95 97 93 88 84 85 88 161 117 101 88 84 83 85 94 103 103 105 106 111 109 106 106 105 98 89 84 83 79 77 74 76 80 79 80 77 76 81 82 89 97 100 103 105 109 112 111 105 93 90 88 83 83 81 88 146 110 109 94 88 82 82 87 94 98 101 110 110 106 103 98 93 94 91 89 85 79 73 74 77 78 76 81 80 79 77 82 90 96 102 104 109 111 106 108 105 91 88 86 82 83 84 86 91 78 112 101 87 85 81 84 87 92 96 104 106 105 101 94 94 94 91 87 81 75 67 62 63 66 67 74 83 93 102 108 106 109 111 113 115 112 110 107 102 95 89 87 84 82 88 85 76 31 111 112 84 88 80 81 86 92 98 101 98 97 99 104 109 113 115 112 112 113 115 99 110 119 120 125 128 129 128 129 126 116 116 117 121 113 105 102 96 96 92 88 83 86 84 86 79 24 113 128 81 86 83 77 83 89 94 95 97 104 109 116 118 125 132 128 131 129 131 125 124 125 127 129 130 128 130 129 126 120 118 113 117 109 102 92 88 85 82 79 79 88 85 84 96 36 114 145 80 82 85 77 77 82 87 88 97 100 105 115 117 120 127 131 132 129 125 122 122 120 123 126 127 126 126 123 117 120 118 114 111 102 91 82 75 69 69 78 89 87 83 84 120 47 98 92 79 82 84 82 75 70 73 77 88 98 103 106 108 109 117 123 119 119 120 118 120 121 116 118 107 114 115 109 107 110 108 103 102 92 82 68 64 70 79 89 90 85 84 91 146 68 44 59 85 80 83 86 82 73 65 65 73 89 98 99 102 101 108 104 107 110 108 108 107 110 105 101 93 99 99 101 102 101 97 95 89 83 70 66 72 82 88 90 88 86 87 121 160 87 25 110 110 82 83 83 84 82 75 66 61 68 85 91 93 95 94 91 90 92 92 95 96 94 90 91 89 86 88 89 89 85 86 83 79 71 69 74 82 92 90 90 88 85 104 168 159 94 28 142 154 83 84 85 85 87 81 76 67 62 65 77 83 85 82 72 69 69 69 72 75 75 74 72 72 71 74 73 79 80 82 78 74 73 76 81 91 89 91 91 88 100 172 171 158 94 23 95 107 57 51 53 52 54 56 49 45 43 42 42 45 49 46 41 40 41 40 41 42 43 43 42 44 45 45 46 47 47 46 45 46 48 50 56 59 57 54 56 57 94 115 101 97 59 