P2
48
60
255
20 35 38 41 43 47 49 50 50 51 53 55 57 62 68 70 69 69 69 67 67 66 65 63 62 62 61 62 59 55 51 48 50 51 48 56 56 46 31 26 28 25 24 22 20 19 20 12 34 58 64 67 71 77 79 80 82 82 87 91 96 103 113 119 117 114 113 110 111 110 107 104 102 101 99 103 96 92 85 82 80 85 82 88 83 89 59 42 48 44 38 35 33 30 32 19 34 62 67 70 73 75 78 81 82 86 94 97 99 105 120 126 123 120 114 112 112 112 112 107 106 105 103 99 101 97 90 83 79 81 85 85 89 95 64 43 47 51 43 35 32 31 31 20 37 65 69 70 72 75 79 83 89 94 99 105 112 119 128 124 120 115 113 114 114 114 114 113 109 106 106 100 99 99 94 86 79 75 84 91 93 91 87 49 40 61 53 39 33 31 31 19 39 69 72 72 73 78 81 87 93 98 103 116 126 118 118 114 110 109 109 110 113 112 112 111 110 107 104 103 98 97 88 85 75 69 71 79 85 73 86 53 37 58 59 49 34 32 30 18 42 72 73 73 74 71 72 74 73 73 79 92 96 93 92 97 97 99 103 104 107 110 111 111 109 107 105 101 98 92 84 77 69 57 50 47 48 52 48 43 35 41 47 48 39 31 31 19 44 72 72 69 59 49 45 45 48 47 47 47 47 47 50 59 73 84 91 95 102 107 107 109 109 108 107 99 91 82 73 60 45 38 37 38 37 38 43 46 37 39 49 50 41 33 31 20 45 73 68 54 44 44 55 75 78 70 60 51 43 38 37 38 42 52 70 86 93 100 106 106 106 107 105 99 86 75 55 37 35 35 33 35 41 49 58 63 46 36 58 78 61 37 31 19 45 70 55 44 57 73 83 86 83 79 72 67 60 54 46 37 35 36 44 71 92 97 102 105 106 107 105 99 86 66 40 34 33 36 39 41 47 58 74 69 63 40 50 86 84 58 33 19 44 63 52 67 79 84 87 88 84 79 74 69 62 60 58 54 44 37 38 62 88 96 103 103 105 108 105 98 82 61 43 40 45 44 42 44 48 61 75 78 71 40 38 76 91 79 42 20 45 67 71 78 81 83 86 86 88 88 89 86 78 71 64 60 58 56 58 68 80 92 99 98 102 106 107 98 87 75 63 53 50 49 54 60 63 67 76 89 84 49 38 62 91 86 53 23 44 73 78 77 77 79 81 83 88 91 87 85 87 91 93 86 72 63 64 68 75 86 95 98 102 105 104 96 88 77 65 58 67 75 76 73 68 62 60 70 80 58 36 53 89 87 62 25 44 76 77 74 74 73 72 69 71 75 74 72 77 85 88 98 98 75 63 66 73 82 92 98 102 106 107 97 86 75 66 75 82 81 72 63 54 49 45 45 50 55 38 45 84 83 65 27 47 77 74 71 69 64 57 57 54 48 44 42 45 59 78 85 86 87 67 66 72 81 92 102 106 113 111 99 89 77 74 79 75 64 48 40 38 39 38 34 35 44 39 42 75 83 67 28 48 78 74 67 61 53 47 38 33 31 32 29 30 35 38 58 73 82 74 68 73 80 91 104 108 117 110 98 91 86 83 71 55 40 34 36 28 44 30 32 31 33 39 43 68 84 72 32 50 79 75 66 55 44 32 32 46 35 43 31 32 50 61 51 50 75 86 76 78 84 99 114 113 128 112 101 95 96 87 51 52 74 38 37 27 42 32 48 34 31 37 46 67 88 83 39 51 82 79 69 49 34 37 58 70 39 32 28 29 34 81 109 50 50 104 86 85 91 104 123 121 135 115 106 102 111 77 41 88 86 37 30 28 32 37 69 51 42 41 45 66 94 95 50 52 82 82 75 57 53 50 63 80 56 35 35 35 44 103 107 66 51 100 90 88 95 107 121 121 133 117 108 105 113 76 56 86 91 49 36 35 37 66 88 67 56 64 75 91 101 100 57 52 85 85 84 78 67 70 74 77 75 56 44 47 71 95 90 93 95 106 90 91 97 108 117 121 129 118 110 108 112 113 93 83 80 69 50 47 63 86 96 92 82 79 94 105 107 104 61 52 87 88 90 85 79 74 83 96 99 97 89 89 92 92 91 97 108 104 93 93 100 112 120 123 128 119 111 109 112 121 104 86 83 87 90 92 102 107 107 96 90 96 103 108 108 106 63 52 89 93 96 95 93 87 82 79 83 85 85 84 82 86 98 110 111 101 93 95 102 114 120 123 127 119 113 111 114 120 124 104 85 82 84 90 94 96 98 102 107 111 111 111 108 105 64 53 91 97 101 103 105 105 103 99 92 90 89 91 97 105 114 117 107 99 93 96 102 114 118 122 126 118 112 112 113 118 128 124 110 99 96 95 99 104 110 118 120 120 118 113 109 107 64 53 91 97 105 109 112 115 118 117 113 112 111 110 112 118 120 115 104 96 95 95 102 111 115 119 122 117 111 112 112 119 127 130 126 117 113 114 116 121 124 126 125 126 121 108 109 106 65 54 91 98 105 112 117 119 122 122 120 118 117 117 119 122 123 115 100 93 92 93 100 109 116 120 118 114 109 110 112 118 126 133 128 125 124 124 124 125 128 130 131 132 123 112 112 107 65 55 92 97 104 114 120 123 125 124 122 122 122 121 121 123 121 113 96 91 89 93 103 112 117 120 118 115 110 107 111 115 127 130 129 127 128 126 129 129 132 134 133 132 126 119 114 108 65 52 92 96 103 114 122 126 125 124 123 123 123 122 122 120 119 109 95 88 87 94 105 114 119 119 122 117 112 107 107 115 123 129 127 127 128 129 130 132 135 134 138 134 126 119 114 110 64 53 90 95 101 110 115 124 124 124 122 122 124 123 121 120 117 109 90 86 88 94 106 116 119 122 125 120 111 105 102 108 119 127 128 128 129 129 131 133 136 135 137 133 123 118 111 108 64 53 89 94 100 107 115 123 126 126 124 122 123 122 122 119 113 96 81 83 88 96 109 117 122 126 131 125 115 104 99 96 107 123 125 129 130 132 135 136 137 139 137 131 122 116 111 107 64 53 88 93 100 106 114 121 124 125 125 123 125 123 123 119 102 79 80 87 89 98 111 126 126 128 143 134 115 104 103 93 91 110 122 128 131 133 133 138 139 138 135 129 119 115 110 105 63 52 86 91 98 102 109 117 123 125 125 125 123 122 120 114 89 75 90 91 90 94 107 118 117 120 124 119 111 106 106 105 85 97 115 121 128 130 133 137 137 137 133 125 117 114 109 103 61 51 85 89 94 103 110 119 121 125 123 122 122 122 120 105 75 80 92 93 89 85 92 101 104 105 105 101 99 107 111 108 92 85 105 118 123 127 131 135 133 130 128 124 116 111 106 102 62 51 85 89 94 101 105 114 115 120 124 122 117 121 114 88 70 84 91 91 80 75 80 85 89 92 92 86 83 96 106 105 95 83 93 110 119 124 128 131 130 128 123 119 114 108 105 101 62 50 84 88 90 96 104 111 114 118 118 122 119 118 106 76 73 81 83 75 47 35 55 70 69 71 72 47 35 65 91 96 92 89 85 104 116 120 123 126 125 123 119 118 113 105 103 102 62 50 83 87 91 95 102 105 109 113 114 116 117 115 97 76 80 75 71 55 40 49 71 64 57 63 80 78 48 46 70 84 97 100 88 100 112 118 121 121 119 117 115 113 109 105 102 103 63 51 84 86 89 94 100 103 107 111 114 116 117 111 97 86 87 78 64 60 73 86 97 88 89 95 105 111 97 72 68 89 106 109 101 103 112 116 117 116 116 114 113 111 110 105 103 103 62 50 83 86 88 93 96 100 106 107 112 114 116 111 104 103 100 92 87 83 85 92 107 113 111 113 113 113 106 101 103 110 115 120 118 112 115 115 114 112 114 114 113 111 107 103 102 102 62 51 84 85 88 89 95 98 102 105 108 111 112 112 114 113 109 106 104 100 98 97 106 113 111 111 112 111 109 109 112 116 122 126 125 119 115 114 113 111 110 110 111 107 104 102 102 102 61 51 83 85 88 90 93 98 101 103 105 108 111 115 117 116 111 110 105 99 98 99 107 112 112 112 114 112 110 109 112 117 119 123 123 120 115 113 111 108 107 108 108 106 103 102 101 100 60 50 83 84 87 90 94 95 97 100 104 108 110 116 115 111 106 103 100 98 98 102 111 117 116 114 120 119 112 111 110 110 112 113 115 116 114 110 108 106 105 105 105 102 102 101 102 100 60 51 83 86 86 89 92 94 94 96 103 104 107 110 106 101 97 97 98 100 102 105 110 117 118 119 121 119 115 111 108 105 104 102 106 110 110 108 105 103 102 103 104 101 101 101 101 100 60 51 83 86 85 88 90 90 90 92 95 99 99 102 97 92 92 92 95 99 100 87 72 68 72 78 72 71 85 103 104 99 96 94 97 101 104 104 102 102 100 102 103 102 100 102 101 100 60 50 83 85 85 86 88 89 89 89 91 94 96 94 89 83 83 85 89 83 64 54 53 54 58 61 57 54 52 60 85 91 89 85 83 90 99 100 99 100 99 101 101 100 100 101 100 99 60 51 83 84 85 86 86 86 87 87 87 89 91 88 83 76 76 76 64 50 46 46 47 51 54 57 53 50 47 45 47 59 70 70 71 81 93 97 95 97 100 100 99 98 99 100 101 99 59 51 83 82 84 85 85 85 86 88 86 86 87 83 74 62 60 50 42 41 42 46 49 50 49 51 58 61 62 55 50 46 43 42 48 68 89 97 95 100 100 99 99 96 97 100 100 96 57 51 83 83 83 84 83 84 85 87 85 84 85 78 57 40 40 45 53 62 68 74 82 85 84 83 88 90 89 79 79 75 76 84 75 76 87 94 96 99 100 99 97 97 99 99 98 93 55 51 83 83 82 82 82 83 86 87 89 87 86 81 81 80 78 74 75 75 72 73 80 82 84 85 84 85 80 78 79 87 98 107 105 100 95 99 98 97 97 96 95 97 97 97 95 90 51 51 82 83 82 81 81 82 85 87 90 90 89 94 103 103 99 91 85 83 81 81 83 85 86 87 92 99 89 88 92 100 107 110 112 110 104 102 100 96 95 94 94 95 96 95 92 84 49 50 82 82 82 80 81 82 85 86 88 90 92 99 104 103 101 97 93 88 84 81 80 79 77 75 79 83 86 91 97 103 107 110 111 114 105 100 98 94 92 92 92 94 92 91 86 79 44 50 81 81 82 81 81 82 82 84 85 87 93 98 100 100 97 94 92 91 86 82 80 78 75 76 78 82 88 94 99 103 106 110 111 112 109 102 95 91 88 89 90 91 89 87 80 72 35 51 80 80 81 81 81 82 79 81 84 88 92 96 96 96 95 94 93 92 90 88 85 83 82 83 86 90 97 101 103 105 106 108 110 112 109 103 95 89 86 87 88 87 85 81 73 57 22 55 82 79 78 81 80 80 79 80 83 87 91 92 93 92 92 94 97 98 100 100 99 98 97 100 101 105 108 110 110 108 107 108 108 110 107 102 93 88 85 86 85 83 79 73 58 36 21 45 90 80 78 78 79 79 79 78 81 84 87 89 90 91 94 98 98 106 109 110 111 111 111 114 114 117 119 117 115 114 111 109 106 106 103 99 91 87 84 83 81 78 72 60 37 31 20 28 86 89 78 76 79 79 78 79 81 82 84 86 87 91 95 100 106 110 116 116 119 121 122 124 124 124 126 123 119 116 112 109 106 105 102 96 88 85 83 81 76 70 59 37 31 31 19 23 69 94 93 78 77 78 78 78 79 80 81 82 86 90 94 99 106 112 118 121 124 127 127 128 130 129 127 123 120 115 110 108 105 101 99 92 87 83 80 76 69 57 39 29 30 29 19 23 64 74 91 90 77 77 77 77 78 79 79 80 83 86 92 96 102 111 117 120 121 122 123 126 129 125 122 120 114 111 107 106 103 98 94 88 81 77 73 65 55 43 31 30 29 27 17 23 61 73 72 77 80 75 76 77 77 78 77 78 80 82 87 91 97 104 110 113 111 113 112 115 116 116 114 111 108 107 105 103 100 94 88 82 75 69 61 52 46 32 28 28 28 27 16 26 58 75 74 72 71 71 74 76 77 78 77 77 78 79 82 86 91 96 101 102 103 101 104 104 106 106 104 102 101 99 99 96 93 87 80 72 66 55 50 51 39 29 28 28 26 26 17 27 55 76 76 75 74 71 69 73 75 77 79 79 77 77 79 82 83 90 93 94 95 95 95 95 96 96 94 92 93 92 91 89 85 77 69 61 51 51 55 47 34 28 27 28 26 28 20 31 55 77 78 78 75 73 71 69 71 75 78 80 79 77 78 79 79 83 84 85 86 87 86 85 87 87 85 84 84 83 83 79 73 63 55 50 54 56 54 40 32 28 28 26 29 33 17 20 36 47 49 50 47 48 46 45 43 43 46 48 49 49 48 48 48 48 50 50 50 50 49 47 48 48 47 48 49 48 47 43 36 32 31 34 36 36 30 23 18 17 18 18 20 17 10 