P2
48
60
255
8 12 11 11 11 10 10 9 9 8 8 9 11 12 15 15 16 13 13 12 11 12 17 24 23 21 21 23 25 21 19 22 18 18 15 12 11 11 14 23 45 54 47 48 44 40 30 13 21 30 24 20 18 17 16 15 16 14 15 15 17 23 23 27 27 27 25 23 23 23 27 24 24 29 32 32 35 34 26 23 22 18 17 18 19 24 39 69 88 82 75 81 77 66 47 21 24 48 48 48 41 28 21 20 19 17 15 16 16 16 17 21 24 21 22 21 21 22 22 26 28 24 22 22 20 21 21 21 19 19 20 25 35 62 87 93 86 84 81 82 80 66 49 22 25 51 62 64 64 61 58 50 39 29 23 19 18 18 18 19 17 17 19 19 21 20 22 21 20 21 23 25 24 24 29 29 31 34 50 67 86 97 95 94 88 88 85 86 84 70 50 23 26 55 64 66 69 71 72 70 68 65 56 49 43 42 40 43 42 46 48 48 44 43 37 35 39 41 42 43 47 48 51 62 84 99 105 110 112 111 107 100 96 89 90 89 89 80 59 25 31 61 66 66 69 72 73 74 76 78 81 76 75 81 89 89 90 90 92 92 89 86 82 79 79 89 94 98 108 116 127 135 136 133 135 135 132 128 122 115 101 98 95 91 90 87 76 38 36 64 66 66 69 74 77 78 81 85 90 93 98 101 105 107 107 114 120 127 128 131 133 137 139 142 141 146 146 141 132 141 142 142 143 142 138 134 128 121 114 108 103 96 91 89 89 51 41 67 67 67 73 79 86 92 100 107 113 115 116 122 129 137 137 138 143 150 151 150 149 149 146 147 144 147 146 143 139 147 148 143 137 135 132 134 129 127 117 116 110 103 93 90 92 57 43 67 68 70 78 91 90 93 105 113 114 115 120 124 131 138 139 137 138 143 144 145 148 147 145 139 136 140 139 138 143 141 137 133 128 121 116 118 115 116 109 102 107 107 95 90 95 59 43 67 66 74 76 68 71 77 85 89 97 100 105 110 114 121 122 125 127 131 133 134 136 136 135 132 132 131 125 124 128 128 122 119 112 105 101 96 94 94 87 84 84 98 98 93 96 60 42 65 63 53 46 42 45 48 48 52 57 59 61 67 78 91 97 100 106 116 119 123 125 123 121 122 119 114 107 108 106 105 86 80 68 60 57 51 49 53 55 50 54 57 68 90 93 59 42 59 41 40 37 33 37 38 35 33 33 33 34 38 40 47 59 74 81 91 100 112 115 115 113 112 107 98 87 87 84 73 47 37 33 31 31 32 36 42 43 46 42 47 49 71 92 59 37 44 34 35 39 44 43 40 38 33 29 27 26 26 28 30 38 50 55 67 85 98 104 109 110 104 92 77 68 63 54 41 29 24 24 25 27 29 36 43 48 49 48 47 46 57 78 57 35 47 48 55 59 61 64 60 53 48 41 33 26 23 26 29 33 38 45 56 67 79 93 103 109 102 83 64 51 41 35 26 19 17 18 19 24 35 43 43 54 67 68 63 59 64 81 56 39 61 59 63 64 53 43 44 41 30 42 21 25 29 25 20 23 31 36 44 55 71 97 109 114 108 88 59 40 29 19 14 18 19 14 13 14 20 38 56 51 41 56 66 69 75 83 56 41 66 61 53 38 43 44 34 25 15 12 14 22 47 34 34 33 32 41 49 58 77 108 125 128 124 101 72 41 19 17 21 31 43 22 16 20 24 60 40 35 43 34 52 73 78 82 54 41 64 56 47 44 35 33 53 49 21 20 23 52 75 54 39 39 50 54 55 64 82 115 139 146 134 112 89 59 38 28 37 68 98 68 45 47 72 89 73 56 48 54 61 70 76 77 52 39 60 53 50 48 47 50 64 82 77 78 81 91 82 73 53 47 51 67 63 70 88 122 147 154 141 121 104 92 87 76 89 90 91 87 92 92 90 85 77 69 64 72 80 83 82 82 54 40 65 63 60 56 54 57 63 67 75 76 81 80 81 79 74 78 79 76 69 75 96 132 156 162 147 128 113 101 104 96 77 70 74 77 75 76 80 80 75 65 74 85 93 97 93 88 56 42 68 67 65 64 58 57 60 63 66 69 68 69 67 69 78 90 97 89 79 83 105 135 158 163 148 130 118 106 103 96 88 76 59 54 53 54 53 54 60 82 97 103 104 100 98 91 55 43 72 73 75 83 78 67 58 54 53 55 59 69 85 98 104 109 105 96 87 89 109 134 153 159 147 129 123 114 111 113 105 98 97 93 90 88 89 97 106 118 123 122 117 106 99 93 55 46 81 81 93 110 115 110 101 99 99 101 102 104 109 113 119 120 110 98 89 94 111 135 153 157 147 130 126 120 118 124 127 123 118 116 115 118 120 124 129 131 131 126 120 111 105 95 57 49 87 97 104 120 128 128 125 125 123 120 122 124 127 128 132 127 111 96 89 94 112 139 160 162 148 132 125 122 120 126 135 136 133 130 128 126 129 131 134 135 136 129 123 115 110 100 59 51 93 106 116 124 132 131 135 133 132 135 133 132 138 140 139 126 108 94 87 91 109 137 163 171 145 130 125 123 124 127 134 141 141 142 135 132 130 132 136 136 136 132 126 117 110 104 63 54 96 109 119 126 131 136 137 137 141 140 139 139 142 145 138 122 108 94 87 93 110 137 162 172 147 133 129 123 126 130 134 138 141 143 146 139 139 136 136 143 143 137 128 116 108 105 66 50 94 107 118 125 135 140 141 144 144 144 144 144 142 142 134 119 106 95 90 96 112 139 165 170 149 138 132 125 124 126 132 136 140 142 148 146 148 149 145 143 143 137 126 112 106 104 67 49 88 101 111 124 136 145 148 146 146 145 139 140 138 132 121 107 96 88 88 97 114 143 176 179 147 138 133 122 124 122 120 127 134 138 144 148 147 152 152 147 143 137 126 112 107 103 69 50 85 98 111 122 134 145 147 148 144 139 136 131 128 119 109 104 110 95 87 96 112 145 190 183 142 136 130 125 135 130 118 116 120 128 134 142 146 147 145 145 141 135 126 115 108 106 69 49 82 95 111 119 128 138 141 143 141 133 128 120 114 107 101 115 120 109 89 95 109 144 173 170 140 131 131 129 140 133 122 102 105 109 120 131 136 138 139 139 136 131 122 111 108 107 67 48 80 92 106 115 124 129 133 135 134 127 118 109 102 87 99 120 124 112 95 91 105 142 162 166 139 127 126 131 146 135 122 101 108 102 102 118 125 129 131 132 130 126 119 108 105 106 67 47 80 88 99 110 119 122 128 126 124 117 108 101 100 80 96 111 117 108 96 87 101 134 150 153 134 121 119 124 130 121 112 105 110 115 96 102 114 119 123 125 122 116 109 102 100 103 65 48 79 82 89 102 109 115 119 121 116 111 103 100 88 79 87 98 100 97 87 85 95 121 133 139 124 110 107 111 107 99 105 112 109 118 108 89 99 107 111 113 113 107 103 97 100 99 56 47 79 80 84 95 100 105 110 112 106 103 107 101 86 83 79 70 66 70 79 85 90 104 114 120 105 96 77 54 44 62 108 112 111 118 121 102 91 100 107 107 107 100 91 93 93 96 55 46 79 81 85 87 91 95 101 101 99 102 110 91 84 82 77 66 50 51 52 64 89 98 100 100 91 55 37 38 51 90 101 109 112 114 117 119 94 93 98 100 99 93 88 89 87 90 50 46 78 79 82 82 86 92 93 94 97 107 101 82 78 78 75 69 57 54 62 61 62 88 90 83 60 50 60 71 88 89 96 105 107 108 108 115 107 96 94 90 89 88 86 83 84 90 47 47 75 78 82 81 82 89 90 95 94 106 82 74 70 70 66 60 58 51 54 46 43 41 46 40 44 64 69 82 85 88 96 98 96 100 99 103 107 102 95 90 84 82 87 83 84 86 55 46 76 77 78 82 84 87 89 92 94 85 67 63 64 66 61 59 59 59 57 54 52 46 44 53 72 92 90 89 88 105 101 96 93 92 88 92 104 103 100 91 89 85 81 82 85 84 76 43 79 74 79 79 82 89 92 87 87 64 62 66 69 68 68 64 67 69 72 71 74 80 119 128 126 127 119 118 112 114 111 108 97 92 85 79 98 104 103 96 89 83 77 79 82 89 119 48 76 76 78 79 85 90 94 84 79 58 64 71 80 78 77 77 80 80 81 78 93 122 134 135 125 119 119 119 119 115 109 105 96 83 84 82 98 105 103 97 89 81 77 78 79 110 142 45 77 74 74 77 81 88 93 88 78 62 62 71 82 83 78 76 78 76 78 89 98 100 102 104 108 113 109 103 95 87 84 82 66 40 58 85 98 104 102 95 82 79 78 80 75 147 143 42 75 75 73 74 77 85 92 90 76 60 49 36 29 36 56 71 71 75 80 86 89 85 87 84 90 86 76 65 57 54 40 29 32 57 68 84 96 105 101 90 80 78 78 81 79 205 143 43 73 73 73 70 78 83 89 92 74 59 54 57 44 32 25 38 55 60 63 66 67 64 58 63 68 62 57 49 43 33 44 77 90 88 90 89 100 104 94 84 79 78 78 75 109 223 143 37 68 73 70 70 71 79 85 92 75 61 59 66 64 56 52 52 60 62 74 88 97 92 75 93 110 98 83 74 75 81 88 100 107 106 105 95 100 101 95 83 76 78 76 71 182 226 144 39 63 76 77 76 77 77 81 88 78 65 67 68 70 67 60 61 65 69 75 79 71 69 59 87 89 91 107 103 104 97 96 111 112 109 104 96 93 97 88 82 76 77 70 100 211 226 143 83 61 63 74 77 82 74 80 85 73 69 68 71 71 72 68 79 92 103 114 129 119 111 105 111 124 154 152 125 108 91 99 104 108 109 98 88 89 90 79 76 70 69 64 165 213 226 143 109 61 62 68 71 75 78 83 81 72 70 72 76 77 76 77 82 86 108 139 151 136 129 125 128 148 184 162 126 96 92 99 102 109 104 93 85 81 87 75 70 67 64 101 192 212 225 143 109 70 56 66 66 72 73 77 78 74 66 71 73 80 79 79 79 82 89 121 131 121 120 113 117 123 134 116 97 94 91 93 105 110 97 85 88 82 79 71 67 65 64 147 193 211 225 143 110 79 47 59 63 67 63 76 75 74 69 70 75 80 78 80 80 79 84 87 96 99 102 99 97 102 98 94 90 83 88 98 105 102 88 89 87 79 75 70 66 61 75 157 191 210 224 142 113 83 56 52 60 67 68 72 74 76 71 74 79 78 77 80 82 76 74 75 82 88 92 93 88 87 82 76 67 84 97 101 102 100 92 84 83 74 77 71 65 61 86 158 188 208 222 142 110 82 61 55 51 65 66 70 69 72 74 78 80 76 78 80 79 78 72 58 55 57 62 62 57 51 46 52 82 97 98 107 105 99 91 84 79 76 77 67 60 73 93 157 187 207 221 142 105 79 65 60 54 56 66 69 71 74 75 78 80 75 78 79 80 78 75 68 57 43 33 26 25 34 63 98 106 112 115 120 102 98 91 88 82 75 66 57 65 77 94 156 185 206 221 142 100 74 67 64 62 57 57 67 68 67 71 75 82 73 75 80 83 80 78 74 76 75 74 79 92 122 131 132 131 127 128 116 96 96 91 82 77 69 56 63 73 80 96 154 183 204 220 142 96 72 67 65 67 66 56 60 68 68 67 70 77 77 74 83 89 93 101 112 117 126 127 127 130 135 134 130 125 122 117 110 101 94 86 75 72 58 54 70 74 81 97 149 181 203 219 141 82 71 71 72 69 70 65 55 57 66 70 69 70 80 86 95 97 103 112 125 127 126 128 124 117 123 124 121 117 108 108 104 95 86 77 71 64 47 66 74 75 82 96 149 179 202 219 141 70 72 69 68 72 71 67 64 52 61 69 64 72 74 82 83 86 92 100 105 108 112 107 105 105 103 110 109 104 100 99 97 86 77 73 66 43 64 76 75 73 83 97 144 179 202 218 141 53 73 73 71 71 72 74 64 59 57 59 63 67 67 73 74 75 80 82 86 94 97 93 95 89 86 96 87 85 97 90 79 71 65 68 48 59 69 75 76 76 85 98 145 178 201 218 140 46 74 73 72 72 73 73 71 65 65 52 56 67 67 70 71 72 73 76 79 81 84 87 91 75 77 79 73 71 76 75 65 60 58 44 64 72 74 72 76 80 87 97 134 177 200 218 140 46 76 75 74 72 71 72 67 66 66 59 50 47 67 69 69 68 66 69 72 69 72 72 70 66 67 71 70 70 72 69 62 56 42 58 74 74 75 82 79 78 84 95 115 173 195 206 127 47 77 78 77 74 76 74 71 68 67 66 64 53 46 62 70 72 67 62 63 58 60 60 56 55 60 59 64 63 63 61 47 37 58 72 74 79 82 83 80 83 88 95 99 113 127 123 73 29 49 50 48 49 48 45 42 42 44 40 42 37 31 25 31 40 44 40 37 36 38 35 36 34 35 36 38 40 38 25 22 26 45 45 47 54 52 49 51 51 55 57 57 51 54 58 39 