P2
48
60
255
26 58 65 59 45 50 46 47 47 50 45 45 37 26 40 48 50 57 68 79 83 88 86 84 82 79 80 80 85 86 89 91 90 88 84 75 60 47 44 45 48 45 53 52 41 31 23 11 51 98 101 78 85 106 104 102 85 89 99 108 99 95 92 99 111 127 138 143 145 148 145 139 137 140 136 140 147 149 149 149 149 143 140 129 114 101 92 94 92 98 96 92 79 61 37 20 57 97 76 82 109 118 115 118 117 121 119 125 136 141 134 137 142 146 150 152 151 153 151 143 145 146 147 146 148 149 152 154 151 151 147 138 127 118 108 107 112 108 108 104 86 71 44 20 58 93 99 114 120 118 126 127 128 129 133 127 143 152 152 152 152 154 156 153 155 155 153 150 149 151 151 150 150 152 152 152 149 147 148 144 138 130 125 128 126 117 114 110 95 78 56 20 62 109 113 119 120 128 130 132 134 136 138 144 150 157 156 157 156 156 159 159 159 157 156 152 153 155 155 149 146 153 157 155 150 148 149 145 140 135 134 132 129 123 113 109 104 87 63 25 67 114 118 124 125 125 120 121 125 126 130 135 145 150 155 156 156 155 157 159 160 160 159 155 155 155 154 149 147 152 155 150 152 149 146 135 132 125 120 120 123 122 118 119 111 102 78 31 70 119 116 122 114 94 95 95 97 99 100 103 109 98 114 135 146 147 153 154 157 160 159 155 155 157 154 151 145 140 132 120 111 99 96 95 91 85 85 85 87 106 117 122 115 106 94 41 71 120 115 105 88 79 83 73 66 64 62 64 68 76 79 96 114 130 143 150 154 158 159 154 153 153 152 142 129 121 102 90 75 60 55 53 60 62 64 67 70 78 96 114 117 111 103 55 71 114 101 85 74 74 67 63 55 59 64 69 68 73 80 82 96 110 131 141 148 151 153 150 146 149 147 135 121 105 93 86 82 73 73 64 59 62 67 67 69 69 70 86 108 113 108 63 69 107 92 77 74 77 84 97 102 95 96 95 96 94 94 90 97 104 118 130 141 141 143 141 142 145 138 130 116 100 96 94 92 98 100 96 107 120 121 107 92 87 86 81 93 110 111 65 67 103 90 91 101 105 118 134 148 143 140 135 127 117 110 105 103 106 112 123 134 134 135 137 136 134 129 121 111 105 106 107 110 120 130 140 147 155 150 137 125 126 115 100 92 102 107 66 63 96 97 108 115 121 133 147 154 153 156 152 146 137 127 117 111 107 112 118 128 132 132 132 129 127 125 118 110 112 112 117 127 140 150 155 157 158 158 153 141 127 115 110 103 106 109 66 65 101 107 110 118 129 138 147 153 153 154 153 148 142 136 129 120 112 112 111 118 128 131 130 129 126 122 117 116 115 122 131 139 146 153 154 154 156 153 147 136 130 123 117 111 111 111 67 68 114 114 116 118 124 131 134 130 124 122 122 124 132 133 128 125 119 115 116 121 128 132 133 132 129 124 118 118 120 129 132 134 130 116 108 101 101 105 113 122 125 123 119 116 110 110 67 71 114 113 114 111 100 83 57 41 34 29 38 47 69 105 120 122 123 120 121 123 127 136 138 137 136 128 122 120 124 126 124 105 85 66 43 37 43 53 69 77 90 110 114 115 113 112 71 71 113 110 102 77 47 40 71 53 45 33 48 47 79 60 95 116 119 124 124 129 138 149 150 151 147 131 129 125 124 120 104 65 71 45 57 34 59 53 67 45 64 72 99 110 113 114 71 70 112 98 73 61 63 83 106 74 39 33 34 50 117 78 63 116 121 129 128 137 151 161 160 159 154 137 132 131 124 123 74 68 114 50 34 29 35 61 103 81 66 71 83 102 111 111 71 76 116 102 100 102 99 106 114 110 86 71 72 107 126 113 108 106 128 133 132 136 151 163 164 164 154 135 133 138 130 114 94 107 119 100 67 62 72 109 123 118 105 101 100 106 117 116 76 83 129 127 125 123 117 120 131 138 139 128 126 125 124 126 127 124 131 137 130 139 154 167 165 166 155 139 134 138 132 115 128 129 128 127 125 129 136 144 141 127 120 127 129 127 132 130 81 86 138 139 136 132 129 127 126 128 127 124 119 113 113 119 127 135 144 138 134 141 152 164 164 164 153 140 135 135 141 133 132 122 116 118 124 130 134 130 125 120 130 142 145 146 143 141 84 85 141 144 145 147 147 147 143 138 134 133 132 135 136 135 143 149 149 137 134 142 150 158 160 160 152 142 137 137 143 146 142 138 139 137 135 138 143 145 143 143 147 151 151 151 149 143 86 86 144 148 152 154 154 155 155 156 154 153 150 148 148 153 156 153 151 139 137 144 147 156 158 156 147 140 142 141 143 151 155 147 142 146 152 153 156 152 152 154 156 156 153 151 147 144 84 88 146 153 155 155 155 155 153 151 153 152 151 154 155 158 160 152 144 137 139 141 147 154 157 156 145 139 141 142 142 151 159 158 151 146 147 149 156 153 154 161 161 159 155 145 149 145 85 87 142 152 155 157 155 156 151 154 152 151 152 156 157 159 154 149 138 135 136 138 144 153 156 149 140 137 139 139 138 147 156 160 157 155 152 153 154 153 155 162 163 162 157 148 151 146 85 83 143 149 152 155 156 151 154 154 154 154 156 153 158 160 156 143 137 133 133 135 143 153 157 152 143 135 132 134 137 142 151 157 157 158 156 155 154 155 158 163 163 157 160 158 153 141 83 80 139 143 145 147 153 157 155 153 153 156 158 159 157 159 153 137 132 126 130 132 142 156 156 157 146 135 130 128 133 141 150 155 158 160 157 156 156 156 157 164 167 165 158 151 145 136 78 79 133 139 144 143 147 151 152 156 152 157 156 158 160 154 148 134 123 121 126 132 144 158 158 158 144 131 127 123 124 138 145 153 159 161 161 157 157 157 155 158 163 160 149 147 142 133 78 77 127 133 132 130 140 149 148 148 159 157 157 161 160 154 143 125 113 115 127 134 146 157 160 160 145 139 125 118 115 125 138 145 159 161 162 162 162 161 162 156 157 151 149 145 138 131 75 74 123 127 132 127 135 140 147 159 164 159 158 163 156 150 132 112 115 123 122 141 148 167 158 173 159 139 126 119 123 115 129 148 154 159 159 160 162 163 160 152 149 149 141 135 131 124 73 74 121 126 132 132 139 145 152 156 157 157 160 157 151 139 114 116 130 138 133 129 141 156 150 156 149 135 133 136 132 123 116 137 149 157 160 161 163 156 159 156 153 142 134 132 127 122 72 74 122 125 127 131 138 143 148 151 150 153 145 145 145 122 102 125 136 139 124 114 125 133 137 136 129 117 121 141 143 134 115 118 141 150 154 157 160 159 156 152 149 141 133 127 125 120 71 72 122 125 128 133 131 136 143 146 146 145 148 136 131 104 105 119 118 100 59 60 98 110 111 115 112 84 59 88 122 126 117 102 124 145 153 151 154 158 153 146 143 137 131 127 122 113 70 75 123 126 128 130 131 132 139 141 142 142 138 136 117 98 103 106 96 53 23 20 52 84 81 85 82 35 17 25 88 111 111 103 103 136 143 150 152 154 148 145 139 133 125 120 122 115 71 74 123 124 127 131 133 134 134 138 137 138 138 127 107 102 108 95 81 57 60 91 100 88 75 77 90 100 81 49 74 93 99 111 103 119 142 147 147 147 143 140 138 132 127 123 119 116 73 70 122 124 125 130 134 134 137 145 142 141 139 127 109 115 119 110 87 70 84 106 117 118 115 120 125 119 106 82 63 80 101 118 118 120 134 141 140 141 141 137 135 132 127 122 116 116 75 74 123 123 126 130 132 134 138 142 141 142 137 128 124 132 134 128 125 116 115 119 135 136 134 137 140 130 121 115 109 120 131 137 135 135 143 143 142 142 141 141 137 132 125 120 118 116 70 74 123 124 125 124 128 130 131 134 138 139 140 139 141 141 141 129 130 128 125 127 138 141 130 133 139 131 120 124 133 139 140 146 148 143 145 145 144 139 140 139 134 129 123 119 117 117 71 73 122 123 123 121 124 124 130 132 135 135 141 143 146 144 137 121 129 122 127 133 135 144 134 135 133 128 126 125 132 134 136 145 149 150 148 144 140 142 140 136 131 126 119 120 121 118 71 70 118 122 122 123 124 126 129 134 137 137 145 146 147 140 131 123 132 129 132 135 139 143 136 137 145 136 130 127 127 128 133 138 141 148 148 143 137 139 135 133 129 124 119 117 122 115 71 72 119 120 120 123 122 122 129 135 136 140 144 142 135 132 125 122 126 130 136 136 125 134 142 141 132 138 142 133 128 121 130 130 129 137 141 141 138 133 128 128 122 123 124 120 118 116 70 69 117 118 121 124 126 125 126 130 131 136 136 128 120 111 112 116 122 121 111 103 101 101 116 110 99 104 117 127 128 123 116 117 116 121 123 134 134 130 125 125 125 123 124 119 118 116 70 68 111 116 117 119 121 125 127 130 130 130 129 113 104 100 103 109 102 85 81 87 92 94 101 97 94 96 90 89 104 114 111 105 102 105 112 129 130 125 129 126 126 124 122 116 115 115 68 65 109 114 115 116 118 122 125 127 127 125 118 103 96 87 91 90 65 64 64 64 69 74 80 77 75 75 71 67 68 78 96 92 88 95 106 119 124 125 125 121 120 117 117 114 113 112 68 63 106 112 112 112 115 119 121 123 123 121 118 106 92 62 54 47 45 49 42 37 42 48 48 47 45 41 39 45 52 52 57 69 70 84 100 115 122 123 119 117 117 115 116 111 111 109 66 60 102 106 108 110 112 114 117 121 122 123 120 115 93 57 69 80 90 93 97 96 101 103 102 99 97 100 95 90 83 74 61 47 43 68 102 118 119 121 117 118 117 116 112 106 108 104 61 56 97 101 105 108 110 112 115 116 120 122 122 117 104 100 112 110 108 105 111 120 129 132 132 133 131 131 123 114 104 104 104 104 102 92 107 118 117 121 116 117 116 113 107 105 105 100 58 76 89 94 100 105 106 108 112 113 114 115 117 116 115 119 116 112 106 105 104 110 114 117 117 116 116 118 116 114 107 104 104 110 123 113 113 117 119 119 113 112 113 108 104 103 99 94 55 115 117 87 93 99 102 104 108 108 108 112 115 117 123 127 116 110 108 99 93 95 96 99 97 94 96 97 96 92 94 97 103 115 123 124 121 114 115 115 108 112 106 102 102 98 92 85 51 119 184 111 86 92 98 99 102 102 105 109 112 113 120 124 118 113 109 103 95 85 77 64 61 61 61 67 75 83 92 98 107 111 122 123 121 115 111 109 107 105 94 95 99 91 80 77 71 119 193 177 105 85 91 94 98 100 101 102 106 108 113 116 117 113 110 107 105 101 102 98 93 89 92 97 100 101 103 102 108 113 117 117 112 109 107 101 102 98 85 90 90 82 75 89 114 119 192 192 176 102 85 92 95 99 101 102 104 104 108 112 114 111 111 114 112 112 109 108 111 110 110 111 113 111 110 111 108 111 112 103 105 105 103 98 94 88 89 89 83 76 71 117 120 118 192 194 192 156 79 83 90 93 98 100 103 107 112 112 116 114 111 115 114 115 120 120 121 123 122 116 116 118 117 113 112 114 112 111 107 104 101 94 92 89 88 83 73 68 77 126 120 118 193 192 192 180 91 71 79 90 95 99 102 108 112 115 117 118 120 119 120 121 126 132 134 135 132 127 127 132 126 120 116 115 113 110 108 107 100 93 89 87 83 73 69 74 84 133 122 119 192 192 192 190 107 80 69 77 87 96 103 107 111 113 113 120 123 120 124 124 127 131 130 131 133 135 135 133 125 121 122 121 117 110 109 103 101 94 87 81 75 72 72 82 88 136 121 118 192 192 192 192 124 90 80 68 74 88 97 104 110 115 118 122 124 118 122 126 123 121 120 119 120 130 130 125 122 124 126 121 119 115 112 103 96 91 85 77 73 71 80 88 94 99 55 67 106 103 102 110 105 97 92 79 69 74 87 96 104 109 117 119 122 122 117 116 119 116 115 111 110 115 116 118 124 123 121 118 117 114 109 102 92 86 78 74 72 76 86 93 97 93 48 20 40 40 46 90 79 99 100 94 81 69 73 84 95 103 109 114 115 113 112 106 106 106 111 108 107 104 104 108 110 113 109 105 111 109 101 96 87 79 73 71 75 85 94 99 97 92 71 21 47 37 44 101 66 102 105 104 95 84 71 71 82 93 98 104 107 101 94 100 99 98 99 98 94 91 94 99 101 99 104 104 105 100 93 85 77 70 68 75 85 94 101 101 97 89 72 17 45 45 60 100 54 103 108 109 104 96 86 77 69 78 88 92 93 92 89 88 86 81 80 78 85 88 88 83 84 85 92 95 95 90 83 73 66 67 76 87 95 102 105 103 98 89 72 9 26 30 51 58 25 63 70 67 67 64 60 55 48 42 47 51 51 50 51 50 47 47 45 46 43 46 47 48 47 50 51 51 52 50 44 39 40 46 54 58 64 65 66 64 60 56 44 