P2
48
60
255
33 60 63 64 65 67 69 70 70 72 72 73 74 74 75 75 75 76 75 75 75 76 75 76 76 75 75 74 74 72 72 72 70 68 67 65 62 61 60 58 57 57 56 55 54 54 53 33 60 99 103 103 105 108 112 114 115 117 116 116 119 121 122 122 121 122 123 122 122 122 123 123 123 122 122 121 119 117 114 112 113 110 107 104 101 98 97 94 93 92 91 89 88 86 86 53 61 99 101 103 103 110 112 114 113 115 116 116 119 121 123 124 121 122 124 121 120 122 121 122 122 122 122 120 117 115 114 113 112 108 105 103 100 97 97 94 93 92 92 90 88 87 86 53 61 100 101 103 107 111 113 113 111 113 112 115 118 120 122 122 122 120 122 119 117 119 119 120 119 120 120 117 114 111 109 108 107 105 103 99 97 94 92 92 93 93 92 90 88 87 86 53 62 99 101 105 107 109 106 104 105 106 106 111 112 114 116 116 114 115 114 114 114 116 118 118 116 116 114 112 109 106 104 102 101 100 96 94 90 87 84 82 85 85 90 92 91 88 86 53 61 98 99 102 104 96 88 87 85 80 82 86 86 86 92 95 96 103 106 109 111 113 114 113 114 113 109 104 100 96 92 89 84 79 76 74 70 68 68 66 69 68 72 81 88 87 87 53 61 98 99 100 85 70 71 67 58 58 60 60 60 65 65 71 78 84 93 100 102 108 110 110 107 105 102 98 88 83 75 68 61 58 56 56 55 53 53 52 55 59 60 61 67 77 86 53 60 98 93 74 66 61 57 52 52 53 53 52 52 53 59 61 71 74 83 93 96 102 106 107 103 100 96 90 80 74 64 58 53 50 51 51 49 50 51 53 55 57 58 59 57 61 76 51 59 93 72 63 61 63 65 67 68 68 63 57 53 54 54 61 66 70 81 87 93 100 105 105 101 96 88 81 73 66 58 54 51 50 50 52 54 57 60 64 63 64 62 60 59 60 65 46 59 81 60 65 74 81 86 87 83 79 77 75 71 68 69 70 71 74 80 85 92 102 106 106 101 93 84 76 69 63 58 56 56 56 57 59 62 66 69 72 73 73 73 70 66 64 67 45 57 72 71 83 87 90 90 89 84 79 75 72 70 70 71 74 77 78 80 86 94 104 111 109 102 92 83 74 66 61 59 58 58 58 59 61 65 69 72 74 74 74 73 73 71 71 68 43 53 79 82 88 89 89 87 85 81 77 72 68 64 62 63 67 72 77 80 87 96 105 114 113 105 94 84 73 63 58 57 57 56 54 57 65 74 78 75 70 70 71 71 71 70 71 71 45 52 84 85 87 87 85 82 76 77 85 88 80 73 67 60 58 66 72 77 84 97 108 116 114 108 98 86 74 61 57 56 55 54 66 78 80 76 78 79 82 76 67 64 68 70 70 72 46 56 87 86 85 83 80 72 84 90 81 69 59 55 58 62 62 59 66 72 82 94 109 118 119 109 100 88 75 63 57 54 57 67 68 67 59 52 56 53 57 63 71 68 61 67 70 71 45 58 90 87 83 80 69 77 71 60 70 58 55 56 60 62 60 63 64 71 81 92 109 118 119 115 104 90 77 68 61 61 66 63 76 87 72 58 61 52 59 60 55 63 66 62 68 71 46 59 93 89 83 76 68 61 57 78 83 64 87 47 52 63 80 66 72 80 88 94 108 119 120 115 105 92 80 73 73 74 61 67 94 87 69 53 47 52 62 71 61 56 62 67 68 73 47 60 96 91 84 75 67 59 70 90 84 59 55 43 49 67 90 77 77 92 93 97 109 118 118 116 107 94 83 77 83 76 74 76 92 97 63 50 49 59 67 73 66 67 65 67 72 76 50 60 99 96 87 76 71 75 80 94 97 65 54 52 64 81 91 84 89 97 96 102 110 118 119 116 108 93 85 80 80 81 83 84 86 95 82 65 63 68 77 78 72 70 74 77 78 82 54 62 102 102 96 90 85 77 79 90 98 95 77 74 83 93 92 91 96 99 99 105 108 118 117 116 108 94 85 84 81 80 76 78 81 86 89 87 87 83 79 75 74 75 78 82 86 89 58 62 103 105 100 95 88 86 85 86 85 89 92 91 86 82 82 90 98 101 102 106 109 118 117 115 108 94 87 87 84 84 83 79 75 77 80 81 81 79 79 77 77 78 80 84 91 94 59 62 102 104 102 98 92 88 88 88 88 87 87 84 82 84 91 100 103 104 105 106 109 115 115 112 106 94 87 87 85 86 86 89 84 80 78 78 79 79 80 80 80 82 86 91 96 97 60 62 102 103 103 102 97 94 92 91 91 90 92 92 94 97 103 106 106 105 107 104 109 114 115 111 104 95 88 87 86 86 89 89 91 89 86 84 85 84 85 85 87 90 96 99 99 98 59 61 102 104 107 107 106 105 104 104 107 107 104 101 102 107 110 110 107 105 104 105 110 115 114 111 105 95 88 85 86 86 88 91 92 93 90 92 96 98 99 99 101 102 104 104 103 100 59 61 101 105 108 111 111 112 112 112 111 111 108 106 110 112 114 110 105 103 102 104 109 115 114 110 105 95 88 86 84 85 87 91 96 96 98 98 98 102 104 106 105 106 106 104 102 98 60 61 102 107 111 113 114 115 113 112 110 112 111 112 113 116 112 107 104 101 102 106 110 114 115 112 101 94 89 86 84 83 86 91 95 99 101 102 102 104 106 106 105 106 106 104 101 97 59 61 103 107 110 113 114 114 115 114 114 113 115 116 116 115 111 106 102 99 102 107 110 115 115 113 102 94 91 87 85 82 85 90 94 99 102 103 104 104 105 104 104 104 103 98 96 93 57 61 102 106 108 111 113 114 116 117 116 117 116 118 118 115 112 109 101 101 102 107 113 117 116 114 107 98 93 88 87 84 82 89 93 99 101 104 105 104 104 102 99 99 97 95 92 91 56 61 101 103 104 108 110 110 112 117 118 118 118 119 120 116 113 109 101 102 103 107 115 119 118 112 107 96 89 86 87 87 82 85 93 97 99 102 104 103 103 100 97 96 93 91 91 90 55 60 100 100 102 107 108 110 114 115 117 118 118 117 119 117 116 108 101 103 102 103 106 113 112 104 98 88 82 82 86 87 84 85 92 96 98 103 104 104 102 99 98 95 94 93 91 89 55 60 99 100 103 106 108 110 113 115 116 117 117 116 117 117 117 107 101 103 96 92 93 98 99 94 86 76 72 74 81 84 84 86 90 94 97 100 102 102 102 101 99 96 93 93 91 90 56 58 98 99 102 107 107 111 112 116 116 115 115 116 115 117 115 103 98 94 85 81 85 89 88 84 75 69 62 62 70 76 80 86 90 91 95 99 100 102 101 98 96 94 93 92 90 89 55 58 96 98 102 106 107 109 111 113 114 115 116 115 115 116 113 100 89 78 57 51 62 82 80 73 68 60 50 49 57 67 72 88 91 92 95 97 100 101 100 99 96 95 92 90 86 87 54 57 95 99 101 105 106 106 110 112 113 113 116 116 116 114 109 102 85 70 60 68 81 83 75 68 63 55 54 53 60 65 76 92 93 94 96 98 100 99 99 97 95 94 92 90 87 86 54 57 93 98 100 102 104 106 107 110 110 112 114 115 115 113 107 104 97 78 71 76 89 92 84 70 63 64 60 57 58 62 83 93 95 97 99 100 99 99 98 97 94 92 90 87 87 87 54 56 93 97 99 102 104 106 107 109 110 111 114 113 114 110 106 103 102 95 84 86 92 96 92 83 83 80 72 67 67 76 91 95 96 98 98 99 98 98 99 97 92 91 89 88 86 87 54 53 92 96 100 100 103 105 106 107 109 109 111 113 112 109 105 103 103 101 96 92 91 97 93 94 95 90 83 79 85 91 94 97 97 99 99 98 98 98 97 94 93 92 89 87 87 87 54 51 89 94 101 101 103 103 105 108 109 110 111 111 110 108 106 103 102 99 92 89 95 98 94 99 97 93 85 79 84 91 95 97 97 98 100 99 96 96 96 94 92 91 89 88 88 85 53 49 82 94 99 100 101 103 105 106 108 109 111 109 110 106 106 105 100 97 87 92 101 100 100 104 102 95 88 83 82 88 90 95 95 96 98 98 95 94 95 94 91 91 90 88 88 87 54 53 82 91 97 98 100 102 103 104 106 107 109 107 107 104 102 99 97 96 94 98 106 106 105 105 109 102 93 87 82 87 85 87 92 91 92 93 94 92 90 92 91 89 87 86 87 87 53 72 83 90 94 96 99 102 103 105 104 106 106 104 103 98 96 92 98 99 103 105 111 112 109 110 111 105 98 93 88 89 86 82 86 87 84 86 91 90 89 91 90 85 86 85 87 84 52 106 91 88 89 95 98 101 101 104 104 103 100 96 93 94 91 95 103 104 104 97 94 96 103 99 91 86 86 87 87 90 90 84 81 83 81 83 83 88 89 89 89 87 86 86 85 81 50 139 112 89 90 92 98 99 102 103 103 102 91 92 90 91 93 99 98 90 89 90 87 85 86 83 81 82 81 80 79 80 82 82 81 79 79 79 78 82 88 89 89 87 86 83 81 78 48 151 143 92 91 91 95 95 100 103 104 95 86 91 86 88 89 86 79 78 81 82 79 77 78 74 74 74 74 74 72 68 68 70 72 73 77 78 79 78 85 87 88 86 85 82 79 76 48 154 182 91 87 87 89 92 97 102 103 88 88 89 81 77 75 71 71 70 70 72 71 70 67 63 68 65 66 65 63 62 61 60 60 63 68 77 79 78 84 87 87 83 82 80 78 76 47 158 225 94 87 86 82 89 96 101 101 89 88 82 70 64 63 64 69 72 72 71 70 69 66 64 65 65 65 67 67 67 68 61 59 63 68 74 80 79 83 87 87 83 79 76 76 76 47 158 244 112 86 85 79 87 94 99 100 94 89 80 77 82 80 83 89 90 91 90 93 94 92 90 90 91 89 88 86 83 82 78 78 82 82 83 82 80 82 86 84 80 76 74 75 76 48 158 254 154 84 81 80 81 88 96 100 95 89 91 97 100 95 93 94 92 95 98 99 98 97 97 100 98 96 89 84 82 80 81 82 85 89 90 86 83 84 86 82 77 74 71 71 74 48 158 255 192 91 77 78 75 84 94 99 97 96 101 105 106 101 96 95 91 89 90 92 94 94 96 95 90 85 80 79 78 78 79 82 86 89 90 86 85 84 83 79 75 73 71 71 73 46 158 255 250 120 80 81 76 77 87 95 96 99 102 103 103 101 99 93 93 91 88 88 87 88 88 84 81 78 77 78 77 76 79 83 86 86 87 85 83 81 78 75 72 71 70 70 72 46 158 255 255 203 89 83 78 78 85 92 95 98 99 100 99 99 98 95 91 87 83 81 78 78 77 74 72 71 70 70 72 76 79 82 84 85 84 82 80 79 77 72 69 68 68 70 70 46 158 255 255 248 123 75 76 76 79 87 91 92 94 95 96 94 95 93 89 85 81 76 71 70 67 66 66 66 67 70 73 76 77 79 80 81 81 80 79 77 75 71 66 68 68 69 71 45 158 255 255 255 202 80 71 73 76 83 89 90 91 92 92 95 92 90 87 84 79 76 72 69 64 64 67 69 69 72 74 75 77 77 77 78 78 77 76 74 72 69 67 67 67 67 70 44 158 255 255 255 239 98 68 66 71 79 85 89 88 88 90 91 90 89 87 84 80 78 72 67 65 64 67 70 73 74 75 76 75 75 74 76 75 76 74 73 71 69 66 66 65 65 68 44 158 255 255 255 253 134 71 65 68 78 83 83 84 82 88 89 89 87 87 85 86 89 87 77 74 73 80 83 79 78 77 77 76 76 73 77 77 74 72 72 70 69 66 64 64 65 68 44 158 255 255 255 254 146 78 64 62 74 75 70 77 81 89 90 89 89 88 90 99 105 104 90 89 90 93 92 88 86 83 81 79 79 76 78 77 75 70 70 68 66 64 62 63 66 68 45 158 255 255 255 253 143 89 64 59 65 70 68 72 77 81 89 91 92 95 102 106 109 106 89 90 90 92 94 97 94 93 87 84 83 83 80 76 71 68 69 67 64 63 62 61 65 70 48 158 255 255 255 253 145 99 70 57 57 62 65 73 71 76 83 92 94 99 103 106 101 96 85 78 81 85 93 93 96 92 87 83 81 83 80 75 67 63 64 62 60 60 61 62 66 74 51 158 255 255 255 253 144 101 88 63 56 56 60 64 68 73 77 83 89 92 100 102 92 84 75 69 71 77 88 88 91 86 82 76 77 75 73 68 63 61 62 61 60 60 60 61 69 78 52 158 255 255 255 253 141 102 96 73 57 54 54 58 63 63 71 74 79 81 92 91 79 74 65 62 64 73 82 82 84 79 77 69 70 67 66 62 61 59 60 58 58 58 60 65 73 81 54 98 158 158 158 156 84 62 60 48 39 34 32 34 36 37 42 44 45 47 51 51 45 42 38 35 39 44 46 49 47 44 44 40 38 38 36 36 35 35 35 36 36 36 39 41 47 51 34 