P2
48
60
255
11 23 30 43 51 58 61 63 66 66 64 57 45 40 32 36 40 51 53 55 41 39 44 43 42 46 43 46 46 47 46 38 29 30 30 34 23 21 22 20 17 18 18 16 19 17 17 11 19 41 51 72 85 96 103 105 106 107 106 103 90 72 65 60 63 77 90 95 92 68 72 83 79 82 84 84 84 89 91 84 65 64 58 66 54 40 40 40 32 35 28 26 31 26 28 18 18 44 54 75 89 98 106 110 111 109 113 113 102 97 78 73 78 81 95 103 111 98 73 87 97 96 98 102 100 102 109 107 103 95 83 75 70 63 51 59 39 41 32 29 32 27 29 17 18 47 63 78 90 101 102 107 107 107 113 118 117 111 107 92 93 97 105 116 123 118 98 95 107 115 120 119 114 116 124 127 126 122 105 91 91 86 77 74 56 58 46 36 35 30 29 17 20 52 75 84 94 92 90 91 96 94 98 98 103 103 108 108 105 108 114 122 129 131 125 123 117 127 130 128 123 125 128 124 119 122 109 99 95 90 87 84 74 83 80 55 50 38 33 19 24 62 84 87 82 76 75 79 74 68 68 69 64 67 74 88 95 106 119 130 136 137 139 132 135 133 133 127 120 111 99 87 74 72 70 72 76 76 78 78 88 86 100 90 81 59 43 21 33 74 81 73 73 72 72 66 64 66 64 65 69 64 69 84 86 99 112 130 140 141 142 141 141 136 131 120 112 93 89 75 74 75 69 55 66 64 70 75 79 75 80 91 96 83 61 30 44 79 69 64 63 66 69 72 72 68 72 77 82 81 78 83 93 104 114 126 137 143 144 143 143 136 128 116 106 97 89 85 83 76 68 60 63 73 78 76 73 72 71 72 92 97 80 38 47 72 59 56 65 77 90 97 103 107 110 111 104 102 101 98 102 110 115 125 136 142 142 144 143 137 126 121 111 107 103 105 98 98 106 106 108 110 108 100 91 87 80 69 77 101 96 50 48 63 61 71 84 93 100 109 115 119 123 124 120 117 114 113 110 112 118 126 134 142 143 145 141 135 127 118 113 112 113 115 116 119 123 127 125 125 120 112 107 105 103 94 81 91 104 60 46 74 81 86 92 99 105 112 119 125 128 128 127 124 120 118 113 114 118 125 132 140 145 145 143 138 129 119 118 119 119 120 121 128 132 134 134 133 129 125 118 117 113 108 103 96 102 63 53 90 95 95 99 103 105 111 116 116 127 128 127 124 122 121 117 114 115 122 133 142 143 145 146 142 130 124 121 118 117 121 126 129 134 135 136 136 133 129 126 124 121 118 116 111 106 64 60 101 103 99 100 100 98 103 111 119 125 126 125 124 121 121 120 114 112 118 129 141 145 147 147 141 129 124 121 117 120 122 123 125 129 131 132 133 128 123 121 122 122 123 120 116 113 68 63 107 106 102 97 91 91 97 107 117 120 122 121 118 116 120 122 118 109 114 124 136 145 149 145 137 128 122 117 118 117 119 114 114 122 125 128 126 119 112 111 115 120 123 125 124 121 73 65 107 102 96 88 84 87 88 91 94 96 99 99 102 109 116 124 122 110 113 123 137 146 148 144 138 128 118 119 121 117 114 104 98 101 105 107 105 104 102 102 105 113 121 124 127 126 76 65 105 97 84 68 55 48 41 39 31 32 36 50 57 63 100 127 128 108 112 122 135 145 147 144 134 126 119 127 127 122 95 64 60 47 38 37 39 51 54 63 76 93 107 118 126 131 77 67 107 94 82 72 65 58 54 62 62 61 67 74 75 66 65 120 130 108 113 122 132 142 145 143 135 128 121 131 139 114 57 65 72 61 56 52 57 60 58 64 75 88 98 113 129 133 78 68 107 102 97 90 84 85 92 104 107 98 101 102 105 110 109 121 123 110 115 123 132 140 142 142 135 129 121 128 143 120 108 106 104 101 102 106 108 106 101 99 103 114 117 121 129 133 81 67 108 112 115 112 108 103 98 98 99 99 99 102 107 112 121 124 118 111 115 121 129 137 138 137 134 128 125 124 141 135 126 114 106 104 107 110 111 108 109 115 125 133 138 136 131 130 82 69 116 122 126 130 128 122 119 117 117 118 119 120 120 124 126 122 115 115 114 120 124 130 134 133 131 127 127 124 130 138 137 130 123 120 119 120 121 123 128 135 140 144 146 144 138 132 81 72 122 128 129 133 132 129 127 128 128 127 128 125 128 131 129 124 118 116 115 116 122 131 131 127 125 125 126 127 131 137 140 138 133 132 134 133 134 136 139 142 145 147 147 145 143 137 80 74 126 129 132 134 133 133 132 133 133 130 130 132 138 136 131 126 122 118 117 116 122 131 132 130 123 125 127 128 132 139 139 141 139 137 135 134 136 138 141 143 147 148 148 149 148 142 82 76 128 131 136 137 135 135 133 135 137 136 138 140 139 138 132 126 122 120 116 113 119 132 138 133 122 121 126 128 125 140 144 143 138 142 140 138 138 140 140 146 148 149 147 150 152 145 83 75 129 133 138 140 137 127 134 138 138 137 139 140 136 140 134 127 121 118 113 112 120 131 139 136 124 119 122 127 129 139 146 146 144 144 140 140 141 141 138 147 150 153 156 154 155 147 85 74 128 135 138 141 139 133 138 138 137 141 143 145 142 143 137 130 122 112 111 112 123 133 138 135 122 114 116 119 131 142 149 149 149 147 145 144 144 143 146 146 152 156 159 160 154 146 84 75 125 131 136 141 143 141 144 142 144 145 147 147 147 146 138 131 112 105 108 113 122 134 138 136 125 112 113 111 129 143 149 150 149 152 149 149 147 147 151 152 155 160 160 157 152 143 84 74 123 128 136 142 145 146 148 146 147 148 149 148 147 144 139 118 102 100 105 116 124 136 141 138 127 117 111 111 119 139 148 151 154 154 154 152 151 150 154 158 160 162 159 154 150 142 84 73 121 127 135 140 145 150 151 151 152 151 151 148 143 137 124 103 101 102 105 120 131 138 143 143 132 120 111 108 109 130 144 151 152 155 155 156 157 158 158 162 163 163 160 153 148 139 81 71 119 127 135 139 142 146 148 151 150 149 144 142 134 124 107 104 109 110 108 117 140 148 148 151 140 123 114 117 116 114 133 143 147 152 155 157 155 158 159 162 165 160 159 151 142 136 81 69 116 122 129 135 136 143 147 146 144 143 136 112 114 112 103 111 117 118 112 111 131 142 142 145 134 119 121 127 128 121 116 132 139 143 147 149 150 153 154 156 158 154 152 148 141 134 79 68 113 119 123 129 132 135 138 140 135 135 127 109 107 97 102 111 117 110 100 96 108 121 127 125 115 106 121 138 134 126 112 122 131 137 141 144 145 147 150 152 151 150 146 142 137 130 78 64 108 115 120 124 128 130 133 135 130 128 121 107 98 90 95 102 100 64 46 74 94 103 107 105 96 83 76 98 119 119 108 113 125 127 133 140 142 145 145 146 145 143 141 138 133 126 73 61 103 110 116 121 125 126 128 130 125 121 109 99 100 97 86 82 73 54 75 89 88 84 80 84 83 70 60 61 96 100 97 111 125 125 125 132 137 139 141 141 138 136 136 133 128 120 71 60 100 106 112 116 120 122 124 124 121 116 102 103 107 105 104 96 87 89 97 96 88 76 70 76 89 98 100 92 85 88 105 116 123 122 119 123 129 133 135 136 135 133 130 125 119 114 67 57 96 99 105 106 112 117 117 120 116 113 106 112 113 111 112 107 113 110 113 116 114 111 110 108 113 116 116 115 121 124 124 125 127 126 118 119 125 128 131 131 132 129 123 119 113 108 63 55 91 95 101 104 106 110 112 114 114 110 111 115 115 116 119 120 121 125 127 130 132 133 134 133 133 134 134 131 133 131 128 126 127 129 125 118 122 124 127 126 127 123 118 112 107 102 61 56 90 90 96 100 104 108 112 113 113 109 111 112 113 117 122 125 125 127 132 133 135 135 136 134 136 139 138 137 135 133 130 127 124 125 123 117 119 122 124 121 119 116 114 106 103 100 62 57 92 91 93 99 103 107 115 117 116 110 107 106 109 115 120 122 124 124 126 128 131 129 129 129 133 135 135 137 135 133 129 124 119 119 118 112 115 119 121 120 115 115 112 105 101 102 64 56 92 93 97 101 104 109 115 119 114 108 102 100 105 112 115 111 109 107 104 106 106 110 114 112 110 114 114 120 124 126 124 122 113 111 114 109 112 116 119 117 111 112 111 104 104 107 67 53 91 95 98 103 109 112 110 121 112 95 92 97 100 100 90 84 81 79 77 81 81 85 88 90 89 90 89 96 96 97 103 109 108 103 105 104 110 115 118 116 111 112 107 105 109 111 69 42 89 97 98 104 109 113 120 123 113 92 89 91 82 66 61 60 59 68 67 75 75 68 70 70 70 69 72 72 69 74 77 76 83 89 91 95 107 117 118 117 113 112 106 105 111 112 70 56 94 99 99 102 109 113 121 124 118 99 88 73 41 38 55 86 94 129 112 128 137 115 112 128 124 109 128 94 89 70 56 46 36 39 70 96 109 119 118 118 116 111 106 107 113 114 70 57 96 101 100 102 105 112 119 126 124 110 93 64 34 29 53 102 95 129 128 156 162 148 145 163 161 141 153 104 120 96 65 37 31 46 80 99 118 122 117 117 115 107 104 110 114 113 66 56 96 100 102 101 102 111 119 130 131 121 105 100 82 59 59 87 71 103 94 144 151 141 144 159 155 103 110 77 98 92 75 72 83 106 116 115 124 122 116 118 112 105 106 112 112 109 64 54 93 99 101 101 100 106 117 124 131 131 125 114 100 84 84 87 87 103 93 118 106 93 97 120 111 107 96 91 96 102 93 90 109 126 130 127 126 122 119 118 110 105 109 111 108 104 61 52 90 94 98 102 99 103 114 122 130 133 131 123 110 90 83 90 95 97 94 98 100 91 100 99 94 99 99 103 101 97 93 104 119 134 138 133 128 126 123 116 110 108 110 109 104 99 57 51 86 92 94 99 101 102 109 117 123 131 135 130 114 102 90 87 90 101 109 111 109 108 105 108 114 113 118 107 97 97 103 114 127 137 137 132 131 127 123 113 111 109 109 105 100 93 55 49 82 86 91 95 97 101 107 117 121 128 134 132 118 106 99 93 87 88 97 104 110 112 109 108 103 97 91 89 93 100 111 123 132 138 135 133 132 129 120 114 110 109 106 100 94 89 54 48 79 83 88 92 95 100 107 114 122 126 131 132 123 108 103 100 93 87 86 84 85 86 86 87 83 81 86 93 101 112 121 129 136 137 135 135 134 130 121 114 110 106 101 95 91 86 52 45 76 80 83 88 92 98 105 113 120 124 127 132 128 111 102 104 103 101 98 94 90 89 90 92 94 98 105 111 118 123 127 130 136 134 134 136 135 128 120 112 106 102 97 91 86 83 50 42 73 76 80 84 89 93 101 109 116 122 125 128 130 121 111 114 114 115 116 116 115 112 111 113 115 116 119 123 127 129 134 135 136 135 133 134 132 125 115 106 101 95 91 86 79 79 46 34 64 70 75 81 86 92 97 104 112 120 123 126 129 130 128 123 123 125 122 122 122 124 124 126 126 126 130 132 134 139 139 137 135 133 133 131 125 116 108 101 95 89 84 79 75 70 38 16 49 62 68 74 81 86 91 97 106 114 122 126 127 131 134 134 132 133 134 133 128 136 138 139 141 144 143 143 144 140 140 139 134 133 133 126 117 109 102 95 88 83 78 72 66 50 15 9 39 54 58 66 73 79 84 89 98 109 117 122 125 128 131 136 141 139 141 142 138 141 140 141 145 146 148 148 146 141 139 138 134 131 128 120 110 102 95 88 82 75 69 59 41 19 10 9 36 67 57 55 63 71 77 81 90 100 110 118 122 125 127 133 140 144 147 147 139 142 147 147 145 148 148 148 145 140 137 135 132 125 120 111 102 94 88 79 74 66 53 28 17 15 10 13 40 74 74 64 54 60 68 74 80 88 99 110 117 122 124 128 136 143 149 149 145 146 147 146 114 136 148 146 142 138 135 131 126 118 109 102 92 85 78 70 62 59 46 15 15 15 10 22 41 74 82 77 67 55 57 65 72 79 88 98 108 113 118 123 126 133 141 144 142 144 142 142 132 139 141 138 134 133 128 123 117 105 98 90 80 74 66 58 67 76 42 15 15 15 10 22 36 74 84 85 79 71 58 55 62 69 77 85 96 103 109 113 115 119 125 130 132 132 133 133 131 129 127 126 124 122 117 110 102 92 85 76 70 60 58 72 82 76 36 15 15 15 10 20 31 72 85 88 89 80 74 62 54 59 65 71 80 89 96 100 104 107 111 114 117 118 120 118 116 114 115 114 113 109 102 92 84 78 70 61 55 61 73 84 86 73 32 17 15 15 9 11 17 45 53 54 57 55 50 46 39 33 35 38 41 46 50 54 56 58 62 63 64 65 65 63 63 62 63 64 60 56 52 47 43 40 35 33 39 46 52 55 53 43 18 11 10 9 5 