P2
48
60
255
69 111 94 92 91 88 81 76 74 75 74 75 75 77 78 80 77 77 77 77 76 76 77 77 76 74 76 79 78 78 78 78 78 77 77 77 75 73 73 72 72 72 74 74 75 74 69 38 111 181 153 148 146 150 128 124 123 122 122 123 123 126 126 126 126 124 123 125 125 125 125 127 125 122 124 129 130 127 131 126 125 127 126 124 123 119 119 119 117 117 117 118 120 120 112 63 110 181 148 147 146 147 131 128 125 123 123 123 127 128 129 128 126 127 126 126 127 126 124 127 129 127 125 128 130 128 127 122 121 129 127 126 124 120 119 118 118 117 116 117 119 119 111 61 115 177 153 142 144 146 132 132 127 124 124 123 127 129 132 133 132 130 128 128 129 128 123 125 126 125 126 127 131 133 132 131 130 131 130 125 122 123 120 118 120 118 118 117 118 118 112 60 119 166 163 144 141 139 132 132 128 123 124 125 129 129 130 130 130 130 129 129 129 129 124 125 127 126 125 123 125 128 131 131 132 132 131 129 128 126 126 121 120 119 117 117 118 117 113 60 113 169 175 145 140 134 132 132 131 128 128 126 127 128 128 130 127 125 125 125 126 127 122 125 128 126 122 124 123 125 126 128 131 129 131 129 128 127 128 124 123 121 119 117 117 117 114 60 106 176 172 147 138 140 134 132 130 128 128 125 125 125 123 122 123 119 120 120 124 124 120 125 127 127 120 123 119 119 122 121 124 126 129 128 127 127 127 127 126 125 122 118 119 117 115 63 108 185 172 145 142 140 134 125 121 119 118 117 119 115 116 117 118 119 120 119 120 120 114 123 125 122 115 121 119 119 118 119 120 120 122 122 122 123 126 127 124 125 124 120 120 118 113 64 114 185 165 150 143 131 118 108 103 101 99 96 100 104 104 106 110 114 113 111 113 111 109 119 123 116 106 113 114 111 113 110 109 111 109 111 107 105 114 111 110 115 125 124 122 119 115 66 116 179 165 144 129 109 99 94 89 86 82 77 74 74 75 78 80 90 97 100 102 103 97 108 115 110 98 102 103 102 99 90 87 90 88 92 88 92 99 101 97 100 109 113 115 119 115 67 114 169 152 131 108 91 83 80 71 69 62 57 53 50 51 56 57 63 71 80 85 92 94 103 110 105 92 94 92 80 73 67 65 62 60 65 67 74 79 84 83 89 95 98 108 117 115 69 108 163 134 110 90 75 69 61 54 47 41 36 34 32 34 41 49 51 56 62 77 85 91 101 110 101 91 91 79 65 55 48 43 40 41 41 45 47 51 58 68 76 80 89 97 111 114 69 104 136 112 89 75 59 49 43 42 42 39 36 36 36 33 31 40 50 53 56 69 82 90 104 111 106 99 90 69 55 48 40 33 34 34 35 38 40 41 43 46 61 73 82 90 105 115 68 90 119 104 79 65 49 45 43 54 41 39 31 37 48 43 42 37 42 49 61 78 91 105 118 124 117 111 95 66 53 47 40 42 36 29 29 43 45 60 45 45 46 62 76 89 99 115 68 80 108 96 77 53 44 46 72 90 46 44 33 45 69 69 53 53 47 50 62 85 104 118 127 130 127 121 98 70 60 53 54 50 41 34 29 43 46 89 80 47 46 51 75 93 101 113 70 87 114 94 67 54 52 59 100 102 51 35 33 42 93 99 74 64 67 64 68 86 110 123 130 134 130 122 100 76 73 69 65 70 56 35 31 36 54 101 98 62 53 55 70 93 105 116 70 89 117 81 71 66 81 93 103 113 73 44 45 77 108 111 86 85 80 86 81 92 114 125 133 133 129 120 107 83 85 78 85 83 87 60 46 51 90 109 100 82 73 70 77 99 109 117 71 78 101 88 82 96 107 154 111 106 104 97 95 99 96 94 96 97 96 86 86 102 120 128 129 130 129 118 109 89 83 87 93 98 101 99 100 94 93 95 95 97 93 88 85 97 111 118 74 80 113 105 113 119 131 151 133 116 107 112 112 105 95 87 87 91 93 94 101 114 126 129 126 124 128 122 110 101 91 92 89 89 99 115 125 124 116 113 115 111 110 108 100 105 113 119 76 84 126 119 124 134 138 139 132 122 117 108 103 95 93 92 92 95 96 107 113 121 137 131 124 121 123 121 110 105 104 98 101 92 95 97 105 114 118 119 115 115 117 115 111 113 116 120 76 89 131 121 123 135 139 135 124 108 101 97 98 99 96 93 99 104 112 118 122 132 147 134 121 121 122 121 111 106 109 109 104 100 96 101 103 105 106 110 112 115 119 114 117 117 119 122 76 91 135 125 127 132 136 128 118 110 109 107 99 95 95 101 114 120 120 122 127 149 152 134 124 123 125 123 115 107 110 110 116 109 107 103 106 110 113 113 115 118 119 118 123 123 121 123 77 93 137 132 130 130 129 125 125 121 117 111 108 105 108 115 122 121 120 127 136 155 154 134 129 125 130 124 116 109 110 111 116 118 109 111 114 118 121 118 120 122 124 125 123 127 123 123 77 95 146 139 132 133 130 128 124 119 115 114 112 113 115 122 119 118 121 134 141 149 148 135 130 132 130 129 119 113 112 112 114 119 118 116 118 123 124 122 122 126 127 129 130 129 124 122 79 98 153 146 137 135 131 128 125 120 114 112 114 117 123 120 117 119 125 144 145 144 136 132 133 132 132 127 120 115 115 112 113 115 116 116 111 116 114 118 122 125 129 130 132 129 125 122 78 102 154 143 138 134 133 128 125 123 122 116 121 125 124 121 119 117 129 152 155 141 134 129 133 133 130 126 124 118 116 114 111 115 119 119 112 114 117 121 126 129 130 128 127 126 124 122 75 99 149 138 130 125 126 124 124 123 124 126 127 124 122 119 114 112 123 149 149 141 131 129 130 132 130 127 124 121 113 111 110 115 115 116 120 123 123 127 128 126 126 121 121 119 119 119 73 95 146 132 123 117 116 118 123 123 124 126 126 120 118 116 108 100 125 139 145 138 131 131 131 129 131 126 122 122 114 108 104 112 115 116 120 124 127 127 126 124 118 115 116 114 115 119 72 86 137 128 122 118 119 117 119 118 119 121 120 117 112 109 96 102 139 151 156 141 132 132 132 131 131 130 123 121 117 113 100 109 112 115 119 121 122 122 120 118 115 114 111 110 112 116 69 83 132 127 121 115 120 113 111 112 113 115 113 113 107 100 88 127 174 156 158 150 132 133 133 132 134 133 122 118 118 117 105 102 111 114 116 116 114 114 113 113 111 108 109 108 111 116 66 82 132 125 114 116 109 108 106 107 111 112 112 108 95 88 88 137 139 116 124 144 131 120 118 118 123 122 115 110 108 113 108 97 104 112 114 114 114 107 106 107 108 106 106 106 110 114 71 89 136 123 117 114 111 110 105 103 106 111 112 103 90 90 96 116 100 65 56 110 126 107 103 103 107 108 102 90 79 92 104 99 98 103 110 111 108 105 102 102 106 106 104 104 113 113 68 88 133 124 116 116 114 106 106 105 109 110 106 96 90 98 99 99 88 57 41 49 106 100 88 89 91 94 68 43 56 85 107 104 98 97 106 109 107 102 102 100 102 102 102 105 112 112 70 90 131 123 121 121 112 108 105 107 108 108 102 91 100 108 107 103 86 71 77 76 74 96 79 75 76 71 64 64 70 99 109 109 104 95 102 106 105 102 101 99 101 102 101 102 114 119 72 90 129 124 123 120 112 108 111 109 109 103 96 101 110 112 109 106 101 97 91 84 76 71 63 56 66 74 80 87 95 103 108 109 107 100 98 104 105 103 103 98 100 100 101 104 115 120 74 84 132 125 123 116 116 112 111 111 106 95 101 111 114 116 110 107 102 101 88 81 75 67 60 62 71 76 77 93 100 104 106 109 107 103 97 101 104 105 104 99 96 99 101 105 114 118 93 84 129 124 120 117 116 115 111 106 97 104 116 113 116 117 109 101 98 95 91 84 80 79 77 77 79 83 82 87 97 101 105 104 102 101 101 96 99 102 104 101 96 97 99 105 111 157 144 84 128 125 120 123 120 113 103 101 104 124 112 105 116 109 107 100 94 96 93 87 86 79 80 83 88 88 88 89 92 98 103 99 101 101 97 94 96 100 101 100 98 95 100 108 198 239 149 85 126 128 124 121 118 108 101 104 117 121 102 94 107 111 107 101 96 93 89 86 82 75 78 82 88 87 88 88 92 96 97 93 97 98 99 96 95 97 98 96 99 95 101 119 231 242 150 86 128 127 125 122 113 106 106 110 117 115 95 86 90 98 98 94 92 88 89 84 80 77 80 80 85 89 90 85 88 90 91 88 87 91 95 97 95 100 102 95 96 96 103 144 241 242 149 87 130 130 125 122 112 112 110 110 110 97 81 71 73 85 90 93 93 95 94 98 97 97 95 93 92 91 91 87 85 83 84 87 77 80 88 94 97 100 100 97 96 97 106 183 242 242 150 92 132 132 128 124 117 115 114 104 95 84 71 53 58 74 81 80 75 74 74 79 88 95 98 98 88 82 81 85 82 83 78 70 63 72 84 91 98 101 101 98 97 101 111 219 242 241 149 92 139 134 126 124 123 124 115 98 85 72 56 41 47 51 52 54 52 52 51 50 56 63 67 61 54 52 50 53 57 63 60 50 45 61 77 86 98 101 101 98 98 103 136 238 242 241 149 94 145 136 127 128 142 129 110 95 81 74 66 77 87 88 88 92 91 93 90 86 81 77 74 79 82 83 82 78 78 82 86 83 64 65 75 85 95 100 101 100 100 105 185 242 241 240 149 97 151 138 130 130 142 127 101 89 84 81 86 96 101 103 106 107 105 102 98 94 94 99 98 95 92 92 95 93 92 92 96 95 83 76 80 88 94 100 100 100 100 120 232 242 241 242 149 96 150 139 132 133 138 116 93 83 84 88 96 102 105 104 104 98 91 84 75 71 63 64 64 61 66 74 82 89 92 96 100 99 93 87 82 86 92 98 100 99 100 179 241 241 241 240 149 93 147 142 131 130 129 111 89 90 89 96 99 104 103 102 99 94 85 81 77 72 66 64 64 58 65 72 77 84 90 96 98 101 98 95 89 86 90 96 96 97 124 234 241 241 242 241 148 93 147 142 131 123 124 109 87 88 91 97 101 99 101 98 87 86 79 74 72 71 69 69 72 71 70 71 77 83 84 90 94 94 100 97 89 83 92 95 97 105 208 241 241 241 241 240 149 98 148 143 132 122 122 111 91 90 92 94 100 95 94 91 88 85 80 75 73 72 71 73 74 73 75 78 82 83 87 89 89 96 98 96 90 86 94 94 96 177 241 241 242 241 241 240 149 97 152 143 136 124 115 108 94 91 92 97 98 98 93 88 88 87 85 86 87 83 83 84 87 85 85 87 89 94 96 93 96 96 91 92 85 88 88 95 137 239 242 242 242 242 241 241 148 96 157 144 139 125 117 111 102 94 93 95 91 96 95 98 99 106 105 101 103 104 99 105 103 102 103 101 103 102 104 104 101 94 92 86 85 89 92 102 177 242 242 242 242 241 241 241 149 98 154 151 138 128 114 112 106 98 97 103 101 103 99 103 110 105 106 103 106 102 102 102 102 105 109 107 107 111 110 104 101 95 88 84 89 93 97 111 202 242 242 242 242 241 241 240 149 100 157 157 135 129 117 116 109 103 101 105 106 101 100 109 105 109 110 107 106 104 98 99 100 98 97 99 103 99 105 102 99 95 86 84 89 90 106 114 221 242 242 241 241 241 241 241 148 98 155 153 143 125 118 111 102 101 113 114 112 104 105 105 98 98 103 98 99 101 97 90 90 94 94 94 97 97 98 99 97 91 86 80 82 95 107 120 230 242 241 241 241 241 240 241 148 94 152 148 148 129 120 109 101 101 106 114 111 104 101 99 91 87 91 93 88 87 87 85 86 90 89 91 90 91 92 93 96 86 83 75 84 105 107 128 237 242 241 242 242 242 241 240 148 94 151 151 149 138 118 112 100 98 104 112 115 105 101 92 93 89 84 88 80 79 80 84 84 83 83 85 85 86 89 89 85 82 73 82 98 106 105 121 214 241 242 241 242 241 241 240 148 89 147 144 144 140 120 108 99 92 94 105 111 100 90 85 88 82 78 80 80 75 72 69 75 76 80 81 84 83 84 79 81 73 78 96 101 105 106 116 151 235 241 242 241 242 241 241 149 87 141 142 143 142 125 107 100 92 93 93 96 104 88 83 75 69 68 74 67 67 63 58 65 66 70 72 71 71 72 80 72 75 92 96 103 103 106 108 123 190 240 241 241 241 241 240 148 85 134 138 136 138 124 114 99 91 88 85 94 93 95 81 68 61 59 58 58 54 50 58 64 64 61 66 65 62 70 68 71 83 94 98 104 104 108 98 115 142 226 241 241 240 240 240 148 51 81 83 80 83 78 69 63 58 52 50 52 56 52 46 46 43 37 38 35 34 36 35 34 37 37 39 42 43 43 43 47 55 58 61 64 65 66 53 71 80 115 149 149 149 149 148 92 