P2
48
60
255
27 61 72 72 73 77 82 84 83 80 83 84 88 90 95 97 100 94 92 90 86 82 81 79 78 80 75 75 70 72 66 65 62 55 44 38 34 31 27 34 42 25 33 38 42 30 19 10 44 103 113 113 118 123 129 131 130 132 135 138 145 149 152 158 156 154 151 149 142 143 137 136 133 134 130 129 123 119 117 116 112 104 84 78 68 58 49 51 67 67 45 61 72 58 34 20 48 106 112 111 114 122 126 130 130 134 136 141 142 152 157 158 158 157 151 150 150 148 141 144 141 138 137 138 137 131 129 130 127 120 101 94 88 80 70 57 57 74 66 58 68 64 35 21 53 107 110 110 113 120 125 131 133 138 146 152 154 160 172 163 164 161 157 154 150 149 147 148 146 143 143 148 145 149 148 142 138 134 124 110 108 107 92 81 65 64 79 77 77 69 38 19 64 109 109 107 114 121 127 132 134 141 155 160 170 176 187 185 177 165 162 159 157 158 152 151 151 152 152 155 156 159 158 140 143 141 137 126 122 119 104 96 94 81 78 79 79 73 41 19 67 106 105 105 113 122 126 127 131 140 153 167 174 170 175 178 174 170 167 164 160 163 158 154 155 158 161 161 163 163 157 148 149 148 139 134 122 114 107 98 92 96 86 77 78 77 52 18 64 102 99 104 115 116 105 109 122 130 143 148 147 152 157 161 165 164 163 165 159 162 162 160 158 160 162 160 158 155 148 141 142 141 131 124 107 100 96 83 78 82 81 78 74 76 63 22 62 98 96 103 107 82 79 98 102 103 109 121 129 136 139 144 146 150 154 155 153 158 162 162 162 160 152 151 150 146 137 129 124 121 105 88 81 75 76 74 73 65 65 74 73 75 73 31 60 95 100 94 71 65 80 93 97 76 69 68 71 81 104 119 135 137 138 143 144 149 156 161 153 151 137 140 139 129 118 108 84 62 55 53 51 52 59 59 60 60 55 55 66 73 78 40 59 99 92 64 59 71 78 75 66 58 54 49 39 39 37 50 73 95 114 132 140 143 152 148 148 140 131 128 116 98 70 52 42 41 40 42 48 50 58 58 54 55 55 55 59 71 81 46 61 98 77 71 86 93 92 92 90 84 85 77 75 57 46 44 47 63 87 114 126 129 142 138 141 127 113 112 95 69 53 51 49 52 56 73 77 79 76 79 81 79 72 66 64 69 80 51 64 99 88 82 95 100 105 112 116 109 110 104 92 82 79 74 69 68 81 93 101 116 130 132 134 119 103 99 87 66 61 63 65 71 80 90 90 86 78 83 85 84 79 77 78 74 81 53 63 102 104 106 102 103 96 86 82 74 63 61 63 67 73 79 82 81 87 87 96 108 120 129 122 116 100 91 80 74 73 73 70 69 79 85 89 90 92 79 64 66 82 81 81 77 83 53 67 103 103 105 99 78 72 66 54 34 34 30 42 60 59 67 80 84 93 96 103 117 126 128 119 111 101 92 83 77 75 69 73 76 52 36 34 40 56 60 72 68 69 82 83 85 87 52 70 107 101 98 73 68 50 73 75 50 82 39 95 106 92 66 76 89 97 110 118 130 134 137 129 119 106 97 90 81 77 73 77 98 109 47 80 52 82 73 47 65 74 80 84 87 88 51 71 113 104 92 75 66 80 111 109 47 34 30 48 136 127 81 91 103 114 121 131 141 153 157 147 132 112 104 98 95 90 67 132 142 48 28 34 47 99 102 78 60 69 79 86 90 92 54 73 119 111 100 96 91 97 116 140 96 55 51 104 155 132 105 112 130 144 136 138 147 159 161 153 135 117 106 114 124 108 97 140 161 86 48 47 72 123 106 88 73 78 82 92 95 93 55 67 116 116 115 113 109 110 120 128 139 123 114 122 121 120 119 124 135 146 132 136 143 153 155 147 134 116 109 112 131 116 113 121 130 132 104 110 129 120 103 89 83 91 91 90 95 93 56 65 114 116 118 123 120 116 119 129 138 128 115 108 102 99 111 126 141 141 131 135 137 151 152 145 133 117 110 109 128 122 114 108 110 114 116 122 120 112 101 92 91 96 95 90 92 91 53 69 115 115 122 132 127 129 123 116 114 110 109 108 109 117 129 135 144 138 133 136 142 150 149 136 129 115 110 111 123 125 122 114 102 99 102 105 103 102 96 98 103 108 102 96 90 90 54 70 115 119 129 136 135 136 142 142 140 134 132 129 130 131 139 147 145 134 135 138 136 139 137 130 121 108 112 113 118 129 128 127 121 114 108 108 110 112 112 113 117 116 107 96 91 85 54 70 116 125 135 139 140 140 146 150 148 143 137 138 133 138 147 150 140 132 137 138 130 131 127 123 114 102 108 110 112 127 134 132 131 128 126 130 132 128 129 129 127 123 116 104 93 86 51 69 115 131 142 148 148 149 151 152 147 144 139 138 140 149 152 147 138 134 136 129 126 126 126 123 114 100 103 110 110 118 131 137 132 131 131 132 134 135 131 136 130 126 122 108 97 89 52 70 119 135 150 158 160 160 156 151 145 141 143 146 149 158 155 142 139 131 133 127 121 122 128 126 116 101 101 107 110 114 124 134 137 135 132 135 135 138 139 141 136 130 125 111 100 90 52 70 120 132 145 156 163 163 161 156 149 141 147 153 156 159 154 146 138 135 129 117 117 123 132 133 119 101 94 101 105 113 120 128 136 135 137 140 141 141 141 142 139 133 124 115 102 94 51 69 121 125 136 142 154 153 151 152 149 146 152 155 158 160 158 149 135 131 120 113 113 125 140 133 124 103 93 96 102 110 115 126 135 132 138 136 144 147 141 141 136 133 125 114 102 96 50 71 119 128 129 131 132 140 149 150 149 147 152 155 163 163 163 150 131 117 113 110 111 124 140 134 123 106 96 92 96 106 116 123 133 138 138 135 137 143 142 138 138 131 122 111 101 93 50 68 119 126 132 127 133 142 148 144 147 147 153 152 159 160 159 145 118 104 108 106 110 117 134 136 126 104 97 92 92 94 111 127 134 136 136 136 134 139 137 137 135 123 115 106 101 93 51 67 117 126 131 131 136 141 139 141 144 142 151 157 155 155 143 124 108 111 111 107 107 117 137 138 137 108 98 91 96 92 99 123 137 135 140 137 135 134 134 127 118 115 109 105 98 92 53 69 116 121 122 123 129 136 144 145 147 151 151 155 154 141 120 113 116 131 136 114 109 133 146 145 151 116 105 105 113 103 92 103 126 134 135 137 132 130 133 122 105 109 104 102 95 91 55 69 106 114 118 116 121 132 138 144 151 150 151 151 142 121 107 119 127 123 125 119 121 148 142 139 138 114 104 109 121 116 100 96 111 133 139 137 134 131 127 119 104 100 96 96 93 89 51 70 107 115 117 116 118 125 140 153 152 155 156 147 133 110 119 122 118 75 51 94 117 127 132 130 122 106 91 64 81 110 104 99 98 124 140 142 136 129 122 119 102 101 98 93 90 89 51 70 110 116 114 114 109 121 138 154 155 151 151 140 123 109 122 115 111 77 50 52 98 118 119 121 113 90 41 37 49 98 100 104 95 111 133 136 137 128 124 119 102 99 95 90 91 89 51 65 108 111 111 111 105 119 131 144 152 152 145 137 122 117 127 118 100 85 100 117 110 107 102 105 97 91 93 90 64 84 94 103 100 113 131 139 141 130 121 110 105 97 98 89 87 91 51 66 107 111 110 115 114 117 130 138 146 146 140 136 125 126 129 127 123 114 110 124 122 107 89 84 88 97 104 91 84 99 104 108 113 120 133 138 137 130 115 109 106 99 98 91 92 92 51 67 110 113 110 113 122 120 129 139 138 140 139 134 130 136 137 133 128 126 119 119 117 114 104 99 100 101 97 94 99 106 114 120 122 122 133 137 135 131 117 114 102 99 97 93 92 89 53 66 113 110 110 117 123 123 130 131 136 139 135 127 136 143 134 128 118 119 119 117 121 123 113 111 114 108 95 97 99 102 112 120 122 123 126 131 131 124 112 102 99 96 95 94 90 88 52 63 109 113 112 114 113 122 125 134 134 137 132 127 139 138 123 116 116 121 120 119 130 131 125 123 123 115 98 99 102 103 105 112 119 118 121 124 127 121 112 100 100 97 94 96 90 88 61 65 111 116 113 114 113 119 123 129 134 136 133 128 130 126 119 120 123 123 127 126 138 139 130 134 137 127 110 106 106 106 101 100 109 115 116 114 119 115 105 100 99 95 94 93 90 89 99 66 106 111 113 111 110 124 125 131 134 129 124 126 124 121 114 127 131 136 132 124 123 133 124 127 133 116 118 119 106 106 108 103 98 101 107 110 114 112 107 104 98 92 93 95 92 95 138 68 108 108 110 112 113 121 125 130 130 125 121 125 126 131 129 134 127 120 116 113 113 113 124 109 104 103 103 102 101 109 115 115 103 99 98 103 112 113 111 102 96 96 95 96 93 123 155 68 110 112 110 114 117 120 123 124 126 125 123 126 129 129 121 121 114 99 98 94 100 99 105 95 93 91 89 91 88 94 110 117 113 103 98 101 107 111 108 99 98 97 96 97 93 173 157 67 113 114 113 109 117 118 119 114 121 122 124 124 119 106 88 89 81 70 63 66 76 84 76 78 71 65 58 66 72 83 92 107 117 111 106 105 110 109 105 99 96 98 97 99 103 236 158 66 111 116 114 111 114 115 116 114 120 123 125 119 106 101 98 101 108 111 112 120 123 126 125 120 116 104 97 91 81 72 79 98 105 108 107 107 111 106 101 98 95 101 100 100 148 254 158 67 110 115 113 111 115 115 115 118 124 125 122 118 116 115 119 119 121 123 126 130 131 133 130 131 129 123 115 111 106 104 110 106 101 103 105 110 109 103 99 99 99 102 101 102 217 255 158 69 110 116 116 112 113 115 116 118 124 119 114 115 116 120 118 116 118 121 123 131 134 130 128 131 131 126 114 104 103 102 99 100 101 101 103 109 106 101 98 99 96 101 101 138 252 255 158 71 112 112 116 112 114 114 115 116 115 111 110 118 120 125 120 117 113 112 113 115 111 102 100 105 109 107 108 101 98 101 102 104 105 100 98 103 102 98 96 97 98 102 98 177 233 247 156 70 118 111 114 111 112 114 115 115 110 109 112 117 125 128 121 114 113 110 106 103 89 73 73 79 92 96 101 100 97 100 103 108 107 100 98 97 100 97 96 96 100 97 94 139 154 161 105 70 115 114 109 112 110 110 112 114 112 111 113 116 121 122 121 117 111 106 99 98 91 93 94 90 92 90 95 94 96 100 103 104 105 99 100 95 98 96 94 98 100 95 91 129 155 156 97 70 114 116 111 107 109 105 109 112 115 115 114 112 116 117 123 117 117 111 106 103 103 103 102 101 99 96 98 99 102 105 104 101 101 98 100 98 96 95 98 99 95 94 89 74 148 160 99 69 115 116 114 108 105 108 108 111 117 115 111 110 108 109 120 118 122 123 115 114 113 110 111 112 111 109 108 109 109 108 107 99 97 101 103 102 96 97 97 94 97 94 86 49 123 166 102 70 117 118 117 115 106 101 107 111 116 116 113 110 109 106 119 122 126 127 127 127 121 120 116 116 118 118 119 119 116 112 107 102 104 104 106 100 96 97 93 97 98 93 82 46 98 162 101 70 117 119 118 116 110 104 99 107 112 119 117 116 112 112 120 126 125 130 133 133 132 126 121 122 123 125 127 123 118 109 103 101 103 104 103 98 94 92 99 100 95 92 70 44 88 161 97 69 118 118 118 118 111 109 104 99 103 109 115 119 118 118 125 133 135 136 135 132 126 123 119 121 128 132 129 123 112 107 105 104 104 102 98 93 90 98 102 98 95 92 55 44 92 156 92 70 118 121 119 119 117 113 107 102 97 102 112 118 120 121 123 129 132 135 136 130 120 117 118 123 126 128 129 126 118 110 107 104 104 100 92 89 100 101 99 98 97 90 45 44 96 147 89 70 116 121 123 121 119 115 112 110 104 98 103 111 116 122 123 127 129 127 128 123 118 119 119 119 125 121 121 117 114 108 103 105 102 91 90 100 101 97 97 98 94 84 34 41 96 150 87 69 116 117 124 123 120 119 118 113 110 104 100 103 110 116 118 124 125 123 122 122 119 119 122 119 117 114 114 110 106 102 104 103 92 91 99 98 100 101 100 97 94 78 29 41 93 148 86 68 115 115 121 123 124 122 121 117 113 110 106 108 111 113 112 116 115 117 115 115 112 110 110 110 111 106 111 106 98 99 100 88 91 98 99 99 101 101 101 98 93 71 32 41 96 145 81 66 116 118 119 121 126 124 124 122 117 115 113 111 113 108 103 103 102 105 109 105 101 97 96 96 98 97 95 92 93 94 86 93 96 98 98 101 102 101 100 97 91 64 36 42 105 136 76 40 71 74 73 73 76 76 77 78 78 73 71 70 69 70 66 63 55 55 57 57 55 54 53 53 53 53 54 53 53 52 57 59 58 62 62 63 62 63 63 61 55 51 25 26 66 81 46 