P2
48
60
255
43 66 69 72 76 78 80 81 83 87 88 92 90 86 87 85 85 82 80 83 84 80 79 83 84 81 84 81 81 82 85 83 85 85 86 86 82 76 77 76 74 69 67 62 56 55 56 33 69 106 111 116 123 131 132 131 138 150 149 144 141 140 138 134 135 133 127 138 141 136 136 140 140 136 135 135 133 132 130 134 137 138 141 136 135 125 122 121 118 111 108 103 93 89 90 54 71 111 111 115 122 131 132 129 134 136 137 142 139 140 139 138 139 135 138 141 142 137 141 140 141 139 137 135 133 131 131 134 133 135 141 140 135 133 127 124 121 114 106 103 93 91 90 58 71 114 113 117 120 123 129 131 133 130 134 133 133 135 136 134 134 137 137 139 137 135 135 139 140 136 136 135 130 128 128 128 129 135 133 134 127 130 128 125 120 114 106 98 95 94 91 59 72 117 115 116 118 124 129 131 132 135 135 137 134 133 135 137 137 135 135 136 135 135 134 134 138 139 139 137 137 129 126 129 130 132 129 130 128 129 126 124 118 109 104 96 96 95 94 58 70 112 116 116 117 122 125 129 130 135 137 137 137 135 134 135 136 134 137 137 137 139 139 137 138 139 141 141 139 135 133 131 133 134 135 128 126 128 123 122 117 109 105 99 97 95 98 58 72 108 113 116 113 121 124 127 125 126 135 139 137 136 136 137 136 137 135 139 138 141 140 140 136 142 145 140 140 136 136 139 139 136 137 133 125 127 121 121 115 107 102 99 95 95 97 58 72 93 106 114 115 119 118 121 125 130 142 143 150 146 151 147 140 138 138 142 140 143 142 142 142 140 142 145 140 137 138 147 139 140 140 137 125 125 123 119 113 103 102 99 95 92 94 56 69 94 106 112 111 107 102 110 121 132 140 141 149 152 147 142 137 139 140 138 137 142 141 140 139 139 138 142 134 133 132 135 141 146 148 141 126 113 109 102 95 97 97 93 95 90 90 55 66 106 105 102 100 96 88 96 99 101 109 124 136 138 135 130 135 134 134 135 133 138 135 133 129 130 131 129 124 125 120 118 121 123 119 112 97 88 85 88 97 101 99 92 86 86 87 55 63 101 93 90 89 79 78 71 67 66 76 81 94 105 109 112 118 118 125 128 125 129 129 124 120 121 119 117 108 106 106 93 85 83 77 67 62 59 62 70 81 89 87 90 86 78 83 53 60 92 91 88 79 66 55 52 49 45 44 45 47 50 63 76 88 99 111 115 119 125 125 123 122 112 103 101 90 89 88 75 59 47 43 40 42 42 44 50 57 66 69 78 80 77 76 50 58 90 86 83 83 78 78 79 77 72 66 57 50 53 58 59 65 85 97 108 115 122 121 118 120 108 96 97 87 81 76 67 56 53 52 56 61 63 64 66 67 69 73 75 78 80 80 52 56 94 89 83 88 93 99 109 112 114 112 98 90 76 68 68 70 75 82 92 101 115 120 116 116 106 94 91 86 73 65 63 68 76 82 92 98 101 104 97 89 81 75 76 77 79 77 49 55 92 92 90 94 104 113 117 116 108 100 94 87 87 93 89 82 79 78 81 89 105 114 116 117 114 95 87 75 70 73 81 88 94 91 94 98 100 102 99 100 93 81 77 77 77 76 49 58 89 94 95 103 105 101 87 70 56 49 50 64 78 74 82 87 87 89 90 96 111 124 130 126 114 96 86 80 75 78 82 74 66 75 67 58 63 74 76 74 76 82 78 80 81 78 47 59 94 94 102 98 75 63 57 63 69 62 61 62 68 74 84 75 74 92 102 107 118 137 138 135 117 99 91 79 71 67 70 73 67 57 88 31 78 45 57 53 64 64 81 80 87 80 47 64 96 94 89 71 73 74 85 84 56 46 48 65 103 86 79 99 98 101 108 111 119 134 133 131 116 98 90 79 78 89 82 70 101 89 56 39 47 54 87 71 64 68 73 80 85 83 52 71 108 96 94 97 96 109 116 115 107 93 92 105 109 105 98 110 115 109 103 110 115 127 127 125 112 94 89 84 95 97 87 93 107 117 86 70 77 101 113 107 86 85 82 81 86 93 60 73 111 104 101 107 109 109 115 123 136 132 127 121 112 107 107 105 111 100 105 110 113 124 126 126 115 87 89 84 92 97 99 106 111 114 116 120 124 138 121 98 90 96 90 84 89 100 64 76 122 115 110 113 118 114 113 115 118 119 118 120 119 111 108 111 108 104 110 105 111 125 128 125 123 91 83 89 87 98 102 108 112 115 117 116 116 111 99 99 101 97 93 94 104 114 71 74 127 121 110 112 120 126 122 126 126 127 126 125 118 115 116 118 110 110 112 101 116 129 127 124 123 99 82 89 91 92 100 107 114 117 114 118 120 116 109 109 103 94 93 100 115 122 73 76 128 123 113 112 116 124 130 133 129 128 123 120 122 129 125 120 118 115 111 104 114 124 126 123 114 96 85 85 92 94 101 108 112 113 118 128 126 122 113 105 98 97 101 112 119 120 72 76 123 127 127 128 123 125 124 127 127 132 127 129 133 130 125 119 121 113 109 104 111 123 125 122 111 95 87 89 92 96 103 105 113 118 118 124 124 111 111 110 109 113 114 116 116 113 69 74 121 127 135 136 138 138 136 134 137 143 138 137 131 126 127 122 119 113 106 108 111 118 121 120 111 99 88 87 91 97 101 105 111 119 121 124 120 118 121 121 125 128 123 121 115 108 63 76 124 126 137 143 145 141 142 132 134 146 147 135 131 133 129 127 116 110 106 105 112 119 120 118 114 100 88 85 89 94 102 112 112 114 119 126 129 132 131 132 135 134 129 123 118 105 59 73 124 128 131 137 141 141 148 146 140 148 138 134 136 137 134 123 115 107 102 105 114 119 121 121 118 103 87 81 83 91 98 113 117 118 118 120 124 130 136 136 130 131 129 124 116 104 58 74 124 125 124 131 135 137 145 148 144 140 134 141 142 142 137 115 107 97 101 111 117 117 124 121 123 111 93 80 78 90 95 105 119 124 119 118 121 120 127 133 129 122 121 118 110 99 55 72 122 126 126 123 136 137 139 140 136 133 143 149 151 155 128 114 105 98 103 115 130 131 125 131 138 117 91 81 81 85 93 100 108 121 126 123 121 122 121 118 126 118 116 114 108 98 55 70 117 126 129 120 133 135 136 134 134 142 149 150 160 136 128 112 101 99 96 102 125 129 118 121 121 103 80 79 81 81 84 94 107 111 115 119 123 126 125 119 122 113 105 104 103 91 52 74 119 127 122 114 130 136 144 141 137 143 142 143 139 128 121 102 101 96 90 92 104 111 108 102 99 88 75 73 78 78 78 82 93 109 116 120 121 125 125 120 120 111 101 105 103 86 51 73 120 129 127 125 124 134 142 135 137 135 138 134 122 114 105 97 97 92 81 85 88 94 90 80 77 69 49 64 73 72 76 76 78 94 112 118 121 118 121 119 113 110 103 103 95 85 53 74 121 126 125 121 123 125 127 121 134 137 134 124 111 106 104 102 91 82 55 34 62 73 67 61 61 49 23 48 66 70 77 75 75 84 97 112 116 110 111 111 112 106 103 95 87 86 60 73 117 120 119 121 119 120 119 120 133 138 128 119 110 109 106 108 90 68 51 59 82 83 66 59 69 72 58 46 60 77 84 85 77 82 91 98 108 109 108 109 107 99 99 87 85 91 64 72 119 120 119 114 118 121 119 123 128 130 123 117 115 114 116 108 98 89 83 91 101 106 105 98 92 84 79 71 77 79 86 92 90 89 93 98 105 110 108 107 105 98 98 88 85 96 63 73 122 122 123 121 117 117 121 125 132 128 120 116 118 115 115 106 102 101 100 104 111 116 111 107 106 101 91 86 85 80 85 91 98 101 102 99 102 107 109 105 104 96 97 91 88 95 61 74 126 126 119 119 116 115 120 123 121 127 119 117 119 120 116 109 110 109 107 116 116 119 113 110 111 107 98 95 91 91 87 92 97 104 108 104 101 105 107 105 100 95 92 90 90 92 59 75 127 121 120 118 117 117 110 115 119 122 115 118 118 117 115 110 114 110 111 115 117 112 112 115 110 106 103 99 99 97 89 92 96 101 107 107 100 101 107 106 97 93 91 90 90 96 56 74 124 124 124 117 115 118 110 114 118 118 112 117 114 113 112 107 111 108 111 115 117 115 115 115 107 106 106 100 98 98 90 89 94 96 102 106 101 96 99 104 97 90 87 90 93 98 54 70 121 123 121 111 114 113 107 113 115 112 114 117 114 107 109 112 111 116 114 118 118 112 115 118 112 114 113 105 101 98 90 89 91 97 100 102 102 98 90 105 102 91 88 85 96 93 51 72 118 120 115 111 118 111 104 109 107 114 118 115 113 107 108 114 116 119 116 119 120 116 115 115 116 116 112 102 96 99 90 86 80 93 102 99 98 96 89 94 102 94 88 85 96 90 51 69 120 122 109 110 115 105 103 102 98 110 113 107 100 101 103 113 118 122 114 108 108 110 113 113 111 103 90 85 88 89 84 78 78 87 96 96 92 91 87 86 99 95 92 86 94 90 49 67 109 114 110 111 108 103 102 100 100 102 101 92 90 95 96 97 97 91 88 89 88 90 86 86 79 76 75 71 63 63 66 70 70 73 90 92 86 85 87 80 90 93 90 88 94 87 50 64 109 112 108 102 101 98 101 101 101 98 89 76 68 73 70 64 67 72 72 71 72 71 69 68 65 67 70 74 76 62 50 50 49 57 81 86 85 89 88 80 88 92 84 86 91 83 49 64 105 110 107 95 101 98 99 107 103 91 75 52 63 72 74 81 86 92 99 99 101 102 104 103 101 96 95 89 87 78 76 76 72 61 71 88 91 93 89 80 82 88 82 82 84 77 46 63 103 108 103 93 96 95 101 109 102 90 70 79 92 92 93 96 102 102 105 108 111 115 117 115 109 106 106 105 94 85 81 77 80 79 79 93 97 98 91 80 78 85 77 79 78 72 45 60 99 102 99 90 92 97 103 108 107 92 84 100 99 99 97 98 102 101 106 107 104 96 99 90 94 100 98 93 90 81 82 81 82 88 87 95 101 104 95 77 75 76 71 73 69 70 46 54 90 94 95 90 89 98 103 108 108 101 104 105 106 102 100 100 102 99 99 97 95 94 96 94 94 96 93 90 87 83 87 85 84 86 96 98 103 103 90 73 71 69 67 69 69 72 48 49 84 87 88 88 84 90 99 108 110 101 101 107 106 105 104 102 99 100 100 97 95 96 99 97 101 100 98 91 86 84 84 83 84 87 93 99 97 96 79 70 66 66 67 70 72 74 46 54 83 83 86 86 79 81 92 100 102 102 104 103 105 104 106 105 104 104 105 104 101 99 102 103 106 107 100 95 90 80 77 78 78 83 90 92 89 79 66 65 64 64 70 72 73 74 43 55 87 85 86 84 77 71 83 89 99 105 107 102 103 104 104 105 109 109 111 113 113 111 110 108 109 107 105 99 90 76 73 76 81 84 88 80 75 68 64 62 63 68 70 73 72 69 40 56 90 89 88 85 83 79 78 82 89 93 103 102 103 104 103 104 107 112 118 123 124 120 123 119 115 109 108 102 86 77 78 81 86 91 86 75 68 62 61 62 71 75 76 71 67 60 31 52 85 85 88 87 89 87 76 76 79 92 97 100 101 102 105 106 108 111 119 124 125 121 121 118 110 107 102 95 83 79 82 83 86 90 87 77 68 65 66 68 73 74 75 63 59 40 11 40 74 79 83 83 86 89 92 86 84 90 97 95 96 99 104 105 102 101 102 112 123 123 120 119 121 113 99 95 82 79 86 85 87 90 81 75 69 66 68 67 71 71 62 56 39 15 10 16 41 65 76 82 84 86 92 94 91 92 99 97 97 102 102 105 109 108 105 102 105 111 110 107 104 99 93 92 86 84 89 89 87 87 79 71 69 66 67 66 69 65 52 44 17 14 10 13 20 24 44 69 76 78 82 90 86 89 92 98 101 103 106 110 110 113 112 107 102 105 107 103 97 96 96 97 91 86 89 86 86 81 76 67 66 65 62 66 60 51 52 22 14 15 11 12 19 19 18 25 56 71 76 81 84 83 89 95 99 101 105 106 106 106 111 108 107 107 109 105 97 95 98 92 91 85 80 80 78 74 69 64 61 60 62 58 51 52 24 13 14 17 11 13 19 19 19 18 19 34 59 66 69 73 80 89 94 97 99 105 107 107 105 107 107 108 105 96 88 91 95 86 85 82 78 78 75 65 60 58 57 56 51 48 45 21 13 14 16 17 11 12 19 19 19 18 19 18 20 31 39 52 67 78 87 92 96 101 102 103 99 96 91 99 100 93 91 88 88 82 79 79 73 73 68 56 45 39 39 43 43 32 15 14 15 15 16 18 11 7 12 12 11 11 11 11 11 10 10 19 28 41 48 53 53 57 55 56 57 59 57 54 55 54 51 50 44 42 45 46 42 38 32 25 25 25 26 25 13 8 8 9 10 10 10 11 6 