P2
48
60
255
35 60 62 64 66 69 72 74 73 74 77 81 84 85 84 86 85 86 86 85 85 86 87 87 90 88 88 89 88 90 88 86 84 84 83 82 83 81 78 79 78 77 73 68 65 60 52 30 56 97 101 101 105 113 118 118 119 121 124 130 133 137 139 139 137 137 138 136 140 137 136 140 143 143 144 143 138 139 138 140 141 136 134 133 132 130 125 123 124 122 119 112 103 96 85 48 55 95 100 101 107 111 116 115 115 116 121 127 128 135 136 139 140 139 139 137 136 133 131 138 141 141 138 139 141 141 141 140 138 138 138 134 132 129 123 122 120 119 117 114 103 97 88 48 56 94 100 101 104 108 110 113 117 122 127 133 137 136 137 137 138 139 140 138 139 136 136 140 142 142 144 144 144 147 143 141 139 140 142 141 138 132 127 126 122 120 118 113 103 99 87 47 56 98 100 100 103 106 111 116 122 131 133 138 144 143 143 143 144 145 143 141 140 140 137 138 142 145 146 148 146 145 143 144 143 145 149 148 143 138 134 130 127 122 117 114 104 100 91 52 58 98 102 101 102 108 115 122 134 138 139 136 145 146 146 148 147 146 144 145 147 143 141 141 141 141 141 142 145 146 148 148 146 146 151 150 146 144 141 132 126 120 116 110 102 98 93 56 59 95 99 103 106 107 109 114 122 134 137 139 145 142 140 144 143 143 144 150 150 149 147 147 145 146 149 150 149 147 144 143 145 146 142 142 137 127 119 115 106 102 115 112 103 98 95 57 59 95 98 104 106 95 79 81 89 101 115 122 125 130 134 136 136 137 139 145 149 148 148 148 146 148 148 149 148 143 142 137 133 118 110 107 107 99 84 74 74 80 98 110 106 99 96 58 59 94 102 103 91 68 62 62 66 70 67 64 71 83 103 121 131 131 132 137 143 139 139 138 147 143 140 141 138 135 126 113 98 82 69 63 61 63 66 72 73 73 81 94 106 101 96 58 60 98 99 89 76 64 59 59 50 45 38 36 38 46 62 84 106 117 121 125 132 133 131 127 127 132 130 127 123 115 97 81 64 51 47 43 46 57 66 83 94 94 94 96 100 101 96 59 58 96 92 87 80 85 87 92 95 91 74 57 48 46 53 66 77 89 100 114 121 124 124 123 123 127 120 112 105 89 72 66 56 56 54 61 73 78 80 87 100 101 97 100 101 99 98 59 58 94 95 93 90 97 105 115 120 120 118 111 97 78 69 63 67 76 85 97 107 110 113 120 122 123 111 95 84 75 69 64 65 74 89 104 113 120 119 104 90 93 101 101 102 100 101 60 60 96 97 94 95 96 101 106 112 111 109 107 106 103 94 85 78 73 75 85 92 100 114 122 125 122 105 86 76 75 76 82 87 86 90 101 108 107 102 103 101 91 95 97 98 100 103 61 60 96 93 95 92 90 82 81 97 108 102 101 90 72 79 91 94 91 80 80 90 109 131 139 136 124 106 90 74 81 90 86 73 89 100 109 111 117 106 96 83 92 93 97 99 105 105 61 61 94 91 89 81 63 68 66 55 53 42 53 57 73 67 63 86 92 88 89 104 119 137 147 142 127 109 91 80 87 81 65 74 70 60 63 53 59 71 86 86 71 84 95 105 110 108 64 60 93 90 80 50 49 40 50 37 30 23 32 51 65 53 59 60 79 89 94 109 123 141 152 149 137 115 92 81 77 68 67 55 61 38 29 24 33 47 47 53 67 69 89 100 109 109 65 62 95 84 61 55 55 67 79 53 36 34 39 75 114 77 53 61 75 91 95 108 121 141 148 147 135 113 96 91 84 70 56 88 108 56 37 35 41 76 84 61 55 66 80 101 112 112 66 60 89 75 77 83 79 83 97 98 67 54 69 111 120 100 86 78 90 110 98 106 120 136 138 139 131 112 104 110 100 85 87 105 117 97 59 51 72 97 100 94 84 87 85 93 109 114 69 65 101 91 99 102 95 90 97 102 106 106 105 106 106 100 102 108 113 108 104 107 120 132 136 135 124 111 113 110 111 109 104 105 108 111 110 109 118 113 104 99 103 112 109 103 116 119 71 66 102 94 101 104 103 98 97 100 99 94 91 88 88 89 93 98 107 108 105 111 123 133 138 137 126 112 114 122 112 102 94 95 94 96 101 107 116 119 111 114 114 116 117 115 121 121 72 66 102 98 101 100 99 93 93 93 91 91 91 91 89 93 99 105 114 109 105 114 123 134 141 137 127 113 112 129 131 114 101 98 98 100 100 106 108 110 109 109 112 114 115 122 124 123 74 69 110 107 108 100 103 105 109 112 112 108 104 101 98 99 109 120 119 106 104 112 123 135 139 138 127 114 113 122 134 136 118 104 103 110 116 119 123 124 121 119 118 115 125 132 127 125 74 70 118 120 119 111 106 106 109 111 108 104 103 100 109 120 127 122 110 103 107 113 123 137 141 137 124 115 113 118 128 141 141 124 106 102 110 121 126 131 130 125 122 127 135 135 130 126 74 71 120 127 133 130 124 115 108 103 102 103 107 119 129 133 125 115 107 105 107 116 128 139 141 136 124 116 116 117 122 135 145 143 132 117 105 104 107 112 115 124 135 138 149 142 132 126 73 73 123 134 143 142 139 134 131 128 128 125 126 131 136 132 125 117 109 107 106 120 134 139 142 139 129 119 116 120 124 131 139 144 145 136 135 130 121 131 139 142 152 154 153 142 132 122 71 71 123 131 141 145 143 136 139 135 130 132 131 136 142 142 122 107 108 106 109 122 136 141 142 143 133 120 114 118 121 130 141 146 147 146 146 145 147 150 152 152 158 155 148 136 129 116 71 66 118 128 139 144 140 135 134 134 134 141 144 153 144 126 105 110 114 107 109 125 138 144 147 142 134 123 114 116 116 116 127 147 151 152 152 147 148 149 153 158 158 152 144 137 128 115 67 63 113 121 136 142 139 137 134 140 144 150 155 143 119 97 108 118 115 107 109 126 144 144 149 142 132 123 118 118 122 119 116 122 145 152 153 154 155 151 155 158 159 158 145 136 124 110 63 60 106 116 129 139 131 135 140 137 142 143 136 119 93 84 111 118 119 113 114 128 162 152 166 145 133 123 123 129 124 126 119 104 117 136 148 153 151 149 152 159 164 158 149 127 117 110 66 55 104 113 127 135 136 131 127 127 131 133 118 85 74 87 108 117 118 119 117 128 151 139 150 141 131 125 131 134 128 129 119 95 98 112 131 140 140 144 148 150 157 152 141 126 115 109 66 56 101 106 116 124 131 130 131 129 131 123 105 80 92 93 105 114 112 111 109 118 132 131 133 132 124 121 125 129 128 128 117 92 93 98 115 128 135 138 136 133 141 147 137 129 117 111 65 60 99 105 113 116 123 123 123 123 123 113 91 85 105 95 93 94 91 88 92 100 115 117 125 123 115 106 103 109 113 115 108 95 103 92 105 121 129 132 133 136 137 140 132 119 114 107 63 58 98 107 114 119 119 118 119 125 119 105 84 94 106 104 75 62 42 36 54 80 91 102 111 109 98 80 57 58 74 87 91 103 110 101 96 111 121 126 134 131 135 131 127 118 113 108 63 59 97 106 112 115 117 116 117 120 115 100 86 100 106 106 90 57 44 42 42 52 74 84 90 88 75 46 41 40 44 61 87 108 109 108 97 107 119 122 126 127 130 131 119 115 111 106 63 62 90 102 108 112 115 114 117 119 110 97 95 106 107 106 105 99 91 89 84 84 70 64 65 71 84 90 88 85 90 98 108 114 114 115 108 105 117 116 108 116 124 125 118 115 109 106 62 59 90 104 104 110 112 115 117 114 111 104 103 108 108 105 106 103 99 99 96 102 99 84 82 85 99 109 108 113 117 117 120 121 122 120 117 109 113 117 111 111 122 122 118 111 106 105 61 63 99 106 103 104 111 113 115 113 112 108 107 108 109 106 109 111 106 111 110 112 119 122 118 119 121 123 119 120 124 121 125 125 122 120 118 112 115 116 117 117 118 117 115 111 106 102 60 61 100 105 102 107 111 115 115 115 111 105 104 105 106 105 111 113 116 119 123 126 130 124 121 122 130 132 125 123 123 119 121 122 119 117 115 112 116 121 128 117 114 118 114 109 106 95 58 60 100 105 102 108 108 114 116 115 113 102 102 105 101 103 109 112 120 121 124 125 131 123 120 119 129 135 128 125 119 121 122 118 113 109 108 107 113 121 128 121 115 119 115 108 102 96 58 59 100 108 101 107 109 114 118 114 109 99 101 100 96 97 103 108 116 121 117 116 110 115 122 124 122 121 122 119 121 120 111 109 105 101 100 100 108 122 127 128 117 118 115 108 100 96 58 59 98 105 101 105 112 114 117 118 109 100 98 92 89 93 102 99 93 89 85 84 86 89 96 99 90 88 90 101 107 110 106 103 96 92 98 105 104 123 130 130 126 116 112 106 98 96 57 57 95 105 104 103 109 112 114 119 105 96 89 86 83 84 79 72 70 77 85 87 87 87 95 93 90 92 93 89 85 84 91 97 91 88 91 102 108 123 130 128 122 111 109 103 97 95 56 58 94 102 102 99 102 107 112 120 103 93 85 73 67 58 55 57 68 70 74 79 76 80 84 80 83 78 79 76 72 68 67 79 81 80 90 106 109 127 131 125 116 108 107 101 97 93 55 55 93 100 102 97 96 102 108 118 101 89 79 67 57 40 35 49 50 50 52 56 51 47 45 47 53 52 46 46 55 58 50 55 65 71 86 104 106 129 130 119 107 105 107 101 96 91 53 53 91 96 100 97 93 98 102 112 106 89 83 77 71 75 68 76 80 86 102 107 108 104 104 103 104 107 98 87 78 69 53 57 69 77 89 104 107 128 124 113 103 104 104 99 93 87 55 51 86 92 96 96 93 94 96 107 110 89 87 84 86 86 87 87 79 81 99 115 120 119 120 121 126 128 113 98 88 87 90 88 85 92 98 107 110 122 114 108 99 103 102 94 88 85 56 47 81 86 90 91 91 89 91 102 108 94 98 93 94 89 86 85 87 85 83 90 96 97 103 104 102 98 93 85 88 93 89 91 98 103 106 107 114 115 106 99 97 100 95 88 83 89 57 44 72 80 83 86 86 84 84 90 99 100 100 99 95 93 84 83 82 84 96 101 98 96 96 98 98 97 99 92 81 85 86 99 105 110 104 100 111 104 95 92 91 95 89 82 86 94 55 46 70 72 80 81 80 80 78 83 93 99 100 94 90 91 89 80 78 78 81 89 93 92 92 92 89 90 86 76 79 87 98 106 108 109 103 92 101 94 85 88 90 88 83 82 95 96 40 44 73 67 74 79 78 78 76 73 83 93 100 100 89 89 92 89 83 74 69 65 61 60 61 60 59 63 68 76 87 96 101 103 106 105 97 97 94 81 81 87 87 82 80 92 98 93 33 32 72 73 69 75 79 77 79 79 77 90 97 100 96 91 92 92 91 87 81 74 70 69 73 74 73 79 85 92 97 101 101 98 100 100 99 99 85 82 86 87 84 79 90 97 98 91 43 21 69 74 74 67 75 78 78 84 80 82 93 98 102 101 100 99 98 97 95 93 92 94 96 94 92 96 97 100 103 104 99 101 107 106 101 93 84 89 86 82 78 85 97 99 96 95 68 21 103 75 75 71 63 69 72 78 86 83 87 96 104 104 105 105 104 103 104 108 112 110 104 100 104 106 108 108 107 103 103 106 106 101 95 86 88 81 76 75 80 94 98 99 94 106 84 24 123 120 74 75 66 59 61 62 70 77 82 90 98 101 105 105 103 105 104 103 108 109 101 103 108 107 106 108 105 107 104 105 97 91 85 83 73 71 74 78 87 96 98 97 94 129 91 27 130 148 116 74 72 67 64 61 58 60 71 81 91 96 99 100 98 92 94 96 98 99 99 94 91 92 94 96 103 104 104 96 89 81 76 75 73 76 78 84 92 97 97 96 102 162 97 30 131 149 155 116 74 71 75 76 71 67 63 73 82 90 96 97 95 89 85 82 83 89 87 80 75 76 85 94 98 97 92 84 79 72 74 80 80 84 83 87 95 98 97 96 139 176 101 31 129 150 159 155 103 73 73 79 79 76 68 64 72 80 85 87 91 87 89 84 75 74 74 75 76 81 91 91 93 90 84 75 71 76 82 84 84 84 83 90 97 97 96 116 174 180 102 33 120 150 155 146 151 97 71 75 80 79 76 73 66 68 73 76 82 84 79 74 69 66 64 61 64 71 77 82 81 77 68 71 77 81 84 83 83 82 84 93 96 96 102 162 182 180 102 36 111 149 144 158 154 136 68 68 74 79 77 77 73 65 61 65 67 66 64 59 54 53 51 51 54 60 61 63 62 60 67 73 78 81 83 82 79 79 89 94 95 92 124 151 171 180 96 21 66 87 94 94 91 95 66 27 42 47 47 46 46 43 38 34 36 36 35 34 31 31 31 31 32 32 32 32 32 38 45 48 47 50 49 48 45 52 55 58 56 55 86 91 93 105 56 