P2
48
60
255
40 65 66 66 68 71 74 75 76 81 85 87 89 90 91 93 95 98 100 98 104 105 104 103 102 98 102 103 102 102 102 103 102 104 102 102 98 96 95 94 91 90 88 83 78 77 78 48 65 105 109 109 111 116 119 122 126 132 136 139 143 148 151 153 158 157 158 161 164 167 164 164 163 162 163 165 166 163 164 164 166 164 164 165 161 154 148 147 148 146 142 137 127 124 125 77 65 107 108 108 112 116 121 122 126 131 135 138 143 148 151 155 157 159 157 157 162 162 162 161 160 159 162 165 165 161 163 166 165 164 165 165 163 160 155 151 150 147 139 135 125 124 125 76 64 109 107 108 112 116 119 122 127 131 137 143 146 149 151 156 157 159 160 161 161 163 162 163 164 165 164 166 167 168 169 168 168 169 167 167 162 160 157 153 149 148 141 134 128 125 124 76 66 109 109 109 110 116 122 125 128 131 136 139 145 147 153 161 162 162 164 164 169 170 170 172 168 167 166 167 168 170 171 172 173 171 170 164 161 158 156 152 149 147 139 136 130 125 123 76 65 109 109 108 110 119 126 129 132 129 132 137 138 142 147 157 167 170 172 169 172 175 173 174 170 170 169 168 168 169 172 171 169 168 164 163 158 155 156 156 152 147 140 133 128 126 122 75 66 109 107 107 114 124 133 134 137 133 129 131 132 133 137 146 157 164 165 164 168 171 170 169 167 162 164 163 165 165 166 164 157 153 154 152 155 157 158 159 153 149 144 137 129 125 123 76 67 107 106 110 118 126 132 134 137 138 134 130 128 128 126 134 140 146 148 153 157 162 161 164 162 150 155 157 158 153 151 151 146 146 147 147 151 155 156 156 149 142 145 140 130 124 122 76 68 107 107 111 117 112 109 119 126 135 133 135 133 132 125 125 127 130 136 137 143 146 148 152 153 136 139 145 144 142 140 142 139 141 142 143 143 143 133 131 118 102 117 133 130 123 118 75 68 106 106 107 89 77 81 89 94 98 104 110 118 124 117 111 115 122 124 127 133 139 139 143 140 125 130 129 135 131 126 126 119 122 115 101 89 86 86 82 74 70 72 85 112 120 118 74 65 101 92 73 66 62 66 66 57 54 58 61 70 78 87 90 95 101 110 114 124 130 130 130 134 120 123 124 113 113 105 94 73 59 52 50 51 52 57 61 60 64 61 66 74 93 114 73 61 87 63 53 52 54 54 56 52 43 39 39 41 42 46 59 69 75 88 102 115 123 126 125 126 122 119 107 92 86 76 56 45 39 39 39 47 59 73 82 87 85 85 70 65 68 95 70 57 68 55 58 77 85 86 90 85 76 63 54 48 43 42 46 50 60 73 85 104 120 128 130 134 129 110 92 80 67 54 49 50 47 50 61 79 94 106 111 115 113 108 94 81 72 79 64 52 66 62 77 90 93 91 82 67 52 40 32 29 32 38 45 52 54 62 81 105 133 145 141 147 143 120 98 79 64 58 54 45 39 35 31 36 44 59 76 90 101 106 102 100 82 79 58 55 75 78 88 87 70 42 37 51 27 69 31 39 38 47 49 48 53 67 89 118 146 159 161 161 155 137 110 87 70 58 55 52 52 43 52 36 70 32 49 39 48 72 92 100 96 91 63 61 91 86 81 62 36 37 73 89 42 32 26 33 52 82 61 69 69 75 95 122 150 169 171 170 162 141 114 93 75 66 68 66 97 60 36 27 33 40 87 79 42 42 64 91 101 107 69 66 103 91 73 51 51 70 95 107 61 45 40 51 100 101 113 105 102 98 100 122 151 170 173 170 159 137 112 101 98 103 112 107 122 118 56 45 46 63 109 104 84 69 61 79 102 114 74 72 111 101 86 85 84 86 98 110 114 97 88 108 120 105 110 103 104 104 104 125 151 168 169 171 161 135 114 108 121 115 126 126 126 127 113 90 106 123 116 114 102 101 99 95 109 123 79 74 119 115 110 105 101 98 99 102 100 106 108 114 117 119 126 132 114 104 110 128 155 168 167 172 158 134 118 110 129 136 137 126 119 112 109 107 109 110 113 115 119 119 118 123 128 137 86 76 125 126 121 110 111 110 111 113 115 121 124 125 122 120 117 117 112 109 114 130 160 169 167 173 159 134 123 117 126 133 133 129 123 121 118 121 125 129 130 127 126 125 125 135 144 147 92 77 128 128 129 121 115 115 118 122 127 130 133 131 127 122 118 117 113 115 116 131 158 168 170 171 161 136 126 124 131 139 138 135 134 134 134 134 126 124 122 123 125 131 144 152 150 148 93 78 127 136 142 141 137 137 139 141 145 146 138 132 128 124 125 123 118 114 120 130 157 166 165 166 155 136 128 126 132 149 147 142 137 140 146 148 152 151 150 151 154 156 157 160 156 145 90 74 127 133 139 145 149 152 152 151 149 147 141 136 136 134 131 122 115 116 119 130 154 158 158 163 158 137 127 126 129 145 157 156 151 148 147 147 153 155 158 158 160 162 160 156 150 143 85 72 121 124 133 141 148 154 161 160 158 155 150 149 146 139 130 119 111 115 118 128 149 158 162 162 153 134 126 124 125 142 157 163 166 164 162 158 158 160 164 168 168 163 154 148 144 139 84 71 118 122 127 134 142 152 157 160 162 160 157 152 143 134 126 114 108 111 118 128 144 158 161 166 152 134 126 121 124 138 150 155 163 169 169 168 166 166 165 167 159 153 146 143 140 139 83 70 115 117 120 127 137 148 153 159 163 161 159 149 138 130 122 113 109 109 115 127 147 161 158 162 145 136 126 121 126 135 147 154 160 166 166 168 169 169 170 169 161 149 141 140 138 138 82 67 115 115 118 125 132 144 154 160 165 161 153 147 136 126 118 109 108 110 116 128 144 163 161 157 144 136 127 120 124 126 138 152 161 161 164 162 163 168 173 169 162 155 147 144 140 134 81 65 111 115 118 125 132 140 156 163 163 160 151 141 130 120 115 107 111 111 114 123 147 164 162 162 142 132 126 125 127 123 128 144 156 159 157 159 164 167 169 165 158 153 145 145 142 131 79 65 107 112 117 122 130 135 145 153 159 153 143 132 121 113 108 108 114 113 113 125 140 157 165 161 145 137 133 134 139 126 123 134 145 151 155 157 162 163 162 156 151 145 143 143 137 129 77 65 105 107 112 118 124 129 133 145 148 143 133 120 109 105 109 116 120 118 114 125 133 157 171 169 152 143 136 141 146 137 123 128 133 142 152 153 155 156 157 147 144 144 143 138 131 125 75 63 107 108 112 115 119 119 129 139 138 134 121 109 106 111 113 119 126 124 121 120 136 174 175 171 165 146 138 137 139 132 124 123 130 135 144 147 150 154 151 148 143 139 135 131 125 122 74 63 104 110 111 114 116 122 126 130 130 120 108 103 114 123 110 109 114 120 123 123 138 155 151 150 148 137 125 117 109 106 117 119 133 129 135 139 141 147 147 144 140 138 133 128 120 116 74 62 101 106 111 113 112 117 120 122 120 108 101 111 121 125 107 78 70 95 106 109 120 132 130 124 110 104 95 72 40 65 106 128 135 133 130 133 133 137 139 138 137 135 130 126 119 116 74 64 102 105 109 109 112 113 115 107 104 98 105 118 121 124 119 73 39 46 70 82 87 95 85 77 81 82 85 80 56 76 112 125 132 139 132 127 131 132 131 130 130 131 128 122 119 118 75 63 102 105 109 110 112 112 109 104 101 104 111 119 120 119 105 83 59 63 58 52 56 60 56 55 69 83 87 79 70 73 84 112 123 135 138 132 130 125 125 122 124 125 122 116 116 116 74 61 98 102 108 110 108 106 102 104 105 109 115 113 106 96 77 61 48 52 53 57 49 44 50 68 79 72 61 47 50 52 59 79 93 119 125 126 121 123 117 116 117 122 121 115 115 114 72 59 98 98 104 111 110 105 104 104 94 87 86 81 84 70 54 55 43 38 43 51 56 61 73 69 54 45 41 38 34 37 44 52 63 74 81 85 93 105 114 118 117 117 119 115 112 113 69 55 94 96 103 109 107 106 104 78 54 54 58 59 55 43 40 41 36 33 41 48 50 74 91 78 50 38 37 30 34 35 36 37 39 45 45 52 63 69 102 118 117 115 116 111 110 107 63 51 85 92 99 105 106 107 86 53 39 37 36 37 36 35 32 37 32 35 49 57 69 85 96 89 70 56 48 39 37 39 34 33 37 36 38 38 43 51 76 111 116 118 111 102 102 99 54 42 75 82 98 93 98 98 66 45 35 31 31 32 33 38 42 45 51 59 88 107 124 127 131 129 118 116 97 76 62 53 48 39 36 34 33 33 38 37 59 104 114 118 106 94 91 91 52 37 69 79 80 88 91 86 56 36 29 27 27 29 35 49 64 73 75 82 95 103 115 126 133 130 121 113 101 94 84 71 66 54 37 30 24 27 29 36 48 96 109 107 99 86 76 73 44 37 56 64 73 79 89 95 62 37 30 27 26 30 30 44 56 65 75 91 97 102 103 103 108 107 109 109 112 104 92 77 63 57 46 40 26 24 28 36 56 91 101 99 92 78 68 62 40 35 56 55 68 69 82 89 71 53 41 34 46 65 77 77 83 86 81 87 89 90 85 82 82 87 87 92 105 109 111 109 101 95 95 85 63 41 33 51 75 91 96 91 77 70 60 63 39 35 51 54 58 67 84 89 87 68 47 46 77 91 98 98 97 103 106 122 131 147 146 144 140 138 139 147 149 137 121 116 113 110 109 114 106 63 46 65 85 93 95 81 69 59 63 63 43 35 48 51 55 66 73 85 92 81 60 61 93 107 104 102 103 106 104 111 125 142 144 143 143 146 148 145 136 127 119 119 113 111 117 124 117 84 65 77 97 94 86 71 60 59 67 64 43 28 51 47 52 61 68 81 88 85 69 72 103 114 108 106 101 104 108 113 123 128 135 137 137 135 138 138 135 125 118 110 106 113 122 130 124 101 74 78 90 94 84 64 56 61 71 66 37 28 50 46 51 57 61 72 85 71 59 81 100 110 110 105 99 94 91 93 97 98 91 93 94 88 89 97 102 101 96 100 109 118 122 125 122 100 95 70 84 88 83 63 57 64 75 58 33 33 51 45 46 54 62 65 74 59 65 80 101 108 105 106 99 86 74 67 69 70 64 56 60 59 55 68 74 79 80 94 115 121 121 111 117 102 80 66 81 80 68 56 61 67 67 52 33 31 49 51 45 48 59 66 64 52 56 76 94 104 103 109 101 78 77 62 59 64 49 46 45 44 49 56 67 80 88 99 115 118 120 113 99 91 70 65 78 67 59 53 57 62 58 53 40 40 52 48 42 48 54 59 58 47 51 65 90 98 104 109 108 100 83 79 72 57 41 39 37 40 49 50 76 79 102 114 116 117 122 99 78 73 63 65 65 63 50 55 64 63 56 58 44 53 59 43 41 51 56 61 59 52 49 67 90 102 109 113 108 107 105 102 90 75 56 44 42 42 55 63 86 98 115 111 115 125 122 97 82 65 67 62 59 61 53 55 60 59 55 66 58 61 76 47 47 50 52 60 54 47 43 65 86 97 108 112 114 116 115 115 112 87 80 67 62 60 71 84 100 116 117 118 127 123 115 100 74 58 58 56 65 59 55 52 63 51 51 77 70 61 85 66 49 49 56 55 50 52 50 64 74 82 96 99 114 121 122 123 117 94 96 100 79 89 84 99 111 117 114 122 115 116 112 95 65 49 52 51 59 51 56 56 61 48 55 67 30 61 99 80 54 55 51 50 46 46 50 52 60 77 89 101 108 113 107 117 103 103 99 108 81 78 87 91 98 108 113 109 105 107 101 85 56 43 46 52 54 44 56 59 50 51 57 47 20 59 102 89 69 53 44 48 45 44 49 45 51 68 86 95 91 87 94 92 88 89 88 85 78 72 81 84 83 86 90 94 89 99 84 75 58 39 40 46 52 43 50 57 51 55 69 37 18 57 102 96 79 52 56 50 43 43 37 42 45 59 76 78 79 71 74 76 70 80 72 77 72 77 76 68 71 76 79 81 81 83 68 58 57 45 39 39 38 37 53 58 59 70 85 32 21 51 101 100 93 67 54 42 40 39 38 33 43 56 58 63 68 60 58 64 57 65 65 63 60 67 65 61 63 55 64 69 66 69 54 46 56 42 40 37 36 38 49 54 64 76 80 31 21 40 96 100 96 80 58 45 35 34 29 32 32 45 49 58 55 52 49 53 51 58 50 51 57 52 57 58 53 51 58 57 60 61 49 43 44 40 38 30 36 43 57 58 74 86 72 27 21 26 91 100 98 90 70 53 40 32 32 31 29 33 43 43 40 44 43 47 46 45 45 39 40 50 52 53 51 46 46 55 56 51 45 34 33 30 31 29 42 49 58 60 83 95 63 23 21 11 50 61 61 57 51 32 21 18 18 20 16 18 19 19 21 26 24 26 26 26 27 25 22 31 30 28 29 26 26 36 30 30 22 19 16 16 20 23 30 29 38 47 57 61 36 13 12 