P2
48
60
255
15 23 26 29 36 45 55 59 60 61 65 68 71 72 73 79 81 79 78 81 86 86 86 85 85 83 85 85 85 83 83 83 83 80 79 77 75 73 71 68 66 64 63 60 60 60 60 37 23 41 45 52 64 77 90 97 100 100 105 110 116 119 120 123 128 127 133 137 137 139 142 136 140 139 136 132 133 133 132 131 129 131 129 125 119 116 113 112 108 102 98 94 95 98 96 59 26 40 46 55 68 83 93 101 102 104 107 109 115 119 123 126 130 136 133 134 139 144 139 142 138 140 138 136 136 135 131 132 134 135 134 128 123 115 114 111 106 104 99 96 97 100 99 59 23 39 51 60 73 85 95 101 103 105 110 114 116 119 120 127 132 141 142 145 139 141 137 140 140 134 133 132 138 134 134 134 138 140 138 134 130 125 122 116 111 106 100 97 97 100 101 60 26 43 56 67 79 90 98 104 105 106 113 119 122 126 124 126 128 140 140 143 140 137 133 136 137 136 135 132 136 139 139 136 141 143 142 137 134 132 126 122 118 113 103 99 96 97 99 62 27 45 63 76 84 91 97 104 108 113 118 123 129 128 126 127 125 131 134 137 136 129 131 132 128 132 135 133 134 139 138 137 143 141 141 137 132 124 124 120 124 121 113 103 99 95 98 61 28 51 67 79 85 88 100 108 111 115 121 124 128 125 124 124 126 122 125 124 124 124 129 130 130 126 125 126 136 139 137 140 141 140 140 138 135 133 130 123 119 122 118 109 102 97 97 61 29 54 72 80 77 77 88 95 96 105 110 109 113 116 118 118 119 123 121 118 122 123 124 123 123 126 125 124 129 132 131 133 136 133 130 123 119 123 117 109 108 108 111 104 105 99 98 62 31 62 70 66 66 65 65 64 68 69 69 78 90 102 104 108 111 115 115 116 118 117 122 125 125 126 128 126 124 117 113 101 99 93 89 88 82 81 83 93 92 100 95 90 97 103 100 63 36 65 63 62 67 66 63 54 48 51 58 66 79 89 94 101 108 112 115 114 115 115 119 124 129 128 124 118 113 105 95 83 68 64 64 59 59 69 87 101 106 96 90 84 86 91 100 63 41 66 64 74 80 76 79 77 70 67 69 72 79 84 90 93 101 104 107 112 112 115 119 121 122 123 119 114 109 100 94 84 76 70 71 71 83 94 100 104 103 102 99 91 89 87 98 64 44 71 72 79 80 80 81 83 82 82 81 77 75 79 83 86 91 93 98 106 114 117 120 121 122 121 118 110 104 93 86 82 81 81 88 98 102 107 110 107 101 95 91 91 89 94 98 62 45 75 79 78 74 74 74 74 73 76 83 89 88 82 75 76 77 81 88 98 108 117 120 124 123 121 119 111 98 90 88 88 92 92 92 89 92 97 100 99 98 94 87 85 89 92 96 62 46 77 76 72 66 59 51 61 58 47 38 36 45 59 71 73 69 69 82 98 107 116 126 129 131 131 123 109 89 79 82 79 72 66 56 39 32 37 47 66 81 78 80 83 82 87 95 61 50 79 74 67 60 53 53 56 77 46 36 32 33 42 51 55 68 67 72 87 100 113 121 125 125 120 112 99 76 62 60 48 49 58 36 72 30 63 29 48 42 58 75 73 80 86 92 61 53 83 73 71 62 55 50 98 103 38 56 41 62 57 95 55 52 53 67 87 113 135 146 152 145 132 113 95 64 49 62 60 86 124 51 35 29 37 41 92 85 50 47 72 82 90 96 65 53 85 79 72 65 56 69 102 95 38 35 31 36 63 123 80 58 64 66 86 108 133 149 154 143 129 117 99 81 87 79 88 119 131 86 43 40 44 56 112 114 96 68 60 74 86 100 66 54 92 88 79 71 69 88 102 103 68 41 39 48 103 128 97 96 96 88 87 110 130 146 149 134 122 118 101 97 103 106 112 111 128 126 95 75 89 114 115 109 96 93 90 91 98 111 73 57 93 91 85 85 82 79 90 98 98 100 97 109 114 112 107 98 98 85 95 111 128 144 146 134 129 135 114 101 116 111 105 102 97 97 98 96 98 98 100 105 103 96 107 115 118 117 75 57 94 92 93 92 84 82 84 83 79 77 81 88 86 86 92 94 91 91 100 113 132 143 147 131 126 143 143 119 111 105 97 85 75 77 85 91 98 107 111 107 102 105 113 121 120 118 75 56 95 95 97 98 92 86 85 85 82 78 74 74 82 91 101 98 106 100 97 112 133 142 143 140 124 143 155 141 133 114 106 105 100 90 80 76 77 86 93 97 106 116 124 124 124 125 76 56 95 97 103 113 113 100 95 90 87 87 89 101 104 102 111 127 118 100 98 118 136 142 142 140 129 128 148 154 144 140 129 120 115 115 115 115 112 114 120 127 132 136 136 137 127 126 78 55 95 100 113 119 121 118 115 113 112 113 111 111 111 119 131 122 114 100 104 117 132 138 138 137 133 127 134 142 145 145 142 138 127 127 125 125 127 126 130 133 136 139 141 140 128 125 77 56 96 102 117 127 126 125 120 119 117 118 120 122 128 130 129 121 114 110 112 124 131 137 138 139 136 134 130 130 132 140 141 142 144 137 139 138 139 141 141 143 143 145 146 141 130 122 76 56 95 102 114 126 129 126 129 128 130 131 131 134 132 129 127 124 116 113 118 129 136 139 138 139 138 135 136 139 144 142 143 147 148 145 146 149 147 147 151 155 150 150 154 142 128 121 73 57 93 104 111 122 129 129 137 136 134 136 138 142 138 128 118 108 104 107 121 131 138 141 142 141 137 131 129 133 141 146 147 149 153 151 151 153 149 151 153 156 153 154 151 136 127 119 69 58 94 102 110 115 128 132 131 135 137 134 145 145 135 116 100 105 107 108 124 132 138 142 144 139 133 128 128 124 123 126 132 145 149 153 155 156 150 152 148 152 153 152 146 136 128 120 70 56 94 102 107 108 121 128 131 137 140 144 144 134 113 97 104 116 116 110 123 137 150 149 147 139 130 131 132 126 122 117 119 119 133 145 150 154 154 153 153 150 148 146 140 138 129 121 68 57 95 103 103 109 120 121 126 134 138 144 134 112 87 97 112 126 126 115 123 141 159 153 155 141 135 139 141 136 130 120 111 102 107 126 139 148 149 148 149 145 144 140 138 130 126 115 68 55 95 99 101 109 115 117 117 128 131 132 115 92 88 97 106 121 129 121 123 134 143 142 145 142 143 147 147 142 131 119 108 93 97 106 121 133 141 141 144 143 140 143 137 130 121 116 65 55 93 99 102 105 108 113 118 124 121 115 93 86 96 93 93 96 103 107 106 114 122 125 127 125 126 125 120 115 112 108 101 82 104 98 102 118 127 133 135 139 139 139 136 132 122 112 66 53 93 98 102 104 103 102 106 112 109 93 78 82 94 97 77 55 45 62 91 101 109 110 110 107 88 57 46 52 73 88 95 98 107 113 95 104 117 124 126 129 129 128 127 125 119 110 63 43 91 96 99 100 103 106 100 104 93 80 71 83 97 100 90 58 45 42 49 79 90 91 94 76 43 38 38 42 55 85 103 111 114 118 111 93 102 110 118 120 121 120 120 119 113 106 63 37 89 92 92 93 98 101 96 98 86 72 78 98 101 100 98 93 87 84 81 70 65 64 68 65 70 81 87 94 102 105 111 114 117 122 123 108 92 101 108 110 112 113 113 109 106 101 62 33 84 89 87 92 94 96 92 90 78 79 95 100 101 101 98 95 93 93 93 91 87 81 82 88 90 96 103 110 113 113 119 118 118 123 124 122 103 89 95 102 104 105 106 103 101 98 59 33 77 86 87 88 92 90 89 82 79 88 98 100 97 98 95 93 94 97 102 107 111 109 108 108 109 113 116 118 119 120 123 121 119 118 120 124 116 98 86 91 95 98 98 96 95 97 60 32 75 84 83 85 86 85 82 82 85 93 95 95 95 93 94 97 102 105 111 117 118 116 113 115 117 116 116 116 119 115 120 118 114 110 111 115 118 110 91 84 89 93 96 95 95 98 62 24 67 86 83 81 82 81 80 85 88 93 91 92 93 95 95 97 100 105 113 118 120 121 119 118 119 117 115 113 115 114 114 114 107 101 101 104 113 110 100 86 87 91 96 95 98 100 63 20 57 85 86 83 83 80 82 85 85 90 86 86 88 94 95 99 102 110 111 117 121 125 121 123 125 120 121 117 117 114 113 109 103 96 94 93 103 106 101 93 88 93 95 97 98 99 64 25 48 85 87 85 85 83 84 83 83 85 83 81 86 88 88 87 79 85 87 91 95 103 109 102 95 89 87 88 88 92 98 98 100 92 86 83 89 97 93 97 91 94 95 97 99 101 65 36 46 76 86 86 84 85 85 84 82 80 80 76 76 73 67 65 65 66 68 67 69 70 74 72 71 72 70 67 66 64 63 68 73 71 65 70 84 90 88 96 95 96 95 97 100 103 65 39 61 73 89 88 85 86 86 85 81 80 73 49 40 41 47 51 53 51 50 59 60 59 63 61 61 58 53 54 54 46 42 38 38 42 48 47 78 87 85 101 94 95 98 98 100 103 64 63 97 105 95 90 87 85 86 87 81 80 61 62 74 60 54 42 44 59 60 93 94 73 58 73 83 84 63 65 57 51 56 69 74 87 91 75 78 83 88 102 96 93 97 100 100 103 64 92 149 146 118 88 88 85 85 87 84 80 74 82 83 75 71 74 81 87 91 83 78 76 68 78 83 88 96 103 103 94 82 86 97 100 95 98 93 89 99 103 93 95 97 101 101 104 64 111 180 191 178 94 88 86 85 86 86 85 84 85 86 83 79 71 81 94 105 115 125 118 115 118 118 117 117 113 104 87 85 99 100 97 103 102 99 95 102 101 91 91 94 101 104 104 65 126 199 200 204 119 90 88 84 84 87 85 86 88 85 85 83 77 73 81 98 115 117 122 113 114 119 109 106 92 90 89 101 101 96 100 111 106 97 98 100 93 89 91 96 102 104 104 65 123 201 205 209 171 92 89 84 83 86 83 88 89 89 85 86 88 80 76 88 101 100 100 96 99 98 96 91 87 92 100 93 91 94 106 111 104 96 97 95 90 90 89 98 102 105 103 64 124 204 216 218 212 113 89 85 82 84 85 87 92 91 86 82 81 84 81 77 84 83 85 85 84 86 86 82 81 87 84 86 91 102 108 108 103 97 95 93 90 89 92 100 101 103 103 62 130 213 216 218 218 176 91 85 82 84 88 86 87 91 89 85 82 76 68 61 62 62 63 66 67 69 66 64 67 74 87 95 101 105 105 105 99 96 94 94 91 90 95 101 100 100 99 62 133 216 216 217 218 215 123 87 83 84 87 85 87 88 89 89 87 85 79 74 66 58 52 50 51 54 63 73 82 92 101 105 106 105 104 101 97 95 97 95 91 91 95 99 98 98 98 60 132 213 214 217 217 218 193 94 85 83 86 85 84 86 91 91 92 94 97 96 98 104 106 106 105 107 105 107 110 110 111 109 106 106 101 96 97 97 95 94 89 91 96 97 95 96 96 58 133 215 216 216 218 218 219 151 86 84 84 85 84 84 89 94 97 102 107 111 118 121 121 122 122 118 117 115 117 118 116 112 109 105 99 94 95 94 91 90 88 90 94 92 90 96 96 57 133 215 215 216 218 218 215 119 82 84 81 83 83 83 86 98 101 103 105 110 116 121 122 123 122 122 122 120 120 119 118 115 109 103 94 90 91 89 85 85 88 88 87 85 91 97 95 57 133 216 216 216 217 218 172 75 76 69 76 76 80 80 84 88 97 99 103 105 111 118 117 119 121 118 117 115 115 115 115 114 104 95 88 87 87 85 79 79 81 79 80 86 94 96 94 56 133 215 215 216 218 208 93 64 45 40 73 68 72 75 80 85 90 95 100 107 110 113 113 114 115 114 113 114 113 114 110 105 93 88 83 80 78 71 73 72 73 75 81 90 94 96 92 53 133 215 216 217 217 144 60 72 59 44 69 76 66 68 73 81 84 87 92 99 103 102 104 104 105 104 105 110 113 105 97 91 85 80 74 70 67 67 69 70 72 78 86 89 92 94 88 53 133 216 216 217 186 74 58 67 77 48 50 81 74 66 64 68 77 82 84 85 89 89 91 92 94 95 97 96 94 91 82 79 74 66 67 72 74 72 70 69 74 84 89 90 91 88 84 51 134 216 216 211 102 72 69 67 62 53 33 73 78 69 63 62 61 65 71 74 74 77 76 75 78 77 77 76 78 75 69 63 63 71 77 76 74 70 65 72 82 89 90 93 87 86 83 50 134 216 217 166 60 63 64 57 57 70 48 56 81 75 61 56 59 59 56 56 57 59 58 58 59 58 58 59 57 55 60 68 73 76 74 70 63 64 72 80 88 93 93 91 88 87 82 48 83 133 132 70 42 34 47 48 46 47 34 27 45 49 44 35 31 34 37 34 31 29 29 29 29 29 29 28 31 38 42 45 45 44 42 37 40 46 49 53 57 61 58 56 55 53 50 28 