P2
48
60
255
20 35 34 37 39 44 46 47 48 49 49 51 55 57 60 61 61 61 62 64 63 64 65 66 66 64 63 64 64 65 64 62 59 50 47 39 36 38 44 56 58 54 51 42 35 31 32 20 32 56 57 61 64 70 72 75 77 79 81 85 90 95 99 102 102 101 103 104 105 105 106 106 108 105 102 105 105 107 107 107 105 96 89 83 70 75 82 94 94 88 83 73 61 52 51 31 34 54 58 61 65 68 70 74 76 77 82 89 94 98 102 105 105 106 106 107 108 106 108 108 107 105 103 106 108 109 110 113 113 109 106 100 92 90 90 96 95 89 86 82 68 54 54 31 34 57 60 61 64 67 68 71 75 82 91 93 98 102 103 105 106 107 108 109 112 109 109 109 109 107 106 107 112 113 115 118 117 115 114 106 101 98 92 91 94 90 88 91 75 62 56 30 35 59 60 61 62 66 66 70 74 84 90 94 98 102 104 108 107 107 110 109 111 113 113 110 109 108 110 111 115 119 120 120 122 120 117 109 104 98 93 87 88 90 89 91 75 62 58 35 37 60 60 59 62 64 62 63 70 80 86 92 93 96 97 98 99 102 109 108 110 113 114 112 114 111 110 112 119 123 123 119 122 123 121 113 103 97 87 81 79 84 86 87 79 59 55 35 38 60 59 59 59 56 54 58 61 67 71 74 73 73 78 85 86 93 98 104 108 109 110 112 115 113 111 113 114 113 114 105 101 98 102 98 93 88 79 76 67 70 79 85 85 64 52 31 39 61 56 54 51 49 49 50 54 56 55 55 54 58 61 68 75 82 84 94 99 99 104 107 110 111 109 103 103 104 98 87 76 68 62 64 68 75 69 67 68 61 62 71 83 72 50 29 39 60 54 50 49 50 50 49 48 48 48 50 50 51 55 62 70 73 78 80 86 92 94 98 102 102 100 97 95 91 85 74 69 59 56 51 53 56 58 63 65 64 63 63 72 79 50 30 37 55 50 49 49 52 51 52 50 50 49 49 48 50 50 54 61 64 67 76 76 84 87 92 94 95 87 84 86 77 72 68 60 54 52 49 50 48 51 57 60 64 62 58 65 79 53 30 36 53 51 53 56 61 67 72 74 75 74 70 69 67 64 58 58 63 66 70 76 81 83 88 91 90 83 81 78 74 71 66 64 65 62 62 69 74 77 76 70 70 72 66 67 77 59 29 36 54 56 61 69 77 83 88 92 95 96 92 87 83 80 75 68 65 64 66 71 77 83 86 92 95 91 89 84 81 80 83 88 89 91 95 99 104 105 103 99 93 87 81 71 76 68 29 36 58 63 70 74 79 82 86 90 94 95 97 95 91 86 82 76 69 64 66 69 77 84 92 98 100 94 92 91 92 94 94 93 93 94 97 101 106 109 108 105 104 99 92 78 75 72 28 36 63 69 72 73 73 74 76 81 91 97 99 97 95 91 83 78 72 66 65 68 78 84 93 101 103 100 98 99 97 93 91 85 85 88 92 100 104 106 103 101 101 100 96 89 77 75 29 39 66 70 70 68 67 67 66 73 80 88 96 90 84 79 79 73 70 66 64 68 76 83 92 99 105 101 98 101 95 88 80 73 72 78 85 90 90 86 88 92 94 93 97 93 81 79 29 41 69 71 67 60 57 62 65 62 56 56 62 70 78 80 79 73 66 65 65 67 73 84 94 99 102 100 101 101 96 86 75 68 69 69 71 81 89 88 82 78 83 90 96 95 86 82 30 42 70 70 63 56 53 48 46 40 37 37 45 73 63 57 67 79 72 68 67 67 73 83 93 99 102 98 100 100 101 87 63 54 49 42 38 44 48 59 74 77 79 89 96 98 91 85 32 43 69 66 60 51 45 49 61 56 47 49 66 78 75 69 62 75 78 68 67 67 71 81 94 99 102 95 99 100 103 80 66 65 66 53 48 48 78 77 55 56 75 86 97 98 92 86 39 43 70 65 61 58 55 60 66 69 68 68 76 87 82 80 80 78 74 68 66 65 70 80 93 99 100 95 98 101 106 97 87 77 76 75 74 71 74 82 76 62 65 84 96 98 93 87 45 46 73 71 72 69 65 67 72 75 76 81 86 83 79 78 77 74 73 68 65 66 69 78 88 97 97 94 95 100 106 97 89 85 84 88 88 88 89 90 89 80 81 88 95 99 95 88 51 47 76 78 78 76 74 75 77 81 84 87 90 88 85 80 76 73 74 67 65 66 67 77 89 94 93 91 93 97 104 98 90 92 94 99 100 103 102 99 95 91 92 93 96 98 96 89 52 48 78 80 80 79 81 82 83 88 92 94 96 95 89 84 79 76 71 66 65 65 67 75 85 89 93 89 91 96 99 104 98 96 98 107 112 111 106 103 100 99 98 98 98 97 96 89 53 48 79 82 81 82 83 87 91 96 99 102 99 96 91 87 82 76 70 65 65 65 66 73 81 86 90 88 89 94 96 104 107 105 105 108 116 117 111 109 104 101 99 98 99 98 95 90 54 49 80 83 81 83 86 90 94 99 100 100 99 99 91 85 79 73 68 66 64 65 66 73 80 86 87 87 87 93 96 102 107 110 113 113 117 119 114 109 104 103 101 98 98 98 93 92 54 50 82 84 84 86 89 91 97 101 101 101 98 92 87 83 77 71 67 65 65 65 67 75 83 90 90 89 86 91 95 99 105 109 111 112 114 117 118 111 106 105 102 100 98 98 94 91 55 50 83 84 87 89 89 94 99 99 100 97 92 88 85 80 76 69 65 65 65 65 71 81 89 94 96 93 88 89 94 100 103 106 109 110 113 113 116 115 109 106 105 104 97 98 93 92 55 50 83 87 89 90 92 97 98 98 97 93 90 88 85 80 73 67 64 65 63 67 76 88 96 100 101 98 94 89 94 100 103 106 109 110 113 114 118 115 111 108 109 108 102 100 97 92 56 50 84 87 90 92 95 96 96 96 97 94 87 85 82 77 70 66 65 65 66 71 82 97 101 105 114 108 98 92 92 102 104 106 108 111 115 117 116 115 115 111 112 108 103 102 98 92 56 50 85 85 91 93 96 95 96 96 97 95 89 87 81 74 67 65 67 66 73 72 79 94 102 108 121 113 100 96 92 104 106 106 108 111 115 116 115 114 116 115 113 109 105 103 98 94 56 48 83 87 89 92 94 96 96 96 96 95 93 88 81 72 65 64 68 69 77 73 77 90 99 102 107 103 99 98 95 101 110 108 108 111 114 117 117 117 117 115 113 112 107 103 98 94 56 49 82 85 87 91 93 93 87 96 99 99 97 90 79 69 64 66 69 76 80 75 74 88 96 98 99 100 100 101 100 101 112 109 111 113 114 116 117 118 116 116 115 112 107 102 97 95 55 48 81 83 87 89 91 92 94 101 101 100 99 93 82 68 64 67 71 79 79 65 64 78 88 91 92 86 89 102 103 101 112 112 113 112 116 116 116 120 118 116 116 113 108 101 97 95 55 48 80 82 87 88 91 93 98 102 102 102 101 95 86 71 67 66 71 77 62 43 46 59 76 83 81 55 50 85 101 104 112 112 112 114 115 115 117 117 119 118 114 112 106 101 96 94 53 47 79 81 85 85 90 92 98 100 102 103 103 100 94 80 70 65 70 75 54 53 62 69 77 91 96 78 55 74 94 105 112 112 112 114 115 114 116 118 119 116 114 111 106 101 95 92 52 47 78 82 83 85 89 91 96 100 103 103 102 103 101 91 82 71 64 61 53 65 87 103 97 102 103 82 62 70 89 103 109 109 112 114 115 116 115 117 118 116 114 110 107 100 94 90 51 47 77 80 81 85 89 92 95 99 102 103 101 102 101 95 90 83 75 64 61 74 91 111 104 100 105 89 76 80 90 98 101 103 107 112 116 115 116 116 118 116 113 109 107 100 93 85 54 46 77 77 79 84 88 92 94 98 101 98 97 99 96 92 88 82 71 63 70 83 93 113 102 96 106 96 86 77 86 93 96 98 104 109 113 116 115 118 117 116 112 109 105 98 92 84 54 46 75 76 79 83 86 93 94 96 97 90 95 95 91 87 83 77 68 64 74 91 103 107 100 92 101 99 89 82 83 87 90 91 97 103 108 115 116 116 115 115 112 107 105 97 90 84 59 45 75 77 80 83 85 91 94 94 89 88 94 90 83 78 78 72 73 72 83 96 106 104 98 90 100 105 96 81 79 81 86 86 89 98 100 114 117 116 114 114 110 106 103 97 86 89 65 45 75 76 79 82 86 90 92 90 81 87 88 79 72 73 74 73 77 80 88 98 106 100 93 89 97 105 103 92 83 81 83 84 85 94 96 107 115 115 114 111 108 107 101 92 87 96 68 44 74 77 79 82 86 89 90 83 78 80 77 70 72 78 76 77 84 88 94 99 108 98 92 95 103 106 105 105 95 90 85 83 84 88 92 101 114 114 112 107 104 106 100 91 87 98 68 44 73 76 79 82 86 88 86 76 78 76 70 73 77 81 85 86 88 91 90 88 96 100 100 101 101 98 98 103 104 98 93 89 84 86 89 98 110 112 113 101 97 105 98 90 89 101 69 44 73 76 79 80 84 83 81 73 76 73 74 77 86 90 86 87 83 83 82 82 84 87 92 93 92 91 90 92 101 107 103 102 94 89 91 99 105 111 111 103 103 104 98 89 87 101 70 43 71 75 77 79 82 83 77 72 78 77 82 86 92 91 84 79 73 69 72 76 75 75 78 74 77 81 82 83 88 100 104 107 102 95 92 96 103 108 108 108 107 102 96 92 88 102 89 44 72 73 75 78 81 82 75 73 77 83 86 90 89 84 73 65 59 61 68 76 76 76 77 77 80 81 78 73 73 83 93 100 106 101 95 92 99 109 107 106 106 99 96 91 91 112 137 45 72 71 75 77 78 79 75 72 77 86 90 86 74 61 55 58 65 72 81 88 89 89 88 90 93 95 90 85 77 68 68 76 96 100 95 93 101 106 103 104 103 101 97 93 97 163 156 44 73 73 73 71 73 76 75 73 79 89 92 80 70 65 62 65 70 76 85 89 92 94 96 99 102 103 92 86 81 78 78 72 77 95 99 97 101 105 107 107 105 101 98 95 140 242 158 45 73 72 73 71 73 76 75 75 82 91 89 87 85 82 76 74 76 81 84 87 86 88 90 89 89 93 96 94 91 94 99 98 80 86 101 101 100 103 103 105 104 99 99 95 211 255 158 45 72 72 71 72 72 75 78 82 84 87 89 90 87 85 82 82 87 88 87 83 78 74 77 74 79 89 99 105 105 103 103 103 97 90 104 106 103 100 98 102 103 98 99 104 238 255 158 45 73 71 70 70 70 73 77 83 83 89 90 90 88 85 82 84 89 91 89 86 81 75 74 74 79 89 103 105 106 104 102 105 105 103 105 106 106 101 100 105 103 98 98 122 250 255 158 45 72 72 70 70 69 73 77 81 84 86 86 89 90 88 86 86 90 91 90 91 87 88 85 84 86 93 99 102 104 106 106 106 103 104 106 102 106 102 99 103 101 95 99 157 254 255 158 45 72 72 70 70 71 75 77 80 83 83 82 86 87 88 89 91 93 96 98 99 92 87 90 91 93 99 104 107 106 107 104 100 102 100 101 103 106 99 100 100 101 101 99 199 255 255 158 45 72 71 71 71 71 75 77 79 79 81 82 84 84 84 89 94 96 97 97 95 90 83 84 89 93 98 104 109 109 108 102 98 94 95 97 103 103 100 102 102 103 100 110 241 255 255 158 43 71 70 71 72 72 73 74 75 76 76 79 80 80 84 88 92 95 93 94 89 85 83 84 84 91 95 102 108 110 108 101 98 91 89 98 102 103 103 101 100 100 98 161 254 255 255 158 42 69 70 70 71 71 70 74 73 73 73 76 78 80 84 87 92 91 88 88 85 86 84 84 85 90 90 91 100 105 104 99 96 93 87 92 100 101 100 96 97 95 100 227 255 255 255 158 44 67 68 69 70 68 69 72 70 70 72 76 78 79 81 85 88 86 83 85 88 90 91 92 91 94 92 91 94 101 103 97 91 89 90 94 94 99 97 95 97 94 138 251 255 255 255 158 47 70 69 67 68 66 63 68 68 68 68 72 73 73 75 79 79 82 82 86 89 90 98 95 97 95 92 94 90 96 95 92 89 85 87 87 92 93 93 95 91 99 217 255 255 255 255 158 43 69 68 65 66 66 65 65 64 64 62 66 70 69 71 74 76 77 82 88 92 96 97 95 95 94 95 96 88 91 87 88 86 83 85 88 91 91 91 90 88 129 253 255 255 255 255 158 37 62 65 65 66 65 66 64 62 57 58 62 64 64 65 69 70 74 83 86 95 95 100 97 95 94 101 97 92 86 92 86 81 84 84 85 91 89 91 90 85 143 254 255 255 255 255 158 24 37 37 39 40 41 41 39 38 35 34 36 38 39 39 40 44 46 52 54 58 57 57 60 56 58 60 61 60 53 55 53 51 51 52 51 55 55 52 52 52 95 157 158 158 158 158 98 