P2
48
60
255
16 25 26 26 27 27 28 29 32 35 41 45 50 52 54 55 57 55 53 50 48 49 49 50 50 50 51 50 48 43 40 43 43 41 39 37 36 35 35 33 34 34 35 35 35 33 32 20 26 40 42 42 44 45 46 48 53 59 68 77 82 87 90 92 91 91 87 85 81 83 83 84 83 82 84 82 79 71 69 75 73 71 68 65 63 62 62 61 59 59 58 58 57 55 54 33 26 40 43 43 46 46 48 51 57 63 72 78 86 90 93 94 93 92 90 89 87 88 86 87 86 85 87 86 85 79 77 80 80 78 75 71 70 69 67 66 64 62 60 59 60 58 57 34 26 41 45 44 47 47 51 58 64 70 78 83 86 92 94 95 95 94 91 92 90 91 90 90 88 88 89 89 87 84 84 83 82 80 79 75 73 71 69 66 65 64 63 61 60 59 58 36 25 42 47 49 49 53 57 65 71 76 83 87 91 93 95 94 94 93 92 92 90 93 92 90 89 90 90 90 88 86 82 82 80 79 77 71 64 60 60 58 55 56 58 61 60 61 60 37 25 43 50 52 53 58 60 66 71 77 82 87 89 90 90 87 88 90 91 91 90 92 92 90 88 89 90 88 86 82 79 75 69 63 61 58 55 55 53 52 52 53 52 55 58 61 62 38 25 44 52 54 56 55 55 57 62 62 64 65 72 76 79 79 75 80 86 89 91 89 88 86 86 86 85 83 77 70 63 58 55 54 54 53 52 54 53 54 55 56 56 54 54 59 62 38 25 45 54 53 52 52 52 54 55 57 54 55 57 59 63 68 69 72 79 83 87 86 84 84 81 82 81 76 70 61 57 54 53 53 52 52 53 55 60 63 63 62 61 58 57 57 62 39 26 46 54 50 50 59 66 68 60 58 56 54 53 53 56 61 65 69 74 80 83 85 81 82 80 80 78 72 65 59 57 55 55 54 53 54 56 59 61 63 63 62 62 61 59 58 62 39 26 47 53 49 59 70 76 74 70 65 61 58 58 58 61 63 65 67 72 79 82 84 82 81 80 77 74 69 63 59 58 56 54 53 54 56 58 59 60 61 60 60 60 60 61 61 63 40 27 50 52 58 68 71 72 72 70 68 64 60 57 57 58 61 64 68 71 75 80 81 80 80 78 75 72 67 61 57 54 53 53 54 57 60 61 62 62 60 59 58 58 58 59 61 64 41 27 52 53 62 66 67 68 70 71 70 68 65 62 59 58 58 59 63 67 72 76 80 79 77 77 71 67 62 57 54 53 55 57 58 60 61 62 63 61 57 54 54 56 56 58 61 65 41 28 54 59 61 64 64 65 66 67 68 68 66 63 62 61 59 59 60 63 69 72 78 80 79 76 71 65 58 54 53 56 59 59 57 60 68 67 66 64 63 61 57 53 56 58 61 66 42 28 55 62 60 61 60 56 60 68 71 64 59 57 56 56 58 59 59 61 65 71 79 83 81 77 70 63 57 54 55 59 59 55 63 65 52 48 51 48 52 53 57 60 57 59 61 65 42 29 56 63 60 58 55 56 58 49 48 45 44 50 47 54 54 57 60 62 66 71 80 87 84 78 70 62 57 56 59 60 57 61 62 70 70 57 48 48 61 60 52 55 59 60 61 65 41 29 56 63 60 56 53 51 50 70 60 64 54 43 48 58 55 57 61 65 67 73 83 92 89 82 73 66 60 58 60 59 59 62 66 102 61 50 48 50 65 70 69 55 58 61 63 65 41 30 56 63 64 60 53 50 72 88 71 47 43 43 53 77 61 63 67 71 71 75 83 92 92 87 78 67 61 60 63 62 64 60 85 104 73 50 50 54 73 69 61 59 62 66 66 67 42 31 57 64 68 68 60 54 69 93 84 51 44 47 70 86 76 76 76 79 75 76 86 93 91 89 81 70 63 62 66 68 61 64 72 80 83 66 63 72 70 63 59 63 65 67 68 68 42 31 57 66 70 71 65 58 58 70 86 85 70 69 74 72 70 69 76 81 75 77 86 93 89 87 81 69 64 62 66 66 67 71 72 71 69 65 64 62 62 62 60 62 66 68 69 69 43 32 58 67 72 72 68 63 61 63 69 68 67 64 63 65 67 73 79 79 75 79 87 95 93 90 81 69 64 63 65 67 68 66 64 64 64 63 62 61 59 59 60 64 68 69 70 70 43 32 60 69 73 73 71 68 66 65 66 66 63 63 62 64 70 78 81 79 76 80 87 95 91 90 81 70 65 64 66 70 72 71 69 67 63 61 59 58 59 61 65 69 70 72 71 72 44 34 62 69 74 75 75 72 72 69 67 67 67 67 69 74 78 83 82 79 79 81 86 93 90 87 79 71 68 66 67 70 75 76 74 72 72 70 68 68 69 70 72 72 73 73 73 73 44 35 63 70 73 76 77 77 79 79 78 79 79 77 78 80 84 86 82 81 82 81 83 89 87 84 75 70 68 68 67 70 75 78 77 75 74 74 74 75 76 75 74 74 74 74 75 73 45 35 63 70 75 77 78 80 81 82 83 84 82 81 82 84 86 87 83 81 83 80 84 88 87 82 75 69 67 67 67 70 74 78 79 79 78 78 78 78 79 80 78 77 76 75 74 73 45 35 63 70 74 79 80 83 84 85 85 84 83 84 84 86 88 87 83 81 81 80 85 87 86 81 75 70 67 66 67 69 73 78 81 82 82 82 81 81 81 81 80 78 77 76 75 73 45 34 63 69 74 78 81 85 85 87 87 86 86 85 86 88 89 86 82 81 81 81 84 86 85 81 75 70 67 65 66 68 72 77 81 84 85 83 84 83 83 82 81 78 77 76 75 74 45 33 62 69 74 78 80 84 85 87 87 88 89 89 90 90 89 86 82 81 80 82 83 86 87 85 77 71 67 66 65 66 69 76 80 84 86 86 86 85 83 83 81 79 77 76 75 74 45 32 60 68 73 77 80 82 84 86 88 90 92 93 92 90 89 86 83 79 80 83 86 90 90 89 81 74 69 67 67 65 69 73 78 81 84 85 87 86 85 82 79 78 77 75 75 74 45 32 58 67 72 77 79 80 84 86 91 93 94 94 91 90 88 87 82 82 83 86 92 100 94 93 83 74 70 71 74 70 67 72 76 80 83 83 86 85 83 81 79 77 76 76 75 74 45 38 60 65 72 76 78 80 84 87 92 95 95 93 92 89 87 82 86 91 86 87 94 101 89 80 75 69 68 70 73 70 68 69 73 78 81 83 84 84 82 80 79 77 76 76 75 73 45 37 61 64 71 76 78 79 83 88 90 92 95 93 92 87 85 78 81 84 83 79 82 87 82 74 68 62 61 59 59 60 62 68 70 74 79 82 83 83 81 80 78 77 76 75 74 74 45 36 61 63 71 75 77 79 82 85 88 91 92 92 90 86 85 74 63 54 56 66 74 77 75 68 61 56 49 46 47 53 57 69 71 73 77 81 82 81 80 78 76 75 75 73 74 73 45 53 65 62 69 74 76 78 80 83 86 90 91 91 90 85 85 78 63 56 54 52 62 70 66 60 56 50 47 49 53 56 58 70 74 75 76 79 80 80 78 76 74 74 73 73 73 74 45 47 66 62 67 73 76 78 78 82 84 88 90 90 88 87 85 82 68 66 72 76 70 63 58 55 51 52 55 56 56 56 63 72 74 76 77 77 76 76 75 74 74 73 72 72 73 73 46 62 64 63 68 72 75 76 78 81 83 86 88 90 90 89 86 84 77 66 67 73 76 68 61 56 57 62 63 61 62 66 69 71 74 76 76 76 75 75 73 73 72 72 72 72 72 74 46 40 80 69 71 72 75 75 78 80 81 84 88 89 89 88 86 84 80 75 72 72 71 68 62 62 67 69 66 65 67 67 67 70 72 74 75 75 73 73 72 71 71 71 71 70 72 74 47 89 232 144 103 73 74 76 76 77 81 83 87 87 88 86 84 80 78 76 74 73 71 67 63 68 74 73 68 66 66 67 68 69 71 72 73 73 72 71 71 71 70 70 70 70 71 74 47 153 255 254 211 77 74 75 75 76 78 82 84 84 84 81 79 77 76 76 74 73 71 69 69 71 75 73 69 66 65 67 67 68 70 70 70 72 72 71 70 70 71 70 69 71 72 75 48 158 255 255 240 90 74 74 75 75 77 79 81 82 78 77 76 76 76 75 73 73 71 70 72 71 73 74 71 67 65 65 65 66 67 67 68 70 72 71 70 70 71 71 70 71 73 76 49 158 255 255 251 116 74 73 73 74 76 78 78 77 76 75 74 74 74 73 73 76 81 82 82 83 78 75 72 69 68 67 66 65 65 64 64 65 68 70 70 70 70 71 71 72 74 78 50 158 255 255 254 153 74 73 72 73 74 75 76 76 73 70 70 70 71 75 77 75 75 73 72 71 66 66 66 64 64 63 64 66 64 62 64 63 66 68 68 69 70 71 72 73 75 79 52 138 255 255 246 121 75 73 72 73 74 73 75 71 68 68 69 71 70 70 70 70 70 67 65 64 60 63 63 61 61 60 59 59 59 57 58 62 66 67 67 69 71 71 72 73 76 81 54 65 221 250 161 93 81 74 72 72 73 73 72 68 67 63 61 62 62 64 66 67 65 60 61 64 60 58 59 58 58 57 57 56 53 52 54 60 66 67 67 69 70 71 72 74 77 83 56 98 129 129 106 188 147 76 73 72 73 73 71 69 61 51 50 58 59 63 65 69 70 63 59 60 63 65 70 70 64 62 60 60 59 61 63 63 66 66 66 68 70 71 72 75 78 85 61 157 251 243 248 255 218 83 75 72 72 72 71 67 59 55 61 69 72 76 82 91 92 88 84 85 87 87 88 85 77 73 70 66 69 67 63 65 65 65 66 67 69 70 72 75 78 87 80 158 255 255 255 255 250 118 77 72 71 72 71 66 61 63 69 69 72 77 85 92 93 91 92 93 92 92 88 82 74 69 66 67 69 64 64 66 65 65 65 66 68 70 72 74 80 97 82 158 255 255 255 255 255 199 81 73 70 71 69 66 66 66 66 70 70 74 81 89 98 94 92 92 89 86 83 76 69 64 66 66 63 63 66 66 65 64 65 65 67 69 71 74 81 112 63 158 255 255 255 255 255 249 117 74 69 68 68 67 69 69 67 67 69 70 73 81 89 89 84 84 80 78 72 66 62 64 63 59 61 64 65 64 63 63 63 65 66 68 71 75 91 99 60 158 255 255 255 255 255 255 203 79 69 67 66 67 68 70 69 66 65 68 70 70 74 75 74 75 71 67 62 61 60 56 56 59 62 64 63 63 62 62 62 64 65 68 70 78 94 87 60 158 255 255 255 255 255 255 238 95 70 67 66 66 66 68 69 68 64 61 60 61 62 62 61 60 58 55 54 52 52 54 57 61 63 63 62 62 62 62 62 64 66 68 72 83 79 86 60 158 255 255 255 255 255 255 241 99 74 66 65 65 66 67 69 69 66 62 59 55 53 52 50 51 50 50 50 51 54 57 60 61 62 63 62 61 61 62 63 64 66 68 73 74 78 87 60 158 255 255 255 255 255 255 244 99 79 67 64 65 66 67 68 68 67 66 63 61 58 57 57 58 56 56 56 58 61 62 63 62 62 62 62 62 62 62 63 64 66 68 68 71 78 86 60 158 255 255 255 255 255 255 247 104 77 71 64 64 65 66 66 68 69 69 70 72 75 76 75 74 73 72 72 71 69 67 65 64 63 63 64 63 63 62 63 64 65 64 66 72 78 86 59 158 255 255 255 255 255 255 249 108 78 72 66 63 63 65 66 68 69 72 75 80 83 83 82 81 79 78 75 73 71 69 66 64 64 64 64 64 63 62 62 63 61 63 66 72 77 85 58 158 255 255 255 255 255 255 250 112 78 74 69 63 63 64 65 67 69 72 74 79 82 82 80 79 77 75 73 71 70 69 66 64 63 64 64 63 61 61 61 59 59 62 67 71 77 84 58 158 255 255 255 255 255 255 251 115 79 74 71 67 61 62 64 65 68 70 71 74 78 78 78 76 75 71 70 68 67 66 63 63 62 62 61 60 60 60 57 57 59 63 67 70 76 83 57 158 255 255 255 255 255 255 252 118 79 75 72 70 65 60 61 64 66 66 67 70 70 72 72 73 70 67 67 66 64 62 60 60 59 59 59 59 58 55 56 57 59 63 66 70 75 81 55 158 255 255 255 255 255 255 252 116 80 75 73 72 70 65 59 61 63 63 64 64 63 64 66 67 65 63 63 62 59 57 57 57 56 56 57 56 54 54 56 57 60 63 66 69 74 79 53 158 255 255 255 255 255 255 251 113 79 76 73 72 70 68 64 59 59 60 61 60 60 60 61 61 60 59 58 57 55 55 55 55 55 55 53 53 53 54 55 58 60 63 66 68 72 77 51 98 158 158 158 158 158 158 155 69 49 47 46 44 44 43 42 39 36 36 36 36 36 36 36 36 35 34 34 33 33 33 34 34 33 32 32 33 33 34 34 36 37 39 40 42 45 47 30 