P2
48
60
255
50 84 82 83 86 88 90 89 92 97 99 102 105 111 117 118 114 115 112 110 111 110 114 111 113 113 112 111 109 110 109 111 108 106 105 97 93 92 90 89 88 83 77 76 77 80 78 45 84 139 135 131 139 142 147 149 151 157 161 165 172 178 188 186 179 179 175 180 174 177 175 174 172 180 178 174 166 172 177 184 181 177 167 156 151 148 145 146 143 133 126 123 127 127 121 73 83 139 135 130 136 141 147 149 147 154 161 165 166 173 178 190 193 192 192 189 187 186 181 178 183 186 186 182 177 175 177 179 174 171 167 156 151 147 148 148 140 132 126 125 129 129 118 69 82 137 135 130 129 137 143 144 143 148 159 167 179 186 194 190 191 190 188 190 190 190 189 183 184 184 185 185 186 182 178 181 180 179 172 162 158 152 151 148 139 132 125 124 127 127 119 66 79 133 135 133 132 136 139 144 149 154 163 172 180 184 192 185 191 193 192 189 191 192 188 186 182 184 183 185 184 183 178 184 183 183 176 169 162 154 151 145 139 133 126 124 126 125 116 65 76 131 134 132 133 138 141 149 153 157 167 176 182 189 188 188 192 194 191 187 192 191 190 188 184 186 185 184 181 177 171 180 178 174 177 171 169 158 153 149 142 133 125 124 126 123 114 64 76 133 135 132 132 140 146 156 160 166 172 178 183 186 187 194 194 184 186 184 183 188 191 192 191 186 182 180 181 177 179 179 182 178 176 167 164 156 152 148 144 136 123 121 125 123 117 65 77 130 133 131 132 140 142 147 154 157 162 171 170 178 180 177 183 181 181 179 181 183 181 182 184 180 172 172 170 167 169 172 169 165 159 156 149 138 140 127 125 129 123 118 124 124 122 70 78 130 132 129 130 129 120 124 128 131 139 148 154 156 160 159 168 164 168 173 175 175 173 173 170 164 156 153 143 143 147 145 146 135 133 130 115 100 92 95 89 95 113 116 120 122 121 71 77 131 128 122 102 85 84 79 78 83 90 99 105 105 110 123 135 135 134 150 163 163 164 163 160 152 140 123 103 103 110 98 78 71 77 77 69 62 58 59 62 67 89 110 119 120 119 71 79 131 125 97 70 64 59 60 61 59 57 58 63 71 70 85 104 114 110 124 137 150 152 153 148 132 118 100 80 85 82 72 56 48 42 44 43 47 55 58 59 59 67 82 108 115 118 72 80 129 118 73 72 74 69 57 51 46 45 47 51 52 57 67 79 85 93 109 129 132 142 146 138 131 116 97 83 77 65 59 49 43 40 42 57 78 84 87 84 79 73 70 90 108 118 73 80 131 109 77 86 99 113 105 91 76 64 55 44 44 48 56 68 80 91 108 118 120 138 137 125 124 109 93 83 72 61 53 48 44 43 55 69 79 87 95 98 99 93 81 80 100 117 74 78 129 107 93 103 112 100 80 69 68 64 63 52 44 41 52 63 74 77 91 100 121 137 130 118 115 104 94 83 74 64 58 44 48 53 58 60 63 69 63 71 93 99 97 92 99 112 74 82 130 115 107 110 98 68 73 62 48 39 38 29 36 44 42 51 69 78 84 102 131 136 132 137 135 113 96 86 78 70 53 54 46 34 31 66 38 58 55 68 64 89 100 98 100 116 74 84 131 125 116 109 80 63 57 82 63 49 39 34 38 53 50 54 70 92 111 123 141 152 149 143 143 121 101 93 87 71 58 53 55 42 29 44 47 93 80 57 58 75 98 106 106 114 74 84 136 132 124 107 87 87 102 122 92 49 35 41 52 80 69 71 94 108 120 127 144 159 150 148 149 127 108 106 101 85 68 70 82 52 39 41 52 108 113 95 81 83 97 113 118 121 78 88 140 141 132 119 108 111 118 144 146 96 63 69 103 113 96 112 133 135 133 131 147 169 159 161 163 135 115 118 125 111 94 91 121 108 73 78 119 139 126 107 106 104 113 124 127 127 79 88 145 146 144 133 127 125 118 129 131 136 123 122 122 112 118 125 135 137 138 139 150 173 176 178 167 131 115 124 126 116 111 112 119 120 125 127 125 122 109 108 118 125 130 136 135 132 80 89 147 150 149 144 146 134 129 127 127 122 119 115 117 121 127 131 145 139 144 137 145 171 180 179 166 129 113 127 125 129 128 128 123 120 120 117 116 115 113 117 129 135 140 142 143 133 79 88 146 151 151 155 158 153 149 141 143 143 143 140 142 145 145 150 151 151 149 136 141 168 177 173 159 130 105 123 137 139 143 145 147 142 138 134 133 129 131 136 141 147 147 145 145 134 79 87 148 150 154 163 167 169 170 169 166 167 162 156 153 155 158 160 155 157 150 133 141 162 174 174 152 128 105 118 138 148 151 158 154 149 151 154 158 158 156 156 156 159 156 148 143 133 79 89 147 150 156 167 173 178 185 185 184 182 174 162 155 163 169 161 154 159 146 134 136 161 174 168 152 125 109 110 132 148 152 161 166 168 159 165 172 176 175 173 168 164 158 151 146 137 80 87 147 150 161 169 175 184 196 196 190 184 175 168 172 177 179 162 151 155 140 131 137 161 177 170 146 125 111 110 127 141 145 170 174 175 168 171 174 176 180 180 174 163 156 153 146 138 79 87 147 153 163 172 179 187 193 195 194 186 174 178 182 180 179 162 150 148 138 133 138 163 170 165 144 124 114 106 125 134 136 160 177 181 179 173 173 175 186 187 174 165 157 153 142 134 79 83 140 153 162 167 179 185 193 192 192 184 185 186 191 183 175 163 150 145 135 137 140 155 164 164 143 129 124 109 120 125 137 157 177 183 184 179 178 182 185 179 177 163 155 147 137 130 78 86 142 152 159 165 174 182 185 194 189 186 195 193 191 186 172 160 144 134 128 138 142 160 165 161 148 139 132 119 115 119 137 158 174 180 185 180 180 182 176 173 172 157 153 141 134 129 76 84 141 147 153 162 171 182 184 190 190 189 186 192 192 180 169 149 132 127 130 140 147 165 168 164 155 142 133 124 112 115 126 151 164 174 180 180 183 183 178 174 171 158 149 138 129 125 75 83 138 141 148 155 165 179 185 188 190 186 185 184 182 172 157 134 130 129 136 144 157 179 173 173 168 150 132 125 118 113 119 135 157 167 176 174 181 177 173 173 167 158 146 135 127 126 74 80 136 140 146 149 162 169 179 185 186 189 179 179 170 162 152 138 134 134 138 144 155 184 165 170 177 154 129 121 120 119 118 121 135 158 168 177 180 173 169 168 161 154 142 132 125 121 72 75 131 134 136 145 155 167 176 180 182 179 176 171 169 160 150 139 137 131 130 132 137 146 149 148 143 125 110 110 109 120 117 127 139 142 153 158 164 162 164 162 157 149 136 129 121 112 70 73 126 132 136 146 156 162 172 174 175 173 166 161 160 154 147 134 121 107 95 97 109 118 121 120 112 98 83 72 84 101 110 127 136 143 143 152 157 157 153 160 152 140 128 126 119 115 64 67 118 125 131 141 154 162 168 171 172 168 159 156 158 150 145 136 107 69 49 49 68 88 84 80 79 65 43 46 53 79 111 123 135 139 142 144 146 151 151 157 148 138 127 122 118 109 58 63 111 126 131 140 148 160 167 165 164 159 155 156 153 143 140 129 124 100 105 115 97 74 58 55 66 78 100 106 88 100 122 125 127 130 136 139 142 147 148 149 144 130 120 118 111 103 59 60 101 117 132 136 143 154 163 162 163 159 153 141 132 134 127 118 123 114 101 95 90 93 73 70 84 74 76 92 90 105 102 103 111 117 125 130 134 139 140 138 137 128 118 105 103 100 53 53 90 111 124 134 140 150 155 155 156 155 142 121 121 124 110 111 95 87 66 71 81 84 96 103 84 75 70 69 81 86 92 92 103 107 108 116 125 131 131 130 127 127 119 108 105 92 50 46 88 97 114 128 137 147 146 148 155 144 121 107 103 102 105 98 83 79 69 71 75 86 77 71 76 78 76 69 78 79 82 86 87 93 99 103 107 117 129 125 123 124 119 111 105 85 49 42 85 98 107 124 128 143 142 148 137 123 106 93 96 92 93 88 74 68 66 61 67 83 71 61 69 71 62 65 69 65 73 76 78 83 86 86 94 102 120 121 117 118 115 105 95 75 42 40 75 91 100 110 122 135 142 141 121 97 96 88 86 88 78 77 62 59 59 57 65 79 60 60 60 73 67 61 65 62 58 73 75 71 73 80 79 91 100 114 112 114 115 102 89 75 41 38 66 88 105 111 127 135 140 130 101 88 102 78 78 75 72 66 69 61 62 63 65 80 63 56 66 75 72 56 56 62 62 71 64 64 60 70 71 79 93 107 110 111 110 92 86 65 34 38 67 80 99 100 121 128 132 113 88 82 80 72 70 67 72 78 85 93 91 86 87 103 116 106 107 89 78 73 71 67 59 69 63 63 54 59 69 65 79 94 102 103 102 94 76 58 30 34 65 70 91 97 109 121 113 90 85 66 66 66 60 76 91 94 82 77 73 71 70 74 85 81 68 62 61 61 64 65 65 73 75 66 51 50 66 65 64 79 100 106 95 84 72 54 30 32 63 65 82 87 98 110 100 81 70 62 57 55 61 64 66 68 69 68 76 76 73 69 64 59 58 59 57 56 51 49 48 53 54 50 43 45 50 55 61 68 96 101 92 75 58 52 31 39 60 65 72 81 89 113 88 79 70 61 62 63 89 96 107 118 126 134 146 149 144 141 138 139 139 138 135 126 106 92 89 86 88 80 65 55 55 50 64 67 84 92 82 66 49 52 30 37 56 59 71 78 79 93 86 82 78 87 75 100 117 135 143 143 144 140 145 148 148 148 149 149 146 144 137 127 125 121 123 123 118 104 78 72 70 58 67 73 80 77 67 55 47 46 31 34 53 63 67 70 82 83 87 97 87 74 80 111 129 134 139 133 136 129 125 122 116 111 118 112 114 113 115 117 119 124 126 125 124 114 92 76 83 74 70 75 77 73 62 52 47 42 29 32 54 59 61 64 72 83 84 80 65 63 93 117 122 130 137 131 128 113 110 108 90 83 89 88 88 99 103 114 116 122 117 116 116 113 103 84 79 77 77 78 68 63 64 52 51 41 24 34 56 51 58 66 69 73 72 65 58 80 108 112 113 118 128 115 110 96 101 94 75 71 76 75 71 80 91 93 112 102 110 109 107 105 99 85 77 71 76 72 64 51 54 52 42 43 24 34 57 52 56 66 65 75 65 63 73 107 108 104 99 110 114 108 102 92 98 87 73 63 62 69 70 83 86 80 96 94 97 105 105 102 98 84 76 65 71 65 60 54 50 46 45 41 24 35 53 48 53 58 66 73 73 72 87 93 95 94 99 103 103 99 92 91 91 83 78 65 66 59 67 75 82 80 84 84 92 95 96 95 97 82 71 67 63 60 50 51 48 39 38 42 26 30 52 52 53 56 59 70 70 73 81 85 79 89 99 97 100 88 96 88 83 66 76 76 62 63 65 70 68 74 78 79 89 93 88 90 80 78 66 60 63 57 48 51 39 35 35 39 26 33 55 47 52 58 54 59 70 74 84 81 77 91 100 98 91 92 94 78 74 68 77 73 58 60 61 68 66 74 73 87 86 90 96 80 82 68 72 52 56 56 48 47 42 35 35 40 26 38 52 53 48 54 52 55 63 70 77 79 75 85 97 99 96 91 92 86 74 73 73 68 63 61 65 72 72 74 79 86 80 87 90 70 70 59 69 54 55 53 47 42 40 38 36 39 27 41 59 53 47 51 53 52 59 61 73 75 76 79 89 99 95 88 93 91 76 70 67 67 71 67 70 74 83 80 77 80 86 85 80 67 66 60 62 52 47 46 46 41 39 41 41 45 30 44 65 54 48 49 55 52 52 72 67 64 72 80 81 94 95 82 82 95 81 72 70 70 77 81 80 81 81 89 75 75 81 83 78 70 63 55 54 42 47 41 48 39 40 45 44 49 31 63 66 53 49 45 52 51 55 65 58 62 64 77 79 87 93 83 72 87 80 71 75 68 78 85 80 82 82 87 78 70 73 85 68 68 61 48 50 42 46 38 44 37 41 44 46 54 35 61 64 57 55 49 53 55 60 50 49 61 55 72 76 77 84 82 73 87 76 69 72 67 81 78 76 78 82 93 79 71 64 75 68 58 46 46 42 40 39 37 39 39 47 46 50 69 45 73 73 73 69 60 61 59 59 45 48 55 46 57 69 65 73 81 73 76 86 79 77 65 81 66 76 83 74 96 75 62 54 58 65 49 42 45 41 37 33 37 41 44 54 58 70 83 51 86 109 84 86 67 55 57 51 44 44 49 48 53 56 56 59 75 64 70 80 75 71 68 71 65 72 85 75 91 67 49 46 51 55 48 42 37 37 38 36 35 40 51 64 77 94 94 54 56 82 58 63 47 38 35 33 27 26 32 32 29 32 31 30 44 40 40 47 41 44 44 37 40 44 47 46 50 36 26 27 27 31 25 25 22 25 26 23 23 29 37 51 58 63 61 33 