P2
48
60
255
42 72 86 85 79 83 84 81 85 87 88 90 93 95 93 91 89 90 91 87 89 92 89 88 89 88 88 86 84 85 85 84 88 88 86 86 82 78 76 75 73 75 73 70 61 62 66 41 70 119 138 138 134 134 133 133 134 138 141 144 151 151 151 150 149 148 144 141 143 145 142 142 142 140 141 140 140 142 141 142 143 143 142 138 132 128 123 118 119 124 122 113 103 99 101 66 69 118 132 136 138 136 132 131 134 137 144 147 152 153 152 149 146 144 139 141 142 142 140 139 142 140 141 142 142 143 146 146 144 142 138 137 130 126 121 117 120 123 117 108 102 101 103 68 71 118 123 133 136 134 133 129 135 138 145 151 153 152 155 151 150 147 139 141 141 140 140 142 141 142 140 140 141 145 145 145 144 142 138 136 128 122 118 118 115 119 116 109 100 100 103 69 72 117 119 129 136 135 135 133 135 138 144 151 154 156 156 152 151 148 146 145 141 139 141 144 143 143 141 143 140 144 143 144 143 137 135 132 127 121 120 125 121 118 116 107 101 100 104 68 72 116 120 125 132 137 137 130 134 136 137 143 154 154 155 152 153 150 146 147 140 142 145 145 142 141 141 142 143 146 143 142 141 137 131 128 127 123 124 130 127 122 113 109 106 101 103 68 71 114 121 124 133 137 134 132 131 126 129 138 151 145 150 147 148 142 144 144 139 140 142 144 142 141 140 141 140 141 141 138 135 132 128 122 128 129 129 128 124 120 112 108 106 100 101 66 70 113 119 127 134 130 132 129 125 120 127 133 133 136 137 138 138 131 133 136 138 135 143 144 140 133 133 130 130 131 131 130 127 122 119 122 128 130 127 125 121 117 112 107 105 103 100 62 72 117 122 127 130 127 127 124 120 117 120 115 113 118 120 123 126 124 127 128 131 130 140 138 134 122 122 126 124 117 118 113 110 107 112 116 118 119 117 116 115 115 110 107 104 104 101 62 70 115 117 119 123 115 117 115 106 95 84 83 79 86 93 102 110 112 120 125 128 132 141 136 132 116 115 115 112 105 97 87 84 88 87 88 95 106 116 117 113 111 107 103 104 103 102 64 72 116 116 114 115 106 105 97 81 69 61 60 59 68 81 91 97 104 116 121 126 130 135 135 128 116 104 102 97 93 87 76 66 59 60 62 71 86 100 106 105 103 101 105 105 104 104 63 72 110 108 108 108 103 97 85 79 75 69 65 64 66 70 75 83 96 105 109 120 125 137 137 131 114 101 91 93 86 76 67 59 57 58 58 63 76 80 89 95 99 94 102 103 103 102 63 73 107 110 111 107 106 105 103 105 116 115 111 104 102 89 74 73 85 95 103 114 128 140 139 133 114 99 92 85 77 73 74 76 81 87 88 87 89 97 89 87 91 95 99 101 104 102 65 68 110 114 118 120 119 115 118 130 131 122 109 95 90 101 102 92 90 96 103 117 129 145 142 133 115 102 90 87 84 81 81 65 69 91 106 115 119 109 105 96 90 98 105 104 104 105 63 70 113 117 118 115 112 110 111 126 123 122 122 115 102 79 98 99 101 103 112 120 132 149 151 142 121 105 100 94 87 82 68 82 115 125 112 105 103 99 97 100 101 102 108 107 106 105 64 70 115 113 108 108 100 99 94 74 61 56 57 81 104 97 81 82 93 106 118 120 133 146 152 141 123 108 103 90 79 73 78 97 93 52 52 48 56 70 74 96 112 108 113 110 106 105 63 71 116 111 111 104 77 67 59 69 55 39 35 61 69 83 98 88 88 102 121 120 126 143 146 140 124 105 101 82 75 81 76 67 56 31 34 55 71 58 56 58 91 112 109 108 105 105 65 75 112 108 113 90 69 70 98 107 79 59 60 89 117 76 82 106 109 107 124 118 121 136 138 134 119 106 106 89 84 81 94 113 111 100 102 107 111 108 90 71 83 90 98 101 102 106 66 69 110 102 98 82 99 112 123 134 121 121 113 118 116 106 109 111 116 119 126 113 119 132 137 130 114 102 111 105 102 105 121 129 125 123 127 128 127 121 118 101 77 85 95 98 102 104 63 71 111 97 97 115 120 126 134 139 138 132 129 127 122 116 118 128 124 133 126 111 119 133 138 133 118 98 108 111 106 102 104 111 120 127 134 134 131 118 109 109 108 116 116 113 108 107 64 76 121 122 117 120 119 128 131 133 136 124 118 108 102 111 122 121 137 141 120 111 115 132 135 132 123 99 103 112 117 121 109 108 100 96 97 97 100 112 126 133 129 134 117 107 111 104 64 79 127 128 125 116 114 102 96 97 94 91 94 107 116 121 126 135 137 130 118 110 114 130 138 134 120 96 100 114 118 126 129 132 130 127 127 127 124 124 131 131 133 134 132 119 114 109 65 81 133 140 140 137 142 142 137 136 135 136 138 143 139 137 137 132 135 126 114 110 113 126 141 136 120 96 95 110 117 124 130 134 138 145 151 149 148 150 148 142 131 129 137 130 120 111 65 83 141 146 148 148 146 156 158 159 160 154 148 141 142 144 137 135 136 123 112 110 113 127 139 133 119 101 96 105 115 120 129 134 136 138 143 147 150 150 149 146 139 135 136 139 122 109 62 83 144 147 152 150 155 157 157 154 156 148 140 143 146 146 143 141 131 116 108 111 112 126 137 131 120 104 97 99 111 115 127 137 139 141 142 141 144 148 144 140 140 139 135 137 124 105 59 84 142 147 145 153 155 156 154 151 146 147 147 149 151 152 148 138 126 109 108 109 112 123 130 131 124 106 95 90 101 116 128 141 141 143 145 142 138 140 137 142 139 139 137 130 120 105 62 82 138 143 147 156 158 154 151 147 145 149 151 152 156 152 140 124 107 102 108 108 112 140 138 135 124 105 96 86 86 100 126 141 144 145 146 145 140 143 138 137 135 135 133 124 115 103 61 82 139 143 150 151 152 147 149 147 153 153 158 161 156 142 119 98 98 109 108 108 118 143 132 132 124 98 95 93 82 81 104 132 142 147 145 149 145 144 141 136 126 131 127 118 109 101 61 78 132 137 143 144 145 146 147 154 156 160 162 160 149 130 95 90 113 113 110 106 106 117 118 108 103 93 94 99 98 72 84 115 137 145 145 148 145 150 143 138 123 122 121 113 105 98 60 72 124 130 136 137 137 146 148 151 154 158 158 150 130 100 87 111 110 104 100 99 96 98 99 94 87 87 89 91 96 85 70 94 125 139 144 145 142 138 133 126 116 113 113 110 100 96 58 70 118 124 126 128 128 137 142 144 149 149 142 132 108 79 99 107 93 67 48 75 92 88 84 80 79 70 48 70 87 93 75 76 107 125 134 135 132 130 123 117 109 106 108 106 100 92 57 70 113 117 118 121 123 130 133 139 139 134 132 114 79 75 101 92 71 37 37 56 64 77 72 72 61 47 36 53 79 96 95 67 87 115 128 133 125 122 116 109 102 100 101 101 98 94 59 68 109 111 111 114 117 124 130 132 132 126 119 92 61 96 114 100 64 65 92 94 76 66 63 69 83 84 68 63 89 101 100 75 71 100 118 119 120 114 109 106 100 98 96 96 95 93 59 67 108 109 106 111 112 120 124 128 127 120 104 74 72 110 116 114 105 104 103 96 90 69 68 79 88 93 94 98 101 105 102 87 63 83 107 113 111 112 105 103 97 96 94 93 94 94 60 67 107 107 103 105 110 114 120 122 119 113 90 66 104 122 119 115 111 108 105 101 97 82 90 93 98 98 98 96 104 104 106 97 68 73 97 110 108 104 104 99 95 96 94 94 92 93 60 65 107 105 104 105 107 112 115 117 113 102 79 85 121 128 124 118 114 117 120 116 105 95 102 115 112 105 103 100 102 104 104 107 86 66 87 104 105 103 103 98 95 94 93 95 94 96 60 63 109 104 105 103 104 108 112 117 109 96 82 112 122 127 124 120 124 126 129 119 110 112 110 117 122 120 111 104 101 100 103 108 102 71 79 96 103 101 100 98 96 94 93 96 95 96 61 66 106 106 107 104 104 106 110 114 105 89 97 121 120 126 123 125 128 131 131 128 130 135 132 133 130 126 114 108 107 100 99 101 105 90 77 92 102 102 100 96 96 95 93 95 96 96 62 67 108 107 109 106 107 107 110 110 99 92 115 118 118 122 122 129 130 132 131 127 129 130 125 128 125 120 121 116 109 100 100 101 98 99 84 89 100 104 100 97 96 95 96 96 97 97 60 67 109 106 106 107 107 109 111 108 96 103 115 116 113 120 117 121 112 103 97 96 101 110 104 97 92 93 95 97 96 96 98 98 98 101 94 89 100 104 98 97 97 96 98 97 98 98 61 65 109 104 104 108 108 107 112 107 99 115 116 108 104 101 94 88 86 84 81 78 78 82 77 72 75 74 71 71 74 84 89 90 97 104 101 90 99 105 101 99 99 96 98 97 97 98 62 67 109 108 106 109 107 111 114 106 105 120 115 99 97 83 77 70 53 46 47 65 62 61 51 54 57 43 42 49 59 63 71 82 94 105 104 99 103 108 105 102 100 97 98 97 98 99 63 66 108 110 108 110 109 111 116 110 110 117 107 97 89 68 54 33 34 50 59 83 62 50 31 55 75 48 43 43 52 53 46 61 85 105 108 111 113 111 106 101 100 98 97 97 96 100 62 68 108 109 109 110 111 110 114 110 111 114 99 86 65 43 35 37 49 44 32 29 34 36 41 52 57 87 105 101 88 78 70 53 57 93 105 116 126 115 107 100 98 97 97 95 95 99 64 66 106 108 109 109 108 109 115 118 114 108 89 68 58 69 82 96 107 107 98 95 94 82 94 106 112 118 109 88 85 85 90 95 72 83 106 121 131 118 108 101 98 97 95 94 94 99 78 66 104 107 107 109 108 109 117 127 118 108 92 86 103 101 94 90 95 112 113 118 117 118 121 114 113 105 90 86 84 88 104 115 104 99 112 124 125 118 108 100 96 96 92 95 94 98 96 66 105 105 107 107 111 109 117 126 127 109 100 107 123 110 95 89 88 92 97 96 94 102 96 94 92 83 77 78 88 105 127 125 109 108 114 125 125 116 106 95 92 93 92 94 94 101 110 65 103 104 103 106 106 106 113 126 130 114 110 122 134 128 109 95 90 85 86 88 86 90 87 80 74 69 75 88 101 121 132 124 110 108 111 123 122 113 100 94 93 93 94 95 95 103 119 64 103 101 103 104 106 103 110 123 125 115 116 122 130 132 123 106 95 80 71 66 59 56 60 57 62 75 91 99 115 129 133 126 114 111 110 113 115 106 96 95 93 91 94 94 95 104 123 64 104 103 105 102 102 104 107 119 116 112 115 121 128 131 127 122 110 99 87 72 66 66 78 85 90 96 103 110 124 132 127 123 121 113 108 108 108 101 95 94 93 93 94 92 96 109 125 64 104 102 103 103 103 103 105 110 107 110 120 124 126 130 127 124 119 115 113 110 106 98 97 97 100 109 116 114 120 126 126 126 121 111 106 102 102 96 93 92 93 95 91 90 95 110 126 61 102 101 100 105 104 104 103 104 105 109 118 123 123 129 133 128 123 119 117 113 109 108 108 112 123 128 135 135 133 137 130 126 118 110 101 97 97 92 92 94 94 93 91 95 95 108 126 65 100 98 104 106 105 103 103 102 102 107 114 120 127 132 132 134 133 134 132 135 133 131 134 131 129 132 133 135 136 135 126 122 117 105 98 95 93 92 92 94 94 92 91 93 93 111 127 66 103 99 101 105 107 107 106 101 100 104 112 118 127 132 138 139 136 136 138 137 134 132 135 133 133 126 129 130 129 130 122 116 109 99 93 90 89 91 92 92 96 90 91 93 93 108 127 66 106 100 100 99 107 109 106 104 102 106 106 113 124 131 135 139 135 133 132 135 137 133 135 135 135 128 131 127 128 125 118 113 103 95 91 88 88 91 92 95 94 90 91 93 91 111 127 65 109 109 100 98 104 109 109 104 104 104 107 110 116 124 132 134 133 134 134 136 136 132 132 131 131 128 127 123 121 118 110 104 98 93 91 88 90 91 94 95 91 93 95 92 92 115 128 67 109 109 107 101 100 108 110 105 104 105 106 106 113 118 125 124 125 127 127 130 131 133 131 126 121 119 118 116 111 109 103 95 94 94 93 91 92 93 96 93 92 95 95 92 93 118 128 68 109 111 109 104 103 104 109 107 105 103 106 107 108 114 119 119 119 117 122 122 121 120 115 115 109 109 103 103 99 99 96 94 93 95 94 91 93 95 95 94 94 95 95 95 94 117 127 67 109 108 109 110 106 102 108 110 104 104 108 108 107 108 108 112 108 109 111 110 112 109 109 110 101 100 98 90 89 96 93 92 94 97 90 92 95 95 95 95 94 93 95 97 92 120 128 42 68 67 68 68 67 64 65 67 64 62 66 66 65 64 63 65 64 62 64 61 60 62 63 63 61 59 56 54 56 57 57 59 59 58 56 56 58 57 59 58 59 59 59 59 56 76 79 