P2
48
60
255
37 65 72 75 79 79 84 85 85 87 91 91 93 92 94 93 93 95 97 97 97 102 105 103 103 105 106 103 97 94 95 93 89 89 89 85 81 81 81 80 76 75 70 65 58 57 61 37 59 103 114 120 125 130 132 137 139 145 150 149 148 148 152 152 157 159 158 160 162 164 167 167 171 170 166 167 159 153 155 154 149 144 146 142 136 134 130 129 124 122 115 104 95 91 99 60 59 102 115 120 124 132 133 136 142 145 146 145 147 149 156 163 164 165 163 167 163 159 168 170 171 173 169 170 170 164 159 157 157 154 150 146 138 138 134 130 124 123 117 106 95 89 90 58 60 101 113 119 130 133 136 137 143 144 147 149 150 155 161 172 178 173 174 182 175 170 170 178 179 179 174 176 178 175 164 163 154 154 154 150 139 142 140 133 127 123 120 109 94 88 87 54 58 100 110 122 128 130 142 143 147 146 152 154 152 153 163 177 186 188 189 200 200 190 181 180 180 186 188 187 183 176 163 163 157 154 155 152 144 141 139 136 128 123 120 110 94 87 86 54 57 99 110 116 121 130 141 142 148 142 146 145 139 141 153 168 178 190 200 209 207 197 191 196 196 197 189 186 175 171 162 161 149 148 148 148 146 144 138 131 127 117 114 108 93 83 84 53 56 98 96 98 108 117 123 118 113 107 104 108 106 107 125 151 161 175 189 200 201 196 196 189 191 195 185 168 143 151 149 127 117 118 127 129 129 133 135 129 121 110 104 104 95 83 83 53 53 79 75 88 100 101 95 84 88 97 81 90 97 104 113 122 144 164 175 185 191 185 182 176 179 179 163 148 127 134 126 110 90 82 82 82 90 94 92 98 113 101 92 88 91 79 80 52 43 66 81 107 102 99 96 90 86 83 93 98 114 119 121 131 139 142 160 174 181 170 172 172 169 165 162 146 129 124 121 105 97 87 82 78 76 78 82 87 91 95 89 85 83 74 80 53 44 87 102 113 131 136 145 153 141 130 129 140 146 144 140 141 141 143 153 163 164 172 176 173 164 159 153 145 136 130 133 130 126 115 100 96 104 120 134 136 114 95 93 88 82 68 72 52 51 99 109 129 143 149 158 167 171 164 172 172 163 153 145 141 136 138 147 154 160 170 174 175 164 154 146 140 132 133 140 145 152 150 149 153 163 163 161 149 139 131 121 107 93 71 61 49 61 102 114 133 139 156 161 173 178 181 184 176 167 167 158 145 136 133 139 144 155 162 175 175 160 149 140 135 131 139 148 153 164 167 171 173 180 173 162 156 146 133 131 116 111 97 68 39 64 109 119 132 144 151 153 151 146 145 141 138 135 150 157 152 144 134 128 134 150 159 169 170 155 142 129 127 131 144 152 157 159 162 157 160 167 160 158 156 145 140 133 127 110 98 84 40 66 115 123 129 128 119 123 126 127 129 122 111 102 108 114 133 140 134 126 125 135 150 165 165 147 129 120 121 138 153 154 146 128 116 117 124 128 131 125 129 132 136 130 128 117 106 91 49 69 114 119 113 102 107 110 90 69 52 60 54 70 98 107 115 128 137 124 120 121 138 154 157 139 123 109 125 134 139 130 110 107 105 97 88 89 98 107 111 108 110 116 124 117 111 101 58 74 117 116 103 85 76 65 63 53 43 93 52 83 172 137 115 121 136 123 121 113 129 145 147 133 119 108 119 129 128 119 111 105 115 77 51 72 42 49 61 81 96 99 110 116 112 109 66 79 122 117 96 69 61 93 120 71 54 51 70 106 157 139 120 122 131 129 121 109 119 133 137 126 113 107 115 123 125 117 112 143 175 116 65 44 45 57 89 73 64 85 104 110 113 116 71 83 126 106 91 83 91 102 112 102 95 107 132 132 144 147 168 174 157 123 119 109 117 133 131 121 110 106 115 121 144 146 140 128 127 120 100 119 79 81 109 92 74 67 95 110 115 119 76 85 129 121 118 114 109 111 111 114 127 131 142 153 156 156 167 167 137 123 112 108 116 130 132 123 111 102 116 118 134 163 168 161 149 152 144 137 130 110 101 101 108 104 97 104 110 120 80 86 135 129 127 124 129 138 149 151 166 163 156 157 158 160 157 141 128 122 109 108 114 127 134 126 109 100 112 114 120 133 146 154 153 154 161 166 154 148 133 135 132 130 121 114 112 118 78 87 132 131 134 137 138 145 152 160 164 170 177 179 175 161 140 130 125 113 108 106 112 125 126 119 109 102 106 117 119 126 138 162 163 159 165 169 163 157 151 146 141 139 127 121 117 119 77 86 134 134 139 142 153 161 169 176 176 177 182 179 164 145 137 125 121 111 107 105 114 121 119 116 104 102 100 111 120 126 133 139 159 172 172 177 169 163 160 150 152 148 140 137 128 120 75 84 136 138 142 147 154 159 165 171 171 169 164 152 148 142 130 121 115 110 105 103 114 124 123 116 102 98 100 103 114 125 129 137 142 146 152 162 160 160 159 158 155 149 137 140 135 126 76 82 138 142 145 154 159 161 160 160 155 145 142 143 143 137 125 117 117 108 103 107 114 118 117 114 107 97 99 105 110 118 123 131 135 140 135 140 144 150 154 151 152 146 141 144 143 138 81 85 141 146 149 156 158 152 152 148 147 145 143 141 138 133 129 123 117 106 106 112 119 125 123 116 109 101 95 105 119 124 127 127 129 133 137 138 134 134 140 143 143 142 141 141 139 138 79 87 145 146 155 154 150 148 153 150 145 144 145 143 144 147 138 121 109 102 109 115 120 127 126 121 114 109 97 97 115 128 141 146 138 136 139 142 143 140 138 136 136 136 139 141 141 138 81 83 136 140 145 147 146 149 151 154 153 156 160 162 160 151 125 111 102 109 120 124 129 130 130 121 112 111 104 91 103 119 132 153 164 161 153 148 148 143 141 141 133 137 135 132 130 133 81 80 134 142 143 144 150 152 155 157 165 169 168 171 159 135 110 104 102 113 124 132 139 146 144 135 120 111 106 96 92 100 111 138 162 177 174 165 154 150 149 146 141 138 133 129 126 125 77 78 131 138 141 144 150 154 160 166 167 172 169 163 151 119 107 102 107 120 130 140 155 189 191 162 134 118 112 103 91 99 100 122 155 169 178 184 173 162 160 153 144 141 134 129 126 120 75 77 130 133 138 149 157 162 166 168 168 172 168 160 144 116 106 104 109 118 125 139 160 178 179 172 143 123 116 106 92 99 96 123 159 167 173 175 177 169 161 151 147 141 138 130 120 118 72 76 131 135 139 147 157 158 164 169 169 174 172 166 158 124 108 110 111 113 115 131 144 143 137 141 132 113 108 102 98 100 98 139 167 169 173 177 184 174 166 157 149 141 136 132 124 118 72 76 126 135 140 147 152 153 164 166 168 170 176 168 158 130 104 106 102 97 102 120 126 124 126 131 124 105 96 96 97 96 103 137 157 169 175 174 188 182 163 157 148 143 139 137 128 121 71 76 126 135 144 147 148 155 159 158 169 172 169 163 149 135 113 101 96 101 93 97 113 114 117 120 108 83 86 83 89 98 122 132 150 168 176 177 179 175 167 156 150 146 141 137 129 120 71 75 127 133 141 144 149 154 155 159 167 169 162 151 142 130 121 117 115 113 116 111 100 96 97 93 93 113 107 107 110 117 122 127 141 160 174 172 176 176 159 152 151 143 139 134 126 120 70 77 125 129 133 139 145 151 151 158 160 158 154 144 136 125 119 114 115 119 117 121 126 132 129 125 127 123 114 115 109 111 117 121 133 155 168 169 175 173 158 151 145 143 138 132 127 118 71 73 125 130 134 136 140 146 151 155 154 141 142 136 127 120 117 115 111 114 125 127 124 128 126 130 135 128 128 119 112 105 105 111 124 143 152 156 168 168 154 146 143 140 134 130 127 119 71 71 123 128 135 133 139 143 147 146 143 136 128 123 112 109 111 111 119 116 124 136 142 152 148 153 138 136 132 121 113 102 103 106 109 134 136 136 141 161 148 141 139 136 134 130 126 120 71 69 122 127 129 135 137 141 141 138 131 127 124 109 101 104 107 112 117 120 126 143 167 167 157 148 149 144 135 128 120 106 106 103 99 118 129 128 132 141 139 136 134 132 131 130 124 121 70 67 119 123 129 128 133 135 132 131 126 120 116 108 99 104 110 113 119 132 137 151 149 142 147 137 144 144 133 126 120 111 106 104 95 102 117 125 133 141 141 132 133 129 126 127 121 120 69 64 115 122 127 126 131 129 123 123 121 116 107 104 98 104 114 118 125 128 131 135 137 134 139 137 141 137 129 121 113 112 110 108 105 103 116 121 124 125 135 130 131 128 126 123 120 117 69 65 113 120 122 126 132 124 120 122 121 115 106 101 100 103 103 106 108 106 109 118 127 139 156 149 136 125 110 102 105 104 105 105 103 102 105 107 115 127 137 127 130 128 124 121 118 115 69 64 108 114 120 127 132 120 119 118 111 102 99 80 74 75 76 81 83 88 93 99 104 108 111 108 107 99 97 93 90 83 78 75 77 77 78 93 99 112 126 129 129 127 125 127 118 114 67 61 105 111 115 129 135 129 124 117 116 121 127 102 83 81 83 85 88 90 91 91 90 90 94 94 97 100 96 88 88 83 79 78 75 78 99 118 119 117 130 137 138 135 130 124 117 111 67 61 102 105 112 125 138 140 139 135 130 136 132 116 96 83 85 90 100 108 113 118 115 112 111 114 116 117 113 104 93 93 88 87 86 93 114 133 134 135 138 147 146 135 130 125 116 108 67 60 102 103 111 122 134 145 154 142 132 141 135 121 105 94 84 83 91 101 114 119 124 123 120 114 118 119 113 103 97 88 88 91 98 108 123 135 141 148 144 145 145 137 128 119 113 108 67 58 102 104 108 114 129 140 150 144 139 137 135 125 114 105 102 97 90 94 101 112 126 134 132 142 138 121 104 98 98 103 106 107 107 115 124 129 136 142 144 144 143 135 125 116 111 106 66 53 99 102 105 115 129 139 140 141 136 139 133 124 122 117 111 115 115 116 115 119 124 134 135 131 128 126 120 122 122 120 115 117 119 129 128 132 134 132 132 139 141 133 121 111 106 105 66 48 90 98 102 110 123 135 136 135 129 131 126 125 121 124 119 117 116 118 121 122 125 124 125 125 128 129 130 125 123 122 122 124 125 133 130 129 128 126 123 130 131 123 122 113 108 106 63 40 82 91 98 101 116 129 130 126 127 125 120 120 125 129 123 123 121 119 117 118 112 115 115 117 112 113 123 119 124 129 125 127 130 128 125 125 128 119 122 122 122 126 120 111 109 102 60 37 70 86 92 99 110 118 123 124 126 119 117 117 119 128 129 130 127 125 126 125 115 108 109 113 118 120 121 129 132 134 135 131 127 125 122 119 116 114 118 117 118 117 110 108 106 99 57 47 57 74 85 97 106 113 113 117 115 112 116 117 116 120 127 131 135 129 134 128 120 120 117 117 124 129 138 140 141 138 135 126 127 125 117 110 109 111 107 112 115 113 108 107 102 95 53 51 70 58 75 89 97 106 106 106 109 110 111 109 112 117 127 133 137 138 140 141 136 135 136 132 132 137 142 143 142 144 136 121 122 118 110 109 108 110 103 102 109 110 103 103 94 87 49 53 82 63 61 78 89 97 104 104 103 105 107 106 104 110 121 125 129 138 136 141 138 141 145 147 143 144 143 140 140 133 126 119 114 113 107 109 105 104 98 101 98 101 96 91 89 80 44 53 86 87 57 64 79 88 92 100 98 101 104 103 104 111 115 122 127 130 130 138 138 143 141 139 139 136 140 142 132 127 120 119 111 111 108 104 101 101 95 95 95 90 92 86 84 71 32 53 91 91 83 52 65 79 85 92 95 94 97 98 100 106 109 117 130 132 130 141 143 149 142 146 139 140 140 137 127 123 115 112 104 106 104 98 98 95 90 90 94 87 85 82 72 52 29 52 93 94 92 79 52 65 77 84 90 89 93 95 100 106 108 114 122 126 135 144 141 151 153 153 155 155 149 140 129 124 116 109 104 102 103 99 95 90 86 88 88 82 79 72 56 49 47 54 97 98 96 91 75 53 65 76 81 85 89 93 99 102 105 109 124 128 133 140 153 156 149 159 167 161 154 139 127 121 108 104 102 99 100 92 87 81 84 86 82 79 71 57 51 79 60 55 101 100 100 97 90 69 53 64 74 79 83 88 92 95 104 110 118 131 131 139 154 157 150 157 154 155 155 136 128 113 105 105 97 95 92 86 79 77 78 80 76 74 61 51 78 95 60 57 100 106 102 100 95 86 66 52 62 72 76 81 88 93 100 104 109 122 126 134 145 146 147 145 137 138 134 128 122 109 107 103 96 91 86 81 75 75 76 73 71 58 54 73 91 98 61 34 63 65 64 64 60 56 50 37 33 40 42 44 50 54 58 61 64 71 74 74 79 82 85 84 76 77 75 70 65 65 64 66 56 52 49 47 47 46 45 44 40 32 44 51 59 62 39 