P2
48
60
255
24 44 52 55 56 59 60 60 58 62 60 60 58 55 59 59 60 61 59 58 58 60 58 58 58 60 62 61 63 66 67 67 69 69 67 67 62 60 58 56 54 52 54 51 46 41 32 15 36 70 88 95 97 97 99 102 102 104 103 103 103 102 103 107 107 104 101 99 98 102 99 99 99 99 102 104 107 106 108 110 110 110 110 109 102 99 96 92 87 85 87 82 74 66 57 31 35 70 90 96 98 101 99 104 104 107 110 110 114 114 115 112 116 114 107 107 106 109 106 104 103 104 106 108 111 110 109 108 111 110 109 107 101 99 97 93 88 86 87 83 71 63 56 31 34 69 87 96 98 101 98 103 106 109 114 114 120 122 123 121 122 120 115 113 110 111 107 109 110 110 111 112 111 110 111 112 113 113 111 108 104 99 97 95 90 88 87 80 72 59 52 31 34 68 85 94 98 100 102 104 107 107 113 117 123 125 126 125 123 120 114 114 112 115 113 112 110 112 114 114 112 113 113 114 115 115 111 108 103 100 98 96 92 89 87 79 71 59 50 31 32 65 83 92 98 100 101 104 107 108 113 117 122 125 124 122 116 114 112 113 111 112 113 115 114 114 115 114 111 112 111 115 115 113 109 106 104 101 96 95 94 91 85 77 71 56 46 30 29 67 84 92 96 99 104 105 107 108 111 115 117 117 115 116 110 111 112 110 111 108 111 114 115 115 113 109 106 105 107 109 109 108 108 105 104 102 98 97 95 93 83 77 69 59 43 28 30 73 83 90 95 100 101 106 109 109 111 109 108 108 107 109 108 107 108 108 109 107 113 113 112 110 109 106 104 103 103 100 99 102 102 104 104 102 98 95 93 90 83 77 70 65 48 25 36 80 84 89 92 92 95 102 110 108 105 105 101 97 98 101 104 104 103 103 103 104 107 111 108 104 103 103 101 99 97 95 94 95 97 101 102 101 97 91 87 84 82 77 71 69 59 28 46 81 82 87 82 74 72 78 83 85 85 89 86 82 79 86 95 100 100 100 104 103 104 106 104 101 97 98 96 94 92 89 81 78 77 76 76 80 79 75 69 63 70 76 72 71 71 39 50 83 81 76 70 80 94 99 95 90 80 73 62 56 49 57 74 91 94 97 102 102 102 105 103 102 95 94 92 90 85 66 51 48 49 54 61 76 87 90 83 74 72 73 71 72 75 45 52 84 72 73 90 102 109 112 106 98 89 81 73 67 57 50 60 77 86 93 98 103 105 106 103 101 94 89 85 82 68 51 51 53 61 70 78 92 100 101 96 88 82 76 72 72 75 49 52 81 78 87 95 99 105 108 103 93 91 74 62 56 55 55 62 71 80 91 97 106 108 105 104 101 94 87 74 71 59 54 51 54 64 74 81 91 95 98 97 91 83 77 74 73 76 48 51 84 85 88 96 101 102 99 89 72 53 38 34 38 45 42 50 65 81 92 101 110 113 108 107 104 97 88 76 59 43 36 40 38 33 35 45 55 73 86 87 86 82 77 75 74 75 47 52 85 86 90 95 95 89 65 42 26 22 22 31 49 44 48 45 53 75 92 102 115 118 112 112 108 97 85 67 41 37 44 44 37 37 23 40 27 37 51 70 80 79 76 76 76 75 46 55 88 86 90 89 80 55 38 40 34 73 26 70 70 80 53 56 55 67 87 98 110 116 112 113 110 96 79 66 52 46 48 76 49 73 24 52 33 50 45 46 64 76 75 78 81 78 46 56 89 88 88 80 57 46 62 61 35 28 26 39 79 93 65 68 77 84 85 95 103 113 112 110 105 88 76 73 66 55 54 85 58 35 26 32 41 69 69 56 58 67 73 76 81 82 48 57 92 91 87 78 66 70 78 82 49 41 40 53 96 94 73 79 79 89 86 93 101 106 106 104 96 83 73 72 68 63 72 77 81 68 56 63 74 77 83 77 74 70 77 82 87 85 51 59 97 98 95 88 89 91 96 93 72 66 69 81 85 84 82 78 80 83 83 91 96 101 100 99 91 80 73 71 76 70 78 88 86 73 84 84 93 95 94 92 90 81 89 96 87 91 53 61 100 103 102 97 95 103 104 106 86 85 89 96 98 96 89 80 84 84 84 88 95 99 99 96 88 81 74 74 77 72 82 90 99 102 106 108 106 106 102 97 89 84 88 98 97 93 54 60 100 105 104 99 98 107 113 111 108 106 107 108 100 92 88 86 88 84 86 88 94 94 97 96 87 82 77 73 80 77 81 86 91 93 92 92 91 90 91 96 95 94 95 97 98 95 53 61 101 105 107 102 98 98 102 107 106 102 95 97 98 96 93 92 88 83 86 90 96 97 94 92 86 80 79 76 81 85 83 86 95 99 100 100 102 102 105 102 101 100 100 101 97 94 55 60 99 105 109 108 106 102 98 96 96 96 100 103 98 97 95 94 87 85 84 88 97 98 98 91 85 80 81 80 83 86 91 93 93 97 102 103 103 102 100 100 103 100 99 97 95 91 55 58 99 105 107 108 110 109 101 101 102 103 103 103 100 100 98 94 88 86 82 88 95 99 96 88 82 80 80 82 84 88 95 102 101 101 103 105 105 104 104 103 104 99 94 92 91 90 53 58 99 102 106 108 109 104 106 108 109 109 108 107 107 105 100 94 93 87 85 90 97 98 96 87 81 80 79 79 82 90 98 106 108 109 103 105 106 109 108 108 104 101 93 90 87 87 52 59 97 98 102 105 110 110 111 113 113 110 111 109 111 111 104 96 91 86 86 90 97 99 97 89 82 79 77 78 75 83 99 106 110 111 110 109 107 107 107 107 106 100 93 90 87 83 50 58 95 96 100 103 108 109 113 112 111 112 114 115 113 112 99 88 86 85 86 93 96 96 96 92 86 79 74 71 71 75 88 100 109 111 114 114 113 110 108 107 105 96 91 87 85 80 50 56 93 93 98 102 105 110 111 111 112 116 117 113 110 102 85 83 83 84 86 95 99 96 96 94 95 87 75 74 76 75 75 90 99 106 113 114 113 114 112 108 105 95 90 84 83 80 49 57 90 91 96 100 105 108 111 114 116 116 115 108 97 88 77 84 84 85 89 95 106 99 102 101 100 88 77 76 77 77 65 75 89 99 107 107 113 115 114 111 106 98 89 85 82 80 49 57 92 91 96 100 106 110 111 113 116 115 108 98 88 75 74 88 88 86 88 98 114 105 102 107 105 90 78 77 79 77 64 60 73 87 97 102 106 109 110 108 105 100 92 86 82 79 49 56 92 91 96 98 103 107 110 112 111 107 96 88 76 67 79 89 89 87 86 92 100 96 93 94 90 83 79 77 76 76 74 64 60 76 87 94 99 104 105 103 100 95 91 86 83 79 49 56 93 92 96 98 102 105 105 107 102 97 87 77 66 75 87 86 74 73 86 88 92 91 88 83 81 76 66 51 64 80 80 76 62 66 80 89 94 97 99 98 96 91 87 84 81 78 48 55 92 91 93 96 99 101 103 100 97 90 78 67 61 80 91 90 68 64 81 88 89 86 84 82 80 70 68 68 78 79 77 75 73 64 75 83 89 93 95 94 91 86 86 83 81 78 48 55 91 91 92 93 96 98 99 98 91 83 72 60 67 85 88 91 90 87 86 88 86 80 77 80 78 79 80 79 79 79 78 77 76 72 71 80 84 87 90 90 89 83 84 83 80 78 47 56 90 90 92 91 93 95 95 92 87 79 69 64 82 86 88 89 88 89 91 91 90 82 79 78 81 80 79 79 78 82 81 81 74 78 78 78 80 85 86 88 88 85 82 80 78 77 47 56 90 89 89 90 92 93 93 90 84 76 68 75 86 87 90 91 89 91 91 92 93 97 102 99 92 89 87 85 82 84 85 86 82 81 82 79 79 82 85 88 87 85 81 80 78 77 47 56 91 89 87 89 90 90 91 87 81 72 75 85 88 89 88 88 90 91 94 98 99 102 105 104 99 97 89 89 89 87 86 85 81 81 82 81 78 79 82 84 85 83 80 79 77 79 49 55 90 89 86 90 89 90 88 83 76 74 80 88 87 89 90 88 91 93 93 98 100 104 103 100 95 95 91 87 89 84 84 86 79 77 80 81 80 78 80 85 85 83 80 79 79 80 48 55 91 90 88 89 88 90 87 82 75 78 85 85 83 84 90 85 86 85 83 85 88 90 93 88 83 77 73 72 74 73 76 80 75 71 72 78 80 80 83 87 88 84 82 79 80 80 49 55 90 91 89 87 88 90 85 80 75 79 83 81 82 85 79 71 69 68 71 70 73 73 72 70 68 60 58 60 57 59 58 60 67 64 58 67 75 84 88 90 87 84 81 79 80 80 49 55 91 92 92 88 88 91 90 86 79 79 78 74 78 74 61 61 68 71 91 68 112 93 69 89 112 83 94 99 84 91 61 47 31 36 45 62 73 91 95 98 90 85 82 80 82 81 49 56 91 93 94 91 88 92 93 94 84 80 76 70 61 42 39 72 103 104 121 101 129 131 107 128 125 106 114 108 101 99 80 64 37 50 49 63 87 99 106 100 92 86 83 82 83 80 49 56 90 93 94 94 91 92 96 102 97 85 82 64 59 52 44 78 97 95 112 105 117 119 112 115 113 98 99 87 73 87 68 60 60 69 73 74 94 110 108 101 91 87 83 84 84 80 50 60 91 94 95 94 91 92 95 105 107 99 90 85 88 79 71 71 76 73 69 66 67 66 56 57 57 54 61 66 74 76 68 64 67 74 84 87 101 111 106 98 89 84 83 83 83 82 50 77 94 93 94 94 92 92 95 102 108 106 99 100 94 89 80 76 75 80 83 82 82 78 74 73 79 81 83 84 82 73 67 69 75 79 86 93 101 107 106 96 87 83 83 83 83 80 50 136 122 94 95 95 94 93 94 100 108 107 104 103 98 92 87 87 80 83 93 100 91 85 86 85 83 84 90 91 82 79 76 76 79 82 85 94 99 104 102 94 86 82 82 82 83 83 50 145 185 96 94 95 94 94 95 98 104 107 103 101 98 94 91 93 95 97 95 97 93 86 84 85 84 81 84 86 86 86 82 81 77 82 87 92 97 99 100 91 83 81 81 83 84 84 52 145 228 122 96 96 93 93 95 96 102 103 101 101 99 97 93 93 96 99 98 94 89 84 80 83 81 79 84 89 91 90 87 87 84 84 88 90 95 98 96 87 81 82 81 83 85 85 57 145 235 186 98 95 94 93 94 95 99 101 98 98 101 99 96 96 96 99 99 100 96 95 95 93 92 92 95 97 97 96 94 92 85 88 90 89 92 94 91 86 79 82 82 84 85 87 58 145 235 229 129 94 93 94 93 94 99 100 96 98 101 101 98 99 100 103 106 105 103 101 102 97 97 100 104 105 105 105 101 95 91 90 89 87 88 89 89 86 82 82 83 85 84 90 51 146 236 236 204 102 96 95 94 94 97 97 95 98 101 102 100 102 104 108 111 111 110 106 105 103 107 109 109 109 108 106 100 96 95 90 86 86 85 86 86 84 83 84 84 86 85 88 50 146 235 236 234 145 97 97 94 92 94 96 96 96 97 99 101 103 106 109 113 112 115 113 112 109 109 107 109 109 108 104 99 95 94 89 85 84 83 83 83 83 83 84 86 86 88 81 56 146 236 237 235 164 101 95 95 93 92 94 94 94 97 96 101 106 107 111 112 117 118 115 114 111 110 108 111 109 109 106 103 97 92 87 83 82 82 82 83 84 83 85 87 86 87 78 60 145 236 237 237 170 98 98 96 95 95 94 93 93 94 94 97 105 107 112 115 117 118 117 114 114 110 110 110 107 108 103 100 99 91 84 80 80 81 83 85 86 85 86 87 89 81 79 66 146 237 237 237 166 92 100 97 95 96 95 95 93 91 90 93 100 109 110 112 116 110 109 109 107 107 104 102 101 98 99 97 93 86 81 79 81 84 84 86 87 87 87 87 83 81 78 74 147 237 237 236 170 92 97 99 95 95 95 95 95 92 91 91 98 103 108 106 104 102 101 101 102 103 101 100 98 94 96 94 87 82 80 81 85 85 85 84 86 88 88 87 81 81 79 78 147 238 237 237 174 94 96 98 97 94 93 91 94 95 91 92 95 101 102 100 98 96 98 97 100 98 96 95 94 92 92 89 84 83 83 87 86 84 82 85 87 88 87 84 81 82 80 83 147 238 239 237 177 93 95 96 97 93 93 92 93 97 96 93 94 95 97 99 96 96 96 99 100 96 93 93 94 91 88 84 84 85 88 87 84 84 83 82 87 86 84 83 82 82 79 79 147 238 238 238 181 93 94 96 96 95 93 92 93 95 96 97 96 95 92 98 101 100 97 98 96 96 96 95 93 89 85 86 88 90 84 85 83 85 85 85 87 86 83 82 85 83 79 69 91 148 148 147 109 56 58 59 61 59 58 57 58 60 60 59 60 61 59 59 61 61 61 60 58 58 58 58 55 55 55 56 56 52 53 53 53 54 53 52 54 53 51 53 53 50 48 42 