P2
48
60
255
33 53 53 54 55 59 59 60 61 62 64 67 70 73 77 80 83 83 82 81 81 80 82 83 83 81 83 84 85 85 88 91 90 89 86 81 78 73 71 69 67 67 66 64 62 60 58 35 54 87 85 87 90 95 96 100 100 101 106 110 116 119 125 129 132 133 132 132 132 133 131 133 132 130 133 133 137 137 141 145 145 141 139 130 128 122 117 114 112 112 108 103 99 95 94 57 53 87 86 87 90 97 101 103 103 104 109 114 119 124 129 130 131 127 130 132 130 131 130 131 131 131 133 133 134 136 140 144 146 143 140 135 131 124 120 116 115 115 111 105 97 95 94 58 53 86 84 86 91 98 102 104 105 105 110 115 120 126 131 132 129 126 127 129 131 129 132 129 130 131 131 132 135 134 137 138 141 141 141 138 133 125 123 119 118 116 111 105 97 93 95 57 53 85 85 87 92 98 101 103 104 106 106 109 114 122 125 126 126 125 126 126 129 128 128 129 128 130 132 130 132 131 132 131 135 135 136 132 128 123 119 117 120 115 110 106 97 91 94 56 52 84 84 88 93 96 92 94 95 98 102 102 107 110 112 116 120 119 120 122 124 125 122 124 124 126 127 128 126 128 126 125 125 126 124 120 117 117 110 108 111 104 103 104 99 91 94 56 52 83 82 88 90 80 72 71 75 72 74 79 85 88 93 100 106 109 114 116 119 120 119 121 122 120 122 122 122 121 118 114 112 109 105 100 95 95 89 81 81 79 76 81 94 90 91 57 50 79 81 70 59 57 53 51 51 47 46 50 51 53 58 65 82 91 101 108 113 115 114 115 117 115 117 115 116 111 106 99 91 80 67 60 55 51 49 50 56 62 69 61 62 74 87 56 51 71 49 43 45 48 46 45 40 37 35 37 37 39 44 50 60 73 84 95 104 106 109 111 113 111 108 108 105 103 95 80 66 54 43 40 45 46 46 44 46 47 54 56 58 56 76 56 44 50 46 48 48 49 43 43 40 37 35 35 36 37 41 45 53 63 71 83 93 101 105 107 106 104 104 101 95 87 79 65 56 44 40 37 34 36 40 40 44 48 55 54 57 51 62 56 41 58 57 61 59 61 60 55 53 50 47 44 42 43 45 46 50 58 63 72 85 94 101 106 104 102 101 94 84 72 62 57 50 45 42 40 40 42 46 51 60 63 68 74 65 57 62 55 43 65 66 66 65 64 58 52 47 42 38 35 32 32 33 38 44 49 57 69 81 90 100 107 109 107 102 89 77 61 50 42 34 30 31 35 43 45 43 48 58 65 70 74 75 68 73 55 43 66 65 63 61 57 47 39 43 49 47 40 37 40 35 32 37 44 51 65 76 86 98 110 115 114 105 93 74 51 38 31 33 38 39 40 46 58 59 51 46 56 67 72 73 73 77 55 43 67 64 61 55 44 44 46 42 36 33 29 33 37 42 44 42 48 54 63 76 86 101 118 127 129 114 95 71 51 43 45 45 45 37 33 37 34 41 49 57 47 57 68 74 75 80 58 46 71 65 57 45 47 40 46 61 38 58 27 55 48 48 44 50 60 66 67 77 90 108 128 138 139 121 98 79 76 66 53 58 62 51 30 49 37 59 55 43 54 55 67 77 81 86 59 48 71 65 58 54 45 51 69 71 45 29 28 42 68 73 48 52 75 77 73 79 95 114 133 138 139 125 99 87 90 68 60 75 77 48 31 30 40 68 76 52 49 60 69 78 85 93 60 49 73 65 59 56 63 67 76 83 55 51 48 61 103 90 72 75 76 83 76 85 99 115 131 134 134 126 103 89 89 90 81 79 91 62 46 47 57 92 78 69 66 65 71 80 90 98 61 50 76 69 71 78 80 77 88 97 93 74 73 92 104 92 86 81 80 79 77 89 99 116 130 130 132 127 108 88 89 84 82 87 98 91 81 88 97 97 87 84 86 84 76 84 98 102 62 54 81 79 84 87 91 86 88 93 89 86 86 87 89 89 87 84 83 79 82 91 101 117 129 131 133 130 111 94 93 88 78 84 90 92 91 94 90 94 95 95 95 95 91 95 104 103 63 56 87 87 88 91 94 94 93 88 89 88 87 89 89 92 95 93 86 88 90 94 102 118 127 131 135 131 112 102 94 92 88 84 88 89 91 90 89 91 94 96 97 101 100 103 106 103 64 58 92 94 94 97 96 96 99 100 100 98 96 98 98 101 101 97 96 96 98 99 104 118 127 130 136 134 114 108 102 100 98 98 98 97 98 96 98 99 101 100 103 107 107 109 107 103 63 58 96 100 100 102 102 102 101 103 104 105 105 102 103 107 107 104 102 99 100 104 107 117 124 129 131 129 117 112 109 108 105 107 106 107 110 110 109 109 111 111 113 113 112 111 106 103 63 60 99 103 106 108 107 108 107 108 107 105 104 103 106 111 111 109 103 98 102 103 107 114 123 127 130 126 116 110 111 112 113 112 111 112 114 117 115 118 119 121 118 115 114 111 106 103 64 60 100 104 108 111 111 109 108 108 106 104 106 109 116 115 115 108 100 100 102 101 104 114 125 128 131 127 115 109 112 113 117 120 119 115 114 114 117 120 123 123 122 118 114 110 105 104 63 62 100 107 110 113 113 112 109 106 107 108 114 121 123 120 116 106 100 97 100 99 107 119 128 131 130 128 118 108 110 113 115 120 125 123 123 120 120 124 125 125 123 119 114 110 105 104 63 59 98 104 111 112 112 111 111 110 113 119 123 124 121 119 113 103 98 95 98 99 108 122 128 129 132 131 119 110 108 111 114 122 125 128 127 128 125 123 125 124 121 119 112 108 106 103 63 59 96 101 106 108 113 114 118 120 122 124 126 127 124 121 111 101 95 94 96 99 108 118 126 129 129 130 120 111 106 105 110 119 125 126 126 129 129 125 122 124 119 114 109 106 105 104 62 59 93 97 99 105 112 115 121 122 122 126 124 127 124 118 108 95 93 92 98 99 108 117 125 129 131 133 118 110 106 105 100 113 124 127 128 127 127 127 123 117 111 109 107 106 105 103 61 58 95 96 99 106 110 118 122 123 123 127 125 128 124 109 97 97 101 96 103 102 109 124 130 131 133 138 124 108 106 108 101 105 117 124 128 127 127 127 125 119 113 111 107 106 104 101 60 59 96 99 101 106 113 119 121 122 122 127 127 124 115 99 90 101 102 101 103 100 109 130 132 138 139 161 124 107 107 110 106 94 105 115 123 125 125 126 127 120 116 112 107 106 104 100 59 60 98 98 103 109 114 118 119 120 122 124 124 117 103 84 91 101 107 101 94 91 98 116 124 130 130 128 113 103 103 111 107 89 96 106 115 123 123 125 125 120 116 112 107 104 103 99 59 59 98 101 102 106 112 114 119 122 123 122 119 106 84 81 87 93 92 88 83 81 86 103 111 112 113 105 95 91 99 107 102 92 88 98 108 119 123 122 122 121 116 111 108 104 103 99 60 58 98 101 102 106 112 114 119 122 121 119 110 88 77 83 84 71 57 45 44 58 76 83 89 94 93 87 75 71 74 81 102 99 86 91 101 111 117 118 122 121 116 112 108 105 102 99 60 59 98 101 101 105 107 110 117 118 118 112 94 78 82 92 96 82 55 44 43 46 55 68 66 68 69 54 44 46 63 102 116 109 92 88 97 107 112 116 118 117 113 110 109 105 103 99 59 59 98 98 101 105 107 112 117 118 112 98 82 79 90 98 98 93 83 70 67 68 61 63 61 60 53 52 53 64 94 111 116 117 104 91 95 102 102 114 116 114 112 108 108 106 102 98 59 60 98 98 101 104 108 112 116 120 110 93 81 88 97 97 94 89 86 86 83 83 77 64 58 61 75 88 94 98 100 106 109 119 113 97 94 100 103 112 115 114 111 109 108 105 99 98 59 59 98 98 100 105 107 110 112 111 106 91 87 95 98 93 92 87 84 86 83 84 78 79 81 91 99 102 97 99 100 102 107 112 115 108 98 97 105 112 115 114 110 109 106 105 96 99 67 59 97 96 99 104 106 108 110 109 104 94 93 95 92 89 89 87 86 87 87 94 105 104 98 101 111 112 106 105 100 105 104 108 107 111 107 99 104 111 114 113 111 112 106 102 97 101 100 59 97 98 100 100 103 105 105 106 104 98 95 92 90 91 94 92 95 101 106 119 125 113 102 104 116 126 119 116 115 108 107 105 102 109 111 108 105 109 113 112 112 110 106 100 98 104 133 58 96 96 98 101 102 103 104 105 105 102 98 93 94 99 106 108 115 121 123 121 122 121 110 116 121 118 122 125 117 116 112 105 108 108 111 111 108 111 113 113 109 106 103 100 100 116 149 58 95 95 99 101 104 104 103 104 104 104 101 100 98 105 112 111 102 94 90 90 92 98 103 99 92 91 91 97 108 116 112 110 112 112 110 112 111 110 114 113 110 108 104 100 100 144 154 57 93 95 98 100 104 103 103 103 104 104 105 101 95 98 94 81 81 81 84 84 82 83 83 80 80 83 83 78 82 96 108 106 110 112 110 109 112 114 116 112 108 105 105 99 100 182 155 57 92 94 94 98 103 105 103 103 104 102 105 97 86 80 66 60 63 68 61 64 68 69 69 70 66 61 61 62 61 72 94 95 103 111 108 111 114 116 114 110 106 106 103 100 101 221 155 58 94 93 94 96 100 103 102 100 102 99 94 77 63 54 46 47 54 63 66 63 63 59 61 68 69 73 80 80 72 58 67 73 89 104 107 109 114 115 113 108 106 105 102 100 113 243 155 57 94 93 93 94 98 104 103 102 99 97 85 66 51 53 61 75 87 100 96 98 98 100 99 96 98 100 104 98 88 78 73 79 91 102 103 110 114 114 112 107 105 103 102 99 146 251 156 56 92 94 91 93 96 102 107 103 99 96 94 89 86 87 87 89 92 100 104 106 111 109 109 109 112 119 107 89 83 87 94 104 105 106 107 111 113 111 109 105 103 102 100 99 197 253 157 56 89 91 91 92 94 97 105 104 100 100 100 104 98 89 91 95 100 100 99 100 103 106 105 105 104 99 92 94 95 97 102 109 110 107 108 108 111 107 104 104 101 100 99 106 239 254 157 56 91 89 91 91 91 95 101 100 100 109 109 106 102 93 92 92 91 93 95 92 89 91 93 93 95 99 101 99 97 99 105 108 113 109 106 108 108 103 100 101 100 100 97 120 248 255 158 55 89 89 89 89 90 91 97 102 105 110 109 106 102 95 97 94 92 85 75 63 57 58 59 62 69 78 88 95 98 103 105 109 110 107 105 106 104 101 98 100 99 98 96 130 251 255 158 54 88 87 88 87 89 89 92 98 102 105 106 106 101 94 94 92 89 86 83 80 78 71 70 73 75 80 87 92 98 104 106 102 92 105 105 103 101 99 99 101 97 96 99 135 253 255 158 53 87 86 87 86 86 88 88 92 98 99 103 106 102 99 95 93 94 91 90 88 86 83 85 85 85 85 91 97 101 106 108 103 100 105 100 101 100 99 97 97 96 94 102 141 253 255 158 53 86 87 86 86 87 86 86 89 95 98 101 105 106 106 104 101 102 99 96 89 89 90 91 90 94 98 100 104 107 110 110 104 101 104 101 100 98 97 95 96 93 96 102 145 253 255 158 50 85 87 85 85 86 85 87 91 92 98 101 106 111 113 114 114 112 105 105 103 106 105 103 101 103 108 109 114 115 114 108 105 102 101 99 97 96 96 96 93 89 100 105 147 254 255 158 48 82 85 87 86 85 85 86 90 93 101 103 104 110 118 122 123 120 122 125 127 124 121 121 117 116 121 123 123 119 114 108 104 100 102 97 97 97 97 94 89 89 101 105 148 254 255 158 50 78 82 85 87 87 86 87 90 95 100 100 108 111 121 123 123 122 124 127 127 126 124 123 121 123 128 128 127 122 117 111 108 105 102 97 97 98 96 90 85 96 103 105 152 254 255 158 54 79 77 82 83 84 86 89 91 96 99 104 104 111 117 118 120 117 120 124 125 127 125 124 124 122 124 125 122 117 117 113 111 105 103 98 95 93 89 81 89 100 104 105 153 254 255 158 56 86 74 75 81 82 85 87 90 92 97 104 105 107 110 116 117 117 118 122 128 128 124 123 121 122 119 117 119 114 116 111 110 107 101 96 92 89 80 84 96 103 105 105 145 243 245 153 56 88 81 71 74 78 83 85 86 90 95 99 99 104 105 112 116 116 121 123 123 125 121 119 119 122 125 117 116 114 112 110 105 100 96 90 86 78 79 92 102 105 105 104 98 85 86 67 57 87 85 77 68 72 78 79 81 81 89 93 92 99 102 107 112 115 118 121 121 122 120 119 121 125 126 120 112 106 106 104 102 95 90 83 77 77 87 97 105 106 105 102 92 51 44 31 36 55 54 50 44 41 45 47 48 48 52 55 54 57 61 62 65 68 69 71 71 71 70 72 70 74 71 69 67 65 64 63 61 56 52 46 46 50 57 62 64 66 65 63 62 54 28 15 