P2
48
60
255
51 85 85 89 92 93 95 97 100 102 105 106 109 109 110 109 109 107 105 105 105 104 105 104 104 105 104 105 106 105 105 105 104 101 98 97 93 94 88 85 79 68 56 46 46 62 52 32 84 138 140 145 147 152 152 158 162 165 170 172 173 172 178 178 177 177 173 170 173 169 168 168 169 168 169 170 170 167 170 171 167 163 163 158 154 150 148 140 135 123 94 78 71 90 91 49 85 140 144 146 150 152 153 157 163 165 172 172 175 171 175 180 178 175 171 174 173 171 168 169 170 169 169 169 173 172 177 180 174 171 172 163 158 151 152 144 139 129 113 86 76 75 93 50 83 141 145 147 151 153 154 156 162 167 173 176 178 171 173 174 175 174 175 173 172 170 169 167 165 166 170 172 171 176 175 179 177 179 177 170 166 157 150 145 138 131 124 98 80 70 80 54 84 138 144 148 149 152 153 155 164 170 172 179 182 179 174 175 175 174 176 172 173 173 169 167 168 171 168 172 169 168 170 171 171 174 173 169 169 163 153 147 135 134 126 113 89 72 69 49 84 140 143 146 146 150 153 159 168 173 177 181 182 175 171 168 166 169 171 171 173 172 168 170 169 169 170 170 164 161 161 162 163 168 169 172 168 163 157 151 140 135 129 121 102 77 66 42 84 138 142 141 144 152 156 162 169 174 171 171 167 164 165 165 163 162 162 166 170 171 165 168 165 170 165 160 152 144 145 149 150 154 154 151 146 147 151 151 146 135 135 121 111 88 68 39 84 137 141 141 145 147 151 147 135 125 118 112 113 117 123 127 140 149 153 159 167 163 163 164 165 166 162 151 138 131 126 129 120 115 108 108 105 106 118 127 138 137 129 126 115 98 73 40 83 136 140 141 132 121 121 116 105 92 85 86 89 89 95 97 110 125 137 149 162 169 166 162 162 164 155 141 130 118 106 105 94 83 79 77 77 82 90 95 103 107 112 124 118 108 81 39 83 136 138 121 102 105 114 109 108 109 102 96 92 91 89 96 98 111 126 137 155 169 169 164 164 162 152 136 119 109 100 93 86 83 80 82 89 92 97 95 98 102 94 100 114 114 91 41 84 134 117 105 109 129 137 141 148 155 152 147 135 119 109 107 108 111 117 130 150 168 175 170 168 164 146 130 117 107 102 101 100 101 111 128 139 142 139 132 127 120 109 95 89 104 102 47 84 126 109 119 131 141 147 154 158 161 163 159 153 143 131 120 115 111 111 124 143 161 175 174 172 160 138 122 110 104 103 107 114 126 141 152 158 157 153 144 137 129 123 111 96 85 104 57 81 114 118 130 134 140 145 152 156 158 157 154 151 146 136 124 116 112 107 117 135 155 177 177 172 153 131 117 103 96 103 111 121 138 151 159 162 165 161 147 135 130 124 116 113 97 94 65 77 121 128 130 134 137 140 139 140 144 152 153 147 132 118 115 113 105 99 109 132 150 173 176 168 146 127 114 98 89 99 110 117 124 133 144 146 143 133 131 131 125 120 118 117 109 92 64 79 132 132 128 129 128 123 129 134 141 143 141 137 129 124 116 104 99 97 116 131 149 167 168 163 142 124 114 101 89 88 99 113 124 135 142 145 143 137 125 116 113 117 115 117 116 103 63 86 134 125 128 124 115 117 121 123 124 112 98 85 78 82 92 92 92 112 129 132 145 155 158 154 136 125 118 115 105 90 102 107 107 108 110 121 125 125 114 112 107 105 112 114 116 109 65 88 140 136 127 120 115 110 98 78 64 53 44 44 57 77 85 86 85 126 132 133 142 157 155 153 132 122 121 120 126 78 64 75 70 58 53 53 71 83 93 101 101 103 104 107 112 113 68 94 148 138 127 115 94 82 68 68 70 78 82 93 100 102 100 108 117 125 131 134 150 158 153 152 130 121 122 117 123 113 110 105 104 91 77 59 54 55 60 70 81 96 103 106 110 115 71 96 152 143 129 128 122 118 114 103 100 109 114 109 109 108 116 125 127 133 133 131 148 161 159 142 128 120 121 121 120 113 110 110 110 105 96 86 75 74 68 69 78 86 94 102 110 120 75 99 157 148 147 145 141 134 135 134 135 131 127 129 135 135 137 139 137 136 133 132 149 161 148 145 130 119 117 124 123 120 119 126 130 128 126 125 118 115 109 111 116 118 116 110 116 125 79 101 156 155 152 149 153 154 153 152 151 150 145 142 141 143 147 148 143 138 134 137 154 161 160 151 130 119 120 121 124 122 127 132 139 144 146 143 145 142 139 136 133 130 129 130 127 131 84 99 159 160 161 160 164 165 164 162 159 154 149 151 155 155 157 149 137 137 136 138 153 162 158 149 133 121 119 118 122 125 131 138 139 140 146 149 150 150 149 148 147 144 140 137 133 138 86 97 161 164 164 166 166 167 162 162 162 158 162 161 163 165 158 147 139 137 137 146 154 163 162 152 134 123 119 119 121 124 130 144 148 147 148 148 148 153 154 157 153 153 153 148 144 140 85 97 160 163 166 167 167 166 164 161 164 163 165 164 163 163 157 145 141 139 139 146 157 164 162 154 135 124 121 118 120 122 128 142 154 160 156 149 150 153 159 160 161 159 157 156 148 142 85 94 155 159 163 167 167 164 166 165 165 163 165 163 163 161 156 145 136 135 141 149 155 166 160 154 137 126 122 117 116 119 128 142 154 161 164 161 158 159 158 162 163 162 157 153 148 140 84 92 152 157 164 164 166 167 166 166 166 165 163 162 159 154 140 127 127 134 140 150 161 169 165 160 139 127 122 114 113 111 120 138 150 159 163 166 165 166 163 162 158 157 154 149 146 138 84 91 152 157 162 164 171 173 173 172 168 164 157 155 149 134 111 123 135 137 144 154 171 178 171 165 149 131 125 121 118 115 105 116 138 153 164 167 165 168 165 166 162 160 151 146 142 136 82 91 150 155 162 167 174 178 175 170 164 159 154 149 137 113 106 130 140 137 143 153 172 164 160 161 154 130 122 118 119 121 110 98 113 138 154 167 165 167 169 167 160 157 150 144 139 132 79 89 146 145 156 165 177 179 177 168 159 151 147 137 119 96 111 129 134 129 130 135 149 147 146 140 126 113 111 111 113 119 114 101 96 120 144 154 158 166 167 164 163 155 148 140 135 129 80 87 145 147 157 164 171 175 168 159 149 146 140 127 100 97 116 120 111 102 83 105 124 122 122 116 108 96 71 82 98 102 107 104 91 101 128 145 155 163 164 163 160 151 145 134 133 130 79 87 141 146 150 160 164 164 158 152 145 138 128 110 87 100 109 123 109 77 50 55 98 96 91 93 92 55 38 46 72 83 96 106 93 85 112 135 145 152 155 155 155 149 141 134 130 127 76 85 139 143 148 154 157 155 151 143 137 126 115 92 74 102 125 133 138 124 112 117 114 96 82 82 85 92 90 79 83 108 108 105 91 79 92 120 136 144 147 146 145 142 138 132 128 126 76 84 138 142 146 149 150 148 139 137 128 114 98 75 79 119 134 139 142 141 139 136 126 100 79 80 94 107 113 114 114 113 109 108 98 77 77 100 121 134 138 138 134 134 133 129 126 121 75 83 138 139 141 143 142 140 134 126 113 99 82 68 103 132 144 143 143 142 143 141 127 119 117 122 121 119 120 119 120 119 115 113 102 81 72 84 108 121 130 130 128 126 127 124 123 121 73 84 134 135 137 137 137 131 125 113 99 87 69 80 125 138 144 143 144 145 143 148 149 150 151 151 154 146 132 128 124 126 125 122 111 84 68 72 91 111 120 124 124 122 120 120 119 118 72 84 133 132 133 134 130 125 113 102 90 72 63 113 137 142 143 144 144 145 148 149 153 159 159 162 163 157 151 140 132 128 128 127 124 103 67 65 78 98 111 117 120 118 118 117 116 115 72 83 133 131 132 131 126 119 109 96 81 59 89 128 142 142 135 130 127 126 131 130 130 130 134 133 128 125 125 128 128 128 128 126 126 122 90 59 67 86 102 109 112 114 115 116 114 114 71 83 133 131 133 132 127 122 109 91 66 65 93 126 131 118 106 101 101 102 105 106 109 104 104 100 104 104 107 108 103 102 110 119 123 122 112 69 61 77 96 105 109 111 112 114 114 114 71 85 135 133 134 133 130 125 112 91 64 53 68 98 89 80 76 71 62 56 56 63 75 72 72 69 71 69 69 74 80 83 84 91 102 113 101 79 54 72 94 106 110 111 111 112 113 114 71 85 134 135 135 132 133 130 117 96 78 60 45 49 40 42 63 100 107 109 114 117 146 123 106 102 114 89 69 57 50 52 62 66 66 71 67 59 55 75 96 108 112 113 113 113 114 115 72 86 136 136 134 134 135 131 121 112 103 98 57 36 28 65 109 137 128 138 137 139 162 147 131 135 164 160 123 110 100 88 81 47 29 31 33 44 54 82 107 116 116 114 114 114 115 115 73 87 139 136 135 136 136 129 116 122 126 133 128 86 46 94 131 148 144 154 155 160 180 174 149 151 182 172 139 123 120 112 111 77 36 29 47 70 63 95 120 122 117 114 113 114 117 117 74 85 139 139 136 136 138 130 115 132 138 146 160 147 109 99 119 135 136 138 152 158 175 177 164 174 182 165 138 134 125 116 107 92 53 72 103 104 82 110 123 121 118 115 115 118 118 119 74 86 140 139 137 136 133 132 133 139 141 155 165 167 151 130 127 123 110 123 122 135 148 149 133 126 152 146 105 106 97 107 97 96 100 119 129 117 101 121 122 124 118 115 113 119 121 120 74 85 138 138 136 136 132 134 141 142 147 155 160 162 157 142 130 137 133 132 131 131 121 116 106 104 106 109 105 102 117 120 113 112 125 133 134 127 120 127 127 129 120 116 117 119 121 121 74 82 138 138 136 131 132 136 143 146 152 155 161 159 156 149 137 133 132 143 147 139 136 135 140 140 143 138 129 127 120 116 106 115 128 131 130 129 128 131 132 124 116 116 118 119 122 121 72 81 133 136 135 134 134 136 142 149 151 156 157 157 152 149 143 133 130 132 134 130 131 133 139 133 135 136 128 114 106 103 107 121 129 126 126 127 131 136 129 119 116 115 117 119 121 118 70 79 131 132 132 133 136 138 145 153 152 154 154 155 151 147 142 135 126 124 122 122 118 118 118 116 114 112 107 99 101 105 115 123 123 124 121 122 129 138 127 117 114 114 117 119 118 115 67 76 128 131 129 133 134 136 143 153 153 151 153 154 151 147 142 133 130 124 115 107 104 104 106 104 102 101 99 100 105 113 115 119 123 123 120 120 127 131 122 113 112 115 117 119 116 112 64 73 123 129 130 131 135 137 141 149 153 151 150 150 153 149 145 138 132 124 115 106 97 90 87 84 84 89 96 103 108 111 115 120 122 120 119 118 122 123 115 112 112 116 116 116 112 105 63 59 116 125 128 131 133 134 139 144 150 152 149 148 152 154 152 149 144 138 133 130 124 120 119 114 110 110 109 108 114 116 118 120 121 122 120 119 119 117 115 111 112 115 115 113 107 102 63 26 96 118 126 128 131 131 137 140 147 151 150 150 152 157 158 156 157 157 156 156 152 148 148 147 144 138 131 125 123 124 124 121 121 122 123 120 119 116 114 113 113 114 113 109 104 104 66 17 73 108 120 124 128 130 133 137 140 145 147 149 150 156 160 161 161 163 158 161 162 161 162 160 157 148 139 128 127 131 128 122 122 123 123 117 117 114 115 112 112 112 110 105 104 110 67 15 57 112 110 120 124 128 131 134 137 142 146 147 149 156 157 162 163 163 159 164 161 160 159 156 152 147 140 130 132 133 128 124 123 121 122 119 116 114 113 112 110 109 104 103 110 114 70 15 44 112 117 109 118 122 127 130 135 137 142 143 144 151 152 157 160 162 159 158 158 154 152 154 149 146 143 131 128 129 125 121 121 121 119 116 114 113 112 110 108 105 104 107 115 118 71 16 36 106 127 118 111 116 123 126 131 133 137 139 138 142 144 151 155 161 164 157 153 150 150 148 147 148 142 131 124 122 119 120 119 118 116 114 112 113 111 109 104 103 106 115 119 120 72 26 32 94 130 128 120 111 114 121 126 130 132 133 132 135 136 140 144 147 146 145 144 143 142 143 142 139 130 125 118 118 117 118 115 115 115 113 111 110 107 104 103 104 112 120 122 122 74 33 29 77 131 132 129 122 112 111 119 124 127 128 128 130 124 124 129 130 128 129 132 131 130 128 126 121 117 114 112 112 113 115 113 113 112 112 109 106 105 103 105 112 120 124 123 123 76 33 35 63 131 135 133 129 122 114 110 116 121 124 126 125 122 120 118 118 117 116 116 118 117 114 109 105 107 107 110 112 112 114 113 110 109 108 105 103 102 104 110 117 123 125 127 125 76 19 27 31 80 84 84 82 80 76 71 68 70 73 76 76 75 74 69 68 67 67 65 65 64 63 61 62 63 65 69 69 70 70 68 67 67 66 64 64 64 67 70 75 77 79 78 78 47 