P2
48
60
255
34 54 58 62 64 67 68 73 74 76 77 78 84 85 86 88 88 89 90 92 92 90 91 92 93 94 94 91 89 87 88 88 89 89 86 87 88 84 82 83 81 80 82 81 77 74 69 41 53 88 90 98 104 110 112 120 119 122 126 129 136 139 141 141 144 145 149 151 147 148 149 151 153 153 153 148 145 140 143 143 146 145 142 143 145 140 135 135 136 134 133 132 128 122 110 65 50 82 87 96 105 113 118 123 123 128 129 130 134 136 142 142 144 144 150 152 151 151 149 152 157 154 155 151 145 142 144 145 146 146 144 143 139 136 130 125 131 130 131 128 126 120 106 63 43 77 77 90 107 114 113 115 119 121 123 130 130 137 145 146 148 143 150 154 154 151 153 154 156 155 155 152 147 145 143 145 143 137 136 136 127 123 112 106 110 112 115 121 126 118 111 64 36 57 72 98 108 99 95 93 99 104 107 111 115 126 137 153 156 148 152 156 155 155 155 153 157 157 156 154 148 142 132 126 114 103 96 103 99 97 98 98 91 94 93 102 123 120 114 68 46 81 89 99 92 83 87 86 85 86 76 77 77 93 111 127 133 134 148 157 157 157 158 153 157 159 157 147 144 137 121 106 95 75 77 88 89 85 78 75 79 85 87 83 100 109 111 69 52 88 86 83 78 79 78 76 72 67 58 58 62 65 78 100 119 133 143 151 155 157 155 155 156 152 149 143 131 124 114 102 88 84 83 76 71 78 80 82 84 86 78 83 80 91 97 68 55 90 79 74 72 76 78 85 75 65 63 65 67 69 81 91 104 116 126 138 145 150 152 150 149 147 144 134 120 114 105 96 88 88 86 79 72 70 80 90 104 107 97 88 90 82 80 57 56 83 73 74 75 88 95 88 79 69 71 75 82 82 81 87 96 103 112 125 136 141 139 134 138 139 136 131 116 108 100 96 90 86 82 80 81 82 89 98 108 114 114 110 100 92 79 44 54 76 76 82 90 97 92 93 95 104 104 99 99 95 92 92 92 99 105 116 127 134 135 130 131 132 130 123 110 103 99 97 96 96 96 96 101 107 113 116 115 113 108 109 109 108 99 53 52 77 81 88 97 102 102 114 126 133 132 127 120 111 102 95 93 95 100 107 115 122 127 132 131 130 124 116 107 102 96 96 101 107 111 120 125 129 128 127 122 118 117 116 117 109 101 58 49 79 85 93 97 110 125 136 144 144 147 144 139 132 121 107 95 93 97 101 111 126 133 132 130 126 120 113 109 105 102 107 113 122 130 137 141 139 138 136 133 125 124 119 113 108 101 63 50 81 88 97 105 116 131 133 138 145 145 145 142 138 135 124 109 99 100 103 108 118 126 130 131 124 119 115 114 110 109 116 121 126 132 136 137 136 134 133 132 126 124 121 114 108 102 60 50 84 91 99 106 111 116 122 132 139 139 137 135 132 131 130 119 107 106 108 110 119 133 144 143 138 127 119 118 113 113 118 120 117 116 114 110 112 122 131 129 124 118 116 113 106 102 65 54 89 94 102 101 102 106 108 97 78 61 54 55 65 90 114 117 110 108 115 119 123 137 150 151 145 134 129 126 115 112 117 112 83 51 39 47 33 38 50 75 101 107 107 109 107 107 67 54 94 97 100 98 94 72 44 41 40 36 35 36 44 40 58 110 114 113 122 127 130 138 155 158 151 141 137 129 118 118 120 86 47 71 51 36 30 34 36 50 44 66 94 102 107 113 70 59 99 101 97 89 66 52 60 80 77 39 34 34 44 77 54 76 132 130 127 129 130 137 150 152 145 135 138 134 132 136 129 69 68 107 94 51 44 50 73 96 88 72 70 91 106 117 73 67 106 103 98 88 87 97 110 106 104 82 69 69 81 100 90 90 126 137 127 126 126 133 140 144 139 132 130 135 134 142 121 112 107 104 100 94 95 103 115 122 122 109 106 106 115 122 77 71 115 113 113 114 111 113 128 137 133 123 119 116 119 120 127 126 125 130 124 122 123 131 139 142 139 129 126 132 131 147 135 132 127 125 124 131 135 138 140 137 130 125 126 125 131 134 85 73 119 123 123 122 121 121 131 141 148 148 143 136 132 129 128 133 135 127 124 119 121 127 133 138 135 122 122 129 127 134 140 137 129 126 128 130 132 137 140 140 138 139 130 134 133 135 84 73 122 127 127 128 126 131 136 148 150 147 143 138 133 133 138 139 131 127 124 115 116 123 133 138 135 116 113 125 129 131 139 142 139 137 136 135 138 143 144 145 144 145 144 143 142 139 85 73 122 125 132 134 132 134 143 150 150 145 139 137 137 141 139 133 133 132 124 115 117 128 134 138 136 123 114 125 133 137 138 141 146 144 141 141 142 147 147 147 147 147 150 150 149 146 86 73 121 129 137 141 140 145 153 154 150 146 143 150 144 146 137 132 139 131 119 114 122 133 141 141 139 128 118 124 135 144 140 144 146 147 144 142 143 145 146 149 152 152 154 157 156 152 91 73 123 135 143 148 150 151 154 152 148 149 156 159 151 141 130 133 138 125 115 115 124 132 138 138 136 131 123 126 139 147 149 149 147 147 148 148 145 146 148 149 156 158 160 162 163 156 92 74 126 136 147 155 156 155 155 156 157 162 165 156 149 139 134 134 133 120 115 116 125 135 137 134 130 126 124 125 136 144 147 152 149 147 149 151 148 149 151 155 158 161 162 165 164 157 93 72 118 133 146 154 160 160 159 163 161 160 159 140 137 142 136 130 123 115 116 120 130 139 141 138 129 124 120 122 130 139 142 149 149 147 149 151 152 152 150 154 154 157 161 163 164 156 93 71 117 129 140 154 161 160 160 162 159 156 147 130 140 145 132 124 113 110 116 126 137 142 144 142 133 122 118 114 123 135 149 148 149 150 151 152 154 154 152 155 156 158 161 162 158 153 90 69 120 130 142 152 158 161 160 161 158 154 147 144 149 144 127 110 103 111 120 130 144 150 146 142 133 124 118 112 113 122 136 149 152 152 152 153 154 156 157 158 159 159 164 161 161 149 87 69 116 130 141 149 157 157 157 160 157 151 150 149 147 129 108 102 109 115 121 130 157 176 150 160 144 125 119 120 123 118 117 132 146 154 154 155 157 156 154 158 157 160 160 160 153 149 88 66 113 127 137 146 152 153 151 156 152 146 149 152 137 107 102 113 117 118 116 120 131 136 133 137 133 125 125 132 129 127 121 115 129 146 152 152 154 156 157 155 155 158 158 157 153 144 83 65 111 122 132 140 146 150 153 152 148 138 133 138 116 104 108 115 118 108 94 93 102 107 109 111 108 106 115 128 134 130 124 114 118 133 145 151 152 154 156 155 155 154 157 155 148 138 80 61 108 119 129 132 140 146 147 145 144 142 138 124 104 101 105 109 100 68 34 37 61 75 77 78 61 48 48 72 107 120 118 112 105 125 136 145 150 152 152 153 152 151 150 146 141 133 79 58 103 114 125 132 138 140 143 141 141 141 135 115 106 102 95 97 80 41 32 40 60 68 67 69 48 43 37 34 61 95 101 100 99 117 129 137 144 148 150 145 144 148 146 140 132 123 73 58 97 105 118 127 134 136 139 140 139 140 131 112 114 107 88 82 70 56 73 98 101 104 89 96 100 96 91 70 60 75 82 91 107 120 132 135 143 145 146 142 143 141 135 134 129 117 68 58 96 102 109 121 127 131 133 136 138 138 133 119 121 114 105 99 91 94 101 100 115 132 129 129 126 116 111 108 104 105 115 123 126 136 140 138 141 145 143 141 140 138 133 127 120 111 66 56 93 100 103 113 122 127 129 132 135 135 136 133 130 123 121 119 116 115 109 113 117 123 123 124 126 118 117 115 114 121 126 133 138 140 143 143 140 143 142 139 136 134 130 125 117 107 64 60 95 99 98 104 116 122 126 128 133 137 140 136 128 125 122 116 112 118 108 119 122 120 122 123 123 125 117 115 117 114 120 122 130 137 141 143 144 139 136 136 135 132 127 122 113 107 64 59 98 98 102 107 113 117 122 126 131 134 135 130 121 118 114 109 112 110 111 120 125 124 125 129 126 129 121 115 114 120 118 115 120 126 132 140 145 141 136 137 135 130 126 120 109 105 64 60 100 99 101 103 112 115 120 124 124 130 132 123 115 107 104 105 105 113 118 118 125 125 128 122 122 128 127 123 120 121 121 110 107 115 121 128 133 138 133 132 137 132 124 120 111 106 64 59 101 102 101 105 110 114 117 122 122 125 122 116 101 102 104 102 112 120 119 123 130 124 124 121 123 130 131 127 126 127 124 119 111 110 112 118 125 126 133 130 132 130 123 119 108 106 63 58 101 105 104 106 109 111 113 119 118 120 115 112 100 101 104 112 113 113 112 107 108 108 110 111 101 99 97 98 110 123 120 122 124 123 117 112 122 120 125 125 124 129 123 118 108 106 64 58 100 103 104 107 107 110 111 111 112 113 117 107 100 97 106 109 100 85 75 75 76 76 76 79 81 81 77 76 75 77 88 106 115 114 110 113 115 116 116 118 119 125 124 114 107 107 64 57 95 103 104 110 108 110 110 109 107 106 111 104 99 98 98 83 70 65 63 63 63 62 61 63 66 65 62 56 59 64 64 69 81 101 108 107 103 111 111 111 116 124 119 112 105 105 65 53 92 100 106 108 109 109 110 109 104 100 97 101 96 95 74 58 57 54 51 55 77 72 65 51 59 72 92 53 52 53 55 59 58 69 84 94 100 104 105 109 114 123 115 109 102 105 64 54 91 100 105 108 107 109 111 107 102 103 98 87 83 79 55 48 46 46 59 68 107 116 111 88 98 100 113 85 82 78 51 61 55 49 60 83 95 102 104 106 113 116 111 106 102 103 65 76 87 97 104 107 105 108 110 109 101 101 99 89 77 59 48 41 49 72 87 91 102 107 110 107 111 111 110 103 105 104 96 92 88 88 97 105 112 106 102 107 112 114 109 103 100 101 64 112 94 95 101 103 105 104 108 107 101 98 103 108 108 103 93 85 85 87 97 107 116 121 121 117 119 121 121 120 111 101 95 95 95 105 117 118 113 110 104 109 113 111 107 98 100 101 63 122 118 90 97 101 102 104 108 107 103 100 100 108 108 112 100 86 82 83 85 94 109 117 116 115 115 115 113 114 106 101 99 101 101 107 115 118 117 111 103 101 105 105 103 98 100 100 62 122 164 88 92 95 101 99 103 105 102 100 99 101 105 107 103 93 89 83 80 79 83 87 86 89 90 86 83 85 89 94 98 101 105 110 113 115 116 113 98 97 103 102 99 97 97 97 60 121 196 107 89 88 97 97 100 103 101 97 95 99 103 104 103 98 94 88 80 73 70 64 61 59 60 60 67 78 85 90 93 97 105 107 111 111 110 107 100 100 101 97 96 94 97 94 59 121 197 162 87 89 93 95 93 96 97 93 94 94 98 102 102 98 95 87 89 82 79 78 76 76 78 84 89 92 95 101 104 106 105 107 107 103 103 99 96 100 98 93 92 93 94 92 56 121 196 195 109 82 88 91 92 90 91 95 96 88 91 99 100 99 97 97 100 100 96 93 93 92 94 94 100 107 111 112 113 110 108 105 100 99 100 101 97 99 97 93 90 92 92 91 54 121 196 198 176 86 83 88 93 90 91 93 95 91 89 94 97 96 97 99 99 103 105 110 113 112 108 107 114 117 116 116 114 109 106 103 101 100 103 106 102 101 96 94 92 91 91 90 53 122 197 197 199 144 79 84 91 92 93 94 96 96 95 94 96 96 96 98 103 106 108 114 121 123 120 122 120 125 127 123 117 112 111 108 108 109 112 113 111 104 98 95 94 88 88 86 51 122 198 199 199 180 84 78 87 92 93 96 99 99 101 100 100 100 100 102 107 117 120 120 119 127 127 125 125 125 124 126 126 123 120 116 116 116 117 119 117 108 98 94 93 88 87 81 46 123 199 199 200 188 99 83 77 89 94 93 100 103 104 103 104 105 105 107 114 122 128 131 131 131 126 127 130 132 126 128 129 128 122 118 116 119 120 121 119 111 100 92 89 86 82 73 41 123 199 200 201 192 100 102 85 78 88 92 100 106 106 107 108 109 108 110 118 123 126 126 131 131 132 123 126 126 126 122 124 127 122 120 120 121 123 122 116 108 96 86 85 77 71 67 52 123 200 200 201 194 102 101 105 84 77 88 96 101 107 110 110 109 110 112 113 114 115 106 114 118 124 124 124 117 115 121 113 113 116 121 120 120 122 117 109 101 89 82 78 69 68 87 60 124 199 200 200 198 104 100 105 106 81 76 87 94 98 105 107 110 112 113 112 108 109 104 101 109 116 123 115 112 111 105 102 109 115 115 118 117 115 110 99 91 82 73 64 69 88 98 65 76 124 124 124 122 65 62 64 66 64 43 46 51 56 63 64 66 68 68 70 65 61 61 64 63 69 72 68 69 65 58 59 64 68 68 71 68 67 60 57 51 46 40 41 53 60 66 42 