P2
48
60
255
27 53 58 60 66 69 72 74 75 78 82 82 82 82 80 80 83 82 83 84 85 84 87 85 84 83 83 82 82 83 85 87 89 87 86 90 89 87 83 81 85 81 76 67 50 42 38 22 44 82 95 97 104 110 114 121 120 126 131 132 133 131 132 133 133 134 133 134 135 136 138 137 138 139 138 138 137 133 136 139 140 138 140 143 140 136 134 134 139 133 125 113 99 92 72 35 46 88 94 98 102 108 115 120 120 123 126 126 125 129 129 131 131 133 136 138 139 140 138 139 136 136 136 135 136 138 143 145 145 144 145 142 139 135 133 137 136 130 119 116 108 99 80 35 51 89 93 98 101 106 112 118 123 125 126 127 126 127 129 131 136 138 141 140 137 137 141 143 140 143 144 144 142 142 143 147 147 143 145 145 143 138 134 136 134 128 121 113 109 100 73 36 53 89 93 96 101 105 113 116 125 126 130 129 132 136 135 139 139 142 146 146 143 138 137 140 141 143 144 143 145 148 149 153 151 150 149 147 146 137 136 133 133 129 124 112 112 102 70 36 50 88 96 98 101 107 112 118 125 124 127 131 137 138 139 140 149 146 152 150 152 145 139 142 142 141 143 145 147 152 155 155 152 153 149 145 145 139 138 135 136 133 125 113 109 103 71 30 51 90 95 97 103 109 114 113 119 126 133 133 136 140 138 141 150 152 157 157 155 151 147 143 144 146 147 150 150 153 154 152 152 152 149 142 142 143 137 133 131 129 129 117 106 103 79 26 52 92 95 101 108 109 114 118 123 129 133 130 134 140 136 141 144 147 149 153 154 153 149 144 142 147 150 152 151 154 152 152 149 147 146 139 135 126 115 109 100 94 98 106 110 100 81 26 52 93 95 105 110 116 115 119 128 132 134 128 134 141 139 140 141 140 143 143 144 146 148 142 137 143 145 143 145 142 136 124 115 108 113 102 96 92 84 75 70 64 72 91 108 97 90 32 55 93 100 110 112 104 100 103 110 114 120 115 110 110 117 123 123 124 131 133 131 137 142 139 130 140 139 132 120 107 90 73 65 70 66 64 57 53 55 62 65 76 82 88 98 98 96 41 55 93 106 108 94 87 87 83 83 88 82 75 66 67 66 72 82 92 106 118 126 137 138 136 125 133 131 123 105 91 75 60 49 46 44 45 52 60 66 80 85 98 90 84 85 96 95 56 55 98 99 87 73 62 62 62 61 59 49 45 44 43 45 50 58 73 82 99 118 126 138 135 127 119 115 108 91 77 65 57 55 56 64 76 91 104 108 113 115 105 96 87 85 93 93 59 58 95 78 64 61 65 69 77 77 76 69 60 57 55 54 55 58 63 76 95 107 123 136 139 131 125 111 94 73 61 61 68 79 93 104 113 119 125 127 122 115 108 103 94 89 91 91 58 55 84 72 69 77 92 104 115 127 130 123 114 102 85 73 64 57 56 60 84 107 130 147 150 145 135 113 81 64 64 68 69 68 73 74 80 92 93 108 110 108 106 99 92 86 89 91 59 54 78 73 81 95 101 111 117 118 113 94 72 58 54 51 47 54 58 62 76 107 130 146 146 148 136 109 84 73 70 68 67 69 56 42 48 33 37 42 52 72 90 96 89 84 87 95 61 50 74 81 86 93 96 93 74 45 33 26 61 41 55 61 67 68 73 78 82 108 128 143 143 147 135 110 96 90 90 80 68 71 82 45 39 25 38 41 51 39 47 64 81 83 91 98 62 49 74 74 81 78 55 37 38 29 31 25 41 71 110 79 61 74 93 94 89 106 131 146 148 148 138 115 100 106 101 93 92 115 143 74 52 48 47 69 85 67 55 59 69 84 91 102 67 48 73 73 59 41 36 50 72 60 52 51 65 122 136 102 92 92 89 86 94 105 130 144 144 147 138 114 97 102 121 116 108 115 121 111 93 96 102 114 112 96 85 83 81 94 103 111 70 48 79 65 60 61 72 91 104 108 95 101 109 112 114 109 99 94 95 94 94 106 125 136 142 144 139 112 98 105 115 112 104 105 108 107 106 109 99 98 108 104 105 101 93 94 106 116 70 53 79 75 89 91 87 94 96 95 96 99 114 114 105 101 97 89 96 100 98 107 127 138 142 145 131 108 99 110 113 116 109 114 116 117 119 119 116 117 118 115 110 105 103 105 115 122 77 58 89 91 98 103 108 112 113 111 118 120 116 114 115 112 105 98 105 101 99 111 125 134 134 141 127 109 104 112 117 120 116 125 124 124 128 130 120 115 115 109 106 114 117 118 125 131 75 66 104 101 101 100 107 110 116 120 123 123 126 133 132 117 108 106 105 102 99 107 125 137 141 141 126 109 105 111 116 130 126 120 125 129 124 113 109 108 111 115 122 125 133 131 129 128 77 69 115 105 101 101 103 110 114 118 121 122 132 132 117 109 109 104 104 101 99 109 123 138 146 143 129 115 107 108 115 132 146 129 114 120 127 128 121 125 129 126 128 134 135 134 132 124 75 73 119 116 106 108 110 115 115 120 118 119 115 111 110 124 110 99 99 98 106 120 131 141 143 141 135 124 110 107 109 131 150 150 137 122 123 129 128 127 130 131 128 135 134 130 127 118 74 73 120 124 126 111 116 130 132 133 130 129 126 125 131 125 106 98 97 101 115 127 137 141 142 142 139 131 113 106 109 125 144 150 151 149 140 133 132 134 136 137 137 131 127 126 124 117 72 73 120 125 128 126 124 125 132 130 133 135 142 141 131 119 104 97 95 104 120 133 142 144 146 149 144 133 114 104 106 119 137 144 146 148 148 142 138 136 140 140 137 131 127 125 119 114 68 72 116 128 126 127 128 135 139 140 137 145 140 135 132 116 101 96 96 105 121 137 151 153 150 156 146 128 110 107 106 115 134 143 145 146 146 139 137 136 135 135 131 129 127 123 114 109 65 71 114 120 120 126 133 135 132 133 132 134 136 131 121 109 97 98 97 100 119 141 155 150 150 155 141 112 102 108 112 106 124 140 145 147 147 146 144 140 138 135 135 130 126 123 112 109 65 71 115 120 114 117 124 127 127 132 133 131 130 119 118 112 97 100 94 89 104 131 141 141 141 137 118 96 94 103 111 107 107 129 142 148 148 148 147 143 137 136 134 129 124 118 111 107 63 71 114 124 120 123 127 129 129 131 137 135 126 118 115 104 98 97 89 80 88 113 129 130 125 120 96 50 47 83 103 103 91 111 133 146 146 148 148 144 140 135 130 124 115 109 106 106 64 67 114 121 123 121 126 133 132 134 136 129 121 113 108 100 97 92 60 26 45 93 113 116 112 103 56 20 23 54 91 97 88 87 119 140 144 148 148 143 140 134 127 117 108 106 104 105 64 64 110 114 115 120 126 132 134 129 131 121 114 107 100 101 91 74 36 22 24 65 86 92 92 85 81 54 53 57 83 97 103 86 96 126 137 142 144 142 139 131 123 111 106 104 106 102 61 64 101 106 108 117 117 126 127 128 127 121 112 100 103 106 88 74 65 66 60 82 75 75 80 88 91 97 91 76 85 103 110 109 88 112 130 138 139 139 133 125 116 105 100 102 104 101 62 62 97 99 104 110 116 118 121 125 126 118 103 100 108 110 99 73 85 96 94 81 74 69 77 80 87 90 81 84 97 107 114 118 104 99 121 135 136 134 130 119 109 101 99 102 101 101 60 63 96 94 96 102 108 113 119 121 122 113 105 103 109 107 100 90 83 85 86 94 104 104 98 99 108 112 104 101 109 109 115 121 122 98 112 128 132 134 125 113 105 101 100 102 98 96 59 66 103 95 95 98 104 109 112 121 119 114 107 110 109 105 97 99 100 100 103 113 123 119 104 112 128 125 117 111 110 108 115 116 119 114 92 118 130 131 123 111 106 101 101 101 96 93 60 64 106 100 96 95 104 108 115 123 121 113 112 115 113 106 104 102 108 111 113 122 127 119 95 109 123 129 116 115 111 112 115 114 118 117 104 104 126 123 115 113 107 102 100 96 94 95 58 60 100 104 97 96 102 111 116 120 114 109 113 112 111 110 109 103 103 109 112 121 126 112 92 103 118 124 118 114 107 111 115 111 118 118 112 96 121 129 123 114 105 102 96 94 94 96 59 58 95 101 99 97 102 109 115 115 105 105 111 111 111 109 106 105 102 101 115 123 119 107 98 97 105 118 117 110 111 114 112 104 111 129 112 102 108 130 123 109 101 101 97 92 94 101 59 54 90 99 99 98 99 110 114 101 101 102 105 104 103 105 106 104 106 101 111 117 126 111 112 105 114 131 124 111 115 113 106 100 104 107 104 106 92 128 124 112 102 99 94 96 99 104 57 55 88 94 96 98 99 104 102 96 95 102 105 102 102 101 104 103 106 104 112 123 129 123 120 118 123 119 113 114 113 106 101 100 100 102 111 108 89 121 120 108 103 98 95 97 102 99 56 54 89 89 92 96 102 103 90 95 97 98 100 101 102 98 100 104 110 113 107 101 103 115 125 118 99 77 67 73 80 83 92 93 93 103 110 102 93 120 119 107 103 96 95 95 102 94 55 56 90 92 93 96 102 102 90 94 95 95 91 93 94 100 101 98 94 87 75 66 64 68 79 85 72 72 73 71 76 64 64 70 74 96 101 96 92 123 118 104 98 96 95 95 102 90 58 55 93 93 91 97 103 100 93 97 96 94 91 87 90 91 79 67 59 65 69 66 62 67 73 74 69 68 69 65 67 64 54 54 61 76 88 92 102 131 116 103 98 96 95 102 97 90 100 55 96 94 91 96 105 102 91 96 92 84 76 68 59 52 55 69 80 90 92 90 88 90 86 85 99 103 101 94 86 83 83 93 95 93 93 100 128 129 107 100 97 100 97 100 90 109 130 55 95 93 91 97 105 99 91 90 87 85 65 52 67 80 88 91 93 102 114 110 110 112 110 104 108 103 94 95 91 102 98 100 98 96 100 115 129 117 101 99 98 96 102 99 90 179 133 53 94 96 90 97 107 96 94 92 91 96 92 86 80 80 78 83 84 92 104 110 113 108 112 110 112 109 104 105 104 106 103 101 103 102 107 121 123 105 93 98 97 96 104 93 141 214 133 55 89 94 89 96 102 97 102 95 90 91 90 92 93 95 97 95 98 105 113 114 113 116 115 118 115 109 102 92 93 99 100 102 105 106 104 110 110 95 96 94 94 99 94 123 209 215 133 56 87 95 91 89 97 96 100 99 97 94 91 92 98 90 91 86 85 94 101 95 84 88 85 85 88 87 85 83 88 91 92 98 99 106 110 101 95 98 96 91 93 101 90 168 215 215 133 59 87 90 91 86 98 92 97 100 96 97 95 94 94 95 89 85 80 85 89 92 87 87 89 81 81 78 83 85 91 90 92 95 105 112 110 98 96 102 90 89 95 93 89 185 216 215 133 58 91 87 92 82 90 93 87 96 97 88 88 89 86 87 86 84 80 79 78 84 84 86 87 79 79 80 83 88 89 92 94 110 119 112 106 103 112 94 87 89 91 90 93 190 217 216 134 52 92 85 93 84 83 95 93 96 98 89 83 82 78 75 76 76 69 74 73 76 77 81 78 76 78 84 90 92 94 99 114 127 119 112 112 114 102 86 86 89 87 94 89 82 120 148 124 41 87 87 84 87 81 93 101 107 113 104 94 87 83 82 81 84 89 85 80 75 69 66 69 77 91 95 101 103 106 117 130 120 116 112 106 101 94 85 87 82 97 92 84 49 49 54 43 41 70 87 82 85 80 90 97 106 110 113 119 111 101 98 97 94 101 100 101 93 90 93 108 121 120 118 113 119 126 131 127 116 110 102 97 93 86 79 81 92 95 90 80 35 43 57 33 47 73 70 81 80 82 86 96 98 103 110 114 122 118 113 105 102 113 125 128 126 130 129 130 127 124 130 122 126 132 123 117 110 102 96 88 83 74 80 92 96 97 88 76 27 37 46 37 47 80 77 68 73 81 83 86 94 101 108 112 119 119 112 111 116 126 132 132 138 139 136 131 136 136 134 123 124 125 114 115 106 95 90 79 74 79 91 97 95 93 85 78 28 28 36 24 57 80 86 77 62 64 76 80 85 94 98 102 107 116 112 108 122 131 130 129 128 125 118 121 135 137 138 129 124 112 110 103 96 88 80 73 77 86 98 100 96 91 85 80 59 24 28 24 60 89 85 85 73 57 59 70 79 86 88 95 97 107 116 114 119 127 127 119 112 95 101 118 124 134 137 125 113 106 100 92 81 82 73 75 84 93 98 97 96 89 84 76 63 30 30 25 60 101 85 86 82 70 57 58 72 76 80 88 91 97 109 109 113 117 119 110 110 88 108 117 126 132 126 116 101 92 84 82 81 72 73 87 95 101 95 93 92 85 84 72 53 39 29 24 37 60 59 53 55 49 40 36 38 42 46 49 53 54 62 61 63 65 69 70 69 68 72 72 76 76 67 61 54 50 47 46 41 44 52 56 62 62 59 59 56 53 52 41 33 26 17 14 