P2
48
60
255
19 31 35 39 38 48 56 59 59 59 59 59 59 58 59 60 60 59 59 57 57 56 56 56 56 56 55 55 56 57 56 54 54 54 53 52 51 51 51 50 50 48 46 44 39 34 30 17 31 49 55 62 61 78 91 94 94 94 95 95 95 96 96 96 97 95 93 92 91 91 90 91 91 91 90 91 91 91 90 88 87 86 84 83 83 83 82 81 81 78 76 73 67 58 49 28 31 47 53 60 63 80 92 95 94 94 95 95 94 95 96 96 94 93 92 90 91 90 90 89 89 89 89 91 89 89 88 87 85 84 82 81 82 82 82 81 81 79 77 73 70 65 52 29 32 45 49 58 64 81 92 94 94 94 94 93 93 94 95 94 94 93 91 89 89 89 88 86 88 87 87 88 87 87 87 84 82 81 79 79 79 80 81 81 80 79 76 74 71 69 59 30 34 44 45 57 65 83 92 94 92 91 91 91 91 91 92 91 91 89 88 88 86 86 87 87 85 84 85 87 86 85 83 81 79 78 77 77 78 79 80 80 79 77 76 74 73 71 66 33 36 46 44 56 66 85 92 92 90 90 89 88 87 88 89 89 88 87 87 85 84 85 85 85 83 82 83 84 82 82 80 78 76 75 74 74 76 78 79 79 78 76 75 73 72 71 69 38 37 48 44 54 66 85 89 88 88 88 87 85 85 85 85 85 84 84 83 81 81 80 82 81 80 81 81 80 80 78 77 76 75 72 71 71 71 73 72 72 75 75 74 73 72 72 71 42 37 51 42 53 68 83 87 86 85 84 83 83 83 82 81 81 80 79 78 79 79 78 81 80 79 77 77 76 75 75 74 73 70 66 63 63 63 61 61 64 69 69 69 69 71 72 71 43 40 51 41 53 67 79 80 76 74 71 71 74 74 74 76 76 75 75 76 76 76 77 78 78 77 75 73 71 68 67 67 65 58 50 46 45 47 51 55 56 57 57 59 61 64 70 71 44 41 53 38 52 66 71 60 57 54 51 51 51 52 52 56 60 64 68 70 73 73 75 76 75 75 72 69 65 61 59 54 47 43 40 39 40 42 44 46 49 53 54 54 57 63 69 71 45 41 51 37 47 53 51 45 46 47 43 41 38 40 41 42 46 53 58 64 68 71 73 75 75 72 69 65 60 54 50 45 41 39 39 40 42 43 47 51 57 59 58 57 56 59 67 72 45 40 48 37 40 52 55 54 52 50 47 44 41 41 44 45 46 49 52 56 63 68 72 74 73 72 68 62 56 50 46 44 43 42 43 46 48 52 55 57 59 59 59 59 58 61 65 72 46 39 45 38 45 56 61 62 62 61 58 55 51 48 46 48 51 52 53 56 62 69 73 76 77 73 68 60 54 48 46 45 43 41 44 46 48 47 48 49 53 56 58 60 61 62 66 72 46 39 43 41 52 62 65 64 63 58 53 51 45 41 39 40 46 52 55 60 66 71 78 83 81 77 72 62 53 47 44 42 43 46 43 41 38 45 42 46 48 48 53 58 60 63 67 73 47 36 41 45 54 64 65 60 50 48 44 39 35 32 34 39 41 46 54 59 69 76 84 88 88 85 78 68 57 46 42 43 45 54 47 60 38 38 41 46 45 49 48 54 59 63 69 74 48 33 42 51 54 63 58 49 46 42 35 50 35 29 35 46 43 47 57 64 71 79 88 96 95 93 84 74 62 50 49 46 47 67 52 42 36 39 46 57 55 51 52 54 60 66 72 75 48 27 49 52 54 58 51 45 46 60 43 34 29 32 41 53 46 48 64 75 75 81 90 99 101 99 90 78 67 60 59 50 53 69 66 48 43 46 50 64 66 63 60 63 67 73 77 79 49 28 58 54 56 59 56 59 65 67 61 47 44 47 56 61 57 62 72 77 79 84 91 99 102 100 90 79 73 67 64 69 70 73 74 70 67 68 70 70 65 65 70 74 78 83 83 82 50 35 60 59 66 71 74 72 72 66 67 70 65 64 64 64 63 62 67 79 82 87 92 98 101 98 88 80 75 73 69 63 65 68 70 69 68 70 68 69 67 68 76 83 85 86 85 83 50 37 62 70 77 81 82 78 75 74 75 74 71 69 65 61 58 63 76 83 84 88 91 97 102 99 91 80 77 77 78 74 65 63 66 69 72 71 69 68 68 74 83 87 88 88 87 84 51 39 71 80 84 86 85 81 75 71 71 70 67 63 58 60 70 80 87 87 87 88 89 97 100 99 91 80 77 77 80 83 81 74 68 66 66 67 67 72 79 85 90 91 91 89 87 84 50 45 81 86 88 90 90 88 84 78 71 66 63 66 73 81 87 92 93 89 88 88 89 94 98 98 90 79 78 79 82 85 88 88 86 85 84 84 86 90 93 94 95 95 93 90 86 84 50 49 85 87 90 92 94 95 94 91 88 87 88 88 89 94 96 97 94 92 89 90 88 93 97 98 91 79 78 80 82 86 90 93 92 93 93 96 96 96 98 99 97 95 92 88 86 83 51 51 85 86 89 93 96 98 99 97 96 96 95 96 97 100 101 99 95 91 88 89 88 93 97 99 91 79 77 79 82 85 91 94 96 98 97 97 98 99 99 99 98 94 90 86 85 83 51 50 83 85 88 92 96 98 98 98 98 100 100 101 100 102 100 97 94 90 87 87 88 95 97 96 91 81 77 77 81 84 89 94 98 99 99 99 99 102 102 99 94 91 87 84 83 82 50 49 81 84 86 89 93 97 100 101 101 102 102 101 101 102 101 97 92 89 86 86 88 93 96 96 92 82 77 75 76 81 88 94 96 100 102 103 101 102 102 97 92 88 84 84 82 82 49 49 81 83 86 88 92 95 100 102 102 103 102 101 101 100 98 95 89 84 83 85 90 94 96 96 91 84 78 74 72 76 85 91 94 99 102 103 103 102 100 95 92 87 84 82 81 80 49 48 80 82 85 90 94 96 99 101 102 102 102 101 100 98 95 89 83 81 85 87 91 94 98 97 93 85 80 77 72 69 76 85 91 94 97 100 101 100 98 95 91 89 85 82 81 80 49 48 80 82 86 90 93 96 99 98 100 100 99 100 97 93 89 83 79 86 85 89 94 96 98 99 100 92 82 78 77 68 69 78 84 89 93 96 95 95 96 93 90 88 84 81 81 80 50 48 79 81 85 89 92 93 95 98 98 98 95 95 92 87 83 78 79 85 84 88 97 98 95 93 93 88 79 75 75 71 64 70 77 83 89 91 91 91 92 90 88 85 84 82 82 80 50 48 78 81 84 86 89 91 92 93 93 92 91 90 85 82 77 73 80 83 80 80 89 91 84 84 83 79 71 67 71 71 61 65 73 78 82 86 88 88 87 86 86 84 82 83 81 81 51 48 78 80 82 82 85 86 88 89 90 88 87 84 81 75 70 72 78 81 77 73 76 76 74 74 72 67 60 61 68 69 62 61 67 74 79 83 85 85 84 84 84 82 81 81 81 81 51 47 77 79 81 81 82 83 85 86 86 83 81 78 73 68 68 73 74 74 70 61 65 67 63 62 60 54 52 57 63 65 66 62 64 69 74 79 82 82 82 82 80 79 80 80 80 81 51 47 76 78 79 80 80 81 81 81 80 79 76 70 67 65 70 76 73 65 54 44 50 59 57 54 52 44 41 48 56 66 69 67 64 67 70 75 78 79 79 80 78 78 79 79 80 81 51 45 76 74 78 79 78 77 78 77 77 73 70 66 64 65 74 77 78 72 61 55 59 60 56 52 47 45 43 46 57 73 71 72 70 68 70 73 74 76 77 78 77 78 78 79 80 81 51 45 75 75 76 77 76 74 76 75 72 68 67 64 63 68 77 80 80 80 77 71 70 63 56 53 52 49 48 55 69 73 73 74 72 71 71 71 72 74 75 75 76 77 77 78 79 82 51 44 73 75 76 76 74 74 73 72 69 67 65 63 63 71 79 80 82 80 80 78 72 63 56 58 60 57 59 65 71 72 73 74 73 70 72 71 71 72 73 74 74 76 76 77 79 81 51 45 73 75 76 75 74 74 72 70 67 66 63 61 64 75 78 80 81 79 80 79 73 62 60 65 67 66 68 70 71 71 73 73 72 69 69 71 71 71 71 72 73 74 75 77 79 81 51 45 73 74 75 75 74 73 72 69 66 63 60 60 70 77 78 79 79 77 78 80 75 68 71 75 76 73 73 73 72 73 72 73 72 70 68 70 71 71 71 71 73 73 74 77 78 80 51 45 74 74 75 74 75 73 70 68 66 63 59 66 74 77 79 79 79 80 79 78 78 79 80 82 81 78 76 75 73 71 70 70 69 69 67 68 72 71 72 71 72 72 74 76 78 80 51 45 73 74 75 74 74 72 70 69 68 63 59 69 70 74 74 75 70 68 66 64 63 64 66 63 63 60 62 64 66 67 66 64 64 63 65 67 71 72 73 73 72 74 75 76 78 81 52 45 74 75 75 75 74 71 72 72 69 64 62 60 61 63 61 56 55 53 56 57 61 63 61 58 58 57 56 54 54 54 55 56 56 57 62 64 71 74 75 73 74 74 75 76 79 81 52 45 73 74 74 75 75 74 73 74 69 63 59 52 53 57 59 64 65 60 61 61 61 57 57 56 59 59 59 59 58 58 54 50 49 51 57 64 70 74 74 74 73 73 74 76 79 82 53 48 72 75 75 74 72 72 73 72 71 65 61 61 67 73 73 70 69 70 77 79 81 78 79 81 83 82 82 75 72 70 70 69 63 56 58 66 70 74 74 74 73 72 74 76 80 83 55 63 73 73 75 75 71 71 73 71 71 69 66 69 75 79 77 74 70 67 68 72 74 73 76 76 73 72 70 67 66 67 70 72 73 71 68 69 72 75 73 73 72 73 75 78 80 85 75 76 74 73 75 75 74 72 71 71 71 69 67 69 78 79 78 75 73 71 66 68 68 67 67 65 65 63 63 63 63 64 66 71 75 76 76 73 73 73 72 72 73 73 75 78 82 100 143 75 73 72 74 75 74 73 72 72 72 70 69 72 76 76 76 74 72 68 65 63 62 61 61 59 58 57 57 56 57 62 67 73 76 76 76 74 72 73 72 72 73 74 76 79 84 147 157 63 72 72 73 75 75 73 73 73 72 72 73 75 78 77 76 74 72 68 61 55 52 50 50 47 47 50 51 55 60 65 68 72 75 77 74 74 73 72 73 73 73 74 76 79 89 214 158 56 73 68 71 74 74 73 73 74 73 74 75 78 79 76 75 75 75 73 69 66 66 64 64 63 61 62 64 68 70 71 71 75 75 74 75 74 74 73 72 72 72 74 77 80 115 248 158 49 74 65 68 72 73 73 73 73 73 72 76 81 81 78 78 77 78 79 80 80 84 86 88 88 86 82 80 79 77 76 76 76 77 77 77 75 73 72 71 71 72 74 77 83 134 244 158 42 76 71 64 69 71 72 72 74 72 69 77 80 81 79 81 82 82 84 84 85 90 93 93 90 87 84 80 81 81 81 78 76 75 78 77 75 73 72 71 71 73 74 77 92 153 231 158 44 78 75 66 68 70 72 72 73 73 75 78 79 79 80 82 84 84 86 86 87 89 90 88 87 86 82 78 80 83 81 80 77 78 77 75 75 73 71 71 72 72 74 80 90 113 198 158 46 79 77 72 67 69 71 72 73 74 75 77 77 74 77 83 84 84 86 86 86 87 88 86 85 82 78 76 78 81 81 79 78 77 76 75 73 72 70 69 72 73 75 85 136 114 157 157 48 79 78 74 68 67 69 69 72 73 74 75 76 75 80 81 84 83 84 85 84 85 84 79 79 78 73 74 77 79 79 79 76 74 74 71 71 70 69 69 71 72 77 85 212 189 123 141 49 80 79 76 71 66 66 69 70 71 74 74 74 75 78 79 82 81 83 82 82 80 77 76 75 73 72 74 76 77 76 77 75 72 72 70 68 68 67 68 69 73 78 103 238 239 112 80 49 80 80 78 74 68 65 67 69 69 71 72 72 74 74 77 79 80 80 80 80 78 75 73 71 69 69 70 73 73 72 73 72 71 69 67 65 66 66 67 69 74 77 127 247 251 161 69 48 81 80 78 75 70 66 65 65 68 68 70 72 72 70 75 77 78 77 76 76 73 71 70 68 67 68 68 70 70 70 71 69 68 66 65 64 64 64 66 68 72 78 167 252 255 211 71 48 80 81 78 77 72 68 65 65 64 67 69 69 70 70 72 74 73 74 72 70 68 67 67 66 66 67 67 68 67 67 67 66 65 64 63 62 62 64 66 69 74 78 172 254 255 229 74 48 81 80 78 76 74 70 67 63 64 65 67 68 68 68 69 71 70 70 70 67 64 63 63 63 64 63 64 65 63 63 63 63 62 60 61 61 61 63 65 69 74 75 164 254 255 236 103 30 50 50 48 48 46 44 42 40 39 39 41 41 41 42 41 41 41 41 41 40 38 38 37 37 37 37 37 38 38 37 37 37 37 37 37 38 38 39 41 44 45 44 111 158 158 147 87 