P2
48
60
255
11 22 28 27 27 30 33 30 41 62 75 82 84 73 73 62 56 53 46 44 40 36 31 25 26 24 27 26 25 24 26 27 26 28 22 23 25 29 34 29 23 20 17 20 21 19 21 16 18 34 46 44 46 49 57 53 76 108 128 136 138 134 122 115 101 92 78 72 66 59 51 45 43 43 46 44 38 38 37 46 43 55 38 40 43 52 57 50 38 32 29 31 34 33 33 24 19 37 52 44 48 53 60 61 88 116 132 138 141 141 131 122 120 109 92 77 69 67 57 53 47 45 48 47 43 40 39 41 40 59 46 43 50 57 63 59 41 31 38 29 33 31 33 23 22 40 56 49 52 56 63 70 101 124 131 134 141 149 150 135 140 132 120 98 81 77 68 60 59 54 51 55 49 50 42 46 43 59 51 45 63 63 62 76 46 32 47 30 32 31 35 21 24 47 65 53 55 58 63 74 109 131 136 143 154 151 154 143 151 147 134 119 105 100 86 77 75 76 67 65 59 60 49 53 46 62 54 59 85 74 60 83 53 33 55 29 33 31 35 20 27 55 72 65 60 69 66 81 114 133 143 152 155 156 160 151 155 148 141 132 125 129 112 105 98 99 100 95 88 78 63 66 52 66 62 86 111 93 65 76 64 37 62 29 30 32 38 20 33 64 70 71 67 79 78 89 113 146 154 157 157 158 158 153 150 142 135 134 133 135 129 124 117 117 120 121 116 107 87 88 75 69 81 118 124 107 80 70 68 45 67 29 32 33 38 20 36 78 79 79 75 91 94 95 112 120 124 124 132 133 133 135 133 132 131 132 134 133 133 129 128 129 126 125 125 119 104 102 103 83 99 108 95 91 83 67 54 60 68 34 35 33 35 18 43 88 93 83 83 97 91 82 85 84 82 78 79 80 83 100 116 121 121 126 129 129 133 126 131 132 127 125 120 109 97 82 79 74 73 79 67 75 76 65 61 82 62 39 41 35 30 18 51 96 97 86 81 80 76 83 93 93 79 55 51 53 56 71 91 97 107 113 123 126 131 133 133 131 122 116 107 100 80 68 65 61 58 65 71 88 86 66 72 81 51 51 55 38 29 19 58 97 89 78 71 75 90 105 118 122 112 88 68 60 52 56 68 82 92 102 113 123 134 136 136 131 121 104 91 85 76 72 64 66 77 95 110 120 113 96 85 66 43 62 60 42 32 18 59 92 83 80 87 95 101 98 99 108 109 103 93 80 78 73 71 72 78 90 106 120 141 143 146 137 121 100 89 81 87 88 90 101 113 117 120 122 121 114 104 87 58 75 61 50 36 21 59 92 92 92 91 86 77 89 94 96 95 100 107 94 74 91 102 94 85 95 111 128 144 147 152 141 123 103 91 104 113 113 109 95 97 103 105 100 98 96 101 98 85 83 79 66 44 22 59 95 93 90 77 70 77 63 49 37 36 39 65 96 96 91 112 116 102 104 115 131 152 160 158 144 123 106 110 116 110 91 86 99 104 80 65 69 84 92 79 91 96 91 88 74 50 20 59 90 86 79 67 66 47 52 47 59 42 52 30 56 91 90 97 112 105 110 116 131 149 159 155 141 119 103 109 104 88 87 94 83 48 36 39 38 47 53 76 75 93 95 96 84 57 22 59 88 83 74 69 60 65 70 51 45 20 32 41 55 63 92 91 100 102 112 116 127 149 157 157 136 117 102 88 86 89 91 64 51 47 30 43 43 56 51 48 67 84 94 104 93 66 22 61 92 83 80 82 80 88 83 64 54 48 50 58 93 57 65 103 99 106 113 120 123 141 148 145 130 114 112 108 106 84 61 80 82 51 35 33 43 69 77 64 67 76 90 106 102 81 25 65 97 89 96 96 84 97 109 97 66 58 63 97 103 83 82 96 131 114 116 117 121 137 145 143 123 112 113 128 112 75 77 107 106 61 53 52 56 94 106 86 76 78 90 106 107 91 32 68 104 103 105 106 100 93 91 106 110 104 110 111 114 108 117 128 130 117 118 116 122 140 139 137 122 110 114 124 131 124 113 112 115 111 96 95 109 113 98 96 89 83 101 118 117 101 47 73 115 111 107 108 113 113 108 95 86 91 91 94 108 116 123 123 118 120 119 114 124 142 139 131 120 111 118 118 124 114 115 104 101 100 97 99 97 104 109 101 102 105 113 124 122 105 56 80 123 118 113 111 114 122 121 121 112 108 107 112 111 107 117 120 119 122 118 110 123 138 133 130 119 112 120 118 128 119 111 110 107 109 110 114 115 113 105 105 117 122 125 128 122 108 59 82 132 127 120 116 116 118 116 117 113 109 110 110 107 112 121 127 123 126 120 111 122 128 133 131 121 115 118 123 129 133 120 109 105 104 101 99 95 96 107 124 128 126 127 129 124 109 61 80 131 129 131 130 129 128 123 117 113 109 109 105 115 125 133 129 124 125 117 114 120 127 133 132 123 118 123 127 130 139 144 132 118 108 103 107 113 119 122 130 134 130 128 127 119 103 61 76 128 131 134 134 134 132 122 119 113 112 117 123 130 138 132 128 126 120 117 114 120 127 132 130 126 118 117 125 127 133 143 146 141 135 131 125 123 124 130 134 136 138 133 126 120 105 62 73 124 138 138 140 135 129 130 128 129 131 136 141 148 145 132 128 123 114 111 116 121 127 129 126 124 120 113 121 131 129 140 146 147 146 144 141 138 138 137 143 145 136 124 122 117 109 63 74 124 135 144 143 143 142 143 141 141 143 144 149 153 147 132 130 116 108 109 115 122 124 127 126 127 121 113 111 121 129 141 148 153 148 147 147 149 152 151 148 142 129 125 121 119 108 63 72 123 133 144 157 164 157 150 149 149 152 151 154 151 151 133 112 105 106 110 117 123 122 128 127 123 122 118 107 106 108 127 143 152 158 154 157 159 162 161 151 142 135 126 124 119 106 62 72 122 129 143 159 170 171 161 155 152 151 152 154 146 129 108 102 102 104 109 117 126 130 133 131 127 123 117 108 108 96 104 123 138 151 155 164 171 165 163 152 144 138 129 124 120 109 62 73 122 129 143 152 160 169 163 156 150 149 147 135 118 101 100 101 104 108 111 120 138 141 136 145 154 133 120 111 107 102 89 108 120 133 148 164 169 168 168 155 145 136 129 124 118 107 60 72 121 124 136 150 158 162 156 153 143 140 130 117 100 97 105 97 104 110 112 113 119 119 123 128 138 132 119 109 105 107 85 96 115 128 139 149 158 161 153 150 143 135 128 122 115 105 60 70 115 124 129 141 147 151 148 141 133 128 119 103 91 97 102 95 103 105 101 103 107 106 110 112 111 109 101 100 96 100 84 78 100 118 127 138 143 146 141 139 136 128 123 119 109 103 55 67 112 118 126 131 136 137 139 133 125 123 109 90 90 96 93 89 87 86 84 86 90 92 92 92 89 85 83 83 83 88 80 65 84 104 118 125 130 133 128 129 128 125 120 116 105 99 46 64 107 108 117 118 121 124 123 120 117 112 94 87 91 87 81 71 58 55 63 64 67 69 65 65 65 63 54 52 64 77 86 71 71 95 111 120 123 124 123 122 122 121 116 111 103 97 37 61 100 98 111 115 114 112 113 115 109 100 86 98 98 77 61 40 24 22 27 40 54 54 53 53 43 34 33 40 68 92 92 81 62 83 102 110 115 116 117 115 115 112 107 104 100 94 31 58 94 97 102 109 108 108 108 107 105 96 98 111 111 93 53 42 44 44 40 38 45 51 53 49 47 54 60 76 98 103 99 87 65 69 92 102 106 109 110 107 107 105 100 98 97 92 27 54 90 91 95 101 103 103 102 102 101 100 108 113 113 113 101 81 77 77 61 51 50 53 56 62 78 90 94 102 105 103 98 90 72 59 79 95 102 103 102 99 100 97 94 95 94 89 26 50 84 87 88 91 92 95 97 100 106 112 111 114 110 113 113 109 107 99 91 83 75 77 80 85 91 98 102 105 105 102 98 90 81 54 69 84 95 99 98 95 94 92 90 90 93 85 23 50 83 84 84 86 85 87 92 97 104 108 110 111 111 115 115 118 118 112 110 113 113 113 110 103 101 103 105 106 102 102 98 96 91 66 57 73 86 93 97 93 89 87 88 91 94 83 22 56 89 88 86 83 85 84 84 92 100 102 105 105 107 109 114 115 113 114 116 118 122 123 123 119 114 114 112 104 104 100 99 96 97 87 56 64 81 92 96 96 92 89 90 93 94 78 19 60 94 96 92 93 83 75 81 91 95 99 100 101 102 106 109 111 112 112 118 121 124 128 133 132 129 127 118 106 102 100 99 98 96 94 68 57 82 92 100 101 99 96 94 92 93 72 17 62 104 107 106 99 88 77 85 89 93 94 93 97 98 100 103 106 115 118 118 123 128 128 134 137 130 119 103 95 88 89 91 90 87 88 79 65 91 100 112 108 106 100 98 95 94 62 16 64 110 112 113 107 97 88 81 81 83 84 85 88 92 95 98 101 109 112 111 112 112 109 106 99 90 79 71 64 52 43 45 55 70 86 96 91 111 112 119 112 107 102 99 99 94 56 21 66 108 115 119 117 109 98 90 75 71 74 77 82 84 83 83 85 82 86 88 84 80 78 73 58 46 42 43 51 48 60 81 96 101 107 111 117 127 123 122 114 105 102 100 99 92 55 29 66 108 115 124 123 122 108 99 87 70 46 36 43 48 48 49 53 54 59 61 53 45 56 76 79 85 88 89 92 96 101 105 109 112 117 124 135 135 130 122 113 105 103 102 97 91 60 48 70 113 117 124 126 128 117 106 100 100 92 69 55 51 57 59 60 59 67 86 94 103 113 119 116 112 108 106 107 105 107 111 117 121 125 137 138 134 130 122 111 102 102 102 96 88 73 54 69 111 119 125 126 129 123 109 106 108 106 104 97 99 94 99 103 105 111 113 113 113 117 125 119 109 105 107 108 109 115 117 125 129 135 140 137 128 129 117 106 100 101 101 94 77 84 59 68 111 119 125 125 127 125 114 104 111 110 102 100 98 96 101 103 109 107 101 102 100 99 99 105 109 110 115 115 116 121 120 127 136 139 134 131 128 123 112 103 101 100 98 91 66 127 105 65 104 115 122 123 125 126 121 113 111 110 104 100 99 102 100 95 89 85 84 88 90 97 109 115 115 118 124 125 125 121 121 131 139 139 134 126 120 116 107 101 102 97 94 88 90 176 116 62 104 108 113 117 122 125 123 113 110 107 101 100 104 107 113 115 108 105 111 115 117 118 118 122 129 126 132 130 125 120 122 135 141 136 130 121 115 107 102 99 98 95 89 82 135 189 119 61 102 105 109 111 118 124 125 115 111 110 104 105 104 105 115 124 124 119 120 121 123 128 132 136 138 134 132 129 123 121 125 141 145 134 126 117 110 103 101 97 96 92 87 70 161 185 117 60 97 101 105 109 113 121 127 116 111 108 107 107 104 105 115 123 121 122 126 129 134 139 140 143 143 137 134 128 121 121 132 145 138 127 118 109 104 101 97 95 91 87 83 63 160 186 118 56 95 97 98 103 111 121 126 122 110 109 108 110 109 112 117 121 131 137 138 135 133 142 147 141 138 135 133 129 123 124 136 144 135 122 113 104 102 97 95 92 88 84 116 145 157 188 118 55 92 94 97 101 107 119 123 125 113 110 109 111 113 119 125 128 129 138 143 139 135 141 149 141 134 131 128 128 121 128 136 139 130 122 113 108 102 97 94 90 86 88 154 181 179 190 118 54 89 92 94 99 107 117 120 122 119 108 108 112 115 119 122 122 127 137 149 135 137 142 153 144 133 130 129 126 124 128 134 133 126 120 112 108 105 98 95 90 86 108 155 181 186 190 118 51 91 97 96 98 100 109 116 120 116 110 108 111 116 116 120 123 126 134 142 132 133 136 146 146 136 128 126 125 126 126 132 126 122 119 112 112 104 100 94 88 83 100 153 180 188 190 118 54 88 94 96 99 102 107 118 119 112 107 106 107 113 116 119 125 129 139 142 132 129 129 138 140 134 128 125 126 127 125 125 121 116 114 114 108 105 100 94 86 92 128 162 184 189 190 119 52 90 91 95 97 101 103 112 120 114 108 105 107 110 117 115 124 128 132 133 126 124 126 129 130 129 124 123 124 122 117 115 114 112 114 112 107 102 98 88 85 86 125 163 182 189 190 118 48 85 92 94 94 95 100 102 111 113 105 104 106 109 113 116 120 124 124 124 118 119 116 119 119 118 117 116 116 116 110 107 108 107 110 110 104 99 92 85 84 108 142 181 190 191 190 117 46 79 83 89 91 91 94 98 103 107 104 102 100 105 107 110 115 112 111 112 109 112 111 111 111 110 108 108 109 105 104 102 102 103 107 105 98 95 86 85 74 94 125 167 188 190 190 118 24 46 48 52 53 54 53 56 59 62 62 62 63 61 63 64 65 66 65 65 64 65 64 65 65 63 63 63 63 61 61 59 60 62 63 62 59 56 50 58 57 59 89 113 117 118 117 73 