P2
48
60
255
34 56 57 59 58 51 49 45 43 41 39 37 35 33 32 31 31 32 36 38 40 39 38 43 43 42 39 39 37 35 33 33 37 41 45 49 52 52 50 49 47 46 47 48 47 46 43 25 55 92 93 95 94 90 82 74 68 65 59 58 57 59 57 57 60 60 61 62 63 66 73 74 74 70 66 62 60 57 60 65 68 72 78 83 85 85 84 82 79 79 76 78 78 76 73 41 56 92 93 97 98 99 94 84 80 77 73 69 66 64 64 65 65 68 69 71 76 78 79 80 81 81 80 78 75 74 74 71 74 81 86 86 88 88 89 84 82 83 79 78 79 77 76 44 56 92 94 96 99 101 100 96 89 81 76 74 77 79 80 82 87 90 90 88 85 86 87 91 94 94 93 89 89 85 82 82 88 93 92 90 90 90 91 86 86 86 81 79 78 77 77 45 56 92 94 95 98 100 99 99 97 96 92 90 90 95 100 106 110 108 104 102 99 101 100 99 101 102 101 100 96 95 97 99 102 102 99 96 92 94 93 90 89 87 86 81 80 78 79 47 56 92 94 94 97 98 99 99 100 101 104 108 112 115 116 116 116 115 115 116 117 118 117 113 111 107 106 106 104 106 108 108 110 108 104 99 98 97 94 93 90 88 87 84 81 79 80 49 56 92 94 93 96 99 101 103 105 110 114 118 119 121 122 120 120 120 117 120 120 120 120 119 117 115 112 110 110 111 110 111 110 108 105 102 102 100 96 94 93 89 89 87 82 81 81 50 57 92 91 92 97 99 101 102 105 112 115 119 120 122 121 119 117 116 116 119 118 118 118 114 115 113 109 109 107 106 107 106 105 106 104 101 99 97 96 93 92 91 89 87 85 82 82 51 57 92 90 92 96 95 84 84 91 92 97 104 106 110 111 111 110 109 111 113 114 112 112 109 109 106 103 102 100 100 99 99 99 97 92 88 83 80 80 78 76 80 88 87 84 83 83 52 56 90 88 93 85 71 68 69 71 72 67 67 63 67 75 80 85 92 98 104 106 107 107 106 105 102 99 97 92 88 82 77 73 69 65 61 59 60 62 64 62 61 68 78 83 83 84 52 55 89 87 79 73 72 73 73 68 62 55 51 49 48 53 55 62 71 82 94 99 104 104 103 101 98 94 90 82 73 67 63 57 53 52 50 51 54 59 61 63 64 62 64 71 83 84 52 55 89 83 70 69 74 82 85 86 82 77 70 66 60 59 60 63 68 76 87 94 99 101 100 97 93 89 83 73 66 61 57 54 54 55 58 65 72 77 79 76 73 69 67 65 77 83 53 55 88 76 72 79 81 86 86 82 78 71 65 59 56 55 58 64 70 76 83 91 95 99 99 94 88 82 74 66 61 58 58 57 57 60 66 71 75 78 79 77 76 75 72 69 70 82 53 54 85 78 78 82 81 76 67 67 73 75 66 57 54 53 51 52 63 73 81 90 96 103 102 96 87 79 69 59 55 56 54 54 65 73 77 75 75 68 64 66 70 71 72 72 72 78 53 55 89 87 84 82 75 62 68 66 56 46 47 46 43 51 51 55 55 68 78 89 98 109 111 102 91 79 67 55 54 50 58 69 69 62 52 54 56 63 68 65 59 63 68 71 73 78 51 59 92 89 87 82 68 63 56 52 58 46 56 37 48 63 62 54 62 70 83 88 99 113 118 107 94 80 67 59 53 61 64 63 85 65 74 47 49 51 54 58 63 56 62 69 73 79 52 61 97 95 90 83 74 64 56 63 76 56 48 46 55 75 72 67 73 87 91 92 99 114 123 114 99 81 72 71 70 67 70 83 100 74 58 44 51 56 64 55 56 59 59 68 74 81 52 62 101 99 90 85 86 79 75 80 87 84 75 74 80 81 82 80 85 95 95 95 100 113 121 118 101 84 77 80 86 88 85 84 94 96 62 55 56 63 70 65 61 62 68 72 78 83 53 63 104 103 100 101 100 90 82 87 92 88 83 80 76 73 73 78 90 100 103 103 102 111 119 118 104 86 82 85 88 89 89 91 93 88 84 79 78 78 77 70 71 74 76 77 85 89 55 62 102 105 108 109 105 96 91 86 82 81 79 75 73 75 84 94 102 109 112 106 104 113 118 116 105 90 84 88 92 91 90 87 83 82 81 79 78 77 77 75 78 81 86 87 91 93 58 62 102 106 111 110 110 108 103 101 97 96 97 97 96 97 102 109 113 115 113 106 104 112 116 114 106 92 87 88 96 98 98 93 88 84 81 82 81 81 80 79 80 83 89 94 97 96 60 60 103 109 112 112 110 110 109 108 110 114 112 111 110 110 114 116 117 118 111 104 103 111 116 113 109 91 87 87 94 101 102 101 97 91 89 87 84 82 82 83 86 90 94 99 99 96 59 60 103 108 112 112 112 110 107 107 107 108 110 111 114 117 118 121 122 117 109 103 102 109 115 115 110 92 85 85 92 99 105 108 108 104 100 98 99 98 96 94 95 96 98 103 102 95 58 59 103 108 112 112 112 112 111 110 108 109 110 114 116 119 118 120 120 117 108 102 102 107 113 115 109 92 86 85 89 96 104 110 115 114 109 106 106 106 106 104 103 101 102 103 101 97 58 60 103 107 110 112 113 114 114 112 113 114 115 116 118 118 116 116 118 113 106 103 102 107 114 116 110 94 87 85 86 92 102 110 117 120 121 114 108 104 105 105 104 102 102 102 99 96 58 59 100 105 108 113 114 114 115 117 118 117 118 119 117 114 114 113 114 108 102 101 103 108 114 116 113 97 89 86 84 87 97 107 116 119 123 120 114 108 106 102 103 102 100 98 96 94 57 59 99 105 108 110 113 114 118 121 121 121 120 118 115 111 109 105 102 98 98 102 104 107 112 112 110 99 92 88 83 81 88 101 110 116 120 122 117 111 107 102 101 100 99 95 94 92 57 58 99 102 106 108 111 115 118 122 124 120 118 115 110 104 99 94 97 97 99 103 105 108 110 111 109 100 94 90 85 79 78 91 102 109 111 115 116 111 110 103 102 97 96 94 93 92 57 58 98 99 102 105 108 114 116 119 121 115 115 110 104 98 92 90 96 97 99 103 105 109 115 112 113 108 98 90 86 83 77 78 91 101 107 112 111 110 108 105 102 97 94 92 93 91 55 57 96 98 99 102 106 111 113 114 115 112 109 105 98 93 87 89 92 95 97 101 109 116 115 113 114 113 100 89 84 82 80 72 80 91 99 105 109 108 106 102 101 98 94 92 91 90 55 58 94 97 96 100 104 108 109 110 110 106 102 99 94 88 89 84 87 93 92 96 106 115 108 103 103 99 92 83 80 79 79 68 72 82 94 100 104 104 103 102 100 97 94 93 91 90 55 57 93 95 96 99 102 102 105 105 105 102 99 96 90 87 91 86 84 88 85 85 90 97 94 89 92 88 78 69 70 74 74 69 70 76 88 95 101 102 100 100 99 96 93 90 88 88 55 55 93 95 95 97 98 101 101 100 100 100 95 91 87 90 94 93 93 82 70 60 71 78 76 74 76 70 58 52 57 63 67 76 76 76 83 91 97 98 98 98 97 95 92 90 88 87 54 55 92 95 96 96 98 98 100 97 99 96 93 89 88 95 98 97 94 92 78 63 65 67 65 60 58 51 45 45 47 53 71 78 79 83 86 91 95 96 98 98 95 94 92 89 87 87 54 53 90 93 96 96 97 97 98 98 97 95 93 90 94 100 101 97 93 90 86 77 73 73 73 64 58 53 49 48 48 56 76 86 87 86 89 92 94 96 97 97 95 93 92 88 86 85 53 54 88 90 94 96 96 97 96 97 97 94 94 95 97 98 100 96 91 83 82 81 78 76 71 68 67 60 57 56 57 67 81 86 88 89 90 92 94 94 96 96 96 93 90 87 86 86 53 54 88 91 93 96 96 98 96 98 96 98 99 100 97 96 95 91 86 82 79 78 79 76 69 68 69 66 69 66 69 76 83 87 87 89 91 93 94 96 96 95 94 91 89 86 85 86 52 53 87 88 92 93 96 95 95 99 100 102 101 97 93 90 88 85 82 81 80 80 80 74 67 72 73 78 77 76 75 74 78 82 83 85 90 93 94 95 95 94 92 90 88 85 85 86 52 53 89 89 90 88 92 94 99 101 101 103 97 92 85 84 84 82 82 87 92 93 93 88 83 81 87 89 89 85 79 74 72 72 76 78 85 90 94 94 95 95 92 89 86 84 84 84 53 52 85 87 90 90 92 95 98 102 105 103 94 88 84 79 81 86 88 91 91 88 87 90 94 98 99 102 102 97 90 81 73 72 69 73 79 86 91 94 94 94 92 86 84 83 84 85 51 53 87 88 87 92 93 94 96 100 104 101 93 85 74 63 67 74 73 65 60 60 61 63 66 71 70 68 69 70 76 76 74 71 67 65 76 80 87 92 92 93 89 86 84 82 82 82 50 51 84 86 87 90 91 93 95 98 100 100 91 80 64 55 53 46 50 49 63 71 76 79 88 75 67 62 58 55 55 54 58 61 60 56 68 78 87 90 92 92 88 84 83 81 79 79 50 51 84 84 86 87 87 90 94 95 98 98 92 81 76 77 86 72 61 49 59 51 60 75 85 79 76 71 64 51 51 44 46 43 45 47 61 77 83 86 91 90 86 82 80 77 77 77 49 95 83 82 85 86 85 88 90 92 94 96 91 84 87 91 98 92 80 78 78 76 72 72 68 63 61 65 64 63 61 60 59 61 69 70 66 76 83 86 89 89 85 80 76 76 75 77 49 150 109 81 83 84 83 85 88 90 92 92 86 86 90 97 99 97 93 86 85 90 89 88 86 87 89 89 90 88 80 76 75 78 81 84 83 84 85 86 88 86 81 77 75 75 75 76 48 158 191 80 79 80 81 84 84 87 90 87 88 89 91 98 99 97 94 90 86 87 92 92 91 92 94 93 92 85 75 74 75 76 80 85 88 87 87 84 84 81 77 73 73 72 72 74 47 139 136 78 77 80 80 79 83 83 88 89 86 88 91 98 100 97 95 90 86 84 84 85 85 86 86 83 79 74 72 72 72 74 79 84 90 88 88 83 81 79 75 73 71 71 73 72 45 67 90 74 70 75 77 78 81 85 84 86 83 85 86 91 97 95 95 91 84 79 76 73 71 68 68 66 63 62 65 67 69 76 81 84 85 85 88 82 80 77 75 71 69 69 70 70 44 52 77 82 73 71 75 74 79 79 80 81 82 83 85 88 94 96 96 92 87 80 71 65 61 61 59 58 58 59 61 64 74 78 81 82 82 81 80 80 79 75 74 70 68 67 70 69 43 47 87 92 79 67 72 73 75 77 77 77 77 80 80 84 87 93 95 94 92 87 83 77 68 63 59 65 66 69 74 76 80 81 81 79 78 74 75 78 77 73 69 69 65 66 66 68 44 53 95 88 80 69 69 70 74 73 74 74 76 80 82 79 81 87 93 94 96 93 88 84 79 72 70 74 78 80 80 80 81 80 78 75 72 73 74 74 75 71 66 66 65 65 65 68 43 55 84 86 81 78 62 68 71 75 74 76 73 79 77 80 81 85 87 94 100 102 99 97 89 84 85 86 86 85 82 83 82 81 77 72 69 70 72 72 72 67 64 63 62 63 64 68 40 58 76 78 78 82 69 65 70 71 72 71 70 77 83 83 77 84 87 90 103 109 110 105 102 97 94 93 91 90 92 90 88 82 77 69 72 70 70 69 67 63 62 60 63 64 64 66 41 55 81 71 72 83 76 63 63 65 67 67 69 72 78 81 83 86 89 92 100 107 105 104 103 101 101 100 98 96 99 95 88 79 75 71 70 69 66 65 62 61 61 60 61 63 64 63 42 47 81 76 69 81 79 69 60 62 65 64 65 67 71 76 79 82 86 92 95 96 100 102 99 97 97 97 97 96 93 89 83 78 73 70 68 66 63 63 58 58 59 58 59 63 62 64 43 42 74 80 64 81 83 75 67 58 61 62 61 61 65 75 75 76 78 85 86 93 99 95 89 89 91 93 93 89 87 85 80 74 66 67 68 64 60 58 56 57 57 56 59 61 59 66 44 42 68 71 64 80 85 80 72 65 57 59 59 60 60 65 69 75 74 79 82 86 87 85 80 78 81 85 85 81 80 79 78 74 65 60 59 61 56 55 55 54 55 56 58 56 61 68 43 43 63 56 64 80 86 83 77 68 64 56 57 57 58 63 63 68 69 71 75 78 77 74 73 68 71 77 79 77 74 74 70 64 63 59 57 54 54 51 51 52 54 55 54 58 64 68 45 44 53 41 62 80 87 85 80 74 68 63 55 55 54 56 59 63 60 66 69 68 72 68 66 64 68 71 75 74 69 68 61 56 56 54 54 51 49 49 50 51 53 52 54 59 62 69 46 27 27 25 38 48 54 54 52 48 44 39 38 33 33 32 35 36 37 37 39 39 41 41 39 39 42 45 45 43 39 38 34 31 33 31 31 29 29 29 31 32 32 32 35 37 39 44 28 