P2
48
60
255
38 65 67 69 70 70 70 71 75 75 77 75 75 80 81 84 85 83 83 84 84 87 87 85 85 83 82 84 83 79 79 78 80 75 74 72 72 69 67 66 65 66 65 63 57 54 51 29 60 104 108 111 112 115 115 116 120 122 125 124 128 132 131 132 137 134 132 137 140 139 136 138 139 135 135 134 137 136 132 131 128 125 122 120 116 111 107 108 104 100 100 98 93 88 83 48 61 103 107 110 112 112 115 118 121 121 124 127 131 134 134 135 135 137 137 134 139 135 133 135 133 133 134 133 135 134 132 128 126 127 123 117 113 110 108 105 102 98 98 96 94 86 83 49 61 101 106 109 111 111 114 116 119 121 123 126 126 128 133 137 135 132 134 136 138 136 135 135 127 128 131 133 134 130 124 118 121 122 118 113 109 109 108 107 103 101 99 94 91 86 84 50 62 100 106 108 110 112 114 115 117 119 120 123 123 128 129 131 130 129 130 138 138 132 129 127 122 121 129 129 125 123 116 116 114 114 113 109 107 107 105 101 102 100 97 92 87 87 84 51 60 98 102 107 110 112 114 115 114 116 117 118 120 122 125 124 127 129 134 132 128 127 123 123 121 124 126 123 121 119 113 108 109 108 107 104 104 103 101 101 97 95 95 91 88 87 86 53 61 97 102 108 110 110 113 113 113 113 114 113 115 119 117 120 123 125 127 122 121 122 122 120 118 122 123 119 116 110 105 105 105 103 102 100 99 97 98 97 99 98 94 91 89 87 88 54 60 98 101 106 107 108 110 111 108 109 108 111 111 111 111 111 114 114 116 119 119 116 115 115 116 116 111 109 106 104 100 95 96 96 93 92 92 89 92 94 95 96 95 91 88 88 89 56 61 99 99 104 108 108 104 105 102 102 101 104 104 104 103 102 103 101 103 104 106 110 109 109 109 103 99 99 95 94 88 83 82 76 78 76 77 77 77 83 88 90 90 88 90 89 90 56 61 99 99 99 97 93 95 95 90 91 90 91 91 92 90 89 88 91 93 96 101 103 106 107 102 98 94 89 81 80 74 69 63 60 58 59 60 60 61 67 73 75 81 84 85 88 90 55 58 96 90 77 76 74 76 72 72 76 72 70 69 67 67 70 74 77 83 87 94 96 101 100 97 93 87 82 74 67 62 59 53 50 49 50 47 46 49 53 58 60 64 68 74 81 86 54 58 84 67 58 57 56 59 62 59 56 53 49 48 49 51 57 61 65 70 80 88 92 92 92 92 86 82 75 68 59 55 52 47 46 44 43 41 43 47 48 48 49 49 52 57 68 78 51 51 68 55 49 48 48 49 51 49 46 43 43 44 45 48 50 54 57 63 72 80 84 83 82 83 79 73 67 61 55 51 49 47 46 46 48 51 54 56 55 52 51 50 51 53 59 68 48 49 71 62 61 59 58 60 61 56 51 48 45 43 42 44 48 52 55 59 65 74 78 79 79 77 72 65 59 55 52 50 48 45 42 42 44 48 52 54 54 55 54 54 54 55 56 61 43 51 72 66 62 62 59 53 47 41 35 31 30 29 31 35 37 41 48 56 64 74 82 84 84 78 68 58 53 51 48 44 38 36 34 31 31 32 36 41 43 45 49 54 55 55 55 59 40 54 79 70 63 57 48 42 38 39 38 30 28 28 31 39 38 40 41 51 70 88 102 109 102 91 75 60 52 46 40 37 36 35 35 30 29 30 34 37 40 43 43 47 52 53 55 59 41 62 95 82 70 58 51 49 48 50 55 36 32 33 41 49 44 43 50 57 79 98 110 117 114 100 86 66 51 44 40 36 35 41 45 34 31 32 38 45 42 42 44 47 51 54 58 65 44 65 103 100 89 80 81 76 69 64 66 64 63 61 69 71 73 74 74 83 91 103 116 124 122 108 90 69 56 52 51 50 52 58 58 56 52 50 54 52 52 54 52 54 56 61 68 74 50 68 112 114 113 108 100 93 87 86 84 79 77 77 83 83 88 91 92 101 101 105 114 126 120 107 90 73 67 68 66 65 64 67 71 70 66 65 63 63 60 60 61 65 70 75 79 85 56 70 116 117 118 114 105 100 96 92 94 89 89 89 90 94 99 100 105 110 103 107 114 127 120 107 91 78 74 83 87 83 78 75 75 75 74 73 72 69 64 64 68 72 80 89 94 97 60 66 117 120 117 115 114 104 99 97 96 95 96 98 99 101 106 110 109 109 106 110 117 130 117 102 89 83 78 86 95 96 93 88 87 86 79 78 75 71 71 71 77 85 92 102 107 107 64 69 116 119 120 118 115 110 108 105 101 102 101 105 104 110 115 117 114 112 109 109 120 129 118 103 92 87 84 86 95 100 99 98 97 94 92 91 88 86 85 87 92 100 106 114 116 111 66 69 114 119 121 118 120 117 113 114 111 107 106 109 116 121 121 118 114 111 111 113 120 125 117 104 95 86 82 84 93 100 101 106 107 103 102 100 98 98 100 105 108 112 116 118 117 111 65 68 112 119 119 121 121 121 120 118 118 116 118 122 124 122 120 119 113 112 111 114 121 126 117 107 96 86 82 84 91 99 104 108 110 110 110 107 108 108 111 114 117 119 121 117 116 109 63 66 109 114 117 122 122 120 118 118 119 118 123 125 124 122 122 116 111 110 110 112 120 126 118 110 102 92 84 81 87 95 105 109 113 114 115 114 115 115 114 114 118 115 114 111 109 102 60 65 108 111 113 116 116 116 120 119 118 121 122 125 125 120 114 110 103 108 112 116 121 126 122 115 106 96 85 78 79 88 102 110 114 115 117 117 116 115 115 112 109 109 105 104 103 96 57 64 107 108 108 111 112 114 120 119 124 124 124 122 121 114 106 99 96 108 114 121 123 127 126 122 106 97 88 82 71 79 99 109 112 114 119 117 117 115 115 111 106 104 97 96 97 94 56 62 104 107 107 110 112 111 117 122 123 123 121 114 112 104 97 90 100 111 117 120 122 134 126 118 108 100 92 93 82 72 91 103 110 113 116 117 114 113 112 107 97 98 100 98 94 91 55 62 102 102 107 110 113 115 116 120 120 122 119 114 107 93 87 88 104 111 115 115 120 150 125 111 106 103 98 96 88 75 80 94 105 109 112 114 110 105 106 104 95 92 97 96 93 90 53 61 99 103 105 109 113 116 117 117 117 117 115 106 96 86 84 90 98 100 103 107 111 118 108 103 99 95 89 87 83 77 71 86 98 107 109 107 103 102 102 101 99 95 93 93 93 86 52 59 98 99 101 106 107 110 112 111 111 111 109 102 89 81 85 88 89 88 86 89 93 93 93 93 86 73 68 69 70 67 62 85 93 98 101 101 100 98 96 96 93 92 92 92 88 85 51 58 95 97 101 105 107 109 110 106 105 107 103 95 83 86 95 87 76 70 68 70 75 79 79 77 66 56 53 50 53 53 55 79 90 91 97 97 95 95 89 90 90 89 90 89 86 81 48 57 93 97 99 102 103 107 105 105 103 103 99 90 83 97 103 95 63 48 39 46 59 62 60 60 54 45 38 36 40 46 54 75 89 91 92 94 93 91 89 89 88 88 85 83 83 79 47 56 94 95 97 100 101 103 102 102 100 100 94 88 92 104 102 99 71 45 37 38 41 50 48 45 39 36 37 37 41 51 60 77 88 93 93 92 90 87 83 84 85 84 82 79 77 76 48 56 94 97 97 95 99 101 102 99 97 95 93 91 101 104 101 99 90 73 62 58 52 45 40 39 39 41 44 46 53 63 70 79 85 91 94 91 89 85 84 82 81 78 77 76 73 75 46 57 92 93 94 93 95 98 97 95 95 95 93 98 104 102 99 96 96 94 87 88 78 62 52 48 48 51 53 58 65 71 74 74 76 81 87 94 89 83 79 78 77 76 73 72 70 71 43 55 91 91 91 93 94 95 95 94 92 95 98 103 98 97 97 96 96 94 94 97 90 76 66 63 61 65 66 64 72 74 76 70 68 69 75 88 91 86 78 78 76 73 71 68 67 67 43 55 88 90 90 91 93 94 95 92 91 96 100 101 96 92 90 94 95 95 94 100 92 79 76 80 78 75 74 73 69 70 71 62 60 62 69 79 89 84 80 78 77 72 70 68 66 65 41 54 88 88 88 90 91 89 90 95 94 98 99 93 93 89 86 86 88 94 99 107 101 90 88 94 96 95 90 78 70 64 59 56 55 60 67 73 80 69 71 76 77 74 70 67 65 65 41 52 86 86 86 90 90 91 89 92 94 98 96 90 87 83 80 84 86 97 101 102 107 105 101 102 102 101 83 76 73 63 58 51 50 55 63 69 77 74 76 73 76 71 70 65 64 63 38 53 84 86 84 84 87 90 90 90 93 93 91 86 83 74 72 80 86 82 72 65 68 71 73 73 68 64 56 54 56 55 52 47 45 49 60 73 78 77 77 73 78 74 67 63 61 62 38 54 83 83 82 83 85 88 88 91 93 93 89 84 75 63 56 62 63 54 47 48 51 49 49 48 47 45 44 40 37 39 40 39 37 41 59 72 75 76 79 79 75 71 65 61 59 60 39 55 85 82 82 84 83 87 89 91 95 91 87 81 70 54 44 44 41 32 31 31 35 36 36 35 35 36 41 47 50 52 54 53 59 66 76 79 80 80 80 79 76 69 63 59 58 60 38 55 84 82 80 81 80 83 84 91 96 91 86 79 70 68 85 83 75 75 74 76 76 64 62 62 67 77 82 83 83 83 81 76 76 87 95 89 83 82 81 77 75 66 59 57 58 60 38 57 84 79 79 76 78 80 86 93 95 91 86 81 79 93 103 96 92 95 93 96 100 95 93 93 93 99 95 94 88 85 78 76 82 92 97 93 83 82 78 74 70 63 58 56 56 58 38 75 85 79 79 77 78 79 82 89 91 89 85 82 88 102 105 99 90 90 94 95 107 111 106 99 102 96 84 78 73 70 71 78 88 95 95 92 86 79 76 71 64 60 56 55 56 58 38 98 88 80 79 77 74 75 79 84 86 85 86 86 96 102 104 99 92 86 86 84 85 84 81 80 76 69 64 62 62 65 69 81 91 93 94 92 82 76 74 67 61 58 55 54 55 59 41 112 89 81 76 79 76 73 77 80 83 80 83 89 95 101 101 98 91 84 81 75 67 59 55 55 52 50 53 57 60 62 73 85 91 90 88 87 80 76 71 63 58 55 53 54 55 61 45 130 90 83 76 76 75 74 73 75 76 77 80 87 93 97 99 97 92 82 74 67 60 54 52 51 51 52 57 62 67 73 82 89 92 92 86 83 76 71 66 61 58 55 54 53 56 64 52 141 94 82 77 75 75 72 71 74 74 75 80 85 92 94 99 99 94 88 79 71 64 64 66 69 69 69 70 75 80 82 89 94 93 90 84 79 76 66 64 58 56 54 53 54 57 70 56 150 102 80 77 73 75 74 68 70 72 74 77 83 90 88 94 98 97 92 89 86 81 80 83 87 90 90 92 94 94 92 94 101 97 89 85 78 73 68 64 56 54 54 54 53 60 80 53 155 117 79 76 71 72 73 70 70 72 74 76 79 86 90 95 96 100 99 99 104 107 109 107 108 106 103 100 103 103 103 102 102 93 88 81 81 74 67 62 57 54 52 52 53 65 82 47 156 135 80 74 72 69 70 69 70 71 77 77 79 83 89 96 99 105 108 112 115 115 111 110 110 106 107 105 106 109 109 109 102 92 86 82 77 74 65 59 54 52 51 51 55 69 75 43 157 153 79 74 69 65 65 67 69 67 72 76 79 81 88 94 97 100 107 111 117 115 113 112 107 106 103 105 106 105 107 104 98 92 81 77 71 67 60 54 51 50 49 50 56 71 66 40 157 173 81 75 69 63 61 64 64 63 65 72 78 81 85 90 92 97 100 104 106 108 107 104 98 94 93 97 100 102 101 97 88 81 77 70 67 59 53 50 49 49 49 51 59 65 61 39 157 192 82 76 70 62 59 60 62 62 59 62 71 75 81 87 91 91 96 97 96 100 100 93 88 83 86 92 94 87 91 86 79 74 72 68 63 55 50 49 48 47 49 53 60 59 59 37 157 211 82 76 70 64 58 53 55 58 56 53 58 68 75 79 84 84 87 89 90 92 87 81 78 75 81 83 82 79 80 78 72 70 65 61 55 51 49 48 46 46 48 53 57 56 56 37 148 189 82 75 72 65 60 54 51 53 55 52 50 56 66 73 76 75 80 79 81 81 82 79 71 69 73 75 76 73 70 68 64 61 57 52 49 48 47 46 45 46 49 54 53 53 56 37 55 74 81 77 75 68 62 55 53 51 51 53 50 47 54 62 69 69 69 72 72 72 74 73 72 70 69 68 71 66 64 61 55 51 48 47 47 46 45 46 46 47 50 52 51 53 56 35 21 36 50 49 47 43 39 36 34 33 32 32 31 28 28 33 37 39 37 38 40 40 41 42 41 39 40 42 39 36 34 32 30 29 28 28 28 28 28 28 29 30 31 31 31 32 34 22 