P2
48
60
255
11 19 20 21 22 26 36 41 46 53 55 60 63 65 66 71 73 70 72 73 75 74 73 74 71 71 71 69 70 74 71 66 61 60 57 59 60 56 46 37 33 30 25 21 21 19 20 12 19 30 33 34 36 45 60 66 81 87 93 101 104 107 109 116 117 115 119 122 124 125 125 123 121 118 121 117 116 116 118 113 105 101 100 101 98 95 82 68 57 48 45 33 34 30 32 19 19 31 33 35 37 51 63 68 84 91 96 100 103 108 110 118 121 117 121 123 125 127 129 129 126 128 124 124 121 121 118 115 112 110 105 102 104 102 94 81 65 51 49 34 34 31 32 20 18 30 32 36 41 58 66 76 87 94 102 105 108 110 114 117 119 119 121 123 125 129 130 129 125 130 129 125 127 128 125 121 117 116 109 106 105 106 103 93 75 56 49 39 33 31 31 19 19 31 34 37 47 61 70 83 89 95 99 104 108 112 115 116 117 119 119 121 125 128 128 130 130 128 130 126 126 125 127 124 123 118 113 108 105 100 96 92 87 66 52 45 33 32 31 19 19 32 35 43 54 68 70 75 81 86 92 96 101 106 105 109 114 112 115 119 122 123 124 127 127 126 127 124 122 119 120 119 117 111 104 94 87 87 81 77 79 74 59 50 37 33 31 19 20 33 39 47 64 64 60 62 65 66 63 58 63 66 73 81 93 104 107 111 114 115 117 124 122 124 123 118 112 110 104 99 87 78 67 55 56 63 63 68 66 69 65 55 45 34 31 19 21 33 43 57 59 49 55 55 49 47 39 39 37 37 40 45 52 71 87 93 104 108 111 117 117 117 116 106 97 94 79 57 48 42 40 38 39 42 54 71 70 61 57 58 49 39 32 19 22 36 48 57 47 52 56 59 59 61 65 62 56 47 46 47 47 56 70 81 83 99 107 111 112 112 106 96 84 79 62 52 47 49 53 64 73 74 72 69 72 67 56 49 52 44 34 19 22 41 58 48 53 64 72 83 93 100 105 102 95 82 74 66 62 65 71 76 78 89 95 103 107 103 97 89 82 78 75 72 68 77 94 109 117 116 110 102 89 77 64 51 59 45 37 19 24 52 56 55 68 77 84 93 105 109 113 113 109 105 96 93 87 82 77 78 86 92 95 97 101 102 98 90 84 82 83 88 92 98 106 113 117 118 115 109 101 90 80 61 64 61 41 19 33 67 62 66 74 81 91 98 103 106 104 105 108 106 101 100 98 95 91 90 95 99 99 100 105 104 103 98 95 92 95 98 98 95 93 92 94 95 97 101 102 97 90 76 71 78 44 20 43 77 69 73 78 83 87 84 82 85 83 81 80 80 90 97 100 99 96 97 99 105 107 103 103 107 107 103 100 100 99 98 90 83 83 81 82 88 90 85 88 95 94 84 87 87 52 20 48 80 76 77 82 80 74 72 62 44 38 35 48 63 73 85 94 97 97 101 106 108 108 109 111 113 111 107 103 99 95 90 78 64 45 33 46 38 50 69 78 87 91 87 89 91 67 21 49 82 82 81 80 73 65 44 48 33 31 29 33 63 53 77 87 93 95 100 107 111 112 115 117 120 115 108 101 94 91 83 60 51 33 30 31 45 77 42 57 78 89 91 92 91 79 22 51 82 83 82 76 62 39 51 75 43 31 31 45 106 73 54 84 91 95 102 109 116 117 119 122 126 119 110 104 101 96 72 63 90 39 33 35 67 94 62 39 62 85 92 96 93 88 28 52 85 86 80 66 44 48 71 84 76 46 49 91 111 90 66 78 100 102 106 116 121 123 124 128 131 122 115 106 110 101 78 77 100 79 54 71 99 95 76 55 53 75 93 99 97 90 34 52 87 88 78 62 64 64 74 85 91 89 92 97 91 88 86 82 107 110 108 119 125 125 126 133 133 125 119 111 115 98 84 86 86 90 95 102 93 85 71 69 73 76 95 101 99 90 37 53 89 92 86 79 80 77 75 77 80 79 78 82 83 87 93 98 113 112 111 117 120 125 128 129 130 123 120 116 121 110 94 87 83 83 85 88 86 85 84 85 87 90 102 103 101 91 37 55 91 96 95 92 89 87 89 92 97 94 92 90 91 94 99 108 116 114 116 115 113 122 126 129 127 121 121 121 121 123 105 95 92 88 92 96 98 97 94 94 96 99 105 105 102 94 39 56 93 99 102 103 103 100 99 98 99 100 99 99 98 100 110 116 117 116 117 115 112 122 124 131 128 120 120 123 125 128 121 108 97 95 98 100 102 102 103 106 108 108 109 108 103 95 40 56 95 102 109 113 114 112 112 109 108 107 105 102 106 113 119 118 119 117 119 116 115 125 127 131 128 119 120 125 127 128 130 125 116 107 105 108 112 115 115 118 118 118 115 110 105 96 39 56 95 106 113 117 121 122 120 116 116 112 110 112 118 121 122 121 119 117 121 116 116 121 125 128 127 119 120 123 127 131 133 132 130 125 118 118 121 124 124 131 126 123 119 113 105 94 37 56 97 107 114 121 126 127 126 124 123 120 120 123 125 125 123 122 120 118 120 115 113 118 121 128 124 117 117 122 127 131 136 135 135 131 131 128 129 131 133 135 132 128 121 116 105 94 34 55 97 107 115 122 126 128 129 128 127 126 126 128 127 125 124 120 117 116 113 110 111 115 120 121 118 112 114 119 123 130 135 135 139 137 136 135 135 137 138 138 135 129 120 115 105 92 32 56 97 105 114 121 127 129 131 131 131 131 130 131 128 125 122 117 110 109 106 105 106 112 118 121 119 113 111 109 117 123 131 135 137 138 140 138 137 139 140 138 134 126 119 113 104 89 28 56 96 104 110 117 125 128 129 133 134 133 134 131 128 124 117 108 101 96 98 100 105 112 120 121 120 115 107 103 104 115 126 133 138 140 141 136 137 137 138 136 129 122 115 106 101 83 25 56 95 102 107 114 122 127 130 133 133 133 131 130 127 122 117 104 92 88 94 99 107 115 123 126 126 117 108 102 98 106 120 129 136 141 143 140 139 139 139 133 127 119 113 105 95 75 26 55 94 99 106 112 120 123 128 131 132 132 130 129 129 120 112 101 86 93 101 98 108 118 128 130 137 123 111 108 106 97 113 125 133 139 139 139 138 138 135 129 122 116 109 100 91 68 33 54 91 96 101 109 116 119 126 132 131 132 128 128 129 121 112 96 90 105 110 106 106 112 118 123 125 114 107 117 117 104 100 120 131 136 139 140 138 136 133 127 118 111 105 98 87 70 48 53 87 93 97 103 110 119 124 128 129 129 127 128 127 119 105 81 97 113 115 105 92 97 105 113 110 101 98 109 117 110 92 102 123 132 136 137 134 135 130 123 116 110 103 95 84 86 63 52 86 91 95 100 108 117 123 126 127 128 125 126 124 116 86 78 96 99 88 79 77 83 92 98 95 87 70 58 78 99 92 92 110 127 132 133 131 129 126 119 112 108 99 92 82 88 53 51 86 90 94 96 103 114 119 123 126 124 120 123 121 107 75 77 84 69 35 31 40 65 76 78 78 56 39 44 63 90 96 94 102 120 129 131 130 127 119 114 111 105 96 88 82 94 62 50 86 90 92 94 102 112 118 120 124 125 119 120 121 102 80 75 74 72 57 59 66 68 66 65 74 86 87 81 76 88 105 101 105 119 125 126 125 123 117 112 106 103 94 86 91 101 57 49 84 89 92 94 100 109 115 116 121 120 120 121 121 115 101 93 84 81 82 86 90 93 97 105 105 102 102 95 93 104 114 116 115 121 125 124 122 122 117 110 105 99 93 84 99 106 40 49 84 89 91 93 98 106 112 115 118 119 118 120 122 121 119 117 112 109 108 112 110 111 113 114 112 111 114 114 116 120 121 124 121 122 122 121 120 118 115 109 104 96 91 81 101 91 26 48 84 88 90 91 96 103 108 111 115 118 119 120 121 122 120 117 116 113 113 114 112 110 113 112 113 113 113 114 114 120 121 123 122 121 121 121 119 117 113 108 103 94 89 80 103 76 21 49 83 88 90 91 96 99 103 110 112 112 111 115 116 116 115 113 113 112 112 111 110 107 113 113 113 113 111 111 112 116 118 119 121 119 118 119 118 115 109 105 99 93 84 67 77 54 20 49 83 87 90 92 94 98 103 107 109 107 109 110 110 109 109 109 109 109 108 106 108 110 111 110 110 113 109 108 107 110 111 113 115 115 113 113 115 112 107 104 96 92 78 38 31 37 20 48 84 86 89 92 91 94 100 103 104 104 104 105 103 100 100 100 101 105 106 104 99 104 109 112 111 101 101 104 104 102 104 103 106 108 106 108 109 108 104 101 97 90 70 32 28 47 30 45 82 87 90 91 91 94 97 99 98 98 95 96 92 91 91 91 92 93 92 90 91 90 91 95 95 93 91 91 94 94 92 91 94 100 102 105 106 106 102 99 93 88 62 31 29 47 29 42 81 86 90 91 91 91 94 95 97 95 91 85 83 82 80 79 77 78 81 86 91 89 83 85 90 96 87 84 83 84 85 84 82 92 97 102 105 103 102 99 93 83 66 44 29 50 25 37 79 83 89 88 91 89 92 92 96 93 87 79 72 63 57 59 65 68 76 80 82 83 82 80 80 76 65 65 71 70 65 69 75 86 94 99 102 102 101 98 92 72 53 34 29 47 23 27 76 81 87 87 89 89 89 89 91 91 86 78 69 72 83 91 98 100 104 111 112 111 112 111 114 104 95 94 90 88 74 65 72 87 93 98 100 101 99 96 89 50 38 36 29 50 24 26 64 83 88 89 86 86 85 90 91 91 88 86 84 87 87 86 90 94 102 104 106 108 112 117 120 112 102 101 95 88 86 81 84 91 95 98 99 101 100 95 79 33 36 55 30 48 19 32 42 81 87 89 90 84 85 87 91 92 91 90 91 89 86 85 88 88 89 94 98 97 95 98 98 96 91 88 88 86 91 90 91 95 97 95 99 99 99 91 56 29 38 72 41 64 18 32 32 66 86 89 90 87 85 87 89 92 91 91 92 88 88 89 88 91 94 99 103 105 107 106 101 96 92 89 88 89 93 93 92 95 95 92 98 99 97 80 34 28 29 37 54 67 18 21 27 40 82 87 89 87 84 85 86 87 88 89 90 89 88 87 87 86 84 84 86 83 85 87 89 89 88 88 88 91 93 93 92 94 94 94 98 98 91 53 28 28 29 29 31 30 18 16 27 29 65 86 88 88 87 85 85 84 84 87 87 88 88 87 86 83 80 75 70 65 63 69 74 80 83 86 88 91 94 95 93 94 94 96 97 94 75 31 27 28 29 30 29 29 19 16 27 28 38 79 86 87 85 85 84 83 84 85 84 85 86 87 87 86 84 84 83 81 80 81 80 82 85 88 90 92 96 97 95 95 95 97 96 87 59 28 27 27 30 30 29 28 18 17 28 28 30 52 83 86 86 84 83 84 83 83 82 80 84 84 85 84 84 85 85 85 84 85 82 83 85 88 91 94 97 98 98 96 95 95 90 79 56 28 28 28 29 31 29 29 18 17 27 28 31 34 72 83 84 83 82 81 79 80 81 80 83 83 85 84 85 85 82 82 83 84 84 86 89 91 95 96 98 99 96 96 93 90 81 85 52 29 35 28 28 30 29 30 19 16 27 28 31 32 63 77 82 84 82 82 82 81 81 84 85 85 86 91 93 89 90 85 85 87 93 98 99 97 97 97 97 98 90 92 89 81 86 86 47 28 31 29 27 28 30 34 21 17 27 28 31 31 58 76 78 81 82 82 81 82 83 87 89 89 90 92 91 92 97 96 94 93 99 101 99 100 99 98 97 96 90 88 80 85 90 87 44 29 31 31 28 30 35 39 23 17 28 28 32 32 51 76 78 77 79 81 81 82 84 87 89 89 89 87 85 89 97 98 94 94 96 100 99 100 98 97 97 94 88 80 84 91 93 87 44 34 34 34 34 35 39 38 23 17 28 28 36 59 52 77 80 81 76 79 81 81 84 87 91 89 81 82 79 87 96 96 94 91 95 101 100 98 99 97 93 88 79 83 92 95 94 86 43 34 35 36 36 37 37 39 22 17 28 29 37 55 94 76 81 83 82 77 80 80 82 85 88 89 74 81 81 84 85 88 89 88 93 97 98 99 98 95 89 81 85 92 96 98 95 85 44 35 35 35 34 37 37 37 22 18 27 28 34 32 48 72 80 84 85 82 78 81 81 84 85 86 87 88 80 80 84 85 85 83 87 94 95 95 96 89 81 87 93 96 99 99 96 83 44 36 34 34 34 33 35 34 21 18 28 28 31 30 31 69 80 83 86 86 83 79 81 81 82 83 85 86 83 79 80 86 86 84 87 90 91 91 87 82 89 94 97 99 100 99 94 76 41 34 35 35 33 34 37 37 22 10 17 17 19 19 18 40 50 52 52 52 52 51 49 51 51 50 50 51 49 47 46 50 52 54 54 53 53 51 49 54 58 60 62 62 62 60 53 46 27 21 22 20 20 21 22 24 15 