P2
48
60
255
20 33 34 35 36 37 42 44 47 50 52 55 57 57 59 59 59 62 62 61 63 63 62 62 63 63 64 63 64 64 63 60 64 65 64 60 57 57 55 50 47 46 44 41 40 38 32 16 34 53 55 56 59 63 69 73 78 84 90 93 94 93 96 99 97 102 102 101 101 101 101 98 102 103 104 103 106 106 104 103 106 106 105 101 96 95 91 83 77 73 71 69 66 66 57 28 34 54 55 57 59 64 69 75 81 85 88 92 93 95 97 99 98 100 101 101 100 100 101 101 101 103 104 105 104 103 101 103 104 104 104 101 98 95 93 86 78 76 71 69 68 68 64 33 35 56 57 59 53 59 66 74 81 83 85 86 89 88 93 94 95 96 97 97 100 99 100 100 99 103 102 101 99 94 95 96 98 98 100 101 98 93 87 80 77 73 73 70 69 68 70 41 35 56 57 51 48 52 57 62 69 70 73 75 81 83 81 82 84 90 93 95 99 99 97 97 98 100 101 95 90 85 84 79 77 81 87 84 79 77 74 69 71 64 69 72 69 68 70 44 35 56 55 45 47 47 47 47 48 44 46 50 51 55 62 65 72 80 88 91 95 95 96 95 94 95 94 86 78 74 64 55 51 50 52 50 56 57 61 59 56 61 60 73 69 69 69 43 34 54 46 43 42 41 42 40 34 33 34 38 36 38 43 51 58 70 80 86 91 94 94 93 91 93 90 76 64 56 52 41 38 35 33 34 37 43 52 55 60 60 58 62 66 68 69 43 33 48 45 46 41 40 37 35 33 34 35 33 33 34 37 41 47 61 71 78 83 89 91 87 87 89 83 67 54 46 44 41 40 38 37 35 34 36 42 49 55 61 59 59 58 64 68 43 29 45 46 45 42 40 37 35 37 39 40 41 40 40 41 43 46 54 62 70 78 83 85 87 87 85 77 61 50 50 49 46 44 43 44 44 44 46 45 50 58 60 65 59 57 61 68 42 30 47 47 47 48 49 52 57 59 56 53 48 43 42 42 43 45 48 55 63 72 80 84 88 86 82 74 60 55 52 49 46 44 42 44 51 59 68 71 69 68 63 63 62 57 59 68 43 31 51 52 51 51 55 63 65 67 66 64 61 56 49 46 44 45 48 53 61 69 77 85 90 88 83 76 66 59 54 52 49 45 43 46 51 59 67 72 74 73 71 66 62 62 60 69 44 32 50 51 53 54 56 61 61 61 60 62 61 55 50 50 47 45 47 53 59 66 76 84 89 88 83 77 70 61 54 51 47 47 54 62 66 67 67 59 60 67 69 68 66 64 64 69 43 34 53 53 52 50 47 47 58 69 68 70 72 70 65 55 49 46 46 52 60 68 79 92 96 97 84 76 69 61 55 50 51 60 67 69 70 68 78 79 61 49 57 64 66 68 69 71 41 34 54 52 48 40 45 53 55 51 46 44 57 62 68 66 59 48 46 52 59 67 78 95 96 100 88 75 68 60 55 54 61 60 51 41 40 35 49 56 61 58 50 53 62 66 69 70 43 34 51 46 41 43 44 40 32 28 30 27 45 54 53 50 63 59 51 52 59 65 76 94 98 97 83 74 68 59 59 61 48 46 62 37 30 28 35 30 37 49 55 50 55 62 66 71 43 33 49 44 40 38 33 45 47 30 28 27 33 87 110 59 39 60 63 53 61 65 75 91 96 84 79 74 67 64 66 48 39 82 101 52 31 28 30 41 67 44 42 50 53 60 66 73 45 33 51 44 39 35 43 67 65 38 36 34 43 99 115 78 50 50 61 56 62 69 80 94 98 91 83 77 70 67 67 52 55 79 99 78 40 36 38 64 87 69 46 44 51 60 68 74 45 35 52 46 44 47 49 62 67 61 48 50 76 92 85 67 63 64 57 57 63 72 83 96 99 94 86 81 73 66 71 73 68 70 76 78 68 56 70 82 81 62 54 55 56 61 70 77 46 37 54 52 53 48 47 55 64 70 76 76 72 67 66 64 67 65 58 59 67 74 84 93 99 100 90 84 77 68 72 78 69 61 60 62 69 74 79 81 72 61 57 66 69 68 74 79 47 39 60 59 58 53 48 48 54 59 61 58 54 56 60 68 72 68 62 65 71 75 84 94 99 100 92 87 82 72 72 81 79 71 61 59 59 61 64 63 61 58 64 72 78 78 79 82 48 40 65 64 58 56 54 52 50 51 54 57 62 67 72 75 74 70 66 69 72 73 86 98 103 101 93 89 87 81 78 81 81 79 79 72 67 65 66 66 65 67 71 76 81 81 83 83 50 41 67 65 63 61 60 60 61 63 67 70 74 77 78 76 77 72 69 72 70 74 90 99 103 101 92 88 90 86 83 85 85 85 84 85 85 83 81 78 77 78 80 85 88 88 85 85 49 41 67 66 67 67 68 69 72 73 77 79 78 80 80 81 79 72 69 70 69 75 92 102 108 101 91 88 89 88 85 88 92 91 88 86 86 90 92 89 88 87 89 90 91 90 89 85 50 41 68 69 70 70 75 77 78 78 80 80 79 80 82 84 78 69 67 67 71 77 95 104 109 103 94 88 88 87 85 89 94 97 94 90 88 91 93 95 95 94 95 92 94 90 88 86 50 40 68 71 72 73 76 79 79 80 79 79 79 82 86 84 76 66 63 68 75 86 94 104 110 102 94 89 86 85 84 88 95 98 98 95 91 93 92 97 101 100 101 97 97 94 91 86 50 39 67 71 74 77 79 81 80 82 80 80 83 85 86 82 72 64 64 68 78 88 100 109 112 101 97 91 88 86 82 88 97 100 100 98 97 97 97 102 102 103 104 101 98 95 90 84 49 40 66 71 74 80 81 84 83 83 81 82 84 85 86 82 70 62 65 68 82 93 106 112 111 98 96 90 85 82 82 87 97 102 102 100 98 98 99 105 106 107 105 104 100 94 88 82 48 39 66 70 75 80 82 83 85 86 85 84 85 87 84 77 67 62 66 70 82 95 104 112 113 100 98 93 89 86 79 83 95 102 105 101 100 99 102 103 104 105 105 102 98 94 88 80 48 39 65 68 72 76 79 81 85 86 86 87 87 86 83 71 64 64 69 69 77 89 98 107 118 101 100 92 92 88 84 79 91 100 105 105 103 104 104 103 105 104 102 98 93 90 86 79 48 39 64 65 69 75 79 81 84 84 83 86 87 85 78 67 61 67 72 69 67 77 87 98 111 99 97 88 90 90 84 77 87 98 103 105 105 102 102 105 104 102 99 94 89 86 82 76 48 38 63 65 68 72 75 78 80 83 83 84 85 82 73 65 60 66 71 68 58 66 74 87 95 90 86 79 87 90 84 73 83 95 102 107 106 105 102 103 103 101 96 91 85 83 80 78 47 38 63 64 66 68 71 76 78 82 84 85 83 78 69 64 59 60 62 49 37 49 64 74 81 79 69 49 57 75 77 68 84 89 100 103 104 105 105 104 101 97 88 86 80 78 78 79 47 36 63 63 65 65 69 74 77 81 83 84 81 74 68 66 66 55 47 34 28 27 47 55 61 62 40 32 33 46 60 65 85 89 95 103 106 105 104 103 101 95 86 85 73 74 79 77 46 33 61 63 63 63 67 73 76 81 82 84 82 76 67 68 70 61 44 34 36 46 53 43 47 57 72 72 53 47 58 76 87 91 93 98 101 103 102 100 98 94 90 85 77 77 76 77 45 34 58 60 62 61 66 70 75 79 81 83 81 78 71 71 72 67 62 54 56 57 58 51 55 62 69 69 66 69 75 82 88 93 95 98 98 102 101 98 97 89 87 83 79 79 77 76 44 35 58 58 61 58 65 68 71 75 78 82 83 80 79 77 76 72 67 64 55 50 56 64 73 65 60 59 65 72 75 80 89 94 98 98 98 98 97 96 92 88 83 83 78 78 75 73 43 34 57 58 59 59 64 67 68 72 76 79 83 84 82 80 79 73 67 62 57 56 56 60 68 66 64 62 63 66 71 82 86 93 96 97 94 97 96 92 91 89 84 81 74 75 73 70 43 34 55 59 61 63 64 67 70 72 73 78 81 82 81 78 75 73 65 62 57 57 59 59 64 65 64 64 65 66 66 78 79 84 89 92 90 90 91 89 85 89 81 77 72 72 73 66 40 34 54 58 57 63 63 66 68 71 71 73 75 76 73 70 65 65 65 63 58 58 63 67 67 69 69 70 67 67 70 74 73 75 79 80 84 82 90 88 86 84 82 79 74 73 71 65 40 35 54 55 56 62 63 65 66 69 69 70 70 68 64 65 61 62 61 64 63 65 68 73 72 71 74 75 69 68 73 73 71 68 67 71 74 78 82 83 84 85 80 79 74 73 70 66 41 35 55 53 57 60 60 64 65 67 67 65 64 63 60 62 62 64 64 63 69 62 56 59 66 74 66 58 59 66 74 74 70 65 65 68 72 74 75 79 83 81 80 80 74 72 68 67 41 36 55 53 57 60 60 62 64 64 61 61 60 59 58 61 61 62 61 57 55 51 52 52 52 57 57 60 59 54 54 62 66 64 60 61 65 67 69 76 81 79 77 78 74 72 67 66 42 38 57 53 54 57 59 59 63 61 59 58 57 57 58 60 59 55 50 44 46 49 55 54 49 52 52 53 52 49 44 44 46 52 54 56 60 68 70 73 78 78 75 75 72 71 67 67 43 40 58 55 54 56 59 57 60 61 56 54 56 58 60 55 46 39 37 37 40 44 47 49 45 46 44 47 48 49 53 50 42 37 37 45 56 64 67 71 78 79 77 73 71 69 66 70 43 44 61 56 54 56 56 57 59 60 55 53 57 55 51 43 34 35 44 55 61 67 75 77 74 68 71 77 75 75 76 75 72 59 45 51 51 57 66 70 77 77 76 73 70 68 65 68 42 56 64 59 55 56 56 56 60 59 57 54 54 54 51 50 49 61 66 67 71 77 83 84 86 85 84 83 85 83 79 77 70 59 61 61 58 58 64 73 77 74 72 71 68 67 68 68 44 80 70 61 56 55 55 56 57 58 57 53 52 54 55 55 59 56 58 60 68 74 80 85 87 88 85 86 88 83 71 68 62 62 61 67 65 64 64 73 76 75 70 69 67 66 68 68 60 130 89 62 58 56 55 56 56 58 57 53 51 53 54 53 53 52 48 46 53 58 63 66 69 68 67 69 67 64 63 62 61 61 68 71 69 70 66 72 74 71 70 68 67 66 67 69 60 155 150 64 61 58 56 56 55 57 55 53 51 52 54 53 55 54 51 50 48 50 52 57 61 63 64 65 69 72 67 62 63 67 71 70 72 70 68 68 70 71 68 67 66 66 66 80 81 158 211 74 60 59 55 56 54 56 54 50 50 53 53 52 55 57 56 54 55 55 60 61 62 65 62 64 66 62 59 64 68 68 69 69 73 70 65 63 67 68 66 65 64 64 64 101 100 158 249 121 61 58 55 55 52 55 52 52 53 52 53 53 52 56 55 53 54 52 51 48 46 48 47 46 50 55 59 64 69 68 69 69 71 68 64 63 59 63 64 63 63 64 67 136 142 158 255 165 67 57 54 52 51 52 52 51 51 53 52 53 53 53 53 50 50 49 48 46 43 41 42 44 48 54 59 65 67 67 69 69 69 68 63 62 61 61 63 61 61 60 80 204 156 158 255 185 77 59 52 49 50 50 51 49 49 52 52 52 53 53 53 48 48 50 47 46 48 48 50 50 51 55 61 66 67 70 68 66 66 64 62 62 62 62 60 60 59 63 96 246 158 158 255 202 69 68 54 49 50 50 51 49 48 51 50 49 49 51 53 53 52 51 49 49 50 52 52 53 56 58 62 67 68 67 65 63 62 62 61 60 59 59 59 59 58 65 107 251 158 158 255 219 66 62 58 48 50 51 50 49 49 51 51 50 49 50 54 56 56 55 56 60 64 67 65 64 63 64 66 68 70 69 67 63 63 63 62 61 59 56 56 56 61 62 113 252 158 158 255 234 71 56 52 48 47 48 48 50 50 50 51 51 51 54 56 60 61 64 67 72 73 74 78 80 75 75 75 73 75 70 69 67 66 61 62 62 58 53 54 55 56 64 127 254 158 158 255 241 78 58 51 45 44 45 47 48 49 50 52 54 54 58 61 65 70 72 73 76 75 76 77 82 85 86 83 80 79 71 71 68 64 60 61 58 54 52 51 52 59 66 135 254 158 158 255 248 90 59 54 48 41 42 44 46 47 49 50 55 56 60 67 69 74 77 80 79 80 80 77 80 87 87 87 84 76 71 69 65 61 59 58 52 50 48 50 56 62 67 144 255 158 158 255 245 92 58 55 52 46 39 40 43 43 47 49 53 57 58 62 64 70 72 76 75 80 77 76 78 81 81 82 80 77 72 69 64 60 58 54 48 46 48 55 61 64 68 145 255 158 98 156 93 40 36 34 33 31 27 23 24 26 28 31 31 34 34 36 38 42 43 46 44 46 46 44 48 47 49 50 49 47 42 39 38 37 34 30 27 28 33 36 39 41 42 90 157 98 