P2
48
60
255
20 35 37 36 36 37 37 40 43 45 43 44 45 47 49 50 50 51 51 52 53 54 55 56 55 53 54 54 53 52 53 54 54 53 52 48 46 47 47 44 43 43 43 43 42 40 36 20 33 56 58 58 58 58 60 64 67 70 71 73 76 77 81 83 85 88 85 86 85 87 91 91 89 87 89 87 88 87 87 91 88 86 87 83 77 78 77 72 69 69 71 69 69 64 59 34 33 55 58 58 57 58 61 65 70 74 74 77 81 84 83 87 91 92 88 87 86 89 89 91 91 89 89 89 92 94 93 92 91 91 92 87 82 78 76 72 70 69 72 69 67 66 63 37 33 57 57 58 58 61 63 65 68 71 76 81 85 87 87 93 94 93 91 91 90 90 92 94 93 92 90 89 90 94 98 98 94 93 94 89 81 76 71 68 70 69 69 69 66 65 64 38 34 57 58 58 58 60 60 59 66 71 71 76 82 85 88 94 92 91 90 92 92 91 92 92 96 92 91 89 88 92 99 100 94 92 90 85 79 74 71 64 62 67 67 65 64 64 62 37 33 55 57 57 58 51 49 55 60 70 66 69 72 78 83 84 86 87 88 88 90 89 94 90 92 91 87 87 86 85 89 87 82 81 79 68 63 65 65 61 57 59 61 62 63 61 59 36 32 54 55 52 48 44 46 49 49 51 52 53 55 64 68 70 72 79 81 80 83 86 86 84 85 86 82 79 78 73 74 68 61 58 57 52 49 52 53 51 53 52 58 57 60 59 58 35 32 54 52 46 44 41 43 41 41 39 40 39 44 50 50 54 58 66 66 72 75 79 82 81 76 80 75 66 63 60 55 50 45 41 41 40 41 41 47 51 47 49 49 54 55 58 58 36 32 53 49 43 43 45 41 39 35 33 32 33 35 35 38 42 49 54 53 62 67 71 74 81 74 71 69 59 56 50 48 42 36 33 36 38 37 39 40 50 51 52 52 50 49 56 59 36 33 52 45 43 45 44 42 39 35 32 32 31 29 31 33 35 41 46 43 50 61 61 66 74 73 68 63 55 49 47 43 38 34 32 33 35 37 36 41 47 51 53 52 52 51 53 57 36 32 49 44 46 49 48 47 44 43 41 37 35 33 31 31 32 36 40 40 42 51 57 59 65 73 69 59 51 46 44 42 39 36 36 39 44 48 53 56 55 54 54 56 57 54 53 56 36 31 44 44 48 50 52 53 54 57 60 58 52 44 36 32 33 34 36 38 40 46 54 57 62 68 69 57 48 45 43 39 36 37 42 48 57 62 65 63 60 58 58 57 57 57 53 54 36 31 49 48 48 51 54 56 59 64 70 74 76 72 58 42 33 32 34 38 40 46 55 60 64 66 63 56 51 45 41 39 39 42 49 63 68 75 76 71 66 59 57 57 57 57 58 55 34 30 49 49 48 49 52 55 60 64 69 73 73 79 80 60 43 34 34 39 44 49 57 64 68 73 68 59 52 46 42 39 38 43 53 69 74 87 91 74 68 63 58 54 56 59 61 60 36 32 51 50 47 46 48 51 56 60 73 79 70 67 62 57 52 41 35 39 47 52 64 74 80 84 74 61 54 50 45 38 41 47 54 55 56 61 66 64 60 57 51 50 52 57 60 61 37 32 51 50 46 42 42 44 46 47 51 56 66 71 69 64 57 51 41 44 48 53 64 81 86 87 77 65 64 67 51 47 48 53 57 61 64 66 64 61 59 55 55 57 55 57 59 61 38 32 50 48 45 43 44 47 50 55 57 62 66 66 62 56 54 50 54 55 53 56 70 85 87 88 79 68 67 72 53 38 39 43 50 57 61 64 62 65 65 57 54 55 56 57 61 63 38 33 52 49 47 45 42 42 49 54 55 57 60 56 47 39 36 37 50 59 57 59 70 84 86 86 77 67 68 74 69 56 40 33 33 44 52 54 52 50 46 44 52 56 58 63 66 65 39 34 57 55 52 49 44 39 35 38 42 45 44 38 35 36 42 58 58 58 57 60 69 81 83 82 76 68 68 70 69 61 51 43 35 34 38 41 40 38 38 45 53 62 66 69 69 67 41 34 59 61 61 58 50 41 36 35 34 36 35 35 41 48 54 61 60 56 57 59 68 78 78 76 75 71 67 66 68 67 58 49 46 39 37 37 41 41 44 50 60 67 72 73 69 68 41 35 61 64 63 59 54 48 42 38 36 37 40 43 49 55 59 65 59 57 59 61 66 70 71 70 72 71 70 68 68 69 67 59 52 47 47 45 49 49 56 61 69 71 73 73 72 68 41 36 61 65 62 61 58 55 50 47 45 43 46 51 56 61 65 68 59 60 60 62 69 75 76 72 70 71 73 71 68 70 72 69 65 57 56 54 58 62 68 74 76 76 76 75 71 68 40 36 61 65 66 66 65 63 62 59 58 56 59 61 62 67 71 66 60 60 61 67 73 80 82 79 76 73 72 71 67 69 76 75 72 70 70 69 72 72 74 76 80 79 79 76 73 68 40 36 62 67 72 71 69 69 69 69 68 66 63 64 70 71 72 64 60 58 63 69 77 83 85 84 82 79 73 67 67 66 73 77 75 69 71 73 75 75 75 78 82 84 83 81 74 70 41 37 65 70 74 76 75 74 72 71 69 68 68 70 73 75 71 61 59 58 65 76 84 88 87 88 89 83 71 67 67 69 75 79 80 74 74 73 74 76 80 85 90 88 87 78 73 70 41 38 67 72 75 79 79 77 73 71 71 71 75 76 79 78 71 59 55 58 71 85 92 93 92 93 91 87 73 63 65 67 80 82 84 81 77 77 78 80 82 87 91 87 86 76 73 71 41 38 66 71 74 80 82 80 76 76 74 77 80 83 83 83 66 54 54 61 77 91 99 99 99 98 100 92 79 71 69 68 77 87 90 85 84 84 81 83 84 88 89 88 83 77 75 70 42 39 66 71 74 81 82 81 82 81 78 81 84 86 86 74 57 65 67 70 79 92 106 103 102 107 117 91 85 85 79 78 72 83 91 91 90 89 87 89 88 90 89 88 82 76 72 69 41 38 66 71 75 79 82 84 84 85 86 86 86 85 80 59 67 77 78 80 72 77 85 89 91 92 87 79 82 91 92 87 77 72 84 94 97 94 92 91 94 93 88 85 81 75 71 68 41 39 65 69 74 77 82 83 86 85 85 87 85 80 63 56 74 83 77 75 64 64 73 76 82 80 74 66 66 75 84 89 80 69 75 89 95 91 95 91 93 93 88 84 80 76 70 68 41 38 65 69 72 76 81 83 83 87 82 86 84 69 51 61 73 72 64 55 47 52 63 65 65 66 61 43 32 38 60 77 79 69 66 80 89 90 90 92 91 90 84 82 78 74 69 68 40 36 63 66 70 73 76 79 84 86 82 82 73 54 49 59 66 54 35 27 26 29 44 52 53 52 38 28 27 26 35 62 72 70 65 70 85 86 91 90 90 87 82 80 75 73 69 67 39 37 63 63 68 71 75 76 80 81 80 77 64 48 53 59 60 49 28 27 28 30 31 40 47 53 62 59 42 28 32 49 63 73 71 63 76 86 86 86 88 84 80 78 74 71 68 65 38 36 61 62 66 69 72 73 76 78 77 73 59 47 61 62 51 48 32 33 44 43 40 37 45 51 51 54 55 40 33 45 67 74 73 62 69 80 85 83 84 82 79 76 72 70 65 64 37 35 60 62 64 67 67 71 73 74 77 71 59 54 62 62 53 35 37 45 40 33 36 44 46 38 34 33 32 35 43 56 61 67 71 67 64 74 77 81 81 79 76 71 69 68 64 60 36 35 58 62 62 63 65 66 69 72 73 72 64 63 64 61 56 42 39 34 30 32 33 42 53 42 32 31 30 31 37 44 52 57 61 66 65 73 79 80 78 76 73 71 67 65 62 59 34 35 57 57 59 61 65 66 67 70 73 71 69 67 62 51 45 36 33 31 32 38 39 38 41 40 34 32 30 32 32 37 40 44 49 55 63 69 74 75 74 74 70 67 64 64 60 59 34 34 55 56 58 59 63 65 67 69 72 69 59 53 49 40 37 32 30 31 32 37 43 47 48 46 41 41 35 34 33 33 34 38 41 47 53 66 73 72 72 70 66 65 63 62 61 59 34 32 52 55 56 58 62 65 64 70 69 60 48 41 39 37 32 34 31 37 41 49 55 64 68 59 51 49 44 39 37 35 33 34 37 41 47 60 70 71 68 68 65 64 62 61 58 55 33 33 52 54 56 56 59 64 65 66 62 49 41 37 35 34 33 38 44 52 52 59 62 65 67 64 63 62 61 54 49 39 37 35 38 36 42 52 67 69 68 65 65 62 60 58 57 56 34 31 53 52 54 54 57 60 61 60 55 44 40 35 32 34 36 46 51 52 60 60 60 62 71 63 59 66 66 62 52 47 44 37 38 37 40 47 58 65 67 63 64 59 58 57 57 55 33 32 51 53 51 53 55 57 57 55 53 40 36 35 33 37 40 51 52 56 56 59 55 63 67 65 58 63 63 57 52 50 47 38 34 37 43 43 54 64 64 62 61 56 56 59 57 55 33 32 50 51 52 54 54 54 55 54 47 38 35 36 33 39 44 45 49 53 55 55 54 55 53 52 53 57 55 57 54 49 48 37 33 35 37 47 55 62 62 62 59 59 57 57 56 55 34 31 50 51 52 53 52 52 53 52 43 35 31 33 34 40 42 45 47 46 41 40 47 52 52 48 47 40 36 38 49 50 47 40 33 33 34 42 56 62 60 62 59 58 56 56 55 57 34 31 50 52 51 52 52 52 50 52 46 34 32 33 36 36 37 46 49 39 38 37 39 40 39 41 37 37 34 30 33 46 40 36 34 35 35 43 56 59 60 59 56 56 56 55 55 56 35 32 52 51 49 48 50 49 49 50 43 35 37 37 33 28 42 63 66 67 73 77 80 79 80 81 80 81 78 75 69 66 50 31 33 36 39 49 56 60 60 57 58 56 57 56 57 58 35 34 53 51 50 48 49 50 50 52 46 37 41 46 40 39 53 61 66 71 79 83 83 82 89 86 83 83 82 81 76 73 68 55 41 39 43 53 59 62 60 58 57 55 58 57 59 57 35 31 51 51 50 49 48 49 52 53 51 48 51 51 49 51 49 54 57 67 81 91 89 84 88 86 85 91 87 88 76 68 63 61 56 50 54 54 59 62 59 56 54 55 56 57 59 57 35 31 51 51 50 49 49 51 52 52 54 54 54 57 54 49 49 51 54 59 69 77 80 80 78 79 78 82 82 75 66 64 62 58 61 61 58 56 60 59 57 56 55 56 56 57 59 56 35 32 53 50 49 47 48 50 51 52 53 56 56 60 58 52 49 50 51 55 60 66 68 71 69 70 71 70 70 64 62 60 59 58 63 65 60 56 59 59 57 55 56 55 56 56 58 55 35 31 50 51 49 47 48 48 51 51 54 54 57 60 60 55 51 46 46 49 50 55 55 53 55 56 60 61 61 58 57 55 56 60 67 66 62 58 56 57 56 55 54 56 56 56 56 55 35 31 51 50 50 49 48 49 49 50 52 53 56 60 60 57 53 46 43 40 40 37 36 35 36 36 37 44 48 48 49 52 57 60 65 61 61 60 54 55 54 53 52 54 55 55 54 57 36 32 52 50 49 48 48 48 48 49 50 50 54 58 59 57 54 50 49 44 40 38 36 35 37 38 36 38 42 46 49 54 58 60 62 59 60 58 54 53 54 53 53 55 55 55 56 58 38 32 50 51 49 47 46 46 47 48 49 49 51 55 56 57 57 55 54 51 49 46 45 46 48 49 51 49 52 54 53 55 58 55 57 55 57 57 55 53 53 52 53 52 54 55 56 58 37 32 51 48 50 47 47 45 46 46 47 48 50 51 53 54 54 56 56 55 55 52 55 55 57 60 60 62 59 60 58 57 56 53 53 53 56 55 54 51 51 50 53 52 54 55 56 57 47 31 50 48 48 47 46 44 44 46 47 48 48 51 51 51 54 55 57 58 59 58 57 59 62 67 67 64 63 61 60 59 56 53 52 50 52 54 53 50 53 51 51 51 52 55 56 64 113 32 49 47 47 48 45 44 42 43 44 44 49 48 49 51 55 54 56 59 59 58 64 63 69 70 69 69 69 65 60 56 54 54 50 50 52 49 50 49 50 49 51 51 51 55 55 112 153 32 49 47 48 44 45 43 42 41 42 43 45 46 48 49 53 54 53 58 58 57 62 65 68 73 70 69 63 65 62 57 54 53 48 48 50 50 50 48 49 50 51 51 53 54 60 207 158 32 50 48 45 44 45 42 41 41 40 41 43 46 47 48 51 54 52 55 61 67 65 67 69 71 69 65 64 63 61 56 54 50 47 49 46 50 49 45 47 49 49 51 51 52 108 251 158 19 31 30 29 27 27 27 26 26 25 25 26 27 27 28 29 31 33 33 37 40 41 43 44 43 40 40 40 37 37 35 31 31 30 29 29 29 28 28 29 31 31 31 31 32 80 154 98 