P2
48
60
255
15 33 43 27 32 36 41 37 28 26 39 40 34 26 22 20 14 18 18 18 26 31 28 35 39 41 44 41 48 53 59 65 70 75 76 77 78 72 75 74 74 69 66 66 64 58 52 31 20 60 60 52 55 62 67 54 49 64 65 68 53 37 44 37 27 30 31 28 45 49 51 65 68 71 78 76 91 101 110 119 120 125 128 128 125 120 123 120 120 113 108 108 103 95 88 50 21 65 58 56 61 70 67 55 71 78 72 68 57 42 49 40 38 33 34 30 42 49 61 74 76 82 86 93 107 116 122 129 133 133 133 131 127 121 123 121 122 116 110 111 103 92 86 52 27 71 62 55 73 72 80 80 101 99 96 72 61 48 60 51 48 42 38 39 38 53 76 88 93 97 102 109 119 126 129 136 136 139 137 134 131 125 127 127 123 119 113 112 104 92 90 53 42 75 62 64 83 94 102 100 120 116 108 82 71 65 79 60 51 73 33 55 47 60 92 104 108 109 119 126 131 136 139 143 144 150 144 142 139 134 130 132 126 121 120 112 106 92 92 53 57 85 90 86 97 103 108 118 130 120 108 100 78 70 89 60 52 85 35 71 68 79 102 117 116 120 125 136 136 140 150 155 161 147 150 149 141 136 132 137 135 126 124 114 104 97 97 56 65 101 100 109 109 110 107 101 105 105 98 88 67 61 71 50 80 82 56 79 88 95 108 121 124 120 128 134 134 137 138 135 129 119 121 126 128 122 126 126 129 122 125 119 107 103 98 59 68 111 113 112 103 98 87 76 75 72 69 54 42 51 47 47 78 61 75 83 101 104 120 126 122 119 124 128 125 121 111 95 84 74 72 83 90 97 98 100 102 108 115 119 115 107 100 60 70 114 107 97 100 101 99 91 78 71 65 54 53 43 40 53 60 52 92 94 102 108 123 118 121 114 117 115 112 103 92 72 63 65 70 67 66 75 92 96 94 100 102 107 109 108 105 64 70 106 97 98 115 119 113 108 108 108 96 84 72 66 61 59 65 63 92 86 99 112 116 120 123 118 114 107 99 95 83 73 73 74 72 71 72 73 88 102 100 101 99 98 100 103 105 65 67 105 106 115 121 128 132 141 153 158 149 138 120 102 88 78 80 80 80 84 100 110 116 123 123 119 116 101 94 90 86 83 87 91 103 117 124 127 129 132 120 108 102 97 95 93 98 62 70 108 110 118 123 133 141 155 168 171 165 160 149 133 114 101 88 85 80 85 97 107 116 122 123 117 111 101 93 87 89 94 105 126 147 155 154 153 158 153 130 114 109 102 98 93 95 63 69 114 114 120 122 131 135 151 170 172 164 159 153 147 135 119 103 93 89 89 97 109 123 132 129 119 112 100 90 88 89 102 126 149 161 160 157 157 162 155 139 122 111 108 104 95 98 65 72 117 118 120 123 128 133 139 153 155 146 138 133 129 125 120 109 99 97 101 106 120 138 142 146 131 116 109 97 89 93 108 121 128 133 137 141 146 149 143 132 122 112 107 103 101 103 64 72 117 116 119 120 118 117 107 88 68 51 43 46 53 75 99 102 97 97 110 127 135 148 158 152 138 124 115 102 87 91 93 73 50 38 37 46 60 82 109 117 115 110 106 101 99 99 68 77 122 115 114 104 81 48 41 50 44 27 26 26 48 58 47 99 107 109 127 138 148 163 172 168 152 134 123 112 96 103 66 44 85 51 28 27 30 40 40 47 78 100 104 103 104 108 69 76 119 110 92 62 49 61 69 98 89 45 36 47 99 99 60 93 140 145 143 145 156 172 180 176 162 142 130 129 131 128 85 83 124 102 45 34 40 84 79 52 42 55 86 102 106 109 68 77 119 110 104 104 114 124 130 131 131 120 114 119 124 125 123 133 150 156 147 148 158 175 181 175 163 147 137 137 144 136 132 128 131 127 101 98 108 118 113 109 97 81 76 86 103 111 70 79 132 133 135 132 131 132 145 152 153 131 123 117 112 111 119 141 160 152 148 150 161 176 179 171 166 149 137 138 143 141 126 118 115 112 116 125 136 140 116 135 125 118 120 121 121 123 75 80 137 141 144 141 133 127 119 110 106 102 103 106 109 122 149 163 158 145 148 151 160 172 174 168 162 146 135 135 139 142 143 129 116 111 106 104 102 101 103 111 122 135 141 139 138 136 84 85 144 147 150 151 151 149 143 134 127 124 128 140 152 165 171 167 154 148 148 152 160 174 172 166 162 148 133 133 138 143 149 150 142 129 121 118 120 121 123 125 134 143 148 150 141 130 83 86 149 155 158 160 165 168 170 167 167 167 169 175 178 177 181 171 150 144 148 154 159 173 168 165 165 151 132 129 132 139 150 158 163 157 153 155 154 158 162 162 160 159 158 152 150 138 80 91 153 159 164 170 168 175 181 174 170 175 174 179 182 178 181 163 147 141 143 149 156 169 168 161 161 148 131 130 129 136 151 164 168 168 164 160 163 161 167 168 166 158 162 156 154 144 84 90 152 159 171 173 176 176 178 171 176 172 174 181 179 173 176 157 145 140 142 143 151 162 163 157 154 141 130 128 126 132 149 165 174 170 169 166 164 166 169 165 165 163 163 154 154 148 86 88 151 159 171 176 181 181 177 180 177 171 170 169 167 163 167 150 144 139 138 137 143 153 160 157 147 137 125 126 127 130 143 159 163 166 166 164 163 169 169 171 169 170 165 160 154 149 84 85 143 152 166 178 179 182 180 182 176 171 160 165 159 159 159 145 138 138 136 136 147 162 164 154 148 136 125 122 120 125 133 160 162 161 164 163 162 163 167 167 165 162 166 153 146 138 83 83 140 149 163 178 186 186 185 179 171 164 162 157 156 152 147 135 131 133 137 139 158 170 167 159 157 138 126 118 116 117 126 146 151 161 163 166 162 165 167 171 161 159 160 151 140 134 80 84 134 146 161 184 190 186 181 173 166 156 158 152 148 141 136 128 133 129 135 139 164 195 174 166 166 147 124 120 111 111 116 132 147 157 160 161 165 165 166 170 170 163 157 144 135 127 75 82 134 140 152 168 181 179 174 164 158 156 154 147 141 128 125 136 140 135 134 141 175 188 161 157 170 153 123 122 117 121 111 115 134 151 155 157 162 165 165 165 173 169 151 141 133 126 74 79 130 138 149 156 165 169 166 155 150 153 148 139 131 117 125 143 143 138 132 132 140 141 140 139 137 129 117 119 125 129 122 105 121 142 152 155 155 158 161 163 166 171 144 135 130 124 72 77 128 129 141 147 151 154 154 150 149 143 139 130 117 108 129 142 142 132 120 116 119 125 125 120 116 111 104 113 120 124 121 106 103 124 139 143 148 150 151 160 156 149 138 128 124 117 71 75 125 128 136 142 151 152 147 146 144 138 136 118 108 125 124 118 108 93 85 92 95 99 101 96 92 91 88 92 100 107 112 113 104 107 131 142 142 142 144 146 143 139 131 122 118 110 69 73 124 129 131 137 142 142 141 134 132 132 119 101 130 141 113 79 47 30 27 40 64 69 64 66 69 63 41 34 42 71 91 111 121 103 107 127 135 137 134 138 132 128 120 116 111 104 67 72 120 124 127 130 135 133 134 130 126 122 108 115 147 155 134 90 55 46 45 41 39 52 55 55 48 49 56 57 48 62 103 130 136 119 95 117 127 130 129 127 124 120 115 111 107 105 66 71 116 119 121 126 129 132 129 125 123 118 117 138 153 147 151 139 115 103 102 103 94 90 68 71 82 82 80 81 90 109 130 135 133 123 101 102 119 123 122 115 116 113 108 106 105 104 63 71 114 115 120 122 127 126 124 122 119 122 137 155 156 146 150 146 141 130 128 132 132 130 123 119 110 103 103 108 114 120 125 122 126 125 116 100 109 115 117 116 116 110 105 102 103 102 62 71 114 114 116 117 121 127 122 121 125 132 148 152 154 145 142 141 134 137 139 136 137 132 129 132 128 117 117 114 112 109 114 117 121 126 124 111 105 109 111 111 109 104 102 101 101 101 62 69 109 112 115 116 118 123 126 128 131 143 146 138 141 136 133 132 128 134 135 138 144 132 132 136 136 129 127 123 116 111 115 117 117 124 125 117 107 106 107 105 101 99 99 98 99 102 61 69 109 110 113 114 116 119 124 127 129 138 137 127 129 124 129 126 132 138 144 153 141 140 134 133 140 136 130 130 122 121 118 114 116 117 123 113 107 105 106 99 93 94 96 98 98 98 60 70 114 114 115 116 114 114 126 131 129 130 119 116 117 114 127 133 139 152 151 144 131 140 140 134 133 138 138 136 132 121 107 104 106 108 116 106 105 110 106 101 93 95 96 98 100 100 61 70 115 116 117 119 119 120 127 129 123 112 108 98 100 109 119 121 114 110 109 109 105 106 112 102 103 103 100 105 107 106 103 97 94 98 109 106 105 115 114 105 100 98 98 100 102 100 62 69 114 113 118 117 117 120 125 125 119 108 97 81 80 86 87 83 82 86 84 83 82 85 87 79 81 83 79 76 75 76 80 82 81 86 93 97 103 116 115 108 104 100 99 101 102 102 60 67 112 111 113 116 117 118 120 127 125 111 90 62 48 57 65 67 66 61 55 53 53 53 58 56 53 55 53 58 62 65 61 57 53 65 88 96 106 119 118 109 103 100 96 99 101 101 61 67 109 110 109 114 113 117 121 127 129 114 96 83 83 88 87 76 69 56 44 37 36 36 34 35 37 38 32 35 48 62 70 71 65 76 97 103 115 122 117 108 103 98 98 99 99 101 62 65 107 108 108 108 112 116 120 123 123 114 103 105 118 122 122 117 124 129 118 114 110 110 108 109 99 97 101 100 96 99 97 103 97 93 96 108 119 123 115 104 100 98 98 101 100 98 60 64 104 106 107 106 109 112 118 121 119 109 113 121 121 116 111 113 115 130 145 152 148 142 139 139 132 135 130 115 109 108 102 107 109 107 105 110 120 120 112 104 101 99 98 100 101 98 58 62 104 103 105 105 105 108 113 115 110 108 117 127 132 123 109 101 102 103 111 131 134 132 141 136 130 125 107 99 94 92 101 112 115 114 112 109 110 112 107 102 100 100 97 100 97 97 57 59 98 101 104 103 102 105 107 106 108 112 116 125 128 130 115 100 97 95 93 97 99 101 104 100 95 88 86 84 86 94 102 113 118 116 116 111 111 108 101 98 96 98 96 96 93 94 56 57 93 96 101 101 99 100 102 106 111 112 114 117 122 128 122 93 95 87 78 71 65 66 66 66 69 72 77 80 86 96 105 113 116 111 108 108 106 104 98 96 94 96 95 95 94 90 52 53 87 92 96 96 96 97 99 106 111 119 120 118 122 122 123 117 112 104 87 69 58 53 48 50 56 65 77 85 95 100 108 112 113 112 115 111 105 100 96 95 93 94 95 93 91 86 51 73 85 87 91 94 95 94 95 102 108 114 121 121 120 125 126 126 124 123 116 104 95 88 83 83 84 86 92 99 105 109 114 113 111 112 114 110 106 100 95 93 93 93 92 88 84 80 50 136 127 82 82 86 88 90 94 96 104 113 118 124 124 125 129 134 134 133 133 135 137 139 133 133 130 123 119 118 119 120 116 118 113 113 109 108 105 97 94 94 93 90 89 83 79 84 109 142 211 91 74 77 83 84 86 91 99 107 114 122 126 126 132 140 144 146 148 147 147 149 147 147 144 144 139 131 128 126 119 117 112 112 107 103 99 91 88 90 88 87 82 74 75 132 145 142 210 113 77 69 72 77 80 85 91 102 111 115 124 126 129 135 141 143 152 152 145 148 145 141 136 139 140 136 131 126 119 115 109 106 103 98 93 89 86 87 85 83 77 74 86 141 144 84 121 114 97 68 63 67 76 80 85 95 106 110 116 125 127 125 133 136 139 143 142 139 136 135 133 135 131 129 128 122 117 112 107 102 96 94 88 83 81 82 79 74 72 79 96 139 143 59 110 113 103 86 64 60 65 70 79 84 95 106 111 117 117 119 119 124 125 123 128 128 128 129 125 124 120 120 114 111 108 102 101 95 92 84 80 79 75 74 71 67 71 88 97 136 143 67 108 114 110 99 77 63 61 64 67 74 82 89 98 106 108 108 108 107 112 113 115 117 119 117 107 106 109 109 102 98 97 95 91 87 82 76 74 72 70 68 66 68 80 91 99 132 142 68 106 111 119 106 89 73 67 65 66 65 63 71 83 90 93 93 99 96 98 98 97 106 104 101 99 100 97 95 91 89 87 85 80 78 72 67 65 65 66 65 66 75 85 94 101 114 105 68 103 108 119 110 99 84 72 66 65 63 62 60 63 69 72 76 78 79 79 78 80 86 86 89 89 86 82 78 77 78 74 73 72 64 60 63 65 61 64 65 70 80 90 97 102 103 53 41 62 66 72 72 65 58 50 43 41 40 40 38 36 34 33 31 34 36 36 36 35 39 42 44 43 42 42 40 39 42 41 40 35 37 39 38 39 40 39 41 47 53 59 61 64 63 42 