P2
48
60
255
14 23 27 31 35 37 39 39 40 44 46 51 53 56 58 61 62 63 67 66 65 65 65 65 64 64 64 63 65 64 65 67 66 64 63 60 59 57 54 54 50 47 45 42 39 38 37 22 25 40 44 54 58 63 61 65 70 74 77 84 87 91 94 99 102 104 108 106 106 109 108 106 104 106 106 105 105 105 107 103 101 104 102 102 100 97 94 90 83 78 73 68 65 63 59 36 26 44 50 50 60 64 65 69 73 74 79 86 92 96 99 102 105 109 113 110 108 109 111 106 107 108 108 106 107 107 109 109 107 109 103 104 102 98 94 91 86 82 77 72 66 60 59 35 29 46 50 55 61 67 70 73 76 81 86 92 96 101 104 108 110 115 119 114 112 114 112 113 111 110 110 110 110 112 109 111 111 111 108 107 104 101 98 95 88 81 78 73 69 63 63 37 28 51 56 56 63 69 71 76 82 86 90 99 103 105 108 110 114 115 113 111 111 110 113 113 112 108 112 111 113 114 109 113 112 112 110 109 105 105 101 97 91 83 78 74 69 63 61 38 30 54 54 59 65 71 77 82 85 87 94 97 104 109 111 111 114 113 110 107 105 104 107 107 109 108 112 105 104 111 112 113 110 108 103 98 98 92 90 84 76 76 79 74 71 68 61 38 33 54 55 63 69 76 79 80 81 86 88 95 102 108 114 113 109 106 100 103 102 99 102 100 104 103 103 94 93 98 99 93 82 77 71 67 67 64 60 61 66 72 70 71 72 69 66 39 33 58 61 66 72 68 65 65 64 67 66 66 75 81 87 93 93 94 96 97 97 97 95 98 100 98 96 85 83 82 69 62 60 53 52 52 52 54 63 71 67 65 64 63 65 70 68 40 35 61 65 67 56 54 50 51 52 54 54 49 50 54 61 69 76 79 84 91 92 93 96 97 94 89 85 79 75 63 57 53 53 51 51 56 67 76 83 85 80 71 62 62 61 66 69 43 37 64 66 55 50 54 55 62 60 50 50 48 49 51 52 56 63 69 74 83 86 92 94 92 88 82 75 71 61 55 55 57 56 56 63 75 87 91 92 90 83 78 71 64 60 63 71 44 38 66 59 53 63 66 73 79 79 80 76 65 60 58 56 55 56 61 69 76 82 85 88 87 84 79 73 66 60 58 57 58 62 72 81 87 93 100 99 91 82 75 71 70 65 62 71 44 41 68 57 61 68 70 73 78 85 97 100 94 80 69 58 56 56 59 63 69 77 82 85 84 82 75 67 60 56 53 60 69 76 82 84 85 89 100 100 90 79 71 68 67 67 67 70 45 42 69 63 67 68 69 70 75 81 94 100 94 87 81 73 62 55 53 57 62 71 80 82 83 80 73 59 54 53 60 70 75 74 67 61 60 61 65 64 66 68 68 67 65 67 70 72 45 43 71 70 68 66 66 67 67 62 59 59 59 60 65 74 76 67 55 51 55 66 79 85 86 83 73 60 53 57 68 67 59 49 60 80 85 83 87 81 67 57 54 61 65 66 69 71 44 44 74 73 68 66 60 50 51 62 76 85 81 76 64 48 56 67 62 54 54 64 84 96 94 90 76 62 59 60 61 52 49 67 76 86 86 81 91 83 71 68 62 60 60 66 69 71 45 44 73 73 70 58 52 62 65 67 79 71 65 64 68 71 52 51 57 57 59 64 84 101 101 99 77 65 64 58 52 50 63 57 48 49 46 48 58 61 58 60 59 58 59 62 68 73 45 43 73 73 67 58 59 59 50 40 34 29 28 27 29 41 50 53 52 62 64 67 86 104 104 102 81 68 72 65 63 61 42 40 48 30 26 26 28 32 34 38 42 46 54 58 68 74 47 43 75 72 62 51 45 38 31 44 36 31 30 30 37 78 44 39 60 67 67 73 90 104 103 106 87 71 74 82 66 37 41 59 72 40 34 34 35 43 41 38 38 48 57 65 71 77 50 45 76 75 65 54 44 39 38 46 51 48 50 49 59 72 65 58 57 69 66 77 93 103 106 105 93 77 71 78 64 61 69 68 63 60 58 58 64 68 58 51 53 61 67 75 78 82 52 46 77 76 72 68 59 52 53 61 61 68 65 65 62 66 68 70 67 62 69 84 95 104 107 103 97 87 73 69 69 68 67 62 59 58 56 61 64 63 61 56 57 64 70 75 79 83 52 46 76 75 72 69 62 57 57 62 63 65 65 60 56 63 75 75 66 66 77 88 98 104 110 105 102 98 82 72 73 81 81 73 60 53 53 57 58 57 57 63 72 79 81 82 84 85 53 46 76 77 75 74 71 64 59 55 53 53 55 61 74 82 82 74 67 78 81 90 103 110 113 104 100 95 89 83 79 82 87 90 86 77 67 69 72 78 84 90 94 98 97 92 90 87 53 46 76 78 78 81 84 87 87 84 82 82 81 86 86 82 79 75 78 82 83 94 109 115 114 106 97 92 90 89 83 88 88 89 89 89 88 88 90 91 94 98 103 105 103 99 95 91 54 46 78 80 84 91 97 97 97 94 91 87 85 85 89 86 84 82 84 85 89 101 114 118 122 112 101 92 88 91 89 87 95 99 96 92 90 89 92 94 99 103 106 108 106 100 95 92 54 47 79 81 85 93 99 101 98 94 92 91 91 93 96 89 89 86 83 86 95 107 117 121 121 118 109 99 85 88 96 100 102 104 104 104 103 100 99 98 100 106 108 111 106 101 94 90 55 47 78 80 84 92 100 103 102 103 102 101 101 103 105 100 89 79 78 86 104 118 129 130 130 128 119 106 89 85 90 94 99 104 107 112 110 111 111 109 108 110 111 111 107 101 92 87 53 47 77 80 85 93 99 106 110 111 111 111 113 107 102 86 80 87 87 89 107 131 155 142 137 147 139 117 100 99 98 94 89 93 101 109 111 116 118 117 115 116 118 114 107 100 91 87 51 46 78 82 88 97 106 112 117 118 119 116 110 99 83 77 90 98 102 97 103 121 139 131 125 130 124 111 113 118 113 101 92 87 93 101 109 115 122 123 124 125 122 115 111 101 91 86 50 47 80 87 94 101 111 115 117 119 118 109 94 81 75 79 91 98 98 92 90 98 108 114 110 101 92 87 92 99 104 99 91 82 88 87 96 106 113 122 124 125 124 119 112 102 90 85 48 47 81 88 95 100 110 111 113 109 105 93 78 70 79 79 82 77 70 64 72 78 91 98 92 82 71 55 39 40 57 78 78 76 83 85 83 94 102 111 119 120 118 118 109 98 91 85 49 48 81 85 94 98 102 101 105 101 93 80 67 71 81 81 68 45 31 30 35 58 77 79 78 72 46 36 35 34 38 55 66 74 84 85 79 84 91 97 107 110 108 106 103 96 91 82 47 46 79 85 90 93 94 96 96 91 82 71 63 70 76 84 80 53 44 50 53 53 63 65 65 65 58 67 64 54 54 71 82 84 80 80 77 80 87 92 96 99 97 97 97 92 88 80 47 45 77 82 87 89 89 89 89 85 77 64 63 71 72 75 80 78 72 70 74 77 70 50 45 59 66 77 82 82 85 86 88 87 85 85 83 79 81 86 90 92 91 91 88 85 83 78 46 45 75 80 82 85 86 84 82 77 72 65 73 77 75 77 75 72 72 70 74 82 83 77 76 76 79 86 86 85 84 87 93 95 92 90 93 84 80 82 85 85 84 85 83 79 77 74 44 44 73 76 78 80 80 79 78 77 72 69 80 80 79 77 75 73 71 72 79 90 86 81 80 79 78 85 88 85 84 87 94 96 92 92 94 91 80 83 83 81 81 80 78 76 73 71 43 43 70 72 73 75 76 74 74 77 73 80 80 80 79 78 77 73 73 74 83 86 84 82 82 83 81 84 85 84 82 84 89 92 91 91 92 92 87 82 82 80 79 77 74 71 70 69 43 42 68 67 68 72 71 71 73 77 76 84 79 77 76 76 76 79 80 83 89 96 92 90 87 82 86 88 91 89 86 82 84 86 88 87 88 90 89 82 82 78 77 73 72 69 69 68 43 42 67 66 68 71 71 70 74 78 79 79 74 72 72 73 75 67 69 70 71 74 76 79 67 65 68 73 75 80 85 80 83 83 82 81 83 83 87 86 82 78 75 73 71 70 68 68 43 43 67 66 68 70 71 70 74 76 77 73 68 66 70 63 58 57 56 58 61 63 60 56 54 56 55 59 62 66 66 65 65 72 77 72 77 78 84 86 81 79 76 74 72 71 67 68 43 43 68 66 69 69 73 71 73 74 75 66 59 61 55 47 48 47 47 48 50 55 54 52 52 51 51 49 49 49 48 46 48 49 57 66 65 71 81 84 78 80 79 76 74 70 68 68 43 44 69 67 67 68 74 73 75 76 71 60 54 51 43 41 45 49 47 55 52 74 88 68 59 94 127 92 69 91 59 46 45 43 43 51 54 66 76 81 77 79 79 77 74 68 68 68 43 45 70 68 67 67 73 75 75 75 71 53 43 36 31 34 68 106 86 147 91 179 205 170 116 206 225 195 135 203 123 83 90 51 36 36 44 60 73 77 78 81 79 75 71 67 67 69 43 44 71 69 67 69 73 77 76 74 71 54 42 29 26 35 101 144 139 192 155 206 221 216 171 220 224 226 191 220 156 137 138 79 37 33 49 66 72 76 80 83 81 75 70 67 67 69 43 44 73 70 68 68 71 76 78 76 72 64 58 53 55 62 81 97 110 153 153 181 194 195 177 198 190 181 157 153 105 93 95 84 74 61 71 74 74 76 80 81 77 73 68 65 68 69 42 44 71 70 68 67 71 75 78 78 77 73 66 66 63 70 74 90 82 82 91 93 101 105 105 99 90 93 89 89 91 90 85 79 73 69 74 77 75 76 80 78 73 69 66 65 67 68 42 43 69 71 67 67 69 72 76 78 77 79 73 67 65 63 69 74 87 103 127 144 139 116 110 110 100 109 117 127 107 91 82 84 69 68 75 77 76 78 78 75 70 66 65 65 66 68 41 48 69 70 67 67 68 71 74 75 76 78 78 70 66 60 64 66 75 98 117 118 119 104 98 101 93 97 102 95 85 82 75 65 65 71 74 79 78 78 76 73 68 65 65 64 65 67 41 49 68 68 68 66 66 69 71 73 75 78 79 73 70 66 62 66 70 77 89 103 95 97 91 79 75 77 81 80 73 65 61 63 69 68 71 79 79 77 74 70 68 66 66 65 65 66 41 73 72 67 66 66 66 67 70 72 73 76 78 73 70 66 65 62 63 64 69 72 73 68 68 68 69 70 65 64 62 61 65 68 68 70 75 81 79 76 72 68 67 66 65 64 66 65 41 125 83 67 66 65 66 66 69 71 72 74 77 75 72 68 67 65 62 59 56 52 50 50 49 50 52 56 59 61 64 65 66 70 71 73 78 79 78 73 70 68 66 66 65 65 65 64 39 68 93 76 66 66 65 65 69 71 73 74 76 76 74 73 71 71 71 65 63 61 58 59 59 61 61 62 66 70 70 70 70 74 74 76 79 78 74 71 71 69 66 64 64 64 63 62 37 42 78 124 67 65 66 65 67 71 73 74 75 76 76 77 75 77 78 80 79 78 78 75 75 76 77 76 78 79 78 76 78 78 79 80 80 77 72 71 71 69 66 65 64 62 61 62 38 44 79 188 90 65 64 64 66 69 72 74 73 76 78 78 80 82 85 86 88 86 86 87 85 87 87 86 88 87 88 88 86 86 84 82 78 75 72 72 70 68 65 65 63 62 61 62 39 47 88 210 183 76 63 64 66 68 71 73 74 75 78 84 85 86 87 92 91 91 94 91 93 95 95 94 99 99 99 93 90 89 84 81 78 75 73 72 68 66 64 63 62 60 60 64 44 45 86 209 239 164 71 64 65 66 70 73 73 75 80 84 87 89 92 98 100 101 99 97 100 99 100 102 104 107 103 97 94 91 85 81 77 75 73 69 67 64 62 62 60 60 62 69 37 42 75 225 242 236 156 70 64 64 67 70 73 75 79 86 90 91 93 97 100 104 103 103 104 101 97 100 102 102 102 99 96 90 85 79 77 74 71 68 64 62 61 60 59 59 64 60 29 94 191 240 242 242 229 124 68 66 66 67 70 74 76 80 88 91 95 97 97 97 99 100 101 101 97 99 100 100 100 98 93 88 82 77 74 71 69 65 62 61 60 58 57 56 59 62 30 149 241 241 242 242 238 143 69 69 66 65 67 70 73 74 80 85 91 94 98 96 95 96 97 94 96 98 99 96 93 91 87 81 77 73 72 69 65 62 60 59 57 55 51 56 61 66 33 150 242 243 242 242 240 160 64 70 69 65 64 65 68 69 73 80 85 88 93 91 90 90 89 89 90 90 92 92 88 80 77 73 72 70 67 64 61 59 57 57 51 48 54 61 68 65 37 93 150 150 150 150 149 105 38 41 41 41 40 39 40 41 43 45 49 51 52 54 53 54 54 51 53 51 53 53 49 46 44 43 42 41 40 38 36 35 35 31 28 32 37 40 43 40 24 