P2
48
60
255
35 60 63 60 63 70 73 74 73 74 73 76 77 79 79 80 83 83 82 84 88 87 86 90 90 90 90 86 85 87 85 85 86 83 82 79 81 82 83 81 79 73 68 69 66 64 61 34 59 93 98 98 104 110 115 117 120 121 119 122 122 126 129 130 133 134 135 135 138 138 137 144 144 143 141 140 140 138 139 140 141 137 136 133 133 132 132 132 126 118 115 112 105 98 96 49 58 96 95 100 103 108 112 114 117 123 122 123 125 128 131 134 134 135 136 136 136 140 139 142 142 140 141 140 140 136 140 140 141 138 137 136 134 129 125 123 117 119 113 111 105 100 88 49 63 95 98 101 103 107 110 111 117 120 123 124 128 130 132 137 139 139 140 142 140 142 141 141 142 144 142 140 142 141 142 143 145 141 139 136 136 131 126 125 116 119 112 109 106 108 87 46 65 102 99 99 101 107 109 109 115 123 126 128 132 135 140 142 143 143 143 146 146 145 145 143 143 143 141 142 145 144 144 148 145 145 137 123 123 122 110 109 115 114 111 107 107 114 95 40 66 104 98 98 99 103 97 88 86 99 111 119 128 132 139 145 146 145 145 148 149 148 145 145 143 143 144 148 147 148 147 140 132 114 92 83 84 78 65 61 67 78 95 102 108 111 93 41 61 98 94 93 93 83 59 42 43 46 52 64 74 80 91 120 139 145 148 146 150 153 148 145 140 143 146 146 143 134 122 107 80 68 72 69 60 60 64 59 56 60 71 87 99 104 101 50 56 89 88 75 53 43 43 43 45 47 49 48 48 53 54 63 86 111 135 139 143 149 147 144 139 142 145 142 129 109 98 86 74 82 81 74 71 67 68 61 62 62 61 74 90 98 102 54 56 85 70 48 47 45 45 45 49 53 54 58 63 65 65 65 73 87 105 123 134 139 139 139 138 139 139 134 117 106 102 94 88 92 88 80 75 73 75 80 89 95 94 85 94 94 101 59 53 73 55 57 60 60 66 67 69 78 75 71 71 70 74 80 87 96 103 108 122 126 129 133 130 128 131 124 116 109 105 98 94 89 89 90 92 96 92 99 106 111 108 98 94 95 99 61 45 70 77 73 70 80 91 99 101 107 110 107 91 86 81 83 90 94 99 103 113 119 123 126 123 117 122 118 109 106 101 95 92 91 103 109 115 117 116 117 110 107 112 103 95 96 98 61 45 80 78 78 86 93 99 109 119 124 128 129 122 115 106 100 96 95 92 95 104 114 116 120 119 114 114 109 103 101 104 107 109 111 116 122 125 128 126 121 117 111 107 102 98 96 97 61 52 83 79 81 90 98 101 109 113 119 122 128 127 120 119 117 113 103 93 91 97 108 118 124 123 116 109 103 100 103 110 115 113 112 106 108 108 106 113 117 114 111 102 97 99 92 94 58 53 85 84 87 90 90 86 84 85 91 94 96 97 106 116 124 121 112 97 86 91 104 119 131 134 124 112 107 107 104 106 116 102 92 86 91 100 106 103 97 90 99 97 101 102 96 91 59 55 86 81 80 74 62 65 64 51 41 35 48 51 68 82 100 116 110 104 92 92 107 125 137 144 130 119 113 102 98 105 90 77 52 39 34 46 54 48 56 76 73 91 99 103 99 92 59 54 81 74 60 52 45 35 42 30 36 28 55 75 61 50 76 88 99 102 94 97 107 128 139 143 129 121 118 101 95 85 68 56 42 56 40 68 108 113 53 38 66 82 96 102 101 91 58 50 71 59 51 44 44 58 76 43 34 32 44 111 126 93 57 97 103 103 106 104 109 129 139 143 126 120 121 112 108 102 69 88 53 35 34 42 109 129 95 57 50 71 90 99 103 97 58 53 78 72 71 69 70 80 94 93 75 66 97 129 118 103 94 89 126 125 110 105 112 130 138 144 129 120 122 124 122 99 100 97 90 58 57 88 120 116 102 84 84 84 87 100 100 98 58 57 91 87 82 83 82 87 94 96 98 97 100 106 106 111 128 132 127 127 110 107 111 128 136 142 129 120 119 127 122 122 112 103 102 106 108 116 115 109 100 88 94 101 105 104 102 99 58 54 93 93 84 78 80 86 91 93 96 96 96 97 101 108 118 125 129 119 106 106 112 128 136 142 133 119 119 123 126 116 105 99 102 105 110 114 115 112 102 103 98 102 105 103 102 100 58 58 95 97 98 92 90 93 91 93 95 96 104 108 114 117 124 131 125 109 105 106 113 129 136 139 130 121 116 121 129 122 114 105 99 97 95 99 100 101 99 102 106 105 108 104 105 99 58 62 103 100 105 105 103 110 114 116 113 110 116 120 123 127 133 135 118 109 105 106 115 128 134 140 136 122 117 119 130 135 116 114 119 120 121 118 119 116 119 116 113 114 112 111 107 100 58 67 108 108 108 109 112 116 118 116 117 115 114 121 123 126 137 131 118 106 106 104 115 128 138 139 137 126 120 117 127 143 130 112 113 120 124 126 131 130 126 120 121 118 115 117 113 105 59 71 116 117 119 116 114 110 113 114 115 116 121 131 137 141 138 127 113 106 106 111 117 129 138 142 134 124 121 122 124 138 150 137 119 109 116 117 120 125 125 126 128 126 125 120 115 103 60 73 121 122 127 126 127 125 115 119 125 127 134 138 138 140 134 121 109 103 101 111 119 133 142 145 138 125 121 118 121 131 148 151 142 130 118 119 120 124 127 136 134 133 132 125 114 105 62 72 123 125 134 132 128 129 128 125 131 138 138 137 139 136 129 118 105 99 104 115 126 135 142 146 142 133 126 118 120 127 148 151 152 145 139 135 135 140 141 137 140 137 132 123 114 106 63 72 121 128 133 130 131 136 137 136 134 136 136 135 140 138 130 113 98 95 104 116 130 137 139 145 146 135 128 121 118 129 144 146 153 150 148 146 145 142 142 142 134 134 128 122 114 105 61 69 117 123 123 129 134 135 137 138 139 139 138 141 141 135 123 98 88 91 99 116 131 139 143 144 144 138 130 120 111 127 141 144 146 151 152 151 149 147 146 143 138 130 128 122 113 107 62 69 114 119 123 126 130 129 134 137 134 138 140 143 143 132 108 86 87 92 101 117 133 141 147 149 144 141 131 119 107 112 132 148 151 156 154 152 148 147 145 142 136 126 122 117 109 105 61 66 113 115 117 123 125 130 130 133 137 140 143 139 136 120 93 85 94 98 105 117 141 148 150 155 159 149 128 122 115 102 114 141 153 160 157 153 150 144 140 133 127 123 117 112 106 97 58 64 110 112 116 119 121 125 128 130 136 136 137 136 127 104 88 92 100 98 99 100 122 138 144 144 154 140 120 121 119 111 104 124 146 153 155 150 142 139 133 130 126 118 114 105 102 96 61 62 106 105 105 114 118 123 128 128 133 133 135 128 113 95 87 92 95 90 78 77 92 112 119 121 122 116 104 105 112 113 114 111 127 146 149 148 137 128 129 122 116 112 108 103 99 98 60 61 103 107 107 107 111 116 124 127 130 128 120 119 102 93 87 84 82 62 30 35 67 84 98 101 99 85 58 70 96 107 114 111 121 134 144 140 133 127 123 118 114 109 106 103 102 100 58 59 102 105 106 106 108 111 117 124 127 126 121 114 105 99 89 75 70 46 32 38 48 62 68 71 67 41 35 56 86 109 128 114 113 127 135 135 130 125 119 115 112 110 105 99 104 99 60 59 98 102 107 108 111 114 116 124 125 118 119 112 115 103 94 77 60 54 64 72 71 65 61 75 90 92 72 63 84 114 128 127 111 123 129 132 127 121 117 115 109 110 109 106 102 92 61 61 100 102 102 105 108 112 117 123 121 121 117 123 121 115 110 99 90 84 81 81 85 93 102 102 106 104 106 103 114 122 128 129 119 116 124 131 126 123 115 111 110 110 112 103 93 89 73 63 102 101 103 100 104 107 115 121 119 120 124 128 124 118 118 111 105 100 98 102 110 115 106 110 116 112 108 108 120 124 129 129 127 117 118 124 120 118 111 108 111 109 109 100 94 97 115 61 102 101 101 101 103 105 110 114 113 120 127 126 120 115 114 110 111 112 107 116 121 115 118 108 120 120 111 112 118 120 124 126 124 120 115 117 119 113 109 106 105 106 106 100 92 118 129 61 103 102 99 98 98 100 101 109 117 124 123 118 110 105 111 110 106 113 117 125 129 120 119 113 124 127 121 118 115 116 113 117 120 121 115 109 111 107 106 105 105 105 103 95 91 156 130 61 102 104 101 98 97 99 103 109 117 118 112 102 99 101 103 112 117 120 123 124 126 121 114 117 126 133 128 125 120 116 111 109 112 115 113 111 108 105 106 106 106 102 97 90 93 190 130 64 102 103 102 98 96 97 104 107 114 112 102 95 92 98 104 117 115 110 103 95 95 109 122 131 111 102 110 116 120 117 112 107 109 106 112 109 107 106 106 107 103 98 94 89 113 207 130 56 99 101 99 96 94 93 98 100 106 108 99 90 89 98 97 89 80 78 80 80 78 79 93 91 80 82 85 83 88 104 108 103 107 105 109 108 107 108 108 108 104 97 93 88 155 209 130 53 96 98 99 97 96 90 93 97 96 100 94 80 80 73 66 66 63 61 60 63 62 64 70 69 66 64 65 71 72 75 88 92 95 102 103 105 106 105 107 108 101 98 90 91 193 209 129 52 90 94 96 93 95 88 92 97 91 85 65 51 54 50 50 52 55 61 67 69 70 69 68 73 73 70 62 56 60 57 57 56 76 95 100 102 104 107 107 103 97 93 87 113 207 209 129 50 87 89 93 93 93 87 90 91 85 65 43 53 59 64 72 81 87 91 105 113 116 118 117 119 118 105 92 88 72 65 67 47 57 87 99 100 107 107 106 100 95 89 85 158 209 209 129 47 79 85 90 89 90 87 88 87 82 77 85 91 88 83 81 86 88 93 110 115 113 115 117 138 131 107 95 91 91 97 103 90 65 77 93 101 109 107 103 95 91 87 89 194 209 209 129 46 75 79 83 85 92 90 92 95 102 102 99 97 93 84 81 80 81 82 83 86 89 96 92 91 95 92 90 94 97 102 105 106 95 85 92 105 108 102 97 89 85 83 117 207 209 209 129 45 73 73 77 79 83 85 92 99 107 106 104 99 96 86 81 78 76 77 72 71 67 67 67 69 78 83 87 95 101 105 109 112 108 99 100 104 100 94 91 84 82 80 173 209 209 208 129 43 70 71 69 72 75 78 83 94 100 101 102 99 95 89 84 79 74 72 73 72 67 64 65 71 77 84 91 97 104 109 112 116 113 102 105 95 89 87 85 81 79 109 206 209 209 209 130 41 69 68 65 66 70 73 77 88 95 97 96 95 94 91 91 88 84 83 87 86 84 86 88 91 95 100 103 105 107 109 113 113 110 97 78 77 84 82 79 80 82 183 209 210 209 210 129 40 67 67 66 63 67 73 75 83 89 95 92 90 91 89 88 87 84 82 86 90 97 100 100 97 98 99 102 105 102 105 109 110 106 95 77 76 76 77 77 76 147 210 210 210 210 209 130 40 63 66 66 65 67 72 75 78 83 87 87 89 89 87 85 88 84 80 83 89 99 104 102 95 94 97 99 100 100 102 102 104 99 91 85 77 76 75 73 100 205 210 210 211 210 210 130 39 62 63 66 67 67 70 75 77 80 83 85 86 89 91 92 94 98 90 87 90 93 95 99 105 111 116 115 110 106 104 101 95 94 90 85 77 75 73 76 173 212 211 211 210 211 210 130 38 63 61 64 67 69 68 70 76 76 80 85 84 91 101 106 110 110 105 91 83 82 81 82 96 112 113 120 113 107 103 97 89 87 85 80 74 72 74 97 204 211 211 211 210 211 210 130 36 62 61 61 64 66 66 67 72 75 79 83 86 91 96 100 107 108 100 93 93 87 85 90 94 102 105 103 99 97 98 91 84 81 77 74 72 73 74 86 146 208 211 211 211 212 211 130 35 59 60 60 60 62 63 64 67 71 78 83 83 90 94 90 91 96 96 98 97 95 98 103 98 91 89 86 91 88 88 85 78 73 71 70 72 74 66 60 93 163 211 212 211 212 211 131 33 56 59 57 58 59 61 61 63 67 73 74 80 86 88 84 82 81 84 87 87 87 87 89 87 85 85 82 87 85 84 79 71 68 67 70 72 73 55 49 84 111 194 212 211 211 211 130 34 52 56 56 56 55 56 57 58 60 65 67 71 76 77 78 76 76 69 73 77 77 79 77 76 80 80 80 82 84 78 72 67 65 68 69 69 79 52 46 82 103 150 211 212 211 211 130 40 57 52 53 55 55 54 54 53 54 58 61 65 67 68 70 68 69 71 67 72 71 70 69 66 68 71 73 75 74 69 65 63 64 67 67 79 85 52 46 71 100 118 204 213 212 211 130 28 41 34 32 33 33 33 32 32 31 32 34 36 37 38 38 37 37 37 36 36 37 35 35 36 38 40 41 41 41 37 36 39 39 39 50 55 54 31 32 45 61 68 116 130 131 131 80 