P2
48
60
255
28 56 62 68 73 77 78 78 81 86 86 90 94 99 100 101 98 99 98 97 98 96 95 96 95 94 95 94 94 91 92 94 94 94 95 92 86 85 81 79 78 76 75 72 68 66 64 34 47 90 103 111 118 122 129 126 132 134 141 147 150 157 161 162 160 157 157 158 158 157 155 156 156 155 153 152 149 150 148 152 154 154 154 149 141 138 132 127 125 124 121 117 109 107 100 57 44 87 103 114 120 124 127 126 129 132 140 144 150 154 159 162 160 159 156 157 156 157 155 154 156 157 155 150 149 147 148 151 151 152 151 145 144 137 135 128 124 122 120 116 108 103 97 56 42 86 103 114 121 123 123 125 131 136 142 149 153 156 160 164 161 162 159 160 158 156 155 155 158 158 157 148 150 148 152 152 153 154 152 148 142 135 131 126 121 120 118 115 109 103 96 50 41 87 105 114 119 121 122 127 131 136 142 148 157 159 161 163 165 165 160 160 160 160 156 159 160 161 159 158 156 152 153 153 158 155 152 147 143 137 129 125 121 122 119 114 110 103 97 55 44 92 104 116 121 125 127 130 133 137 141 147 153 159 161 164 166 164 163 161 162 162 159 160 161 162 157 157 157 154 153 155 157 157 155 146 142 138 134 127 125 121 118 114 108 105 94 51 44 93 107 115 125 129 127 131 134 140 144 151 157 161 161 164 163 165 162 163 163 161 159 158 160 160 157 159 158 154 154 157 158 158 153 148 144 142 134 128 129 122 118 113 108 105 95 51 46 97 111 117 128 130 131 130 135 140 145 151 160 157 160 160 159 157 158 156 155 155 156 154 156 154 154 153 154 154 151 155 156 155 151 149 143 140 135 129 129 124 118 110 106 105 95 53 49 103 113 120 126 132 135 132 136 136 145 154 160 158 159 157 154 152 153 152 151 151 153 153 152 151 150 148 150 148 149 149 150 149 146 146 142 138 137 128 127 126 118 109 104 104 98 55 52 109 112 118 126 128 123 123 128 139 147 154 156 158 154 152 151 147 147 148 148 147 148 148 148 145 144 141 141 136 141 143 143 143 140 123 114 110 101 95 93 97 108 109 104 102 101 58 56 108 111 117 117 106 105 108 108 104 108 119 123 127 136 141 141 140 140 140 142 144 144 142 141 141 139 132 133 131 130 130 124 110 88 80 80 77 71 82 88 80 82 93 100 103 101 61 63 111 113 106 96 89 86 82 83 78 74 77 79 87 104 118 128 130 131 131 133 139 140 140 141 134 131 123 122 118 112 109 88 70 66 66 69 82 96 105 105 99 88 75 83 96 102 62 66 114 104 79 85 93 100 102 103 96 82 70 63 66 67 78 104 114 118 120 126 136 140 142 141 129 123 114 110 104 99 83 68 62 64 76 90 102 113 121 122 118 112 102 82 81 98 61 69 111 88 96 105 122 125 125 115 106 96 83 76 73 76 80 82 90 102 114 126 137 143 144 140 131 120 106 96 89 83 77 68 59 54 53 53 57 64 74 89 101 105 104 99 92 92 61 71 109 104 109 108 107 93 66 51 40 35 32 34 44 54 71 85 87 92 104 119 133 144 147 143 130 113 97 87 83 80 62 51 58 55 46 37 37 44 49 50 57 86 98 96 97 99 63 69 116 120 111 102 73 43 42 61 42 77 33 77 74 71 62 77 88 95 106 118 130 145 147 141 125 109 94 84 76 69 71 79 121 71 93 30 77 58 78 49 44 59 88 92 98 100 64 71 125 121 111 95 60 53 80 105 55 63 27 73 96 124 77 88 96 98 104 116 131 146 146 141 123 107 95 87 93 89 100 118 145 80 66 51 66 78 97 69 60 66 84 92 104 104 64 72 127 127 111 93 83 79 83 101 82 83 78 88 104 106 98 101 103 110 108 115 127 141 139 135 118 104 93 96 109 103 109 109 117 103 92 83 87 90 85 75 79 86 88 94 106 108 68 74 125 126 116 105 95 92 98 95 92 98 99 104 105 105 104 107 105 111 109 116 123 137 134 128 113 101 94 97 110 111 108 109 111 107 103 95 91 95 96 93 103 110 112 115 124 118 70 75 128 131 126 123 119 106 109 112 114 115 119 113 104 96 96 102 104 113 111 117 120 132 129 124 111 99 97 97 105 105 103 102 103 107 107 107 112 108 105 107 115 128 128 120 127 127 72 77 129 132 136 135 135 130 120 112 109 107 101 96 96 108 116 112 115 112 114 116 117 131 134 122 106 99 96 97 109 113 114 113 106 100 95 97 102 107 110 119 129 138 141 137 126 127 76 78 129 136 136 138 141 142 143 139 135 127 125 126 126 127 127 127 122 111 115 118 116 132 135 129 109 100 95 97 105 120 128 124 125 128 129 131 132 137 139 139 139 137 137 141 135 121 74 79 133 135 134 140 146 146 141 141 138 136 139 137 135 139 139 130 117 115 118 118 118 128 134 128 111 101 98 96 106 119 133 132 132 134 135 139 142 142 137 137 140 137 134 133 134 126 73 80 132 132 136 143 148 149 144 144 144 144 144 142 146 145 135 125 119 120 121 122 125 136 138 128 112 101 101 98 104 119 130 138 139 139 140 142 144 144 142 137 138 134 131 129 128 124 72 80 130 136 141 149 150 149 149 151 150 151 150 148 147 143 133 121 119 120 123 126 130 137 141 131 116 102 101 103 104 117 130 139 142 144 146 150 151 149 144 141 138 135 133 128 123 119 71 80 132 137 140 146 155 158 156 156 154 152 151 146 144 140 132 126 124 121 123 126 131 141 142 133 113 101 100 102 108 118 127 139 144 146 147 149 155 151 149 147 143 139 130 123 119 115 70 80 132 135 140 146 157 162 166 161 154 151 147 143 143 141 138 127 124 120 119 123 138 146 144 133 120 103 97 99 106 115 125 134 141 147 148 147 150 147 150 152 148 143 131 123 116 113 66 79 132 136 142 147 155 163 165 160 149 149 150 149 146 137 127 117 114 115 118 126 137 142 144 138 122 105 98 95 96 101 115 127 134 140 146 146 151 149 149 153 147 138 131 121 113 109 65 79 131 135 139 146 153 159 164 164 156 152 152 140 131 115 96 103 114 115 119 126 140 141 142 138 122 107 100 96 97 92 92 110 125 137 143 144 149 149 148 149 143 135 128 118 112 107 65 77 130 133 134 144 149 153 156 156 154 145 135 120 102 79 91 110 118 114 120 135 158 152 146 142 125 108 101 98 101 92 80 83 99 120 134 138 143 141 142 142 137 133 124 115 108 106 63 76 126 129 132 138 143 146 149 144 139 127 111 87 66 88 107 112 116 112 118 136 165 158 152 157 128 106 100 96 101 92 88 85 75 92 113 124 132 135 137 133 131 126 119 112 104 103 62 75 126 126 128 132 137 139 141 135 123 108 81 60 93 115 121 121 105 102 107 121 136 131 126 127 105 91 86 86 87 100 100 97 83 67 86 108 121 125 127 129 124 120 114 107 103 101 61 74 125 124 126 127 129 130 128 120 105 84 58 91 118 121 122 128 117 97 88 88 99 99 85 87 82 78 74 78 97 100 95 97 95 79 69 84 102 113 119 119 119 116 110 104 101 100 61 72 120 121 121 121 122 121 116 101 81 57 84 117 125 124 123 125 122 118 110 98 91 87 73 74 79 87 94 98 98 97 99 103 104 102 89 77 87 99 109 111 114 109 105 102 98 98 60 72 114 116 115 115 112 109 98 80 58 84 117 126 126 126 125 125 123 119 120 112 99 85 70 73 82 94 101 100 100 101 104 105 108 112 108 92 80 94 101 105 104 105 100 97 96 97 59 70 114 110 110 110 107 97 81 63 79 116 127 126 126 128 126 126 125 127 131 127 119 116 113 106 103 107 112 108 106 106 107 107 110 111 111 106 89 89 102 104 101 100 96 93 93 95 59 69 112 109 110 111 108 92 81 65 110 121 126 129 127 130 133 133 133 134 135 136 135 136 137 139 128 122 122 120 115 114 114 113 112 109 108 103 94 83 102 107 103 97 95 96 94 95 55 67 111 109 112 114 109 106 79 83 108 118 126 125 123 126 134 138 136 141 141 141 141 142 143 144 139 137 133 130 125 118 114 111 107 107 102 98 91 92 97 109 110 97 98 98 95 96 58 66 111 111 110 116 116 110 80 95 100 99 92 78 70 70 77 88 95 103 113 123 128 132 132 126 119 113 105 98 93 84 77 71 68 65 67 72 75 90 97 117 114 105 104 98 94 96 57 65 108 111 111 115 123 118 90 86 80 59 42 27 43 64 85 96 104 95 95 91 90 89 85 84 91 83 85 81 77 93 78 73 67 31 38 48 77 97 111 128 120 110 102 96 94 96 59 62 107 110 111 114 123 128 109 85 100 78 63 43 65 98 117 122 131 126 145 135 166 156 125 145 175 129 127 134 110 137 116 120 111 45 66 98 105 110 126 134 119 110 100 95 95 96 59 54 104 110 110 112 123 134 126 102 119 123 95 75 83 151 164 142 160 142 170 147 204 201 143 186 191 150 167 155 134 157 131 122 95 85 105 110 112 122 136 134 116 107 99 94 94 94 58 40 103 109 111 110 118 131 135 122 119 129 128 103 88 136 174 161 162 160 192 173 198 201 171 188 185 163 180 146 134 134 108 101 100 107 106 110 123 132 143 130 115 101 94 94 97 95 58 29 97 107 111 111 111 125 136 136 122 128 125 123 112 110 136 142 153 153 170 161 182 182 169 174 172 141 124 118 112 117 109 104 102 100 105 114 130 142 143 127 108 96 93 96 95 93 57 24 84 105 108 111 110 117 134 139 130 124 124 121 118 116 118 104 121 110 124 102 140 143 113 128 127 121 120 118 119 114 102 98 98 102 109 118 128 141 137 120 101 94 96 96 94 92 53 25 66 102 109 110 108 110 126 139 131 124 124 119 113 109 115 117 117 116 121 131 124 124 122 127 126 128 123 121 116 105 102 103 103 106 110 114 127 136 131 111 96 94 96 97 92 87 36 24 48 94 104 107 107 105 114 133 131 124 123 119 116 108 107 109 118 127 141 135 133 131 134 131 127 125 120 112 106 103 103 105 104 102 104 111 124 130 121 102 95 95 97 93 89 68 20 25 44 67 101 106 107 104 105 120 130 119 123 121 119 113 113 108 106 113 127 130 123 119 118 113 113 108 105 105 106 107 104 105 104 105 103 110 122 122 111 98 95 94 95 90 79 42 17 27 49 51 90 104 108 105 101 107 121 127 122 123 119 115 114 113 110 104 102 100 98 99 99 99 101 107 112 113 112 109 108 107 108 103 102 116 117 116 105 98 95 95 93 84 60 33 15 28 48 54 71 96 108 108 106 104 114 124 129 122 122 118 115 114 115 114 113 114 113 116 115 115 117 118 120 121 119 116 112 113 110 101 107 119 114 109 101 96 95 93 88 78 42 29 14 27 50 55 61 78 98 106 109 109 110 119 127 129 123 122 119 112 115 115 118 118 118 121 118 120 122 124 123 123 124 119 118 118 110 105 115 117 111 106 99 95 93 89 86 80 26 32 17 28 48 53 62 65 100 100 109 111 112 119 124 128 125 125 126 123 120 118 119 121 123 125 123 126 135 135 139 136 132 126 128 122 108 107 113 113 108 102 97 94 89 83 97 74 25 26 16 31 48 51 60 66 115 104 103 111 115 117 122 127 125 123 129 131 129 128 127 132 135 142 146 142 144 142 141 140 132 134 128 118 105 108 111 107 104 97 93 89 83 93 100 69 31 30 16 32 49 50 57 68 118 120 99 104 112 114 117 123 127 123 126 135 136 136 137 138 140 144 145 144 141 139 137 136 133 134 123 115 105 107 104 101 94 90 88 81 90 100 99 62 42 43 17 35 51 48 60 72 121 124 113 98 105 111 112 118 124 123 124 130 139 135 136 139 140 147 148 149 145 146 142 140 135 129 123 112 105 104 100 94 89 83 79 88 97 100 100 48 38 46 24 41 58 51 64 70 119 126 120 108 95 101 109 114 119 122 123 124 133 137 139 146 147 149 152 151 151 146 142 138 134 125 119 109 102 97 93 87 79 78 86 94 99 102 100 36 30 57 35 41 68 55 60 68 115 128 125 117 104 95 99 105 111 117 119 121 124 132 140 148 151 150 147 148 148 141 136 139 133 116 109 103 98 90 84 76 77 84 93 98 104 103 98 29 25 53 43 36 74 60 56 66 110 128 128 123 115 101 93 93 98 109 117 120 118 121 133 145 148 144 142 145 143 138 137 133 117 107 107 99 91 81 74 78 84 90 98 103 105 104 96 30 34 51 34 36 68 67 53 69 104 127 129 126 121 112 99 92 89 96 107 113 116 114 123 132 137 139 136 136 135 130 121 111 104 102 96 88 77 74 79 86 90 95 101 106 105 102 90 31 33 40 30 25 39 44 31 43 62 77 81 79 77 74 67 60 55 55 57 64 68 69 69 75 78 77 77 74 73 68 65 61 60 55 53 47 46 49 53 56 58 61 64 65 66 64 53 21 21 24 21 