P2
48
60
255
30 50 55 57 63 65 70 72 73 73 74 76 79 85 85 92 94 99 95 98 96 99 97 97 97 100 100 101 100 107 107 110 111 108 104 101 100 98 99 97 101 95 91 93 90 91 85 45 46 78 86 93 99 107 112 113 118 117 120 127 130 135 141 148 155 157 158 159 163 160 159 156 158 162 163 163 168 175 178 177 175 171 169 163 160 161 160 158 155 152 147 143 144 145 135 73 45 76 84 92 98 106 109 110 118 118 125 130 136 141 146 154 155 157 162 166 167 164 161 158 159 161 162 165 168 177 182 181 171 171 171 168 161 158 160 154 152 149 146 145 141 142 132 73 43 74 84 90 99 104 106 109 115 116 122 128 139 143 146 154 157 156 161 166 170 169 161 156 157 161 163 161 171 172 177 177 175 174 171 169 165 161 157 158 155 146 142 143 138 134 128 78 43 73 82 88 95 100 103 108 111 115 117 122 132 137 140 151 154 155 157 169 170 173 167 163 163 162 163 163 170 168 173 175 170 172 169 161 157 160 156 149 145 145 142 138 133 130 127 77 43 72 79 87 95 98 99 106 106 112 116 114 118 130 128 138 148 150 154 163 170 172 166 165 159 157 164 162 165 167 166 162 156 159 152 149 154 154 151 147 148 146 141 132 129 129 128 77 42 71 79 88 96 100 103 106 109 107 108 109 105 115 120 125 136 141 147 151 162 164 164 160 153 152 158 161 157 159 156 145 142 151 145 152 154 154 151 151 152 147 141 133 129 128 125 76 41 70 81 93 101 106 110 114 119 118 110 111 100 107 114 121 126 131 135 140 145 147 153 147 148 145 150 152 146 145 143 136 143 147 146 154 152 156 157 157 159 152 143 134 130 123 121 74 41 73 84 95 103 110 117 121 124 124 118 112 104 104 110 112 118 120 124 127 134 140 143 137 137 138 136 139 134 134 135 130 140 146 151 147 148 154 154 157 154 147 145 136 129 123 118 73 40 75 84 92 94 97 106 113 118 119 118 116 110 110 113 110 108 107 110 116 121 126 132 130 126 127 123 119 121 122 125 128 130 136 140 143 134 133 134 129 126 123 127 135 130 122 114 69 42 75 82 77 63 71 72 79 89 93 88 98 103 92 91 95 97 93 95 102 105 111 127 130 121 116 107 103 106 101 111 112 96 87 89 100 102 93 91 94 90 97 97 115 123 122 114 69 41 71 63 48 45 44 52 59 59 53 60 63 57 51 55 62 67 70 70 78 96 107 120 135 123 108 96 91 79 67 64 58 50 43 45 50 56 64 66 73 63 67 76 81 95 110 114 67 39 51 39 32 35 38 42 44 42 38 35 32 35 30 33 33 31 35 43 60 89 111 135 147 155 136 105 76 53 43 38 33 30 31 28 31 32 40 53 65 65 63 58 59 62 73 101 65 27 33 30 33 40 41 43 46 41 33 26 23 22 22 19 21 19 23 40 61 91 116 142 156 156 151 131 85 44 33 29 26 26 27 30 36 52 64 69 78 89 85 79 64 62 59 83 65 23 35 42 47 46 50 56 59 56 48 38 29 22 18 19 19 20 24 42 63 90 113 137 149 158 151 135 99 45 29 31 29 28 27 35 50 64 77 84 92 94 93 88 81 73 71 80 60 26 41 46 45 46 44 41 33 25 17 12 10 11 13 15 22 26 31 47 61 82 105 133 148 157 144 128 102 49 32 32 23 22 17 13 12 15 19 27 35 50 71 82 85 81 77 83 59 26 42 44 41 35 22 14 13 10 9 7 10 19 35 22 28 45 51 55 62 73 101 127 141 148 138 120 99 61 58 36 25 39 45 20 10 10 11 16 17 17 25 49 79 83 81 83 56 29 43 36 33 18 14 14 31 18 13 13 20 55 77 44 44 54 65 62 62 73 101 131 143 149 144 121 106 112 105 43 46 78 85 41 28 24 31 59 36 28 30 34 49 82 86 92 61 30 46 40 24 19 22 32 50 61 51 63 75 108 107 92 75 57 64 65 66 75 103 134 145 151 151 133 113 117 110 107 101 95 99 100 96 100 89 86 74 68 54 53 64 75 95 106 69 33 49 41 38 42 43 55 66 73 86 89 91 96 99 99 93 71 67 68 70 75 109 134 145 155 154 138 119 118 120 121 100 89 88 89 95 99 101 109 110 99 97 103 102 98 111 123 78 38 57 59 59 58 59 69 77 80 82 85 89 86 89 98 95 84 73 75 73 77 111 133 143 150 149 138 119 124 126 129 116 98 83 87 97 103 105 106 105 107 112 118 123 129 133 139 86 45 71 70 73 69 62 60 65 72 78 78 81 90 100 103 95 86 83 79 72 83 112 133 145 150 142 135 120 127 132 136 134 125 116 105 97 98 103 109 114 122 128 128 131 136 141 144 87 50 81 84 85 85 85 81 81 83 88 97 102 106 108 101 92 85 83 75 75 95 118 138 150 158 156 146 131 123 132 139 145 142 135 128 127 128 127 132 134 139 139 139 142 144 145 148 91 61 103 103 101 98 100 101 103 104 107 112 114 115 110 104 95 83 76 69 79 102 123 136 150 161 162 155 138 121 126 137 147 153 150 143 141 138 139 145 145 146 147 148 148 148 146 149 93 70 115 112 109 111 110 112 113 114 115 117 120 116 113 109 93 75 70 70 79 104 127 136 153 166 166 155 136 118 118 130 146 154 156 157 148 143 140 145 145 150 150 149 147 146 147 150 95 71 116 117 114 114 116 119 119 117 118 121 122 118 119 108 87 70 68 69 76 96 121 133 152 166 169 153 129 115 115 121 144 155 160 159 157 153 152 153 152 150 152 152 149 147 149 149 90 69 116 113 115 120 117 118 120 122 126 125 121 122 126 107 79 68 69 70 73 87 112 132 152 167 172 147 125 116 121 118 133 155 161 162 160 159 160 164 162 156 159 158 150 146 151 147 88 66 109 107 116 118 119 124 128 127 128 127 128 130 123 95 72 69 73 73 74 85 103 128 152 165 168 149 123 119 131 127 122 142 155 161 161 160 162 165 171 167 163 155 147 147 143 142 87 63 106 109 111 119 123 128 128 120 126 130 129 131 112 77 69 71 73 75 73 82 98 117 139 147 149 135 115 120 134 129 118 129 148 154 162 165 165 163 168 171 164 160 147 148 142 141 84 61 103 107 111 122 123 127 128 129 131 130 127 127 90 73 67 71 74 71 66 69 82 101 117 124 123 112 98 108 123 123 112 116 138 151 157 163 163 159 166 166 160 156 147 149 141 140 84 60 104 104 114 116 119 118 127 127 132 130 126 110 76 70 65 69 69 66 56 57 65 77 92 99 99 91 80 90 108 110 108 108 123 140 150 159 158 160 161 160 157 153 147 146 142 142 84 60 104 108 112 120 118 119 127 126 128 130 127 90 73 70 63 62 59 51 34 35 51 59 65 73 77 64 26 47 77 92 100 109 114 135 145 151 152 154 157 156 157 154 151 143 143 136 81 60 99 105 109 110 114 116 122 122 125 128 117 78 70 73 61 55 49 23 12 16 25 39 40 45 55 33 15 16 45 75 100 116 111 125 139 149 151 158 159 157 154 154 149 143 136 133 79 58 94 102 107 111 115 116 115 119 122 126 105 75 75 79 72 47 36 18 34 52 45 31 33 37 62 82 51 21 33 78 120 124 117 126 131 146 151 153 158 153 149 149 148 139 134 130 79 54 92 100 103 112 115 114 116 116 118 125 98 76 80 84 83 63 29 27 47 60 64 57 41 58 95 105 96 58 70 117 128 129 123 128 132 142 148 149 150 152 150 145 139 136 134 129 79 53 87 98 100 106 112 116 113 121 119 122 91 78 81 84 84 80 73 71 72 71 72 75 93 99 107 111 114 116 123 128 128 132 136 132 129 138 140 147 147 144 144 144 140 132 132 130 79 54 87 96 100 104 113 114 118 123 122 119 87 79 82 86 85 83 80 78 76 74 83 110 113 112 119 121 122 122 127 132 134 139 139 131 128 135 144 147 148 144 140 141 138 133 132 126 78 51 86 92 99 104 109 113 109 115 121 114 83 81 82 83 83 80 80 78 79 99 119 129 122 118 127 132 130 128 132 137 139 138 135 129 128 129 134 137 144 141 140 138 134 133 125 122 74 48 82 88 95 99 104 112 109 111 120 107 84 83 81 81 78 80 79 92 109 122 133 138 132 124 128 138 137 131 132 133 136 135 130 124 123 125 131 134 136 137 137 135 135 130 122 119 73 47 80 85 89 97 98 106 109 111 116 106 87 82 78 77 77 90 102 115 122 131 144 150 143 133 132 147 144 138 134 130 129 131 129 127 125 127 129 132 132 132 134 131 129 126 121 119 71 46 78 84 92 97 97 94 104 109 112 110 103 87 83 89 98 109 114 120 119 113 126 140 151 142 135 124 126 138 141 133 124 125 127 122 121 123 126 132 130 129 131 129 122 118 117 114 69 45 74 79 91 98 99 93 99 106 110 114 111 99 99 94 95 104 100 86 78 78 73 83 110 107 90 86 88 94 114 129 127 119 118 117 115 120 128 132 130 131 130 128 122 118 117 113 70 45 73 77 85 94 97 94 98 99 105 106 103 89 81 78 76 63 58 63 68 66 61 55 58 63 66 73 79 84 80 82 104 114 106 102 108 120 126 130 129 131 129 126 122 117 115 113 72 43 72 75 81 90 92 92 97 100 104 105 96 73 53 53 48 46 48 48 48 47 46 45 50 47 46 49 52 61 66 62 61 81 72 81 104 122 129 128 129 130 127 121 121 118 115 116 73 43 71 74 78 85 91 93 98 103 107 102 93 60 48 55 64 67 58 34 30 27 28 24 26 27 33 44 57 68 69 61 48 50 62 89 97 123 128 133 129 126 126 121 119 116 116 117 74 45 74 75 77 82 87 95 102 104 107 106 98 101 104 100 111 120 128 118 116 111 110 110 115 122 130 136 139 138 132 121 110 112 129 121 113 127 133 137 135 125 125 121 117 118 117 118 75 43 71 73 78 80 86 98 103 104 106 109 102 102 103 105 106 117 131 137 146 146 142 137 141 147 149 151 146 139 137 132 126 129 138 133 125 127 132 141 134 130 124 121 119 118 116 117 72 43 71 71 74 77 85 97 100 103 108 111 102 98 98 101 103 108 113 123 132 136 135 135 134 135 139 136 132 130 132 134 133 135 137 137 135 128 133 137 134 127 123 121 119 116 116 115 71 43 70 70 72 74 83 92 100 105 111 111 108 96 92 94 95 92 95 102 108 108 105 106 106 105 108 112 114 119 129 133 130 133 138 143 142 134 131 133 133 127 123 120 116 114 113 113 69 40 68 69 71 74 83 87 93 103 108 110 108 94 92 86 88 89 90 90 88 85 84 85 85 89 96 108 117 120 126 128 128 134 138 141 145 140 130 130 127 123 119 118 113 109 110 106 65 39 65 66 68 70 75 78 86 98 105 109 108 100 94 89 83 78 81 84 85 89 93 89 95 99 102 109 115 116 123 125 127 133 135 140 142 139 129 120 121 117 113 112 107 105 104 98 59 38 62 63 66 67 69 71 82 89 94 102 105 104 99 100 92 93 95 103 114 121 125 121 121 129 129 130 126 128 131 130 131 130 135 139 139 133 125 118 115 112 107 106 104 103 95 91 52 35 58 59 61 63 65 68 79 88 91 98 105 106 104 101 103 108 116 128 136 138 141 141 141 143 144 140 138 135 133 133 133 137 135 135 132 128 122 115 112 108 103 99 98 94 86 78 43 33 55 56 58 59 63 62 70 78 89 96 108 115 113 114 117 124 131 137 141 149 153 152 154 151 158 157 152 143 135 134 137 140 136 130 126 122 119 112 105 99 95 94 89 82 73 65 40 29 51 54 56 60 64 63 64 71 81 92 107 118 124 119 123 128 136 143 150 156 151 153 155 158 165 167 157 148 141 139 142 139 131 123 116 115 108 105 96 89 88 84 77 66 62 68 40 24 45 49 53 55 59 62 63 66 71 85 95 108 122 126 123 129 137 144 153 157 152 157 160 158 161 164 155 151 145 150 144 134 125 117 111 106 98 96 93 83 78 70 57 51 89 69 40 15 33 40 46 49 52 55 59 64 67 76 86 99 115 120 122 131 134 146 150 157 151 151 151 151 148 153 148 143 143 150 138 128 118 109 102 93 94 87 79 69 63 50 39 71 100 63 39 19 22 30 38 42 47 50 54 56 62 69 72 82 97 105 112 124 132 143 149 149 146 144 142 140 145 145 139 136 139 137 126 113 108 99 88 79 78 72 64 51 38 36 63 94 98 35 33 29 33 21 25 32 36 40 46 50 57 60 62 73 85 94 92 109 119 125 133 137 136 135 136 135 135 133 131 129 132 121 115 101 96 85 71 64 60 50 39 33 36 63 86 103 95 21 18 20 28 18 12 14 17 19 22 25 30 34 38 38 47 58 50 56 65 66 71 74 73 76 76 76 76 75 73 77 73 64 64 60 51 40 35 28 24 18 19 21 38 50 58 66 58 11 8 