P2
48
60
255
23 42 48 49 51 51 52 53 54 56 59 62 63 65 65 66 68 69 70 71 72 72 73 75 74 74 72 71 70 70 72 73 73 74 73 75 73 73 73 75 74 73 73 68 62 56 51 27 37 68 76 79 80 81 83 88 90 93 97 100 103 105 104 107 109 112 114 115 116 117 117 118 118 117 114 112 112 111 115 116 118 120 119 119 121 120 119 118 119 118 118 112 103 92 86 47 38 69 75 79 80 82 85 90 92 94 96 99 103 106 106 107 111 111 110 113 115 116 117 117 114 113 112 110 112 113 117 118 119 121 122 121 121 121 120 118 116 117 117 114 107 95 87 48 37 70 77 79 82 84 87 90 92 95 99 102 105 106 109 112 114 113 112 113 114 114 116 115 109 110 112 111 116 119 120 123 125 124 123 124 123 124 123 120 118 115 114 112 107 99 90 49 38 72 78 82 85 87 90 94 94 97 100 104 106 110 114 114 116 117 116 115 114 113 114 113 111 112 114 117 121 123 125 128 128 129 127 125 125 126 124 122 119 115 113 110 103 100 90 51 39 74 79 85 90 92 93 95 97 98 102 105 109 112 116 116 120 120 120 119 117 115 116 116 116 117 118 119 122 124 127 129 133 128 127 127 126 124 123 123 121 116 113 109 105 100 92 50 41 75 81 88 94 95 94 95 95 98 100 102 102 105 109 114 118 120 124 122 119 120 120 120 119 120 120 121 121 124 128 131 129 126 121 122 127 126 122 122 118 119 113 110 106 101 94 53 44 79 85 92 91 88 86 86 85 85 84 85 86 89 92 103 108 114 118 118 119 120 122 122 118 122 119 114 114 120 117 116 112 113 115 117 124 121 126 123 117 116 115 114 109 104 100 58 46 81 87 82 75 71 67 63 62 63 64 67 72 78 84 91 96 102 106 111 114 117 122 126 124 120 113 106 99 105 93 86 83 75 77 82 86 99 110 114 112 106 111 112 113 107 104 62 47 81 74 64 63 58 57 56 55 55 55 55 61 67 72 82 84 92 97 105 108 114 126 128 121 112 103 94 90 87 78 72 67 66 68 72 77 72 80 88 87 85 93 104 110 110 105 65 49 70 57 57 56 57 58 58 59 61 61 58 56 56 61 68 73 81 86 94 101 108 119 128 120 107 102 93 86 80 73 69 71 77 71 66 65 67 71 74 76 74 73 78 92 107 108 67 47 61 60 62 65 71 75 84 90 87 82 74 67 64 62 63 64 70 75 85 94 105 116 128 126 112 97 93 90 85 82 83 80 81 84 88 94 95 95 104 109 104 92 75 74 84 107 67 44 66 69 71 77 85 90 92 86 74 61 56 63 63 59 59 60 60 63 71 85 102 119 132 129 116 103 97 91 87 79 69 65 61 60 60 69 86 99 110 119 120 112 102 87 78 96 67 45 71 72 75 81 78 63 58 59 50 51 47 61 106 69 56 50 53 55 63 76 97 117 130 131 121 107 94 88 81 68 71 69 78 68 49 44 46 54 67 87 108 115 108 103 89 86 68 46 71 73 76 70 57 54 74 74 54 50 60 110 103 91 58 54 52 55 60 76 94 111 123 128 122 110 102 98 81 80 82 85 99 68 57 46 108 59 76 63 72 94 114 119 108 102 63 46 75 74 72 59 59 71 88 81 52 48 49 54 95 91 62 57 60 62 64 76 93 107 119 123 120 112 111 108 100 94 85 90 112 77 50 47 71 58 115 98 69 78 93 115 115 110 71 48 76 71 65 62 68 78 88 92 69 57 56 65 97 76 62 61 63 66 66 79 94 108 118 121 117 113 110 112 97 87 85 88 103 100 62 59 59 86 122 106 90 78 90 104 116 118 75 51 77 71 67 68 70 74 80 84 87 83 81 83 80 72 63 59 62 66 69 82 97 107 118 118 118 116 108 114 102 89 88 94 96 93 93 90 97 111 112 117 106 96 94 102 112 121 76 53 82 76 75 76 73 73 77 81 83 83 83 78 69 62 57 58 66 69 73 83 100 109 121 121 116 118 113 110 106 96 86 84 89 95 100 101 108 116 122 118 109 111 109 106 112 121 76 55 87 84 81 79 76 73 74 76 78 77 72 67 61 57 59 65 70 74 74 85 102 111 122 123 116 119 120 119 112 104 101 92 87 84 89 96 103 106 109 110 113 115 115 117 120 124 79 56 90 89 86 85 81 77 75 75 74 71 68 63 62 64 68 71 74 75 74 92 104 113 123 123 119 120 123 124 123 114 107 106 103 99 98 98 101 105 109 111 114 117 120 123 124 126 80 57 95 94 92 91 90 87 83 78 75 71 69 69 70 72 74 77 76 74 80 97 106 114 121 122 119 119 124 127 128 125 117 110 109 107 108 109 112 114 117 120 122 124 126 130 130 129 80 57 95 98 99 98 96 93 89 84 80 77 75 75 76 79 79 77 73 73 90 98 106 115 122 122 118 118 119 124 130 130 127 121 112 109 109 112 113 114 116 121 124 129 132 136 134 134 82 56 94 98 101 102 100 96 92 87 84 81 80 81 81 81 79 76 72 82 95 100 108 118 124 122 117 116 118 121 126 131 130 131 126 120 115 113 114 115 117 120 126 133 136 141 142 137 83 55 92 95 100 102 99 98 96 94 92 90 87 84 81 80 78 75 76 89 102 102 110 118 124 124 122 115 117 119 120 129 131 132 131 127 123 119 117 119 121 127 132 135 140 144 143 141 85 56 90 93 98 101 98 100 100 98 95 92 89 85 82 81 78 78 86 91 99 104 109 121 127 129 126 119 111 112 118 128 134 134 134 134 130 127 123 125 127 130 133 136 142 143 142 140 85 55 90 93 98 101 100 102 101 99 95 91 87 84 82 82 83 87 93 92 93 104 114 122 128 131 130 125 117 113 113 124 136 135 133 133 130 130 130 132 132 134 136 138 143 144 140 138 84 55 88 93 97 99 99 100 101 98 95 91 87 83 82 79 84 101 94 88 89 100 113 126 139 144 136 129 123 120 119 117 132 132 132 133 131 132 133 134 137 140 141 143 143 141 136 136 83 54 88 91 96 98 99 99 99 97 94 91 86 83 80 77 87 95 88 83 82 92 106 121 140 146 135 128 125 127 127 121 121 127 128 130 132 133 134 137 139 141 144 148 146 143 135 135 81 53 88 91 92 95 98 96 98 97 96 92 86 80 77 76 83 86 83 79 76 81 96 114 128 131 127 121 124 131 132 127 119 122 123 125 127 130 134 138 139 143 147 146 147 141 133 131 81 54 88 88 90 92 96 95 97 96 95 92 86 80 77 75 76 75 66 59 56 71 85 106 120 124 118 91 93 101 115 119 115 122 120 120 124 126 131 136 140 143 146 147 146 140 132 128 80 53 86 85 87 90 92 93 94 97 96 92 87 80 78 78 76 69 62 59 61 64 80 98 111 117 114 117 114 101 98 113 121 126 123 114 120 121 128 135 139 140 143 144 142 139 132 129 79 53 85 84 84 87 88 92 93 96 96 92 88 81 78 78 77 75 70 66 67 67 73 88 101 109 111 113 108 107 112 123 129 128 126 118 116 119 125 129 135 140 140 141 138 137 134 128 79 54 83 82 83 84 86 87 91 94 95 93 86 80 78 78 78 78 81 80 78 79 77 84 107 118 121 117 116 120 124 127 129 129 128 123 118 116 121 127 132 134 135 135 135 131 127 125 78 54 82 80 81 83 84 87 89 93 95 92 82 77 76 75 78 77 79 80 83 90 94 99 106 112 112 106 110 115 116 122 124 124 127 124 120 118 120 124 130 131 133 132 130 129 126 124 77 54 82 81 81 81 83 87 89 93 96 83 73 72 70 69 77 75 75 77 83 88 95 102 103 102 103 103 106 109 111 112 115 118 121 122 118 116 117 121 126 127 128 128 127 127 122 122 77 55 83 81 79 80 82 86 87 95 92 77 70 71 70 69 72 77 77 81 89 93 96 100 99 101 105 110 113 112 109 112 115 111 116 117 112 108 112 118 121 124 126 125 123 119 122 123 75 56 84 82 80 79 81 86 84 96 92 80 73 72 72 72 75 79 82 85 94 101 101 101 99 99 105 118 119 120 118 118 119 116 117 115 111 105 106 111 120 123 124 125 122 120 121 124 76 61 88 83 80 80 81 87 82 93 94 87 72 68 73 74 79 81 84 83 87 96 104 106 104 103 105 110 114 118 121 125 123 120 120 116 108 100 102 107 118 123 125 123 125 124 122 126 76 71 95 85 82 80 81 87 83 91 97 95 77 59 60 70 71 71 75 79 82 86 90 94 100 99 99 103 108 111 112 110 109 111 112 108 94 88 98 109 117 123 126 126 127 125 125 122 75 140 114 87 83 81 82 86 84 88 99 100 86 66 57 56 61 64 67 75 82 87 89 87 94 97 97 105 107 107 106 103 102 100 92 77 56 73 99 115 123 126 124 126 129 125 124 122 77 157 175 90 84 82 82 84 87 83 96 104 95 79 69 65 63 62 66 68 73 82 83 84 82 83 89 94 98 100 96 93 96 95 89 88 75 80 103 117 127 128 126 127 127 126 125 123 75 158 225 96 86 82 81 85 86 83 92 100 97 84 75 71 68 68 72 78 88 96 103 106 103 104 105 111 112 113 111 109 106 101 104 104 94 93 106 120 128 129 128 127 128 124 122 122 75 158 249 118 88 84 82 84 85 84 90 97 94 86 77 73 71 68 70 76 92 110 109 109 108 107 110 116 131 134 115 110 109 112 112 111 108 108 111 121 127 129 126 126 126 124 121 122 75 158 255 167 89 84 82 82 83 86 88 92 92 87 81 76 75 74 71 71 82 93 100 105 108 103 106 113 119 116 115 117 118 117 117 116 118 115 116 121 126 126 126 125 124 122 121 122 74 158 255 208 94 86 82 81 82 85 88 89 90 88 86 83 78 76 74 74 76 80 87 93 99 99 102 106 112 114 118 119 122 121 121 122 120 119 120 123 127 125 126 126 124 123 122 121 73 158 255 232 113 86 84 82 82 83 86 86 89 89 87 86 84 79 79 78 76 76 75 79 85 88 90 94 101 108 115 119 122 123 122 125 122 122 124 125 125 125 125 124 123 121 122 120 72 158 255 253 161 90 85 82 80 82 83 84 85 87 87 85 88 87 86 87 89 91 90 87 89 96 95 90 103 113 119 122 123 123 123 125 128 125 127 125 123 121 124 124 121 120 120 118 71 158 255 255 227 111 84 82 79 79 79 81 83 86 87 86 89 91 91 93 95 98 99 95 96 100 104 107 112 115 120 122 123 124 125 125 124 125 127 128 122 120 121 122 120 119 117 115 68 158 255 255 254 202 91 82 80 78 77 78 80 84 83 85 88 90 92 95 97 98 99 100 101 107 113 115 119 121 122 124 123 125 125 127 124 122 124 127 121 119 119 118 116 115 113 109 66 158 255 255 255 251 143 83 79 77 77 77 76 78 79 81 86 88 92 94 96 98 100 101 103 110 117 119 120 121 122 123 123 126 126 126 122 122 121 122 122 119 118 117 112 111 110 105 63 158 255 255 255 255 230 96 78 77 75 75 75 75 77 80 85 88 92 92 95 97 98 100 103 110 115 116 118 119 122 122 123 124 127 124 123 120 119 120 120 118 117 113 112 109 105 102 60 158 255 255 255 255 252 130 80 74 73 73 72 73 76 79 84 85 91 91 91 94 96 100 106 111 113 114 116 115 115 119 121 125 122 122 120 119 118 115 116 116 113 110 108 105 101 96 58 158 255 255 255 255 253 134 88 73 72 71 70 72 74 77 80 81 85 88 87 92 92 101 105 108 111 110 111 116 116 115 117 118 121 120 117 112 110 110 112 110 110 108 106 100 96 91 59 158 255 255 255 255 253 129 87 79 70 68 69 70 71 73 77 78 81 82 87 89 90 99 104 106 105 108 111 113 119 116 117 116 116 116 114 110 105 106 107 106 108 103 99 93 86 91 61 158 255 255 255 255 252 126 85 80 73 66 66 67 67 70 71 72 75 78 81 86 90 96 103 102 99 103 102 112 115 113 111 112 111 111 112 106 102 100 102 100 102 96 91 83 85 98 63 158 255 255 255 255 251 119 85 78 74 68 63 63 64 65 66 69 71 72 75 80 89 96 98 97 92 96 100 104 109 106 108 108 108 105 101 99 93 96 99 96 94 89 82 80 93 101 63 158 255 255 255 255 250 114 85 78 73 67 64 61 61 62 61 64 70 71 71 76 84 91 96 90 86 88 93 95 97 99 100 99 99 98 96 94 91 93 94 89 83 80 82 89 96 100 63 158 255 255 255 255 247 110 84 77 72 68 62 60 58 57 58 58 62 68 67 70 76 87 88 85 80 81 84 86 88 91 93 90 93 93 92 87 86 88 84 80 81 84 88 96 101 101 66 98 158 158 158 158 151 66 52 48 44 42 40 37 35 34 34 33 36 39 40 42 43 48 49 49 45 46 47 47 50 51 53 55 55 55 53 51 51 50 48 50 53 54 56 62 64 64 39 