P2
48
60
255
39 60 60 65 69 72 75 75 77 78 83 88 90 84 85 81 83 84 86 87 88 87 88 89 87 86 86 86 86 85 84 83 83 79 79 79 72 70 65 62 60 57 56 54 53 53 56 36 62 98 100 106 108 117 123 127 131 135 138 140 140 143 138 137 136 136 135 139 141 141 142 144 142 139 141 141 140 138 137 135 134 130 128 127 116 115 110 99 103 96 90 88 85 85 89 56 61 97 97 105 108 116 124 127 134 139 141 141 143 145 135 134 133 140 138 139 140 140 139 142 140 141 141 138 138 138 137 136 137 134 132 129 118 112 110 106 106 98 92 85 88 86 89 56 62 96 97 106 112 118 122 125 132 135 140 148 148 149 140 137 132 130 133 137 138 137 141 144 141 138 143 139 140 139 138 134 136 138 138 130 120 110 109 113 109 101 96 88 86 88 89 57 61 95 96 106 116 119 124 129 134 142 142 146 150 150 150 144 140 140 139 140 140 141 138 139 143 147 144 142 140 141 142 140 136 141 145 134 117 112 115 116 112 103 97 86 86 89 92 57 60 93 94 98 101 101 117 115 125 135 138 136 139 142 141 140 138 140 145 143 145 140 139 147 148 149 150 146 142 143 143 143 142 141 143 128 118 116 116 110 104 102 98 94 96 92 89 57 57 88 83 84 76 77 80 87 88 95 95 106 119 128 128 129 132 138 141 141 147 147 149 155 149 146 142 142 138 134 137 131 127 125 118 111 109 109 102 101 100 111 101 105 106 89 89 56 61 95 86 85 85 82 84 86 80 73 72 65 69 80 101 118 124 126 131 132 137 149 154 152 144 141 136 133 134 124 120 112 99 96 88 86 93 104 93 93 93 93 89 88 92 92 90 55 63 92 93 90 88 86 81 77 73 67 62 61 64 75 89 99 108 120 123 131 133 141 145 140 136 135 133 126 124 115 107 89 89 84 77 76 75 68 62 67 79 94 87 81 87 84 87 56 60 99 89 90 103 113 115 114 114 112 108 101 89 85 91 94 99 113 126 132 132 131 132 133 132 133 130 122 117 109 104 94 87 76 73 76 82 86 84 89 94 93 93 90 88 85 83 57 63 98 97 108 112 122 125 131 133 134 132 130 120 108 94 88 91 101 120 132 131 127 127 133 132 130 120 113 104 93 87 78 71 73 82 93 97 99 105 103 102 107 104 101 93 85 80 54 70 93 98 101 109 118 118 119 128 130 130 126 121 122 122 107 86 76 93 127 139 135 133 136 136 129 107 88 78 70 67 70 80 97 105 112 119 119 119 106 107 107 104 98 89 84 82 52 66 92 93 100 102 107 105 111 117 118 124 122 110 104 109 108 94 69 64 112 146 144 139 138 144 132 96 71 56 61 77 89 99 107 111 119 116 114 109 101 97 100 97 91 86 81 83 54 65 95 96 95 95 95 96 100 112 114 112 108 97 83 84 83 77 62 58 84 140 148 146 145 145 125 89 64 53 62 78 86 87 93 101 107 113 107 96 97 95 94 93 86 87 82 80 51 62 100 90 88 81 76 74 81 88 88 83 83 85 81 76 70 58 55 58 85 128 149 144 143 140 117 84 69 50 59 68 73 82 91 96 94 98 90 84 80 79 81 84 82 86 80 78 52 66 105 95 85 78 74 70 64 56 43 36 33 42 60 59 53 49 64 84 95 117 137 130 130 128 115 88 84 79 62 51 60 60 48 42 45 58 66 70 65 63 71 73 77 80 83 85 55 71 118 104 87 92 99 92 84 80 84 81 82 89 92 86 73 62 84 100 97 112 129 133 129 127 110 90 84 83 73 69 87 93 90 71 57 56 51 51 58 63 65 71 75 84 90 93 57 73 120 115 98 98 105 106 107 106 99 95 90 92 91 86 86 83 85 93 100 113 128 127 126 127 114 91 81 77 79 88 96 91 89 84 84 80 79 76 79 82 80 73 79 103 108 101 59 74 122 123 110 101 106 115 112 111 115 114 111 105 93 95 93 83 87 93 103 112 124 123 123 128 112 91 87 78 66 78 99 109 106 102 103 104 98 97 93 90 87 91 93 101 114 104 58 72 118 120 113 103 106 117 119 119 116 114 112 107 104 97 91 90 99 103 105 109 118 132 125 122 109 92 91 85 81 71 75 90 100 106 111 107 102 100 101 94 92 108 117 104 100 105 61 77 122 117 115 109 101 107 115 112 112 109 105 99 91 88 108 113 106 103 107 108 120 131 126 124 104 91 89 90 93 92 81 74 75 84 93 98 95 93 94 96 102 109 118 110 99 96 59 75 120 121 126 124 118 110 106 101 100 98 95 95 103 119 121 116 110 106 108 105 116 135 130 125 101 88 91 90 96 101 103 94 89 87 86 85 86 95 106 106 103 106 109 108 105 96 57 69 121 123 126 127 127 126 122 119 114 113 119 126 129 129 121 119 113 108 107 105 117 128 129 125 99 87 89 94 99 104 109 118 113 108 108 115 118 120 118 116 119 122 119 110 100 98 57 69 113 123 129 126 135 136 132 135 132 131 133 136 141 126 113 116 116 111 105 108 123 131 130 121 101 90 90 94 102 105 107 121 131 121 119 122 127 130 130 130 130 126 118 111 107 94 58 71 121 123 130 134 138 139 140 139 138 140 143 145 143 131 120 116 113 109 110 113 125 129 129 121 109 94 90 94 101 106 107 124 135 136 130 130 131 133 133 131 128 123 115 111 108 101 57 70 119 122 129 133 140 146 143 142 146 147 149 151 142 121 108 103 104 104 108 116 125 127 131 126 115 99 91 91 91 93 103 127 139 146 141 137 137 134 130 132 126 117 114 108 103 100 56 69 118 123 128 137 144 148 150 150 147 151 150 136 115 98 97 101 103 104 110 115 116 121 127 128 126 107 98 92 86 84 86 111 128 137 144 146 141 142 140 136 132 122 112 105 103 99 56 68 121 124 128 136 146 150 152 152 144 139 127 109 88 81 105 106 102 103 114 119 120 127 130 130 127 117 109 99 88 85 77 81 108 124 132 141 141 141 142 136 136 121 109 100 98 95 56 65 119 121 126 133 138 143 145 136 129 116 103 81 61 94 106 109 104 107 123 131 139 131 127 122 118 124 118 106 90 87 85 64 81 101 117 121 128 133 133 131 127 118 109 97 95 91 54 64 106 115 120 122 131 132 133 128 115 100 79 60 70 96 99 103 103 111 127 142 143 137 133 128 114 116 120 114 97 84 86 65 57 80 94 108 115 119 119 121 119 110 103 95 93 89 52 59 100 110 114 118 120 122 119 112 95 80 59 69 105 103 82 78 95 110 127 143 146 137 134 135 124 106 114 105 87 76 77 76 53 61 78 89 97 105 108 109 108 101 97 91 87 84 49 58 98 102 109 110 108 108 100 90 78 57 64 101 110 109 101 76 82 99 113 124 125 123 121 122 125 107 99 91 72 62 79 87 71 54 61 71 81 88 94 92 97 96 91 87 81 78 45 53 92 97 101 100 97 93 85 74 59 58 93 107 106 108 114 111 105 93 90 106 109 106 104 103 100 90 83 78 79 88 92 88 83 71 55 53 64 78 83 87 85 84 82 79 76 75 44 52 87 88 88 87 82 76 68 56 57 84 97 103 106 110 115 113 113 109 98 83 83 80 72 68 71 70 80 89 95 98 93 90 87 82 71 66 56 61 76 83 82 80 78 76 73 72 43 55 87 86 84 78 68 59 55 65 85 101 100 105 109 108 114 114 113 112 108 103 80 70 67 63 72 85 93 92 96 97 91 87 87 86 80 80 71 61 67 81 85 83 75 75 74 72 42 57 96 98 91 79 75 67 83 96 100 104 101 105 106 111 109 115 114 114 111 105 94 98 99 88 85 91 96 93 95 96 90 89 89 88 90 89 88 68 67 78 86 83 78 77 76 70 41 59 91 98 100 93 93 86 103 106 107 106 105 107 106 113 113 114 118 119 115 108 109 117 116 111 98 93 96 100 100 98 97 90 90 89 91 90 91 84 72 82 89 82 78 78 78 71 44 58 96 96 101 103 101 104 108 109 106 103 96 95 96 105 106 110 112 117 114 118 117 121 119 122 114 109 107 106 101 101 96 91 88 87 90 89 88 88 93 89 90 86 81 79 76 70 76 57 92 93 101 105 108 112 110 110 100 87 78 80 87 92 97 100 107 111 119 118 122 124 123 126 121 115 108 102 94 91 83 80 77 79 84 86 92 93 104 100 92 87 77 79 73 79 121 55 99 96 100 104 110 118 110 98 91 79 57 53 66 72 80 90 92 91 89 86 96 97 100 102 98 100 96 90 85 78 74 73 71 74 81 84 92 95 111 100 93 85 79 80 73 140 150 56 96 93 96 102 108 120 117 104 89 83 76 91 77 36 35 38 35 33 31 33 35 38 38 41 42 43 42 42 42 35 31 43 62 68 80 89 94 104 114 99 91 83 83 79 92 232 152 55 94 95 95 99 108 116 119 112 106 107 104 110 105 84 66 58 55 50 46 43 41 39 38 38 40 44 43 54 46 43 57 76 80 79 89 91 100 113 115 96 87 80 83 80 186 246 152 55 91 94 95 97 102 111 116 110 110 111 116 115 107 108 102 90 88 90 83 71 69 69 67 66 70 69 69 76 77 80 91 93 92 96 97 94 104 114 105 91 84 81 82 86 233 247 153 54 91 95 92 90 93 103 110 105 107 109 115 117 109 109 123 117 100 97 102 102 97 97 100 101 97 98 96 96 89 99 105 87 99 106 104 97 101 108 99 87 81 81 82 101 232 246 153 50 91 96 92 88 87 91 101 100 101 109 116 119 112 106 117 124 126 120 114 112 108 108 108 111 113 107 102 94 99 106 101 89 103 110 105 100 99 101 89 79 78 81 82 55 60 134 122 46 92 94 96 93 86 87 97 98 101 109 115 120 119 106 103 114 125 130 131 126 121 113 109 113 109 108 111 111 106 103 92 91 106 110 103 96 100 98 84 77 78 84 81 38 23 26 20 44 93 92 100 97 89 88 96 97 103 111 117 119 123 114 106 100 107 114 117 116 116 111 109 109 111 111 108 104 94 87 86 96 106 106 100 93 98 95 79 78 82 85 75 40 31 25 15 41 92 89 97 97 95 91 94 99 102 108 118 117 119 118 110 104 100 97 100 106 111 108 104 104 102 101 97 88 81 82 91 99 104 103 97 93 94 89 79 80 83 85 71 30 24 35 19 38 93 93 90 93 89 87 89 95 102 106 116 118 117 114 106 108 109 107 104 99 102 105 102 100 96 92 86 83 88 94 96 102 106 106 102 92 90 83 79 81 88 82 71 34 18 21 13 39 94 98 86 87 86 80 81 90 101 106 110 118 117 114 108 104 106 106 109 108 106 103 101 98 101 96 93 93 98 99 103 109 114 111 100 94 85 77 77 82 86 78 69 40 15 17 11 39 91 102 91 81 77 74 71 80 96 105 109 116 118 117 114 108 107 104 103 102 104 104 101 101 102 102 98 101 102 106 109 113 115 106 100 92 78 69 72 81 82 72 66 46 15 15 10 36 87 101 102 80 72 66 62 62 85 99 104 115 121 123 132 128 131 132 131 131 131 124 119 117 118 115 117 121 117 113 116 118 117 103 99 86 67 62 73 76 77 65 67 49 14 15 10 32 82 101 102 95 72 70 67 66 71 90 96 108 121 123 123 121 124 126 134 130 131 128 128 128 128 128 125 119 117 115 121 118 108 110 94 76 58 62 67 70 68 64 66 53 15 14 9 25 77 95 100 101 86 74 75 77 81 79 91 98 111 115 118 120 123 123 127 127 121 118 120 119 117 116 117 107 111 116 117 106 112 100 78 62 57 60 63 63 66 64 67 56 15 14 9 17 64 89 104 102 98 79 76 79 78 79 80 86 97 109 108 108 105 108 113 111 113 115 108 107 98 96 102 101 112 107 94 100 102 82 67 61 59 59 59 67 69 68 68 58 15 13 8 11 44 82 99 102 102 92 78 76 76 72 77 76 74 80 88 87 80 79 92 94 94 94 92 92 95 96 95 100 92 82 89 93 77 67 67 63 58 58 66 74 71 72 73 58 16 13 8 10 28 66 92 100 104 97 84 75 75 76 76 79 76 68 65 60 60 57 51 60 67 79 80 87 88 85 79 78 72 77 77 68 64 65 63 63 61 71 77 80 74 74 75 58 16 12 8 9 20 47 82 100 103 102 92 82 73 69 69 73 73 76 72 61 51 45 40 42 53 60 64 60 51 54 55 58 59 60 63 62 63 61 59 61 77 81 77 76 75 75 77 65 21 12 7 10 17 33 66 94 100 105 100 95 84 70 61 64 66 68 73 75 71 58 51 46 43 43 42 41 41 44 52 59 63 68 64 57 55 56 59 81 80 79 76 76 79 76 78 70 39 13 7 7 10 14 32 49 61 64 64 62 61 53 40 34 36 38 41 44 47 46 44 43 41 40 41 43 43 42 42 43 42 42 37 35 33 37 49 52 50 49 48 47 50 48 48 45 31 11 5 