P2
48
60
255
39 71 73 77 81 84 87 87 89 90 88 90 93 93 97 98 100 102 101 102 100 100 99 102 102 101 102 101 98 100 99 96 96 97 93 89 82 82 89 93 90 85 78 77 74 69 58 30 64 118 117 124 132 137 140 141 142 144 146 149 153 155 159 161 164 166 165 163 164 164 163 164 164 164 165 164 164 167 164 163 160 157 153 147 139 145 146 147 146 139 130 126 122 113 97 52 66 118 115 118 130 139 139 142 147 146 150 152 156 155 157 164 167 166 166 162 165 163 163 161 164 163 163 165 167 168 168 168 167 162 162 154 151 149 147 149 144 140 131 124 119 116 104 57 69 119 119 121 129 137 144 147 145 149 150 155 154 157 156 158 162 165 162 163 165 163 161 160 162 163 163 164 164 165 167 168 166 165 164 158 158 157 156 152 148 142 131 125 121 117 110 62 71 119 121 123 131 139 147 148 146 150 152 152 154 153 155 155 156 161 158 162 165 161 160 159 160 159 161 162 162 163 162 164 162 163 165 163 160 155 154 154 151 146 135 126 122 117 115 64 72 118 120 123 132 141 143 141 141 149 150 145 149 152 152 155 155 155 154 157 158 159 160 161 157 156 156 155 157 159 162 162 161 159 159 157 155 153 148 146 147 147 139 129 121 120 117 70 71 117 118 124 132 133 123 119 126 131 134 139 138 143 144 146 144 148 147 152 157 159 161 159 156 155 155 153 151 153 152 156 153 147 145 136 133 130 129 121 118 134 138 131 123 121 117 72 70 113 116 118 107 98 89 93 99 101 107 109 112 116 122 128 132 133 137 141 149 156 159 156 152 150 147 144 143 136 129 123 117 107 106 111 102 99 101 99 103 103 113 122 122 118 118 71 70 111 108 100 85 69 70 69 72 72 77 74 74 78 81 89 100 116 119 124 137 146 153 152 145 140 135 131 124 117 101 87 76 69 68 71 66 64 73 82 94 89 98 107 108 113 118 71 70 102 89 82 76 70 61 62 66 61 54 48 48 46 53 65 83 92 96 107 126 139 149 154 144 126 122 117 106 94 78 64 50 45 42 43 47 62 70 69 69 78 78 80 88 98 114 71 65 89 81 80 74 76 78 71 70 72 59 47 41 40 44 57 72 82 86 97 120 137 151 154 147 133 114 106 97 84 71 53 42 39 38 47 57 63 70 68 65 68 71 68 73 82 101 70 68 93 82 82 93 95 102 105 102 97 90 80 69 60 52 54 61 67 80 96 117 136 148 155 150 137 119 102 91 75 64 56 51 53 58 66 80 94 101 97 87 80 77 75 81 84 96 68 68 102 90 95 100 106 112 111 101 88 85 79 69 53 39 40 53 62 74 94 113 135 153 158 151 138 125 107 91 74 57 45 34 42 61 78 84 88 85 89 96 96 93 89 85 85 92 64 69 99 91 101 106 104 86 68 73 75 72 58 59 63 59 47 40 55 73 89 111 135 153 159 151 138 127 111 91 68 47 39 53 65 60 53 51 63 83 89 71 73 93 96 93 94 102 66 71 109 103 104 100 80 51 61 51 34 44 28 45 35 53 48 60 58 69 85 109 134 151 158 154 142 125 108 86 65 54 65 53 67 47 54 22 48 31 49 71 66 56 87 97 95 98 66 72 113 105 98 77 45 46 45 74 48 38 24 30 44 96 60 47 72 82 85 107 134 153 159 156 143 121 103 90 79 72 56 75 111 67 39 25 34 36 74 50 50 58 60 85 94 103 68 73 114 103 86 63 52 53 69 90 79 48 47 51 71 112 81 69 69 89 88 109 138 156 157 157 149 124 105 94 89 66 81 95 122 110 54 50 44 61 97 77 53 56 73 80 93 101 68 73 113 103 89 80 89 81 77 92 104 104 89 91 104 103 97 87 82 88 92 113 140 155 155 154 148 123 108 98 98 89 97 105 113 119 105 90 96 117 106 85 81 86 81 89 95 108 71 75 115 105 96 101 107 100 100 105 102 103 100 100 97 100 96 89 91 96 97 117 132 151 149 146 145 124 115 106 102 99 101 104 104 98 95 100 99 110 116 110 103 101 102 98 98 112 74 77 121 116 112 114 111 112 112 116 117 121 120 115 111 102 93 90 93 97 107 117 131 150 152 144 136 123 119 116 105 101 103 105 110 114 119 120 121 124 123 119 113 114 118 118 113 120 80 78 125 124 122 123 118 116 117 119 115 113 108 112 115 108 102 99 103 107 114 118 131 147 149 148 137 120 121 119 115 107 102 108 104 108 114 115 119 126 125 125 126 128 135 134 131 127 80 78 125 131 137 135 135 128 126 123 127 126 126 126 123 118 114 117 117 114 117 117 130 149 152 150 135 117 119 121 121 123 123 114 114 113 119 120 128 127 122 127 133 148 153 151 140 137 84 76 126 139 148 150 148 145 138 144 149 143 141 135 131 130 129 130 120 117 116 117 133 144 150 147 135 121 118 122 120 124 137 136 132 131 129 130 138 147 150 151 152 159 158 155 150 141 85 75 129 141 149 155 153 154 152 148 150 149 146 143 143 138 136 130 120 117 116 121 135 143 147 142 134 124 117 119 121 125 133 148 149 147 149 148 154 156 157 159 160 163 161 160 153 141 82 76 126 136 147 152 159 160 164 161 158 159 157 153 152 144 139 128 120 115 118 126 140 151 149 145 136 124 118 117 120 124 133 150 157 159 157 153 156 161 159 163 161 165 162 157 150 138 80 76 125 133 143 149 160 163 168 167 164 164 160 157 153 146 140 130 121 114 119 134 147 155 152 148 139 127 119 114 115 122 135 147 155 159 163 164 164 163 166 168 163 162 165 152 145 137 79 74 121 129 136 142 150 158 161 166 166 164 161 161 152 148 143 131 117 113 122 138 149 153 154 150 144 125 118 113 112 118 135 150 159 163 164 165 166 166 167 171 167 162 159 147 141 137 79 72 117 126 132 136 141 148 155 161 165 159 159 159 154 146 137 127 111 115 121 138 156 160 156 158 151 129 118 116 116 114 125 147 162 165 167 166 165 168 165 168 162 160 151 144 139 134 79 72 117 124 127 132 141 146 150 155 160 160 160 157 153 146 132 115 114 113 118 132 158 164 158 165 156 131 119 117 121 116 110 134 156 166 169 169 170 168 163 164 161 157 147 140 135 132 79 70 119 124 127 137 142 144 148 153 157 159 158 152 146 132 113 105 117 111 108 116 134 145 148 151 143 124 115 114 121 121 103 110 139 159 163 169 168 168 165 162 156 155 146 140 134 129 78 69 116 120 126 132 135 142 146 152 153 154 152 147 134 116 103 101 115 107 99 99 113 128 133 127 115 103 104 108 117 119 103 90 122 143 153 162 165 164 164 156 150 149 145 137 133 128 76 69 116 121 124 128 134 138 142 150 151 148 146 139 125 109 98 102 113 105 90 91 101 105 113 114 103 89 90 100 107 110 103 82 98 132 150 157 161 158 154 154 147 147 141 138 133 128 76 69 114 120 123 125 129 136 142 146 147 144 138 129 115 107 97 106 104 95 69 38 82 85 89 101 94 48 56 81 93 99 107 93 79 113 137 149 156 156 153 150 149 145 137 133 130 124 73 67 113 118 123 125 127 131 137 141 138 137 131 119 113 102 97 113 111 82 43 32 57 73 63 76 68 41 35 45 70 100 117 107 79 93 124 139 148 149 150 145 144 140 131 128 127 120 73 67 115 119 122 120 125 132 135 137 135 133 127 114 108 102 106 121 121 106 62 61 76 68 53 62 70 62 59 58 89 112 120 119 97 86 110 125 132 141 145 145 140 136 132 129 123 118 72 67 113 118 120 123 124 133 136 133 131 128 122 116 111 106 116 125 122 115 86 62 65 71 71 75 66 59 61 78 99 116 125 127 117 92 101 118 129 137 138 136 134 132 129 124 120 118 71 66 111 115 120 119 124 131 135 133 128 126 124 118 111 112 122 125 118 97 63 52 51 62 75 76 63 53 54 57 79 94 120 127 126 114 100 113 124 134 137 133 133 131 126 123 116 118 72 65 107 116 117 117 124 127 130 127 125 124 121 117 112 116 118 109 92 65 53 48 51 57 64 67 62 52 58 52 60 70 90 113 127 129 116 106 117 127 130 131 131 129 124 120 117 117 73 66 107 113 116 114 119 121 124 124 119 118 121 116 110 104 89 78 60 54 47 48 52 52 62 57 59 59 50 49 57 54 59 71 93 118 129 115 107 122 130 131 131 127 119 116 114 115 71 65 106 109 113 114 115 119 121 120 118 118 116 105 92 81 69 58 50 55 48 46 58 56 69 61 55 58 45 49 55 50 53 51 58 79 102 123 109 109 130 135 130 126 121 116 114 114 70 65 105 108 111 111 112 115 116 116 116 117 111 91 72 64 57 53 51 54 47 43 48 69 95 84 76 53 48 44 54 50 52 53 56 58 68 99 118 105 121 133 132 126 121 118 113 112 68 66 105 107 110 108 110 112 118 120 116 105 92 66 58 58 56 50 57 49 38 39 42 70 111 118 106 65 52 45 52 51 56 56 56 54 54 73 99 113 112 133 135 127 122 115 110 109 68 64 109 108 109 112 107 112 117 120 112 100 74 51 50 50 53 52 51 45 41 47 55 67 83 96 87 75 61 56 50 48 52 53 49 45 49 58 76 101 106 128 133 127 124 115 109 107 65 63 107 106 107 109 106 107 112 120 108 87 57 47 42 45 50 52 52 52 54 66 72 73 73 80 78 77 73 69 56 52 53 50 46 45 41 48 60 83 105 120 130 126 120 114 105 108 65 62 104 106 108 107 103 105 111 115 104 69 44 46 38 43 50 49 47 47 57 70 77 80 80 80 76 75 72 73 67 57 49 41 39 38 38 43 51 69 99 112 128 121 117 106 102 106 65 60 101 105 109 107 103 105 111 113 105 73 39 39 38 36 35 45 62 83 108 118 129 132 130 132 127 128 127 127 120 102 84 56 34 29 33 39 44 58 95 112 126 120 112 104 101 103 65 58 97 105 109 106 102 102 108 111 108 87 49 40 44 49 77 90 98 106 112 121 138 145 144 142 145 141 138 134 125 113 101 100 91 72 55 50 52 66 95 109 117 114 107 100 104 106 64 78 95 98 104 106 103 100 107 107 107 102 82 62 65 79 96 101 101 105 107 112 128 137 132 136 134 130 128 122 113 112 107 107 100 95 88 85 87 90 101 109 110 109 104 103 105 106 65 115 98 93 101 104 102 99 102 104 109 107 101 96 96 105 109 103 102 102 100 106 112 120 123 122 119 117 115 110 105 106 97 94 102 111 119 117 112 104 111 110 104 105 104 106 104 104 64 127 133 91 96 101 103 100 100 102 105 110 107 106 109 114 111 106 104 102 97 98 96 93 88 84 84 86 91 91 89 87 92 100 107 114 119 120 119 114 116 110 107 105 108 104 104 103 63 127 187 93 93 98 100 100 99 101 105 107 110 113 114 112 105 107 101 106 101 92 85 76 66 63 63 65 70 79 85 90 98 104 109 114 118 120 120 119 115 112 104 103 107 99 102 99 61 127 206 142 87 91 97 100 101 102 106 106 111 113 110 108 106 105 103 100 100 99 93 84 82 80 84 82 82 88 95 100 104 102 105 105 111 112 117 118 113 108 102 101 94 96 98 97 58 127 205 200 107 85 91 96 98 100 101 105 108 109 107 104 105 102 102 102 102 107 106 98 96 91 93 97 99 108 109 103 103 99 100 102 109 112 110 112 109 104 102 98 90 99 97 94 56 127 205 207 159 81 85 92 95 96 98 102 106 107 109 105 101 103 105 106 110 114 118 118 119 115 122 119 123 119 116 112 108 100 96 104 111 112 114 108 104 100 98 95 95 97 93 88 52 127 206 207 170 85 79 86 91 93 93 98 104 105 107 106 105 104 109 116 119 127 133 133 135 135 139 134 136 131 123 119 113 106 102 108 114 113 111 107 103 97 96 92 92 92 89 81 47 128 206 206 180 94 77 78 85 91 92 94 97 106 108 106 110 110 116 122 128 133 130 132 142 139 140 141 139 133 129 125 120 119 114 120 124 113 111 107 103 95 93 90 91 88 82 73 44 127 206 206 188 100 86 70 75 81 85 90 97 101 107 108 110 115 120 124 130 131 133 136 139 137 137 138 132 131 133 134 128 122 117 123 124 117 109 104 101 97 90 87 87 82 72 71 51 127 205 206 196 108 91 81 67 72 77 84 91 97 99 106 114 117 119 121 127 127 129 131 134 135 136 133 136 136 136 130 125 121 119 124 119 112 105 100 95 92 87 84 79 73 69 82 58 128 207 207 201 112 98 90 76 64 67 73 83 90 101 105 111 114 117 117 121 126 128 132 132 132 130 130 136 136 131 128 121 120 113 124 115 107 98 92 90 83 81 77 71 68 79 92 61 79 128 128 126 72 63 57 53 47 40 42 44 49 59 62 67 68 69 70 70 74 75 81 79 78 78 79 81 82 80 79 73 69 70 73 68 62 57 54 51 48 46 43 41 46 55 61 38 