P2
48
60
255
11 19 22 22 25 23 30 30 29 32 29 27 27 28 26 28 27 27 26 28 30 28 33 40 50 53 60 68 78 85 90 96 96 93 93 92 90 89 90 88 87 84 89 84 76 66 55 28 18 31 32 36 40 45 53 58 52 49 50 46 50 49 45 41 41 44 47 48 50 51 56 68 81 94 110 120 128 140 147 147 148 145 150 152 146 146 145 142 138 135 140 137 126 115 97 49 19 30 36 39 45 53 60 49 48 50 50 47 47 44 43 42 44 45 48 51 57 61 70 79 93 109 123 129 137 141 140 148 148 150 151 150 146 145 143 140 135 128 140 136 127 116 106 57 21 36 41 41 50 56 53 52 50 52 48 48 47 47 46 51 49 52 58 62 68 71 79 88 102 114 124 127 138 143 148 147 147 149 152 149 147 138 140 135 141 141 138 136 128 124 116 64 23 39 45 52 60 56 55 54 54 59 54 57 54 58 60 63 65 68 76 79 84 85 93 107 116 124 130 137 142 148 146 145 146 145 147 149 149 148 140 142 143 143 135 131 129 130 126 73 34 61 75 84 85 81 77 86 96 102 110 118 124 130 126 119 120 120 121 122 121 122 131 138 139 149 151 154 152 151 148 145 144 148 149 152 151 152 152 152 149 148 138 131 127 127 128 78 65 112 116 121 122 129 127 142 149 147 147 151 155 153 153 150 150 151 152 150 147 149 150 150 151 158 157 157 154 152 149 147 143 146 153 151 154 158 160 154 150 151 145 134 120 127 128 78 81 136 135 143 144 145 153 156 156 151 146 149 151 147 145 143 140 142 145 148 148 149 144 144 147 153 153 150 147 150 151 154 153 149 148 147 149 153 157 151 150 151 144 138 128 126 128 77 83 143 145 148 147 156 158 157 155 152 149 151 146 143 143 144 139 138 138 142 144 150 146 140 142 146 144 143 143 142 137 139 134 124 121 122 127 137 131 132 139 136 135 133 132 125 126 79 85 143 142 137 141 144 144 134 131 124 125 119 118 124 129 131 131 132 137 136 136 147 141 134 135 135 132 123 112 105 98 90 83 80 85 92 98 99 100 97 102 104 108 114 126 130 124 77 76 119 117 118 112 110 107 105 103 87 75 69 70 76 87 95 107 124 134 137 143 153 144 135 132 131 116 99 87 72 61 57 56 52 56 61 71 91 98 101 103 104 107 108 116 127 123 76 72 105 93 89 90 90 81 74 65 58 53 53 60 64 67 77 94 111 126 136 146 151 146 140 132 124 110 97 92 82 74 73 69 69 74 76 85 97 105 110 110 105 105 107 112 116 121 74 68 102 95 88 83 77 71 65 64 59 55 54 57 64 68 76 85 98 110 127 144 157 156 150 135 123 107 94 87 81 76 74 69 67 68 76 87 94 98 101 102 102 105 107 109 111 116 73 65 98 98 99 93 87 76 66 59 51 45 40 42 52 62 69 80 95 106 124 147 165 164 158 148 130 106 94 92 84 81 69 54 56 62 68 70 71 67 65 73 90 99 105 106 110 112 71 71 107 104 96 82 61 48 48 48 47 49 52 53 43 54 71 85 99 110 129 150 173 177 174 161 138 119 109 98 89 79 70 78 58 48 44 48 44 51 61 68 55 77 99 110 112 110 72 73 110 100 82 52 44 47 52 47 61 44 50 48 66 70 79 80 91 111 131 152 175 180 176 164 141 125 108 93 83 81 73 68 63 87 39 82 62 64 66 51 63 58 87 112 117 109 69 73 110 96 57 46 47 81 96 63 71 30 91 66 66 67 91 108 118 123 129 143 172 175 174 161 136 130 122 115 98 67 65 113 90 76 45 50 81 91 96 93 95 84 90 109 115 114 71 72 111 83 74 92 100 116 115 78 79 48 76 79 99 71 73 113 143 135 131 144 171 179 175 160 139 131 124 137 115 113 119 134 131 129 118 126 138 141 141 140 131 117 115 116 125 128 80 65 98 100 123 133 132 142 134 131 129 118 124 126 128 126 142 143 138 134 136 146 169 170 173 164 141 128 124 133 144 151 142 133 136 130 132 130 133 142 137 132 118 123 136 145 153 148 89 78 123 119 127 137 136 135 138 137 132 126 125 123 122 125 125 130 141 134 134 141 166 171 170 164 140 125 124 137 144 140 132 124 110 104 101 100 103 108 115 124 138 152 158 156 153 153 94 87 140 138 133 123 118 125 118 104 100 103 110 116 122 134 142 143 141 135 132 139 161 165 166 161 138 124 123 128 144 151 154 151 147 135 139 137 139 146 153 161 168 167 170 164 155 158 97 90 153 154 156 152 147 147 143 138 142 151 154 156 156 157 146 138 132 134 132 142 162 161 162 158 128 122 124 124 128 148 157 160 162 160 162 163 160 161 162 163 167 169 167 166 154 152 97 100 161 164 168 166 168 165 161 158 167 168 166 168 162 157 137 133 131 131 129 138 154 163 162 154 128 126 126 124 127 142 154 158 159 158 158 162 164 166 166 168 168 167 162 157 150 144 90 98 157 166 167 168 169 167 167 168 165 167 165 167 161 156 139 132 132 131 126 137 152 161 164 152 135 127 127 131 136 143 154 158 154 153 158 161 159 161 164 164 164 162 159 150 143 137 84 93 159 163 166 168 169 168 166 162 161 158 164 169 163 158 145 139 135 132 128 141 153 161 163 153 140 133 126 132 142 142 147 162 159 156 158 161 165 166 166 164 156 152 153 144 137 133 81 87 150 150 157 162 166 167 168 167 162 166 168 169 163 153 147 144 141 130 129 144 151 158 160 153 146 136 123 128 141 145 156 162 156 162 160 167 165 169 167 170 163 151 148 140 133 130 76 84 141 145 151 156 160 164 165 176 171 169 171 172 168 153 145 134 128 125 131 139 149 159 160 151 143 134 121 114 117 123 144 156 154 159 161 167 169 169 172 173 165 156 148 138 131 126 76 82 136 142 148 150 152 167 177 184 180 173 170 160 157 134 104 114 123 127 138 153 164 165 163 156 145 127 118 114 110 97 106 136 148 154 156 158 165 170 176 177 162 151 146 137 127 123 76 81 135 140 144 146 154 165 174 182 178 166 150 146 124 89 97 123 125 127 139 172 179 169 169 164 155 135 121 118 120 112 76 88 124 139 143 152 158 162 162 165 156 147 140 136 125 120 75 81 132 137 137 142 151 157 166 170 166 152 140 122 89 84 116 130 125 124 133 151 163 163 164 164 151 133 121 120 123 127 102 66 81 110 122 132 145 145 153 151 149 145 136 129 124 120 73 83 134 134 136 138 141 147 156 155 148 135 119 93 70 99 119 124 118 116 117 125 133 140 142 133 127 116 113 112 118 119 110 87 56 78 104 118 129 136 137 135 132 132 129 127 124 119 74 83 133 126 130 133 140 146 144 138 127 117 95 65 74 116 119 95 77 86 99 101 104 112 108 101 102 101 90 71 75 95 111 102 64 54 76 98 113 120 126 129 127 123 120 123 121 120 74 81 132 129 129 133 136 141 138 131 117 94 68 53 95 123 127 113 60 52 62 91 92 86 83 84 90 79 72 75 82 108 114 112 91 56 55 71 92 104 112 119 117 116 118 121 119 121 74 79 130 128 128 130 127 130 127 116 98 73 53 69 121 132 131 127 107 87 89 80 84 76 71 74 81 87 88 91 105 110 115 118 112 86 60 60 71 87 101 108 103 111 115 114 120 119 73 80 128 129 126 124 124 118 116 104 78 57 60 112 132 139 137 130 117 103 94 85 76 65 63 66 74 82 88 98 105 110 121 119 117 111 92 69 66 69 80 92 104 109 113 115 118 119 73 80 127 127 125 126 124 119 111 91 66 59 103 127 132 134 138 129 122 113 103 90 80 62 58 61 70 82 93 101 106 107 114 114 116 115 108 94 76 69 64 77 93 107 112 117 116 119 74 79 124 124 125 125 121 117 99 75 58 95 119 126 129 128 130 127 123 119 114 113 105 89 79 77 80 91 102 100 106 107 113 110 117 111 103 96 93 84 71 67 89 101 109 116 115 121 74 79 125 124 123 122 119 109 89 70 92 111 114 124 122 127 126 127 125 128 134 141 141 138 141 141 130 117 114 111 108 113 116 120 119 114 108 102 95 88 90 69 99 108 114 118 120 122 72 78 125 123 121 118 115 101 93 84 104 106 109 117 123 126 132 135 140 141 143 147 148 149 150 150 140 127 114 105 103 102 103 103 105 104 103 99 92 82 90 84 106 131 122 120 122 119 73 78 122 119 121 118 112 109 94 96 101 97 101 111 117 113 107 104 106 107 103 103 101 104 108 109 99 93 86 80 72 65 63 59 57 57 58 59 60 73 87 92 115 138 129 122 122 117 73 76 121 120 120 119 118 117 102 105 102 85 79 89 86 73 69 65 61 64 64 69 73 75 77 82 84 77 71 87 79 82 91 69 61 46 28 33 58 78 88 92 123 130 128 125 119 117 72 76 117 118 116 122 121 124 114 106 95 77 53 41 31 30 61 88 76 95 88 102 114 103 88 117 134 128 112 152 115 112 119 105 93 83 69 91 100 101 99 101 132 131 126 120 114 114 73 76 120 117 117 122 125 129 128 111 97 82 80 91 79 50 74 120 95 134 131 157 167 162 142 169 166 152 132 151 123 109 107 102 99 106 114 119 113 111 111 114 135 125 115 113 112 115 71 76 120 117 117 118 121 126 132 121 112 116 123 134 132 121 119 120 112 118 128 137 144 148 141 152 149 137 129 132 128 128 128 127 127 133 130 129 130 128 117 124 134 123 112 110 111 113 72 74 120 116 115 114 117 123 130 132 125 132 140 145 142 134 133 133 134 142 157 161 159 152 151 148 147 144 148 144 140 140 138 135 132 130 132 137 141 131 123 133 128 117 111 110 111 114 73 74 121 119 116 111 115 120 126 134 132 134 143 140 140 135 135 132 132 137 146 148 143 138 141 137 136 139 136 133 132 129 128 127 123 131 143 142 138 128 132 136 121 112 109 110 112 110 71 73 120 121 118 112 113 117 127 135 130 128 136 140 139 132 132 130 127 123 119 119 113 116 115 113 111 113 115 116 119 120 117 121 127 138 144 141 133 127 136 129 112 106 109 111 111 112 70 71 119 117 120 118 115 115 125 131 131 128 134 134 138 136 130 125 116 106 105 102 101 99 99 102 100 94 99 104 104 108 112 124 135 138 140 134 124 125 134 120 108 106 107 109 113 113 70 94 117 120 122 126 118 116 117 127 133 130 128 130 131 135 133 134 125 118 110 100 102 100 104 107 96 91 100 106 110 117 123 127 134 134 133 123 127 129 129 112 106 107 106 113 110 111 70 127 135 116 123 125 125 119 116 121 130 131 125 127 128 133 130 130 130 129 124 118 107 103 106 108 105 113 121 120 119 124 123 127 130 132 127 125 129 133 120 110 107 109 110 114 109 114 72 138 201 122 122 125 127 121 116 120 124 131 130 127 130 131 130 129 129 127 129 126 122 114 115 118 112 119 122 123 124 125 128 127 132 135 129 127 136 128 117 113 108 112 111 113 110 110 67 142 230 187 119 120 125 126 121 118 119 131 131 131 131 133 134 130 129 126 129 126 126 125 124 119 119 124 126 128 123 125 131 134 137 133 137 137 133 121 116 115 112 111 110 114 113 109 66 142 230 229 168 120 124 126 125 123 121 130 136 137 133 139 145 144 143 141 142 148 149 149 153 151 145 145 143 141 139 135 143 148 148 144 134 138 131 118 113 115 112 112 112 111 111 107 65 142 230 231 227 154 120 124 125 124 125 124 132 138 140 145 151 158 160 161 161 159 158 160 163 157 154 154 153 149 150 148 154 159 156 148 134 132 121 119 116 115 112 111 110 111 109 108 71 142 230 231 231 224 143 122 121 127 126 124 129 134 139 141 149 159 152 149 150 153 155 159 154 150 149 152 151 147 140 142 153 160 154 144 132 124 118 116 113 110 108 111 111 108 105 115 70 141 229 228 229 229 207 124 119 122 123 123 127 131 133 137 142 154 153 151 152 156 154 154 151 150 150 151 150 151 143 143 143 151 149 135 127 120 117 113 112 111 108 107 109 101 114 118 67 141 229 228 229 230 214 132 120 119 121 121 123 125 130 131 136 145 153 147 147 150 155 150 150 150 149 149 149 151 151 143 140 147 137 127 120 114 113 112 111 111 107 106 98 106 119 114 65 141 228 227 228 224 219 144 121 119 120 119 117 120 122 123 128 135 140 147 148 146 148 146 149 148 149 155 152 141 140 140 137 131 120 118 116 111 110 110 107 107 102 98 97 112 115 113 70 141 228 227 228 221 224 164 123 122 120 117 116 118 119 118 116 122 129 134 143 144 145 139 142 140 135 142 138 134 134 130 126 110 109 109 110 108 105 104 101 98 96 96 105 112 114 115 69 87 141 141 140 137 140 112 77 78 75 73 71 71 70 70 68 66 72 75 83 85 83 78 82 76 81 82 81 79 78 74 66 62 65 65 64 62 61 61 60 59 58 60 68 69 69 67 43 