P2
48
60
255
13 24 29 32 33 36 39 42 43 44 44 47 48 47 48 48 49 50 50 50 52 51 51 51 50 50 50 50 50 49 50 50 49 50 48 47 45 43 41 37 36 35 33 32 30 28 27 15 21 37 47 52 57 59 63 67 71 72 75 77 78 79 78 78 78 81 82 83 85 84 85 84 83 83 83 82 81 82 82 82 81 81 79 78 75 72 68 64 60 58 57 56 52 49 47 27 21 36 46 53 58 60 64 68 74 76 76 75 76 80 81 80 81 83 82 83 84 86 86 86 84 84 85 84 84 84 84 84 86 84 82 79 78 76 72 68 62 61 59 58 56 53 49 28 20 37 48 55 58 61 66 70 74 75 78 78 81 83 84 85 86 85 85 86 86 87 86 86 85 85 87 87 87 87 86 87 88 88 87 85 82 78 74 71 67 62 61 59 57 55 51 29 20 38 50 56 59 64 68 72 76 78 80 82 83 86 88 88 88 86 87 87 88 88 88 86 87 88 89 88 89 89 88 87 86 85 86 85 84 80 79 73 70 66 63 60 59 56 52 30 20 40 51 57 63 67 72 73 78 80 82 83 85 87 89 89 89 87 88 87 87 88 87 88 88 87 86 84 85 85 83 83 82 82 79 80 81 82 80 74 70 69 65 62 60 57 54 31 21 41 53 59 65 70 74 77 80 82 83 86 84 84 86 86 87 86 86 86 88 88 87 86 85 84 82 79 76 74 75 74 72 70 67 70 73 73 75 72 69 68 67 64 62 59 56 33 21 42 55 61 66 73 75 80 80 80 81 75 72 74 72 76 78 76 80 82 86 89 86 82 81 78 75 70 66 62 58 55 54 48 48 50 53 57 61 65 64 63 66 66 64 61 59 35 20 44 57 64 67 70 71 71 66 61 56 57 52 58 65 67 66 66 71 76 81 84 81 78 75 74 68 59 54 50 44 44 40 40 41 42 43 45 48 52 56 51 57 61 65 63 60 36 20 49 59 64 59 57 56 51 48 47 45 43 41 43 50 56 55 58 62 66 73 78 78 74 72 69 60 50 46 42 39 37 36 37 37 39 39 40 42 43 45 45 45 48 54 62 61 36 23 54 58 52 47 46 45 47 45 42 38 38 38 39 42 45 46 49 55 62 71 75 76 71 68 62 53 47 42 40 38 37 38 39 40 42 44 45 45 45 48 47 45 45 45 50 59 37 27 56 51 40 42 48 48 44 42 41 42 43 41 41 42 43 45 47 52 58 70 77 76 71 65 56 47 43 41 39 39 40 40 41 44 47 50 53 53 53 54 53 52 49 47 46 52 37 30 54 43 45 54 60 60 59 57 53 50 45 42 41 43 44 46 47 49 58 70 78 82 76 66 52 43 41 39 38 38 38 42 43 42 40 38 40 43 47 51 54 54 54 53 51 53 36 34 51 48 56 60 64 63 59 53 44 37 34 34 36 37 38 42 45 48 56 69 83 89 84 71 55 42 38 37 37 38 43 42 52 56 39 36 36 36 38 40 45 51 53 54 53 52 34 36 52 50 58 63 61 53 41 35 37 34 33 32 40 46 42 42 43 47 52 70 85 89 87 75 61 44 38 36 37 42 41 54 73 66 64 39 36 37 41 39 40 42 49 53 55 55 35 36 53 55 59 59 50 38 37 49 49 58 47 32 35 51 47 47 49 54 55 70 84 85 85 73 63 49 41 38 41 40 47 62 77 65 42 37 36 39 49 46 42 42 44 50 54 56 36 37 55 57 58 53 41 40 55 71 52 45 36 33 37 52 48 50 57 61 61 73 84 85 84 73 63 58 49 45 44 46 53 62 76 75 46 38 38 44 59 60 56 47 45 49 52 56 38 38 57 59 57 47 43 53 68 76 64 35 33 35 42 56 52 54 62 64 63 76 85 85 84 73 63 63 58 53 53 55 60 65 68 70 67 56 57 71 73 65 58 54 52 51 53 59 39 39 61 61 56 49 50 56 67 73 76 59 45 46 57 61 60 59 61 66 67 79 87 86 85 74 63 66 66 63 59 56 56 60 65 66 66 63 63 62 61 59 57 58 62 61 60 65 43 40 64 64 58 55 58 57 63 68 72 73 71 65 63 59 55 56 62 68 71 81 89 88 86 74 65 67 69 71 67 64 60 56 55 56 59 59 59 57 55 55 57 63 68 70 70 71 45 40 65 67 65 64 65 60 59 61 61 62 60 58 55 54 57 64 70 74 72 83 90 89 85 75 67 67 70 73 73 69 66 62 59 57 54 53 53 54 56 61 64 69 73 74 76 77 47 41 67 71 70 69 69 68 63 59 57 56 55 55 56 62 69 72 73 75 72 83 90 89 84 75 68 67 68 71 74 75 74 70 69 67 66 66 66 68 72 75 77 78 78 80 83 80 49 41 69 73 73 73 73 72 70 68 65 64 65 68 70 73 76 77 76 74 74 84 91 91 86 76 69 68 67 70 73 78 82 78 76 76 75 75 76 76 77 80 81 81 84 86 86 83 49 41 70 75 75 75 76 76 76 75 74 75 74 74 77 79 80 79 77 72 77 86 92 93 88 79 71 68 67 68 72 79 84 85 82 80 80 79 81 81 82 83 85 87 90 89 87 83 49 41 71 76 79 79 80 80 80 81 80 79 78 79 81 82 85 80 76 74 81 89 94 94 90 83 74 69 68 69 71 78 83 86 88 86 85 83 83 83 84 85 88 90 90 88 85 82 49 41 71 77 81 83 84 85 83 82 81 81 82 84 85 87 85 80 75 73 82 92 95 95 93 86 77 71 68 70 70 76 83 87 88 91 89 88 86 85 87 88 89 88 88 85 81 79 48 40 69 76 83 85 88 89 88 86 85 85 86 88 89 87 84 79 74 74 84 94 97 97 97 88 79 72 70 71 70 73 80 85 88 89 89 90 90 89 89 89 90 87 81 81 79 78 48 40 68 75 82 86 90 91 89 90 88 89 91 92 90 87 85 77 73 75 83 93 96 95 91 83 75 72 70 72 72 70 77 83 86 89 90 92 91 91 91 90 89 88 84 81 78 77 48 40 68 74 79 84 87 87 88 90 92 94 94 92 90 88 86 77 76 76 77 85 89 87 79 73 68 65 68 73 73 69 72 77 83 87 90 90 90 89 90 90 87 87 84 81 78 77 47 40 69 74 77 82 85 90 86 91 93 95 94 92 89 87 84 78 78 74 72 74 78 76 70 65 61 58 62 68 71 70 68 73 78 83 86 87 88 89 89 87 85 85 83 80 77 77 46 39 68 72 76 80 84 86 87 90 93 93 92 92 88 87 82 77 75 69 63 69 71 67 62 59 55 46 50 57 62 64 69 73 77 80 85 87 87 87 86 85 83 83 80 79 78 78 47 38 66 68 75 80 82 83 85 87 91 91 92 90 89 85 80 70 62 49 44 55 66 60 54 52 44 41 41 45 52 61 72 74 76 79 83 84 86 85 84 83 81 81 78 78 78 76 47 38 66 68 74 78 80 80 82 85 88 89 90 90 88 84 80 69 50 48 56 60 62 55 50 45 43 43 44 45 50 68 77 77 77 78 80 82 84 85 82 81 80 78 77 77 77 76 46 37 65 69 73 75 77 79 81 83 87 86 86 88 86 83 80 78 64 54 57 59 59 53 47 46 46 46 46 50 63 75 78 79 78 79 80 81 82 81 82 81 80 77 77 76 76 74 46 37 64 69 72 72 75 78 78 82 84 85 86 87 85 82 81 81 77 71 69 69 68 59 52 54 56 57 60 66 73 77 79 79 79 80 80 78 80 79 79 80 78 77 75 76 74 73 45 38 63 68 71 72 73 77 77 80 82 84 83 85 84 81 82 81 79 77 75 73 73 67 61 63 64 65 67 69 73 77 77 79 80 79 79 79 79 77 79 79 77 76 74 73 73 73 45 39 61 67 70 71 72 74 75 78 80 83 84 83 82 80 81 80 78 75 72 71 69 67 68 67 66 68 68 69 71 74 75 77 77 76 77 78 79 78 77 76 75 74 74 74 72 73 45 40 61 65 69 71 70 72 75 76 77 78 81 80 79 78 77 77 74 71 70 70 68 66 68 69 70 73 71 69 71 73 72 72 72 72 74 75 77 77 75 75 74 73 73 72 72 72 45 44 61 64 69 70 69 72 75 75 75 77 78 77 74 74 72 74 73 71 71 74 72 68 68 70 76 78 75 73 74 73 71 71 70 70 71 72 75 77 74 75 74 73 71 71 71 73 45 44 63 64 68 71 69 72 74 74 74 76 75 70 69 70 70 72 73 74 75 76 76 75 77 79 80 73 70 71 73 72 71 70 68 67 69 72 74 74 73 74 74 73 72 72 72 72 45 48 70 64 67 70 68 69 72 73 73 75 70 67 69 70 70 72 75 76 73 68 69 76 80 76 67 60 62 63 62 63 64 64 63 63 67 71 74 74 73 74 75 74 73 71 72 73 45 51 72 64 67 69 68 69 72 73 70 70 69 68 68 70 69 71 73 68 63 62 61 62 63 60 58 60 61 58 56 54 53 55 54 56 65 72 76 75 75 75 75 75 73 72 73 73 45 49 79 79 67 68 68 69 71 73 68 68 71 69 65 63 65 64 59 58 60 59 57 56 57 54 53 54 54 53 54 53 52 51 49 53 66 75 78 77 76 76 75 74 74 73 73 73 46 53 189 145 69 68 68 69 71 72 71 71 71 70 62 49 50 53 52 55 58 59 60 61 60 65 70 76 77 80 74 69 66 64 65 65 71 77 79 80 79 77 75 75 73 73 73 75 46 144 254 200 72 69 69 68 70 71 71 72 72 68 59 51 55 60 65 72 78 81 84 84 87 88 87 89 92 85 73 68 68 69 74 76 76 77 79 80 79 76 76 76 74 73 74 75 46 158 255 236 84 70 69 68 70 70 71 72 72 69 66 65 68 69 67 74 82 89 92 90 90 90 86 87 84 73 67 66 67 72 77 81 81 79 79 78 77 77 76 76 75 74 74 74 46 158 255 252 117 71 68 68 68 70 72 72 72 70 70 71 72 71 68 68 73 82 83 79 79 79 73 69 66 64 62 65 68 74 79 83 83 81 79 76 77 77 76 75 75 75 75 76 47 158 255 255 172 72 69 68 68 71 72 73 72 71 71 73 73 73 71 67 65 63 62 61 62 62 60 57 54 55 60 65 71 77 80 82 82 80 77 76 77 75 75 75 75 75 76 76 47 158 255 255 227 78 70 69 68 72 72 72 72 71 73 77 78 75 69 65 61 56 52 50 52 51 50 51 54 59 63 69 74 78 80 80 80 77 76 75 75 75 75 76 74 75 75 76 47 158 255 255 252 113 70 68 66 69 71 71 72 72 76 77 79 78 71 68 64 60 59 57 57 57 56 58 62 66 70 74 77 78 79 79 79 77 76 75 73 73 74 74 75 75 75 76 47 158 255 255 254 171 70 68 67 67 70 71 71 72 75 76 76 76 74 73 70 70 69 68 67 69 69 72 75 77 77 78 78 79 80 80 79 76 75 73 72 71 72 73 73 74 74 74 46 158 255 255 254 236 90 68 67 67 68 70 70 73 74 75 75 77 77 77 76 75 77 79 81 84 85 83 84 83 84 82 80 81 81 80 79 75 74 73 71 71 72 72 72 73 73 74 46 158 255 255 255 254 153 68 67 67 67 68 69 70 74 75 77 77 77 79 80 82 87 89 89 90 89 88 88 87 87 86 85 83 82 80 77 74 73 73 72 72 72 72 72 72 73 74 46 158 255 255 255 255 218 76 64 65 66 67 68 69 71 73 76 77 79 82 85 86 88 89 88 88 87 88 87 89 90 88 86 84 80 77 76 72 73 73 71 71 72 71 72 72 73 73 45 158 255 255 255 255 222 74 63 64 66 66 68 67 68 71 74 78 81 83 86 86 87 86 85 83 83 84 85 86 85 84 80 79 76 73 73 71 70 70 70 70 69 70 71 71 71 72 45 158 255 255 255 255 185 63 62 61 63 64 67 65 67 68 72 76 78 81 83 83 84 81 78 75 79 82 80 79 79 79 76 74 72 71 70 68 67 68 68 67 68 68 69 69 69 70 44 158 255 255 255 255 213 121 66 59 60 61 63 64 66 69 71 72 73 76 78 79 78 75 74 73 75 78 75 73 74 73 71 69 70 70 69 67 66 65 66 66 67 67 67 67 68 70 45 158 255 255 255 255 251 148 69 60 57 59 60 63 63 66 68 69 69 69 71 73 72 68 69 68 71 72 70 69 70 67 66 65 67 66 66 64 64 64 64 63 65 65 65 66 67 71 47 158 255 255 255 255 255 176 71 65 55 55 57 59 61 63 64 65 65 64 65 67 68 66 64 63 64 65 67 65 63 62 62 63 62 63 63 62 61 60 61 62 62 63 64 65 68 73 48 98 158 158 158 158 158 109 45 41 36 33 34 34 35 37 38 38 38 38 37 37 38 39 37 36 37 38 38 37 36 36 36 36 36 37 37 37 36 37 37 37 38 38 39 41 43 46 31 