P2
48
60
255
30 61 65 67 72 73 75 78 83 85 83 85 89 93 91 91 92 96 97 96 94 94 98 98 100 97 98 97 96 92 92 94 94 89 84 85 87 84 82 81 76 73 69 67 62 60 59 33 45 100 104 108 118 118 121 130 133 136 136 139 145 147 150 148 151 152 152 151 148 149 152 162 159 155 158 154 152 148 151 152 150 148 146 141 134 128 127 127 126 120 114 106 102 100 95 51 47 98 105 109 115 120 127 131 137 137 138 144 150 156 157 155 153 156 154 150 145 149 155 163 163 160 155 155 153 153 154 154 150 147 145 143 141 137 132 127 125 117 111 106 101 97 95 53 47 99 105 108 115 122 125 131 134 139 139 147 152 158 160 161 161 161 156 151 147 147 153 159 164 160 156 153 155 156 153 153 153 151 147 144 142 140 137 132 125 116 113 106 102 98 93 50 47 97 105 109 116 119 126 128 133 141 142 148 158 161 161 165 165 166 159 150 151 153 157 160 161 160 157 156 160 158 160 160 158 158 154 149 146 143 136 134 125 119 114 105 103 98 93 51 51 100 104 111 117 123 129 132 137 143 145 151 156 162 162 165 165 169 160 155 151 157 161 164 163 165 161 158 161 161 161 158 158 156 155 148 151 150 147 138 128 120 114 108 102 96 94 57 58 103 108 115 121 127 127 135 139 147 146 145 151 156 156 160 161 162 161 152 147 150 160 165 166 164 162 161 156 149 157 158 155 154 157 153 155 157 147 139 124 118 113 109 105 97 96 58 62 104 106 117 122 125 126 136 141 149 151 148 145 149 150 151 154 154 153 147 142 145 164 161 163 159 158 157 154 148 151 153 151 153 155 158 154 151 142 134 128 115 110 109 105 98 96 59 64 104 107 115 114 119 127 123 134 143 143 140 137 139 141 144 145 146 148 144 145 145 155 159 158 152 150 150 150 147 143 143 140 138 133 134 130 127 123 122 120 113 108 107 102 96 97 59 65 105 107 113 106 113 107 111 118 113 105 103 114 119 123 128 137 140 143 145 144 146 155 157 153 148 148 144 141 133 127 118 105 94 92 94 100 100 102 104 113 113 102 98 103 96 96 61 68 106 105 92 93 107 100 94 94 85 76 75 75 81 95 102 114 127 137 141 140 146 151 149 150 147 145 141 129 115 100 83 82 71 63 63 67 72 76 81 88 97 97 93 94 94 96 61 69 110 98 88 90 84 86 82 74 66 61 58 57 62 75 86 97 120 126 130 130 142 145 143 142 143 141 130 119 103 89 72 65 63 57 53 55 64 74 79 80 79 79 83 90 90 96 63 69 108 91 80 72 77 81 90 86 82 70 54 48 54 63 78 92 99 110 115 127 142 146 139 141 142 135 122 109 95 85 75 67 52 46 47 53 66 76 90 92 92 86 78 77 78 95 63 70 104 84 75 85 93 90 83 74 50 31 25 35 51 47 59 72 84 93 102 127 145 157 153 147 141 127 111 97 82 74 74 63 59 66 61 51 58 68 64 79 91 93 90 83 84 96 62 68 110 97 92 90 87 77 45 39 42 46 29 35 53 67 71 81 82 81 100 126 148 164 165 163 150 127 105 89 80 78 75 69 71 48 33 30 37 51 53 65 72 85 88 88 87 95 64 73 118 104 91 86 78 49 42 82 63 66 30 68 72 87 85 99 103 103 107 129 149 159 160 164 154 129 107 96 81 82 82 80 85 65 86 46 73 74 68 53 58 77 85 91 92 100 65 74 120 119 107 98 69 59 70 111 87 53 36 53 93 112 92 110 117 114 121 126 140 153 150 152 146 120 110 108 103 96 84 85 131 79 40 31 54 85 89 63 64 72 87 93 96 103 67 73 126 123 107 92 84 94 107 119 126 72 59 72 124 113 109 108 124 129 124 128 138 151 148 150 137 113 107 111 115 95 102 104 126 117 63 56 68 113 108 95 81 87 87 97 100 105 67 76 128 130 123 107 109 105 106 115 122 124 120 124 117 116 114 106 122 125 122 122 134 143 140 140 132 114 107 107 109 117 116 118 124 125 116 112 116 121 120 104 92 92 92 95 110 114 68 76 130 139 131 123 121 113 111 116 122 124 118 116 110 110 107 115 122 120 118 122 128 135 134 132 123 112 108 105 110 111 114 117 117 120 122 125 122 126 120 106 101 104 107 113 121 120 71 76 131 140 136 131 124 115 113 118 122 118 119 115 109 110 109 119 119 118 121 123 124 130 131 125 114 110 109 108 115 117 112 118 118 119 117 114 111 106 107 104 105 109 119 124 130 124 74 78 134 139 139 132 129 122 111 112 108 108 104 104 113 120 124 127 121 120 125 122 121 126 126 126 113 108 108 116 111 117 123 130 125 121 118 111 108 113 110 117 112 114 126 128 130 128 76 76 133 140 137 139 137 134 127 132 131 130 129 133 132 129 127 122 123 125 124 119 124 133 138 132 118 107 112 116 120 115 118 121 126 128 128 124 122 121 122 129 111 125 129 131 132 127 75 74 131 134 136 145 143 144 131 141 143 139 139 137 133 125 123 127 130 130 125 121 128 141 142 134 122 110 111 119 125 127 125 118 120 126 136 143 138 137 142 141 129 132 132 130 128 128 76 74 128 133 138 149 146 145 140 144 143 141 132 131 128 127 131 135 139 131 122 120 132 145 145 140 127 109 110 115 128 139 140 133 126 122 124 137 140 142 139 137 135 137 132 130 129 125 74 74 127 133 141 145 146 146 145 145 143 136 131 127 130 138 146 134 124 124 121 123 138 147 150 143 130 111 110 110 116 126 140 145 140 132 125 125 131 140 139 136 136 133 136 129 127 124 74 74 124 136 143 144 143 147 151 147 146 143 135 133 138 149 129 114 118 114 118 129 141 149 149 142 132 116 109 107 109 108 114 134 147 142 131 131 132 141 143 141 137 135 131 131 125 123 74 74 126 132 138 142 144 148 150 152 148 142 136 147 148 129 111 116 123 121 122 134 149 151 149 149 138 119 111 117 121 111 107 111 136 145 146 138 141 144 145 145 140 134 129 130 125 118 72 75 125 132 136 139 142 150 154 154 149 142 148 149 139 115 119 119 126 126 125 136 162 183 150 159 154 124 112 121 124 114 105 103 116 136 143 144 146 147 150 147 146 135 129 127 123 117 69 73 120 131 134 140 141 148 152 153 149 147 147 142 125 112 118 116 123 125 120 128 152 171 152 157 151 118 111 123 120 111 103 97 101 126 139 150 147 149 150 151 147 135 124 124 119 114 68 73 124 132 135 138 141 143 151 152 150 148 145 135 115 114 120 113 115 108 107 115 130 140 138 134 123 107 100 104 109 106 101 102 96 115 137 145 146 152 150 146 142 133 125 119 113 114 68 73 127 131 133 133 139 146 150 152 148 148 140 127 111 121 124 101 72 55 59 93 114 127 130 121 103 89 63 56 71 86 98 107 99 106 130 142 144 148 149 144 140 132 125 118 115 113 67 72 122 128 130 129 138 144 150 152 150 144 136 124 117 127 127 117 78 82 97 93 97 108 107 100 89 75 71 72 59 77 99 108 105 106 127 140 142 148 147 143 137 127 122 116 112 112 66 72 123 126 128 129 136 141 148 150 149 148 141 129 127 134 121 98 98 94 97 112 105 86 84 83 94 99 93 85 81 84 91 104 113 117 123 135 141 142 143 138 134 125 118 113 109 110 66 69 121 127 127 131 135 139 142 146 147 143 142 133 131 130 107 90 70 70 79 90 97 99 76 77 86 85 73 65 55 66 73 85 108 120 127 134 143 141 142 135 126 122 116 111 109 108 65 66 117 124 127 128 131 135 143 146 145 146 140 133 123 116 91 76 62 62 65 70 77 99 108 99 82 69 64 68 54 53 58 68 99 109 123 133 139 142 136 131 123 118 114 109 108 106 64 64 116 122 126 126 127 131 139 141 143 146 135 114 98 86 73 65 64 62 67 70 68 80 89 92 79 65 64 65 65 45 49 59 81 89 104 124 138 139 134 128 121 115 111 108 106 104 64 60 111 118 122 123 126 125 135 134 140 138 119 91 80 71 68 61 60 61 67 68 68 73 78 84 81 75 60 67 62 54 46 56 63 75 85 108 124 135 132 124 118 110 108 108 105 102 62 58 108 115 116 119 118 122 128 130 136 122 98 73 70 69 63 63 57 55 68 68 72 69 72 81 86 75 64 60 59 50 45 54 54 68 66 89 111 130 126 118 113 107 107 106 104 100 59 53 107 112 116 118 118 122 123 124 123 108 85 67 63 68 73 73 81 74 89 81 86 94 88 97 102 92 84 83 83 72 58 56 54 60 62 76 91 121 122 114 107 101 103 105 102 100 56 51 99 110 112 116 113 117 120 123 116 91 80 60 61 81 89 106 115 117 123 120 122 127 121 125 124 122 121 121 118 104 89 76 60 58 56 66 76 108 118 109 102 99 102 106 101 94 51 52 88 110 112 110 110 113 112 120 115 87 71 63 69 85 99 101 95 91 90 86 87 88 89 86 85 79 80 81 83 80 81 82 66 59 60 63 72 97 114 106 96 97 105 106 100 86 46 48 85 98 110 110 111 107 111 114 109 82 73 73 62 69 73 63 55 52 61 62 86 91 88 97 96 76 69 54 52 51 48 49 43 34 57 68 67 101 114 102 96 97 106 105 92 80 44 49 82 88 103 115 115 107 110 115 107 87 85 77 46 46 39 44 64 69 78 90 121 128 124 131 123 99 92 77 70 66 59 68 71 66 64 75 80 101 111 98 99 102 107 95 82 74 43 48 82 89 92 103 117 107 104 114 113 91 88 85 88 108 101 99 101 105 112 116 119 114 116 118 115 110 108 101 95 97 100 110 116 107 87 83 91 106 106 97 100 107 98 87 79 75 44 47 80 85 86 91 104 110 111 112 114 103 92 107 119 128 123 116 113 115 119 130 128 124 123 119 120 122 115 109 105 108 113 120 128 124 112 98 109 116 104 97 102 100 83 82 83 81 46 48 84 84 86 81 81 93 110 112 113 113 99 122 131 130 126 122 122 123 126 141 138 131 124 123 123 136 124 120 112 111 114 121 130 132 121 108 120 122 101 99 100 85 84 81 78 78 43 49 78 85 86 80 76 72 105 106 119 111 107 135 137 131 126 125 121 121 122 118 113 111 116 118 116 116 116 116 114 113 117 121 127 131 120 112 118 114 98 99 90 80 82 77 72 73 39 59 80 77 84 74 79 69 90 108 119 104 115 136 135 134 129 123 114 112 104 96 92 93 99 104 103 102 103 106 112 116 115 117 128 125 117 112 110 102 89 87 81 76 81 78 73 77 42 103 86 79 84 77 78 69 81 104 110 100 112 127 133 133 130 124 116 103 91 85 79 81 88 87 87 85 90 99 114 117 118 120 122 119 116 104 102 97 84 79 78 75 76 79 74 73 40 150 148 78 82 77 77 75 80 93 94 102 108 123 129 131 128 121 128 113 101 86 78 69 75 76 77 84 95 109 113 114 119 118 110 114 108 93 88 95 89 84 76 75 81 75 73 67 42 156 220 97 72 78 80 80 86 85 86 97 100 112 118 127 128 131 135 127 110 93 76 66 61 75 73 89 105 115 114 116 120 117 107 105 100 85 79 89 88 81 78 76 79 74 70 61 56 156 249 151 72 75 70 81 94 87 81 87 93 99 108 118 122 133 134 123 101 88 74 61 54 63 76 94 109 118 125 115 110 105 103 93 92 78 67 82 81 77 77 77 76 73 63 62 99 156 252 224 90 68 71 77 81 82 80 81 89 91 99 107 118 130 131 111 94 90 78 54 58 67 78 91 110 122 118 113 98 97 85 82 75 72 72 75 79 70 73 78 78 69 59 77 119 156 252 248 156 61 66 71 79 72 74 69 78 89 92 94 111 125 114 110 101 97 96 78 71 83 91 103 110 106 109 96 89 81 78 66 64 71 74 68 75 71 68 77 72 56 68 90 131 156 252 251 151 62 59 65 79 70 64 68 69 75 81 81 98 106 115 108 96 95 104 99 96 94 97 104 106 104 101 94 83 75 72 64 52 63 66 68 70 70 67 68 61 55 83 94 140 156 252 242 73 74 53 52 68 74 67 69 61 71 88 96 100 92 96 100 105 99 102 102 98 98 107 106 107 94 98 96 95 72 69 63 47 53 58 61 65 67 65 57 53 70 85 94 123 155 245 185 39 78 64 51 64 69 71 65 58 71 81 92 94 87 92 102 109 110 107 104 91 98 100 105 101 92 90 88 82 79 72 58 49 58 56 60 65 63 59 52 58 83 86 96 53 83 77 42 32 81 91 58 55 61 65 60 57 61 67 70 88 91 100 94 116 101 92 103 86 99 103 99 93 85 83 84 75 81 74 57 47 55 56 64 61 58 50 49 73 87 88 115 49 12 20 23 20 74 61 51 33 32 34 32 38 38 39 43 55 58 51 54 62 63 57 60 58 60 64 58 59 48 43 46 37 44 46 35 26 31 35 37 35 32 29 37 51 54 57 83 43 