P2
48
60
255
34 55 59 57 56 55 55 53 52 57 65 72 70 72 65 65 65 62 59 66 62 68 69 69 70 69 66 67 65 63 60 58 69 65 65 63 62 61 57 61 63 59 56 47 45 47 47 30 51 87 87 91 91 86 89 87 86 99 110 122 111 119 100 101 99 102 96 104 100 110 111 111 112 112 110 105 107 107 99 100 103 104 103 103 103 101 93 99 103 97 95 78 72 78 76 47 52 90 95 85 88 89 90 88 93 104 117 123 121 122 100 97 105 95 99 99 100 107 110 112 115 117 114 113 112 111 107 102 99 97 98 103 105 101 95 100 102 100 97 83 72 78 75 46 53 88 85 86 86 94 92 93 101 112 123 127 124 120 100 91 98 87 97 99 101 108 112 115 118 119 121 119 115 111 112 101 108 99 98 98 105 98 97 98 102 103 100 89 73 78 74 44 57 90 91 76 84 93 95 102 108 117 123 128 117 113 115 99 86 95 98 99 102 112 114 118 121 121 122 122 118 115 112 105 105 109 109 107 102 96 98 92 98 104 103 96 77 75 73 43 51 77 71 69 89 95 99 103 104 111 112 112 108 108 113 111 99 93 99 103 109 119 121 124 122 122 121 120 121 120 113 110 103 103 105 108 100 92 94 85 89 99 100 100 84 73 72 42 43 69 63 78 89 82 83 83 79 80 71 64 67 75 83 90 102 108 112 115 120 124 126 125 125 123 120 118 117 115 112 105 100 92 86 89 89 81 74 76 78 81 78 89 88 73 70 41 42 65 65 80 78 70 69 66 64 60 61 59 63 62 62 72 83 102 115 120 123 127 128 127 126 123 118 115 112 104 97 87 73 70 60 59 62 65 66 68 73 73 68 73 80 74 69 39 42 60 70 73 76 79 81 76 69 69 67 65 71 74 76 73 85 92 105 114 124 129 129 130 128 125 119 114 110 96 84 70 66 60 57 56 58 61 63 64 71 75 67 68 69 73 65 37 41 64 67 85 96 102 104 105 107 109 104 95 84 84 89 94 96 96 103 111 126 132 132 133 128 126 118 109 105 90 80 74 69 68 67 62 63 69 72 75 78 81 74 69 67 64 55 37 44 65 79 102 107 111 120 124 127 126 121 115 106 100 98 98 100 105 109 114 126 135 136 136 132 124 115 100 95 84 76 75 76 80 81 84 90 95 97 96 96 100 94 83 75 66 56 32 44 74 99 111 115 119 126 128 129 128 123 118 112 106 102 99 98 102 108 115 126 136 141 141 137 128 115 100 89 77 70 75 85 95 101 107 108 108 106 103 100 104 101 92 86 80 71 37 51 96 109 112 114 119 121 122 119 113 104 98 91 91 93 95 95 97 102 113 123 136 145 146 141 129 115 98 84 68 70 83 89 90 92 96 99 103 105 104 101 103 101 94 88 82 77 44 56 101 110 112 110 111 108 100 94 100 101 95 89 81 71 78 88 94 98 109 121 132 143 146 143 132 112 93 79 66 74 79 75 73 82 91 94 92 89 84 88 96 94 90 87 83 80 48 62 107 109 108 105 99 87 96 93 74 58 50 59 70 81 77 80 92 102 107 118 131 139 142 139 129 110 93 77 70 72 70 75 92 95 80 64 66 71 76 74 69 80 84 83 80 79 48 66 107 106 102 94 81 87 68 65 47 65 39 45 58 77 76 92 98 110 107 115 125 133 137 132 122 105 91 79 77 74 79 81 74 91 61 59 38 39 46 56 67 63 68 76 75 77 48 68 107 103 94 79 77 61 80 87 52 56 36 41 71 112 82 87 116 113 106 112 118 127 128 126 118 104 92 83 87 93 81 64 102 120 61 51 35 39 53 65 53 58 57 67 73 76 49 70 109 101 91 78 69 78 96 106 64 48 41 61 94 115 103 103 119 114 108 111 116 122 122 122 118 102 91 87 91 101 81 90 107 124 76 44 38 51 64 77 66 59 58 60 69 76 51 71 112 105 93 85 87 93 105 115 103 81 81 94 109 109 111 116 119 109 109 110 115 118 120 120 115 100 91 89 87 98 99 98 99 107 101 75 68 72 89 91 87 74 70 68 73 82 56 74 116 111 105 104 104 106 110 112 114 110 109 104 107 109 114 116 111 108 111 114 113 114 118 118 111 98 93 92 89 92 99 99 99 102 99 97 98 100 99 95 91 87 89 87 88 98 64 76 120 116 115 114 115 117 120 117 118 116 114 111 113 113 113 112 112 112 114 116 109 113 118 120 112 97 93 94 91 93 94 96 100 103 103 104 106 106 103 103 102 99 99 100 103 106 67 77 120 117 118 119 123 126 128 128 129 125 122 119 116 118 117 114 114 114 115 112 109 115 121 124 119 101 91 92 89 94 96 99 103 104 107 109 111 112 113 111 107 104 103 105 109 109 68 76 119 119 122 126 127 129 131 132 132 128 125 120 118 121 117 116 116 114 114 106 110 118 125 125 117 104 92 89 89 93 97 98 103 104 107 112 115 119 120 116 113 110 108 107 111 109 68 76 121 124 125 126 127 129 128 129 130 127 125 122 123 120 120 118 117 112 111 105 114 123 126 125 121 107 94 88 89 91 97 103 103 107 108 113 118 119 119 119 115 113 111 110 110 111 67 74 122 126 125 126 129 128 128 129 131 129 127 126 124 123 125 118 114 113 107 108 118 128 132 130 126 111 97 89 89 90 95 102 107 107 110 111 117 119 120 118 113 115 113 109 110 111 67 75 122 125 126 126 129 130 130 131 129 129 130 127 130 128 127 120 115 110 106 112 123 136 139 136 137 119 101 90 87 87 94 103 111 113 112 110 116 118 120 119 117 116 113 110 108 109 66 75 122 126 128 130 129 131 132 132 132 131 129 130 131 129 129 119 115 105 109 113 126 147 146 138 136 119 100 92 88 87 94 102 109 116 117 116 116 120 122 123 122 121 116 110 107 107 65 74 122 127 129 129 128 138 136 135 138 135 131 132 131 131 125 124 112 107 114 112 119 139 138 131 124 112 95 87 89 87 93 101 109 117 119 124 125 125 127 125 126 124 116 111 107 103 63 74 124 128 131 134 137 140 141 141 136 137 135 134 134 134 130 124 108 117 119 112 111 122 127 121 114 100 83 81 87 90 91 101 110 117 121 125 127 126 129 126 126 121 116 110 106 103 63 74 123 126 129 134 138 141 143 138 134 135 136 137 137 131 134 127 110 120 106 81 93 113 115 109 101 88 69 60 80 88 86 96 106 118 123 126 130 131 126 126 125 121 113 108 104 102 62 73 120 125 127 133 136 138 139 136 138 136 131 133 136 136 131 119 111 110 76 44 50 99 102 95 87 67 37 43 75 88 83 91 107 121 127 128 131 130 128 126 123 118 112 106 104 101 61 73 120 123 126 132 134 135 140 140 140 137 130 135 138 135 128 118 111 106 78 57 69 100 95 84 77 54 42 59 81 84 85 91 109 121 129 130 132 124 126 125 123 117 111 106 103 100 61 72 120 123 127 130 132 132 137 138 139 138 135 137 137 132 122 114 108 103 91 94 107 109 96 85 76 76 80 85 84 81 92 102 115 122 128 128 131 127 126 124 121 114 106 104 102 98 59 71 117 122 126 128 129 135 138 139 139 138 139 141 137 129 119 116 115 99 91 97 111 116 110 100 95 88 80 76 73 87 103 114 122 127 129 130 129 123 124 122 118 110 106 102 101 98 59 70 117 122 125 128 130 135 137 137 140 138 141 139 137 132 124 121 118 110 101 104 115 124 122 119 116 99 86 80 89 104 113 121 127 131 131 130 130 127 124 120 117 110 106 103 100 96 58 71 117 120 125 125 130 135 134 136 139 141 139 138 136 133 131 128 123 120 113 116 124 131 124 125 127 113 101 99 106 111 118 123 129 132 132 131 126 124 123 117 115 110 106 102 99 95 57 70 115 119 124 127 131 133 132 135 140 140 136 137 134 134 134 131 127 123 120 123 132 133 126 129 134 121 107 102 106 112 117 124 129 133 131 131 128 124 123 118 113 110 103 102 98 94 57 70 116 119 124 126 125 130 130 135 140 140 138 136 135 135 135 133 129 124 122 125 132 131 130 131 135 123 107 102 105 110 115 122 128 132 132 132 126 124 123 116 112 109 103 99 96 94 56 70 116 119 122 124 129 131 135 136 140 141 141 138 138 139 135 132 127 123 119 125 129 125 124 125 126 122 106 102 101 107 112 119 126 131 132 131 127 123 120 115 110 107 101 96 95 92 56 70 115 120 120 124 129 133 132 136 139 141 141 138 136 137 135 131 125 120 121 123 124 124 123 122 113 106 106 103 98 102 108 115 123 129 130 128 125 123 116 113 109 104 98 96 95 92 56 68 114 119 121 123 127 132 132 138 139 140 140 138 138 136 132 127 119 119 120 115 108 104 103 100 95 93 97 98 99 99 103 111 117 124 126 125 123 119 115 109 107 102 99 94 92 90 55 70 115 118 121 123 126 130 131 136 137 139 140 139 136 133 128 124 118 117 104 102 99 95 89 87 86 87 87 85 91 97 101 104 111 119 123 123 119 118 113 109 104 100 96 93 90 89 55 70 115 118 119 123 126 127 131 133 135 137 139 138 132 129 124 123 116 99 91 88 85 80 76 74 76 73 72 71 79 89 97 100 104 111 116 117 116 114 108 106 103 99 94 92 90 89 54 70 115 119 119 121 124 125 128 130 134 134 136 134 125 118 119 114 96 82 72 64 60 63 64 62 58 56 59 64 68 76 85 92 97 104 111 114 114 112 108 103 101 97 93 91 90 89 53 70 115 117 119 120 122 126 126 128 133 133 134 129 118 107 106 92 76 71 74 82 87 90 88 92 94 93 88 81 67 61 66 75 85 99 107 110 112 112 107 103 98 94 92 92 89 88 55 68 113 117 119 119 123 124 127 126 130 133 131 123 104 82 77 73 84 98 104 106 105 107 107 111 111 108 103 97 87 80 65 56 66 88 102 109 110 113 107 104 100 95 92 91 90 89 55 68 111 117 119 118 122 123 126 126 131 133 130 118 91 74 87 101 103 107 112 119 118 117 114 117 116 113 104 94 88 84 83 84 88 95 109 118 121 116 109 103 98 94 94 93 91 89 54 67 106 114 118 118 120 122 125 128 131 128 125 116 112 117 110 107 107 111 114 115 114 113 113 112 106 104 96 91 88 87 90 97 100 101 115 124 125 118 109 101 98 95 94 93 92 89 54 67 109 116 117 117 121 123 125 128 128 116 118 122 126 128 124 117 113 110 109 105 104 103 105 101 97 94 93 90 87 89 94 103 105 110 119 124 125 120 111 104 100 97 95 93 91 89 53 67 111 115 118 118 121 125 126 127 129 122 121 126 129 129 127 124 117 112 106 99 89 83 84 80 83 85 86 88 92 94 98 100 107 113 118 122 124 119 109 103 100 95 94 92 90 88 54 66 110 112 118 119 121 124 126 128 129 125 125 131 132 129 126 125 121 117 112 108 101 96 95 96 101 102 100 98 97 99 102 104 109 114 116 118 121 117 109 103 98 97 94 91 90 87 53 66 110 112 117 119 119 122 124 126 126 126 126 129 132 129 125 123 121 117 114 110 109 112 112 111 112 109 105 105 106 104 108 110 109 111 113 115 117 114 106 100 97 96 93 91 89 87 53 66 109 114 117 118 118 121 124 125 124 126 124 124 127 127 125 125 125 124 124 122 122 124 117 111 113 117 115 114 114 111 110 110 109 110 112 113 114 110 104 97 95 94 93 90 87 86 52 65 108 113 116 117 118 120 122 124 125 126 123 123 125 124 125 127 128 130 132 131 134 132 132 123 124 123 120 122 120 115 106 108 109 107 109 111 111 108 102 96 95 93 91 89 86 84 51 64 107 111 114 114 116 118 121 123 125 124 121 122 123 124 125 128 131 133 136 136 135 133 131 132 130 129 126 124 121 114 105 108 109 108 110 109 106 104 99 94 93 91 90 88 85 83 50 62 106 110 114 115 116 117 119 123 124 123 119 122 123 126 125 129 132 135 135 132 132 128 126 129 127 128 125 124 119 112 108 108 107 107 109 106 106 102 96 92 91 89 87 86 83 82 48 61 104 109 113 112 113 114 117 119 122 123 124 124 125 128 129 129 132 133 134 132 133 132 131 131 128 129 126 122 117 111 111 110 107 107 106 102 101 99 93 90 89 87 87 84 82 79 46 58 102 106 109 111 111 113 116 119 122 124 125 125 127 126 128 129 133 134 134 133 133 132 131 130 126 128 125 118 114 111 110 109 106 104 102 99 96 96 92 90 88 86 84 81 78 75 43 56 97 104 108 110 111 112 115 117 118 121 123 125 126 125 127 131 130 133 134 132 132 129 127 126 126 126 120 114 111 108 107 106 104 101 99 95 93 91 90 87 86 83 81 77 76 71 39 33 58 63 65 67 67 68 70 72 72 73 75 76 78 77 77 80 81 82 82 82 81 78 77 76 77 75 72 69 68 67 66 65 63 61 60 58 56 54 54 53 52 50 49 47 45 42 22 