P2
48
60
255
19 36 42 52 60 65 67 69 72 74 76 77 81 84 87 89 87 88 89 92 93 92 91 92 93 93 94 96 95 92 89 89 86 85 82 79 75 72 69 67 62 57 47 37 30 28 32 18 33 61 71 88 99 106 109 112 117 120 124 129 133 138 141 144 144 143 148 149 147 150 149 147 149 147 141 148 150 149 147 145 142 135 133 128 123 118 112 108 102 95 79 61 50 45 50 28 36 65 76 92 101 108 110 112 117 121 125 130 133 138 140 144 145 142 142 142 144 146 145 145 145 141 139 150 146 143 144 145 142 135 136 130 123 118 114 110 104 97 83 65 50 46 49 29 39 71 83 97 107 113 115 116 119 120 124 127 130 134 137 139 138 140 143 141 141 138 139 140 141 142 144 143 148 148 142 145 143 142 138 132 126 122 116 112 105 101 88 70 52 46 48 28 47 81 90 103 113 116 119 120 120 120 121 122 126 129 132 133 133 133 135 135 131 131 135 136 135 137 139 140 140 139 139 141 139 135 135 129 126 120 116 112 108 104 92 73 55 47 47 28 53 87 92 107 112 114 116 115 115 115 114 119 123 126 127 127 125 126 125 124 125 128 128 127 128 130 133 133 130 124 128 126 124 125 126 123 120 115 110 107 106 101 92 77 57 48 46 27 57 87 88 94 89 88 87 94 96 97 100 102 105 107 113 109 112 115 116 115 118 117 120 121 121 123 124 122 119 118 117 116 114 110 109 112 108 106 103 98 92 85 77 73 60 51 45 26 57 78 69 65 65 65 65 67 64 63 66 68 73 74 85 89 93 100 103 106 108 110 112 113 115 116 112 110 108 108 105 100 99 92 92 83 81 80 76 75 72 68 64 55 53 50 43 26 51 68 64 64 64 65 64 61 54 52 52 53 54 59 61 72 79 84 89 95 101 105 108 112 114 113 108 104 101 98 91 80 82 74 67 63 58 56 55 55 56 58 57 50 47 47 43 26 55 83 79 78 79 79 78 75 70 64 57 53 52 53 55 59 69 74 76 78 89 100 106 110 110 110 103 100 96 85 75 69 67 58 55 52 51 52 53 57 60 60 60 54 48 46 42 26 57 93 95 92 88 85 85 81 76 69 62 56 52 51 53 55 58 63 65 69 81 95 104 106 105 105 100 96 90 73 65 61 55 52 53 53 56 61 67 70 75 74 71 59 52 45 42 26 57 94 90 85 79 73 69 63 57 52 51 50 48 47 49 52 55 59 63 67 79 94 102 103 104 103 99 93 79 66 60 57 55 53 50 52 53 58 63 68 72 71 65 56 51 45 42 25 56 88 80 75 68 61 53 48 51 62 72 76 67 58 51 46 51 56 60 70 84 98 107 110 112 109 100 87 74 63 58 54 48 48 55 65 72 71 60 55 55 59 56 51 49 45 42 25 55 83 76 69 62 54 53 61 57 50 45 50 48 45 52 55 51 55 60 72 86 100 114 121 121 115 101 85 70 63 55 49 52 51 49 51 50 51 58 63 59 50 49 48 47 45 42 26 54 81 75 72 65 61 55 50 46 50 45 41 40 44 53 54 58 59 63 73 90 103 120 129 130 118 105 86 74 62 57 57 54 49 46 43 45 46 48 48 57 56 49 50 47 46 42 25 55 82 75 68 63 53 48 47 57 63 53 50 50 56 77 73 57 71 73 79 94 110 127 138 138 122 106 88 77 71 68 56 70 66 55 49 52 52 65 54 49 48 51 51 47 45 43 25 62 97 88 85 84 76 69 63 64 72 79 80 79 80 85 77 76 83 92 92 102 114 130 146 141 125 109 94 86 88 79 73 81 87 82 78 78 77 73 63 58 54 53 52 48 44 43 25 69 110 106 102 92 81 80 81 84 79 73 71 73 79 84 87 98 106 108 106 111 121 140 153 147 134 114 102 96 103 105 97 90 85 82 82 78 77 78 76 68 60 56 59 55 45 43 25 70 114 110 106 99 89 80 76 78 78 78 78 79 77 80 86 96 107 113 112 114 127 144 154 152 139 121 111 105 107 108 100 85 80 80 84 85 85 83 77 66 61 60 61 56 48 42 26 70 113 113 115 117 111 103 95 85 78 76 75 78 83 92 100 109 117 118 114 117 130 142 154 156 143 125 117 113 110 110 104 95 82 75 72 72 71 69 68 71 76 74 67 59 49 43 26 69 114 116 122 126 126 126 121 117 114 112 111 114 116 120 124 129 127 120 118 121 129 145 156 156 140 125 121 117 115 120 121 121 117 109 101 97 94 94 97 100 100 93 75 64 50 43 26 68 115 121 127 132 131 134 134 130 132 129 130 130 132 136 140 137 130 121 121 124 130 147 154 155 137 123 117 116 115 123 131 133 134 131 129 127 123 119 121 120 117 108 83 69 52 43 26 67 114 120 126 133 137 140 140 140 140 137 138 140 145 146 144 134 127 123 123 128 133 148 159 153 136 125 115 117 116 125 132 135 139 137 136 133 129 119 125 127 125 115 89 73 53 44 26 69 112 116 124 132 136 141 142 144 144 147 146 148 147 148 144 134 125 124 123 130 139 150 158 152 138 127 122 120 119 124 133 139 144 141 141 137 135 132 131 132 129 117 93 75 53 43 26 68 113 119 124 129 134 138 141 143 145 149 147 151 148 143 140 130 121 122 125 133 141 154 164 152 138 130 123 119 119 123 132 139 141 141 144 144 140 137 139 136 130 118 98 75 53 43 27 67 112 115 118 125 130 134 137 141 145 145 145 146 143 140 128 114 110 117 128 136 144 161 164 152 141 134 120 115 110 116 128 135 139 142 144 145 139 136 138 136 128 117 101 76 53 43 27 65 110 116 117 124 129 132 137 138 140 141 141 136 135 126 112 99 112 121 135 141 148 160 161 154 147 141 130 114 104 101 112 124 132 137 139 138 136 133 135 131 124 117 102 76 53 45 26 63 107 114 118 122 125 129 133 133 135 135 132 125 117 104 89 96 125 130 143 145 149 167 163 153 151 146 133 119 113 101 97 108 121 129 132 133 130 133 131 126 122 116 104 76 53 44 26 60 102 109 115 116 123 126 128 129 130 128 122 112 99 85 80 114 129 132 145 145 155 164 163 156 156 145 137 121 124 110 87 93 107 117 124 126 126 129 127 124 121 113 99 76 52 43 28 59 98 101 107 113 117 120 123 124 122 119 109 98 83 75 82 113 117 124 137 143 160 168 162 159 158 144 134 115 124 109 85 86 92 103 113 119 122 123 121 118 114 106 98 75 49 43 28 56 93 97 100 105 110 113 115 115 114 111 99 85 75 79 83 97 103 110 127 136 145 155 150 156 149 138 123 102 109 97 87 85 78 89 101 111 116 117 115 111 107 101 92 68 47 42 28 52 88 91 96 101 104 106 107 108 106 98 88 76 73 86 86 81 80 81 99 116 126 128 129 130 126 111 92 80 83 80 85 89 77 75 86 97 103 106 106 103 97 92 83 62 46 43 30 51 85 88 91 96 98 98 100 99 94 87 76 66 77 89 93 89 65 55 64 83 97 101 101 104 92 70 58 57 67 83 89 91 82 66 71 81 88 94 95 93 89 83 74 55 46 44 32 51 83 86 88 90 91 90 89 87 82 75 62 64 82 93 96 95 78 62 56 61 68 69 74 74 62 53 55 63 81 91 92 94 88 68 60 68 75 81 82 82 78 75 66 52 45 48 34 51 83 84 84 85 84 83 82 79 72 61 60 79 90 98 100 102 95 81 69 61 56 58 59 57 57 64 72 82 93 96 97 99 100 86 68 59 65 70 75 75 73 69 62 47 45 50 32 50 83 84 83 83 84 81 78 73 64 59 75 93 99 102 105 107 106 101 91 75 59 53 53 56 65 81 92 99 102 105 104 105 103 96 83 68 65 67 73 74 73 69 58 46 45 50 34 48 81 83 84 85 89 87 83 73 66 69 85 92 97 101 104 105 102 100 99 95 78 68 68 74 85 94 99 101 103 106 104 105 100 95 89 83 71 74 79 81 76 71 55 45 46 51 32 46 79 82 83 86 89 91 90 84 75 72 74 79 80 78 76 74 72 71 72 73 74 72 74 75 74 73 73 72 72 73 73 73 73 74 76 83 84 88 90 87 80 71 52 45 48 52 31 43 77 81 83 85 92 96 97 96 88 80 72 54 47 50 56 62 61 60 63 60 64 65 63 63 65 62 60 62 56 62 57 51 46 50 72 88 98 102 100 92 81 65 49 46 49 55 31 41 73 79 82 84 90 96 100 104 100 89 90 67 47 46 64 79 92 92 116 88 115 114 89 93 111 102 91 99 80 77 62 44 50 64 92 98 106 108 105 91 77 60 48 47 50 57 33 36 68 75 78 81 86 93 101 106 105 95 96 96 76 46 60 80 107 110 133 120 143 149 135 133 137 127 117 111 94 76 49 43 72 95 100 104 108 111 103 87 71 56 46 48 50 61 32 30 64 71 76 78 82 88 97 104 108 99 94 99 100 78 41 49 93 84 136 114 144 151 143 141 140 127 103 87 69 58 42 68 98 109 98 94 105 108 97 80 65 52 44 50 52 64 33 28 58 67 72 77 79 83 93 101 106 102 96 96 105 102 73 43 54 54 61 61 112 119 109 109 110 90 53 58 65 55 65 94 112 107 101 99 106 103 89 73 59 48 45 53 56 63 33 27 57 61 69 74 77 79 87 96 104 102 95 95 100 110 101 71 57 57 58 55 54 54 51 50 52 53 57 69 75 70 90 100 110 104 101 102 106 96 81 65 54 44 47 54 58 63 33 25 60 57 64 70 73 76 82 90 100 100 98 96 98 107 105 99 80 67 72 70 60 56 53 53 56 64 75 87 82 91 94 105 111 105 103 102 101 90 72 61 49 41 49 56 59 62 35 24 60 58 59 66 70 72 77 85 94 98 96 99 96 101 106 100 103 93 85 101 85 70 64 63 69 79 98 92 95 99 94 107 106 104 104 101 96 82 66 56 44 42 52 58 59 59 36 23 58 63 57 62 68 70 72 78 89 95 95 97 96 100 105 99 99 106 103 97 104 99 92 91 103 98 99 106 102 94 101 105 104 101 101 98 90 73 60 50 41 45 57 62 60 57 36 23 59 68 59 58 64 68 69 73 82 93 94 93 94 97 101 100 93 96 104 114 117 105 105 104 106 109 108 103 97 94 101 101 101 101 98 94 82 65 55 44 41 50 56 63 64 56 37 24 58 71 66 58 60 65 66 69 76 87 91 89 91 92 94 95 96 90 88 93 99 104 108 110 107 99 96 92 90 94 90 95 97 97 93 87 74 59 49 40 46 52 57 63 64 54 36 25 58 75 71 63 58 62 65 67 71 81 89 83 89 90 88 90 89 88 85 84 85 85 86 84 87 87 89 86 85 83 85 92 92 94 87 79 64 53 43 39 50 53 57 62 60 54 35 25 58 75 76 71 60 59 63 65 68 73 84 82 84 88 86 82 83 80 78 78 78 80 81 78 80 80 77 75 76 78 85 89 93 90 81 71 57 47 37 44 51 52 57 61 61 53 34 27 61 75 79 75 66 58 60 63 65 68 77 84 81 84 84 81 78 74 73 72 69 68 68 69 67 67 69 71 75 79 84 91 91 84 75 62 51 39 37 49 53 51 59 61 61 55 35 39 66 76 80 79 73 63 56 60 64 65 70 80 83 82 86 80 76 73 69 66 64 64 64 64 64 65 70 75 78 84 90 96 88 78 69 53 42 35 43 51 55 51 59 60 58 53 34 47 71 78 81 81 77 70 60 54 60 63 65 73 82 83 87 90 83 76 75 73 68 66 65 64 70 74 79 82 87 95 102 95 85 75 58 44 36 37 47 54 52 55 60 60 57 53 33 48 77 74 81 83 80 76 67 56 53 58 62 65 76 84 88 96 98 93 89 86 86 86 83 86 88 95 97 103 109 112 102 91 79 64 47 37 36 40 51 53 50 59 59 61 57 53 32 48 78 77 78 82 83 80 74 64 54 51 56 60 65 78 86 94 104 108 109 108 110 111 113 114 119 121 122 123 118 111 97 82 70 50 37 36 36 46 53 51 51 60 60 62 55 52 32 55 86 84 81 80 84 82 79 71 62 52 48 54 58 65 78 86 98 108 117 122 124 127 132 129 129 129 126 121 110 98 82 72 54 39 36 35 39 52 54 50 53 60 61 61 56 52 31 57 93 92 85 82 83 84 83 76 68 59 50 46 51 55 65 77 84 96 107 117 121 123 124 125 122 119 114 104 92 79 69 56 40 35 35 35 47 52 52 52 53 59 61 62 55 51 31 58 96 106 102 85 89 83 83 80 74 66 58 49 45 48 52 61 70 77 87 97 104 110 110 107 102 97 89 82 71 63 53 40 35 34 34 40 49 52 50 52 54 58 59 62 55 50 30 32 52 67 68 60 53 50 52 51 47 44 39 34 30 27 29 31 36 39 43 49 53 56 57 56 52 48 43 39 35 31 25 22 22 21 22 27 32 31 30 32 34 37 36 38 34 31 19 