P2
48
60
255
36 54 55 59 63 65 66 66 70 69 70 74 78 82 83 82 86 87 86 87 88 88 87 88 87 86 86 85 83 82 81 80 83 80 80 78 76 78 77 76 78 73 70 67 64 60 51 21 55 87 91 97 101 103 107 112 114 116 119 125 131 136 137 137 142 142 144 144 143 143 144 143 143 142 139 138 136 134 133 131 132 131 129 130 126 126 124 123 125 121 113 109 104 96 85 40 54 88 94 102 103 105 111 116 119 122 127 136 142 142 144 143 145 145 142 142 146 145 145 147 146 146 142 144 140 136 135 137 139 137 135 131 130 129 127 127 126 122 115 106 103 99 93 47 54 90 99 105 108 112 113 118 122 127 129 138 144 145 149 150 153 153 149 147 148 146 146 148 149 147 148 146 143 145 144 144 146 146 143 138 135 135 130 129 127 127 117 109 105 100 93 51 55 92 101 109 116 117 115 115 123 123 123 134 146 149 152 154 156 152 154 151 148 148 150 151 149 149 152 154 148 149 151 152 151 147 144 139 134 134 133 130 128 128 122 110 103 102 96 50 54 95 103 107 100 97 96 94 103 97 94 98 122 141 145 145 148 148 154 156 155 154 154 152 154 154 156 157 150 151 150 152 146 136 133 120 121 117 111 114 119 125 125 115 104 101 96 53 56 95 99 76 68 73 73 73 70 57 48 53 70 95 117 126 135 139 147 157 158 159 155 153 155 157 156 150 142 138 122 112 89 80 67 74 74 79 83 78 75 82 110 117 106 101 98 56 57 93 68 61 60 55 57 47 44 46 55 53 52 58 71 94 112 122 134 148 150 153 152 152 151 148 143 139 122 90 80 65 61 54 62 66 64 66 62 69 69 64 74 99 108 101 100 58 53 71 55 49 47 51 50 53 64 74 84 80 71 70 71 71 83 105 124 137 140 142 147 147 145 142 129 119 103 82 77 69 74 78 80 68 61 64 69 70 63 55 56 65 82 98 101 59 49 63 60 60 59 68 80 96 109 113 112 111 104 93 85 85 89 98 111 121 127 134 139 140 139 137 128 112 102 93 84 83 93 101 101 101 102 103 104 101 88 71 51 61 64 81 94 59 48 76 77 76 87 98 110 118 124 126 124 120 117 110 103 100 100 99 99 111 122 129 132 136 136 132 120 109 107 101 99 106 114 117 119 120 124 124 122 120 111 97 82 81 80 87 94 58 53 82 85 92 98 107 114 120 131 130 126 120 119 119 115 111 107 103 99 104 116 125 127 130 132 129 119 109 105 105 110 115 118 121 122 127 126 126 124 122 118 107 95 93 93 94 93 58 53 85 88 96 102 105 109 115 121 125 123 117 118 118 118 116 109 106 103 99 108 123 130 129 129 126 118 108 107 107 109 108 110 115 122 123 124 129 128 122 115 111 104 99 93 94 93 58 54 88 90 94 98 98 95 87 85 96 98 93 90 99 111 113 110 105 103 96 102 117 127 129 130 124 115 107 102 101 101 105 106 99 88 86 89 92 98 100 106 104 98 100 97 95 99 59 56 88 86 86 86 68 66 63 48 41 50 51 73 81 86 100 102 104 104 98 101 116 131 134 134 125 112 104 97 94 97 93 75 59 47 53 38 43 52 67 68 81 95 96 94 96 102 61 57 87 81 69 56 60 42 39 36 26 29 26 35 49 64 85 96 100 104 103 103 116 136 140 139 126 113 106 93 87 85 72 55 53 28 35 27 36 41 44 50 64 62 82 93 94 104 64 57 86 73 63 52 42 49 75 61 31 29 30 41 99 83 56 92 112 112 110 104 115 133 141 138 127 118 108 95 96 81 52 84 106 43 31 31 33 73 90 54 44 60 70 84 95 107 66 57 86 76 69 73 75 87 92 93 70 59 57 87 115 107 88 80 114 124 116 108 120 140 144 147 133 116 118 117 109 83 89 104 111 99 60 55 80 103 100 98 84 77 73 85 95 105 66 66 103 98 89 92 97 107 115 120 119 117 117 118 118 117 122 120 114 124 112 111 123 143 148 147 135 116 117 119 107 116 119 114 112 115 108 109 119 120 120 112 104 101 100 101 108 111 66 70 111 110 101 94 99 104 112 117 120 119 120 118 114 115 117 118 123 125 108 112 126 142 143 145 137 119 115 125 116 116 112 109 107 109 114 116 119 118 114 110 107 105 111 114 117 115 71 72 122 121 115 107 107 107 111 114 113 117 113 105 106 108 120 129 130 116 109 113 128 148 147 152 140 122 116 129 129 124 115 108 108 111 115 114 111 111 112 115 120 120 121 123 119 115 71 74 126 132 131 126 123 122 121 117 114 110 109 106 113 124 134 136 125 115 116 121 130 148 150 152 140 131 126 126 135 136 133 122 112 111 116 118 118 123 124 125 128 132 135 134 123 120 70 74 128 134 136 138 138 138 136 130 128 125 125 131 136 141 141 139 128 123 124 124 134 146 146 148 137 134 131 131 138 141 138 135 133 118 113 117 119 122 130 133 138 137 136 137 126 121 69 75 129 135 136 144 146 146 140 138 138 139 145 149 145 146 142 142 131 124 121 123 132 144 148 149 138 132 135 140 142 143 144 139 142 137 136 137 134 134 137 135 142 141 144 139 131 123 71 74 124 133 137 148 150 144 145 146 142 145 146 151 151 149 145 136 128 120 119 125 133 144 146 147 139 132 128 135 141 143 146 146 145 143 145 141 139 138 140 144 147 147 149 143 133 122 73 73 122 132 135 140 148 147 149 146 146 150 151 150 152 152 141 128 120 113 118 126 139 144 146 144 139 129 125 130 143 146 149 149 145 146 141 143 139 141 143 144 148 147 147 144 130 122 72 69 119 127 132 141 144 146 146 144 142 150 150 152 151 149 132 120 108 109 118 132 146 148 149 147 140 128 118 123 140 147 148 150 149 144 145 144 144 144 141 145 144 144 141 134 127 120 68 63 109 120 125 136 146 153 148 150 151 155 149 149 150 141 125 108 99 107 120 139 161 158 152 152 146 132 115 112 126 138 144 151 151 148 149 150 149 149 150 145 142 142 140 133 127 115 66 52 98 115 123 132 139 140 151 153 152 153 149 152 144 133 110 95 102 116 123 134 154 152 149 155 151 132 119 104 110 128 133 142 149 151 150 152 151 153 151 151 143 144 136 122 124 113 65 57 107 113 121 131 134 138 146 149 150 151 149 147 140 123 95 100 124 130 116 120 129 132 134 136 133 139 138 131 111 114 127 133 141 143 148 148 150 147 144 141 139 131 129 118 116 112 64 62 107 109 111 123 130 134 140 143 144 146 146 145 136 108 94 115 128 113 91 99 110 116 117 115 110 118 137 142 128 109 126 134 139 143 144 145 147 146 143 135 135 134 124 122 115 108 61 61 103 108 110 119 122 130 138 141 143 144 142 139 119 96 97 109 103 45 28 69 91 93 94 96 79 52 74 116 124 105 111 130 132 137 136 136 138 141 136 135 132 128 120 113 108 102 61 60 96 103 109 117 121 127 128 132 137 137 137 133 110 104 95 97 99 52 20 31 60 67 70 71 45 18 35 93 107 100 102 130 126 128 129 124 130 134 138 135 126 122 114 112 106 102 64 55 96 97 107 112 119 127 132 130 129 133 136 133 123 114 96 90 98 98 90 83 93 81 92 99 103 88 94 100 98 93 111 136 135 127 124 126 130 132 132 129 126 117 112 110 102 99 59 58 95 98 102 108 114 123 131 131 130 133 136 137 131 132 122 100 87 99 116 105 108 109 114 115 114 118 113 98 98 117 136 140 140 130 122 121 123 126 115 118 121 115 104 109 100 97 57 62 99 100 102 109 112 121 123 125 125 130 131 134 129 133 137 131 122 113 111 106 111 117 117 114 114 118 116 120 127 133 133 138 138 134 125 122 123 127 125 127 123 113 108 103 98 96 58 62 99 101 103 106 112 117 125 124 122 129 132 133 127 126 125 118 116 114 112 109 116 115 111 114 119 119 115 121 122 124 124 133 135 139 135 123 122 124 126 121 115 115 107 102 101 97 57 60 98 102 102 107 111 119 119 119 122 128 129 126 123 117 117 111 108 107 111 111 122 118 111 109 122 120 114 114 116 118 120 125 128 138 137 127 120 125 127 124 123 116 109 104 102 92 56 58 94 102 102 107 112 117 117 116 119 123 123 117 113 116 113 111 109 107 112 120 135 135 119 122 129 127 120 120 116 116 119 119 119 130 131 130 122 120 129 127 122 116 113 105 101 93 54 59 93 100 105 107 113 117 114 114 107 112 113 116 109 111 115 113 111 115 109 94 92 106 119 118 100 93 106 123 124 120 120 116 117 125 126 125 121 124 126 126 123 117 113 107 101 94 56 59 92 96 103 107 112 114 113 105 102 106 110 110 104 110 115 115 106 87 80 82 84 85 91 92 83 85 86 89 106 122 120 114 114 120 120 114 112 117 132 126 121 118 108 104 98 94 57 57 94 94 96 103 109 110 105 100 98 100 105 101 99 104 90 78 72 72 76 81 78 78 78 83 83 85 77 78 78 78 97 106 106 110 109 108 111 116 126 122 118 110 106 101 94 93 57 57 90 93 94 102 105 113 110 98 95 89 89 88 78 61 47 48 56 57 50 55 58 60 59 59 62 57 53 60 62 61 57 77 92 95 102 101 110 116 124 121 118 109 105 101 94 91 55 56 91 91 91 94 103 108 108 98 91 83 77 73 67 60 52 53 64 62 66 66 58 52 48 49 53 50 44 37 39 46 45 50 72 79 89 96 105 111 120 121 113 104 100 97 91 92 54 56 91 88 88 89 98 107 110 102 96 89 90 91 94 103 104 97 93 87 107 108 103 100 99 101 102 97 100 95 94 88 92 101 92 86 87 92 100 109 119 114 104 100 97 93 93 90 54 52 86 87 87 87 91 96 103 100 96 98 101 106 103 92 92 94 95 93 101 105 112 109 111 112 116 114 107 99 100 109 104 104 100 101 95 97 103 108 111 101 98 98 96 93 91 85 50 48 83 84 85 82 83 85 93 97 96 104 112 113 114 99 97 90 88 94 106 110 110 108 107 105 107 103 106 104 94 97 103 106 104 111 105 99 100 106 103 98 90 93 91 91 84 82 47 47 76 80 82 81 77 79 83 86 96 105 111 112 114 111 103 96 85 79 79 80 81 79 77 79 84 92 99 98 94 91 103 111 110 112 110 106 100 100 96 92 91 90 90 86 79 76 47 44 72 74 76 77 75 74 74 82 90 96 102 106 111 100 102 104 94 84 76 69 61 54 52 54 60 71 81 81 85 89 105 106 107 110 107 105 97 91 89 87 87 85 85 82 74 73 47 44 69 72 74 73 72 71 75 80 88 95 101 102 106 107 106 109 104 100 95 89 87 87 82 79 78 79 80 80 89 95 97 102 102 109 109 102 94 85 83 83 84 85 82 76 70 74 80 46 66 67 70 70 71 72 75 79 84 94 100 105 106 108 111 115 114 108 106 105 100 94 98 99 101 103 102 98 101 108 103 107 109 109 107 102 92 86 82 82 81 79 73 72 69 113 133 52 68 60 63 66 68 71 73 75 81 91 97 102 106 108 110 113 116 113 108 97 102 100 99 98 104 105 109 109 109 114 111 109 107 111 105 98 87 85 81 79 79 74 70 67 88 199 138 54 74 59 58 61 65 67 71 73 80 89 98 105 106 109 111 116 121 120 119 113 118 122 118 110 114 117 118 115 117 115 114 109 110 104 101 98 89 82 81 76 72 68 66 85 194 223 138 54 78 67 54 55 58 63 65 69 76 83 93 103 105 108 113 119 122 127 127 121 123 124 121 120 124 126 130 125 117 109 107 105 106 104 102 94 85 77 73 68 65 63 68 174 223 224 138 51 81 74 62 54 51 53 58 62 69 78 89 96 103 106 111 114 125 124 127 122 118 116 108 118 123 131 128 121 118 111 108 98 104 105 97 85 75 67 65 60 60 63 84 214 223 224 138 44 79 77 72 62 53 51 51 55 59 69 76 87 97 103 105 104 115 122 124 124 116 112 107 109 118 122 118 113 111 108 104 97 94 93 83 72 65 62 59 58 60 70 111 223 224 224 138 32 76 79 75 71 57 55 52 50 52 57 67 75 85 90 95 95 102 106 113 118 116 110 109 112 114 115 111 109 102 101 94 91 85 78 69 62 60 59 59 62 73 79 140 220 225 224 139 22 72 76 76 72 68 56 58 56 51 50 54 65 74 78 86 87 89 93 100 101 107 105 106 106 101 106 104 97 95 86 83 83 74 67 59 57 57 58 61 73 81 101 163 209 224 224 139 30 59 78 74 76 72 64 61 61 57 53 49 48 59 66 70 72 76 80 86 90 91 95 99 99 97 94 91 81 74 69 74 70 62 56 55 57 59 63 72 82 94 162 170 196 224 224 138 32 27 47 46 46 45 42 38 38 38 35 31 29 27 33 36 37 37 42 45 48 49 52 54 54 54 52 46 41 40 41 40 35 32 33 35 35 37 43 47 50 78 110 109 117 138 138 86 