P2
48
60
255
22 37 38 39 40 41 43 45 46 47 48 50 51 52 53 53 54 54 55 56 57 59 59 60 59 59 57 58 58 58 57 60 59 57 56 56 54 55 52 53 53 50 47 46 44 40 35 20 36 60 60 62 64 65 69 74 74 75 77 77 81 83 86 86 87 88 91 93 94 95 95 96 96 93 92 93 92 93 92 92 92 91 92 89 88 90 87 86 86 83 77 75 72 65 57 33 37 60 61 62 64 66 69 72 73 75 76 77 80 85 88 89 90 91 94 96 96 97 96 95 94 93 92 92 95 95 96 94 93 90 89 89 87 88 88 87 85 83 80 75 75 69 60 33 36 60 60 62 63 66 68 70 73 75 78 79 84 89 92 92 91 95 97 99 99 98 97 96 95 93 93 96 98 98 97 98 96 94 91 90 90 87 86 86 84 84 81 78 74 72 64 35 37 61 61 62 64 66 66 70 74 75 78 83 88 92 95 96 96 97 100 101 100 99 97 96 95 94 98 101 102 104 104 102 100 97 94 92 89 88 85 84 84 83 82 78 74 75 71 38 37 61 61 63 64 64 66 68 72 74 79 86 94 99 101 100 100 102 104 106 105 104 100 100 99 102 105 106 109 107 108 106 104 98 94 90 86 84 82 84 82 83 80 78 78 77 74 44 38 61 62 62 63 63 62 62 67 73 81 86 95 99 101 103 104 105 107 108 108 108 104 104 104 106 107 108 110 110 117 120 110 101 93 83 80 76 79 78 80 79 81 79 78 78 76 46 38 61 61 61 61 59 56 57 61 64 69 72 80 87 92 97 100 104 106 108 109 110 106 106 108 108 108 108 109 110 115 115 110 91 76 66 74 76 76 76 76 77 76 78 78 79 76 47 38 61 60 60 57 57 55 54 53 53 55 56 61 70 80 89 93 101 104 106 109 110 107 110 110 109 110 105 104 102 100 82 71 65 64 58 60 63 70 77 75 71 73 74 76 79 77 47 38 60 59 58 59 58 56 55 54 53 52 52 50 54 62 74 84 94 98 101 106 107 108 112 110 109 106 100 92 83 74 69 69 63 65 71 75 73 73 75 74 75 70 72 74 78 79 48 39 61 59 60 58 58 61 64 67 69 64 61 60 58 57 57 66 81 92 97 104 106 108 110 110 108 103 98 85 81 78 81 80 80 92 95 96 94 87 82 79 77 73 72 73 77 80 49 39 62 60 61 61 65 70 77 87 88 86 82 79 80 78 72 68 75 84 94 99 103 107 111 111 105 98 97 89 88 92 92 91 94 95 97 102 104 97 89 85 83 81 77 75 77 80 50 38 62 62 61 64 68 75 83 93 93 93 93 90 89 89 87 82 80 83 91 96 101 107 113 114 111 102 99 96 95 96 95 95 95 96 97 102 110 101 93 89 86 85 83 79 80 81 50 39 64 63 63 66 71 77 82 84 85 87 90 91 91 91 90 88 85 82 89 94 99 106 113 119 116 109 104 98 94 94 94 93 83 76 76 82 91 90 87 88 89 88 88 83 82 81 50 40 65 64 64 66 69 70 69 68 61 60 63 75 84 87 89 88 85 80 83 88 95 104 111 117 115 110 106 96 91 93 90 75 59 49 44 46 57 63 72 83 85 89 91 88 85 83 51 41 66 65 63 62 59 49 53 57 50 45 72 59 66 80 83 86 81 76 76 81 93 100 107 112 109 106 106 96 89 89 81 62 64 53 47 93 58 95 64 60 78 84 90 92 89 85 52 42 66 64 61 56 52 54 64 65 45 43 57 66 98 64 84 85 80 72 70 74 86 94 104 106 104 103 103 101 90 88 75 67 75 49 45 52 62 108 86 66 65 78 89 93 92 89 54 42 67 65 59 57 58 58 64 70 55 49 50 84 90 65 79 90 78 68 65 69 81 92 101 101 100 100 98 105 93 91 69 70 78 69 51 56 85 89 78 78 75 76 86 93 93 91 56 43 68 67 61 60 63 67 73 75 73 70 71 78 84 86 83 94 75 65 64 69 82 90 98 100 99 98 95 99 95 94 82 80 76 75 76 83 92 99 98 89 82 80 85 94 93 93 56 43 70 67 65 65 67 71 77 82 84 83 80 80 83 88 91 88 72 65 66 70 82 90 94 99 97 97 96 93 97 94 92 84 79 80 87 97 114 114 104 95 91 90 88 92 95 94 57 44 71 69 68 70 74 75 78 81 83 83 83 85 88 91 91 82 71 66 65 70 80 91 94 99 96 96 96 95 99 98 93 90 88 89 92 94 99 100 101 100 99 96 94 93 95 94 58 44 71 71 72 75 78 81 83 86 87 88 88 92 94 94 88 80 70 65 66 69 80 91 94 97 95 97 96 97 99 103 100 95 95 98 102 105 109 110 108 107 105 101 97 96 96 93 57 44 71 73 75 80 81 83 87 89 90 91 92 94 96 95 89 80 69 67 67 70 79 93 99 99 96 97 96 98 99 106 108 102 100 100 103 111 117 118 114 111 108 104 98 97 97 94 57 44 72 75 79 82 85 87 89 89 90 92 94 97 96 92 87 77 69 68 68 70 79 92 99 100 97 95 96 99 98 105 109 107 105 105 104 109 117 120 119 112 110 105 102 101 98 95 57 44 73 77 83 86 91 91 91 91 92 93 94 96 94 90 84 75 69 68 68 70 81 93 97 99 96 94 95 98 98 102 108 110 111 109 109 108 113 118 121 118 113 110 105 104 99 96 58 44 75 79 84 87 92 93 94 97 96 96 95 95 93 88 81 72 68 67 68 72 82 93 99 101 98 94 94 96 98 101 107 110 112 112 110 112 115 117 119 119 113 111 108 107 103 98 59 45 75 79 84 87 92 94 95 100 98 97 98 95 92 88 80 70 67 67 69 76 88 98 103 103 101 97 91 93 97 105 108 112 113 114 112 114 115 117 121 122 122 115 109 108 105 100 58 44 75 79 83 86 91 95 97 100 98 97 99 96 92 87 79 68 66 67 69 80 95 104 103 103 104 103 94 87 91 106 113 114 115 114 116 115 116 116 121 123 127 121 113 108 106 102 59 44 73 79 81 87 91 96 101 100 99 101 101 98 93 86 74 65 68 70 72 81 95 108 106 107 112 108 100 93 89 97 117 114 114 115 115 115 117 118 126 129 129 122 114 108 106 101 61 44 73 77 81 86 90 95 100 100 100 103 103 102 93 81 67 67 74 75 74 82 96 109 108 122 137 114 105 101 98 93 109 113 114 117 113 116 119 122 126 132 136 122 113 105 104 102 61 43 72 74 78 84 88 94 97 102 103 103 104 103 92 74 66 72 79 82 74 79 88 97 106 116 119 107 105 110 107 98 101 108 111 113 115 119 121 123 126 127 133 119 110 102 102 99 60 43 70 73 76 82 86 93 96 100 102 103 105 104 95 74 67 74 84 78 57 70 82 95 103 107 107 97 73 92 109 102 101 106 110 110 113 117 119 126 127 130 127 117 111 106 103 98 59 43 70 71 74 81 85 91 96 98 99 102 105 106 98 83 71 72 86 68 47 51 71 89 98 101 97 74 60 64 96 101 101 107 109 109 110 117 120 124 130 132 126 118 110 103 101 98 60 44 70 71 73 77 83 88 93 95 96 101 106 105 101 93 84 72 73 73 71 74 66 73 86 94 98 104 107 92 90 94 103 108 109 109 112 118 118 119 126 127 124 116 108 103 98 96 59 44 71 72 73 76 82 86 91 92 96 100 105 104 98 95 92 87 82 78 79 84 88 89 96 105 108 111 109 100 96 99 105 110 112 110 110 115 117 120 123 121 121 112 106 103 99 98 59 45 71 72 73 75 79 83 88 90 96 98 101 100 97 94 90 89 87 85 86 85 89 96 106 110 108 104 105 102 100 105 107 109 112 113 113 115 118 118 119 119 114 107 106 102 100 99 59 46 72 73 73 74 79 83 86 90 94 98 98 97 94 91 88 86 83 85 86 84 87 94 100 106 106 102 100 103 103 107 108 108 109 113 110 114 113 115 113 114 113 107 104 100 100 99 59 46 73 73 73 75 77 83 84 89 91 92 95 94 91 85 86 83 77 77 80 82 86 95 96 98 101 103 101 99 100 102 107 108 108 110 110 111 111 113 111 111 110 106 103 102 99 97 57 47 73 73 73 75 76 82 85 89 89 89 92 92 88 82 79 78 75 76 79 81 87 96 94 96 102 102 99 96 95 95 103 104 105 106 107 105 108 109 110 109 107 105 103 101 99 97 58 48 73 73 73 74 76 80 83 86 87 87 89 89 83 76 73 75 73 76 78 79 90 95 94 93 98 99 99 99 94 94 97 100 98 102 103 105 106 106 105 107 107 104 104 102 100 97 58 49 75 74 74 74 77 79 80 84 84 85 88 86 80 72 72 74 73 77 80 78 84 97 97 97 101 97 100 99 96 97 96 91 91 95 98 103 104 104 106 108 108 106 105 103 102 97 58 53 77 74 75 76 77 79 80 83 83 83 87 83 78 72 71 72 74 75 68 66 69 76 87 86 79 77 78 87 97 99 97 95 88 90 92 100 103 104 104 106 105 106 104 103 100 96 58 56 79 75 74 76 77 78 80 81 82 83 87 84 80 72 70 71 71 64 63 65 65 65 70 74 74 75 74 72 74 87 93 93 91 88 86 95 101 103 103 105 104 105 104 103 101 96 56 64 83 76 75 76 76 77 79 80 82 84 86 86 85 75 68 53 53 57 61 62 63 61 63 68 67 68 67 68 68 66 70 68 82 87 90 98 102 105 104 102 103 105 103 104 99 95 56 82 88 79 75 76 76 76 78 79 81 85 88 86 87 80 71 59 57 63 71 78 83 83 82 82 86 87 86 81 78 72 69 72 79 85 96 102 105 105 104 101 103 105 106 105 99 94 55 123 100 81 77 76 76 75 76 78 80 86 90 89 88 85 74 64 60 61 65 74 80 88 86 89 97 98 89 79 75 77 85 88 91 93 97 103 107 104 102 102 104 105 104 101 98 93 56 151 128 85 79 76 75 75 74 76 78 84 88 89 87 87 79 68 64 64 66 70 75 78 80 84 89 89 84 80 81 87 91 95 96 97 100 104 108 105 103 102 103 104 102 101 97 92 56 157 186 94 81 77 75 74 74 75 77 83 87 85 87 86 82 75 70 67 67 69 72 73 76 79 82 83 84 86 91 95 98 100 100 101 103 103 106 106 103 102 102 102 101 99 95 90 56 158 239 121 84 78 74 74 74 74 76 82 83 83 84 84 83 77 80 74 71 70 72 75 75 77 77 80 88 91 96 99 103 102 102 103 103 104 104 102 102 100 99 99 98 96 92 90 56 158 254 173 100 80 74 73 73 73 74 79 82 83 84 81 82 81 82 82 82 83 85 88 84 87 88 90 95 97 99 102 103 102 102 103 101 102 102 101 100 97 98 96 97 93 90 90 56 158 255 216 125 92 76 72 72 72 73 78 80 81 83 81 80 80 82 84 86 87 88 92 89 92 92 92 94 97 101 102 103 102 102 101 99 101 101 99 98 96 97 96 95 92 89 91 59 158 255 234 147 119 85 74 71 71 72 74 78 80 80 78 79 80 82 84 87 86 87 87 88 89 90 92 96 100 99 102 101 100 100 102 102 103 101 99 97 95 95 94 93 89 89 93 58 158 255 239 133 125 113 80 72 70 70 72 75 77 78 79 78 79 81 83 85 87 90 91 91 93 91 94 98 102 103 104 102 104 101 103 104 103 100 98 95 94 94 93 91 89 92 92 55 158 255 243 120 101 115 102 77 71 70 71 72 74 77 78 78 79 82 84 84 90 94 95 96 97 96 98 100 106 108 107 107 104 102 101 102 100 97 95 92 92 94 90 89 90 90 87 54 158 255 245 113 87 88 98 87 73 70 70 71 71 73 77 77 78 82 84 82 86 92 96 97 97 99 103 105 106 107 109 106 104 103 100 100 96 93 91 89 91 90 88 89 89 85 85 53 158 255 246 106 80 75 78 82 78 71 70 70 70 71 73 75 77 80 82 83 85 89 93 96 97 97 98 103 106 107 106 103 102 101 98 97 93 90 89 89 89 90 89 88 84 82 85 54 158 255 248 104 76 72 71 73 73 73 71 70 70 70 71 74 75 78 79 80 83 85 89 92 95 93 94 97 103 106 102 103 101 97 96 92 91 89 88 88 87 88 87 84 82 84 86 54 158 255 251 108 74 71 71 71 70 72 72 71 70 71 71 72 73 76 76 76 80 80 83 89 90 90 91 92 95 95 98 98 99 96 94 90 88 87 87 85 86 86 83 82 84 86 87 54 158 255 253 122 74 71 70 70 70 70 71 72 72 71 70 71 71 73 74 75 77 80 82 84 83 85 86 86 87 89 91 92 92 94 91 89 87 86 86 85 86 84 82 84 87 88 88 54 98 158 157 84 46 44 44 43 43 43 43 44 44 44 44 44 44 44 46 46 46 49 49 48 50 52 51 52 54 54 55 55 56 57 55 53 53 52 53 53 52 51 53 54 55 55 54 33 