P2
48
60
255
20 32 33 31 30 28 26 25 26 27 29 33 32 30 31 30 31 31 31 33 33 34 33 34 35 35 36 38 41 39 40 40 39 41 39 38 36 38 37 37 35 35 36 37 37 36 34 20 31 49 51 48 46 44 41 40 40 44 47 50 50 49 49 47 47 47 48 51 54 54 53 55 56 56 59 60 64 64 68 64 64 65 63 61 60 62 59 59 56 57 57 58 59 58 56 33 28 48 48 47 43 45 40 40 39 43 46 46 48 50 49 46 46 44 47 50 51 53 52 57 55 55 57 62 63 66 68 65 60 63 61 59 59 59 57 58 56 59 56 58 59 60 55 33 27 47 45 45 41 44 39 38 39 43 47 45 46 50 51 45 46 43 47 48 49 51 52 55 55 56 57 61 63 67 68 65 56 56 57 57 57 56 54 56 58 60 58 58 59 60 55 33 27 46 43 43 40 42 38 38 39 43 46 44 44 53 53 46 45 43 45 47 47 49 54 54 53 55 57 59 63 67 68 63 54 55 54 57 56 53 53 55 62 61 57 59 60 61 57 32 27 43 42 41 39 41 38 38 38 43 45 43 44 53 54 47 46 42 43 45 44 49 53 53 54 56 58 58 61 66 66 61 53 53 53 58 53 52 53 57 65 61 57 59 59 60 56 32 27 41 42 40 39 40 38 38 39 43 44 43 45 53 58 46 46 44 43 44 43 49 52 53 52 54 58 59 60 63 61 58 51 51 57 60 52 51 52 60 65 58 58 58 58 60 55 33 26 41 41 40 39 39 37 37 39 43 43 43 47 54 58 48 46 44 43 43 44 48 51 50 51 54 56 57 60 59 59 56 51 50 54 56 50 49 52 59 60 59 60 57 57 60 56 36 25 40 40 39 39 39 37 38 40 42 43 43 48 54 53 48 47 43 43 43 46 46 49 48 52 53 56 55 57 56 56 54 51 51 47 48 48 48 51 53 54 55 56 55 58 59 58 39 25 40 40 39 40 39 37 38 38 40 41 42 44 47 47 45 46 45 43 43 44 46 48 49 52 54 54 54 54 51 49 46 44 43 45 46 47 49 50 52 52 54 53 54 55 57 62 40 25 40 40 39 39 39 38 39 39 41 43 43 43 44 44 44 46 45 44 44 44 47 48 50 52 53 53 52 50 48 46 45 46 47 50 52 53 51 55 54 54 53 54 54 54 56 63 40 25 40 39 40 40 40 38 40 42 43 46 48 48 45 44 44 46 45 43 44 46 48 49 51 53 55 55 52 50 49 49 49 51 54 57 58 59 57 57 57 54 54 56 57 55 58 63 40 25 41 39 40 42 40 39 41 43 46 51 51 48 43 42 43 42 42 43 45 47 49 52 55 58 60 57 54 51 49 50 52 55 57 59 59 59 61 59 54 56 57 58 57 57 61 64 41 26 42 39 41 42 39 40 42 46 51 52 52 51 48 47 48 48 48 49 50 52 56 60 63 66 64 60 55 50 49 51 52 52 53 52 52 54 56 53 53 56 57 57 57 58 61 65 42 27 41 41 42 41 39 40 42 46 49 48 47 47 47 47 49 51 54 57 60 63 69 71 72 70 68 61 53 48 49 50 51 50 44 45 42 44 47 51 53 51 52 55 56 57 60 65 42 26 41 43 43 40 39 40 43 43 40 45 38 39 43 47 50 50 55 61 67 73 78 78 79 77 70 62 53 49 53 50 52 64 54 60 40 41 44 45 47 51 53 52 55 57 60 65 42 27 45 45 42 39 41 40 41 44 42 52 37 40 46 52 48 56 63 65 71 77 85 88 86 82 73 65 56 56 54 50 65 74 53 46 41 44 48 51 47 48 54 56 56 58 62 65 43 31 48 45 42 43 41 41 50 58 46 41 39 47 50 58 55 63 71 69 75 81 89 93 90 82 76 69 61 64 59 62 65 71 67 52 51 50 53 59 56 53 53 56 57 60 65 68 43 32 49 48 47 46 47 49 56 65 66 55 51 54 61 61 64 69 75 73 78 83 89 93 91 84 79 73 67 67 69 69 69 71 71 66 64 62 58 59 58 61 60 61 61 64 68 70 44 39 61 57 56 58 61 62 61 60 64 63 66 65 65 63 65 74 77 77 81 85 89 90 90 85 80 75 72 70 71 71 69 70 71 69 67 67 67 68 69 70 69 70 68 68 72 74 46 45 70 66 68 69 73 74 73 72 69 66 66 65 64 65 71 79 80 81 83 86 90 89 88 84 81 79 76 73 75 77 78 75 73 71 71 73 74 75 77 78 76 74 72 72 75 78 49 48 75 75 75 76 78 78 77 76 75 72 70 71 74 78 81 83 81 82 83 86 89 90 88 81 80 79 78 77 79 82 84 84 83 81 80 80 81 83 83 83 83 80 77 75 76 79 50 49 78 79 79 80 81 82 82 80 81 80 81 82 84 85 85 84 85 86 83 87 89 90 89 83 78 77 80 80 80 82 86 88 87 88 87 87 89 88 89 90 88 85 83 79 76 77 49 49 80 81 82 84 86 86 86 85 86 85 87 88 88 89 86 86 86 85 83 87 90 90 88 83 77 74 77 81 83 83 86 87 87 88 89 89 89 90 90 91 90 86 84 82 79 77 49 48 81 82 84 86 89 88 88 89 87 88 89 89 90 89 88 88 84 82 85 88 89 90 88 83 78 74 75 80 84 84 87 88 87 89 91 91 90 91 90 92 89 86 84 82 80 78 48 48 79 81 84 88 90 92 91 91 89 90 91 90 91 92 91 85 80 80 86 90 92 93 92 85 78 74 74 75 77 83 86 89 91 87 91 93 93 92 91 93 90 86 83 80 80 78 47 48 78 80 84 88 90 92 92 90 91 92 93 92 93 92 85 80 80 81 87 93 97 95 95 87 77 73 73 74 72 77 85 90 92 93 93 94 95 93 93 91 89 85 82 80 79 79 48 46 77 79 84 87 88 91 92 93 93 94 95 95 94 87 81 82 81 80 84 92 94 90 86 80 75 74 74 75 73 70 79 87 92 94 93 93 94 94 92 90 88 84 80 78 78 78 47 46 76 78 82 86 88 92 92 94 94 95 96 95 89 83 79 84 82 78 77 81 83 81 77 72 69 71 72 75 75 70 74 83 90 93 91 92 94 92 91 88 85 83 79 78 77 77 47 46 75 77 81 85 85 90 93 94 95 94 95 92 86 80 77 82 80 75 71 74 75 72 67 64 62 64 68 73 74 71 69 82 88 91 92 91 91 91 90 87 85 82 80 77 76 76 47 45 75 78 81 84 86 89 92 94 94 96 93 89 83 77 73 78 71 56 48 60 67 62 60 57 47 43 52 65 70 67 65 79 87 90 90 89 88 88 90 86 84 81 79 76 77 76 47 45 74 77 79 82 85 89 91 91 91 92 90 85 80 75 76 76 64 57 64 69 68 60 59 52 48 48 49 57 63 66 69 79 85 88 88 87 85 86 87 85 83 79 77 76 76 75 46 44 74 74 78 81 83 85 88 89 90 91 87 83 78 77 85 84 76 71 73 74 70 62 59 58 59 60 57 58 69 80 81 83 86 90 88 87 85 85 83 83 80 78 75 75 75 75 46 44 73 74 77 79 81 83 83 86 87 87 85 82 79 82 88 87 84 82 83 82 77 72 73 74 77 78 79 82 86 88 88 89 89 91 88 86 84 82 81 79 78 77 75 74 73 73 46 44 72 74 75 78 80 79 81 86 84 86 84 83 83 88 90 85 82 82 85 85 84 84 88 87 85 84 85 87 89 89 89 90 90 91 89 85 83 80 79 77 77 75 74 73 73 73 46 44 72 72 75 77 77 78 80 81 84 85 85 84 86 92 89 85 83 86 88 91 91 92 93 92 91 88 86 87 88 86 88 90 91 91 89 85 81 80 78 77 76 74 73 72 73 72 45 44 71 71 74 76 77 76 78 80 82 83 85 85 88 91 88 85 85 89 92 94 92 92 94 93 91 89 87 85 85 85 86 88 89 89 88 85 81 78 75 75 74 73 72 73 73 73 46 44 71 70 72 75 75 77 78 78 81 83 85 84 86 88 88 85 86 89 90 90 89 89 90 86 84 85 84 84 83 83 82 85 86 87 85 84 81 77 73 73 73 71 71 72 73 73 45 44 70 71 70 72 75 76 77 78 80 82 83 81 84 86 87 84 85 84 80 78 76 76 74 75 77 77 80 82 82 81 81 80 81 85 85 83 81 78 75 72 72 70 70 71 72 72 45 44 71 70 71 71 74 75 76 78 79 80 81 81 84 84 84 82 76 71 68 67 68 68 65 65 67 66 69 73 78 80 79 77 79 81 82 82 79 77 74 72 70 69 70 71 71 72 46 44 72 69 72 72 73 75 77 79 80 81 82 80 83 83 82 73 65 58 53 58 65 62 59 58 57 56 58 62 67 74 77 75 76 77 80 80 76 74 72 71 69 69 69 70 71 72 46 44 72 71 72 73 73 74 76 78 79 80 80 80 81 81 75 63 55 51 53 72 88 82 72 75 69 64 57 57 59 63 69 72 72 75 76 74 73 73 71 70 69 68 69 70 72 73 46 44 70 72 71 73 73 75 77 78 81 84 79 80 79 75 66 55 46 46 59 81 98 93 87 90 83 77 62 60 56 57 60 66 68 71 73 73 73 71 70 69 69 69 70 71 72 73 46 42 71 72 71 72 74 75 77 78 81 84 82 81 75 64 54 45 38 38 40 62 83 80 69 73 71 62 49 45 44 47 54 57 60 68 73 73 73 72 71 71 70 70 71 72 73 73 46 37 70 72 71 71 73 74 76 79 82 85 85 83 77 65 60 54 45 41 43 45 48 48 48 46 45 45 45 45 49 51 54 58 62 69 74 73 74 73 72 71 71 71 72 72 73 74 47 33 66 70 72 72 73 74 75 78 80 82 85 86 85 82 78 76 72 62 53 53 53 52 50 48 47 50 59 71 75 75 75 78 76 76 76 75 75 74 72 72 72 71 72 71 72 74 47 32 58 69 71 71 73 74 74 77 80 81 83 85 85 85 82 79 80 79 76 74 72 72 73 74 76 79 83 84 81 76 74 79 80 74 74 76 76 76 74 73 72 72 71 72 73 74 46 32 53 68 70 71 72 74 74 75 78 79 80 81 82 85 82 76 76 80 84 86 87 87 85 86 89 87 85 79 73 69 73 79 78 73 74 76 77 75 73 72 72 71 72 72 73 75 47 35 56 78 70 71 72 73 73 74 76 77 77 77 79 79 79 77 71 70 74 81 84 84 87 90 86 81 75 68 65 68 74 77 76 73 73 76 75 73 72 72 72 72 72 72 73 74 46 36 67 97 76 70 71 72 73 73 74 74 75 76 75 76 78 78 74 69 67 70 74 77 79 80 75 70 63 61 64 70 75 77 76 73 77 76 74 72 72 72 72 71 72 73 73 74 46 37 86 101 80 70 70 72 72 72 73 73 73 74 74 74 75 76 74 71 69 66 64 64 63 60 58 57 59 64 67 73 74 75 74 74 76 76 74 72 72 72 72 72 72 73 73 74 46 39 96 104 75 71 70 71 72 72 72 73 74 75 74 75 75 75 73 73 72 69 64 61 60 59 60 64 67 73 73 75 75 75 74 75 75 76 74 72 71 71 71 72 73 73 73 75 47 45 101 105 78 69 72 71 71 72 71 72 73 75 75 75 75 75 74 74 74 73 70 68 67 66 68 71 72 75 76 76 76 75 73 74 76 75 75 72 71 71 71 72 73 73 73 74 46 45 101 110 85 67 76 71 70 71 72 72 73 74 75 76 76 75 74 74 75 74 74 72 70 70 71 73 75 77 76 76 77 76 74 74 74 73 73 72 72 72 72 72 73 73 73 74 47 46 100 112 95 65 75 74 71 71 71 72 73 73 74 76 77 75 76 76 76 76 77 77 76 77 78 78 78 76 75 75 75 76 74 73 72 73 72 72 72 72 72 72 72 74 74 73 46 62 103 112 102 69 74 75 72 71 72 73 73 73 73 76 77 76 76 77 78 79 81 82 83 86 85 84 81 77 75 75 76 74 74 72 71 71 70 72 72 72 72 72 72 73 72 73 45 64 104 112 109 80 70 74 72 71 72 72 72 74 74 75 76 76 76 78 79 79 82 83 84 85 85 83 80 78 77 76 77 75 73 71 70 70 70 71 71 71 71 71 72 72 72 71 43 69 109 108 114 95 65 75 72 71 72 72 72 73 74 75 76 76 77 79 80 82 82 83 83 82 83 82 78 76 77 77 77 75 73 71 70 71 71 70 71 71 71 72 71 71 70 69 43 73 114 104 114 107 74 69 73 71 71 72 73 73 73 75 75 76 76 78 83 84 81 82 81 79 80 78 78 78 78 78 75 73 72 71 70 71 70 70 70 71 71 70 70 68 67 68 43 44 73 64 69 70 55 38 45 44 42 44 45 46 46 46 46 46 47 48 50 51 50 50 50 49 49 47 48 48 49 47 44 46 44 44 44 43 43 43 43 43 43 43 42 41 40 41 27 