P2
48
60
255
32 56 60 61 63 66 70 71 72 72 71 72 72 74 76 77 76 76 76 76 75 74 74 73 73 73 74 73 74 73 75 76 75 74 73 70 68 66 64 62 61 61 62 59 57 55 55 33 50 91 98 100 103 107 113 116 117 118 117 119 119 120 123 124 125 124 123 122 122 119 119 116 118 120 120 120 122 121 121 121 120 119 115 113 110 106 102 100 100 98 98 95 93 89 88 54 50 90 98 102 103 108 114 117 118 118 119 120 122 123 125 127 126 124 122 124 124 121 119 119 120 122 122 123 121 122 122 122 119 118 114 112 108 104 101 101 101 100 97 94 91 89 88 54 49 90 99 103 105 108 113 115 118 120 119 119 121 123 124 125 125 123 122 124 122 121 120 121 121 121 122 123 122 122 122 120 115 115 113 110 106 102 100 101 101 100 98 94 91 88 89 54 50 91 98 103 104 109 114 118 120 122 121 122 123 123 124 122 121 121 121 122 122 123 121 120 121 121 123 122 121 120 119 117 115 114 113 110 105 100 101 101 102 100 98 94 91 89 88 55 51 93 97 103 104 110 115 119 119 121 122 123 121 122 121 122 120 119 119 120 121 122 122 122 121 121 120 121 120 117 114 113 113 112 110 107 104 102 103 102 102 99 97 94 92 89 89 55 52 95 99 102 104 111 114 109 104 110 113 115 116 116 113 115 116 117 117 116 118 119 119 119 118 120 119 119 114 110 109 109 107 106 102 101 99 97 95 94 92 91 92 95 92 90 89 55 51 95 98 101 105 108 102 91 90 92 94 94 94 93 93 96 97 103 108 109 111 112 113 113 113 116 114 111 108 103 100 98 94 90 85 83 81 79 79 78 76 77 80 87 93 91 90 56 53 95 98 98 93 86 83 80 77 73 73 72 67 65 66 68 71 74 84 94 99 105 107 108 108 110 107 103 97 92 85 81 71 65 62 60 59 59 60 63 66 65 69 73 80 87 89 56 54 98 96 81 70 70 69 69 64 62 60 61 59 54 54 56 60 64 67 79 87 97 102 106 107 108 104 96 88 78 71 62 57 56 55 54 54 55 56 58 59 59 62 67 71 76 82 55 57 97 86 74 72 72 73 68 65 62 61 60 58 57 58 60 62 63 65 69 81 94 102 106 108 107 100 90 79 67 60 56 55 55 55 56 57 59 62 63 62 62 62 63 63 66 75 52 60 98 86 82 84 80 79 80 76 72 67 65 62 59 59 62 67 68 69 70 79 91 103 110 111 107 98 83 71 63 58 58 57 57 55 55 57 60 63 66 69 68 64 62 63 68 72 48 61 100 95 92 87 83 80 72 68 71 74 68 64 60 58 57 58 68 71 73 80 92 105 114 114 106 96 79 65 58 56 56 55 53 56 59 62 60 60 60 61 65 67 66 67 71 73 48 62 101 98 95 88 79 67 68 76 66 58 54 49 48 53 57 60 60 70 74 81 95 109 117 117 110 97 77 61 53 53 53 53 58 60 60 54 52 54 56 59 60 60 64 67 69 74 49 63 102 99 97 88 75 67 65 61 80 64 71 58 46 55 68 64 66 69 79 86 95 110 122 121 114 100 79 58 53 53 54 58 61 77 67 73 53 55 57 64 59 61 60 62 67 73 49 63 103 101 98 90 80 71 67 78 92 77 56 48 51 62 77 71 69 79 89 93 99 116 126 125 118 101 83 62 55 55 58 59 72 91 73 65 51 54 61 72 68 62 63 64 67 74 49 64 105 104 101 92 85 80 75 83 93 98 73 61 65 79 85 75 82 89 95 96 103 118 124 122 119 103 86 71 64 64 62 66 76 95 93 66 59 61 66 77 75 74 68 69 72 77 51 64 107 106 105 100 95 92 80 78 87 95 100 93 92 90 90 84 83 90 98 98 106 118 122 121 118 105 90 80 74 70 72 76 84 95 102 93 83 88 91 89 79 74 74 77 79 85 56 64 106 108 106 104 103 98 90 82 80 82 82 81 81 79 76 77 80 90 98 101 109 119 121 119 116 104 90 84 80 75 70 69 74 81 86 86 86 83 79 75 72 73 79 87 91 93 60 65 106 108 107 108 107 105 100 93 89 86 84 82 78 77 76 82 91 96 102 103 109 120 121 120 117 102 90 85 85 83 81 78 73 71 73 77 78 75 74 72 73 79 87 95 98 99 62 63 106 109 109 112 110 108 108 103 97 91 89 85 83 87 93 98 104 107 104 104 110 121 121 121 117 98 88 85 86 87 87 85 82 80 76 73 72 73 75 78 84 92 97 99 101 101 64 62 106 109 112 114 113 113 113 113 111 106 107 105 102 103 104 109 110 108 104 103 111 122 122 121 111 96 86 86 87 87 89 93 90 89 89 90 91 92 96 98 101 103 104 104 105 106 65 63 105 110 114 117 118 119 119 115 116 114 113 112 107 109 114 117 112 106 102 102 110 121 121 118 104 90 85 84 87 87 90 95 98 98 98 100 99 102 105 108 109 110 109 109 110 110 66 62 104 111 114 117 118 122 121 120 119 117 116 115 115 115 117 117 111 105 103 103 110 119 120 117 101 89 85 84 85 87 88 93 98 102 103 104 104 108 111 113 115 114 112 111 110 110 66 61 103 109 114 119 119 122 122 122 119 118 118 119 121 119 117 116 109 104 102 105 113 119 120 116 103 92 85 82 84 86 87 92 97 103 106 108 108 108 111 113 113 112 111 111 109 107 65 60 102 108 114 118 118 121 122 121 120 117 121 123 122 120 117 114 109 104 102 106 116 121 120 115 102 91 85 81 82 84 86 90 96 102 105 109 109 112 113 113 113 113 111 109 107 105 64 60 101 105 110 115 117 119 120 122 123 122 121 122 122 120 118 114 107 101 102 107 117 122 122 114 100 90 84 80 81 79 80 88 95 101 106 107 109 112 113 114 114 112 110 107 105 101 62 58 100 104 108 113 114 119 121 123 122 123 123 123 122 120 116 113 105 101 104 109 116 123 120 108 97 87 84 83 84 80 76 85 93 100 105 107 109 110 113 114 115 112 109 106 102 99 61 56 98 103 106 110 113 117 118 120 120 121 125 123 122 120 116 110 101 105 106 111 120 127 120 110 98 89 86 87 89 85 76 81 90 96 102 106 109 110 112 112 114 111 107 105 101 98 60 58 96 103 106 108 111 114 117 119 121 119 120 121 119 118 113 103 102 104 104 113 124 125 116 108 97 90 87 88 90 89 78 78 85 93 100 104 108 109 110 111 110 107 105 102 100 97 59 64 96 102 106 107 108 112 115 117 118 115 117 120 115 114 108 101 102 103 98 106 114 110 108 101 91 84 82 86 90 89 79 77 81 89 97 102 106 107 108 107 107 105 103 100 99 97 58 67 95 102 106 108 108 113 113 114 116 116 117 116 113 111 106 102 100 92 79 91 94 92 93 88 79 73 72 76 82 83 79 79 80 86 92 99 102 105 105 106 104 104 101 99 97 96 58 70 95 102 105 104 105 111 112 113 115 116 115 114 112 109 104 104 102 84 65 73 79 74 76 72 66 60 54 59 68 72 81 84 84 85 89 96 102 103 103 103 103 102 100 98 95 94 58 75 104 101 104 104 107 109 111 111 113 114 114 113 112 107 106 104 105 100 83 83 87 77 65 65 60 55 54 55 59 71 86 89 89 90 90 94 99 102 101 101 100 99 96 96 94 93 57 152 172 103 103 105 107 109 111 112 112 113 113 112 109 107 106 105 104 104 99 90 87 84 72 65 62 61 59 58 63 79 89 92 93 94 92 92 95 98 100 100 100 99 96 93 92 92 58 158 216 106 103 106 107 108 109 110 111 112 111 109 108 108 107 105 104 105 102 98 93 89 78 72 76 74 73 73 78 85 89 92 93 95 95 92 94 95 96 98 97 94 91 91 91 91 57 158 236 112 105 107 106 108 107 108 109 110 109 110 109 109 107 105 105 103 100 99 97 92 79 77 87 89 89 86 85 88 90 92 93 93 95 96 92 93 93 95 95 91 90 90 90 90 57 158 249 126 106 107 107 106 106 108 108 109 109 108 107 107 105 103 103 100 102 100 99 95 85 87 97 100 98 95 92 88 88 91 93 93 95 95 93 90 91 93 93 91 89 89 91 91 57 158 254 150 107 106 107 106 106 104 106 106 107 107 108 106 101 99 101 99 104 104 104 102 101 106 112 111 108 102 97 93 90 91 90 90 91 92 93 91 91 92 93 90 89 89 91 92 57 158 255 189 108 106 107 106 106 103 104 105 105 104 105 103 101 100 104 105 103 100 94 92 96 105 107 98 91 89 90 91 92 91 89 89 90 91 94 92 91 93 92 90 89 88 86 90 58 158 255 224 110 106 106 106 105 103 103 104 104 103 104 102 97 99 100 91 84 82 80 79 80 83 80 76 74 71 69 70 73 79 82 84 92 96 95 97 94 93 92 89 88 87 84 89 57 158 255 248 125 106 104 104 104 103 103 104 105 104 104 100 90 78 76 73 70 62 62 67 68 68 68 65 62 57 56 57 60 60 61 67 83 93 96 96 93 93 91 89 88 88 87 89 56 158 255 255 165 106 103 102 102 101 102 102 103 102 100 93 81 67 69 72 72 70 70 71 71 71 72 71 71 72 75 75 77 74 72 76 83 89 94 94 92 93 90 88 87 87 86 88 55 158 255 255 218 107 102 100 99 100 100 102 103 101 96 91 92 97 97 94 96 96 99 99 95 94 94 99 100 104 95 89 88 87 89 93 95 93 91 91 91 91 89 87 86 86 86 87 54 158 255 255 247 120 100 100 99 99 99 100 101 102 98 97 98 102 104 100 99 100 105 112 108 106 105 106 104 99 91 87 85 84 88 94 95 93 91 90 89 89 87 85 83 83 85 85 53 158 255 242 144 90 96 98 98 98 98 98 99 101 99 98 99 101 102 103 98 97 94 93 92 91 91 88 88 84 81 81 79 82 88 91 92 92 90 87 86 86 84 82 81 81 83 83 51 158 240 119 72 65 88 95 95 96 97 97 93 97 97 97 98 99 100 97 95 91 86 82 76 73 72 70 73 71 70 74 77 83 86 88 89 89 87 85 83 83 79 79 81 80 80 81 50 151 136 75 65 57 71 90 92 92 95 95 96 96 96 93 96 97 97 96 94 90 85 79 75 73 73 70 73 72 75 78 81 85 86 86 86 84 82 82 80 79 78 77 77 78 79 78 49 71 79 68 60 54 59 83 89 91 93 94 93 94 95 93 93 94 95 96 97 94 89 86 83 82 81 78 80 81 84 85 86 85 84 83 84 82 79 78 78 77 76 76 76 77 77 76 47 49 70 61 56 52 56 87 83 88 91 93 93 93 93 95 95 94 95 97 100 97 93 90 88 88 88 89 88 87 89 88 88 85 83 82 82 79 77 78 77 76 75 75 74 74 74 73 45 44 65 58 53 50 53 87 83 81 89 90 91 92 92 92 95 94 96 97 100 102 105 107 111 110 110 109 108 105 101 95 88 84 84 83 80 78 79 79 77 75 74 74 73 73 71 69 43 42 62 55 51 49 51 84 87 78 82 88 90 90 90 92 94 97 98 100 104 108 113 116 117 114 112 111 107 103 100 97 91 88 85 82 80 81 80 79 77 74 73 72 72 69 68 67 41 39 60 53 50 48 49 79 90 84 76 83 86 89 88 89 93 98 100 102 106 112 114 115 116 113 110 109 105 103 101 97 91 90 87 82 83 82 80 77 74 73 72 70 68 66 66 66 41 38 58 52 49 47 48 74 89 87 84 76 80 85 85 86 91 96 99 100 104 109 111 112 113 109 107 105 102 102 99 96 91 88 84 83 83 81 78 74 72 70 68 66 63 63 65 65 42 37 56 51 48 46 46 71 91 90 87 80 73 79 82 84 86 91 96 98 101 103 105 106 106 104 102 99 99 99 96 91 87 84 82 81 78 77 74 70 67 65 63 62 62 63 63 65 42 36 55 51 47 45 47 67 91 92 90 84 77 71 75 80 83 87 92 94 97 99 99 100 100 98 93 94 95 95 90 85 82 78 77 78 74 71 66 63 64 62 61 61 61 62 63 66 43 35 54 52 46 45 48 62 89 91 92 88 82 74 72 75 77 78 86 90 92 94 93 95 97 94 92 91 92 91 85 79 73 72 72 71 67 65 61 61 60 60 60 60 61 61 64 67 43 34 53 51 46 45 49 56 86 92 94 91 86 82 74 70 73 75 79 83 86 87 89 89 90 88 87 83 82 81 77 69 65 64 64 62 61 59 58 59 59 60 59 60 59 61 65 68 43 32 51 51 48 45 49 51 82 90 94 92 90 87 81 72 69 73 74 75 76 80 81 82 79 77 74 74 71 68 62 58 56 57 58 57 56 56 57 58 59 59 58 58 59 62 65 69 44 18 30 29 29 29 29 30 48 54 57 59 56 55 53 49 43 43 45 44 44 47 47 45 43 42 39 38 37 35 34 33 33 33 33 33 34 35 36 36 36 35 35 36 37 39 41 43 28 