P2
48
60
255
12 21 20 21 24 28 37 43 54 50 51 50 51 60 69 70 66 68 60 65 71 75 76 68 61 59 62 69 65 67 63 58 42 44 40 41 35 31 28 26 25 26 24 24 23 24 24 15 19 39 40 36 45 61 71 80 84 77 81 83 92 114 126 123 123 112 112 122 121 127 127 118 107 98 100 111 111 112 108 97 80 70 72 72 59 55 54 46 39 39 38 36 36 37 37 22 19 38 37 44 53 66 75 77 79 81 89 105 126 140 152 148 129 126 125 126 125 133 124 121 116 110 110 112 108 123 116 105 102 71 77 90 76 65 62 57 46 40 40 40 39 39 39 24 19 35 39 48 60 65 71 85 98 107 122 138 143 149 149 159 149 137 131 130 129 134 133 127 125 115 115 113 108 111 122 116 116 99 75 82 86 76 67 57 51 46 41 45 45 42 43 25 21 38 46 56 70 70 88 106 120 130 142 147 151 155 158 162 150 145 135 135 135 139 138 131 131 125 122 117 122 111 123 113 138 129 96 89 86 76 64 58 57 50 46 46 45 45 45 28 22 47 52 63 77 82 91 101 120 135 139 143 153 154 154 149 150 145 134 137 139 137 140 132 135 132 129 133 128 127 118 111 118 130 115 102 89 80 73 63 60 61 59 58 55 54 57 40 27 52 58 78 89 82 80 86 101 123 124 129 135 138 142 139 138 138 138 138 139 133 130 131 130 132 133 129 134 132 122 113 110 119 116 98 91 81 76 74 65 58 57 70 75 76 77 51 32 53 65 87 88 70 59 62 68 81 86 96 105 112 128 127 125 127 129 126 125 129 128 131 131 135 129 130 133 126 123 112 103 100 89 78 65 59 57 57 53 51 54 59 74 85 93 59 34 58 67 77 66 57 58 56 51 48 47 50 56 66 78 94 105 115 120 123 121 125 127 130 132 134 135 124 127 119 114 94 76 58 49 47 46 46 46 51 65 78 81 69 60 60 81 59 36 59 57 64 78 85 90 83 68 55 47 43 41 43 44 49 61 82 103 111 114 123 131 134 134 129 129 124 120 113 93 70 56 42 41 41 43 54 70 88 109 115 117 111 94 81 71 46 52 82 85 93 107 115 123 120 111 99 85 71 61 54 48 46 49 54 72 97 108 118 126 129 131 124 126 121 115 102 80 62 55 54 60 64 79 95 104 116 122 127 124 116 111 100 89 53 58 101 105 111 113 123 123 126 125 122 124 115 100 81 74 70 67 66 69 85 100 111 122 128 127 127 124 115 107 96 79 76 81 82 84 90 101 109 112 114 118 121 117 113 109 104 98 60 65 104 104 109 113 116 120 120 117 114 102 88 77 70 69 79 85 84 81 85 97 109 122 130 134 134 123 110 100 90 86 89 88 74 63 66 69 72 80 85 93 106 110 105 102 101 103 64 65 106 102 99 103 106 103 89 69 57 48 50 56 70 81 70 76 86 87 90 98 111 126 138 144 140 122 106 98 90 88 89 75 80 72 55 50 48 59 74 86 75 86 99 99 99 102 63 65 104 100 100 94 82 65 50 45 42 50 42 54 73 71 89 92 82 84 94 105 117 135 153 154 148 125 108 97 84 84 78 81 70 64 67 38 55 55 69 54 62 71 75 97 101 102 65 65 102 100 98 84 55 46 53 77 56 71 29 65 75 122 81 87 98 91 100 111 117 139 161 162 150 125 109 99 88 86 78 68 114 76 54 30 40 60 79 86 59 58 75 94 105 105 67 67 106 102 94 68 53 58 84 91 66 44 30 46 77 132 120 76 84 117 124 117 116 133 149 155 146 120 116 117 120 93 74 97 128 87 63 38 45 67 98 105 87 71 76 88 104 114 71 67 106 101 89 85 84 86 96 104 91 75 64 80 105 127 117 118 124 130 128 120 117 127 142 142 136 117 116 130 126 126 119 116 119 112 92 84 85 97 112 110 107 96 109 112 116 122 74 73 117 113 113 117 118 114 116 113 111 98 96 106 105 124 138 138 126 123 119 121 116 128 141 142 131 115 115 122 127 128 142 141 134 121 107 103 104 112 124 128 119 119 117 125 126 129 80 76 126 132 130 119 130 135 138 135 126 120 120 119 128 126 119 117 113 113 117 115 110 124 139 138 132 113 113 121 123 116 120 123 122 127 131 134 136 136 136 135 124 120 120 136 139 132 80 76 128 135 134 126 122 118 120 120 120 126 120 114 113 114 121 131 124 118 113 111 111 123 131 131 126 112 110 116 119 130 126 130 120 115 112 114 120 120 118 115 118 126 133 137 145 141 83 82 133 138 148 146 142 129 125 111 114 118 118 121 125 147 153 140 128 117 115 112 111 119 131 129 120 109 108 113 114 131 147 151 145 141 133 134 136 133 136 137 137 139 149 146 143 138 84 81 135 141 144 149 152 149 149 143 147 152 149 156 157 157 148 139 121 107 114 111 111 120 136 127 124 115 108 112 114 125 136 148 152 153 152 149 158 159 160 153 155 149 149 147 140 132 78 78 131 137 145 152 149 148 150 149 149 148 150 151 153 158 154 137 117 111 109 110 109 123 137 131 125 117 106 109 113 120 131 145 151 155 158 156 156 154 154 147 152 151 150 145 137 131 75 76 127 129 142 147 156 155 147 151 150 149 152 153 156 153 152 137 115 112 112 111 110 118 134 138 130 121 107 110 113 117 128 144 155 158 154 155 155 155 154 147 156 159 155 137 131 126 76 72 123 127 134 137 151 152 150 150 148 153 158 156 156 156 151 132 116 112 113 108 111 125 136 138 129 123 111 110 113 112 125 143 157 153 156 160 160 158 160 160 158 153 147 132 125 125 74 71 120 127 128 134 139 149 157 162 155 157 154 152 148 151 146 128 118 109 108 105 112 126 131 133 129 124 118 108 108 111 121 141 154 157 160 161 157 160 157 162 156 152 135 129 122 122 71 69 119 123 127 132 139 148 146 154 155 155 151 153 150 144 135 121 111 106 104 107 114 128 133 135 133 124 117 110 104 105 116 135 149 155 159 151 155 161 163 160 159 147 134 127 119 117 73 68 114 117 122 128 132 135 150 152 154 152 153 152 153 139 123 107 103 107 105 109 116 132 138 134 138 129 120 112 105 103 103 118 134 146 152 157 157 160 160 154 150 143 130 125 116 115 72 67 108 114 116 124 128 134 137 142 145 145 147 147 143 126 105 96 105 111 109 108 117 149 143 136 142 144 129 114 108 108 98 102 120 137 147 153 154 153 150 149 149 132 125 116 115 109 68 65 108 112 115 117 120 124 131 137 139 150 141 137 127 108 92 89 105 108 103 99 110 134 135 132 150 162 130 112 108 108 97 89 104 122 135 147 147 150 143 145 144 134 123 118 114 109 67 64 109 110 116 117 120 125 130 135 133 138 137 132 115 94 86 84 96 90 86 88 93 111 116 118 123 122 108 95 89 91 94 85 90 106 122 133 138 140 143 141 132 128 123 119 111 111 67 66 111 111 112 117 121 126 127 132 135 136 130 115 95 85 80 90 109 91 59 62 87 96 102 101 107 102 91 69 65 98 107 94 85 92 113 128 131 131 133 135 129 125 122 116 113 111 67 64 106 106 111 113 115 121 125 127 134 131 119 99 82 77 80 103 119 116 98 95 88 90 89 83 79 87 97 95 104 119 121 108 87 84 99 115 125 124 131 132 125 124 118 111 111 108 67 60 96 100 105 112 115 121 122 125 128 121 109 93 82 74 91 113 121 116 112 110 104 93 82 75 79 96 106 112 117 119 124 114 97 81 88 100 113 124 126 124 124 119 119 113 110 107 64 64 108 107 107 108 109 117 124 124 120 110 99 87 78 83 107 117 118 117 112 110 107 99 87 83 94 105 107 112 116 117 119 117 109 87 81 92 111 123 126 123 122 118 115 112 108 107 64 64 104 110 108 110 113 118 120 123 113 108 90 82 80 100 117 119 121 118 114 109 109 113 113 111 106 110 109 109 114 115 120 117 112 102 84 87 99 108 115 121 117 113 114 109 104 103 61 62 103 105 103 107 112 117 117 119 111 101 86 80 91 108 114 115 112 114 109 111 120 127 126 120 129 122 114 108 109 110 112 113 108 103 90 82 93 106 112 115 114 116 113 106 102 102 61 62 101 104 101 103 111 118 122 118 109 95 81 87 95 107 110 108 108 110 116 116 125 131 132 131 133 131 122 112 107 109 112 105 107 104 98 93 88 99 107 111 114 117 111 106 105 104 61 60 102 103 103 104 111 115 117 115 102 88 83 96 97 102 106 105 113 115 115 118 130 131 127 136 132 126 123 118 117 117 115 110 108 104 103 102 92 91 103 114 115 116 109 105 106 103 61 59 99 102 102 105 111 117 124 121 104 81 95 98 100 106 110 118 115 123 120 119 119 122 129 135 130 119 118 119 117 120 114 118 116 109 105 101 99 86 104 117 123 116 110 107 104 101 61 57 98 100 103 104 109 118 126 122 107 93 110 105 107 109 113 112 104 99 98 96 96 101 104 106 98 95 100 101 94 92 90 96 106 109 109 108 106 96 105 123 123 117 115 109 104 99 61 59 98 100 101 103 107 116 125 131 120 120 121 109 106 95 86 76 76 79 82 84 94 95 96 105 102 99 104 103 93 88 79 71 71 81 94 105 112 109 113 128 129 121 110 108 105 99 61 58 98 101 102 104 104 112 127 136 133 133 131 121 112 94 97 89 86 90 91 86 81 82 79 87 85 92 97 102 111 109 111 112 118 121 114 116 116 119 121 136 128 122 111 107 103 101 60 57 97 97 101 103 107 111 126 137 144 137 132 127 127 123 124 123 124 119 120 121 113 121 122 125 126 129 131 124 119 121 127 129 127 124 125 124 123 127 132 132 125 115 107 106 103 98 58 58 96 96 99 101 107 111 120 128 133 137 134 137 133 130 129 122 128 125 130 133 127 125 124 127 127 128 134 134 134 132 127 124 124 127 129 135 133 138 139 129 122 111 109 107 100 96 57 58 94 97 96 98 105 107 111 117 130 135 136 136 133 133 127 128 130 128 130 136 133 130 126 127 124 131 132 138 135 120 123 119 125 129 128 135 136 134 134 126 119 111 103 104 99 95 56 55 91 95 95 98 101 103 105 115 125 133 136 129 126 132 130 127 125 126 119 125 127 123 127 127 124 130 128 129 126 119 121 122 119 125 129 128 126 126 125 118 113 106 102 99 97 91 56 55 88 93 96 93 99 96 100 110 118 123 133 129 120 127 131 124 120 114 115 121 117 124 116 117 118 125 126 128 119 118 121 121 120 123 125 121 120 125 119 112 106 101 101 98 97 90 55 63 89 89 92 95 97 95 97 104 114 119 125 127 127 127 127 129 124 118 121 121 111 118 125 125 121 123 126 126 119 119 122 123 125 126 121 121 117 116 113 106 100 98 95 96 94 89 76 66 98 88 92 93 92 93 96 98 109 115 118 119 127 129 125 131 129 125 121 124 125 129 129 125 123 125 129 131 128 124 125 127 128 129 126 121 117 112 109 103 99 97 96 94 90 110 112 64 108 93 87 91 93 91 94 99 104 108 115 118 122 133 132 135 135 135 134 137 137 139 140 136 135 138 140 142 140 136 134 133 131 130 129 121 114 110 105 103 100 98 94 90 91 167 121 64 110 105 86 86 90 91 94 95 99 101 107 112 119 133 138 140 143 143 143 145 145 145 143 141 141 142 146 141 142 141 140 136 137 130 128 122 113 105 102 101 99 96 93 88 105 183 120 63 110 106 98 85 89 92 92 92 98 99 104 109 114 121 132 139 141 145 144 144 146 145 146 143 144 143 144 141 136 139 142 140 134 130 125 118 107 101 100 98 97 92 87 95 108 184 120 64 112 109 99 92 85 88 91 93 93 97 99 103 106 114 122 132 141 144 138 143 148 149 149 147 144 145 147 139 140 138 138 138 135 127 119 111 102 99 97 93 93 90 92 103 107 186 121 63 112 111 102 97 91 83 88 92 93 93 95 100 103 109 114 124 129 139 140 145 152 149 147 147 144 144 150 152 149 138 133 133 128 118 110 103 97 93 93 93 90 91 104 104 111 187 121 63 109 112 105 100 96 89 83 85 90 92 91 93 99 102 107 111 121 128 136 145 148 143 144 143 139 140 140 141 149 138 127 125 115 108 104 98 94 92 91 87 90 103 106 105 116 192 121 63 109 113 109 102 98 93 87 82 84 87 89 91 91 96 102 103 110 114 121 129 132 129 129 130 135 132 130 126 123 118 119 113 110 103 98 94 90 88 86 90 102 105 107 104 118 192 121 63 109 113 114 105 103 99 92 86 80 81 85 87 88 93 96 98 103 106 106 111 120 121 121 122 124 126 123 121 115 115 111 105 102 98 93 89 86 85 92 99 105 105 104 106 119 192 121 39 67 68 70 67 64 62 59 55 52 49 51 52 53 55 56 57 58 63 63 61 67 72 72 74 73 72 71 71 68 67 62 62 60 57 56 53 52 59 62 63 66 65 67 65 74 118 75 