P2
48
60
255
24 38 37 37 39 40 41 43 46 46 50 51 55 61 66 70 74 76 76 79 81 80 81 84 84 84 83 82 82 83 83 81 80 81 81 80 79 78 74 73 75 73 73 69 65 65 64 39 44 73 74 75 78 79 83 87 90 92 94 98 103 107 116 123 126 131 133 133 135 137 137 138 138 139 135 132 132 133 132 132 131 133 131 130 129 124 121 119 120 117 117 111 103 101 102 62 46 80 82 85 88 92 94 97 100 102 104 110 114 123 127 130 133 135 133 135 136 137 139 140 138 140 138 136 134 135 134 134 135 132 132 130 126 121 119 118 116 117 114 109 105 103 100 61 45 78 84 86 90 95 98 98 103 108 115 118 124 127 131 132 135 137 137 139 136 136 140 139 136 137 136 136 135 136 138 139 137 135 136 129 125 126 122 118 117 116 113 110 104 103 100 61 45 77 84 86 92 96 99 101 105 108 112 115 119 125 128 131 138 139 140 140 137 136 141 139 135 134 139 139 138 141 143 140 138 137 135 129 127 125 122 122 121 118 116 111 104 97 98 60 47 76 81 87 94 98 103 108 109 108 113 115 115 117 121 125 132 136 135 135 135 138 144 137 132 132 138 138 136 134 135 138 131 131 127 127 126 126 124 123 123 118 113 111 103 96 96 59 47 76 79 89 94 95 99 104 104 102 104 111 108 110 110 112 116 125 126 129 128 136 140 136 132 128 136 131 125 124 126 127 118 118 114 114 112 119 113 114 108 103 103 106 102 96 95 58 45 74 80 86 84 80 86 87 91 87 85 87 90 91 90 94 98 109 110 119 123 126 131 123 123 121 121 120 112 109 106 107 91 88 87 78 80 77 79 77 77 72 79 90 93 96 95 56 44 73 75 68 60 64 62 61 64 62 61 65 69 70 69 72 80 87 100 111 111 119 120 113 109 107 108 105 91 81 77 83 68 61 55 49 46 46 50 50 49 48 52 60 71 84 94 57 41 65 50 39 38 39 36 36 37 42 43 45 46 46 46 51 57 63 77 89 95 103 107 99 96 99 94 79 62 56 63 64 61 46 38 36 37 36 37 35 34 35 37 38 43 57 88 56 41 49 34 32 30 29 28 29 31 32 31 31 33 34 36 36 38 44 50 65 80 88 93 85 83 86 81 64 53 45 48 45 37 34 32 31 31 32 31 31 33 34 34 35 38 45 69 56 40 45 35 35 34 32 33 35 34 33 31 31 30 29 31 32 33 36 43 51 62 76 86 80 74 77 73 59 46 38 36 32 31 30 30 33 34 36 39 42 45 43 44 44 41 44 69 56 39 47 38 41 45 46 45 41 41 42 38 34 30 28 28 29 32 33 37 46 59 79 91 91 93 85 74 55 41 35 31 29 30 31 32 34 37 41 41 43 48 53 60 58 46 48 63 50 37 47 46 53 48 41 43 50 49 40 34 31 32 33 32 30 29 31 33 54 80 103 118 122 126 111 85 58 35 30 30 33 33 34 30 30 29 33 30 35 42 42 44 57 56 48 58 44 37 56 54 51 38 45 40 36 30 29 27 28 30 38 34 31 35 36 37 56 94 119 134 136 136 126 108 63 35 35 35 34 40 54 40 34 31 35 36 52 42 37 40 45 61 63 66 47 40 62 59 52 42 35 40 51 43 32 33 34 43 57 50 40 43 47 53 62 94 124 143 143 144 132 114 69 54 43 41 48 59 71 67 42 38 40 54 73 66 56 47 50 64 74 79 50 43 67 65 60 50 49 53 60 69 66 69 71 74 69 63 56 58 59 70 72 92 127 142 145 146 137 115 82 73 63 63 64 71 81 91 90 86 92 95 83 71 62 69 74 78 81 85 54 45 71 71 72 69 55 52 57 61 60 62 61 63 63 58 59 60 64 72 78 95 136 149 150 156 143 122 93 80 70 66 64 63 68 67 68 71 68 66 68 66 70 85 88 86 84 85 55 46 76 76 77 75 68 57 52 53 53 52 54 55 56 62 62 62 73 78 82 105 141 155 156 159 152 128 97 89 88 76 71 67 63 62 63 62 61 59 61 72 82 90 93 90 89 90 55 48 78 81 83 86 85 79 71 64 60 61 68 77 83 83 79 83 84 83 86 121 150 159 160 159 159 134 96 91 101 103 86 84 82 74 66 62 64 72 81 96 102 104 104 97 95 95 56 49 83 84 88 91 92 93 92 94 96 96 98 100 98 96 99 92 86 85 92 123 146 153 155 157 157 136 102 95 98 118 115 108 100 97 92 94 95 97 99 104 107 107 107 103 98 95 54 50 84 86 88 95 100 105 107 109 109 105 110 111 110 111 103 91 89 88 96 120 146 148 149 148 147 129 106 98 97 110 128 132 127 123 121 119 121 123 126 128 120 113 107 103 100 93 56 50 85 89 89 93 99 105 109 109 110 114 119 120 118 109 97 91 89 91 96 117 145 146 145 147 145 123 105 97 96 104 123 134 135 136 135 138 139 139 139 133 122 116 108 105 100 94 55 49 85 88 90 91 93 100 106 114 116 124 128 126 121 107 94 88 89 91 97 114 140 146 146 151 140 119 104 99 95 101 119 132 136 145 146 143 144 145 142 134 126 116 110 107 101 97 57 51 83 87 91 93 99 109 118 125 128 127 127 124 118 100 87 80 85 91 101 114 135 148 142 145 131 115 103 95 90 94 111 128 135 144 148 148 151 152 148 140 128 119 112 108 103 102 59 52 82 83 88 95 103 114 123 128 129 128 125 118 109 93 75 75 83 88 102 115 131 150 149 144 128 116 104 91 91 87 100 118 130 140 142 143 146 146 143 134 127 116 110 104 101 103 61 51 82 82 88 92 100 106 117 122 124 124 120 110 97 78 69 80 84 85 102 114 137 152 147 149 136 120 105 94 97 88 85 100 118 133 137 133 140 139 132 128 120 112 106 97 97 97 60 50 81 84 88 90 98 102 112 116 119 116 111 98 83 68 68 85 87 86 100 112 132 140 138 141 137 123 111 99 106 93 78 83 100 114 123 129 129 127 125 123 113 104 101 94 92 94 57 48 80 83 86 91 95 98 105 110 110 110 100 87 70 65 71 91 92 88 96 109 120 126 128 130 130 120 111 103 111 106 76 72 79 96 112 116 118 117 116 115 108 102 97 94 94 91 58 46 79 81 84 89 92 96 100 103 103 96 88 73 64 71 76 91 92 87 95 106 116 120 118 121 126 117 108 101 108 107 83 71 65 82 99 105 108 107 108 106 103 97 95 92 93 89 58 44 77 84 86 87 90 95 96 95 95 89 78 66 68 79 79 85 87 81 87 101 112 114 116 118 120 112 96 92 99 95 88 85 67 67 78 90 98 101 101 100 98 95 94 92 90 88 58 45 76 81 85 88 89 91 94 93 91 84 72 67 80 84 78 71 68 67 72 89 104 109 111 113 113 95 77 74 68 73 87 94 89 68 75 85 88 92 93 93 93 93 92 92 90 90 60 44 75 78 83 89 91 91 92 93 87 79 70 78 88 87 81 53 35 32 52 73 89 95 101 102 91 73 48 34 45 75 90 94 97 85 72 80 81 85 90 91 91 89 89 86 85 90 59 45 72 77 82 87 88 87 88 85 81 73 74 88 89 86 79 59 38 33 37 58 67 69 74 78 70 50 35 36 59 79 88 95 102 100 77 80 86 88 86 87 87 90 87 83 85 92 60 44 71 74 79 83 87 86 84 82 78 75 83 79 67 60 54 50 41 34 36 42 47 45 48 52 53 40 34 40 47 59 69 68 78 95 90 79 95 97 100 96 89 86 81 79 81 90 60 44 71 72 74 77 80 84 84 80 75 74 61 44 40 40 41 39 34 32 33 36 35 32 33 37 38 35 32 33 37 41 49 51 54 61 71 74 89 94 96 94 87 82 78 80 82 88 57 45 71 71 72 75 78 82 80 73 58 44 36 37 36 36 36 34 32 30 31 31 29 28 28 30 33 33 31 32 33 38 40 42 43 47 49 57 73 89 93 91 87 81 78 81 81 86 55 44 71 69 71 74 78 82 72 47 34 33 33 34 34 38 36 34 32 32 32 30 28 28 29 29 34 35 35 33 34 35 37 38 40 43 42 46 63 85 92 90 84 79 75 79 80 84 53 43 70 68 70 74 75 70 47 32 31 30 30 30 33 32 31 33 31 33 32 31 30 33 32 31 35 37 36 36 33 32 33 32 33 36 35 40 49 78 90 89 84 77 75 77 79 82 51 42 69 68 68 71 71 61 37 29 30 28 28 29 34 32 31 29 30 29 30 31 36 37 39 41 32 32 32 32 32 30 30 30 29 31 31 36 42 64 86 89 84 78 75 75 78 80 51 43 69 69 69 70 72 63 38 29 31 31 32 34 33 30 31 30 28 28 29 31 35 40 44 40 32 29 28 29 28 29 29 31 28 29 31 32 44 56 81 85 79 74 74 72 77 76 50 44 67 67 69 69 69 69 58 44 42 44 47 47 41 41 39 37 34 34 33 31 30 32 32 31 33 36 32 32 33 33 34 34 34 34 32 32 43 62 78 78 76 73 73 73 76 74 59 65 69 68 67 67 68 69 68 61 60 63 62 57 51 56 51 44 45 48 51 56 57 56 57 61 63 63 54 44 40 41 40 39 44 46 41 41 52 69 75 74 72 71 71 72 73 85 123 144 103 69 65 65 66 67 67 65 66 68 68 66 66 66 68 72 71 70 76 89 96 96 93 91 89 78 66 56 57 54 48 47 56 59 59 63 67 73 73 70 69 69 69 71 73 116 135 158 222 82 66 63 62 64 67 65 67 69 69 70 70 71 73 78 87 93 92 96 98 107 103 101 94 89 86 83 75 68 62 63 61 63 69 71 71 71 68 66 66 66 70 72 90 113 86 158 251 114 68 63 60 61 64 66 67 69 67 68 69 68 67 67 74 78 85 89 93 102 99 96 93 89 82 78 71 69 68 69 67 66 71 73 71 68 66 65 64 67 72 79 103 101 77 158 254 135 74 63 60 61 60 62 64 64 64 63 64 65 63 59 56 54 54 55 57 62 58 56 60 59 59 57 60 64 66 66 67 70 73 73 70 65 63 63 64 68 78 90 98 94 70 158 255 162 72 65 60 59 60 62 63 63 64 63 64 63 62 58 52 45 39 38 38 38 38 38 39 41 43 50 60 65 65 68 75 79 78 73 67 63 63 64 66 73 83 91 95 80 69 158 255 194 69 67 60 60 60 62 63 65 67 68 68 68 65 63 60 53 48 44 42 41 40 41 44 50 57 64 69 74 77 80 87 82 77 71 66 63 61 61 67 75 83 90 91 72 69 158 255 206 72 64 60 57 57 59 62 65 70 75 79 81 82 80 81 83 85 84 87 88 87 86 88 88 86 88 88 88 87 88 86 78 72 68 63 61 57 61 70 80 84 90 88 64 60 158 241 146 73 64 60 55 55 57 61 65 71 76 84 91 94 97 101 103 105 110 112 113 110 110 111 111 109 105 98 93 87 86 80 74 69 62 58 56 58 66 75 82 86 90 86 55 50 148 158 108 75 65 60 55 53 54 58 63 69 74 81 88 94 98 101 101 100 106 109 106 106 110 113 114 107 102 95 86 85 81 75 70 63 57 53 55 63 72 77 83 85 90 85 48 50 95 118 92 75 66 61 57 52 52 54 59 64 70 75 79 86 91 95 100 99 102 103 105 107 103 109 106 102 93 87 82 78 75 69 61 55 51 51 59 69 76 80 83 86 91 84 48 52 72 98 80 75 67 63 59 55 49 49 55 60 65 70 72 76 81 86 92 95 94 99 98 101 100 100 95 86 80 75 73 68 67 60 52 49 50 56 66 74 78 84 84 86 88 79 48 57 65 87 71 75 68 64 61 58 52 46 46 52 57 59 63 65 68 72 83 88 86 82 82 84 85 82 78 70 65 65 64 60 56 49 46 49 55 64 70 76 81 83 87 87 86 73 50 59 62 82 63 75 69 65 63 60 57 50 44 43 47 50 54 55 57 57 61 66 67 64 66 68 69 69 62 57 55 54 54 48 44 45 46 53 63 69 74 76 80 85 88 86 85 64 62 77 55 71 55 73 70 68 64 64 58 54 48 44 41 42 45 45 43 43 44 46 45 42 44 45 47 46 45 42 42 42 41 41 41 44 52 62 68 73 75 80 83 87 86 85 80 54 92 78 53 62 53 72 70 69 65 64 63 58 53 48 44 41 39 40 39 38 37 37 37 36 36 36 35 35 34 34 35 36 36 37 45 54 62 68 70 73 78 80 85 86 85 83 66 56 116 83 49 59 52 68 70 67 68 65 65 64 58 54 48 44 40 37 36 36 36 36 35 35 34 34 34 33 34 33 33 34 39 46 53 62 67 71 73 79 80 82 85 83 84 75 51 80 132 97 31 36 32 41 43 41 41 42 40 40 38 35 32 29 27 24 23 22 22 21 20 19 18 18 18 18 19 20 22 25 29 33 38 41 43 45 45 49 51 53 51 52 52 40 28 63 93 67 