P2
48
60
255
40 66 66 71 76 76 80 82 82 83 84 84 85 85 86 85 85 85 84 85 86 86 84 85 86 86 85 77 85 88 88 86 87 87 85 83 81 81 81 79 82 80 79 73 70 63 57 32 59 106 111 117 123 128 130 133 133 134 134 136 134 137 135 138 138 139 137 136 140 140 137 136 137 139 137 133 135 139 140 136 134 135 135 133 129 131 130 128 130 129 126 123 115 102 92 56 62 111 115 117 120 124 131 129 123 133 137 138 138 139 141 143 143 140 141 138 141 141 140 139 139 141 139 135 136 139 137 134 135 135 136 137 134 130 126 128 127 129 127 123 116 106 94 58 65 114 118 115 122 126 129 128 132 137 139 140 143 144 145 148 149 145 143 144 143 139 140 139 137 142 140 137 139 142 140 138 137 139 139 139 137 128 113 120 126 125 123 121 113 106 94 59 67 114 115 109 124 127 127 129 136 137 141 142 146 146 148 152 148 147 147 149 145 144 143 143 141 144 144 140 142 144 142 141 143 143 141 135 136 132 119 122 124 125 122 120 110 106 98 59 69 114 115 110 126 125 129 131 134 134 140 142 147 147 149 151 150 148 149 150 148 147 143 142 141 145 145 142 144 146 147 143 142 144 142 140 135 137 133 127 123 118 121 118 110 105 99 60 70 118 115 116 121 127 130 130 137 138 144 146 147 149 151 153 148 150 148 150 147 144 148 143 141 141 148 145 144 145 148 141 141 145 144 142 140 139 136 133 127 119 113 114 109 108 102 63 73 117 114 115 121 127 123 133 138 142 147 148 152 152 151 147 145 151 144 145 144 138 148 145 141 137 149 146 144 144 142 139 140 144 146 144 141 137 141 137 136 124 109 111 105 104 105 61 74 117 116 114 115 109 104 109 113 118 123 124 128 129 133 136 139 146 143 145 142 134 147 143 139 133 145 142 143 141 135 136 138 141 143 136 132 132 136 132 136 128 115 108 105 97 101 64 71 102 82 71 68 67 65 64 64 66 67 67 67 69 76 87 102 106 110 126 127 129 143 143 137 131 142 143 137 133 131 128 126 121 114 106 109 110 116 121 127 125 122 115 105 95 98 64 41 60 81 114 87 82 79 72 67 63 57 54 50 59 97 96 97 114 108 90 82 104 132 134 132 124 128 126 111 127 110 99 103 89 69 64 63 62 63 62 63 64 66 70 77 83 91 62 33 96 147 123 78 71 62 54 51 49 48 46 45 47 70 105 112 127 90 88 71 79 104 97 85 90 87 73 81 109 123 156 162 129 55 47 51 52 53 55 60 60 59 58 60 58 61 42 39 100 111 79 66 59 50 50 53 56 61 64 64 62 63 76 74 81 68 63 73 68 99 90 89 88 87 70 79 79 126 112 118 67 48 51 51 51 48 46 48 54 58 60 72 85 67 32 39 61 58 55 53 48 48 56 67 74 74 72 69 67 63 60 60 59 56 51 73 60 76 103 111 97 75 59 60 47 63 58 56 50 53 57 59 59 58 52 47 45 48 55 61 65 72 39 40 59 51 47 44 44 50 55 52 43 41 29 41 39 42 47 51 56 54 49 68 64 101 96 89 85 76 60 56 39 44 42 41 43 44 41 38 39 43 46 51 48 45 47 53 54 55 33 45 72 61 52 45 38 33 32 28 30 41 21 47 56 52 45 51 53 54 51 66 67 92 101 101 90 78 63 54 41 41 40 40 41 35 39 66 27 51 35 37 37 39 41 43 44 42 26 53 78 72 61 46 33 43 53 51 41 31 31 42 64 64 50 50 56 64 68 72 57 98 127 124 115 75 52 56 48 49 43 36 42 46 38 28 22 35 36 48 35 32 31 34 40 38 26 51 80 71 61 48 48 57 66 75 73 67 64 69 72 73 67 58 60 71 76 75 59 116 135 128 126 90 49 61 67 60 47 44 56 59 47 42 38 42 52 62 56 45 34 34 43 46 32 58 86 80 69 58 50 63 73 79 82 80 77 75 73 73 70 63 63 70 77 71 72 125 132 129 115 104 53 58 65 61 53 55 68 76 76 72 68 69 71 69 61 50 39 42 56 63 41 57 90 91 81 64 52 59 74 80 82 77 72 70 69 69 66 63 71 80 75 68 91 127 131 127 121 106 60 52 63 62 55 59 69 74 74 71 70 69 71 68 64 57 46 47 61 69 41 66 102 95 83 66 58 71 81 81 77 78 82 84 84 84 82 83 84 84 70 71 106 128 129 124 120 102 72 53 60 66 62 60 65 68 68 67 68 68 68 67 61 56 53 52 62 72 46 62 103 101 83 66 63 73 83 90 92 96 94 94 94 92 92 92 90 85 68 83 109 126 127 123 119 97 84 57 54 66 69 69 73 78 81 79 79 76 77 76 75 70 60 48 63 73 47 67 102 98 83 68 74 81 87 96 96 94 91 94 95 99 100 98 94 76 69 94 106 124 125 122 115 103 86 65 51 63 72 75 76 78 84 83 84 84 85 80 77 72 63 55 67 74 51 48 105 95 77 71 81 93 96 98 95 93 95 98 100 104 104 97 87 68 87 104 118 128 127 124 119 107 90 81 49 55 69 78 82 81 87 87 85 87 87 86 82 79 75 63 63 77 49 43 76 85 70 76 89 98 98 96 95 95 98 102 102 102 99 87 81 94 107 115 120 123 129 124 121 111 94 87 75 58 60 74 85 85 90 93 91 91 88 87 87 85 85 77 65 64 48 67 85 61 63 76 90 93 95 95 94 93 97 99 96 91 76 71 87 107 117 123 123 126 129 125 123 112 97 87 90 70 54 64 77 84 92 95 95 93 88 85 86 81 79 77 65 62 45 73 117 104 67 52 56 64 72 74 77 76 77 72 66 62 71 92 107 112 118 124 126 128 125 128 126 113 105 96 92 99 74 53 54 72 85 98 96 93 90 89 89 84 83 80 66 74 43 70 114 119 117 106 88 74 65 61 61 63 68 77 90 101 106 103 103 110 121 121 130 131 132 131 129 116 109 102 88 90 90 90 76 56 49 60 73 80 84 84 85 76 67 56 49 66 51 72 122 127 132 135 138 134 133 130 128 130 128 122 115 101 93 107 106 110 120 124 138 135 141 138 136 127 113 100 89 87 87 80 96 105 99 87 76 66 61 58 59 62 69 80 95 99 58 70 122 129 136 143 144 140 137 138 138 133 132 118 99 86 96 107 103 104 117 132 145 142 138 134 130 129 109 94 89 90 94 74 78 109 118 124 120 119 121 123 122 124 126 123 123 114 66 68 121 127 134 141 145 141 135 131 129 128 117 102 86 93 104 101 100 98 104 111 126 128 125 121 120 111 98 89 84 89 91 81 59 83 110 125 128 125 127 125 126 127 127 131 127 116 70 68 119 123 132 137 140 135 130 126 120 118 108 90 90 109 107 89 76 81 96 99 108 113 109 109 104 96 87 82 80 81 82 81 77 63 93 119 128 129 129 130 129 132 127 129 121 115 67 68 111 116 122 125 132 131 127 123 117 109 96 87 111 111 106 95 65 57 75 85 87 90 84 82 86 81 75 59 46 55 70 83 90 77 72 103 123 129 131 130 131 128 125 119 114 109 65 65 108 113 116 120 121 120 120 120 113 103 86 106 113 107 93 72 69 72 72 72 68 67 64 70 69 58 63 60 58 57 75 87 86 92 81 87 108 118 121 126 124 123 121 112 111 101 61 65 105 110 114 117 121 121 116 115 106 91 91 108 102 97 82 73 83 81 81 74 68 77 76 79 84 74 78 76 73 77 87 85 86 95 102 89 96 106 113 118 121 120 110 108 103 97 58 64 104 106 113 116 118 118 114 105 91 82 103 102 94 95 84 78 97 94 85 78 78 85 89 103 94 101 90 86 83 76 90 77 85 94 102 102 94 102 109 114 114 112 109 103 101 96 58 62 107 108 114 117 119 119 112 96 78 95 101 95 90 84 82 83 109 108 90 91 86 85 97 104 93 102 95 100 82 94 90 84 84 91 95 102 102 103 106 109 112 110 109 99 99 90 54 63 110 110 115 120 120 115 99 80 89 96 88 83 90 81 86 87 101 101 97 89 89 83 102 93 106 104 112 91 81 89 94 97 72 81 83 92 95 97 111 109 111 111 109 104 97 90 53 64 115 114 116 117 116 104 81 86 93 81 78 91 85 85 99 101 98 101 99 87 81 82 98 85 87 92 105 92 85 86 90 93 70 74 78 84 90 100 109 118 111 109 112 106 97 92 57 67 114 119 117 119 114 97 89 90 94 84 85 94 86 92 99 100 102 104 105 108 111 103 110 113 106 95 98 93 89 87 86 86 65 66 76 82 84 96 95 113 117 110 110 105 99 95 61 68 113 122 120 119 116 94 88 100 102 95 81 81 88 96 98 99 96 96 93 93 92 95 103 107 103 99 98 92 81 84 89 76 65 69 71 71 83 87 88 98 118 115 106 110 105 104 64 72 113 127 127 123 126 102 92 94 95 91 86 84 81 72 69 70 68 71 68 81 86 83 77 79 76 76 77 81 85 86 87 77 65 69 77 72 78 82 82 89 113 117 105 111 108 114 66 74 111 123 128 129 130 116 104 104 104 96 95 82 59 44 58 86 91 134 113 148 157 153 128 134 114 113 85 72 65 65 72 71 68 68 75 67 69 78 78 90 106 118 109 110 116 117 66 77 115 119 133 135 137 132 121 113 118 115 113 108 105 93 88 87 77 76 70 85 94 90 75 77 81 88 64 71 63 49 60 37 40 46 53 58 77 94 98 105 111 119 112 112 121 116 66 75 116 115 123 130 136 137 130 119 123 117 116 110 108 106 104 103 99 103 107 100 99 95 94 91 91 99 95 75 80 75 78 75 75 85 89 95 84 87 106 113 118 123 116 118 121 117 67 74 116 110 121 124 129 134 132 117 122 119 115 111 107 107 108 110 112 117 119 119 118 110 104 110 108 104 103 99 95 94 89 88 88 91 90 102 110 108 112 120 126 126 117 118 117 112 63 71 113 108 112 121 116 126 129 115 119 118 117 111 109 105 104 113 113 121 125 130 128 124 117 118 119 116 113 108 108 105 97 94 95 89 93 102 110 117 118 126 130 128 119 115 115 109 60 67 112 108 108 115 118 121 122 116 119 114 115 113 108 104 104 108 113 113 112 111 113 115 119 121 120 119 114 113 111 104 96 94 93 92 96 106 108 114 115 123 130 128 118 109 108 101 57 65 109 110 104 110 116 122 125 118 120 111 113 112 108 103 104 107 107 106 106 107 112 116 114 112 114 109 104 103 105 100 95 92 91 94 96 107 107 111 120 120 128 123 111 104 100 93 52 65 108 110 103 105 115 119 123 119 119 114 113 110 109 107 108 107 106 107 111 109 111 112 110 111 106 105 106 106 103 99 98 91 93 98 101 104 102 107 110 114 122 117 105 97 92 89 50 65 105 109 106 104 109 114 121 120 120 118 114 113 109 108 108 108 110 114 112 116 115 115 113 110 109 113 113 112 108 101 98 96 96 99 101 101 96 97 108 114 114 110 100 92 88 84 50 62 105 109 107 104 104 107 114 117 119 119 116 115 113 110 109 108 111 112 113 111 108 108 107 105 107 112 114 110 107 102 98 101 99 101 103 100 93 100 118 114 112 104 94 88 86 79 52 62 103 111 110 105 104 106 113 116 118 119 117 118 116 115 109 105 108 111 116 113 111 110 111 105 109 109 109 107 106 101 100 100 104 104 103 100 93 112 120 112 110 101 93 85 81 82 54 62 101 110 115 107 107 105 108 110 115 119 116 116 119 116 114 108 109 107 108 107 107 108 107 107 106 110 106 108 106 103 99 102 105 104 104 100 102 114 111 103 102 93 87 81 82 93 56 61 100 106 112 116 111 103 101 104 109 114 112 114 119 115 111 103 104 105 111 113 115 116 115 113 109 113 110 105 109 102 104 104 109 103 103 105 108 110 103 97 93 92 86 81 94 97 54 62 99 105 110 116 119 107 103 104 106 111 109 114 113 112 104 101 101 107 115 120 120 123 120 116 114 114 108 106 100 100 101 110 105 105 105 106 106 100 93 92 90 87 81 96 103 95 52 63 102 105 107 112 114 117 105 105 103 106 105 111 111 111 103 101 103 114 119 124 124 124 125 120 119 116 112 107 99 101 103 106 103 103 99 103 98 89 88 89 88 83 90 102 99 87 48 63 102 105 110 112 113 114 115 105 102 100 104 104 108 107 102 103 108 115 122 128 127 129 127 123 122 119 114 106 101 101 106 101 102 98 94 97 88 83 83 85 84 87 99 100 91 84 47 64 106 107 110 114 113 110 113 112 102 100 99 101 103 103 104 103 109 115 123 125 122 126 125 122 119 120 118 107 101 104 103 100 96 91 90 89 81 80 82 83 86 96 97 94 88 79 47 40 65 67 68 70 70 66 69 69 65 62 61 60 62 64 66 65 69 70 74 71 74 72 77 74 74 75 76 68 62 64 63 59 55 54 53 50 48 49 51 52 58 58 57 56 53 47 30 