P2
48
60
255
56 86 80 81 82 83 84 87 88 89 93 98 95 94 93 95 95 95 96 96 94 95 93 97 96 96 95 95 90 91 95 93 96 95 92 92 87 82 83 84 82 78 76 81 84 80 82 45 90 138 134 130 136 140 140 141 137 141 149 152 156 156 153 151 153 157 159 153 150 153 154 150 149 152 154 151 147 147 151 148 153 151 147 147 140 135 135 138 128 127 127 131 132 131 132 81 88 140 135 133 135 140 140 144 144 146 151 155 157 155 156 155 157 156 159 153 152 151 149 148 148 150 153 151 147 148 149 147 152 152 148 142 139 134 137 133 123 124 125 129 134 132 130 77 89 139 137 135 134 136 142 147 146 148 150 156 157 160 158 156 158 161 155 155 151 150 149 146 146 149 152 152 154 154 150 149 149 148 144 145 138 136 136 134 127 126 127 130 134 129 126 79 91 143 138 134 132 134 142 145 141 139 145 151 151 159 158 158 158 158 154 154 152 152 151 149 151 153 154 149 154 155 155 150 150 145 144 142 138 138 136 134 130 125 127 130 135 132 127 78 89 144 139 135 130 134 139 144 142 145 149 153 151 156 156 156 157 158 157 156 152 150 153 150 153 157 155 152 156 158 154 150 150 144 142 142 137 140 140 130 126 124 125 131 134 135 122 73 87 138 135 135 131 134 138 144 144 150 152 149 149 154 157 155 158 156 156 155 152 151 152 152 151 154 152 150 153 152 151 148 148 148 146 139 141 135 136 127 126 126 128 132 134 135 122 70 87 136 135 135 132 133 135 136 136 143 147 147 150 154 154 153 152 153 152 154 153 151 154 153 151 152 150 149 152 149 148 148 147 145 146 142 139 139 135 126 123 124 127 130 132 132 122 72 87 132 132 135 126 117 113 108 114 124 132 143 148 154 153 151 151 150 149 150 152 151 151 147 148 150 149 148 147 148 149 147 147 149 148 142 137 128 129 130 123 121 125 125 129 128 121 71 84 134 131 125 104 88 77 79 81 92 102 112 123 133 135 137 142 142 145 146 148 146 147 146 143 144 145 145 142 142 140 134 121 118 117 107 96 95 92 102 104 112 119 125 128 126 116 70 84 132 129 112 98 82 77 77 74 77 76 80 83 87 90 99 117 127 134 136 134 142 141 145 144 134 133 134 122 114 104 98 89 81 76 77 70 70 78 74 85 87 93 109 120 123 114 70 84 129 110 97 96 106 111 116 112 105 92 70 59 57 56 62 78 98 111 121 125 139 148 149 141 125 116 113 98 80 67 62 57 56 57 63 75 84 86 88 92 95 94 94 106 119 117 69 78 116 104 104 106 118 129 137 143 139 133 116 94 75 64 59 65 79 88 103 124 142 153 154 140 119 97 85 79 70 59 54 59 68 80 95 106 118 120 117 106 101 98 94 99 110 116 69 76 114 107 110 118 127 129 130 124 125 123 118 112 103 92 81 71 69 74 91 123 140 151 152 139 113 86 72 67 64 65 74 86 94 102 110 115 116 122 126 118 110 107 104 103 110 118 71 79 122 117 114 120 123 104 71 47 45 44 42 46 54 71 82 79 76 81 97 128 146 156 155 143 114 89 74 67 69 77 79 70 57 49 44 45 48 57 74 92 102 105 106 108 113 118 73 80 126 119 112 107 72 46 46 52 42 40 37 38 41 45 55 67 71 90 110 128 150 160 160 147 113 100 88 69 63 62 54 46 42 38 42 32 39 36 43 46 64 93 100 103 114 120 73 80 126 117 104 76 46 50 94 79 54 40 43 64 74 65 62 86 93 106 119 128 150 158 160 145 115 107 102 86 73 70 58 59 90 63 58 36 58 49 74 49 45 66 92 99 108 116 72 80 121 112 87 64 92 105 117 107 65 65 73 88 106 104 97 105 127 124 122 129 151 152 151 146 118 111 111 116 108 92 86 95 131 93 59 47 49 64 97 89 71 59 78 99 110 117 75 80 123 110 98 113 131 143 149 151 145 140 138 135 130 126 126 126 127 122 125 133 152 154 150 144 119 111 115 111 115 121 125 127 128 128 116 102 99 118 127 121 107 95 88 103 118 124 80 87 139 129 126 128 133 135 146 155 159 151 145 138 130 122 122 121 122 129 127 135 152 152 150 144 123 111 116 117 107 112 123 128 131 137 139 147 150 146 142 136 122 119 112 115 128 131 78 90 145 134 132 138 139 142 142 143 140 136 132 132 130 129 135 137 134 132 124 133 146 148 145 140 126 111 118 125 121 116 128 130 132 137 133 135 140 138 128 120 117 119 119 129 132 134 80 90 144 138 134 136 142 144 142 146 146 141 139 143 148 153 153 145 138 132 124 131 142 144 140 133 125 112 116 126 133 132 137 143 144 142 142 141 141 140 135 130 127 129 137 135 140 135 82 90 145 144 144 150 156 158 159 167 167 169 170 169 169 166 163 143 135 129 123 130 139 142 142 131 123 111 112 121 135 133 141 150 154 154 154 161 167 168 164 158 155 152 148 142 136 136 83 87 142 142 148 154 160 168 171 174 177 178 177 173 170 166 155 141 134 123 120 128 140 141 144 135 125 111 107 116 123 132 141 154 159 164 166 166 167 171 173 166 161 156 149 143 134 134 82 88 140 145 153 161 166 169 167 169 175 172 170 166 166 157 145 137 131 120 122 130 139 145 145 139 131 115 107 111 119 129 138 152 160 163 164 170 168 168 167 165 155 155 149 144 136 129 80 87 144 147 154 161 163 165 166 168 170 165 161 164 163 156 146 134 126 120 128 138 143 142 140 141 134 119 108 107 114 123 138 147 152 159 162 167 165 161 160 164 166 160 144 138 132 129 78 86 141 145 152 158 161 154 160 167 167 166 166 166 160 153 144 130 119 121 129 143 143 141 143 142 137 126 113 105 109 120 131 143 151 157 158 162 161 159 157 161 163 157 140 125 125 123 73 83 138 141 147 157 161 165 171 174 171 170 167 162 156 147 136 119 114 122 133 148 152 143 142 146 145 131 118 107 102 112 126 139 147 156 159 164 164 166 159 157 155 149 139 125 121 117 71 84 133 140 148 155 166 171 170 171 168 165 162 155 151 137 119 113 115 122 132 151 170 148 137 142 149 131 114 103 103 103 112 129 144 152 155 162 159 161 161 156 153 149 138 128 120 117 69 79 130 137 145 151 160 161 163 163 160 159 156 149 131 112 109 116 111 107 115 127 138 129 122 124 124 108 97 96 102 105 102 110 130 145 152 154 158 158 156 157 145 143 134 125 117 114 68 77 127 132 142 147 151 150 152 151 153 148 145 124 102 99 109 116 103 93 93 97 104 107 101 100 92 82 80 83 94 104 103 101 105 123 138 147 149 147 147 143 138 138 131 121 112 107 66 73 122 129 131 139 144 143 146 148 147 136 124 101 99 118 116 102 75 47 51 73 82 79 76 79 77 61 38 42 71 91 101 103 94 102 124 135 138 141 139 133 131 128 122 114 108 106 65 73 118 122 127 133 128 134 139 141 134 122 106 97 120 125 122 101 59 42 43 47 60 55 51 58 63 50 38 41 56 83 102 105 104 91 105 120 130 135 131 126 126 123 117 113 108 104 63 70 115 118 121 123 128 133 134 131 124 114 101 121 125 129 129 124 91 78 99 94 88 59 46 56 79 91 91 77 67 98 114 111 111 105 93 112 126 124 126 123 120 116 110 108 104 99 63 68 113 113 114 119 122 125 127 120 118 109 123 127 131 131 132 129 126 117 113 110 107 94 83 84 93 95 100 96 104 114 115 117 116 113 105 100 116 119 116 114 112 109 105 104 101 97 60 68 110 109 112 118 117 120 120 116 113 127 130 130 131 132 130 128 128 126 125 128 127 115 109 114 117 115 109 111 113 116 114 114 114 114 114 109 110 116 112 105 106 106 100 99 95 97 60 68 109 109 113 112 113 114 111 113 124 128 128 126 130 129 130 132 133 133 136 139 135 125 120 130 128 129 125 120 121 120 115 115 114 117 115 117 113 111 109 104 102 99 98 94 96 95 61 70 110 109 109 113 112 106 100 115 118 121 123 124 128 131 131 133 130 139 139 141 136 129 131 133 136 137 128 126 128 124 124 121 115 117 118 117 120 114 107 103 99 102 100 95 93 96 59 69 113 110 108 112 110 93 104 116 117 119 122 124 126 128 129 131 131 138 141 140 139 131 134 139 144 130 130 129 125 126 130 122 116 115 115 115 114 111 104 101 99 96 97 99 99 100 62 72 119 115 108 111 109 85 103 108 110 111 112 112 114 119 124 131 135 137 137 141 140 135 135 142 144 132 126 123 123 129 121 116 110 111 110 105 107 103 102 98 103 98 99 98 100 100 61 74 119 115 113 113 114 90 97 96 96 94 102 109 101 110 114 123 128 124 132 136 134 132 133 133 132 125 119 120 119 121 113 105 102 100 99 96 94 94 95 92 101 103 102 99 102 101 62 70 118 115 115 115 121 107 99 87 81 72 83 97 95 93 92 90 89 87 85 86 94 103 108 100 90 87 89 92 100 98 95 96 97 94 89 86 86 90 92 88 102 106 103 101 101 100 61 69 114 113 112 115 123 119 102 90 76 67 72 71 56 53 60 61 61 69 70 77 76 70 69 70 70 65 61 62 60 61 65 72 78 83 80 71 74 80 87 90 104 103 100 97 98 98 60 68 111 111 107 109 118 123 112 99 98 105 113 110 105 95 94 89 86 82 77 69 62 57 56 57 56 47 41 43 42 46 47 45 45 56 59 58 68 76 85 95 108 101 96 96 95 97 58 64 108 109 104 105 111 119 113 101 100 108 115 116 110 108 110 115 118 133 136 128 122 113 112 110 108 109 109 109 101 95 89 85 90 94 97 88 82 84 86 98 105 97 95 92 93 95 59 62 102 105 103 103 104 109 108 101 101 110 115 116 113 109 110 118 120 122 135 144 136 133 129 129 131 136 132 123 117 106 99 92 94 99 99 92 86 87 85 95 93 90 89 91 92 92 55 64 101 102 102 100 101 101 103 101 104 111 114 115 112 107 103 103 107 111 117 115 114 114 109 109 112 116 113 111 103 96 91 93 96 99 99 96 91 87 82 88 89 91 91 91 90 88 55 65 103 102 104 102 101 99 100 101 105 111 112 111 109 108 101 92 91 92 95 96 91 89 89 88 93 95 96 87 83 83 86 91 95 99 100 99 92 86 85 85 86 88 88 89 88 89 53 65 104 102 102 104 101 100 98 99 104 108 108 109 108 106 105 97 88 80 69 59 51 50 52 50 56 62 65 66 71 81 87 91 94 96 97 97 97 89 86 82 85 85 85 89 88 87 53 62 100 102 102 104 103 101 104 106 111 111 111 110 105 103 102 97 94 84 71 64 61 63 62 58 53 56 61 71 79 83 85 90 92 93 96 94 93 91 89 85 85 85 86 89 87 87 52 77 98 100 100 103 103 103 103 108 112 114 111 111 109 107 104 100 96 92 87 85 86 90 90 92 90 87 88 86 82 85 88 90 91 93 97 98 98 100 97 91 85 87 87 86 86 84 51 122 135 92 96 100 101 103 103 105 108 111 114 115 117 114 108 107 100 107 118 129 132 131 128 130 130 127 119 102 97 91 92 90 95 97 97 100 101 99 93 88 87 86 87 85 82 78 65 124 199 125 87 95 99 102 103 107 110 114 115 116 120 125 125 128 125 124 129 133 132 131 131 133 130 127 124 120 119 111 107 106 102 101 101 102 101 97 93 90 85 86 83 80 75 85 92 125 203 154 105 90 95 99 100 107 109 111 116 118 122 126 129 131 133 127 127 131 134 133 128 124 122 123 123 119 117 113 114 110 104 105 105 100 97 93 90 88 86 82 77 73 87 95 94 125 202 162 115 117 101 94 97 101 105 108 112 116 118 124 126 127 132 126 127 123 120 118 115 118 115 117 123 124 115 113 112 109 104 101 100 94 91 86 84 83 80 75 77 93 96 95 84 126 201 167 113 114 120 102 89 94 98 101 109 112 114 119 122 123 125 123 122 113 108 107 106 106 101 111 116 111 108 111 106 104 103 97 95 90 87 81 77 74 71 77 97 100 96 97 70 106 144 127 114 110 117 116 95 84 89 96 103 109 109 113 119 120 117 116 113 108 105 95 92 90 96 100 100 101 103 103 102 99 96 95 90 87 81 76 69 65 72 91 96 97 99 98 65 63 88 120 114 110 113 114 109 91 79 85 95 101 106 108 113 113 112 106 101 98 92 88 80 77 80 83 88 87 93 94 96 94 91 90 86 83 71 65 64 70 83 96 97 94 99 97 67 44 72 132 117 112 110 114 115 107 89 78 80 91 98 101 103 104 107 99 91 88 83 78 71 77 82 85 88 86 90 88 86 86 87 84 80 71 63 64 71 80 95 95 95 93 97 99 68 25 51 84 73 67 67 70 71 70 61 54 47 48 55 58 58 59 58 56 55 54 45 45 48 50 51 52 51 48 48 48 48 49 50 49 44 39 40 44 49 55 59 57 57 56 60 60 45 