P2
48
60
255
30 53 54 57 59 59 60 61 61 62 63 68 70 73 77 80 82 83 85 84 85 82 80 77 75 76 77 78 79 79 82 81 81 79 78 77 74 74 73 69 67 67 66 66 63 60 59 36 49 84 88 91 94 96 100 100 98 102 105 110 115 121 127 129 133 135 135 138 135 136 128 130 129 128 127 129 129 129 128 128 128 127 127 123 122 120 118 116 111 110 109 108 103 98 91 57 51 85 89 93 95 97 99 99 99 103 106 112 117 123 128 129 131 134 138 141 136 136 131 131 130 130 128 128 127 128 126 127 126 126 125 122 120 119 118 115 111 110 109 108 102 98 93 57 52 86 90 93 95 96 99 100 102 108 113 119 122 127 132 134 135 135 138 139 134 132 132 130 131 126 127 126 126 127 130 129 130 129 128 127 126 123 118 113 111 110 107 105 101 98 94 58 54 86 90 91 93 96 97 98 104 114 119 125 127 132 136 139 139 140 139 138 138 136 136 133 131 130 129 128 129 131 130 132 134 132 133 130 127 125 120 112 109 106 105 104 102 96 94 57 53 87 89 88 90 83 78 86 95 106 116 122 131 135 140 143 142 140 139 140 141 140 141 138 135 133 133 131 132 132 133 134 134 134 136 134 125 120 112 103 98 95 98 99 98 97 92 57 55 88 88 86 71 63 68 70 70 78 90 100 110 121 128 137 139 141 139 140 143 141 144 142 140 138 137 133 130 128 131 133 134 132 127 120 107 91 86 86 82 77 75 82 93 94 93 57 56 87 83 63 53 56 55 52 53 55 57 58 65 77 91 113 118 128 127 135 141 139 142 141 139 138 134 126 121 117 118 113 98 86 81 77 69 60 60 63 64 66 65 61 64 85 93 57 55 86 67 53 49 51 52 55 55 51 45 42 43 46 52 64 83 97 101 115 127 131 131 136 137 132 127 116 102 92 86 72 61 51 46 46 49 51 55 63 66 60 56 52 52 58 85 56 54 81 59 52 55 60 66 76 82 78 69 62 56 51 49 54 62 79 90 99 109 114 124 128 127 121 113 104 100 82 73 68 57 51 56 56 59 70 77 82 80 77 68 59 57 51 64 53 53 78 64 68 77 83 87 94 97 97 92 84 74 68 64 66 70 73 84 90 100 112 121 124 119 114 106 95 91 85 77 77 72 72 76 80 88 98 100 104 103 95 84 77 73 65 64 45 53 81 73 78 84 89 92 93 97 105 105 103 91 81 75 72 74 77 77 82 96 108 121 119 116 118 106 95 91 88 85 81 81 82 88 97 107 110 113 112 105 97 92 90 81 76 72 49 55 82 80 82 84 86 86 88 92 101 110 110 104 95 83 77 75 78 81 86 100 113 115 119 122 123 117 103 95 91 87 84 86 91 101 109 112 114 119 116 103 94 93 91 87 81 78 48 55 88 85 85 84 82 81 82 90 102 109 109 107 102 92 82 78 78 83 89 101 113 125 127 130 130 121 105 98 92 87 86 89 96 107 111 110 110 114 105 93 91 88 85 86 85 82 52 57 91 90 86 81 78 75 71 58 45 38 42 41 54 76 85 81 79 83 91 99 115 133 139 138 138 123 107 98 92 88 87 89 89 67 53 42 44 47 59 75 80 81 81 85 87 89 54 59 97 94 88 76 64 56 45 49 59 36 40 35 45 41 58 85 85 83 90 96 112 136 141 141 142 124 105 99 98 97 95 83 49 39 38 29 39 35 57 44 48 64 74 83 91 94 59 61 103 99 92 72 62 57 61 84 84 36 31 31 41 70 59 78 105 89 92 95 105 132 137 138 141 122 106 103 111 114 109 65 60 77 41 32 36 45 92 73 55 55 64 79 98 106 67 61 105 107 103 92 83 79 83 92 96 63 49 51 72 90 87 95 113 97 93 98 108 129 138 140 139 119 110 107 117 129 116 94 90 95 71 57 60 87 100 94 85 81 86 99 115 121 72 63 108 110 107 100 96 89 94 108 113 106 100 93 94 100 111 117 118 98 96 101 113 136 141 140 138 121 110 109 112 130 126 118 106 96 94 98 104 110 115 108 101 101 101 106 116 122 73 62 107 108 110 109 109 105 99 97 98 96 95 96 107 117 122 125 112 101 100 107 115 136 134 140 133 126 113 111 114 126 133 131 118 112 106 104 104 108 113 118 120 119 116 113 112 113 70 61 102 106 111 115 118 122 124 124 125 126 128 127 129 132 129 119 110 107 104 107 119 135 136 140 132 124 115 111 118 126 135 139 134 126 123 123 126 128 130 132 131 130 129 123 116 110 67 62 102 104 116 120 126 133 135 134 140 143 143 140 141 139 130 119 113 109 105 109 122 133 140 140 138 124 116 114 117 123 136 145 144 139 136 133 136 137 138 138 139 138 136 127 118 109 64 60 102 107 116 127 136 142 144 145 147 148 146 143 140 139 128 118 111 107 103 111 125 138 147 146 140 130 117 114 118 121 132 146 146 146 144 141 140 141 145 146 149 146 142 135 123 115 66 61 104 112 120 128 141 148 151 151 145 148 148 146 144 140 126 114 108 107 105 113 126 140 147 143 141 130 120 111 117 119 130 146 149 143 144 143 142 143 148 151 156 155 149 138 129 120 68 61 107 115 123 131 143 149 147 148 149 151 152 150 146 138 122 110 107 106 105 115 129 138 141 142 142 133 122 109 110 115 123 139 145 144 145 146 145 145 149 152 157 157 154 137 133 124 70 63 109 115 122 134 143 147 154 155 151 149 154 154 145 134 118 107 103 102 101 115 127 137 144 144 142 132 120 112 105 105 122 140 146 147 147 148 149 150 152 152 158 158 155 141 129 124 73 64 108 114 120 130 135 151 155 158 157 152 146 151 146 130 112 104 101 103 101 113 129 151 152 146 142 136 121 113 109 100 117 142 144 147 152 151 149 155 156 154 159 158 153 139 129 122 70 63 106 109 115 128 132 144 143 152 154 152 152 150 144 128 111 99 100 107 106 120 142 167 166 151 146 141 125 116 120 111 103 130 144 148 150 155 155 157 155 159 159 153 152 137 130 120 70 63 106 111 116 125 135 140 142 148 151 147 150 148 140 120 104 97 111 116 114 125 148 177 158 152 164 162 127 121 122 121 103 111 136 145 149 154 156 156 160 156 153 147 140 133 123 118 69 62 105 110 118 124 130 139 138 146 146 143 149 146 131 114 99 103 115 127 123 116 126 134 138 137 136 129 121 132 130 126 110 94 119 139 147 146 154 155 155 157 151 146 136 127 105 113 67 62 102 105 113 120 126 137 136 142 145 142 143 134 120 106 100 104 116 119 112 103 110 120 122 125 121 110 107 116 125 121 107 90 98 129 143 145 150 153 151 150 142 138 132 124 113 111 65 60 99 104 111 113 121 127 134 141 144 143 137 126 112 107 107 101 101 87 62 63 90 104 102 100 99 82 58 68 100 105 96 93 95 115 140 144 144 149 146 141 137 127 124 119 112 107 64 57 100 103 110 113 115 123 126 140 145 138 129 120 111 114 112 97 77 51 35 33 48 74 75 74 77 47 34 39 60 86 86 96 98 108 132 145 142 143 144 130 130 127 121 117 108 106 63 56 97 102 106 110 114 120 125 132 134 134 125 118 115 120 120 115 86 57 51 59 68 69 62 65 74 69 58 51 66 88 100 108 109 112 129 144 146 143 136 132 129 127 118 113 108 104 62 58 99 101 104 106 106 111 122 127 127 127 123 120 117 122 123 119 110 91 79 85 96 107 98 91 96 96 89 87 95 106 115 118 119 124 132 144 144 141 137 132 125 126 118 112 109 106 63 56 95 104 105 107 108 108 117 128 126 129 129 127 124 123 123 121 119 119 117 117 123 132 128 126 127 122 117 114 117 122 126 134 137 139 137 143 142 136 132 128 126 120 115 112 111 105 64 56 96 103 107 107 109 113 117 124 127 132 138 133 128 130 130 126 125 130 127 127 132 134 133 136 136 134 134 132 131 130 132 137 143 143 139 140 140 136 134 128 120 119 113 112 113 107 63 55 96 101 105 105 112 116 118 122 123 125 133 129 128 130 127 126 126 129 124 126 130 133 131 133 130 131 129 130 130 129 131 134 142 144 137 139 139 136 133 124 119 119 115 111 108 105 64 56 95 99 103 107 111 118 117 117 119 124 125 126 125 126 123 125 126 122 123 122 126 127 123 123 129 129 127 128 132 130 132 130 137 139 136 130 135 131 130 122 114 116 115 112 108 103 63 54 95 98 100 109 110 113 116 115 118 119 119 122 121 123 121 121 124 123 121 113 113 124 123 127 123 117 122 124 129 129 130 130 134 136 134 127 127 126 126 124 122 117 113 109 107 105 62 53 93 96 101 108 109 111 114 115 114 114 116 119 124 122 116 114 115 106 91 87 88 92 106 97 92 92 90 94 106 119 124 126 129 133 132 127 123 122 123 123 122 115 109 106 104 103 64 52 91 95 101 107 108 111 114 114 113 111 115 116 122 118 107 99 86 74 71 76 78 74 76 74 76 80 77 72 73 84 95 109 120 129 130 126 121 120 122 119 119 113 109 107 100 102 63 51 88 95 98 102 107 109 112 112 111 109 112 114 116 106 85 69 58 53 57 61 65 63 58 58 63 66 63 59 52 59 68 81 100 119 124 123 120 120 121 121 116 111 108 107 103 102 61 48 85 93 97 99 104 107 110 110 111 109 112 115 110 89 72 53 52 56 65 71 77 79 80 87 89 86 79 78 69 60 53 72 86 107 122 123 119 120 121 119 114 112 106 101 101 97 56 52 80 86 94 98 100 103 107 109 109 110 108 111 105 94 94 90 91 101 106 111 118 123 122 121 125 124 111 111 106 98 94 95 95 108 119 120 119 119 119 115 110 108 105 100 98 91 54 90 77 80 87 94 99 99 103 107 106 111 106 105 103 99 103 98 100 106 111 124 138 133 128 128 126 129 114 108 107 102 106 105 107 112 113 117 119 118 116 109 106 104 99 96 93 86 51 120 90 76 79 87 94 98 99 101 104 107 106 105 107 105 105 100 95 96 101 102 111 119 115 113 110 106 105 105 100 102 110 117 115 116 113 113 115 114 108 103 101 99 96 92 87 81 49 125 152 73 75 75 85 90 93 98 100 103 103 104 108 109 105 104 102 96 95 97 94 95 93 93 99 102 103 104 101 106 113 115 116 117 115 112 109 107 100 97 94 94 89 85 80 77 48 124 198 106 72 76 78 83 86 89 93 99 102 101 105 109 103 99 98 96 95 92 84 74 67 68 82 96 101 103 105 104 108 112 114 114 111 109 102 96 93 91 92 89 83 79 76 75 45 123 200 187 90 71 73 77 81 82 90 93 97 100 100 102 103 99 96 94 92 89 85 80 74 76 83 93 97 99 99 102 106 111 112 107 104 103 99 91 89 87 86 83 78 74 71 73 51 123 199 199 180 79 69 71 74 77 84 88 92 94 96 96 99 100 99 98 96 91 88 86 88 88 88 90 95 99 100 103 105 105 104 102 100 102 94 89 83 82 79 75 73 69 69 83 52 122 198 199 197 99 68 67 68 72 80 85 88 92 92 93 97 100 102 107 107 106 105 107 108 110 107 103 103 106 105 106 104 102 101 100 98 94 90 87 79 76 74 71 66 67 83 87 52 123 198 198 197 103 82 68 62 68 74 81 87 91 93 94 97 102 107 112 115 119 121 125 125 124 122 119 116 113 115 111 106 103 102 100 97 90 86 81 75 72 67 61 67 84 89 89 53 123 199 198 197 102 85 84 64 58 66 75 84 90 89 97 97 103 110 116 121 125 131 135 132 130 131 132 128 124 121 116 111 106 101 98 94 89 84 77 70 64 58 65 83 90 89 89 52 123 199 199 197 102 86 87 80 58 55 64 75 85 92 98 101 105 112 119 123 128 131 133 130 126 130 134 130 124 120 116 111 107 102 95 91 86 79 70 63 60 64 78 90 93 93 89 53 123 198 199 199 106 85 90 88 75 58 54 64 78 89 95 99 102 107 113 120 125 127 126 127 124 122 128 127 120 116 114 109 106 99 93 87 78 69 62 62 64 75 87 93 94 93 89 51 123 200 200 199 106 86 90 93 85 71 58 55 65 79 88 94 96 99 106 110 115 116 117 122 118 118 122 120 115 109 108 105 100 91 86 79 68 62 63 65 73 85 93 95 95 94 89 52 124 200 201 200 109 85 91 93 92 84 69 60 57 63 74 83 88 89 92 96 103 106 113 116 115 115 114 107 101 100 99 96 90 82 72 65 62 64 66 73 84 92 97 97 95 92 88 53 123 201 200 179 99 85 92 93 91 92 82 69 61 57 58 67 75 77 77 79 84 92 97 102 100 96 91 88 84 83 80 78 72 65 59 61 65 68 75 85 92 96 98 98 94 91 88 52 77 123 79 32 39 52 56 59 59 57 56 48 42 37 34 33 36 39 41 41 40 42 46 47 47 45 44 44 44 43 42 40 36 34 37 40 44 47 51 55 58 59 62 60 59 57 54 32 