P2
48
60
255
20 44 53 58 63 68 66 66 67 69 69 71 72 72 73 71 73 73 72 71 73 72 71 71 73 73 73 74 74 75 76 76 76 77 76 74 72 71 68 66 61 53 49 52 42 25 16 9 34 74 92 95 103 108 107 107 107 108 111 113 116 115 116 115 113 115 116 115 117 117 116 118 116 119 119 118 121 122 121 120 122 123 120 118 116 115 111 108 101 91 85 87 73 48 28 15 38 82 99 102 102 105 107 106 108 109 112 112 111 115 116 115 115 115 115 113 115 116 115 115 117 114 117 117 119 121 121 120 119 119 116 117 115 115 111 108 104 94 90 91 79 57 32 16 44 92 107 107 105 106 107 106 109 108 109 111 111 111 112 113 111 113 112 115 117 114 114 114 116 115 115 115 116 117 116 115 115 116 115 115 115 112 111 111 105 99 94 92 86 65 37 18 50 103 112 112 108 108 108 107 108 106 108 109 107 108 109 108 109 109 111 115 116 113 113 113 111 113 112 113 114 113 112 112 113 113 114 113 111 111 110 110 108 103 97 94 90 78 48 22 55 109 119 118 113 112 109 106 104 104 104 102 102 102 104 106 107 109 108 109 112 109 109 111 111 111 110 110 112 110 109 110 108 108 108 106 104 102 102 106 106 105 100 95 90 81 61 25 62 119 129 124 120 116 107 94 88 81 79 75 78 86 93 101 103 103 103 103 110 107 106 108 110 107 106 107 106 105 105 102 93 86 82 80 76 74 75 77 82 97 101 95 93 87 78 35 69 125 137 133 122 109 85 64 56 51 47 48 48 51 58 69 80 89 96 101 105 105 103 106 108 105 103 103 102 98 95 81 62 52 46 46 48 50 50 54 54 61 82 94 93 91 85 45 72 132 144 137 109 80 58 52 48 42 38 38 39 41 39 44 48 62 74 89 99 102 100 104 107 104 100 99 96 88 68 49 44 42 40 39 39 43 43 50 58 63 67 68 87 90 86 49 76 142 150 116 81 68 60 53 50 47 45 43 43 43 45 45 46 53 65 76 93 100 100 104 104 105 99 94 84 63 52 50 49 49 48 47 50 56 61 69 79 81 83 75 73 88 86 51 79 147 150 120 99 80 74 72 72 65 61 56 55 52 53 55 54 56 65 72 86 98 102 106 108 103 100 93 76 60 59 60 60 59 62 66 72 75 80 85 92 95 91 83 76 84 87 53 84 156 157 122 95 87 82 76 71 69 66 59 53 50 50 52 56 58 64 77 87 97 104 108 111 108 104 94 85 70 64 62 62 64 67 71 73 76 77 80 84 88 92 92 88 86 87 54 91 174 170 130 99 85 74 66 56 53 61 65 63 56 46 49 54 54 57 71 86 99 107 111 114 112 108 99 84 66 59 61 62 54 49 55 61 63 61 65 73 81 87 89 90 90 88 55 98 182 175 135 103 77 59 54 61 49 42 39 42 52 62 55 51 53 56 64 82 98 110 118 119 118 110 98 77 63 60 62 55 59 68 63 63 63 64 66 56 61 76 83 89 94 91 55 107 185 169 131 94 60 59 59 40 42 35 45 43 39 54 57 59 57 58 64 80 98 109 115 122 119 110 95 75 65 61 60 62 56 42 32 31 32 39 41 60 58 57 76 86 92 94 55 114 179 157 126 80 55 68 39 63 55 41 33 33 44 83 58 56 66 64 68 80 97 110 116 122 119 108 93 80 77 71 66 52 63 43 56 38 52 46 65 39 51 54 66 83 93 95 58 111 166 149 116 69 64 43 59 88 79 47 39 43 51 91 81 54 65 78 73 83 97 109 117 120 116 107 95 83 85 78 55 63 87 47 34 29 41 57 87 59 37 53 61 80 91 96 59 103 147 138 103 72 56 59 67 87 94 65 51 56 80 85 79 76 76 74 79 86 97 108 117 118 116 109 98 87 89 77 76 80 91 71 44 41 45 83 95 70 53 47 62 78 89 97 62 92 127 121 96 76 80 94 74 67 71 68 65 66 68 74 74 74 75 80 81 87 97 108 116 115 114 110 99 91 89 86 84 79 76 77 70 69 76 88 78 63 57 64 69 78 90 98 63 88 120 106 92 89 104 103 93 77 72 68 69 67 67 71 75 79 84 88 85 92 97 104 113 115 115 109 99 93 92 90 86 80 76 72 75 72 63 66 71 74 79 85 82 84 93 100 64 88 117 105 100 104 106 100 91 81 77 75 74 76 82 82 85 87 91 94 91 95 99 109 117 115 118 111 100 97 95 95 93 92 90 87 79 75 75 78 83 86 91 96 98 95 98 104 64 85 117 111 107 106 104 98 92 87 87 85 88 94 93 90 92 94 96 96 97 98 102 114 118 116 117 106 100 98 98 101 99 94 95 101 102 95 88 85 87 90 94 98 102 105 104 107 65 85 121 115 110 108 105 101 99 101 102 104 102 101 97 95 99 99 100 99 98 99 103 112 118 117 117 108 101 99 102 102 105 105 100 97 101 108 105 105 101 99 101 102 106 109 107 108 65 89 127 120 113 110 109 106 106 105 106 106 107 106 102 101 103 102 101 99 97 102 104 113 118 115 116 108 101 99 101 103 107 109 108 107 103 108 111 111 109 108 107 108 109 111 109 108 64 92 132 121 116 113 112 111 111 111 110 110 110 106 105 105 105 103 101 98 96 102 107 113 118 117 117 111 101 100 100 101 105 111 112 112 109 109 113 113 111 112 112 111 111 113 111 108 63 100 136 123 117 114 113 113 114 113 110 111 107 109 107 107 106 103 101 97 101 105 110 116 117 118 116 113 107 100 100 100 105 111 112 115 117 115 113 114 115 115 113 112 113 113 111 107 64 108 143 124 116 110 111 110 113 114 112 111 109 107 110 109 109 104 99 96 98 109 113 117 117 120 118 116 109 99 99 101 106 112 112 115 115 115 115 116 116 116 115 114 111 110 107 104 63 113 156 124 115 109 108 107 107 112 110 111 109 108 109 108 108 101 95 94 99 112 112 117 117 116 122 119 107 101 98 99 105 110 112 110 114 115 116 116 115 113 113 110 108 105 104 101 60 120 162 126 114 108 105 104 106 110 110 110 110 109 108 109 103 97 90 96 104 111 107 110 109 110 119 117 105 100 100 95 100 104 112 111 111 114 115 115 114 109 110 107 104 103 100 99 60 127 171 131 115 105 105 105 106 108 109 109 110 110 110 108 101 90 84 101 102 100 98 99 101 100 105 107 97 93 98 95 91 98 106 110 109 110 110 110 112 108 106 106 101 100 98 97 60 135 179 137 118 108 107 105 104 107 108 110 109 106 106 102 94 80 79 99 85 70 83 90 89 88 91 89 81 72 87 92 82 90 99 104 108 109 110 110 108 105 104 102 98 96 93 94 59 138 189 143 118 109 106 103 104 107 105 103 101 101 104 96 84 72 73 86 61 34 41 83 83 76 78 80 42 43 72 84 75 78 88 99 106 104 105 108 107 104 100 100 97 94 92 93 58 141 201 149 127 118 109 103 99 101 99 100 101 101 98 88 75 69 69 76 59 50 73 83 83 71 72 75 54 50 69 82 79 71 79 93 101 103 103 104 105 101 98 98 95 92 91 92 59 145 206 157 138 124 112 100 96 97 98 99 98 97 93 83 71 75 78 75 62 65 81 77 78 72 77 83 76 61 81 94 93 80 75 85 96 101 102 102 100 101 98 95 93 92 90 94 60 150 217 163 139 129 113 103 95 94 97 97 96 93 87 79 76 83 88 86 81 81 82 75 68 70 80 87 90 92 97 98 98 93 81 82 90 97 99 99 98 98 95 93 92 91 92 94 61 150 229 174 138 128 118 105 97 94 95 95 94 89 86 80 85 90 89 91 90 90 88 80 80 80 86 90 94 98 100 100 102 99 89 82 89 93 95 97 97 98 97 93 91 91 93 95 59 152 236 190 140 127 123 105 99 95 93 92 91 88 86 88 91 92 91 92 92 92 92 92 92 91 94 96 97 100 100 101 102 101 97 88 88 92 95 97 96 97 95 93 93 92 92 96 59 154 237 199 152 132 122 105 100 93 92 91 91 89 90 96 96 96 96 95 97 98 99 97 97 97 100 104 101 102 101 102 102 103 101 96 90 91 93 95 95 94 92 93 93 91 93 96 59 155 230 210 163 139 122 103 101 96 94 90 90 91 96 99 98 99 100 101 101 101 100 98 97 100 99 104 105 106 105 104 105 104 104 103 96 92 90 92 94 94 93 93 93 91 94 97 59 156 231 204 172 149 120 105 102 96 91 92 93 93 98 98 97 101 100 98 100 100 100 100 99 104 103 103 106 107 106 106 104 102 102 101 99 97 92 90 93 93 95 93 92 92 95 98 60 156 233 202 182 156 125 106 100 97 95 94 91 94 95 92 92 95 95 94 95 102 103 104 107 109 109 106 106 106 106 106 101 97 98 97 98 98 93 92 93 95 95 93 92 91 95 99 58 156 232 196 176 162 129 110 101 99 96 95 91 93 88 82 83 87 93 94 95 96 92 91 99 99 94 86 84 92 100 103 99 92 90 88 92 85 86 94 95 96 93 92 91 91 94 99 59 157 232 196 171 161 136 119 106 97 97 96 91 85 78 74 79 87 87 79 69 65 63 62 65 71 64 62 63 65 70 74 88 88 81 79 84 88 94 97 97 99 95 93 93 94 94 101 81 156 236 198 172 157 140 128 110 99 97 94 89 78 68 63 71 74 63 52 50 52 51 52 52 49 52 51 52 51 51 52 69 78 69 66 78 90 95 98 99 96 96 95 93 94 94 104 90 152 237 199 170 148 135 130 115 102 98 93 84 73 55 44 52 50 56 71 80 88 85 83 84 82 86 83 86 81 73 63 52 55 51 48 67 86 95 97 98 95 94 94 92 95 95 105 58 145 243 209 175 147 133 132 118 104 96 90 81 74 62 72 83 82 86 91 95 102 104 102 100 99 99 101 102 96 92 86 83 80 84 68 68 85 93 95 94 94 95 94 93 96 96 108 28 147 246 213 182 147 133 130 118 104 93 88 82 82 85 87 89 91 92 93 93 93 94 97 98 96 94 96 96 92 91 93 94 94 94 93 84 85 90 92 92 90 94 94 96 95 95 81 20 145 245 221 188 149 131 127 117 102 92 87 87 92 95 92 90 88 86 84 84 80 75 76 75 74 73 77 79 86 88 90 89 93 96 99 98 93 89 90 91 92 93 95 94 95 97 137 55 146 241 231 192 158 134 122 115 102 90 87 93 95 93 93 93 88 83 76 69 64 60 54 52 52 52 57 62 70 78 87 92 99 100 101 99 99 93 89 89 91 92 93 94 94 104 146 65 135 237 235 205 170 135 119 113 100 88 90 92 94 93 94 93 92 87 82 77 73 71 70 69 68 70 71 74 78 83 91 97 100 100 96 97 94 92 90 89 91 93 93 94 95 124 100 21 124 236 236 215 182 138 119 109 101 91 90 91 93 93 96 95 94 94 92 91 92 93 93 92 92 91 92 92 96 94 96 98 98 95 97 96 94 93 90 91 91 92 92 93 96 160 196 44 145 236 235 224 192 149 122 108 101 93 91 91 95 96 98 99 98 100 101 102 104 105 104 102 103 101 103 105 105 103 101 99 98 98 99 97 94 93 90 92 92 90 92 93 103 187 204 68 146 235 235 238 210 163 129 114 104 97 94 96 98 98 99 99 103 105 105 104 107 107 106 106 107 106 107 109 108 109 107 105 102 97 99 97 96 94 91 91 92 91 92 93 104 187 205 65 146 235 236 238 230 185 142 123 109 104 99 98 99 99 99 102 104 106 108 108 107 107 106 110 109 111 113 111 110 109 109 105 103 95 97 95 97 95 92 91 91 91 91 98 101 191 206 95 146 236 234 237 229 200 160 135 118 110 105 99 101 99 99 100 103 105 109 109 109 110 110 111 112 116 115 116 112 109 107 103 101 95 95 94 94 92 90 90 89 89 93 96 100 193 207 118 147 236 236 238 223 182 180 148 127 117 114 110 109 102 100 97 101 103 105 105 106 105 105 107 108 110 113 114 107 103 102 101 98 94 92 93 89 87 86 87 87 88 98 96 100 193 207 127 146 235 236 237 222 178 157 163 139 123 122 120 119 109 100 97 99 99 97 101 98 98 99 100 97 99 101 100 100 99 98 97 93 91 91 90 86 84 83 83 85 94 98 97 102 191 208 128 146 236 236 238 224 171 141 138 149 133 127 130 127 120 104 99 97 96 93 91 89 91 92 93 92 92 93 93 94 91 93 91 88 86 86 85 83 79 78 80 92 98 99 98 101 188 208 128 146 237 235 237 228 170 137 123 124 137 137 131 136 134 112 102 95 91 84 78 82 83 85 85 85 87 89 87 86 85 85 86 85 84 83 82 78 76 80 89 97 99 99 98 99 187 207 129 91 145 145 146 141 106 84 74 72 73 84 92 85 84 78 69 60 54 50 47 49 48 50 49 49 50 51 51 51 50 51 51 51 50 49 48 46 47 52 58 60 61 61 60 62 115 128 79 