P2
48
60
255
19 33 39 42 46 50 55 59 59 63 64 68 68 68 70 69 70 71 70 69 69 71 73 72 71 69 68 67 67 66 68 68 64 66 64 62 56 54 49 45 41 32 27 34 34 27 20 12 34 58 67 67 76 82 90 94 96 99 100 102 106 108 109 108 110 110 113 112 115 112 116 114 113 108 107 106 107 107 106 105 100 101 99 94 87 84 82 75 72 65 53 56 59 49 38 21 37 64 70 70 78 84 87 90 91 96 96 104 105 106 110 114 113 108 101 106 112 115 117 115 113 107 106 104 110 104 104 101 98 97 94 90 83 79 84 83 77 73 66 64 63 55 43 23 40 70 69 72 82 86 87 89 91 94 97 104 107 109 111 118 120 119 115 114 120 120 121 118 117 113 113 109 112 108 108 101 105 101 96 92 86 84 82 81 78 74 71 67 67 60 45 25 43 70 70 75 81 85 88 88 91 98 104 109 114 115 119 124 123 125 122 123 122 122 123 124 123 120 118 115 113 116 119 117 113 108 102 96 90 88 83 81 79 75 71 66 65 61 49 25 43 69 72 76 81 85 88 92 99 104 109 112 119 125 127 130 127 126 128 128 124 116 124 126 124 124 123 118 113 116 124 123 120 118 114 106 100 96 89 82 78 75 70 65 62 63 52 26 42 70 73 74 79 85 88 87 94 103 107 116 121 127 126 126 126 126 125 124 121 114 127 127 128 127 124 119 115 119 124 126 121 123 120 112 109 107 96 85 80 75 70 66 64 65 50 26 43 72 74 74 81 84 73 77 86 90 96 97 101 105 107 113 118 118 120 119 120 122 124 124 125 124 123 120 118 120 122 118 110 107 108 101 94 95 91 78 74 72 69 66 65 64 54 24 43 72 73 74 70 65 65 71 71 67 62 60 64 62 70 80 92 101 104 108 112 116 119 118 116 118 116 112 105 107 105 94 82 74 70 69 69 72 71 68 64 60 60 64 63 63 60 26 43 71 69 59 58 64 70 71 66 57 48 43 41 41 43 45 57 69 78 87 99 107 113 112 113 113 102 92 89 84 79 63 50 42 43 45 47 53 59 65 68 61 59 56 59 63 63 33 43 67 57 61 73 83 87 85 78 67 54 44 40 38 39 40 42 50 59 71 80 96 106 103 107 101 90 80 76 66 58 51 41 38 40 42 48 59 71 76 76 76 70 61 57 60 62 39 43 61 70 80 85 84 85 83 75 62 51 42 37 35 36 41 46 52 57 65 76 92 103 107 106 100 85 73 68 60 53 46 42 38 38 41 49 60 71 80 82 84 82 75 67 58 60 37 41 67 77 83 82 82 74 60 70 79 81 77 60 47 38 37 45 53 60 68 80 94 107 112 109 98 87 71 62 56 50 41 34 37 47 60 70 70 62 60 72 80 79 78 72 61 60 37 41 72 81 78 76 63 54 69 81 81 71 71 73 69 56 45 52 53 61 72 79 94 115 118 115 97 79 69 62 54 48 44 44 55 69 73 72 75 77 68 52 58 71 74 73 65 60 38 46 77 76 73 59 50 60 63 50 49 35 58 42 54 64 65 53 59 61 70 79 93 113 122 116 98 78 69 60 53 54 49 62 65 48 41 34 40 48 62 59 48 54 68 72 69 64 38 47 76 74 65 51 55 53 42 40 32 29 31 47 113 75 51 67 61 67 71 77 87 105 112 112 97 78 65 58 60 53 60 54 89 62 68 33 50 41 48 48 52 49 61 62 66 66 39 48 79 71 60 55 50 38 68 59 35 35 36 73 129 108 58 63 67 70 71 79 87 104 115 113 102 80 68 62 63 58 50 82 141 72 36 32 35 45 78 45 44 51 55 60 62 65 39 49 77 69 63 55 40 50 77 84 67 50 66 117 120 108 88 74 68 74 74 81 89 105 112 112 104 83 72 65 67 68 79 104 134 109 44 41 43 70 81 58 38 46 55 60 62 67 41 50 76 70 65 58 58 62 73 87 96 99 94 92 87 85 76 73 76 73 76 81 93 107 116 114 107 88 73 65 63 69 75 87 102 106 88 70 87 95 81 58 52 50 56 60 63 71 43 54 82 75 74 76 65 64 76 83 81 81 74 71 69 66 69 77 76 78 79 84 96 110 114 115 105 92 79 69 67 66 65 70 77 80 78 85 87 84 71 61 57 66 65 64 68 71 44 55 88 85 86 90 81 71 75 76 75 73 72 70 73 78 79 78 81 83 81 89 96 109 117 116 105 92 82 75 71 68 71 69 67 67 69 70 72 72 69 66 68 76 76 75 75 75 44 57 94 94 94 97 94 92 88 86 85 85 85 86 85 84 84 84 89 87 85 93 97 108 120 118 107 94 83 79 75 71 73 80 79 76 73 72 73 74 72 73 78 82 85 84 81 77 45 58 96 97 98 98 100 102 101 102 101 99 94 91 91 91 90 93 92 87 90 93 96 111 123 120 109 94 85 79 74 75 75 81 86 90 93 93 91 87 89 90 91 92 91 85 84 78 46 57 94 98 99 99 104 104 106 105 105 101 100 98 97 93 97 96 90 87 88 91 97 114 124 122 114 98 87 80 72 73 78 82 86 92 96 99 104 104 103 103 100 100 97 95 87 80 46 53 93 96 96 102 106 109 112 111 110 109 104 99 97 99 103 96 86 86 90 90 102 116 127 125 117 102 89 78 72 72 79 86 86 93 101 103 105 108 105 108 106 102 98 97 89 80 46 54 92 96 97 104 112 113 115 114 111 110 105 100 103 105 103 95 82 87 87 93 108 119 124 123 119 107 94 81 74 71 79 93 95 97 104 110 113 114 113 110 107 102 100 98 89 80 45 53 90 95 100 107 115 117 117 116 113 111 107 106 105 113 110 96 74 80 85 99 114 122 130 126 123 112 99 83 75 73 79 94 102 105 108 111 112 117 119 115 113 108 104 98 87 79 44 52 86 93 100 106 109 114 118 119 115 112 113 115 118 119 107 87 81 80 87 100 116 138 138 132 135 120 102 86 75 74 80 94 104 109 115 114 115 116 119 119 113 107 101 95 84 78 44 51 83 90 95 103 108 112 114 119 115 116 120 121 121 116 98 83 83 91 93 101 113 151 145 129 149 125 104 88 82 75 79 90 103 112 118 117 116 116 116 113 109 102 95 90 79 74 42 49 82 88 90 95 101 105 107 120 122 121 124 123 122 107 90 87 96 103 94 95 104 116 122 120 122 112 96 87 91 84 79 88 100 113 121 124 113 116 108 103 100 94 88 86 75 69 41 47 79 83 87 90 98 104 113 120 122 124 125 122 113 97 88 90 98 91 83 85 89 92 102 105 102 93 84 80 85 88 83 87 93 108 120 122 117 114 108 99 96 96 87 81 71 67 42 48 80 82 87 89 96 104 112 120 121 120 123 119 107 90 88 87 83 54 36 43 74 87 92 92 87 78 59 43 61 81 86 89 89 102 109 105 113 111 106 97 91 87 79 77 69 67 42 49 79 80 83 89 96 103 108 114 116 119 120 116 100 93 91 87 77 59 56 50 75 77 76 74 69 53 41 42 50 73 91 92 89 92 102 100 104 105 102 94 88 86 80 74 69 66 41 50 81 80 80 85 91 100 108 108 114 115 118 108 97 93 93 89 74 72 88 92 86 74 61 56 65 81 84 79 64 72 94 95 93 91 98 103 98 97 97 91 84 80 76 71 66 66 40 50 83 82 82 81 87 94 104 103 111 111 111 106 99 99 97 90 81 72 72 78 78 71 67 68 71 71 69 66 64 80 95 98 96 92 94 101 104 97 89 86 83 77 75 71 66 65 38 47 82 86 83 80 83 92 96 106 110 112 112 108 105 100 99 93 94 90 81 75 78 77 83 84 80 77 69 81 86 91 96 95 93 96 97 99 99 91 84 86 80 78 75 71 67 63 38 48 82 84 84 75 78 89 97 101 105 107 111 107 106 103 98 96 96 89 84 80 85 87 82 84 84 80 69 81 89 90 93 95 96 97 97 95 93 93 87 81 79 78 76 71 65 62 37 46 77 85 86 79 84 89 95 99 102 104 106 106 110 110 107 103 101 91 82 76 83 85 84 86 89 72 70 77 87 92 96 97 97 96 95 93 91 88 86 78 77 76 74 69 63 60 37 45 77 83 86 81 84 87 93 96 99 102 103 105 109 109 106 102 92 88 76 77 92 93 88 91 98 89 74 68 84 86 96 99 98 94 90 88 86 84 81 76 78 73 73 69 64 61 37 44 79 82 82 82 83 87 90 95 96 96 101 104 105 98 91 95 90 86 88 92 105 100 95 98 104 98 88 80 81 78 82 85 90 94 89 89 82 81 77 74 75 73 73 69 64 61 36 45 75 84 81 81 82 86 90 94 92 91 99 93 84 85 81 82 88 92 100 100 97 95 98 97 90 86 96 94 86 82 73 72 77 80 82 82 77 77 74 73 73 71 70 67 63 62 33 45 75 81 83 83 82 84 88 88 86 89 86 80 79 77 80 85 92 95 83 73 75 75 78 77 74 73 71 78 86 80 73 71 72 69 71 74 72 71 73 72 71 71 68 66 63 60 23 44 73 78 81 82 81 84 86 84 81 78 76 80 77 72 77 82 76 62 59 61 66 66 68 65 65 63 58 53 58 67 70 71 69 71 71 75 71 67 69 71 70 71 69 64 63 57 20 43 73 76 77 81 80 80 81 80 78 81 76 73 69 69 65 55 46 43 43 44 50 52 66 58 50 60 54 48 46 45 48 50 60 70 73 68 70 66 68 69 69 70 67 65 63 59 53 41 73 76 79 79 78 76 77 78 74 72 72 68 62 48 40 41 59 79 81 83 81 80 89 86 83 87 87 83 81 68 53 45 54 69 70 67 68 68 68 70 69 68 66 65 63 109 110 40 70 74 77 80 76 75 75 76 75 74 70 66 64 64 62 61 68 78 91 109 103 100 105 101 100 100 102 85 76 64 64 76 78 77 70 67 67 69 68 68 67 67 65 63 76 185 124 35 67 73 74 77 76 74 73 74 76 73 71 69 72 78 78 71 66 69 79 104 111 103 105 104 106 101 86 71 67 64 70 80 79 77 69 67 68 67 65 68 68 67 63 63 123 206 129 47 66 70 73 73 75 72 73 73 77 74 73 71 77 78 77 74 69 72 76 83 91 91 91 89 89 84 77 72 68 71 74 79 79 75 71 67 67 59 64 67 67 65 63 66 178 208 129 50 61 68 72 72 72 70 69 71 74 75 71 73 76 79 77 73 74 72 69 75 80 79 78 76 76 72 68 66 70 73 73 76 77 75 72 65 61 61 65 65 65 64 62 93 203 209 129 42 62 62 68 71 71 70 67 68 70 72 68 71 75 77 74 72 68 67 63 61 58 55 52 52 52 55 57 60 65 70 72 73 72 73 69 64 61 60 63 63 64 62 62 159 209 209 129 82 79 62 65 68 70 70 67 65 65 66 66 68 70 71 70 68 65 65 63 60 56 52 50 51 53 55 57 60 64 67 70 69 67 69 67 63 63 61 60 62 62 61 73 195 209 209 129 123 187 96 65 65 67 68 68 64 64 65 66 67 67 68 66 66 65 64 65 67 70 67 62 58 60 58 60 59 60 63 65 64 63 64 62 61 62 61 60 61 61 60 82 204 211 211 131 127 207 129 67 63 66 68 67 66 66 65 65 64 65 66 65 63 62 60 63 67 70 67 68 67 67 63 63 58 58 60 62 62 62 62 61 61 61 61 59 60 59 63 82 205 211 212 131 128 208 142 70 64 63 65 66 67 68 66 65 64 62 64 66 67 66 63 61 69 74 79 84 85 84 77 67 62 61 64 65 65 64 62 61 61 62 61 60 58 60 61 82 206 211 212 131 129 210 144 70 66 62 62 65 66 70 69 67 67 66 68 71 73 73 70 66 68 76 81 88 85 84 78 73 70 67 69 72 69 66 63 63 63 62 60 60 59 60 60 80 206 212 212 131 128 209 146 71 69 65 60 63 66 67 67 67 68 70 72 76 76 77 77 75 76 76 79 79 82 77 73 74 75 72 73 73 71 68 65 63 62 61 59 59 58 59 60 77 204 211 213 132 128 209 145 70 70 69 64 59 63 66 68 68 69 70 70 76 80 78 74 72 75 76 72 78 81 77 73 74 69 68 69 73 72 70 67 64 61 60 59 57 59 61 61 74 204 213 213 132 129 210 143 70 71 70 68 62 59 63 66 67 69 69 73 76 78 73 70 66 69 72 71 75 79 70 65 62 65 63 64 72 73 70 66 63 60 58 56 57 61 62 63 70 200 214 214 132 128 211 134 69 70 72 72 68 61 58 61 65 66 68 71 70 76 72 69 65 60 65 66 70 69 64 65 59 63 61 59 65 68 68 65 59 56 55 55 61 64 64 62 66 192 215 215 132 80 130 80 44 44 45 45 43 41 36 36 38 39 39 41 43 43 42 39 39 36 38 38 39 40 40 40 36 36 38 37 38 41 39 38 34 34 34 36 39 39 41 39 39 113 134 133 82 