P2
48
60
255
42 66 67 65 67 71 72 78 76 76 76 77 76 78 81 80 78 80 79 82 87 84 82 81 84 84 82 78 76 79 80 81 81 78 75 72 74 76 74 72 69 71 68 60 55 54 54 34 66 108 108 110 111 116 120 124 119 122 123 128 131 131 132 133 129 130 132 135 134 133 136 133 137 137 135 125 124 129 131 131 131 129 124 119 119 117 120 116 113 113 112 97 91 91 89 56 63 111 107 111 111 116 122 122 117 119 124 127 133 135 134 135 137 138 132 128 133 132 135 135 137 137 134 133 129 136 134 132 134 136 131 125 118 119 116 113 112 113 107 98 90 90 90 55 55 112 108 113 110 116 119 117 112 119 123 128 135 137 134 138 137 139 139 133 130 129 133 135 137 139 137 136 133 137 135 134 135 136 132 126 119 118 112 110 114 113 104 96 96 90 92 56 54 106 111 113 110 114 105 98 96 111 119 123 132 135 140 141 136 138 143 138 136 134 132 140 139 141 138 138 137 138 136 136 137 135 134 130 123 118 114 113 113 109 107 95 94 94 91 54 64 99 113 112 108 98 84 65 70 84 95 113 124 129 134 136 134 142 140 138 143 139 137 142 141 144 139 142 139 138 139 136 135 134 136 136 127 120 114 113 114 113 100 94 92 93 90 55 72 97 113 110 92 68 74 65 63 72 82 91 107 113 109 108 117 133 140 136 138 139 139 137 137 143 136 142 136 133 133 128 136 137 134 131 127 119 109 107 111 114 101 93 92 94 92 51 69 95 112 104 85 73 61 59 69 84 79 85 89 85 83 85 87 94 122 123 134 134 134 127 134 135 127 138 135 129 133 128 130 131 129 122 111 109 100 97 96 97 99 91 91 93 92 52 63 94 109 100 80 75 75 68 69 75 79 76 70 77 87 90 88 86 97 114 129 129 130 122 128 129 127 131 134 127 125 117 118 115 106 95 88 80 82 82 80 79 81 82 88 91 91 55 60 98 105 88 79 87 94 94 87 82 81 71 76 74 65 70 82 84 91 113 129 130 129 120 126 127 126 128 117 99 87 82 87 100 87 72 70 71 66 61 72 75 80 79 82 88 91 57 61 104 102 83 88 97 101 109 115 117 118 107 95 90 82 79 78 85 90 109 126 137 133 126 126 123 120 117 97 84 75 74 71 62 60 57 57 55 55 66 66 63 69 79 85 89 90 55 61 104 107 96 95 104 114 116 121 127 129 125 122 117 110 99 93 88 91 102 117 132 129 130 128 122 112 100 87 69 60 57 56 61 70 80 84 88 92 88 83 78 72 75 83 89 89 55 63 105 106 102 104 107 114 117 120 121 120 117 115 112 109 111 100 84 92 100 111 130 132 133 131 122 112 93 81 76 80 92 98 102 111 120 123 123 121 116 104 91 82 75 71 87 89 58 64 104 108 105 109 109 110 104 102 109 114 114 108 98 86 93 103 92 86 104 109 120 140 134 134 123 113 102 90 86 105 111 94 86 101 111 112 109 108 105 104 97 86 81 73 78 88 56 65 106 110 109 109 104 85 92 86 68 74 57 68 75 84 84 86 86 91 105 113 122 139 138 133 125 109 100 95 97 106 98 95 96 88 82 64 71 72 85 82 84 91 89 91 95 90 56 63 105 109 107 104 91 74 60 76 57 56 27 44 53 70 66 70 87 105 109 115 120 130 131 130 120 105 103 99 100 99 90 77 81 71 59 27 45 42 67 63 69 71 88 95 94 90 55 61 102 110 109 107 92 78 83 97 91 67 59 74 97 104 96 88 102 110 112 119 117 126 129 124 111 101 101 99 106 96 77 92 118 114 62 40 48 67 92 77 68 67 65 78 93 94 56 61 103 111 113 117 111 103 112 116 121 120 117 114 118 122 113 101 92 108 115 116 113 124 131 122 106 97 97 99 97 97 101 113 118 113 112 100 103 109 106 101 94 88 87 87 92 95 55 61 104 110 116 119 118 116 111 126 136 136 134 136 131 119 104 95 101 114 113 114 110 123 129 124 113 95 93 101 97 88 89 99 109 116 117 118 116 122 120 111 104 96 99 104 100 94 58 60 102 111 113 126 124 116 114 119 122 126 127 122 120 111 112 112 120 117 115 110 112 124 128 119 110 94 91 97 99 97 95 101 106 108 111 113 114 117 112 100 93 103 113 103 103 98 56 58 103 111 119 127 129 135 137 128 127 128 129 130 127 125 129 130 123 117 114 108 110 119 127 120 111 94 90 94 99 101 103 107 113 120 126 126 125 121 118 119 118 130 114 111 103 96 56 59 102 111 122 121 137 137 137 137 146 149 147 142 137 136 135 127 121 116 113 109 108 119 122 121 111 90 85 91 98 101 110 115 124 129 133 139 139 139 135 134 134 125 124 106 105 95 55 58 103 114 119 122 129 130 143 143 148 146 145 143 139 138 131 128 124 120 113 108 110 117 122 113 107 86 86 90 93 96 108 115 127 132 138 137 136 135 134 135 129 127 118 113 93 95 55 58 103 120 122 124 126 125 134 142 149 149 144 142 140 135 131 126 124 120 113 108 106 117 119 113 101 84 88 90 93 99 109 116 126 133 140 143 142 139 140 136 135 122 114 102 100 88 57 58 102 117 120 125 127 128 132 139 146 145 143 140 140 135 126 122 118 115 113 106 106 122 126 117 102 88 89 92 93 98 107 114 122 132 138 141 144 145 145 143 131 117 106 100 103 90 54 57 102 117 117 126 127 129 136 140 143 147 146 141 138 131 120 115 115 114 111 105 115 135 129 130 111 94 89 92 95 99 105 115 124 127 133 138 140 145 140 135 125 118 107 100 101 98 53 58 104 113 116 123 124 127 136 142 146 151 145 138 129 122 112 96 108 107 109 106 119 140 132 129 122 103 87 91 92 95 101 111 121 126 129 135 139 143 139 130 125 117 106 98 95 99 54 59 103 111 111 119 121 126 135 145 147 145 139 130 122 110 81 93 105 98 105 109 115 140 137 131 129 106 88 86 80 86 89 84 107 117 123 132 140 138 137 128 124 116 107 100 93 95 53 59 101 113 108 114 120 123 129 134 140 135 125 119 103 77 91 102 101 103 104 106 114 127 132 128 121 98 85 87 81 80 83 73 71 93 110 120 128 133 131 128 120 115 103 97 93 91 55 61 102 109 108 111 117 122 125 127 130 123 113 98 73 84 100 103 100 104 100 100 108 116 119 116 106 90 83 85 83 79 79 74 67 68 85 104 113 121 128 120 116 112 102 95 90 86 55 61 103 108 106 109 115 117 117 119 114 109 96 73 74 99 106 104 90 79 69 91 102 108 111 107 91 79 73 74 80 78 80 90 83 71 68 82 96 107 119 118 113 105 102 92 89 85 54 62 103 107 109 107 109 113 113 111 105 96 76 71 89 108 108 98 91 72 79 79 95 100 101 91 72 50 35 36 53 71 82 88 91 84 74 70 80 96 107 110 106 100 96 89 84 84 52 62 104 108 112 104 104 107 105 103 96 79 74 80 97 105 108 104 103 91 89 89 87 85 81 73 68 70 65 67 70 75 80 85 84 83 78 75 65 74 94 103 100 94 91 88 81 84 53 61 104 106 110 102 101 103 102 94 80 79 81 91 97 105 108 104 107 103 100 97 84 67 57 59 63 69 81 86 84 85 87 83 80 81 85 78 70 60 67 86 92 90 86 83 78 81 52 61 104 106 109 103 101 102 100 86 76 87 92 102 102 104 112 110 113 112 108 99 91 78 65 68 78 83 89 95 93 93 91 83 81 85 84 78 74 66 53 57 84 91 85 80 71 73 52 61 105 105 110 103 102 100 96 78 89 95 99 103 105 97 104 109 114 118 106 92 90 82 76 91 85 83 92 104 93 98 93 87 84 85 84 87 85 80 72 50 71 86 87 83 71 78 52 61 101 107 111 99 106 104 99 77 90 99 99 102 105 98 99 107 120 123 111 99 97 91 88 91 95 93 87 95 100 97 94 91 82 83 80 83 80 81 81 63 78 93 92 83 74 82 52 60 102 108 113 101 108 109 107 81 87 97 97 93 99 97 94 116 109 112 100 99 102 104 78 76 105 95 95 93 80 95 84 85 83 81 75 71 73 71 82 75 91 105 99 81 75 81 52 76 102 104 108 103 110 113 108 90 86 97 89 83 84 81 88 104 107 102 94 86 98 84 71 73 83 74 61 57 68 72 84 62 61 64 50 53 74 84 84 84 102 105 95 75 81 80 51 114 102 102 109 106 106 112 112 99 81 96 91 74 52 50 54 63 70 70 81 82 83 77 76 80 83 77 70 62 63 62 64 46 40 47 58 66 66 78 84 98 108 103 88 73 88 79 49 143 118 99 106 102 106 112 112 105 81 94 87 68 81 66 36 23 34 83 90 87 132 99 79 84 94 66 89 75 101 96 53 30 54 66 84 79 70 77 88 106 107 95 81 77 86 79 49 147 175 98 103 101 107 109 111 106 86 94 87 83 101 91 74 54 27 95 109 120 144 139 120 136 141 111 116 103 119 90 43 66 70 84 82 86 81 79 94 105 98 87 79 87 84 79 49 148 230 113 102 106 103 107 109 107 96 92 89 87 99 98 86 85 84 86 92 116 136 141 121 144 144 121 110 89 104 91 84 72 78 87 87 89 85 89 97 96 91 82 83 90 83 79 50 148 238 150 100 106 103 106 106 106 99 90 92 99 106 99 91 92 94 99 92 93 113 109 88 121 124 85 81 92 98 90 75 74 85 85 90 89 86 98 97 86 85 76 91 90 83 81 67 148 240 203 101 104 104 102 100 100 102 90 96 103 102 103 96 96 97 106 121 119 114 110 117 111 106 99 100 104 102 77 74 83 85 87 85 85 83 97 85 81 77 85 91 85 82 92 129 148 239 233 120 101 105 100 98 94 96 93 103 105 101 106 101 96 102 108 112 114 112 107 111 112 104 101 106 97 85 83 81 82 85 85 87 77 96 84 74 76 87 95 87 84 83 148 147 148 239 239 148 100 101 100 95 92 91 97 101 102 102 100 101 100 94 93 104 108 105 103 102 100 97 96 95 92 85 77 80 82 82 86 85 85 85 78 70 84 96 88 84 84 85 190 147 148 239 239 147 99 100 94 89 94 96 98 99 101 101 100 98 98 97 91 90 86 87 90 91 91 85 82 84 81 78 78 80 81 83 86 82 93 81 79 80 94 93 86 84 85 84 196 148 148 239 239 145 98 97 100 93 100 101 97 98 98 101 102 100 100 96 96 95 93 92 92 90 87 83 79 78 78 77 78 77 81 84 81 88 91 82 78 86 97 88 85 87 87 82 192 147 148 239 237 126 98 98 101 100 100 103 98 98 100 102 103 104 101 99 99 97 98 100 100 95 93 92 88 85 84 80 80 81 84 87 83 93 87 83 75 85 91 85 86 89 86 81 171 147 147 238 233 115 97 100 98 104 99 103 103 98 99 103 103 109 99 103 101 101 107 111 105 99 97 94 87 84 80 81 83 86 89 85 84 92 81 87 79 83 85 86 87 87 86 82 132 145 148 238 229 111 96 102 100 101 105 101 98 97 99 109 106 108 109 104 102 102 110 115 114 113 112 107 103 101 93 92 94 91 91 84 93 91 83 87 80 85 86 86 87 88 86 83 117 138 148 239 220 109 97 101 102 99 106 105 97 93 98 104 109 106 107 109 104 105 115 119 118 116 114 107 101 96 96 96 97 96 93 83 91 83 82 84 85 86 84 84 88 87 86 85 112 128 148 239 204 118 98 102 102 99 103 106 102 95 94 96 104 105 103 108 103 105 115 120 118 118 115 111 100 97 102 98 92 90 85 81 84 79 82 85 85 87 84 86 88 87 84 85 112 111 143 195 149 129 97 99 101 101 104 105 105 101 94 96 98 102 101 101 104 101 111 120 117 115 113 109 103 102 101 95 87 90 82 81 79 79 82 86 86 86 84 83 87 85 85 90 115 85 95 138 138 140 98 97 102 99 103 104 103 103 98 94 96 97 100 95 98 99 102 105 106 109 109 105 103 100 93 86 83 80 78 76 78 82 84 85 84 84 83 83 84 86 85 98 118 72 84 136 141 144 104 97 98 98 97 101 105 101 101 98 94 96 98 95 95 92 92 92 96 102 101 98 100 94 83 80 76 77 77 77 82 83 86 85 83 83 83 84 84 82 91 116 116 71 82 132 143 144 126 103 98 99 99 96 97 100 102 103 98 94 97 95 93 86 88 88 94 97 95 89 88 83 78 76 76 75 77 80 83 86 86 83 84 83 85 84 78 89 110 125 118 72 82 132 146 144 145 135 104 97 101 97 99 97 98 102 103 96 92 92 88 87 85 86 90 88 85 82 79 74 72 73 75 76 78 80 79 85 84 84 83 85 85 81 88 114 126 122 119 73 50 86 90 91 92 93 73 64 61 64 59 62 60 60 63 61 57 55 52 52 50 51 51 47 45 42 40 42 42 44 46 48 49 47 50 53 51 53 53 53 52 54 59 79 79 77 74 46 