P2
48
60
255
20 37 44 48 54 49 45 50 49 45 46 47 47 46 44 48 53 49 52 53 52 52 55 49 56 63 61 61 69 65 64 67 71 74 74 69 73 73 68 66 59 50 43 46 44 45 40 23 34 61 72 79 97 102 95 86 78 76 86 81 80 72 71 85 90 85 86 85 85 93 89 92 102 101 96 107 108 105 109 109 111 115 118 120 124 121 120 114 100 80 72 71 70 67 64 35 39 65 74 87 107 124 122 107 96 96 106 100 100 99 96 102 107 106 102 98 101 99 101 116 105 93 98 109 106 104 112 112 116 120 122 126 128 126 123 122 108 94 71 76 69 64 66 36 32 54 77 101 117 129 128 125 123 117 121 118 118 121 113 112 124 121 116 115 120 109 118 120 110 106 111 107 107 108 114 114 121 122 120 127 125 129 125 124 120 107 80 76 69 68 61 35 18 49 96 108 122 123 121 128 128 124 127 127 125 127 123 122 126 128 125 119 134 126 125 125 121 114 116 110 106 115 121 119 123 125 126 130 132 133 124 124 126 119 98 82 79 85 85 46 14 65 100 109 117 108 106 110 111 113 116 118 124 126 129 128 125 125 125 126 144 135 128 128 127 130 125 124 117 119 122 122 126 124 129 133 134 130 125 123 125 125 108 96 90 88 96 61 19 87 102 104 95 90 92 91 87 88 91 88 94 106 117 125 126 129 127 135 140 136 131 132 139 137 137 130 127 127 122 123 124 126 132 130 125 116 113 111 117 116 110 101 97 103 101 64 25 100 101 87 86 91 90 88 84 88 88 91 93 95 101 107 120 129 135 136 139 138 134 135 140 134 132 130 129 125 118 105 100 99 103 98 97 95 91 92 98 100 104 104 97 100 100 64 35 103 91 79 84 89 92 98 108 101 99 97 98 104 110 110 112 123 123 128 136 133 135 133 135 133 125 121 119 114 105 96 98 89 83 79 79 83 85 88 89 90 92 101 99 96 100 61 42 103 90 86 97 113 125 130 129 125 118 115 113 108 107 109 113 116 121 123 132 132 132 136 133 130 115 113 108 106 105 97 91 91 85 76 84 86 89 86 82 81 82 87 96 98 99 60 50 102 93 102 113 120 127 128 131 129 132 131 124 115 109 107 108 112 119 124 127 129 129 135 133 131 120 112 108 107 102 103 97 94 100 109 116 120 120 117 97 87 84 86 87 90 94 57 54 104 99 106 115 118 124 127 128 126 122 129 128 131 123 110 102 106 115 122 127 133 137 129 133 128 122 116 108 105 99 101 111 114 125 132 131 134 132 129 118 113 103 93 87 84 95 59 57 105 103 106 111 114 119 116 107 97 98 92 93 109 127 122 103 97 103 117 129 141 144 136 132 124 114 108 97 91 99 119 129 126 123 124 123 124 125 127 123 116 111 100 92 90 97 59 62 106 109 108 107 112 96 94 99 94 77 84 92 88 92 110 104 95 98 113 129 142 152 145 140 123 108 94 84 91 116 127 117 103 90 81 94 111 115 110 107 112 105 101 95 100 101 60 63 107 114 114 103 98 92 69 59 47 102 28 69 61 80 85 97 92 99 112 130 144 145 139 136 124 105 89 80 98 113 100 79 66 77 67 54 52 61 76 87 100 100 97 98 104 102 60 63 108 115 119 107 87 56 67 102 61 55 26 62 82 80 85 93 93 105 113 125 148 159 149 139 119 103 92 80 95 92 78 77 66 76 95 51 66 52 52 54 79 102 97 96 103 113 68 65 106 115 118 103 73 77 93 112 95 83 78 89 111 100 97 103 127 133 123 124 140 150 144 136 113 106 103 99 106 99 84 76 113 136 72 38 41 63 88 70 44 76 95 101 114 114 68 65 109 118 115 104 96 100 109 110 122 124 117 110 104 107 111 126 132 148 131 123 138 141 133 131 109 107 113 129 132 114 107 102 111 122 111 94 94 104 110 101 84 72 90 97 106 115 72 62 108 119 120 113 104 108 107 124 131 128 124 115 107 107 111 110 118 127 124 120 134 138 139 125 108 109 113 125 140 138 119 113 115 115 115 113 114 116 118 106 106 99 99 112 125 128 75 61 107 119 121 118 112 111 114 117 122 113 108 108 109 110 103 100 106 121 117 122 134 131 134 126 104 105 113 117 118 121 116 112 117 114 115 122 122 122 120 114 106 108 114 120 126 123 75 62 110 117 124 122 117 113 115 110 108 109 114 112 110 102 103 112 118 118 115 117 123 127 128 117 99 102 108 116 114 115 123 120 119 127 122 118 115 111 116 114 117 124 124 129 126 119 70 61 108 115 124 127 124 128 126 132 136 134 132 120 119 120 124 123 117 114 112 113 123 121 120 115 98 102 102 111 116 125 127 120 123 125 130 132 132 129 130 132 130 128 132 129 127 119 69 63 109 115 126 131 135 137 136 133 134 136 129 127 130 131 123 121 118 114 111 111 123 124 121 111 95 97 103 111 116 122 131 135 124 110 113 117 121 120 127 127 131 130 132 127 123 116 69 64 112 117 122 126 135 142 139 140 143 135 129 130 133 127 124 119 118 115 110 109 117 119 116 109 94 93 101 110 118 123 127 131 142 133 129 121 122 126 132 132 138 138 128 123 123 119 68 66 111 118 123 126 136 142 136 136 134 131 134 130 133 125 125 121 117 115 110 116 131 128 126 109 95 94 101 112 121 124 129 129 137 133 137 133 134 135 132 129 131 134 128 124 123 120 68 66 110 117 123 126 135 139 137 138 134 139 139 138 135 127 123 123 119 114 111 122 129 125 124 114 100 96 103 118 132 134 138 138 137 140 144 141 140 137 133 134 134 133 131 126 122 118 70 66 108 117 119 125 132 137 136 141 143 148 145 141 139 135 124 118 116 113 110 113 123 124 116 109 96 95 101 109 123 127 136 145 142 143 142 138 141 139 136 138 136 134 134 130 121 115 69 72 110 116 117 126 128 135 142 147 154 152 150 142 141 124 110 114 114 110 105 110 117 115 111 107 95 96 99 103 113 116 121 141 142 145 142 144 141 138 140 140 133 133 131 128 122 111 68 77 109 112 117 123 126 136 146 152 153 154 151 141 126 110 100 111 111 107 105 114 115 114 108 106 93 94 95 95 104 110 104 122 138 142 144 140 139 137 139 146 144 140 132 128 119 107 65 72 108 109 116 121 126 134 146 154 153 149 142 130 112 99 95 108 105 104 106 120 121 120 117 109 98 92 93 94 101 100 93 104 119 126 135 135 138 140 145 145 146 145 134 121 114 105 63 71 105 103 110 119 124 134 144 149 148 142 131 113 94 88 89 109 111 104 112 148 140 127 120 115 98 90 94 100 108 100 79 75 99 119 133 132 133 136 136 143 138 133 128 118 111 103 61 106 107 101 109 116 120 129 129 138 139 127 113 97 79 82 98 112 114 102 111 152 151 138 128 137 102 92 96 106 108 96 84 75 83 101 116 124 127 129 130 130 135 127 119 112 105 100 59 136 117 99 105 114 120 123 124 122 124 117 104 84 78 96 112 108 107 101 109 126 126 120 121 125 100 91 96 98 97 93 92 91 80 91 105 118 117 121 123 128 125 121 113 105 103 96 59 144 129 98 103 108 112 116 117 116 113 104 95 81 82 103 115 115 93 79 99 115 115 110 117 110 93 86 63 52 74 93 101 97 90 90 98 109 114 115 116 118 115 116 108 101 98 92 56 148 147 95 98 103 107 109 108 110 102 100 89 76 88 105 116 118 118 100 92 98 95 93 95 92 86 76 76 83 99 101 99 99 97 91 90 99 104 110 112 116 112 109 103 97 97 93 55 149 162 96 94 99 100 103 102 101 99 91 79 78 91 101 114 117 118 121 121 111 94 79 77 80 80 86 98 101 105 102 106 104 103 95 87 90 98 102 110 111 106 103 101 96 93 91 55 153 182 98 93 97 97 96 94 96 89 81 78 84 93 106 115 120 119 120 124 125 127 120 110 103 100 98 101 103 106 100 105 104 102 102 92 85 88 92 101 107 106 104 102 95 92 91 55 133 200 102 96 94 97 98 96 88 81 81 82 86 98 109 117 119 120 122 127 131 137 136 133 126 116 108 109 109 106 106 111 109 109 109 103 93 90 85 87 98 100 101 99 95 93 92 56 85 158 108 102 98 101 101 94 90 88 93 90 101 108 113 115 117 118 123 133 138 141 139 137 136 131 124 121 121 115 116 113 109 111 110 111 108 97 94 82 91 101 108 104 97 96 93 57 152 209 120 102 104 106 109 110 102 103 110 112 115 112 113 112 115 116 122 133 132 133 129 129 129 125 121 123 123 119 110 112 109 110 109 103 102 102 104 100 100 111 115 110 104 98 94 58 154 244 145 101 109 108 116 118 117 119 119 118 117 115 111 109 106 98 92 89 87 82 83 82 80 77 76 75 76 75 73 73 76 83 80 74 70 88 117 117 115 125 122 116 110 99 96 57 154 248 178 98 109 113 115 124 127 125 124 118 112 92 77 64 49 49 58 76 81 102 101 93 92 107 115 86 89 88 75 77 55 49 38 70 95 111 128 120 131 130 122 115 106 95 95 57 154 249 211 102 108 111 116 121 130 130 131 126 118 110 106 86 43 27 80 98 116 141 145 137 145 169 162 134 117 110 99 97 66 67 94 115 119 122 135 134 139 135 120 113 106 96 96 58 154 249 237 115 103 113 113 121 128 133 136 137 127 122 124 113 98 71 86 100 110 128 136 129 131 146 140 118 99 104 91 94 97 108 114 121 125 126 141 146 140 130 116 109 104 95 93 55 154 249 247 151 102 109 113 120 127 135 140 141 138 127 129 121 113 102 100 100 104 108 111 111 108 109 109 107 106 106 111 112 110 106 114 123 126 126 142 145 132 125 116 104 96 95 90 56 154 249 249 199 102 106 111 115 122 126 139 141 137 130 127 123 113 105 110 110 127 125 121 121 121 120 118 120 116 113 114 110 102 107 118 124 124 129 143 144 130 118 112 99 95 93 86 55 154 249 249 238 117 104 109 112 114 126 137 139 138 129 120 120 115 108 106 110 114 120 119 120 117 120 117 113 109 108 105 100 107 116 122 121 121 131 137 137 129 116 108 98 91 90 84 55 154 249 249 249 162 102 105 110 114 122 131 136 132 124 122 119 115 112 106 105 107 110 108 108 109 106 105 105 100 102 106 109 113 118 120 118 122 130 133 134 126 112 103 94 92 88 88 56 154 249 250 250 220 110 105 108 111 119 127 129 126 122 118 117 116 114 113 111 105 104 103 104 104 103 101 100 109 116 116 116 117 118 119 118 122 127 132 129 120 108 98 91 90 91 92 56 154 250 250 250 247 154 107 107 110 115 121 127 123 116 119 121 119 118 116 118 117 115 114 116 110 112 116 116 121 119 119 120 120 119 116 116 121 123 126 123 113 102 94 92 88 87 90 53 154 250 250 250 250 222 114 106 106 111 117 124 122 113 116 119 120 121 119 119 121 119 117 118 117 118 120 119 120 122 121 118 121 122 118 115 114 116 121 116 111 99 92 94 91 94 89 51 155 250 251 250 247 221 126 102 105 105 112 116 118 114 113 117 117 123 125 126 124 122 122 122 123 126 125 124 124 122 121 123 122 121 115 113 113 114 116 116 107 100 93 93 92 91 87 51 155 250 245 221 155 112 104 97 102 105 106 113 118 119 115 113 117 122 127 126 126 127 128 135 136 135 135 128 130 132 129 126 128 123 114 112 111 117 112 108 103 96 91 92 91 87 85 51 141 190 138 105 100 100 92 79 98 102 102 107 111 113 114 112 115 119 129 132 133 134 136 136 134 135 137 136 132 132 131 125 124 122 117 113 112 112 104 103 97 92 89 91 90 87 85 51 65 92 92 98 102 102 73 83 101 97 99 103 109 110 113 111 114 115 121 131 128 128 136 138 133 134 136 135 132 130 126 123 126 119 113 108 107 105 101 96 90 89 88 90 88 86 84 53 54 90 96 91 97 94 62 107 108 97 95 99 103 105 109 109 113 112 116 123 123 131 138 137 132 130 131 133 132 126 125 126 120 113 109 104 100 97 93 90 88 87 88 88 83 84 86 53 55 92 96 72 99 81 69 116 111 105 97 94 97 100 102 105 110 112 112 114 119 126 130 130 127 128 130 129 127 120 120 116 112 104 104 98 94 89 85 84 83 86 85 85 84 85 87 54 56 95 102 102 100 67 82 119 113 104 109 95 90 93 97 102 106 110 108 108 112 117 122 124 118 120 120 124 119 112 112 108 105 96 95 89 86 84 82 82 83 83 85 84 82 84 87 54 57 95 102 104 101 76 84 120 115 102 111 112 92 89 90 93 97 101 105 108 106 110 115 113 112 111 112 112 107 109 104 97 96 92 88 85 82 78 77 80 80 82 82 83 82 85 90 56 29 55 63 65 64 49 51 75 73 64 68 70 66 56 55 53 55 59 62 64 65 67 67 65 66 64 65 66 64 63 59 54 55 53 51 50 48 49 47 49 50 51 51 51 51 53 56 35 