P2
48
60
255
25 40 43 45 44 38 41 30 36 36 32 32 37 38 35 36 37 38 39 40 42 42 42 44 44 44 45 45 45 45 44 43 42 42 40 40 39 40 39 39 38 36 34 32 28 26 24 15 40 66 71 75 76 70 73 57 66 69 63 59 65 65 62 61 62 65 67 68 69 72 72 74 75 74 75 77 76 76 74 72 71 73 72 71 71 73 72 70 66 61 58 55 49 44 41 25 43 67 72 76 78 77 80 75 79 79 75 70 71 70 67 66 67 69 72 74 74 75 76 77 78 78 79 82 82 82 81 80 79 80 81 78 78 79 76 74 69 61 61 58 55 47 44 27 44 71 74 76 79 80 80 77 79 80 79 75 75 74 73 73 72 73 75 77 78 78 79 79 80 81 81 84 87 88 88 86 85 84 84 80 80 79 77 75 73 67 63 60 58 53 46 27 45 73 74 77 75 73 71 72 73 74 74 75 78 76 77 77 77 76 77 79 80 81 82 81 81 82 83 85 88 89 89 87 86 85 82 79 76 76 76 74 72 68 66 62 60 57 51 29 45 74 74 71 65 68 72 69 68 65 63 62 65 70 77 77 78 78 79 81 83 83 83 83 82 82 83 85 88 89 89 87 84 78 71 69 67 67 64 65 63 63 65 65 60 59 57 33 45 73 66 60 67 71 72 71 64 61 58 58 58 60 66 72 76 79 81 83 83 85 83 84 83 82 83 84 85 82 80 74 65 58 56 56 56 57 57 57 59 59 60 59 59 59 59 36 46 68 61 66 72 78 77 80 76 66 60 59 58 57 60 62 69 76 80 83 84 85 87 85 84 81 81 80 78 73 68 58 52 51 51 50 52 53 53 55 58 58 56 57 55 55 59 37 45 63 69 75 79 80 80 80 79 77 72 65 62 60 60 61 64 70 76 81 84 85 85 83 82 81 78 73 71 66 60 55 51 50 51 51 51 55 60 63 63 60 58 57 56 54 57 37 45 66 75 78 79 77 77 78 79 78 76 72 66 63 64 64 63 66 72 78 83 86 85 82 80 79 74 69 65 60 57 53 53 54 56 61 66 69 69 67 65 63 60 60 58 56 56 37 44 70 77 79 77 76 76 76 77 76 73 71 68 64 62 62 64 66 69 74 81 85 83 80 78 76 72 66 60 55 54 55 57 59 63 65 64 61 63 61 60 59 57 59 59 58 58 36 45 73 77 76 73 68 63 58 50 47 46 49 51 53 56 60 61 63 67 72 79 84 83 82 79 75 69 61 55 53 56 58 54 49 42 40 40 43 45 47 47 52 50 57 48 53 59 37 45 75 69 58 57 55 55 55 52 54 52 47 42 37 47 58 57 59 63 69 77 85 87 85 82 76 67 57 51 52 56 56 47 52 57 59 58 52 47 50 55 57 56 58 57 46 43 35 44 62 63 69 73 74 65 62 70 74 73 69 66 60 58 58 52 51 59 67 74 85 92 90 86 77 64 55 50 54 57 56 54 62 68 68 68 68 62 53 43 48 52 54 57 59 57 26 28 65 74 77 75 67 63 74 73 61 48 41 43 45 51 50 59 50 51 64 68 92 56 49 46 46 60 52 50 52 58 52 58 52 42 38 36 41 50 55 54 44 47 52 56 59 60 34 41 71 74 75 69 56 66 60 48 37 37 36 31 35 43 46 49 60 49 46 44 62 76 81 81 72 59 53 46 57 57 49 53 55 38 36 31 33 36 40 50 52 44 51 56 60 61 33 37 68 70 69 62 56 51 41 52 41 35 30 31 39 55 54 47 67 71 43 71 74 80 86 86 76 66 66 51 69 61 48 63 67 42 33 32 38 41 42 38 45 48 51 57 61 62 34 39 65 65 66 60 51 46 49 59 56 43 40 42 55 69 66 67 76 80 53 68 70 74 82 81 71 62 64 47 73 74 73 71 69 63 55 51 49 53 50 43 42 45 51 58 62 61 34 43 65 63 64 60 60 55 48 57 61 63 63 63 64 64 67 74 79 81 64 63 66 74 81 80 69 55 60 50 73 72 70 66 63 61 58 57 56 52 48 47 50 52 54 60 61 56 35 45 69 66 65 66 66 65 62 60 59 60 61 63 64 63 66 73 81 82 69 57 63 85 92 90 82 61 55 51 71 73 69 64 62 62 61 60 59 57 59 57 57 60 61 63 58 52 36 46 74 72 71 71 72 71 70 68 68 67 66 65 64 68 73 77 82 82 65 54 68 91 94 92 85 68 54 45 65 69 71 68 64 61 59 59 59 59 61 62 66 68 66 63 56 54 38 48 77 78 78 78 79 80 77 73 71 70 71 72 74 76 79 79 82 76 64 50 75 91 92 90 86 74 53 42 59 62 65 68 68 66 65 64 64 64 66 70 74 74 70 62 54 57 39 48 80 82 84 85 85 86 86 85 82 80 80 80 81 80 80 79 77 71 52 50 80 92 91 90 85 74 56 42 54 59 61 65 68 69 70 70 71 71 71 72 76 78 73 62 54 60 40 49 81 84 86 86 86 85 84 82 80 80 80 81 81 81 80 78 72 67 48 63 84 91 90 88 83 74 64 49 45 60 62 66 70 71 71 72 72 72 71 71 72 75 72 62 56 62 40 50 82 85 86 85 84 83 81 82 81 82 82 82 82 81 80 78 73 62 56 75 85 89 91 88 82 74 69 57 47 55 63 67 71 73 73 73 73 72 72 70 70 69 68 63 59 64 44 34 84 86 85 83 82 82 83 85 85 84 84 85 83 81 79 78 76 50 66 79 84 87 89 88 81 73 70 63 52 43 61 64 70 74 74 73 75 74 72 70 68 66 64 62 62 71 60 47 68 89 85 82 82 82 85 86 85 85 85 84 83 79 76 77 61 59 72 80 86 91 90 88 82 72 69 65 58 49 46 61 66 72 74 74 74 73 73 71 68 65 63 64 68 89 34 52 75 77 94 82 81 84 86 87 84 84 83 82 80 75 75 68 60 81 78 81 88 96 94 93 88 74 69 66 64 62 48 47 62 67 71 71 72 71 71 70 67 66 64 71 87 59 39 51 85 75 76 103 85 83 87 86 82 80 79 78 77 77 66 52 85 86 79 82 84 96 94 88 84 74 68 66 66 69 58 47 48 60 69 69 69 68 68 68 68 72 80 76 58 65 40 50 84 84 77 67 93 96 92 86 81 79 79 85 88 57 45 64 87 86 79 77 76 81 84 82 74 67 63 63 65 68 64 43 50 53 49 62 75 80 83 83 81 69 55 54 64 66 39 51 83 83 82 81 70 61 70 80 86 89 79 60 50 51 54 68 81 82 76 73 70 72 76 74 67 59 56 58 62 64 64 46 46 57 62 58 53 50 50 48 47 50 52 57 64 65 40 50 82 83 83 84 83 80 77 72 69 69 69 68 62 63 65 68 74 70 59 53 61 69 70 68 61 54 47 41 52 59 59 50 50 59 68 71 69 67 64 60 57 56 56 61 65 64 39 50 82 83 83 84 85 86 90 91 90 87 81 73 70 74 75 77 72 57 48 55 61 64 66 60 55 42 35 34 41 54 54 56 58 63 70 73 75 75 75 74 71 67 65 66 67 65 39 50 81 82 84 86 87 88 91 91 89 84 78 74 77 81 80 81 78 72 65 70 71 67 64 57 50 43 44 41 40 44 57 63 64 65 69 73 75 76 75 75 72 71 69 66 66 65 39 50 81 81 84 86 87 87 88 87 87 83 78 79 84 84 82 81 80 79 77 77 77 72 61 55 56 60 62 58 54 57 65 67 68 68 68 72 74 75 75 72 71 69 69 66 65 63 38 49 81 81 83 84 85 86 87 86 84 82 80 85 90 86 84 82 79 78 79 79 80 72 64 66 74 75 71 68 65 66 67 69 71 73 71 71 74 72 72 71 71 69 68 66 64 63 38 49 80 81 81 83 83 84 84 85 84 83 85 89 89 87 86 85 83 82 81 82 80 72 71 80 84 83 79 72 68 69 69 69 71 73 73 73 73 72 71 70 70 69 67 65 64 62 38 50 79 80 80 81 82 82 83 83 84 83 86 87 87 85 86 85 85 85 85 85 85 79 82 87 89 88 83 75 73 70 70 69 70 71 71 73 73 72 71 70 69 68 66 64 62 61 38 50 80 81 80 81 81 82 83 83 83 84 86 85 84 84 84 85 86 86 89 87 85 86 86 87 89 89 84 78 75 71 71 69 69 70 69 73 73 71 70 69 68 66 65 63 62 61 38 51 80 80 80 80 81 82 83 82 83 83 82 83 82 83 83 84 86 83 74 69 69 73 79 82 79 73 67 70 73 73 69 68 68 67 69 72 72 71 70 68 67 66 65 63 61 61 38 53 82 81 81 82 82 81 82 81 81 79 81 81 79 78 80 78 73 61 58 61 62 60 61 62 58 53 51 51 56 65 67 66 66 66 67 70 72 70 70 68 68 66 65 63 61 62 39 57 87 82 82 82 83 83 82 82 80 78 79 73 73 71 71 63 53 50 51 53 55 54 54 52 49 47 45 45 45 49 58 63 62 61 63 67 70 68 71 68 68 67 65 63 62 63 40 70 92 86 83 83 83 83 83 82 81 78 74 68 62 58 56 52 47 46 46 48 48 49 50 47 45 44 44 43 42 41 44 49 54 55 56 62 68 68 71 67 67 67 66 63 62 64 41 114 99 89 85 84 84 83 83 83 82 77 72 65 50 37 34 49 56 58 58 59 55 57 48 46 45 44 43 39 39 39 40 41 42 43 46 58 68 69 71 67 66 66 65 63 63 66 42 146 115 92 87 85 84 83 83 83 83 79 76 74 63 52 41 45 52 62 59 68 64 73 64 59 62 57 54 43 42 37 37 32 33 38 49 63 70 71 70 67 66 66 65 63 65 68 43 157 156 95 88 86 84 83 84 82 83 81 81 80 77 73 60 58 56 56 54 58 59 69 64 59 66 65 59 44 43 44 49 48 49 58 63 70 74 72 69 67 66 65 64 64 65 69 45 158 215 102 90 86 85 83 84 83 83 82 81 83 84 82 77 67 62 62 64 64 62 63 62 62 63 62 59 59 58 56 55 55 59 66 70 75 75 73 69 66 65 64 63 63 66 70 47 158 249 128 93 87 85 84 83 83 84 84 84 84 84 85 83 75 66 61 63 67 68 67 66 63 65 65 63 65 57 52 53 59 63 66 73 75 74 71 68 66 64 63 63 64 66 71 63 158 255 189 97 88 85 83 83 82 82 83 83 83 84 84 84 80 73 66 59 59 63 61 61 62 61 58 55 52 49 49 56 61 64 65 72 73 71 70 66 64 63 62 62 64 66 77 116 158 255 227 109 88 85 83 82 81 82 83 82 83 83 83 82 80 77 72 67 60 57 56 56 56 54 52 50 48 51 55 59 63 63 66 70 70 68 68 64 63 62 62 63 64 66 92 144 158 255 225 124 90 85 83 81 80 80 81 82 82 82 81 80 78 77 73 70 67 64 59 58 58 56 54 54 56 57 59 60 62 63 66 68 66 66 66 63 61 62 61 61 63 68 98 143 158 255 222 117 99 84 81 80 79 79 79 82 82 81 79 79 77 75 73 72 70 66 63 61 60 57 58 58 59 59 60 61 62 64 65 66 65 64 64 62 61 61 61 61 62 72 92 142 158 255 225 106 104 86 81 79 78 78 78 80 81 79 79 78 77 76 72 72 71 68 65 64 62 60 61 62 61 59 60 62 64 64 65 65 63 64 63 61 60 60 60 61 62 74 86 139 158 255 226 105 96 92 81 79 78 77 77 78 80 77 79 80 78 77 75 73 73 71 67 70 67 64 64 63 63 62 62 64 65 64 64 64 63 63 61 60 59 59 59 59 64 71 83 134 158 255 228 105 93 91 82 79 78 77 77 78 79 79 79 86 79 77 77 76 75 74 74 73 71 70 69 68 67 65 64 65 65 65 63 59 62 62 61 59 58 58 58 60 65 70 81 125 158 255 225 106 93 88 83 78 77 76 77 77 77 78 77 78 80 80 79 79 78 79 80 78 78 76 75 73 71 69 67 67 67 65 60 56 61 61 59 58 57 57 57 59 64 70 79 115 158 255 224 104 93 86 82 77 76 74 76 76 76 77 76 75 78 83 82 81 83 83 85 83 83 82 81 79 76 73 71 70 69 66 61 60 61 60 58 56 56 56 56 59 65 71 78 102 158 255 225 103 92 86 81 77 74 73 73 74 75 75 75 73 77 84 83 85 86 87 86 87 85 82 81 80 78 77 74 72 69 64 63 61 60 59 56 55 55 55 56 60 65 71 77 90 158 255 216 101 91 86 82 77 73 71 72 72 74 74 75 75 77 81 85 87 88 89 87 86 85 82 82 80 79 76 74 72 67 63 61 61 59 56 54 53 54 55 56 61 66 71 76 69 98 158 131 61 56 54 51 48 44 44 43 43 44 45 46 47 48 49 51 54 55 55 52 52 50 49 49 49 48 47 46 44 41 39 38 37 36 34 33 32 33 34 35 38 41 43 46 34 