P2
48
60
255
21 44 52 57 64 69 73 75 76 79 82 84 85 90 95 98 102 107 106 107 108 105 106 105 108 105 97 94 88 75 75 66 55 38 27 28 23 25 23 24 24 23 24 28 32 34 35 23 32 68 86 95 105 113 119 122 126 128 133 135 138 145 152 162 167 175 169 173 175 175 174 176 175 170 160 159 150 141 132 123 113 92 57 48 41 40 37 39 37 38 36 40 52 55 55 38 29 68 87 98 107 113 118 122 128 133 134 135 141 146 150 162 168 174 176 178 177 180 176 179 180 169 169 166 164 161 152 144 135 127 100 62 51 38 39 40 40 36 32 34 51 55 55 35 29 72 90 100 107 114 118 124 130 134 137 140 145 150 154 165 169 171 181 180 183 180 178 180 178 178 175 173 172 168 166 161 158 153 147 116 81 52 42 47 45 37 32 31 46 54 57 33 31 75 92 101 108 114 118 124 131 135 140 145 147 152 155 163 172 175 180 183 180 174 181 183 178 178 176 179 177 173 173 170 170 163 166 158 136 112 64 54 56 45 33 32 37 53 54 34 35 78 96 103 109 113 119 127 133 139 144 147 151 157 153 161 170 169 175 175 175 177 179 179 175 175 176 183 183 177 169 174 170 166 167 174 169 163 127 87 65 61 39 34 33 48 55 38 41 84 97 103 108 115 121 129 137 141 143 149 156 162 156 160 166 166 167 168 169 167 172 174 170 170 171 178 176 168 165 161 158 161 159 159 158 155 145 127 101 76 59 41 36 45 56 37 50 91 98 104 111 116 122 129 132 135 134 138 148 156 154 157 155 157 158 159 163 162 164 164 164 162 161 161 157 153 153 152 153 150 143 128 115 110 111 107 102 96 86 62 50 49 54 34 56 96 99 106 109 109 102 98 94 99 99 101 114 130 143 147 147 147 147 153 156 157 158 160 157 159 158 155 147 140 131 117 109 111 108 102 100 101 100 101 95 88 78 81 69 58 56 36 60 98 102 100 85 80 79 83 84 82 80 84 89 88 100 117 131 137 142 145 150 153 154 156 156 156 151 148 141 132 121 118 114 117 119 116 120 130 142 142 125 106 90 76 74 69 57 37 60 101 96 82 85 95 97 102 108 111 112 112 112 110 104 110 115 119 132 139 145 148 149 148 154 153 148 144 136 132 128 129 131 134 132 145 156 167 175 181 169 145 119 91 78 69 58 35 62 102 98 100 114 125 132 137 142 150 158 158 148 140 130 118 122 119 124 131 135 140 144 147 151 150 145 140 138 136 136 138 143 149 157 167 171 174 180 179 170 153 133 110 95 81 65 35 63 103 105 111 118 124 131 135 143 157 164 165 158 154 147 138 130 125 123 123 127 132 141 146 147 147 144 138 137 138 139 141 144 150 156 159 159 160 166 167 159 148 131 110 97 86 75 38 65 104 103 108 114 118 121 124 127 125 120 122 130 141 146 146 139 132 126 120 120 128 137 144 149 146 141 134 135 138 142 142 138 129 112 99 94 96 106 111 118 128 122 107 95 85 76 43 67 107 103 105 106 105 95 71 55 60 42 59 43 65 89 131 140 136 129 122 124 130 141 147 154 151 144 136 135 137 140 135 110 84 59 71 51 91 49 66 75 85 95 99 93 85 79 47 70 111 106 102 97 80 59 51 77 98 45 49 38 60 63 83 128 136 134 125 122 135 151 164 167 162 149 140 138 136 134 110 80 108 68 46 38 51 53 104 72 60 71 81 87 84 80 49 72 117 111 102 89 73 67 85 102 117 66 43 41 50 110 103 95 138 138 134 125 135 160 182 185 174 158 153 145 140 135 93 108 138 112 52 45 48 90 127 113 91 78 76 83 83 83 52 75 124 121 110 102 100 95 100 113 121 120 88 79 104 136 122 114 131 153 141 130 140 161 181 188 179 169 169 164 155 130 116 123 126 136 118 94 111 139 135 135 122 109 100 99 96 97 59 77 130 132 128 122 116 112 110 119 124 122 127 132 133 137 142 147 137 159 139 135 141 162 178 179 178 171 173 174 164 146 141 133 131 137 142 146 149 155 153 144 137 134 125 119 112 107 64 78 131 135 136 134 128 128 123 119 123 127 131 135 132 133 140 147 159 155 136 137 142 162 177 176 174 173 171 174 177 165 150 143 139 138 141 144 146 148 151 159 164 159 146 131 120 112 65 79 132 138 141 143 144 143 143 145 145 144 148 148 150 152 156 165 170 147 137 133 142 159 173 175 173 169 170 170 179 181 172 163 159 160 161 163 165 170 177 179 178 174 162 147 127 115 65 78 133 141 146 151 153 154 154 158 159 160 161 159 157 158 168 167 153 144 139 133 142 164 177 177 171 166 165 171 176 182 180 175 168 167 167 171 174 179 183 184 186 181 175 161 144 120 67 78 135 142 151 156 155 159 162 162 163 160 159 160 163 168 169 155 142 142 136 133 144 165 175 175 167 160 160 169 171 185 180 182 179 175 172 170 172 181 186 187 189 187 184 175 159 132 70 76 132 141 150 154 162 167 170 167 166 166 164 168 170 172 161 152 138 140 134 134 146 166 172 171 170 157 151 162 168 180 186 183 181 183 182 178 178 183 187 189 191 191 189 182 170 147 76 75 129 139 147 156 164 170 177 175 175 173 174 176 172 165 160 151 141 136 132 137 150 163 165 165 164 159 152 151 158 176 185 184 182 183 186 185 181 186 188 191 194 195 191 185 171 151 81 74 126 134 144 153 163 168 171 172 176 179 177 173 167 165 158 151 134 128 132 138 151 160 166 174 165 157 152 150 152 166 180 184 183 182 184 187 189 190 189 187 190 195 194 187 172 159 88 70 122 131 140 148 153 166 170 176 182 180 178 169 166 169 159 144 123 120 128 136 150 165 173 176 183 159 147 148 150 151 166 178 183 185 184 186 191 187 187 181 188 195 190 184 172 162 91 72 120 130 139 145 151 165 173 177 180 179 175 173 170 165 152 129 120 122 127 137 152 173 187 190 191 165 147 149 152 145 148 166 181 184 183 188 190 190 188 191 192 198 192 183 173 165 94 70 117 127 136 144 152 163 170 173 177 174 180 175 170 159 140 117 130 135 134 142 153 180 185 182 184 169 155 157 155 150 141 154 167 177 180 187 188 189 189 190 194 193 191 182 173 163 94 68 116 126 134 143 152 157 161 170 173 173 175 176 164 149 127 120 137 146 147 137 144 158 164 164 163 156 166 173 162 152 141 146 160 175 180 182 186 187 192 193 191 190 187 181 173 164 96 67 115 125 133 140 150 155 161 166 170 174 177 172 160 140 123 121 133 136 127 118 123 140 146 150 140 134 144 155 157 151 138 135 156 168 175 179 183 184 187 188 187 187 184 178 172 163 94 66 109 121 132 138 143 154 158 163 166 169 169 165 151 137 120 111 113 85 49 63 103 120 126 126 117 78 56 80 123 133 128 129 156 163 169 178 178 180 182 184 183 181 177 172 165 160 93 66 108 111 126 136 139 149 153 158 163 166 168 167 157 142 124 103 97 88 86 101 97 95 100 106 106 106 99 90 98 107 114 142 163 163 164 166 170 173 175 177 175 170 165 166 160 156 93 62 113 114 119 132 137 141 150 153 158 161 161 162 162 153 140 126 109 101 106 115 122 122 110 119 136 144 138 122 121 135 148 163 170 167 164 163 163 169 171 173 170 164 161 162 159 153 93 58 105 116 120 127 132 138 145 142 139 155 160 161 165 158 150 143 141 134 131 128 144 156 151 152 164 165 159 159 164 170 175 177 173 168 162 159 164 163 167 169 166 163 161 158 152 149 90 55 100 110 116 123 129 129 140 144 144 153 158 160 162 158 156 150 147 144 143 143 155 164 159 158 165 165 162 164 168 170 175 176 174 171 164 163 162 160 161 157 158 161 158 155 149 145 87 54 97 107 114 120 125 131 137 139 141 144 151 155 156 156 155 149 147 147 146 149 156 164 159 159 163 165 164 166 167 158 162 173 176 174 165 161 162 159 160 159 159 157 152 150 148 145 86 53 95 105 112 117 121 127 131 134 135 141 144 147 149 149 148 144 143 143 143 145 153 159 157 153 156 163 164 164 165 160 158 166 167 166 163 157 158 158 158 158 154 154 150 146 147 143 85 49 94 102 109 115 120 124 126 128 129 135 137 141 142 143 138 136 137 136 134 132 135 150 148 149 152 152 154 155 157 161 160 158 154 152 156 154 154 157 157 154 152 152 151 148 145 142 85 35 91 100 107 113 118 123 127 130 133 135 133 132 133 133 131 130 126 113 101 102 95 99 119 120 112 117 122 116 120 138 148 150 146 144 146 148 148 156 160 159 157 154 154 147 145 142 85 20 79 99 106 111 116 122 128 131 134 135 129 126 124 126 122 113 90 72 70 80 80 77 83 86 88 86 90 86 80 82 99 117 125 131 135 138 145 154 158 160 158 153 152 148 145 141 85 15 59 94 104 109 114 119 126 132 136 134 130 126 121 116 98 76 60 58 56 57 59 63 64 64 69 63 61 59 61 61 58 61 73 104 121 131 143 150 158 159 157 153 150 147 143 139 83 15 35 81 98 105 110 115 123 131 136 137 134 127 116 106 78 49 52 50 48 51 62 76 77 76 80 84 80 60 62 61 66 71 73 102 115 128 141 149 155 156 153 148 145 144 141 136 81 15 25 57 88 100 106 111 117 125 133 137 134 126 115 108 92 78 83 78 70 71 77 84 84 74 80 85 90 82 88 95 103 101 128 135 132 135 144 152 155 154 149 144 142 139 136 129 75 15 24 31 71 91 102 105 109 117 127 134 135 127 121 114 118 98 86 90 91 92 98 104 111 107 106 109 103 100 111 107 109 121 140 145 140 135 140 145 148 145 142 138 137 135 128 119 68 15 24 23 41 76 92 99 103 108 117 124 127 126 123 120 119 107 85 89 96 108 121 119 129 114 125 133 137 145 113 107 119 133 141 148 146 141 141 141 140 137 135 135 130 126 118 108 59 15 24 22 25 50 78 91 96 102 109 114 118 120 124 123 121 112 95 82 84 107 133 145 138 126 130 136 138 115 95 112 122 132 141 147 145 142 138 135 133 130 129 125 120 114 107 95 53 15 25 22 24 26 54 78 89 93 99 104 110 116 119 121 122 118 103 91 79 75 88 100 103 104 103 98 90 91 100 111 125 136 142 142 141 136 136 134 130 124 119 113 109 103 94 82 37 14 26 22 23 22 27 56 77 85 92 97 104 109 113 114 119 119 111 101 88 78 70 72 78 83 82 78 81 90 104 118 130 136 138 139 140 138 138 135 129 120 111 105 99 92 80 53 17 15 26 22 23 22 24 30 53 75 85 90 95 102 108 111 114 116 114 112 104 95 87 80 77 76 79 86 98 111 121 130 134 137 137 138 139 139 138 132 123 110 102 97 88 75 52 31 14 15 25 23 23 22 24 27 29 54 71 81 89 95 102 106 110 113 116 118 119 117 117 116 117 121 125 128 132 134 138 140 141 140 138 137 136 135 130 120 109 102 92 82 69 54 39 27 13 14 24 24 21 21 22 24 25 48 55 65 77 86 95 102 106 112 114 119 124 129 132 135 140 143 143 146 146 149 152 147 143 141 139 137 135 128 122 109 96 86 77 64 56 47 35 25 13 15 23 24 21 21 21 23 25 46 59 55 59 73 86 95 102 108 113 116 124 130 130 142 146 151 151 153 153 155 155 149 144 140 139 136 131 120 107 93 80 68 62 62 56 45 32 23 13 16 23 23 21 21 21 23 26 41 62 63 56 54 69 83 94 100 106 112 119 127 132 139 141 145 148 150 153 154 152 145 142 138 133 125 118 105 89 72 61 63 67 65 55 41 30 23 13 18 24 22 20 20 21 23 28 33 62 69 65 58 53 64 79 89 97 104 110 119 124 127 132 135 139 141 142 142 141 138 135 127 120 112 99 81 64 62 68 72 72 64 52 39 28 24 13 19 25 22 20 20 20 23 29 31 52 76 74 69 61 54 58 73 84 92 98 105 113 117 122 124 124 126 127 126 125 122 116 109 100 84 68 62 67 74 77 78 71 60 48 36 27 23 12 20 25 22 20 19 20 22 29 31 44 73 84 76 71 65 57 55 61 73 82 86 91 97 101 105 105 104 106 104 101 95 90 80 68 62 67 74 79 81 82 77 69 57 45 33 26 23 13 19 25 21 19 19 20 22 31 32 40 61 80 86 78 72 68 62 56 53 57 63 67 70 72 75 75 76 75 71 66 62 61 62 68 75 81 85 86 86 82 76 66 54 42 30 25 23 14 18 25 19 20 19 19 21 32 34 42 52 72 86 92 83 74 72 66 61 55 51 49 48 49 48 48 49 50 52 56 62 70 77 82 85 88 91 91 87 82 74 61 48 39 30 26 24 14 10 16 12 12 12 12 14 20 22 27 32 43 51 55 57 51 48 45 42 39 36 33 31 30 29 30 32 34 37 41 45 48 51 54 56 57 57 56 54 50 43 34 29 23 19 17 14 7 