P2
48
60
255
50 77 71 65 65 65 64 63 64 67 68 69 72 73 72 73 75 75 75 77 77 77 77 77 78 80 78 78 78 78 73 74 74 71 70 67 65 62 62 62 62 62 66 67 66 69 74 51 74 120 113 105 106 105 105 105 107 112 117 118 121 122 122 121 123 125 123 123 123 125 124 127 126 130 130 128 126 126 123 125 122 119 115 111 108 103 102 102 100 100 105 107 104 106 119 78 75 119 113 105 103 104 104 108 111 114 120 122 122 123 127 127 126 124 125 125 124 126 126 127 126 128 129 129 129 128 125 123 121 121 118 113 110 106 103 102 100 101 105 108 105 99 108 78 77 118 110 102 102 105 108 117 123 125 125 125 128 129 130 128 128 126 127 126 125 127 127 128 125 127 129 130 127 128 128 127 127 124 122 119 117 114 107 102 99 102 104 108 104 109 104 70 74 116 109 100 106 110 118 121 123 124 120 125 129 130 128 126 128 129 127 128 129 126 125 127 127 129 129 129 127 128 127 129 127 125 124 122 121 118 116 108 100 100 102 106 105 105 107 67 73 117 107 109 110 118 125 122 121 122 121 124 126 124 125 124 125 126 124 126 123 119 121 125 126 129 128 128 127 126 128 130 126 122 122 122 118 118 116 111 105 100 101 104 105 100 103 64 77 119 108 112 117 119 114 104 105 102 109 114 114 114 114 115 120 120 119 124 122 114 120 121 124 126 122 126 126 122 124 126 125 115 115 116 113 112 113 110 109 104 104 104 105 92 95 62 78 120 115 122 118 100 86 79 75 79 91 97 92 89 93 100 109 113 117 122 120 106 109 113 119 118 114 119 117 119 119 115 109 103 100 95 91 97 93 95 102 109 107 104 104 89 90 58 84 122 123 124 103 89 68 65 65 69 68 60 57 63 71 80 93 100 108 111 111 106 106 112 115 114 104 112 111 112 104 96 81 69 61 59 61 59 61 67 68 84 107 106 104 88 85 58 87 129 135 104 91 74 58 55 53 52 53 49 45 49 55 66 77 86 97 106 105 100 107 111 111 108 95 103 104 99 88 75 58 50 49 51 52 56 52 52 52 53 82 107 104 87 84 54 88 142 128 92 83 62 50 50 52 54 56 56 55 52 55 64 73 80 90 99 99 96 106 111 111 105 90 91 91 83 78 66 54 48 47 51 51 57 57 58 59 62 62 97 103 83 81 52 87 142 112 87 75 60 56 63 72 79 86 85 77 68 63 61 64 71 81 87 91 98 107 110 111 108 92 82 80 73 65 57 55 57 62 68 67 66 67 62 59 63 62 83 101 81 72 54 86 126 101 83 69 64 69 81 89 96 96 89 84 82 77 68 60 59 68 75 88 99 106 109 112 103 95 80 70 61 58 61 67 72 79 85 88 86 84 81 70 63 60 78 99 78 69 56 76 107 94 88 77 77 81 83 73 70 70 63 56 51 64 71 64 54 63 74 89 100 113 116 117 109 98 86 71 59 60 61 54 52 57 65 65 71 81 82 81 72 68 79 96 79 67 51 66 99 93 96 87 84 71 61 63 55 44 51 68 65 48 50 59 53 61 74 89 101 114 120 121 114 98 85 69 57 50 43 54 57 44 45 46 53 56 59 73 72 74 81 97 85 65 51 56 94 95 100 82 59 61 52 46 38 27 31 36 55 60 52 50 53 59 73 82 97 108 112 113 107 94 84 63 52 49 51 42 30 27 41 57 64 50 49 52 69 78 79 98 88 68 49 50 80 89 83 49 47 52 86 86 51 45 48 66 75 56 58 59 66 62 76 78 93 105 109 110 107 92 82 67 70 53 55 61 52 47 54 89 94 63 51 40 58 77 83 101 94 68 46 47 74 72 57 50 73 92 96 97 91 78 82 93 89 90 83 84 86 76 79 79 93 104 105 108 106 93 80 83 79 78 79 89 90 94 93 95 91 89 83 58 52 73 82 100 97 68 51 50 74 71 76 86 107 107 103 98 94 88 87 91 93 91 91 96 94 81 77 81 96 110 107 104 105 96 82 82 93 96 91 90 90 97 98 95 92 91 92 85 74 74 83 100 103 71 50 55 88 83 89 95 110 103 98 99 99 95 97 96 94 90 89 86 87 84 78 86 103 108 111 110 107 98 86 85 90 87 86 86 85 88 92 92 90 88 89 91 85 84 89 101 108 79 53 60 97 94 103 99 100 98 93 92 88 85 84 86 85 83 77 82 93 87 82 94 105 109 112 113 107 101 94 89 88 82 77 79 76 71 72 73 75 79 82 84 86 86 92 102 113 81 51 62 100 100 97 97 94 83 80 80 79 76 79 78 79 78 86 98 101 91 88 100 104 108 111 115 111 102 100 92 93 92 86 76 72 69 71 72 76 82 82 84 91 95 96 102 113 87 50 66 103 101 99 94 93 90 85 78 81 87 80 79 83 96 105 104 100 91 97 102 109 112 113 115 113 104 98 100 98 98 101 91 84 81 81 84 87 86 91 96 100 102 100 103 111 93 48 69 111 109 106 105 97 98 94 88 87 86 87 99 107 112 109 103 100 102 104 108 115 115 114 118 114 110 99 102 100 99 104 102 99 100 101 101 99 101 101 104 104 104 106 105 112 96 50 71 116 111 112 114 112 113 114 111 110 107 112 116 113 110 103 102 107 108 115 118 116 117 116 117 116 115 107 104 105 100 105 108 112 110 107 112 108 107 106 107 106 107 108 107 113 99 50 76 120 116 117 119 120 120 121 120 121 120 117 114 111 108 106 105 108 108 126 126 121 121 121 121 118 115 112 107 108 106 104 105 110 116 113 111 110 111 115 111 109 109 108 109 113 97 56 76 118 122 124 123 127 130 129 123 125 121 118 113 110 113 107 95 102 104 127 136 122 121 123 121 122 118 114 111 106 103 106 107 109 116 116 116 113 118 120 119 114 112 111 112 114 101 57 77 124 124 125 127 131 129 129 127 130 121 118 116 117 110 90 97 106 103 134 141 127 129 123 126 124 116 113 114 106 101 97 106 109 110 113 117 118 120 119 119 117 114 111 112 114 111 61 77 122 125 130 125 128 131 129 125 126 120 121 118 113 93 78 109 114 112 141 141 125 126 119 124 129 118 114 112 110 109 93 101 108 112 112 120 116 120 119 121 118 114 111 111 113 107 62 82 126 131 131 126 127 132 130 127 122 123 120 109 97 74 80 119 121 120 145 137 116 110 104 108 115 113 110 109 108 113 99 88 106 108 112 118 120 119 119 119 119 116 111 110 113 102 58 80 131 134 125 127 126 125 123 124 124 121 114 104 78 69 82 116 110 112 122 121 109 100 96 101 102 104 104 102 101 105 101 77 88 105 114 115 119 119 117 115 116 115 110 109 113 104 62 81 132 136 129 128 121 120 120 119 124 113 108 88 68 74 79 91 73 58 67 95 100 92 89 93 91 90 88 73 75 84 95 73 76 93 112 116 117 117 115 115 116 114 112 111 112 107 63 84 133 138 133 122 121 122 120 118 114 107 97 77 73 84 84 74 53 37 31 51 79 80 80 79 78 75 46 30 44 71 90 83 67 80 100 113 114 113 115 115 115 114 111 110 111 107 65 81 127 135 128 123 121 118 121 119 112 104 91 76 84 86 89 79 54 38 41 53 57 68 66 63 61 46 34 36 46 74 98 96 73 71 90 106 109 113 113 112 112 112 111 108 108 108 63 78 131 136 128 126 121 119 116 112 110 99 88 86 95 90 88 81 70 50 45 50 51 47 47 44 45 52 44 44 54 83 96 98 88 72 86 99 105 106 111 112 111 112 111 107 107 102 70 79 130 127 124 126 118 116 111 110 101 95 90 98 97 90 80 68 62 48 51 44 45 43 47 46 46 52 54 50 60 75 84 98 97 83 84 94 98 103 107 110 113 110 109 104 103 110 68 74 123 124 127 119 114 111 110 107 97 87 98 99 90 85 71 58 55 52 53 47 49 40 56 50 44 47 53 60 52 59 75 86 93 90 84 92 98 101 104 107 110 107 107 100 100 112 71 70 118 130 124 112 107 106 105 98 89 89 97 88 82 75 69 48 58 55 54 51 51 42 59 48 42 56 55 60 57 58 70 79 82 87 85 88 93 98 100 104 109 105 103 100 100 106 69 66 118 125 117 103 100 100 101 91 81 89 82 71 72 72 54 50 57 49 46 45 43 45 53 47 39 51 47 50 57 60 67 66 89 77 83 79 86 94 96 98 104 99 101 101 105 106 68 65 122 118 106 99 98 99 94 75 74 84 72 64 65 68 52 55 54 46 46 44 42 63 67 58 46 50 47 47 55 57 63 63 79 80 73 81 80 87 93 96 97 94 98 97 98 108 70 64 116 109 98 99 99 92 76 67 76 70 59 59 54 62 49 55 60 63 64 68 66 91 93 93 75 81 75 63 58 59 54 64 69 70 64 79 76 83 92 92 93 89 86 98 103 105 86 61 110 100 98 100 98 85 64 62 67 57 48 47 58 67 64 72 79 78 75 74 79 87 99 97 81 76 81 80 74 69 62 63 62 59 60 67 83 81 88 88 86 84 83 96 109 114 107 60 105 98 99 97 94 83 65 56 57 53 49 57 68 68 65 64 70 72 78 80 79 82 83 82 82 82 83 79 73 72 72 72 62 53 49 53 69 84 89 87 83 80 85 92 113 125 115 58 102 91 93 94 95 81 61 50 43 46 46 47 49 62 66 75 80 83 80 75 75 75 75 75 78 78 76 77 73 60 52 58 60 56 47 53 63 76 88 85 83 80 88 96 114 126 119 63 97 88 93 91 92 75 56 38 39 47 60 76 73 82 85 89 93 100 110 108 105 103 97 107 108 101 90 86 84 75 59 57 54 49 45 47 54 82 86 86 81 75 87 98 115 134 127 60 95 88 88 91 88 79 62 45 57 76 88 90 94 94 89 86 85 90 97 103 100 107 106 107 106 93 89 83 84 85 87 92 83 68 58 53 58 77 81 80 77 77 86 96 113 161 132 53 90 87 87 87 82 77 71 51 71 92 96 97 100 101 102 102 98 92 90 98 102 102 102 101 96 87 86 91 96 99 100 96 91 85 70 63 59 77 76 76 71 72 83 102 111 170 132 58 85 83 79 84 81 70 71 59 81 96 103 103 104 108 110 112 113 112 113 111 106 106 108 110 110 110 107 106 105 103 104 99 95 93 75 64 64 79 76 74 68 69 85 103 123 187 133 53 83 78 84 79 78 66 66 73 86 97 101 103 105 105 102 106 103 104 102 89 83 83 77 84 88 97 99 96 92 98 99 98 98 94 78 66 69 80 74 71 63 75 86 112 128 197 133 53 82 84 79 80 74 65 58 72 84 95 99 100 100 95 91 87 82 80 76 72 75 70 64 60 65 70 74 80 79 84 96 97 94 87 73 65 76 73 75 68 68 77 87 119 141 204 139 58 77 81 71 78 72 64 64 72 78 87 99 99 92 87 82 78 75 75 69 60 71 68 59 55 56 63 65 71 77 79 91 92 90 80 76 67 78 70 72 72 69 76 92 121 155 215 142 63 81 73 69 79 74 63 70 79 77 84 95 97 92 84 84 75 76 76 68 58 67 64 63 57 56 62 66 73 77 81 88 91 87 77 74 67 86 62 70 67 74 82 97 129 183 226 142 57 77 64 71 79 76 65 73 73 77 84 90 87 93 87 84 78 77 70 61 56 60 62 62 57 57 57 68 73 78 87 84 89 89 83 77 72 88 67 68 71 78 89 107 146 213 228 142 59 75 71 74 81 77 78 74 71 71 80 82 92 96 95 92 91 81 77 68 67 67 66 61 61 59 66 71 85 89 94 88 84 87 81 84 77 87 70 68 74 83 99 121 181 226 229 142 55 72 75 76 82 70 68 73 75 69 76 87 96 97 101 103 104 103 96 82 69 70 66 63 64 61 73 85 96 98 97 89 76 75 79 85 77 85 70 65 76 75 101 142 215 226 229 141 52 77 84 80 80 68 66 78 76 74 74 82 94 89 96 106 113 110 103 86 72 85 74 73 69 72 89 90 98 99 92 92 76 73 71 88 77 74 70 68 75 80 119 174 227 226 228 141 59 90 87 85 83 67 71 78 76 73 72 81 87 81 90 94 110 107 99 89 88 86 86 89 79 76 88 93 94 92 82 89 83 73 68 91 82 78 70 70 74 92 155 213 229 229 229 141 53 100 89 90 74 63 73 82 88 66 75 81 75 82 77 83 96 93 87 81 81 79 81 84 80 77 79 85 81 82 83 84 84 76 74 89 88 75 67 73 85 131 192 226 228 229 228 141 66 103 101 95 76 72 76 100 80 69 79 75 80 78 71 81 84 80 81 70 67 74 71 71 69 77 76 78 74 76 90 87 89 81 71 86 89 75 67 82 114 195 222 225 229 229 228 141 46 66 68 56 45 39 43 61 44 41 42 46 58 42 44 49 50 46 46 42 40 42 42 42 39 46 45 49 44 50 56 51 57 53 43 50 59 49 43 67 108 135 142 141 143 142 141 87 