P2
48
60
255
31 57 64 85 79 77 72 62 71 71 75 93 94 93 91 91 92 94 93 91 95 96 94 96 97 96 95 97 96 93 93 91 93 93 90 89 87 89 84 82 79 72 62 61 67 69 66 37 48 96 113 133 130 112 101 97 119 110 147 149 146 148 149 152 151 153 153 153 151 160 155 157 157 158 154 154 151 149 148 144 139 141 142 140 140 141 137 134 129 119 101 97 101 107 108 63 48 96 117 120 122 102 89 122 116 139 146 146 150 151 157 156 156 153 151 150 150 150 155 156 151 156 155 156 156 149 150 148 146 143 146 141 140 138 141 136 130 120 104 98 95 97 111 72 60 101 119 117 104 89 97 115 136 153 152 152 152 155 160 161 158 157 156 159 157 158 165 161 160 157 156 155 156 154 158 154 150 147 148 142 143 140 137 136 133 121 107 95 91 89 89 69 71 113 121 109 95 94 105 131 157 160 157 160 163 162 164 170 170 167 165 167 164 160 158 167 165 160 155 158 159 156 163 158 152 150 149 151 147 145 140 138 130 118 107 93 89 85 81 56 72 116 114 108 93 114 132 157 163 166 165 166 171 170 173 174 183 182 177 172 170 165 166 163 166 169 165 162 171 169 167 164 158 156 155 157 150 148 147 137 132 118 108 93 88 83 74 48 69 118 114 126 128 142 155 159 164 165 163 164 170 171 174 184 186 189 190 187 185 177 181 176 174 176 179 179 183 179 174 168 160 157 157 156 149 151 149 141 135 124 109 94 86 81 67 43 71 114 116 133 142 146 145 150 157 160 160 167 167 172 183 186 181 190 192 193 192 192 189 192 183 185 195 188 185 182 179 168 162 160 154 154 153 147 141 136 135 126 112 97 85 81 67 39 72 112 124 133 133 122 125 135 142 145 152 161 167 166 171 178 180 184 184 180 190 197 197 201 185 185 195 182 175 174 177 155 155 157 162 145 138 132 127 120 121 116 112 100 87 80 70 37 67 108 110 111 112 113 117 123 125 140 145 138 138 140 144 164 163 155 160 153 161 168 164 165 160 156 153 143 142 130 130 122 126 114 120 113 109 105 109 104 101 98 89 88 86 81 73 39 66 107 130 154 177 194 163 132 139 181 156 129 126 113 120 141 136 118 113 115 127 136 141 142 138 136 121 116 116 142 182 165 130 106 96 96 90 93 98 97 98 92 84 77 72 73 75 43 73 119 119 123 137 152 167 135 140 134 145 104 98 91 90 102 107 102 102 127 148 157 171 157 146 142 133 130 157 168 124 105 117 122 107 98 87 83 94 95 86 82 79 75 64 66 67 45 82 131 107 101 111 114 127 129 140 165 178 137 122 112 99 102 112 110 108 114 128 141 148 153 149 132 126 135 149 143 117 118 170 208 165 134 124 108 98 99 92 83 81 71 69 65 64 45 78 115 87 86 97 105 129 151 176 235 171 130 120 115 110 108 107 114 109 111 96 144 196 174 135 100 77 105 125 122 124 154 223 249 224 151 134 126 119 119 110 94 82 71 71 67 63 50 79 105 84 93 102 107 115 124 165 223 135 105 96 92 97 102 109 110 112 103 62 160 235 220 167 129 53 109 110 114 121 125 136 151 158 154 124 109 103 101 104 98 88 75 71 69 66 54 78 93 88 96 105 96 105 110 138 119 78 77 91 95 109 108 104 110 118 119 102 119 143 144 125 105 105 116 104 104 108 120 118 113 89 80 81 82 88 95 85 89 89 78 71 68 73 53 76 90 89 91 85 87 85 82 85 69 70 94 146 121 109 114 122 102 116 116 94 127 147 159 144 118 92 111 104 100 117 102 121 182 104 73 65 77 82 76 81 81 85 78 73 62 67 45 58 93 90 87 79 78 98 118 90 86 95 112 118 111 122 112 116 110 106 99 84 116 150 158 150 117 83 96 112 110 100 101 109 128 116 89 79 87 121 93 72 74 79 78 74 58 59 46 67 98 95 96 87 91 105 111 112 121 130 128 121 120 125 123 112 107 95 80 81 127 152 158 154 131 90 81 117 103 109 114 123 131 137 129 107 103 107 92 77 74 80 85 79 65 70 53 69 101 101 107 104 105 109 110 116 123 126 127 124 123 120 116 126 112 77 76 90 130 146 152 145 135 94 74 95 96 109 110 116 129 137 128 124 115 109 93 83 87 90 91 83 74 81 55 66 100 103 108 111 117 115 117 123 127 135 138 135 132 132 136 135 96 86 78 114 135 140 144 135 130 109 79 82 116 121 116 121 132 139 138 131 123 111 99 93 96 101 97 87 74 88 57 66 105 109 113 118 123 121 122 128 132 139 134 128 135 142 143 121 104 127 115 123 128 132 132 127 119 109 96 94 97 131 128 121 123 139 145 144 133 123 109 98 101 109 107 89 76 88 57 67 107 115 123 131 130 127 127 131 132 133 134 140 147 140 129 110 109 125 122 115 117 120 123 121 116 103 101 101 96 110 128 129 125 132 144 136 132 126 117 108 110 111 106 92 84 92 57 71 110 121 129 132 133 133 136 133 135 135 142 148 144 138 124 108 113 129 114 147 120 119 121 116 111 103 92 107 102 85 120 134 132 130 132 133 136 132 127 118 116 111 102 89 88 93 57 87 116 121 127 133 138 140 140 141 138 144 149 149 150 146 123 115 133 118 112 132 124 124 124 123 116 107 90 96 117 104 90 128 136 135 132 133 137 136 132 128 122 109 99 88 89 105 70 79 130 122 131 133 137 145 154 155 158 167 165 166 157 132 122 124 122 107 108 125 140 142 139 141 135 120 99 85 112 123 120 86 113 132 137 134 131 134 131 126 119 109 103 104 100 97 52 70 114 142 130 132 141 149 161 176 175 188 180 194 150 127 138 116 110 102 120 141 157 170 168 166 158 140 119 92 101 122 145 149 113 88 97 113 120 126 126 118 110 102 95 85 79 78 47 104 156 139 126 123 139 146 156 152 142 145 143 155 176 175 128 117 124 111 127 139 164 190 225 210 168 146 127 107 91 114 158 172 159 150 139 118 107 105 107 121 124 125 129 128 129 119 64 95 162 156 159 157 157 154 152 156 163 181 185 179 180 160 115 130 129 124 122 124 152 167 177 171 153 128 120 116 93 104 160 179 162 161 159 152 154 154 154 155 155 150 154 155 150 126 65 95 161 161 164 169 169 169 170 173 181 185 189 175 167 153 119 139 140 131 114 110 135 146 141 138 130 110 118 128 110 101 154 178 184 179 166 163 154 154 158 156 151 144 143 138 130 116 64 96 165 166 167 171 169 169 170 176 183 183 187 176 164 145 117 132 110 91 63 82 100 121 118 114 91 62 93 125 124 106 136 187 187 179 171 168 162 156 151 152 148 142 137 137 126 110 61 94 161 165 169 165 168 169 173 179 182 182 182 172 167 151 115 114 134 139 125 135 115 100 100 95 101 90 109 115 121 104 131 177 187 180 174 167 160 156 153 150 148 146 141 134 121 107 58 94 158 163 166 163 166 169 171 175 181 184 177 172 163 145 138 114 109 126 138 150 143 125 118 126 147 142 144 144 111 97 145 169 183 178 168 164 161 154 150 149 150 146 141 130 121 108 56 93 155 160 162 167 167 167 170 174 178 178 172 166 160 148 142 133 125 121 138 145 161 161 158 163 156 131 108 100 111 128 144 162 170 174 169 163 158 153 148 148 148 144 138 130 124 106 56 93 154 154 157 164 164 166 167 171 177 173 170 163 160 152 142 136 135 134 148 161 155 162 176 171 155 132 120 125 130 134 143 158 165 167 162 157 156 152 147 146 146 142 135 130 121 103 54 90 157 158 157 163 161 162 163 169 173 169 168 162 155 144 140 137 140 140 154 170 165 167 175 171 153 141 127 126 129 137 142 146 157 161 156 153 153 146 148 143 142 137 137 133 119 98 49 92 154 157 159 163 159 158 160 164 164 161 165 160 148 144 142 134 136 146 164 177 178 181 175 172 159 147 127 124 125 131 139 143 166 157 151 147 145 144 144 140 137 133 134 132 110 96 47 95 154 156 161 155 157 153 155 159 155 155 156 153 142 140 138 133 134 138 153 158 160 162 157 164 159 145 135 128 127 123 130 141 145 148 151 137 138 140 139 136 135 138 133 122 107 91 48 94 150 158 162 159 157 155 148 151 156 160 152 149 141 129 129 128 129 136 150 157 151 145 145 147 142 132 123 120 123 126 125 141 140 141 143 134 131 138 137 138 136 136 130 118 102 86 48 94 148 154 161 160 157 153 149 149 143 148 138 129 126 116 114 111 110 113 120 125 136 154 140 128 125 129 122 115 115 123 128 137 135 139 133 129 127 128 139 136 138 136 122 114 98 83 47 89 143 143 150 153 154 161 157 145 134 120 106 99 102 96 93 93 86 95 92 96 102 108 105 101 103 107 113 115 109 118 130 142 142 143 132 124 127 130 143 140 137 128 118 106 96 80 41 88 139 141 147 151 157 170 166 148 137 135 129 112 90 90 94 96 104 141 136 130 115 104 102 110 108 86 90 99 105 109 120 135 142 141 131 130 125 131 142 136 133 122 113 103 93 77 31 88 142 142 147 151 158 172 170 157 163 157 149 138 117 108 110 110 99 91 108 128 151 164 150 151 141 110 94 85 79 89 99 115 136 138 138 140 127 129 130 126 124 120 111 101 91 70 27 89 139 140 142 151 160 161 162 163 165 160 154 147 122 114 114 110 125 124 115 106 99 100 96 98 95 92 100 102 90 88 103 116 130 141 141 139 138 128 127 121 120 115 106 99 88 57 26 85 138 139 143 149 159 156 154 153 155 159 156 156 134 117 114 118 129 140 133 131 124 122 123 126 121 122 111 105 94 99 119 134 147 147 151 148 142 124 118 115 116 112 103 96 81 46 26 83 130 132 143 147 157 148 146 150 152 160 161 158 153 133 116 110 118 136 151 153 138 150 140 137 128 118 112 102 102 108 114 134 145 152 152 148 142 119 116 114 112 109 102 92 70 42 26 82 135 137 139 143 150 140 140 140 146 153 159 161 158 151 141 127 115 111 113 114 121 128 130 132 131 119 113 108 105 113 126 138 142 144 143 141 136 116 112 113 108 108 99 86 54 42 26 79 133 134 134 137 138 141 137 140 144 152 154 157 159 154 153 148 140 128 123 113 104 105 108 105 105 105 105 109 119 135 142 138 131 138 136 134 127 115 111 109 105 105 94 77 44 42 26 78 129 129 126 130 131 134 134 132 138 140 146 154 159 160 160 155 153 147 145 139 140 137 141 138 136 131 134 132 141 139 135 132 130 128 131 128 123 115 110 107 105 99 89 57 42 42 26 73 124 127 125 126 126 129 128 130 136 131 140 152 153 159 157 144 134 137 144 143 140 146 151 154 148 143 140 137 139 133 130 128 123 118 119 120 117 112 107 105 100 95 75 43 42 42 26 68 114 124 120 120 116 118 121 123 125 127 131 145 149 149 142 132 128 137 138 139 139 135 138 145 144 145 138 138 134 129 125 119 116 112 110 115 112 107 103 103 97 85 52 41 41 41 26 59 108 115 118 115 113 112 118 121 124 128 132 130 138 142 136 133 141 142 143 145 143 140 133 129 135 136 137 133 129 120 118 113 113 113 109 111 107 103 104 98 90 72 46 41 42 42 26 52 96 108 114 118 111 110 114 118 121 126 128 124 131 135 136 135 144 146 147 150 150 143 138 132 129 131 132 130 122 112 113 112 113 109 105 106 101 101 101 93 77 61 49 55 42 42 26 55 84 95 104 110 107 105 106 112 119 123 124 121 126 132 138 137 147 147 151 151 150 151 147 138 130 125 127 118 110 109 110 108 108 106 100 99 101 97 93 82 61 66 77 124 56 42 26 69 91 86 95 100 102 102 100 104 106 111 112 116 127 130 141 144 154 156 150 161 149 151 148 147 132 119 116 110 107 107 103 101 98 96 93 95 99 93 84 63 70 80 88 127 112 46 26 76 106 90 86 92 98 98 97 93 96 101 110 114 121 129 140 148 150 154 156 155 156 154 159 148 137 124 108 111 107 105 96 95 92 91 95 97 92 84 66 71 89 83 86 113 148 80 26 80 118 104 92 91 91 94 92 89 86 90 102 107 113 122 137 143 148 146 148 145 148 147 149 146 135 120 109 103 102 93 85 86 87 93 94 90 83 68 72 93 92 86 110 116 155 130 34 79 125 114 102 96 95 92 92 91 85 80 85 100 106 112 130 139 133 130 130 132 132 136 137 132 126 115 108 101 94 78 80 86 91 92 89 82 71 73 93 99 96 89 110 113 150 150 73 82 126 118 107 101 100 100 99 94 92 90 81 80 91 98 110 119 122 117 119 122 126 125 123 118 111 103 98 91 75 79 84 90 91 88 84 72 75 94 104 101 104 92 100 110 140 158 89 52 79 76 70 64 62 63 62 62 60 60 59 54 46 51 59 62 65 66 67 66 70 68 71 68 63 58 53 43 49 57 57 56 55 53 48 44 55 63 67 66 68 58 55 69 89 105 56 