P2
48
60
255
43 70 75 78 79 80 84 82 84 85 86 87 87 90 88 86 88 89 88 90 90 92 92 91 90 90 90 89 87 92 92 94 95 94 93 90 88 83 77 71 67 64 62 55 47 44 45 28 70 116 124 129 127 131 134 134 137 141 140 141 142 143 142 139 143 143 143 144 144 146 147 141 142 141 145 147 145 146 145 147 152 151 150 147 143 139 132 120 112 108 102 101 83 77 73 46 75 122 126 129 128 134 134 135 140 141 141 141 143 147 145 143 143 143 142 143 138 136 143 144 144 146 145 145 150 148 148 147 147 149 150 148 143 143 137 128 116 109 106 101 95 81 76 45 77 126 128 130 133 133 135 137 139 140 141 143 143 144 142 141 139 141 140 140 139 141 143 142 142 145 148 146 148 143 146 144 146 147 146 146 144 143 139 134 125 112 109 104 99 96 82 46 78 126 131 134 135 137 139 139 140 139 141 143 140 137 139 138 135 139 139 139 139 141 142 145 143 144 145 143 143 143 142 143 144 146 142 145 145 143 141 138 135 123 109 106 100 101 93 52 79 128 133 135 137 138 138 139 139 140 138 138 138 134 132 135 134 132 134 133 135 138 138 144 142 141 138 139 136 138 139 141 141 143 141 140 140 142 142 141 141 134 122 110 100 101 101 56 77 131 136 138 138 138 138 136 134 137 135 133 135 134 131 130 128 127 128 127 128 132 136 136 138 136 136 134 131 129 130 133 138 136 138 137 140 141 144 143 142 139 133 122 104 99 102 62 81 135 139 139 139 138 138 137 134 135 132 133 132 131 129 128 125 123 121 121 123 128 131 132 133 132 134 130 128 125 125 127 131 132 131 129 130 130 137 137 133 134 133 129 115 98 101 65 83 137 139 138 137 132 130 131 127 125 115 109 111 111 114 116 118 116 114 115 116 121 123 126 126 126 118 119 119 121 118 119 116 106 92 91 100 105 109 119 119 120 124 128 124 107 95 66 84 138 140 137 132 123 115 110 104 96 83 76 73 69 76 85 96 102 102 105 112 114 118 120 120 120 121 116 110 106 101 92 80 70 64 64 69 78 82 93 101 104 108 116 122 116 98 62 84 137 139 135 120 109 100 92 86 78 70 68 65 61 66 67 71 80 89 90 101 109 116 120 120 117 113 104 95 88 80 76 68 60 59 61 64 64 69 85 93 99 100 98 106 108 102 58 84 133 130 116 104 102 92 91 82 71 70 70 67 67 64 64 67 70 76 82 94 107 115 122 121 118 111 97 83 75 71 69 67 69 73 84 89 95 98 99 103 107 104 99 94 90 99 62 84 124 119 103 100 98 97 99 100 101 99 97 94 87 82 77 74 75 79 87 97 109 117 123 124 122 113 102 87 77 76 78 83 88 95 105 116 124 127 125 125 126 121 114 101 92 91 66 81 116 108 109 112 111 107 113 112 113 114 109 101 96 94 91 86 82 89 96 102 113 121 126 129 127 121 111 101 90 89 93 91 87 85 88 93 102 107 112 117 121 121 119 107 105 103 66 77 118 122 127 125 111 103 100 93 87 82 84 84 78 69 71 86 86 88 101 110 123 129 132 137 136 127 120 108 90 89 84 68 73 84 85 78 80 82 78 78 95 113 119 117 114 111 72 77 122 129 126 118 102 81 75 84 74 60 59 66 78 94 86 72 77 84 100 111 127 137 141 147 142 130 121 110 90 85 78 85 75 57 47 40 49 46 61 75 71 76 103 113 114 114 71 78 119 126 125 113 79 83 70 56 45 48 37 62 61 72 78 88 84 89 103 113 128 142 149 151 146 131 123 112 99 95 79 65 78 72 44 34 36 43 58 53 57 59 71 100 111 114 74 75 112 119 123 88 67 56 67 83 56 45 38 47 83 119 77 64 78 102 107 114 129 144 148 151 140 129 126 121 121 80 64 78 105 94 51 41 42 52 86 79 61 55 56 83 106 114 74 75 111 113 110 71 68 78 82 98 78 64 64 78 116 123 111 105 102 104 113 118 129 144 149 151 140 128 128 129 125 118 111 112 115 112 98 95 98 105 95 95 95 101 95 84 102 113 74 74 113 110 101 98 108 113 101 102 109 103 110 110 114 123 119 110 101 116 121 117 131 141 145 146 140 131 128 134 132 124 110 111 111 110 108 108 115 121 118 121 128 126 122 125 123 123 79 74 115 114 122 126 125 125 122 122 120 118 120 116 110 102 100 111 118 131 124 118 130 139 145 145 139 128 128 137 137 139 134 111 104 104 105 108 115 119 120 119 116 114 119 133 138 137 85 78 126 128 126 118 113 116 117 117 113 110 100 95 94 109 126 128 130 131 121 122 129 136 140 139 135 131 127 135 141 143 149 147 128 108 102 99 98 98 98 104 118 134 140 140 142 140 83 85 135 133 132 130 128 117 106 95 93 97 104 117 130 135 134 130 135 128 121 123 126 133 137 136 138 129 130 132 139 145 148 150 151 150 139 134 131 127 131 135 140 144 144 145 145 142 85 87 139 142 144 142 144 143 139 136 136 136 137 138 140 142 141 141 136 126 124 123 127 132 133 134 132 128 128 132 139 148 148 149 149 149 150 151 150 152 147 150 148 146 151 150 148 143 85 88 144 148 147 147 149 148 149 147 144 144 142 143 140 142 144 142 131 126 125 126 131 134 135 133 134 129 124 128 134 145 149 149 148 149 147 150 150 154 154 155 157 156 156 154 151 142 87 91 146 148 147 148 151 154 153 149 147 148 146 147 144 145 141 135 123 121 125 130 132 135 134 138 137 135 126 124 129 130 131 142 143 146 147 151 150 150 157 157 163 163 157 154 148 141 87 94 153 150 148 149 150 150 155 153 153 149 147 145 140 137 130 113 110 121 128 130 131 137 139 140 151 147 132 125 126 127 107 113 130 138 141 144 148 152 158 158 163 162 158 155 151 145 87 97 155 151 149 150 149 152 156 155 153 152 143 138 133 124 103 92 116 124 129 130 130 140 136 141 149 143 130 122 125 133 117 87 105 121 130 134 142 147 150 155 158 160 157 154 150 146 86 98 160 153 148 145 146 147 148 145 146 141 132 130 121 104 77 100 125 126 127 125 126 131 126 126 125 121 113 115 123 131 125 90 81 100 116 123 129 133 139 144 151 151 152 150 145 143 87 102 161 152 145 139 141 141 138 138 135 129 124 118 105 80 71 108 125 124 115 110 110 116 119 116 111 104 101 102 113 121 119 96 79 85 98 110 118 121 132 138 140 142 143 143 144 142 85 102 162 152 142 138 135 133 134 129 125 120 114 107 91 71 79 100 110 103 90 95 101 100 105 104 101 99 74 55 72 95 103 101 87 79 87 101 109 116 121 126 130 134 139 138 139 139 84 106 164 148 137 131 130 125 125 122 116 110 108 98 78 74 88 96 88 69 58 61 85 95 88 84 85 81 64 60 62 85 110 110 98 79 79 90 99 106 110 117 122 125 129 133 133 136 82 108 164 143 133 126 125 122 118 115 110 104 99 85 70 80 92 98 95 77 70 76 78 82 80 77 80 87 94 96 100 112 113 110 105 86 72 81 93 101 105 112 119 121 126 128 127 131 82 107 162 139 127 120 118 115 112 112 105 100 91 73 68 85 94 99 101 102 95 97 91 80 72 72 83 98 107 111 115 116 112 111 110 101 74 71 85 92 100 105 113 116 119 124 125 125 76 103 158 137 124 116 112 109 106 104 98 90 79 64 75 91 97 100 103 104 104 103 102 98 101 101 101 109 115 116 117 118 117 114 111 108 89 66 71 84 91 100 106 108 113 118 117 121 73 97 152 130 116 108 105 104 104 98 92 83 68 65 85 95 99 102 104 104 108 108 113 119 120 117 113 117 125 122 121 119 120 118 117 114 106 77 65 69 83 92 102 108 111 111 112 115 72 93 142 123 113 103 100 101 99 94 86 72 60 78 93 99 100 104 107 109 114 118 125 128 125 123 124 126 130 127 126 124 122 120 119 118 112 100 73 67 72 80 91 104 108 109 107 113 69 88 135 116 112 103 101 99 94 87 74 59 67 90 95 102 105 112 111 112 115 116 124 124 121 122 120 122 123 119 121 122 121 119 117 117 112 106 86 68 67 72 82 96 104 108 110 110 69 87 132 117 109 105 102 98 91 78 63 64 78 92 99 105 107 109 106 99 95 94 97 95 96 100 96 95 94 92 89 88 88 94 98 101 102 96 85 65 58 70 80 92 103 110 114 111 71 88 131 117 107 107 103 100 90 72 59 59 72 81 86 86 81 78 76 79 79 79 79 82 82 83 84 82 79 75 73 67 65 59 54 53 54 54 51 49 58 75 89 97 105 113 112 113 71 87 131 117 109 106 105 102 92 78 58 53 49 48 40 34 34 47 67 81 88 83 82 91 82 78 93 112 106 105 108 96 79 54 34 32 48 64 74 74 75 91 104 107 110 113 114 114 70 86 133 120 112 109 109 108 102 90 72 71 76 75 62 44 32 38 75 101 114 105 121 159 147 113 161 196 145 121 137 118 100 69 50 71 89 98 106 108 95 105 114 117 115 114 115 113 70 84 133 121 114 108 111 113 113 105 90 88 93 92 86 81 76 68 83 97 128 143 141 154 154 139 162 162 151 151 134 104 100 95 95 101 105 113 118 117 110 117 121 119 116 114 114 113 69 84 133 123 112 108 109 113 115 115 103 100 103 103 100 99 100 101 103 103 109 116 125 128 129 124 134 132 126 119 117 115 110 104 102 105 111 119 127 123 117 121 121 117 116 115 113 113 69 82 134 124 114 108 107 114 118 121 112 107 110 110 108 108 108 111 112 118 122 127 133 129 129 128 132 134 136 132 123 118 108 102 104 106 114 126 127 128 123 122 122 117 115 111 113 112 68 79 135 128 118 107 110 111 116 122 118 110 109 111 112 112 115 115 114 113 115 122 122 120 119 113 115 117 119 119 113 107 107 105 104 111 120 127 127 124 124 124 120 116 112 109 111 112 67 73 133 133 120 110 110 111 113 118 117 113 106 109 114 116 116 118 115 107 102 103 103 101 99 98 98 99 100 101 103 104 104 107 111 117 123 125 127 127 123 121 117 112 110 109 112 109 66 65 125 132 125 112 108 110 112 113 113 111 109 108 112 114 115 119 117 106 98 95 93 93 91 93 94 97 98 101 102 105 108 112 118 121 125 125 128 126 124 119 113 110 107 106 108 107 62 64 116 133 128 114 109 107 108 109 109 107 108 110 113 115 116 117 115 107 98 94 90 87 87 87 86 90 93 98 101 104 111 117 121 124 128 126 127 123 121 117 111 108 107 108 107 103 60 64 112 125 131 120 110 108 107 106 109 104 108 112 113 118 118 116 113 107 98 92 90 89 87 88 88 89 90 97 103 109 116 119 125 129 131 128 127 124 121 114 109 108 104 104 105 98 58 64 112 120 131 128 114 107 108 109 107 102 105 112 118 120 119 117 114 109 101 96 94 92 91 91 96 99 103 109 115 120 122 127 130 133 131 128 125 122 119 112 110 107 107 105 102 96 58 64 112 119 129 133 120 109 109 112 109 105 106 116 123 123 123 122 119 116 114 113 110 110 110 113 115 116 121 125 126 128 131 132 133 131 129 126 127 122 117 111 110 107 105 105 98 96 58 64 112 119 126 135 130 114 109 113 110 109 112 122 127 128 127 125 125 125 125 126 127 128 130 131 131 131 133 133 134 134 136 134 135 130 126 127 124 118 115 111 110 107 105 102 98 98 57 64 112 121 126 136 137 122 114 112 116 112 117 129 134 135 129 129 127 127 126 126 128 126 128 130 132 132 127 135 137 134 134 133 131 126 126 128 121 114 114 111 109 105 105 101 99 97 56 63 114 122 128 137 141 134 120 117 118 118 121 138 144 139 129 130 126 126 122 123 123 122 124 128 128 133 130 134 131 126 127 129 126 124 125 119 116 112 110 109 106 105 103 101 101 96 53 63 116 125 129 136 144 138 129 119 118 122 125 147 146 140 127 132 126 123 120 120 121 127 128 127 129 129 125 117 109 120 122 126 124 122 118 118 109 110 107 105 107 105 103 103 101 96 45 62 117 126 131 136 145 142 135 123 119 118 128 145 150 146 130 135 123 119 117 116 118 122 122 121 120 119 118 114 113 120 119 120 118 117 115 109 106 107 105 104 106 104 104 102 102 93 35 62 120 128 132 134 144 147 136 130 127 120 121 131 144 141 136 123 118 113 113 111 112 111 113 116 112 111 112 111 113 115 114 114 110 110 108 103 103 105 105 106 105 104 103 104 101 84 27 62 122 130 132 132 138 147 141 133 128 120 119 128 138 139 131 121 113 109 106 103 104 104 106 109 104 104 104 102 106 109 107 105 106 101 99 101 104 104 107 106 105 105 105 103 99 71 26 40 77 82 82 80 82 88 88 83 80 76 75 69 78 84 79 72 66 64 61 61 60 60 61 61 60 60 60 62 64 64 63 64 63 60 61 63 65 65 65 65 65 65 65 65 60 38 14 