P2
48
60
255
21 35 35 36 36 37 39 41 42 44 46 48 50 51 52 52 52 53 55 56 56 57 56 57 58 59 60 62 63 62 59 62 62 62 61 59 58 57 56 54 51 50 48 48 47 46 44 25 35 56 57 57 58 61 65 68 70 73 77 82 85 85 86 87 85 85 90 91 93 93 93 92 95 98 101 102 103 102 101 104 106 110 109 104 97 94 91 88 83 79 78 78 76 75 75 45 35 56 57 57 58 62 66 69 73 77 82 86 88 88 89 90 89 91 92 93 93 94 93 95 97 101 102 107 109 107 107 109 113 115 114 108 104 100 96 89 83 80 79 77 77 76 77 48 35 56 56 58 58 62 67 71 75 80 84 89 89 89 91 91 91 94 93 94 95 96 94 95 99 102 105 109 110 107 107 111 116 114 116 113 109 106 96 90 82 78 79 78 78 77 76 49 36 57 57 57 56 61 66 71 77 81 83 85 86 87 90 91 92 92 93 95 98 98 98 100 101 103 107 111 108 105 103 107 110 112 115 112 109 103 100 87 77 73 74 78 78 76 76 48 36 57 57 53 55 59 62 67 71 74 78 79 83 83 84 86 87 90 91 93 97 98 99 101 101 105 108 106 101 95 97 94 93 96 99 94 91 87 83 77 69 71 69 78 79 77 77 48 35 57 54 50 51 53 53 56 59 59 60 63 66 69 72 75 79 84 89 93 95 97 99 101 100 103 105 99 93 85 78 73 64 61 63 61 60 65 67 67 71 74 68 68 76 74 75 48 35 54 50 50 49 50 49 49 48 49 51 52 53 56 59 63 71 79 86 90 95 96 99 100 101 103 101 90 75 71 67 58 56 50 49 48 50 53 59 63 67 75 76 69 70 70 76 47 33 52 51 51 52 50 47 46 47 50 51 48 48 49 51 53 60 73 82 85 90 95 98 97 98 100 98 86 71 64 65 61 58 59 60 56 57 56 58 62 68 71 78 75 69 68 74 47 33 53 54 56 55 53 51 55 58 59 60 61 59 59 57 58 58 68 74 79 85 90 93 97 98 98 95 83 73 71 73 70 67 66 66 68 72 76 80 81 80 82 81 77 77 68 73 47 35 57 59 60 62 64 67 71 73 70 68 64 61 60 61 62 61 63 68 73 79 86 90 97 99 96 91 83 79 75 71 69 66 62 60 62 68 76 82 87 89 88 86 82 78 77 76 50 36 59 61 62 65 69 71 71 69 67 66 65 61 60 60 61 61 62 64 70 76 82 88 99 101 98 93 87 80 74 71 67 61 57 58 60 64 69 71 74 81 86 88 88 84 82 79 51 38 62 62 63 65 63 59 60 65 68 74 76 76 69 62 60 58 58 61 67 73 78 84 98 101 98 93 87 78 72 68 61 57 58 60 65 68 76 83 75 66 69 80 84 86 86 84 52 38 62 61 60 54 52 56 59 61 61 65 75 83 84 76 65 58 55 58 64 69 75 86 100 108 98 90 84 76 72 65 57 58 56 50 47 44 59 58 68 70 67 67 75 80 83 84 53 37 60 57 52 52 52 51 46 44 42 63 67 89 73 74 76 63 54 57 61 65 73 87 96 105 97 88 82 75 75 61 57 62 90 60 44 43 84 47 58 56 62 65 67 75 81 84 54 36 57 54 51 50 49 60 51 45 42 51 64 165 132 77 62 68 59 56 60 62 70 86 94 96 88 84 79 75 75 70 63 77 113 79 48 46 47 56 103 89 56 59 66 73 81 86 54 36 56 53 51 49 62 76 68 49 49 51 77 133 135 89 62 56 62 57 60 62 70 83 90 91 83 83 78 76 79 66 67 69 96 97 66 54 59 92 120 105 71 62 70 74 81 88 55 37 58 56 54 54 59 72 80 76 67 78 109 112 88 67 63 61 59 57 61 64 74 85 91 89 86 84 77 74 77 78 72 69 71 74 82 82 95 102 94 78 69 71 79 81 86 91 55 38 61 60 57 54 57 63 71 78 81 80 74 73 77 72 67 61 57 58 62 66 76 87 92 91 88 86 81 74 77 84 79 69 67 69 74 77 80 85 84 73 71 79 87 89 89 93 56 40 65 63 59 56 54 57 61 64 67 68 68 67 68 69 66 62 60 61 64 68 76 85 93 96 93 89 85 77 75 82 82 79 73 70 73 75 76 77 77 75 78 81 86 87 90 93 57 41 66 64 62 60 59 57 60 63 65 66 67 69 71 70 66 63 62 64 65 67 76 85 93 98 94 93 91 84 81 81 82 81 82 81 81 82 83 83 81 82 83 87 90 91 90 92 57 41 66 65 65 65 63 64 64 66 68 70 73 74 74 70 68 65 64 65 64 67 78 90 97 99 95 95 97 92 88 87 88 86 85 85 88 93 95 92 89 89 91 91 93 92 91 91 55 41 66 67 67 67 68 70 71 73 76 76 76 76 74 73 70 65 63 64 64 68 82 91 97 101 95 94 97 95 92 93 97 94 91 90 90 94 98 99 97 95 96 94 94 93 92 91 56 40 67 68 69 69 72 75 76 76 77 76 75 76 75 74 68 63 62 62 64 68 85 96 103 101 96 93 95 96 93 95 100 100 98 95 94 95 95 101 103 102 101 100 99 97 95 91 54 40 67 70 71 71 74 77 77 78 76 75 76 76 77 73 67 61 61 62 64 71 90 99 106 104 98 93 92 92 92 96 102 104 103 101 98 99 100 103 105 105 105 104 100 100 96 90 53 40 67 70 72 74 76 78 78 79 77 77 78 77 76 70 64 60 61 63 67 77 89 101 109 105 99 94 93 94 91 97 104 105 104 101 101 101 101 109 108 107 106 107 104 102 97 91 54 40 67 70 73 76 78 79 81 79 78 79 77 77 75 68 61 59 61 64 69 80 92 103 109 105 102 94 90 88 90 98 105 107 105 103 101 100 102 106 108 110 109 107 103 100 97 90 54 41 67 69 72 76 78 80 81 81 79 79 78 79 74 66 59 58 61 65 74 83 99 107 109 103 100 92 89 86 83 94 105 107 110 107 104 103 104 103 107 107 106 104 99 97 94 89 53 40 66 67 72 75 77 78 81 79 79 80 80 78 71 62 57 61 62 66 76 85 95 109 110 102 99 95 91 90 85 89 101 106 109 110 108 106 103 106 106 106 102 100 97 93 91 89 53 40 65 67 70 72 75 77 79 78 79 81 80 76 67 60 57 64 66 66 74 84 93 110 119 105 105 96 93 91 85 86 98 101 107 108 109 106 103 105 106 106 102 99 93 91 89 90 52 40 66 67 68 69 72 75 77 78 80 80 79 74 64 58 58 66 71 68 69 80 89 105 120 108 105 95 98 97 92 83 96 100 104 107 106 110 108 109 105 105 96 95 84 82 89 89 52 40 66 66 66 67 71 73 75 78 81 82 79 74 65 60 59 67 75 71 63 76 84 99 108 103 97 86 94 99 90 84 97 98 100 104 108 109 109 109 106 103 96 93 82 81 88 87 52 39 65 65 64 65 69 72 75 78 82 82 82 78 70 65 61 63 65 51 44 59 76 92 96 92 70 65 60 75 77 88 99 99 97 98 105 107 109 108 104 101 97 91 89 88 87 85 50 39 63 63 64 66 68 68 74 77 82 84 85 83 79 74 70 61 56 50 48 50 62 74 80 79 84 84 69 71 82 92 98 98 98 98 100 106 108 106 105 97 93 90 89 87 85 80 48 39 63 63 63 65 67 69 73 75 78 82 85 85 83 80 77 72 66 59 59 63 67 68 75 82 81 80 79 84 87 91 95 97 99 100 100 103 103 102 99 96 90 88 87 83 82 77 46 39 63 62 62 64 67 67 70 73 76 82 84 84 83 81 78 74 69 65 57 60 70 80 84 74 66 67 73 78 80 85 93 97 99 100 99 103 103 98 95 97 92 85 86 83 82 74 45 40 63 62 63 65 66 67 70 72 74 80 81 82 81 78 74 67 62 60 57 61 64 74 80 71 67 68 69 68 75 80 87 91 93 94 96 99 100 96 93 95 89 86 86 83 80 74 45 40 62 60 63 64 66 68 69 71 73 76 78 78 75 71 67 63 61 58 55 57 63 73 74 71 67 67 66 69 70 72 79 80 84 83 91 92 93 94 92 92 90 87 83 80 78 74 46 42 62 61 64 64 65 67 67 70 73 72 73 71 67 65 62 60 60 60 56 60 68 73 74 71 72 72 70 70 73 73 75 73 77 77 84 81 83 89 90 90 88 86 82 78 75 74 47 45 64 62 63 63 65 66 68 68 69 67 67 63 62 61 59 60 62 64 62 66 73 77 74 77 81 79 71 76 80 77 76 72 70 75 75 76 77 85 89 87 85 83 82 78 73 74 48 52 69 62 63 63 65 67 67 66 64 63 62 61 61 62 61 63 67 69 64 63 66 70 81 80 72 71 69 72 78 79 81 76 74 70 70 73 78 81 87 87 84 81 78 75 73 77 47 58 75 64 63 63 63 65 66 64 62 62 60 62 64 64 64 64 64 61 59 60 61 62 66 70 70 69 66 64 63 65 68 71 71 71 70 70 74 76 84 87 83 79 76 72 72 77 49 66 89 65 63 63 62 65 65 63 59 61 64 65 65 64 61 58 57 57 57 58 62 58 62 64 63 65 64 62 61 60 57 55 55 61 62 66 73 76 85 86 82 80 75 74 75 78 59 84 101 76 63 62 62 64 64 62 60 62 63 64 62 57 53 52 53 55 56 62 66 64 64 64 67 72 71 72 72 72 68 57 59 66 66 67 72 78 85 84 80 79 74 75 77 81 109 118 114 94 66 63 62 64 64 63 59 62 63 61 58 55 53 58 63 66 69 77 81 84 81 79 79 82 80 80 78 78 67 62 68 73 74 73 74 81 84 82 79 78 76 75 78 101 149 148 132 108 77 64 63 63 64 63 60 61 61 60 57 58 55 58 62 67 73 80 83 86 87 87 90 94 87 85 80 73 68 69 76 80 81 78 76 80 81 81 78 79 77 77 78 144 157 157 172 111 98 73 65 63 63 62 62 61 59 59 57 56 55 54 56 62 68 72 78 81 83 79 83 83 82 76 73 71 71 79 83 83 86 80 76 77 82 83 79 78 77 76 80 190 158 158 206 131 103 90 72 63 63 62 61 62 60 60 58 59 58 57 56 59 63 66 71 74 75 72 76 79 80 78 76 78 80 81 82 84 85 79 76 76 80 81 78 75 75 75 84 207 158 158 226 135 103 104 83 69 64 62 60 60 61 61 60 59 61 61 60 62 64 67 69 72 75 76 76 79 79 76 78 81 83 79 84 84 84 79 75 75 77 78 76 75 72 79 83 217 158 158 240 121 129 96 87 78 67 62 59 60 62 62 61 58 61 62 63 65 65 66 66 68 69 69 68 68 71 74 78 80 81 80 84 82 81 78 75 75 76 74 73 73 74 75 84 226 158 158 249 117 113 114 88 79 71 64 58 59 62 62 62 62 61 62 60 64 63 63 63 63 62 62 59 62 67 73 76 81 82 84 83 81 79 75 71 72 73 71 70 72 73 74 86 236 158 158 254 131 80 113 100 75 68 64 59 57 60 60 61 62 61 62 61 61 63 63 61 62 64 64 64 64 68 73 79 82 81 81 79 78 75 73 71 70 68 68 71 71 71 75 87 241 158 158 255 152 72 70 100 86 66 63 60 57 58 58 59 59 60 63 65 65 65 65 63 63 64 64 66 67 71 74 78 81 81 79 78 74 72 70 69 69 69 68 69 70 74 75 82 214 158 158 255 171 71 64 64 80 70 63 60 57 56 57 58 58 61 63 66 67 67 67 70 73 75 77 79 79 79 80 82 81 83 80 75 75 72 67 67 68 64 67 69 73 75 76 78 137 154 158 255 184 71 64 61 60 66 62 58 58 55 57 57 57 61 64 66 68 70 71 75 77 78 80 84 86 85 87 87 86 82 79 77 74 68 67 63 64 63 69 73 76 76 76 75 92 123 158 254 160 70 63 61 59 57 58 58 56 55 54 56 58 60 64 66 70 71 71 74 79 82 80 83 86 89 88 89 88 80 77 73 71 67 65 61 63 69 73 75 77 77 75 73 74 83 158 236 101 67 62 61 60 57 55 55 56 56 55 54 57 58 63 64 66 69 70 76 82 84 81 81 81 85 85 84 83 79 74 72 67 66 59 60 68 72 76 77 77 77 75 72 63 71 158 186 79 64 62 61 60 58 56 55 55 57 56 54 56 56 59 59 62 67 70 74 79 81 77 81 80 83 82 80 82 72 65 68 66 61 59 66 72 74 76 77 77 76 74 71 57 58 154 140 73 61 61 60 60 58 57 56 55 54 55 54 55 54 56 58 63 64 69 76 77 78 70 73 76 76 78 74 71 67 64 65 61 57 66 71 74 75 75 77 77 76 73 70 53 47 87 74 45 36 37 37 36 36 35 35 34 33 33 33 33 33 34 36 37 39 42 46 46 49 44 45 44 45 46 45 42 40 42 39 36 39 43 45 47 47 47 47 48 47 45 42 31 26 