P2
48
60
255
18 36 45 55 65 67 70 73 74 75 77 78 80 80 80 79 79 79 79 79 78 77 75 75 73 73 73 72 71 71 72 72 71 72 70 68 66 65 64 63 62 61 61 61 60 57 51 26 31 65 75 96 107 108 113 118 118 121 125 127 129 131 131 132 129 129 127 127 126 125 122 120 120 119 117 117 117 117 116 115 117 118 116 112 108 106 105 102 101 100 99 99 96 91 86 44 35 71 84 100 106 110 116 117 119 124 128 130 132 134 135 133 129 131 128 129 125 124 121 120 122 121 119 119 120 121 119 121 122 123 120 116 111 109 106 102 103 102 100 99 96 93 88 46 41 77 91 102 105 109 114 116 122 124 127 130 132 134 136 134 131 132 130 128 125 123 124 123 123 121 121 121 120 122 123 126 126 126 122 120 115 110 108 103 103 105 103 99 96 94 91 50 45 83 96 104 107 110 112 116 122 123 126 130 132 133 135 133 132 131 131 129 127 125 123 123 123 121 121 121 120 122 123 124 126 128 124 120 115 112 111 107 106 106 104 100 97 94 92 54 50 87 99 104 107 109 109 114 120 120 124 127 129 130 130 129 130 130 128 126 124 123 124 124 124 123 122 120 119 122 123 124 124 125 121 118 114 111 112 109 105 107 107 103 98 94 92 56 50 92 97 102 102 97 97 102 106 111 112 111 115 119 115 121 126 124 123 125 122 122 122 122 124 124 122 121 119 121 121 122 121 118 115 112 107 106 105 102 99 100 102 104 101 96 94 57 54 94 96 94 86 83 85 91 91 82 82 78 81 85 94 107 113 114 117 119 118 119 120 122 123 121 120 119 117 117 114 114 114 108 102 96 92 89 88 89 88 88 86 91 97 97 95 59 58 90 81 78 83 82 81 81 75 69 65 67 66 67 65 73 83 91 98 105 110 115 118 118 119 118 116 113 109 107 101 94 89 85 76 73 70 71 72 77 80 81 82 80 80 88 95 59 58 82 75 83 95 93 94 93 93 84 78 68 60 59 60 58 63 74 80 89 99 107 114 116 114 111 108 103 101 97 85 75 68 65 63 62 63 65 70 75 80 85 86 85 82 81 86 59 57 84 83 89 98 103 103 106 101 99 92 84 77 70 68 67 66 70 75 80 92 101 108 111 109 106 101 94 91 83 74 65 61 61 61 62 67 74 82 89 92 93 93 90 85 83 84 57 58 88 91 97 100 103 103 100 95 90 84 80 77 75 73 74 77 78 79 78 87 96 105 108 106 102 93 88 81 73 67 64 64 65 68 74 81 88 92 95 95 94 94 93 90 86 86 57 59 95 95 100 98 96 86 77 75 77 75 69 62 59 60 66 72 76 80 85 93 100 107 110 106 100 91 81 73 67 65 65 66 69 72 77 79 80 81 82 85 88 88 87 87 86 85 58 62 101 101 99 93 79 72 81 85 74 64 56 55 56 58 59 63 72 76 83 97 105 114 116 110 100 88 78 67 62 62 63 65 71 78 79 83 86 81 77 71 74 78 82 83 85 87 59 65 106 102 96 82 73 71 61 55 50 79 50 46 50 56 58 61 66 77 83 99 115 125 124 116 105 93 80 63 59 60 65 69 66 64 71 58 61 66 76 81 75 70 78 82 84 89 59 66 105 99 90 77 63 53 62 79 55 56 47 51 57 72 66 61 69 85 97 103 117 127 129 123 112 99 86 65 62 66 64 69 87 69 68 58 61 63 66 69 75 74 74 82 87 93 61 67 106 98 90 84 69 62 64 80 84 59 55 57 70 78 69 69 76 97 107 105 119 127 129 125 117 103 90 74 74 67 67 79 95 87 64 63 64 67 69 68 70 70 75 83 89 95 62 69 111 109 108 103 92 81 80 75 77 77 75 76 76 80 82 87 90 103 109 112 121 129 130 127 119 104 96 87 84 81 88 89 91 87 83 80 77 79 73 72 74 78 79 86 95 99 62 69 114 114 113 109 102 94 91 91 90 84 84 82 82 81 82 87 96 110 114 120 123 128 129 127 121 106 100 97 93 82 81 86 89 90 88 86 82 82 80 78 78 90 98 102 104 104 65 69 114 115 114 110 107 100 94 89 88 85 82 82 80 81 86 99 114 119 120 123 123 127 126 125 120 107 101 101 101 92 84 79 81 85 88 88 87 82 81 78 82 95 104 108 108 108 66 69 114 115 116 115 114 109 104 99 94 88 85 86 90 101 114 122 125 123 122 124 122 128 127 125 119 108 100 102 104 103 101 93 86 82 81 79 79 77 77 82 93 104 108 109 110 108 67 68 111 113 117 120 121 122 120 118 117 114 116 117 121 122 126 126 124 122 122 121 121 126 130 125 122 107 99 101 103 106 110 110 107 101 95 93 92 94 101 108 113 114 113 111 110 108 67 66 109 112 116 122 126 126 124 124 125 127 126 127 128 128 130 126 122 120 120 118 120 124 128 129 121 105 99 97 100 105 110 115 116 116 115 115 116 118 120 123 122 117 115 112 109 107 65 64 107 109 116 122 127 130 129 129 129 130 128 129 129 129 129 123 119 118 115 116 119 124 130 132 119 104 97 94 96 101 108 112 117 118 122 122 125 126 126 127 125 118 115 111 108 105 65 64 106 107 115 122 128 132 131 129 131 131 131 129 129 128 126 121 116 113 111 116 118 125 131 130 119 104 98 94 93 96 104 109 115 118 122 125 128 129 127 125 120 115 112 109 106 105 63 64 106 110 117 121 128 132 132 132 131 132 131 128 127 124 120 115 110 110 111 116 121 127 128 130 119 105 100 94 90 90 97 106 113 117 119 122 125 126 123 119 116 113 110 107 105 103 63 62 104 109 114 116 125 130 131 131 130 129 127 124 121 116 110 104 105 107 112 121 124 126 123 123 115 106 102 96 89 82 89 99 107 112 115 117 120 122 121 117 116 112 109 106 103 102 62 61 102 107 108 112 120 127 126 127 125 125 120 117 111 103 97 100 106 109 116 124 127 127 122 117 114 107 104 97 91 80 79 90 100 106 111 113 115 119 118 116 113 110 107 104 102 99 61 60 100 104 109 112 117 121 122 121 120 118 113 104 98 91 98 107 110 115 118 128 130 126 120 113 108 108 105 99 95 87 75 80 92 100 104 110 112 113 113 112 109 106 101 101 99 97 59 59 97 101 106 109 113 115 116 114 111 108 102 95 88 94 108 110 110 115 120 126 125 121 114 111 106 107 104 100 97 92 80 75 84 93 100 106 109 109 109 108 105 102 100 99 96 94 57 58 96 99 102 105 107 110 111 109 106 101 94 84 82 98 106 108 109 110 109 110 113 110 106 104 103 102 98 94 91 91 88 81 76 85 94 101 105 105 106 104 102 99 97 95 93 91 56 59 95 97 99 102 103 104 105 103 99 93 84 74 80 97 105 101 98 94 90 90 94 96 97 97 93 84 77 75 79 84 89 87 77 79 88 96 101 102 103 101 98 97 94 93 91 90 55 58 94 96 97 99 100 100 100 97 91 85 76 75 94 104 105 102 89 80 71 71 82 88 87 83 73 65 60 62 69 75 90 90 82 77 85 90 96 99 99 97 95 93 91 90 89 88 56 58 94 95 95 96 97 97 94 90 84 78 77 98 109 112 108 106 106 103 100 97 92 91 78 71 61 58 58 59 64 86 97 93 86 80 83 88 92 94 94 93 91 90 88 88 87 88 56 57 94 96 96 95 96 95 91 86 79 80 102 112 115 115 112 108 103 105 103 102 95 88 78 70 67 66 65 68 80 95 95 95 94 89 82 85 88 90 92 90 88 86 86 86 88 90 57 58 95 96 96 96 96 95 89 83 84 101 113 114 115 116 112 110 105 104 102 101 98 91 87 91 83 79 81 86 92 94 96 97 98 94 87 85 86 88 89 90 86 85 85 86 89 91 56 58 96 97 98 97 97 97 91 88 100 111 111 114 117 115 114 111 110 109 108 106 103 95 94 97 92 93 96 98 99 101 101 99 98 95 92 87 87 86 88 88 87 85 86 88 90 92 56 58 98 97 98 98 100 98 93 97 106 110 108 115 116 114 113 112 111 110 108 108 104 99 103 106 106 107 106 105 103 103 102 100 98 98 94 90 89 87 88 87 87 86 88 89 91 91 55 58 97 98 99 99 100 94 88 100 106 107 107 108 110 112 111 109 107 108 107 112 108 106 110 114 115 110 106 102 101 100 99 98 97 97 94 92 91 88 88 88 89 89 89 90 91 90 54 57 95 98 99 100 101 100 94 102 104 106 104 104 106 104 102 98 96 97 101 102 104 108 111 113 111 105 99 95 93 93 92 89 88 90 93 94 92 89 89 91 90 90 90 90 90 88 53 57 95 98 99 100 101 105 99 98 101 99 95 91 85 82 84 85 86 86 85 84 85 89 90 85 80 77 76 76 75 77 81 81 81 82 88 93 92 88 92 92 90 90 89 88 89 86 49 56 94 96 98 100 99 102 103 94 95 86 79 71 75 79 82 81 82 85 85 84 84 84 80 80 81 81 79 76 73 71 68 65 68 74 80 86 86 86 97 93 89 88 87 87 86 82 44 55 93 95 97 99 100 98 102 97 94 87 82 95 99 91 88 93 92 86 79 76 72 71 68 68 68 69 68 68 67 67 66 62 62 64 74 82 84 93 101 89 88 87 86 86 84 77 43 44 91 95 96 98 100 101 100 101 93 92 96 105 105 103 89 83 92 103 104 103 94 89 81 87 94 91 87 86 81 75 75 82 82 72 73 81 89 101 99 87 86 85 85 84 80 70 42 30 83 93 95 96 98 101 98 101 99 99 104 107 109 106 102 91 81 78 85 86 87 87 95 96 91 88 84 77 70 69 80 83 86 89 83 81 92 102 90 83 82 83 83 81 75 68 42 26 62 91 95 95 96 98 98 96 97 99 101 96 103 110 105 101 93 84 79 75 73 74 75 74 73 72 68 66 72 78 79 89 96 91 90 90 96 91 81 80 80 81 81 76 70 66 42 26 46 81 93 94 95 96 97 98 97 97 99 95 98 103 106 100 99 100 95 87 82 79 78 76 77 77 79 79 77 76 88 97 91 78 82 90 88 78 76 78 79 80 77 73 68 67 42 26 43 61 88 94 95 96 95 97 99 101 102 107 107 102 102 102 99 96 92 92 88 85 82 81 80 79 77 71 75 85 90 91 88 95 93 89 80 75 75 77 78 76 72 73 67 67 43 27 46 45 72 90 94 95 95 96 98 98 98 107 110 107 103 101 100 96 91 86 81 80 79 76 72 70 69 73 76 82 87 88 94 95 89 83 75 73 74 75 75 72 70 72 65 66 41 28 47 42 49 82 92 95 96 97 96 96 98 103 108 110 106 100 98 97 95 92 85 81 76 74 74 74 73 75 80 85 88 90 91 83 76 76 73 72 73 75 72 68 70 68 62 65 42 28 42 41 43 72 86 94 95 97 98 98 99 102 103 107 107 104 102 103 106 104 101 97 92 92 92 88 86 85 89 91 90 87 86 82 78 75 73 73 74 72 67 66 71 64 63 66 40 25 41 41 41 68 80 88 94 96 98 100 101 103 102 103 108 109 109 111 115 111 109 108 107 105 103 100 99 97 98 94 89 88 84 82 80 75 73 73 70 66 64 67 70 63 65 64 40 26 41 41 41 63 82 81 88 93 96 95 100 102 103 104 110 113 116 119 116 113 111 107 103 102 99 101 100 99 99 97 97 89 81 79 78 72 70 68 65 62 63 67 64 63 62 63 39 26 42 41 41 58 81 84 80 88 92 93 96 98 101 105 110 117 117 116 113 108 105 103 101 103 100 99 100 98 99 101 93 81 77 75 71 70 68 64 60 60 64 62 62 61 61 64 41 26 42 41 40 54 78 85 83 79 86 89 91 94 99 103 105 111 115 109 104 103 103 100 92 99 99 98 97 95 101 96 84 76 72 69 67 67 63 60 58 59 60 60 60 59 61 66 42 25 42 41 40 49 74 84 85 82 78 84 87 91 96 98 100 102 104 101 95 95 94 94 87 89 88 89 91 94 93 85 77 71 68 65 65 63 59 56 56 57 58 58 58 58 59 64 40 25 41 42 40 45 68 81 85 85 80 77 84 88 92 94 97 95 93 91 89 88 88 88 86 83 83 86 86 84 80 74 70 68 66 66 63 58 54 55 57 57 56 56 57 57 58 60 39 26 41 41 41 43 62 77 83 85 83 79 76 83 88 89 92 91 90 85 86 83 82 83 81 81 80 77 73 71 67 64 64 64 64 63 58 53 54 55 55 55 55 55 55 57 58 59 38 26 41 41 41 41 53 70 79 83 83 82 76 74 79 82 85 85 81 76 78 77 79 75 69 68 66 64 62 61 59 60 61 61 60 55 51 53 54 53 53 53 53 54 55 56 58 59 37 16 26 25 25 26 29 40 47 50 51 52 49 46 44 48 49 48 45 40 43 44 43 40 38 38 36 36 36 35 35 36 35 36 34 31 33 33 32 32 32 32 33 33 34 35 36 36 23 