P2
48
60
255
25 47 51 53 55 54 53 56 61 66 69 73 80 85 90 94 94 96 95 94 94 94 92 90 91 91 89 88 86 85 82 80 78 77 72 72 72 69 68 61 56 52 50 50 48 48 49 25 42 78 81 88 87 88 87 96 99 109 118 120 127 132 141 145 151 155 154 146 154 154 152 147 150 148 147 144 142 139 134 132 126 121 120 117 115 115 109 102 91 87 82 81 81 82 70 42 39 76 79 86 86 86 90 96 104 113 117 123 127 132 141 149 155 155 158 157 159 153 153 150 152 152 149 149 146 141 138 136 133 125 120 116 116 113 107 103 95 88 85 83 80 77 69 40 41 81 83 84 86 86 91 100 107 113 119 130 134 140 153 157 159 160 160 159 158 155 154 152 154 154 154 156 154 150 145 141 139 134 125 116 111 110 109 105 96 90 85 83 79 74 68 47 44 77 86 85 85 87 93 103 112 119 127 131 140 153 162 166 168 165 164 159 158 155 152 151 154 158 157 161 161 157 153 147 145 140 134 125 118 113 110 103 97 91 84 84 78 75 73 41 42 79 84 85 88 92 98 108 117 126 133 141 151 163 171 172 170 171 171 162 156 156 153 153 156 158 160 162 161 157 156 155 150 148 143 136 131 123 118 109 104 94 89 84 80 73 74 43 44 76 84 88 90 99 111 120 126 137 146 151 159 168 174 172 168 173 177 171 163 160 157 156 158 160 159 152 138 134 142 143 144 149 148 146 143 135 124 118 110 99 93 88 81 79 79 42 45 80 88 90 99 111 121 126 132 138 143 144 139 141 140 144 153 161 169 175 168 161 158 155 160 159 152 139 127 110 118 107 97 103 116 121 127 123 118 118 114 105 97 91 86 85 83 44 48 91 93 98 108 116 110 102 108 99 92 84 81 78 90 102 126 143 162 164 165 162 158 153 154 156 146 129 117 101 94 89 77 72 77 79 84 89 90 93 104 106 101 95 91 88 87 51 55 98 98 105 112 103 81 78 78 71 68 61 63 70 80 93 100 129 141 150 155 153 149 146 147 150 144 128 114 104 91 77 66 62 62 67 65 74 76 75 78 89 103 99 95 91 91 55 60 102 104 110 97 70 70 75 76 69 67 69 65 68 73 84 97 111 129 145 149 140 135 138 139 140 137 124 110 102 87 78 74 68 68 71 82 89 91 89 79 72 83 97 98 94 92 58 65 106 107 102 74 78 97 116 130 126 108 86 82 81 78 83 91 98 113 128 129 127 126 126 128 130 125 112 98 90 85 81 78 82 91 106 119 137 133 111 96 84 76 86 97 94 92 59 67 106 103 90 80 98 112 126 133 138 122 109 95 83 73 75 80 87 98 106 110 115 114 114 113 112 108 99 87 77 70 68 74 84 94 102 108 126 139 121 106 94 85 81 93 96 94 58 67 108 93 82 91 103 108 113 111 102 92 85 79 73 68 61 60 68 77 88 97 106 107 103 98 96 90 83 74 64 59 58 57 58 65 72 76 82 82 87 93 93 90 85 84 94 96 58 66 99 85 86 93 94 83 67 75 105 106 95 92 66 53 50 57 61 71 83 93 109 124 122 117 97 85 75 64 58 52 54 80 109 108 82 77 84 90 77 57 68 82 83 83 90 97 60 63 92 83 87 83 66 69 84 82 62 47 44 53 71 88 68 57 62 70 83 98 125 141 136 127 103 88 76 65 59 59 90 83 56 39 48 33 64 34 49 63 59 66 81 84 90 97 62 59 91 87 78 65 65 62 46 40 31 39 34 55 39 54 82 75 72 77 90 108 133 149 143 132 104 92 79 77 69 85 66 55 93 59 34 32 38 41 55 37 48 55 67 82 90 94 59 56 88 85 70 53 45 39 63 94 41 33 33 41 91 74 49 83 112 95 99 116 139 148 144 134 108 92 85 97 99 64 74 100 148 109 59 51 67 75 79 71 66 64 65 68 80 91 58 54 86 78 62 59 65 74 94 105 86 65 60 80 120 96 80 83 108 95 103 118 136 141 141 136 115 90 93 95 102 95 101 106 104 96 88 93 102 110 109 97 86 80 88 93 92 97 61 54 86 82 83 84 86 95 109 112 102 97 87 86 95 96 97 107 96 100 110 119 132 137 133 131 116 96 95 105 102 97 92 87 84 83 85 88 96 96 97 92 92 101 105 106 105 104 64 59 98 99 99 98 95 91 90 89 85 80 75 74 80 92 104 113 112 110 111 113 129 136 135 128 112 100 99 120 125 121 110 94 85 82 83 86 87 82 86 89 93 100 109 115 110 106 64 61 104 106 109 102 97 93 90 94 95 99 97 100 108 111 120 128 122 115 113 114 131 138 137 129 114 101 106 117 129 132 127 124 118 106 101 102 98 97 100 111 125 134 138 129 117 110 68 64 106 119 127 122 113 112 113 117 122 122 121 122 127 134 131 126 122 117 111 119 133 137 137 131 120 105 105 113 120 125 131 134 137 139 138 135 132 133 137 140 144 145 144 140 130 120 71 68 119 139 148 143 138 134 133 134 133 138 146 147 146 136 128 122 118 112 112 121 130 134 134 121 119 112 104 110 121 128 137 146 146 146 145 146 144 147 152 150 150 149 143 142 135 124 72 73 133 146 146 146 149 149 151 150 151 153 159 160 148 136 125 120 117 110 115 118 130 136 135 134 130 119 109 102 114 114 116 131 151 157 157 155 153 154 157 157 156 156 154 144 135 127 74 69 135 141 144 149 154 156 158 156 161 166 168 167 155 132 109 116 115 112 117 122 135 147 139 139 133 125 114 105 109 118 113 103 117 143 155 159 160 162 161 162 163 160 158 146 133 128 74 74 134 137 151 158 160 163 164 168 168 176 173 162 133 102 110 119 113 112 115 128 158 183 147 143 148 133 119 113 109 120 117 110 99 118 136 147 155 163 163 167 169 167 161 150 140 128 72 80 138 145 154 167 171 178 177 177 174 169 153 127 99 104 115 124 121 116 118 138 183 169 136 140 172 152 119 115 120 130 127 112 100 105 120 135 145 152 156 159 176 182 175 162 142 128 74 79 134 147 162 184 207 189 175 165 158 147 129 107 96 116 127 144 145 123 112 123 133 126 121 122 124 114 101 112 132 136 130 114 99 90 103 124 136 136 144 152 165 179 180 165 143 130 74 79 132 146 166 193 207 184 168 154 145 132 112 92 108 123 139 152 141 121 100 98 107 107 103 103 98 88 85 85 91 91 92 91 91 85 84 102 95 100 127 135 142 152 166 156 139 127 70 77 128 142 150 171 168 158 144 139 129 116 96 100 112 112 110 106 100 86 76 77 80 85 83 81 80 75 54 33 32 34 43 66 94 84 70 81 96 105 113 123 131 135 142 142 132 120 70 76 129 136 144 155 145 138 132 126 117 100 93 109 124 81 60 41 34 31 33 44 55 57 57 55 58 46 42 46 43 40 55 86 96 94 75 68 87 101 107 114 120 127 128 125 123 113 69 72 122 130 137 137 132 127 122 115 102 84 91 117 124 104 53 35 29 29 29 29 28 34 42 52 62 67 72 74 83 83 87 92 100 97 84 70 75 88 98 104 112 115 116 115 110 108 65 69 118 125 126 125 123 119 115 105 88 78 106 125 117 111 90 63 60 66 78 62 51 47 57 72 64 56 55 61 74 82 84 90 98 99 92 73 64 79 88 93 99 108 111 107 106 104 61 66 108 113 114 117 116 110 101 88 76 96 117 124 116 110 100 92 87 82 83 71 64 68 86 85 63 61 70 60 69 69 68 82 88 90 89 78 55 65 80 85 89 100 107 101 99 97 59 60 100 102 105 107 103 93 85 79 99 114 113 108 101 97 86 79 71 70 72 69 73 86 98 100 96 87 85 86 76 72 63 74 80 82 82 77 69 54 75 88 86 91 95 96 94 94 57 57 95 97 98 101 93 84 79 93 111 105 91 89 83 84 73 67 72 91 104 101 120 118 115 115 117 117 118 118 106 87 74 74 76 73 70 69 83 73 61 91 94 86 91 91 91 91 56 55 90 90 93 93 90 80 86 106 101 84 73 65 74 86 92 92 104 112 117 117 114 106 100 100 106 106 111 109 104 97 93 89 84 74 63 60 70 68 62 86 100 93 87 89 87 87 54 56 87 88 93 94 87 81 95 101 79 70 64 65 82 94 99 99 99 103 106 104 98 91 86 86 89 83 81 80 80 79 82 82 81 79 67 57 57 56 61 89 97 97 95 91 89 85 52 55 86 89 95 98 88 88 94 86 59 56 59 75 85 87 88 86 84 85 89 88 85 79 73 73 73 69 62 57 53 55 63 67 71 70 70 56 48 46 57 90 103 100 98 91 88 85 53 57 87 89 96 101 94 95 90 68 53 50 64 81 74 72 72 71 61 63 67 83 99 99 86 99 127 123 115 97 69 55 53 51 55 56 56 47 43 52 66 90 106 103 101 91 85 83 52 58 85 88 94 100 100 91 74 64 58 64 70 59 54 52 54 58 70 113 106 185 223 210 144 193 206 190 141 178 137 123 87 55 38 39 39 39 45 51 73 95 107 101 99 86 78 80 51 57 88 87 96 101 100 89 77 62 71 76 64 36 31 39 60 105 141 197 189 245 252 232 174 231 245 232 182 207 167 166 138 109 47 33 36 56 57 72 86 104 106 97 96 86 82 79 49 58 91 89 92 95 99 98 80 78 78 79 68 50 43 49 83 147 174 191 187 241 237 226 207 216 227 235 175 184 164 159 137 129 83 65 77 79 72 85 100 107 103 97 91 86 81 77 48 57 92 87 88 90 100 105 94 84 78 79 82 97 92 99 104 121 132 152 143 203 208 196 153 157 156 170 131 141 134 133 105 108 94 89 99 95 87 100 106 106 100 89 82 81 78 78 50 58 92 82 82 89 98 105 97 89 86 81 86 100 100 96 98 104 109 117 118 123 123 109 99 107 122 127 120 115 115 113 110 100 92 95 99 106 100 101 98 98 92 80 78 77 75 81 52 56 89 85 82 84 91 102 102 98 88 91 99 105 99 93 92 108 118 125 125 126 129 134 137 144 146 136 128 123 117 116 103 94 88 91 104 106 99 95 94 92 83 74 76 75 76 80 49 55 84 82 80 81 88 96 101 104 103 102 108 109 101 94 87 103 114 124 141 159 143 137 140 142 139 141 141 138 124 107 93 86 88 92 109 108 104 95 89 83 78 76 75 75 74 74 47 51 84 82 79 82 89 93 97 103 104 105 107 112 102 98 90 93 102 115 137 156 147 140 142 144 140 141 144 139 116 98 87 86 88 96 105 105 102 91 82 78 74 73 74 76 76 73 44 49 82 82 75 77 83 89 92 101 102 100 101 104 103 96 91 92 93 99 113 127 131 127 129 132 128 126 121 115 101 86 87 85 88 97 101 101 92 87 79 76 72 73 72 76 73 66 40 47 77 79 77 74 77 85 87 92 95 97 96 96 99 97 92 87 81 81 85 90 94 95 98 97 97 95 90 84 79 80 82 83 90 92 97 98 87 81 74 68 64 69 68 69 62 61 37 46 74 74 77 76 78 80 83 85 82 89 95 98 96 96 92 84 77 71 68 67 67 68 68 69 69 70 70 69 70 73 80 89 90 91 90 85 75 66 71 67 62 61 65 60 56 55 34 44 71 70 74 78 77 78 77 75 79 87 91 97 95 95 96 88 79 72 66 59 52 48 45 45 46 48 53 60 68 77 84 89 88 89 85 77 70 69 69 67 62 59 59 55 54 52 31 39 63 69 72 73 76 75 75 71 71 80 86 94 94 92 92 90 85 82 77 75 70 69 66 65 69 66 65 72 80 83 84 87 86 86 83 76 72 70 67 67 60 59 55 51 54 47 29 41 56 60 66 69 73 75 73 76 72 72 78 86 93 92 92 90 89 89 83 80 80 75 74 73 76 76 78 80 82 87 86 87 87 86 81 71 69 73 67 57 56 56 44 48 48 46 30 52 52 50 55 63 67 69 66 66 68 65 77 84 93 96 94 92 89 91 89 84 80 78 80 80 78 79 82 85 86 86 88 88 91 87 78 73 71 71 61 46 50 57 44 42 44 46 28 69 60 46 47 53 55 57 62 62 55 66 75 85 89 95 98 97 93 93 91 90 85 85 86 84 84 86 86 88 91 92 92 96 95 86 76 72 71 71 62 47 47 53 45 39 41 45 26 81 76 46 43 47 50 52 63 63 51 60 70 77 87 97 103 102 99 99 97 93 92 90 88 88 88 88 92 98 100 98 100 102 97 86 73 67 67 68 58 47 44 48 41 38 42 44 34 90 85 57 44 44 44 42 50 59 52 60 66 71 83 96 106 104 106 107 104 102 99 98 98 97 96 97 101 103 100 102 105 103 90 79 69 59 65 59 46 40 44 41 39 41 40 51 36 63 54 42 29 24 26 25 26 32 36 41 42 45 52 57 62 65 65 65 64 65 66 64 61 59 60 63 64 62 64 65 63 59 56 52 45 35 32 30 28 25 26 25 24 29 27 34 25 