P2
48
60
255
39 66 70 70 74 77 81 86 87 89 90 88 90 92 97 89 89 88 86 86 85 86 86 85 86 87 86 87 87 85 84 86 85 83 85 87 84 82 81 77 77 76 74 72 70 66 63 38 67 109 111 116 119 124 134 142 145 149 147 143 141 148 151 153 151 146 142 138 138 137 138 136 137 141 141 140 141 140 138 140 139 139 138 139 139 135 131 125 122 123 119 114 114 112 102 62 68 110 110 117 121 125 137 146 149 150 147 142 141 143 152 159 163 149 143 139 140 141 141 138 138 144 141 143 142 142 141 142 141 142 143 141 142 136 133 129 124 123 117 112 115 113 103 60 67 109 113 118 123 130 142 149 147 151 146 139 140 146 152 156 162 155 149 140 139 141 142 142 142 146 144 145 144 143 142 142 144 146 146 141 136 132 132 126 122 123 120 116 117 114 103 60 67 109 113 120 122 133 149 154 147 143 142 141 138 144 149 147 153 160 152 140 135 137 140 140 142 148 149 147 144 141 141 142 141 143 141 133 131 132 130 127 124 124 130 122 116 111 103 60 66 109 113 118 124 141 154 154 147 145 141 136 132 135 137 137 138 143 141 133 134 133 134 137 141 147 150 144 140 139 138 137 136 134 132 131 130 132 131 131 131 132 136 133 118 108 101 60 67 108 114 116 127 149 156 153 154 153 149 144 132 127 126 124 127 126 127 128 128 129 127 132 138 138 137 139 139 137 134 132 123 126 127 131 132 136 130 136 135 139 137 142 125 106 99 59 67 107 115 117 134 154 151 150 154 152 154 158 146 129 121 116 115 118 118 118 123 126 124 127 129 131 132 132 134 131 124 119 120 122 125 127 125 127 123 123 130 135 135 132 126 107 100 58 66 109 115 117 132 142 142 144 147 140 133 130 127 121 122 117 111 112 112 112 121 126 128 129 129 131 127 127 128 124 117 113 109 107 98 96 92 95 95 98 107 121 122 123 118 110 100 57 66 109 115 117 126 134 135 135 120 114 107 99 99 96 97 104 109 110 111 109 119 127 130 132 128 129 130 124 120 112 104 100 92 85 75 70 67 72 71 79 91 103 110 113 114 107 98 57 63 109 115 116 122 125 119 118 110 94 81 77 80 80 86 94 98 100 109 112 115 125 131 129 131 130 126 124 116 105 99 88 81 75 71 65 64 64 68 80 91 92 92 99 101 102 97 58 64 109 115 112 118 112 110 119 113 103 92 87 89 93 95 92 93 100 105 104 112 123 131 131 130 129 127 120 107 97 87 76 66 60 58 61 68 75 78 81 87 94 93 89 94 98 97 60 64 110 111 108 109 108 107 103 107 111 117 118 116 114 105 95 89 91 95 99 109 126 137 141 136 134 132 119 100 85 75 66 48 42 59 80 91 92 87 70 70 76 83 83 86 89 95 64 64 110 103 105 108 103 103 104 112 117 112 99 96 97 94 88 91 90 94 102 113 129 148 146 141 138 133 115 93 79 71 50 40 69 97 93 94 84 93 87 75 62 67 84 87 84 92 59 63 107 104 97 103 103 98 84 72 58 55 47 57 68 83 86 74 80 94 110 118 125 143 144 140 139 130 113 99 82 66 48 60 68 61 65 50 38 52 61 64 72 53 80 92 89 94 60 66 112 105 102 101 93 63 54 56 53 44 28 43 56 88 67 75 88 101 110 118 126 140 145 140 138 122 109 94 79 73 58 55 87 96 61 27 38 58 101 67 61 57 50 86 94 108 66 66 108 102 103 97 64 59 76 91 92 68 63 71 98 113 100 89 95 114 113 117 123 143 147 138 135 113 103 90 86 81 75 86 103 112 70 62 62 76 113 96 63 66 67 72 86 91 56 64 100 102 100 78 76 101 109 117 123 115 109 108 112 117 114 104 103 107 115 116 122 147 144 138 135 115 98 90 84 80 80 91 99 103 104 97 96 105 105 92 84 71 85 101 117 124 74 72 120 128 126 112 104 112 120 126 126 124 120 117 111 107 98 94 99 115 120 116 122 146 143 132 133 115 95 95 93 83 73 83 95 108 113 112 114 113 105 97 84 92 120 119 120 116 70 72 125 127 128 128 119 117 123 128 130 128 125 121 113 104 97 101 113 123 122 116 121 138 139 132 128 108 95 96 97 97 92 87 96 108 121 124 122 121 118 110 114 131 132 125 119 123 69 72 119 124 135 136 136 130 126 126 123 119 115 111 106 103 109 121 128 126 119 115 119 141 144 135 123 105 96 94 99 104 114 107 108 117 123 124 128 130 130 131 133 134 130 122 114 117 72 73 115 134 139 139 140 137 132 128 121 117 112 110 109 121 133 138 130 125 116 115 121 137 140 138 124 102 98 96 100 106 119 125 123 122 128 131 137 139 139 139 140 134 126 127 118 109 66 62 108 130 137 142 145 141 138 137 132 128 126 126 135 140 139 133 123 120 112 117 124 135 140 136 123 102 99 97 101 106 115 126 132 134 132 135 139 142 142 142 140 139 127 124 119 112 64 59 106 124 130 142 150 150 147 141 137 134 134 138 138 139 135 129 121 116 114 118 125 132 138 136 123 105 99 100 107 109 113 120 129 135 136 141 145 143 145 143 140 144 134 121 116 112 66 70 120 118 128 138 152 156 149 139 139 138 138 137 137 136 132 127 121 118 116 119 126 132 132 132 128 111 100 101 106 110 113 119 126 133 137 140 146 148 147 144 145 145 140 117 117 112 66 73 121 124 126 134 143 148 144 140 138 137 136 134 135 134 132 126 116 115 117 120 126 127 126 128 124 117 102 98 100 105 116 124 129 134 136 141 146 147 147 144 141 141 142 121 116 108 66 73 121 126 125 133 140 150 149 145 141 141 138 135 133 125 111 106 107 114 117 123 130 128 123 125 124 119 109 101 98 92 94 111 128 135 138 143 145 145 145 144 144 142 143 126 113 111 64 72 119 121 127 134 145 162 160 149 143 140 138 132 123 105 85 101 113 116 117 126 135 132 129 128 126 120 110 100 99 95 83 84 115 136 142 146 147 147 148 149 147 146 145 125 117 110 63 70 117 119 125 134 148 171 166 150 142 136 132 125 106 78 79 109 118 115 118 138 161 143 133 136 135 123 109 100 100 99 92 72 86 116 135 143 146 147 147 150 152 156 147 129 117 108 63 68 114 118 125 133 153 172 164 147 138 131 125 109 80 65 93 116 117 114 118 132 154 138 140 137 140 132 109 100 97 100 97 82 66 87 114 135 143 143 143 151 159 160 146 127 115 107 62 67 112 113 121 133 150 165 157 142 132 125 110 82 60 79 108 112 113 107 107 122 125 123 124 124 125 116 99 91 92 96 92 87 78 67 90 113 132 141 138 146 153 165 141 122 113 105 61 66 109 110 117 130 144 155 142 134 125 109 86 61 67 111 124 98 88 87 94 108 109 104 107 109 104 95 84 78 77 82 85 94 100 78 72 93 113 128 132 139 147 154 137 118 109 102 60 67 107 107 115 128 137 138 130 122 113 91 66 55 96 115 119 110 74 53 55 81 84 79 86 89 82 70 49 37 43 67 91 101 108 100 75 77 93 115 127 131 137 140 130 116 108 101 60 66 107 106 112 123 131 130 121 115 96 73 54 82 113 109 102 100 97 74 65 69 58 52 58 56 53 60 66 65 71 83 86 92 100 109 100 80 84 103 120 124 128 132 122 113 106 100 60 66 108 105 111 116 124 123 116 104 80 58 69 105 110 103 93 94 88 63 63 73 62 61 66 58 55 67 73 71 66 79 80 88 95 105 107 99 92 98 113 122 123 125 121 114 107 98 60 68 107 107 110 115 120 117 107 88 66 62 92 104 97 85 85 79 72 71 61 60 65 67 66 69 61 70 75 75 73 80 80 83 85 95 96 101 102 97 105 118 123 124 115 110 105 99 61 67 108 108 112 115 116 108 97 76 57 81 97 92 80 79 76 66 76 73 66 63 62 62 69 74 72 69 73 77 74 80 77 76 74 86 86 96 102 104 103 112 116 120 120 110 103 98 60 67 110 109 113 115 113 101 84 62 70 89 79 78 70 68 65 65 67 70 66 61 54 56 76 75 62 67 66 76 77 80 72 72 73 74 82 86 97 108 107 106 114 117 118 111 101 98 59 66 109 113 114 115 106 95 75 63 83 79 71 64 62 57 56 59 64 66 66 61 52 53 67 64 65 71 64 73 74 70 75 63 62 72 78 85 92 104 107 110 113 116 117 108 102 98 59 66 109 111 116 114 106 93 66 82 85 63 58 51 52 52 54 57 53 62 69 69 54 56 69 64 72 67 62 67 71 59 65 58 55 73 72 82 91 101 104 103 109 116 116 108 102 99 59 66 110 114 116 116 108 92 67 91 82 54 59 49 48 50 54 56 57 51 53 54 54 56 63 52 53 53 53 51 65 51 59 56 54 75 69 76 83 93 100 104 112 113 117 111 106 100 60 65 109 113 115 115 110 92 77 91 82 59 56 45 38 28 37 46 59 55 55 54 65 64 56 55 55 53 43 44 42 34 53 43 49 69 61 66 75 90 93 107 116 121 120 115 108 100 58 65 110 112 116 120 116 102 92 88 71 58 52 46 41 31 39 58 78 77 80 72 84 92 86 91 92 83 67 64 41 38 35 35 47 56 51 56 66 73 90 116 124 123 122 113 107 98 58 64 107 110 116 118 117 109 108 93 72 65 79 83 86 79 72 75 81 82 86 80 89 84 75 86 93 92 79 74 73 65 48 45 53 55 48 50 59 72 97 121 130 128 120 111 103 95 56 64 105 108 113 117 120 120 117 104 95 101 113 111 107 106 100 97 101 107 107 101 98 93 86 82 92 97 101 105 102 95 87 85 88 87 90 89 93 106 114 124 131 128 120 108 100 93 56 64 103 106 111 115 121 123 121 114 115 118 121 119 116 118 109 109 110 114 125 130 122 124 120 119 118 121 118 111 109 106 105 108 110 107 115 115 120 125 119 123 128 124 113 103 95 92 57 64 104 105 108 113 119 122 121 123 127 124 122 118 117 115 113 117 120 117 122 133 131 125 122 121 123 122 117 116 117 118 118 117 114 113 127 132 129 127 120 116 122 118 108 98 93 93 57 64 104 105 104 108 114 119 118 123 127 130 125 119 116 116 114 120 124 121 125 127 129 121 118 113 117 117 119 124 120 118 117 117 113 121 126 133 127 119 111 107 114 111 103 94 92 94 59 63 105 105 105 106 114 116 111 121 125 129 125 121 117 116 117 117 122 121 122 121 121 112 108 111 117 114 119 115 113 112 116 116 117 122 125 129 124 114 106 102 107 103 96 91 91 94 57 63 103 104 104 104 109 112 112 125 132 128 126 120 116 118 117 116 115 115 116 114 114 112 102 110 109 105 107 107 111 115 114 117 121 124 122 126 118 112 104 95 98 94 89 88 92 94 57 63 102 103 103 103 105 109 112 126 129 128 126 122 119 119 120 120 116 118 115 108 109 109 102 105 111 109 110 114 120 117 116 116 122 122 121 124 116 110 98 88 90 87 85 87 93 92 56 63 102 102 103 101 101 103 108 114 123 126 123 121 122 123 123 125 123 120 119 117 115 113 105 104 112 115 114 117 116 118 117 116 120 120 119 115 112 108 93 84 84 83 85 90 91 91 56 64 104 102 103 101 100 99 104 112 123 128 124 125 119 122 127 130 124 123 121 126 118 114 110 112 115 115 112 117 116 114 118 116 117 119 113 111 112 99 88 85 85 83 88 91 91 91 55 64 102 103 105 103 102 100 101 110 121 126 126 127 124 126 129 129 130 125 126 127 123 119 118 118 119 117 114 118 119 122 121 119 123 119 118 118 107 90 87 86 85 86 91 91 92 88 55 64 101 103 104 105 103 101 101 102 116 123 126 125 122 125 124 125 124 127 132 127 124 121 123 124 120 120 121 125 124 123 123 120 127 123 119 112 97 88 86 86 87 90 91 93 90 88 54 62 102 103 104 105 104 101 101 101 108 117 123 123 122 126 130 126 124 124 129 130 123 121 122 121 118 121 126 127 123 122 128 124 127 123 113 102 92 85 84 89 89 90 92 92 90 89 56 62 101 102 103 103 103 102 101 101 107 115 119 124 123 124 130 121 125 123 130 131 129 124 122 122 120 122 131 125 122 123 125 127 130 120 107 98 90 86 88 89 90 92 92 91 89 88 55 61 101 102 103 105 104 103 101 103 103 109 114 121 122 124 127 125 123 127 133 133 127 123 120 119 121 125 129 128 122 124 124 129 124 113 105 97 91 87 89 91 91 93 92 90 89 87 53 59 100 100 102 104 103 103 104 101 101 108 112 121 122 126 128 126 128 135 137 138 127 119 117 117 121 122 125 120 120 121 123 125 113 104 103 95 91 89 91 91 93 92 90 89 89 88 53 36 61 61 63 63 62 65 65 63 64 66 68 74 75 76 81 81 80 85 88 86 76 74 68 72 75 76 74 74 75 71 76 73 66 62 60 58 56 56 55 57 57 56 54 54 55 53 33 