P2
48
60
255
14 23 25 27 28 32 39 48 49 56 59 45 37 52 66 70 76 79 80 80 81 76 78 78 78 79 80 79 80 81 83 85 84 83 82 79 78 81 81 78 74 69 65 65 61 55 43 22 24 37 43 45 46 59 71 76 82 87 78 65 75 99 110 119 129 132 131 130 130 129 130 128 128 129 130 128 130 134 134 134 134 134 131 129 127 125 129 127 121 113 107 105 102 94 76 40 25 38 41 50 48 59 71 71 74 75 71 74 102 103 112 124 134 136 133 133 134 129 132 131 132 131 129 131 132 135 138 140 145 144 137 135 130 125 124 122 122 115 109 106 103 100 87 43 27 43 42 50 53 59 69 75 85 86 94 98 110 109 122 137 137 137 136 134 133 134 133 133 134 132 130 131 131 137 144 149 154 175 165 154 138 127 120 115 112 114 110 107 105 102 95 51 27 42 44 50 58 64 72 78 89 96 106 110 116 111 124 134 130 126 126 133 134 134 131 132 134 132 129 126 126 131 135 134 131 134 142 154 141 119 104 98 100 108 110 106 105 104 98 58 25 45 46 54 61 55 61 74 87 94 84 81 77 84 101 114 115 118 122 128 132 131 129 129 128 127 123 119 119 118 117 108 95 82 80 85 93 92 93 90 88 95 103 105 105 104 100 61 27 52 53 53 54 58 60 68 65 58 54 55 54 60 71 85 97 105 116 122 127 126 127 126 126 124 117 113 110 108 92 76 64 61 59 62 64 75 87 94 89 82 86 97 103 103 102 62 30 55 52 50 55 66 66 60 56 53 52 51 54 59 69 74 85 93 106 117 121 123 121 120 119 117 113 107 98 88 77 67 67 66 67 70 74 78 89 94 96 91 85 86 96 100 102 63 32 55 50 57 65 72 69 71 66 60 62 62 60 62 66 67 78 86 98 109 117 115 114 118 119 116 109 100 89 81 77 75 78 78 81 88 94 97 100 103 108 112 110 98 93 97 103 62 37 58 58 65 75 76 83 91 89 88 93 90 85 79 74 75 77 82 90 99 106 114 114 116 116 112 105 96 87 85 81 85 85 89 95 102 103 106 110 113 121 124 119 111 106 105 106 64 41 60 67 78 83 85 90 95 96 101 106 106 104 98 87 79 79 80 83 90 101 108 111 112 114 109 101 93 86 84 83 86 93 101 108 112 113 114 113 112 115 116 115 113 111 107 109 67 43 72 83 89 85 87 88 89 98 104 108 110 109 106 102 91 84 82 82 88 97 105 110 115 114 107 99 91 87 86 87 95 104 110 115 117 121 123 123 118 112 111 114 114 114 111 111 68 45 81 85 88 87 86 87 92 94 95 97 96 99 104 101 99 92 87 84 85 93 105 111 115 116 109 99 93 89 88 94 98 101 105 113 116 120 124 126 122 115 109 106 110 111 111 111 69 48 82 85 85 82 82 73 66 74 78 73 67 67 70 86 95 94 90 85 88 93 104 115 116 120 110 100 96 91 91 93 92 93 88 74 66 74 85 90 95 96 103 103 104 109 113 112 70 51 85 83 79 72 61 58 57 49 47 36 48 36 45 46 81 93 91 89 90 96 107 121 124 131 116 106 102 94 91 90 83 65 41 48 32 50 36 46 59 71 79 91 98 105 112 117 74 53 89 85 73 65 56 46 39 58 71 36 30 30 34 54 53 98 99 96 93 96 107 127 129 139 116 108 105 99 94 86 67 50 54 33 30 33 45 67 46 50 62 77 90 102 117 123 76 56 92 93 84 75 68 56 59 73 82 52 36 36 50 94 63 88 116 112 96 98 105 131 131 142 117 111 113 111 99 90 58 73 85 43 37 41 71 91 76 72 85 89 98 114 126 130 79 58 102 105 103 90 82 76 76 77 85 90 69 65 83 91 87 83 119 119 102 98 108 132 136 141 120 111 118 123 106 87 76 86 98 83 71 83 97 98 94 95 101 106 115 126 131 130 80 60 106 108 103 96 92 91 92 91 87 82 82 84 88 91 97 101 118 119 105 102 109 129 135 139 123 113 116 128 110 99 93 93 92 87 86 91 97 107 112 111 111 115 123 130 132 131 81 61 104 109 109 107 103 100 102 100 100 98 96 97 97 99 102 108 115 117 108 105 110 126 133 137 122 115 117 128 118 103 98 96 94 92 96 108 112 117 119 119 122 126 129 134 136 133 82 63 106 112 114 113 112 107 113 112 108 107 107 108 107 106 111 114 120 119 111 107 109 123 130 134 122 116 118 126 124 116 107 101 103 106 108 112 116 120 123 127 131 130 134 136 137 134 81 62 106 110 115 119 118 117 118 119 117 114 112 110 108 114 118 121 126 120 112 109 109 118 128 132 121 116 119 126 128 125 121 111 107 108 113 116 121 125 130 132 134 137 135 137 137 136 81 62 107 113 121 123 122 124 122 122 120 118 115 115 117 120 125 127 123 119 111 106 107 116 127 130 121 116 120 125 130 131 127 123 117 112 114 118 121 128 133 137 138 141 140 142 143 137 81 60 106 114 121 124 128 127 127 127 122 121 121 123 124 125 129 128 122 114 107 103 105 114 126 128 121 115 119 123 128 137 131 128 126 124 121 120 123 128 134 138 142 145 148 149 144 137 81 59 103 111 121 128 132 133 133 130 127 125 124 128 128 128 129 127 119 112 103 100 102 112 123 127 120 115 116 119 125 134 134 130 129 131 129 128 126 129 134 140 143 147 150 151 140 134 79 58 100 108 117 126 133 134 133 131 131 131 131 132 132 131 131 123 114 107 98 98 101 111 124 128 120 113 114 114 123 125 130 130 131 133 132 130 130 132 135 139 143 149 146 145 139 129 77 56 93 102 112 120 128 131 131 132 132 136 136 134 131 131 129 121 111 98 95 95 100 112 123 129 123 113 113 112 116 121 128 132 136 135 135 137 134 134 136 139 134 141 147 140 133 125 74 55 92 99 108 115 123 129 131 134 133 136 138 138 134 132 126 115 100 92 93 93 99 116 126 130 125 116 111 107 108 114 128 132 134 137 135 137 137 136 137 138 140 142 142 135 131 123 72 54 91 96 103 111 120 127 130 134 137 136 138 137 135 131 121 105 89 92 98 93 100 123 132 136 127 117 111 108 103 106 118 129 134 135 138 138 138 141 140 142 142 138 137 134 127 121 72 53 90 95 101 108 116 125 127 132 135 137 137 136 134 126 115 94 93 103 105 98 104 138 141 141 150 118 114 114 113 101 109 124 134 135 139 138 140 141 141 143 141 136 133 129 123 118 71 51 87 91 96 103 110 120 125 127 131 134 135 137 132 121 107 86 101 109 109 102 107 123 123 124 127 113 115 120 120 111 103 118 129 136 138 139 139 139 139 140 137 135 131 126 122 118 70 50 85 89 93 98 104 112 119 124 128 130 130 129 128 118 89 83 98 107 105 93 98 104 106 109 106 101 102 110 116 111 103 105 122 132 135 136 137 139 138 136 133 132 128 123 120 115 69 48 83 87 91 96 102 108 115 119 124 126 127 127 122 103 79 84 91 85 74 77 82 86 85 87 88 84 71 77 100 103 103 103 112 127 133 136 136 137 135 135 133 131 125 121 117 112 68 48 81 85 88 93 98 106 112 115 120 124 124 122 115 88 80 85 79 57 39 40 56 68 65 63 64 46 34 40 73 91 105 111 107 122 130 131 131 133 132 131 131 130 124 118 114 112 68 46 79 84 86 91 98 104 109 115 118 121 121 121 108 84 87 93 86 61 61 78 80 67 59 65 88 96 85 66 66 93 112 116 111 118 126 129 130 130 131 130 129 126 123 118 116 112 69 45 80 84 86 89 95 102 106 112 115 117 118 119 107 93 95 96 94 87 80 85 91 93 89 90 102 110 103 94 97 113 120 122 120 121 125 127 129 130 129 128 127 123 120 117 114 110 69 44 77 83 85 87 93 100 105 109 113 114 116 116 110 104 105 102 101 98 95 96 106 113 109 99 113 118 117 117 118 124 125 128 130 125 126 125 127 129 128 127 126 123 121 116 113 109 69 43 76 81 84 87 88 95 102 106 111 111 112 113 114 113 108 109 109 108 104 107 109 114 113 108 117 120 121 121 124 126 127 129 128 127 126 125 124 127 127 127 125 121 119 116 112 109 68 40 75 79 83 85 87 92 98 103 107 108 110 111 113 110 108 108 109 108 108 109 112 117 116 113 115 122 123 120 121 125 126 127 127 125 127 125 123 124 125 125 122 120 118 115 110 108 66 36 73 80 82 84 86 88 94 99 102 105 107 109 106 104 101 102 102 106 109 107 112 121 117 114 117 119 123 124 123 120 118 120 121 120 123 122 123 123 122 121 121 118 117 114 110 108 66 28 70 79 82 83 83 87 90 97 99 102 105 105 100 95 94 96 100 106 107 105 109 117 118 117 119 118 123 123 123 122 117 113 113 115 116 120 122 122 121 122 120 117 118 113 109 108 66 22 67 77 82 83 84 85 88 94 98 99 104 100 92 87 88 92 96 92 89 84 81 87 93 97 91 89 93 100 110 117 116 111 108 111 110 116 121 125 122 122 119 117 116 113 108 106 64 18 61 73 80 81 84 85 86 92 99 100 102 97 88 83 79 79 72 62 62 71 75 74 72 73 76 81 83 81 79 81 93 98 100 107 108 114 120 126 126 120 118 117 113 109 106 103 62 16 53 69 76 80 83 83 86 90 97 99 98 95 85 72 60 54 48 47 51 57 60 66 73 75 69 69 71 67 65 61 58 61 71 90 107 113 120 126 128 121 117 113 110 107 105 102 60 16 41 67 73 78 81 83 85 87 95 98 96 95 85 70 61 58 60 68 78 85 87 97 101 99 103 101 100 97 96 95 86 79 83 94 101 113 119 127 127 119 115 112 108 105 103 99 59 15 30 63 69 75 80 82 83 85 90 97 99 97 91 86 81 83 81 78 82 89 104 110 108 106 113 113 114 107 101 98 97 101 105 109 109 112 116 123 123 117 113 109 107 104 102 97 58 15 24 52 65 71 75 80 82 81 84 91 99 99 96 94 92 88 82 79 80 84 91 103 104 106 109 105 101 95 99 100 100 105 108 114 114 113 113 119 118 113 112 107 104 102 100 95 56 14 24 35 63 68 72 77 79 80 79 85 92 96 95 93 92 89 83 79 77 81 86 91 90 94 97 96 94 94 96 98 105 106 109 115 115 112 114 114 113 109 106 105 101 99 95 91 54 15 24 25 51 63 68 73 76 78 78 80 87 91 94 84 90 87 82 78 77 74 73 71 71 72 73 76 81 85 94 100 103 104 110 114 113 113 111 113 110 106 103 101 99 96 92 84 49 14 23 23 31 56 63 67 72 75 77 78 83 86 92 93 88 87 85 83 79 77 73 71 65 63 66 72 80 90 96 101 103 107 108 111 111 109 112 112 109 103 100 98 95 91 83 77 41 15 23 23 25 36 56 62 67 72 74 76 78 87 90 91 88 87 87 88 86 88 86 85 85 83 86 91 95 100 103 106 109 110 109 111 112 111 114 113 108 102 97 94 91 84 74 62 21 15 23 23 25 25 37 55 62 67 71 74 77 85 91 89 88 90 92 91 92 94 98 100 102 103 101 97 104 105 103 107 112 113 111 112 112 114 115 111 105 100 95 90 83 72 72 70 18 14 23 23 26 24 23 34 52 60 66 71 76 79 87 92 86 89 92 95 97 99 107 109 117 120 119 118 117 112 117 116 116 118 114 115 113 113 113 108 101 95 90 83 70 81 92 74 18 14 23 23 25 24 23 24 38 52 59 66 72 77 81 87 89 88 91 98 102 104 111 115 121 122 120 123 127 124 121 117 118 118 115 114 113 112 108 101 95 89 81 72 86 98 94 74 19 14 23 23 24 24 24 23 35 65 59 57 65 72 75 81 86 88 90 95 102 109 111 117 113 117 117 119 125 126 122 118 117 116 112 109 109 105 98 93 88 79 70 86 100 99 97 73 19 15 23 23 24 24 23 23 30 66 74 64 58 66 71 75 81 85 89 92 98 107 109 110 112 113 115 115 119 121 119 118 117 111 106 102 102 97 89 84 76 70 85 99 101 105 97 72 19 14 23 23 23 23 23 23 27 62 72 76 67 58 64 70 76 81 86 88 95 100 103 104 104 105 106 108 111 112 111 112 110 103 101 96 94 87 80 73 70 88 99 101 105 105 95 72 19 14 23 23 23 24 24 23 26 60 72 76 77 70 58 61 66 74 79 81 86 90 95 94 97 98 98 99 99 101 102 101 98 94 91 87 80 74 68 73 91 99 101 105 108 102 95 71 18 14 23 23 23 24 24 23 25 60 71 77 78 77 73 59 56 62 70 74 77 78 80 83 85 87 87 87 86 87 88 86 84 82 78 72 65 64 78 93 100 101 105 108 105 100 94 73 18 8 14 14 15 15 15 14 15 35 43 47 49 49 48 47 37 32 35 39 41 42 42 42 44 44 43 44 45 44 44 44 44 42 39 35 37 50 58 61 62 64 66 64 64 62 59 47 11 