P2
48
60
255
22 34 34 37 45 50 54 55 58 60 64 66 69 72 75 77 81 83 86 86 90 90 91 90 89 89 89 88 87 90 92 91 91 92 89 86 83 80 76 73 66 53 42 34 30 33 34 21 36 55 55 63 75 82 85 87 89 94 101 105 111 114 119 123 129 136 137 141 145 146 148 152 147 148 146 144 140 146 148 149 149 146 143 138 131 125 119 112 108 90 71 58 50 52 55 33 34 55 56 69 76 76 76 78 76 78 83 89 91 90 97 105 115 128 134 139 141 145 151 152 150 147 141 143 142 143 142 144 141 138 129 118 110 104 100 95 90 85 73 61 51 51 54 34 34 54 60 72 66 65 62 63 64 64 65 68 74 76 79 82 91 105 120 129 135 138 146 148 147 149 140 138 138 135 135 126 120 106 92 81 77 77 79 79 78 78 71 63 52 51 53 37 34 54 64 64 63 66 67 63 64 67 67 68 68 73 78 85 85 92 101 117 128 132 139 142 145 146 139 134 126 120 116 117 105 95 82 76 73 73 78 78 79 76 71 64 55 51 52 37 33 54 60 62 65 70 74 77 79 76 76 73 70 69 73 84 89 91 96 107 118 127 133 138 140 142 140 129 120 113 109 104 98 91 83 79 77 76 83 86 90 83 76 69 59 51 52 34 32 58 63 66 73 77 84 91 96 96 93 90 86 79 77 79 84 92 96 107 115 124 128 133 139 142 139 130 116 112 108 103 98 94 89 92 95 101 105 112 116 112 95 76 63 53 51 34 34 61 69 77 83 91 97 100 104 107 105 99 95 89 84 82 85 89 96 105 112 119 124 130 136 142 138 131 120 115 109 107 101 99 99 103 111 117 121 124 119 114 105 95 71 54 51 33 37 71 77 85 91 93 97 101 103 106 107 102 100 94 88 86 86 89 95 101 110 116 124 129 137 142 136 131 126 118 111 107 100 97 98 104 111 117 121 122 120 116 110 100 84 58 51 33 43 78 84 86 91 92 95 99 97 99 101 104 103 98 91 87 84 85 89 96 103 111 121 126 137 144 137 130 122 115 105 97 95 97 100 104 109 115 119 119 117 113 112 104 88 65 51 31 46 79 82 83 87 89 93 97 100 103 109 118 116 106 97 90 84 80 81 87 96 107 118 124 136 143 134 127 118 105 96 93 95 97 98 101 106 115 116 117 117 111 106 101 89 67 51 31 46 77 77 80 84 82 84 93 95 96 105 113 109 110 101 91 86 79 74 80 90 102 116 125 135 138 131 123 111 97 94 92 93 93 95 100 113 121 120 115 108 104 102 97 88 70 53 31 46 73 74 75 76 73 74 86 92 93 103 110 101 94 91 87 83 76 72 74 85 98 112 124 132 131 127 118 102 93 90 89 86 87 93 101 112 120 113 105 102 98 94 92 86 70 54 31 45 72 71 70 67 67 72 81 88 90 101 100 99 100 96 85 79 71 69 73 82 93 107 119 127 127 122 113 96 88 85 81 79 84 91 98 110 117 109 100 94 94 90 87 83 69 55 31 43 68 66 64 65 66 71 76 73 69 74 79 83 91 93 99 93 70 69 72 80 89 102 113 121 122 116 107 94 88 81 76 76 80 86 89 100 108 99 93 91 88 85 84 81 68 55 31 41 65 62 59 60 60 56 50 49 50 52 65 91 80 71 69 78 75 70 70 79 86 97 110 119 122 113 103 91 91 78 69 67 68 70 71 79 94 93 89 88 85 81 81 79 69 56 32 41 62 58 55 51 52 58 56 56 59 65 97 104 91 86 68 66 73 70 70 78 86 100 113 121 124 117 101 90 85 71 58 63 65 54 54 52 55 60 63 73 76 73 76 79 70 57 33 43 65 63 58 57 63 67 70 72 74 82 88 99 100 95 84 79 71 69 72 79 88 101 113 121 123 120 107 90 94 82 73 73 73 70 67 68 77 70 59 55 59 67 79 81 73 60 33 45 71 69 67 68 72 75 73 77 80 85 87 88 89 90 89 76 70 70 76 80 89 100 111 119 122 123 114 94 94 91 88 80 77 79 80 80 83 80 76 73 70 80 86 87 78 63 33 50 79 80 78 75 76 78 80 82 84 85 88 92 97 97 89 76 75 76 79 84 89 97 107 117 121 121 116 106 94 95 91 89 86 86 90 97 100 102 97 96 98 97 98 95 86 69 34 53 86 88 89 89 92 92 92 91 92 96 97 103 104 101 87 83 82 81 84 87 87 92 104 114 120 122 116 113 103 99 103 105 102 96 92 96 100 102 103 104 106 106 105 99 93 75 37 56 92 94 96 96 99 99 100 101 101 103 103 106 104 96 94 93 86 83 85 87 86 92 104 113 122 124 117 114 112 109 107 115 118 117 117 115 112 113 115 117 118 115 111 105 99 82 40 58 95 97 100 102 104 104 103 104 103 104 104 103 102 103 101 95 88 85 85 85 85 91 105 117 126 126 119 112 114 114 117 113 120 128 129 131 128 127 127 126 126 120 118 112 106 90 44 58 96 100 101 105 104 105 104 102 104 104 108 111 111 109 102 95 87 85 84 83 86 95 107 119 128 128 123 113 116 116 120 120 118 119 125 130 130 127 130 129 129 126 123 119 113 99 50 60 99 105 108 108 109 110 112 112 115 117 119 119 116 111 102 92 87 84 83 82 89 100 111 121 129 130 128 117 116 119 122 125 124 123 120 119 120 121 123 126 130 130 127 125 120 108 55 58 104 110 113 117 120 122 123 123 124 124 125 123 119 109 100 91 85 82 81 83 92 106 114 124 131 131 129 123 114 123 124 127 129 126 126 127 128 128 130 135 139 138 135 127 126 115 60 61 106 111 117 120 124 127 127 127 128 129 127 128 121 107 96 86 79 80 83 85 95 110 119 126 131 131 130 127 114 122 129 131 131 132 133 133 135 138 141 143 144 143 140 132 126 121 64 63 106 113 119 124 129 130 128 130 132 134 133 132 121 105 91 81 81 85 85 88 97 114 126 132 137 140 135 130 121 116 133 134 133 136 137 140 140 143 147 146 146 145 141 134 128 123 68 63 108 116 120 128 130 131 131 133 133 131 133 134 121 100 82 81 88 90 91 89 97 114 133 141 147 161 145 132 126 121 126 133 134 135 140 141 145 145 148 147 146 144 140 132 126 123 70 63 109 117 121 126 130 130 132 132 135 138 140 136 119 89 77 88 94 95 91 86 90 107 125 133 134 140 135 126 130 132 125 126 129 131 140 145 148 147 146 148 145 142 139 135 127 122 69 63 108 115 119 124 125 129 132 132 137 142 143 137 112 80 77 90 93 89 71 62 78 94 118 125 124 125 116 102 117 134 127 123 124 129 136 147 147 147 144 144 145 143 140 136 128 120 69 63 107 110 115 120 125 130 133 135 138 141 145 134 109 81 75 86 87 70 50 47 55 78 98 105 106 104 63 60 83 119 122 121 122 124 134 146 147 147 140 140 143 142 137 134 128 121 69 61 104 109 112 115 121 125 131 134 138 142 141 129 111 91 78 76 82 81 76 73 72 76 86 94 109 110 104 112 103 112 122 123 123 125 135 148 151 145 142 131 137 136 135 134 128 116 67 60 102 106 111 114 117 120 129 133 135 140 136 126 114 101 94 86 77 80 86 86 85 82 86 96 110 119 128 119 109 119 128 125 123 125 130 145 151 149 142 132 136 135 136 132 126 116 65 58 99 104 109 111 115 122 124 130 131 130 127 122 114 107 100 100 96 96 100 105 110 104 96 101 118 123 120 114 122 124 129 127 125 125 129 141 146 147 142 137 137 134 133 129 125 114 60 58 96 101 105 109 115 120 123 125 125 122 120 119 113 109 105 104 104 105 108 116 124 123 115 114 126 128 126 126 127 128 128 128 128 126 128 138 142 143 140 137 136 132 133 129 125 112 53 56 93 99 103 108 114 118 118 116 115 115 117 114 107 104 105 103 104 107 109 117 125 124 119 117 123 127 127 125 125 126 128 131 131 126 126 132 137 138 136 135 133 131 131 126 121 106 47 55 91 96 97 106 111 112 110 108 111 113 113 104 103 100 102 102 103 106 107 117 123 118 113 113 117 126 126 125 124 126 130 130 131 126 126 128 133 134 134 134 131 129 128 125 118 101 42 54 90 93 97 103 109 108 104 104 109 110 102 94 92 95 98 101 101 97 97 102 108 108 107 110 115 121 120 124 123 123 128 127 128 122 126 123 128 131 132 130 127 128 127 122 114 95 39 53 88 92 97 103 107 109 105 103 108 102 89 86 87 90 87 82 79 80 81 81 84 91 100 97 97 99 104 109 117 120 122 122 120 116 122 121 125 129 129 128 126 127 124 119 109 87 36 52 87 92 97 103 107 111 106 107 101 87 77 77 70 66 69 74 78 82 84 82 85 88 90 87 92 101 96 90 88 98 112 115 112 105 116 121 122 128 126 126 127 126 121 117 105 81 37 52 85 90 97 102 107 113 106 108 92 69 60 57 57 64 71 70 75 80 84 87 92 98 96 93 93 97 93 91 89 80 85 101 104 101 115 123 122 126 126 127 126 124 120 114 99 74 37 52 85 90 95 101 107 115 109 104 86 55 52 54 61 65 74 80 91 93 91 89 87 88 92 98 104 105 99 90 85 80 73 70 77 87 115 124 122 125 125 125 123 121 117 110 94 62 27 52 85 89 93 96 106 117 115 102 93 74 70 65 64 66 74 90 100 101 106 109 113 109 111 108 113 116 115 106 98 87 79 74 63 83 110 122 123 123 121 122 121 120 116 106 88 53 26 52 86 89 92 93 104 116 116 107 95 82 78 77 74 70 70 81 87 97 103 110 116 109 113 113 140 146 117 101 90 84 90 99 90 94 106 119 126 124 124 122 121 118 114 101 81 47 26 52 86 89 89 91 100 112 114 106 98 86 80 81 78 78 77 82 84 92 97 102 103 105 105 107 112 109 95 89 92 100 108 107 104 106 110 119 125 124 121 121 118 115 110 96 70 44 26 54 86 88 88 90 96 106 109 103 96 89 84 87 84 80 82 84 87 90 93 94 96 100 106 108 113 110 102 105 113 118 118 115 112 112 114 120 123 123 120 117 118 114 107 89 57 43 26 52 87 88 88 89 95 103 104 103 95 91 86 89 92 88 85 87 94 101 99 97 100 101 102 107 114 115 118 119 118 119 121 116 115 115 116 119 121 120 117 115 114 110 100 82 48 44 28 50 84 87 86 88 91 98 101 99 94 91 89 90 92 96 95 93 96 104 110 108 108 112 114 115 117 119 119 120 122 124 123 119 119 118 118 118 118 118 114 113 111 107 94 72 45 47 28 48 81 84 85 86 87 92 94 95 93 90 90 92 94 96 98 100 104 109 113 115 114 115 120 121 121 122 122 126 126 125 121 121 120 122 118 116 116 114 113 110 109 102 89 58 44 43 27 47 79 81 83 85 86 88 89 90 89 89 90 93 94 96 101 104 108 114 115 117 117 118 123 126 128 128 129 128 125 122 121 121 122 123 117 115 114 110 110 107 104 95 81 46 42 43 26 46 77 78 81 83 84 85 86 88 88 88 89 94 95 94 101 107 111 115 116 120 120 121 124 129 134 133 132 128 125 122 118 120 121 120 116 111 110 110 108 105 99 92 65 44 42 44 27 45 74 76 79 81 83 84 84 84 85 88 89 94 95 94 100 109 115 116 118 120 119 124 128 135 136 136 136 130 126 121 120 121 122 118 113 109 108 106 105 102 97 86 49 43 42 44 28 44 73 74 75 79 80 82 82 80 81 85 88 92 97 97 102 111 116 119 123 126 122 126 132 136 139 138 135 130 127 123 120 119 120 118 111 107 107 105 104 98 93 67 44 43 42 45 29 42 70 73 74 78 78 78 78 77 78 82 85 88 94 98 103 113 116 119 127 127 127 128 133 138 131 137 137 131 126 120 118 117 117 114 107 106 106 105 101 96 82 49 44 44 43 46 30 41 69 72 72 75 76 76 76 76 77 81 83 84 91 97 104 112 118 120 126 127 131 130 134 138 137 138 139 135 127 119 117 115 114 110 107 106 105 103 98 89 61 44 43 44 42 46 29 41 67 70 71 73 74 74 73 74 75 77 78 80 89 96 103 112 119 124 123 127 132 129 134 140 142 141 139 134 126 120 116 112 109 106 105 105 105 99 93 72 46 44 44 44 44 47 28 40 66 67 69 72 73 73 71 72 72 74 77 80 86 93 100 110 120 125 127 126 130 130 134 139 146 144 139 131 124 118 113 108 106 102 102 103 99 94 80 49 45 43 43 43 44 47 28 39 64 66 67 69 70 71 70 70 71 73 76 78 84 92 98 107 118 125 126 127 127 126 130 137 141 137 136 126 121 116 113 106 103 101 103 100 94 81 53 42 45 44 42 44 42 46 28 23 39 39 40 41 42 43 42 43 44 44 45 47 50 54 59 63 70 75 77 80 76 76 77 78 79 81 80 75 73 70 67 64 63 62 62 58 55 36 27 26 27 28 26 28 26 28 17 