P2
48
60
255
45 75 81 83 86 91 93 96 96 98 103 102 104 102 102 100 97 96 95 97 94 97 97 98 97 98 98 99 99 98 96 93 95 93 92 87 83 78 75 73 66 48 34 27 21 15 28 32 70 124 132 137 143 145 152 156 152 158 161 165 166 166 162 161 158 156 155 154 155 157 158 157 157 159 161 158 158 160 156 153 153 151 149 144 138 126 120 117 111 87 61 46 38 27 34 44 72 124 134 140 146 147 151 151 152 156 159 163 164 163 160 162 159 160 157 157 155 157 157 159 159 159 161 161 160 158 155 152 149 150 146 144 141 126 122 119 114 99 70 51 42 29 27 29 73 123 132 142 142 144 144 144 153 158 164 163 165 164 163 164 163 163 160 161 158 160 159 159 159 160 161 161 160 151 152 149 151 149 148 144 137 127 121 119 115 107 80 56 44 32 23 22 75 126 133 141 144 146 148 149 155 156 161 164 167 166 168 166 165 162 161 162 160 160 161 162 163 165 167 165 163 158 161 154 153 152 149 146 137 128 122 117 113 110 90 63 47 34 24 19 74 125 132 140 148 151 151 152 158 160 166 166 169 166 168 167 165 161 161 160 160 161 163 165 163 164 167 164 162 161 159 156 153 154 150 146 136 127 123 118 115 113 99 70 50 36 25 15 78 131 137 142 152 155 152 156 156 160 165 169 172 171 169 167 164 164 163 161 160 163 163 162 161 163 163 164 160 160 159 154 152 154 149 146 136 127 125 122 116 115 107 76 53 36 27 13 80 134 139 144 152 153 154 160 155 162 161 168 169 169 163 165 164 162 160 157 159 156 156 156 155 156 160 158 157 155 155 151 150 154 149 143 136 128 123 120 118 116 110 83 56 37 29 13 83 134 139 143 148 155 155 151 148 153 153 160 166 168 163 167 160 161 157 156 155 153 152 151 154 154 154 153 152 149 150 149 148 150 145 139 135 131 125 122 117 118 111 90 60 36 28 14 82 133 136 141 147 147 135 130 137 142 148 149 155 156 157 156 154 154 152 149 149 148 148 148 148 150 150 147 144 143 143 139 144 141 139 136 129 120 115 110 105 107 110 94 62 38 28 13 81 132 137 137 133 121 114 117 109 106 93 93 104 107 111 124 138 143 143 144 141 141 143 148 144 142 141 141 137 132 132 132 131 131 125 112 90 83 79 73 73 78 91 95 65 39 28 13 85 134 124 110 106 98 98 98 94 90 83 74 73 72 78 88 103 120 132 136 133 135 140 144 142 139 135 132 127 122 119 116 112 104 80 71 67 65 66 71 78 78 71 76 70 42 27 14 83 118 106 105 111 127 143 145 139 130 122 106 89 76 73 73 76 94 114 122 125 131 144 146 144 140 128 121 113 106 101 98 87 70 58 59 68 82 98 109 110 105 95 76 69 47 26 15 76 116 121 130 130 134 131 123 110 94 87 82 77 80 83 86 90 90 96 111 125 138 151 154 149 140 123 114 98 87 79 76 67 64 61 68 74 80 88 96 103 106 105 92 69 49 26 15 84 138 132 128 121 104 72 48 37 36 29 41 45 48 51 66 90 99 97 111 123 139 155 159 152 141 119 102 85 74 71 62 49 40 34 37 36 45 50 52 58 80 95 98 85 55 29 15 88 136 131 126 105 56 47 81 43 85 22 69 76 109 72 70 79 92 101 117 131 140 155 161 152 138 115 96 77 67 58 53 71 64 61 49 64 66 66 44 45 55 84 93 91 63 33 14 91 138 123 109 86 79 76 93 70 65 49 71 107 126 98 91 96 111 106 119 131 137 154 161 151 139 113 93 84 82 64 66 103 69 47 43 62 85 88 64 53 58 78 93 96 69 36 15 90 137 123 114 102 103 100 101 100 94 92 95 102 101 106 106 113 120 126 123 129 134 146 152 146 134 112 93 94 90 84 86 100 96 84 82 81 98 90 71 70 75 87 100 97 75 39 16 95 149 141 135 124 118 114 117 114 110 111 114 116 110 103 101 109 116 131 121 128 135 139 148 141 131 113 94 95 92 87 89 100 102 102 98 90 88 90 87 97 103 101 112 106 82 43 15 94 150 151 149 144 134 124 122 121 119 117 111 101 93 101 115 120 124 132 125 130 135 136 141 139 129 112 97 94 93 82 79 83 94 103 103 103 104 98 99 108 116 111 115 113 87 45 16 94 157 156 157 154 151 143 137 131 120 115 116 120 125 128 134 135 140 126 124 132 136 132 139 143 136 111 97 95 99 97 91 86 81 82 82 89 98 100 109 120 128 125 119 116 94 45 17 96 157 157 153 153 150 149 147 143 141 137 136 138 138 142 145 146 138 127 130 133 137 138 135 144 139 121 101 95 99 104 106 103 108 114 117 121 129 135 135 135 128 128 122 116 103 46 15 95 155 154 156 155 152 151 148 146 143 143 144 141 146 150 149 144 135 133 139 140 136 141 139 139 140 123 104 98 101 107 110 111 113 121 127 132 136 133 134 133 127 121 123 114 105 46 14 95 156 158 162 162 157 154 149 150 148 150 149 147 149 154 148 140 140 135 141 142 142 146 149 149 148 125 107 101 101 106 111 116 120 125 129 135 137 136 132 130 121 118 119 116 106 46 12 93 156 162 160 160 158 155 154 153 154 154 153 151 150 150 148 148 145 145 140 140 147 150 149 151 147 132 109 102 102 105 110 117 124 131 138 144 142 138 133 130 124 119 115 113 106 43 11 94 154 159 162 162 166 160 155 156 156 154 152 148 147 149 153 151 149 147 140 137 142 143 148 154 149 134 111 100 102 107 110 116 123 132 137 144 146 142 138 132 125 116 112 111 104 37 10 93 151 158 164 168 167 163 161 156 153 150 150 152 154 150 148 143 136 134 134 134 138 138 148 151 150 140 118 102 100 103 106 113 121 134 138 143 142 140 140 132 128 116 111 109 100 28 9 91 151 156 163 169 169 167 161 161 153 152 154 152 148 142 128 115 127 131 128 127 136 141 148 143 144 142 125 104 95 92 96 104 114 127 134 141 142 138 138 128 121 115 110 106 93 20 9 90 150 151 154 165 170 166 164 158 156 151 149 141 132 112 99 119 132 131 128 129 136 140 156 149 148 145 129 107 99 87 78 88 102 114 123 131 137 133 130 124 118 112 109 104 80 18 10 87 144 146 149 159 163 161 159 150 149 142 132 117 95 90 109 121 135 137 128 131 134 151 173 160 153 157 133 108 101 90 73 68 80 97 109 117 124 125 124 120 116 110 105 100 61 17 11 87 143 143 147 151 154 155 151 143 133 124 107 84 92 120 129 122 122 130 126 125 128 145 164 151 146 150 128 101 93 97 88 63 60 77 92 103 113 118 116 115 110 106 102 95 44 18 12 87 140 140 143 144 145 143 140 130 120 108 85 97 128 138 136 137 126 110 108 106 108 112 119 118 107 105 93 82 90 99 93 77 49 60 78 93 102 108 111 108 105 102 99 90 35 17 10 85 137 138 138 138 139 134 128 116 101 84 98 132 142 141 138 139 136 130 126 119 107 102 105 98 78 73 76 92 99 96 96 90 65 51 64 80 92 99 101 103 101 99 95 81 32 21 12 81 134 133 132 130 129 123 112 97 84 103 134 148 148 144 137 136 135 132 132 122 111 103 101 82 68 79 94 100 100 101 101 100 90 66 60 75 86 93 97 97 96 95 93 67 31 21 13 80 129 126 127 123 121 107 97 83 105 140 150 150 149 145 140 139 135 134 129 115 101 92 89 89 96 105 107 104 103 104 103 105 102 84 66 80 87 90 92 93 92 91 91 55 32 23 13 77 125 124 125 124 115 105 88 101 133 145 151 148 149 149 144 142 142 137 127 117 113 116 125 131 133 131 119 113 109 106 105 104 104 95 74 83 91 93 90 89 88 90 90 47 29 27 14 78 126 128 127 126 119 109 86 122 136 142 148 150 150 151 154 150 146 142 128 124 128 136 141 146 140 138 130 121 116 111 107 103 99 91 82 80 97 98 88 90 90 92 85 38 32 31 16 79 124 128 131 128 127 99 101 117 129 131 127 117 110 108 113 120 121 126 128 136 138 143 145 146 142 135 127 119 110 106 101 99 94 83 84 81 98 100 91 93 91 92 79 33 27 28 18 78 126 127 134 136 122 91 100 97 86 69 59 63 80 89 113 121 98 99 102 99 96 99 100 93 83 77 71 69 62 55 51 57 63 65 78 89 108 104 96 94 91 93 65 33 27 28 19 76 127 128 135 138 129 96 88 57 39 44 91 110 135 129 153 143 143 156 168 173 154 120 118 137 102 95 84 92 79 57 28 41 55 77 89 108 120 107 99 92 93 93 50 35 29 30 20 76 125 129 135 142 133 108 110 113 70 57 129 152 188 143 189 156 169 182 159 228 214 151 177 184 136 151 127 135 133 84 49 73 100 96 108 125 122 105 98 92 94 88 38 36 33 32 21 77 126 127 134 140 137 121 123 141 132 92 119 160 190 159 179 177 191 208 186 219 211 174 195 179 152 167 130 135 112 75 80 99 103 107 121 131 119 103 94 93 95 71 33 35 38 36 23 76 126 126 130 136 136 130 129 143 144 135 122 125 161 126 167 163 176 187 179 199 194 175 175 166 129 139 98 102 93 91 95 99 105 115 129 132 111 99 92 97 92 50 41 37 40 43 24 76 125 125 125 133 139 133 133 143 139 141 139 130 131 101 104 128 117 88 101 166 157 121 140 134 109 108 104 108 102 94 92 99 107 116 130 124 104 92 94 94 78 37 40 41 43 47 27 77 125 124 125 128 136 137 134 140 142 135 135 132 133 133 128 121 130 150 146 155 146 130 124 116 121 118 113 107 94 91 97 102 106 107 119 111 95 91 96 91 51 38 37 41 45 45 30 75 122 122 121 123 133 136 135 139 138 137 132 129 125 131 135 136 132 129 125 128 127 129 129 126 126 120 107 96 92 97 100 101 102 104 109 99 91 94 94 72 40 39 38 43 48 42 35 73 120 121 120 120 127 136 134 136 136 134 134 129 128 127 125 129 131 135 134 132 129 130 128 122 116 102 95 92 93 99 98 98 97 102 100 91 92 94 85 44 40 41 40 41 45 47 35 74 121 120 117 116 122 131 138 131 134 134 133 130 132 129 124 116 111 111 109 104 101 100 96 97 94 94 95 96 94 100 100 95 102 100 95 92 93 92 55 38 40 40 41 41 44 49 36 75 122 120 121 118 121 129 136 137 131 132 134 131 132 130 129 128 121 114 109 104 106 103 102 106 106 104 102 100 99 103 96 103 100 97 93 93 93 73 38 39 39 41 40 42 41 47 35 71 120 121 124 123 123 126 134 138 137 133 135 134 132 129 129 129 128 124 119 119 118 116 117 116 114 110 109 104 104 104 101 105 100 96 92 92 81 42 40 41 38 38 39 44 41 47 33 66 114 120 122 125 126 130 136 136 140 135 136 140 139 136 134 131 128 126 124 126 122 119 127 127 126 120 115 109 113 104 103 104 100 95 93 87 59 35 41 42 41 38 37 44 39 49 30 67 106 115 121 125 129 131 135 136 142 137 134 141 146 144 143 143 137 138 141 145 146 143 147 144 138 131 122 122 114 101 104 103 97 91 86 87 52 40 39 41 43 42 38 45 42 52 24 74 107 104 113 121 125 129 132 134 139 141 138 139 146 151 149 152 151 148 149 150 148 146 144 141 134 128 125 121 109 101 100 97 88 84 94 83 54 42 39 47 44 40 40 41 49 50 21 78 117 105 104 113 121 123 126 130 136 140 139 139 142 152 155 152 153 150 147 149 149 150 147 147 138 131 126 117 107 100 98 89 81 90 105 72 58 42 45 52 45 39 46 42 60 44 20 80 125 114 104 101 107 119 120 127 130 135 138 138 141 145 154 155 157 156 153 151 153 153 153 151 141 129 121 110 103 97 89 78 86 103 103 67 64 43 45 57 44 45 51 55 57 38 25 79 129 122 114 104 99 103 110 119 122 128 133 133 137 139 144 151 157 160 156 153 148 150 150 145 135 128 116 103 98 90 77 83 98 106 85 70 65 46 59 52 46 51 63 72 49 42 25 77 130 126 122 114 104 98 96 103 111 120 125 130 132 134 130 141 151 157 152 146 142 144 144 138 133 124 104 100 93 78 80 92 104 105 71 65 60 50 60 51 52 69 72 64 50 49 24 72 129 128 124 121 113 103 97 95 97 107 115 121 125 127 127 131 140 143 145 144 137 138 138 129 116 101 96 92 80 80 90 101 108 93 62 54 55 63 55 52 73 76 77 56 53 47 24 64 121 130 128 124 119 112 104 99 95 95 99 106 111 118 119 119 122 127 126 123 121 115 110 100 94 87 81 78 82 91 98 104 106 78 53 50 57 61 49 68 75 82 69 63 59 48 33 36 68 81 80 79 77 73 70 66 63 59 60 59 59 62 65 65 64 63 63 60 61 59 55 52 47 43 45 51 56 60 63 64 61 41 29 32 35 30 36 38 45 48 44 43 36 35 26 