P2
48
60
255
50 85 92 102 107 108 109 111 111 116 120 125 125 127 128 130 134 132 137 140 140 138 138 143 143 139 137 132 129 127 131 127 123 123 116 114 112 105 107 104 101 99 92 89 76 69 56 28 81 142 149 166 173 175 178 181 183 187 193 198 205 208 211 213 222 222 238 232 230 234 236 236 232 231 223 223 219 211 209 206 205 199 190 189 184 182 178 174 161 152 152 145 124 113 96 44 81 144 150 163 170 176 181 185 188 192 193 201 205 211 214 215 227 227 233 237 240 240 242 239 239 236 227 227 222 218 212 210 209 201 198 189 186 183 184 176 167 156 155 143 128 114 101 47 86 144 151 158 172 180 181 188 196 200 202 209 210 212 215 218 229 231 240 250 248 246 252 248 247 241 238 234 227 220 215 219 217 205 202 196 193 189 183 181 171 161 157 144 128 116 110 51 86 146 152 161 173 179 176 190 199 205 206 210 214 220 222 228 232 239 243 252 253 246 253 252 248 248 244 243 237 230 220 224 219 209 207 200 193 191 185 182 176 165 158 141 126 115 111 53 91 148 148 161 177 181 180 192 203 202 204 211 217 219 226 233 243 242 243 246 251 246 248 254 252 247 241 241 233 238 225 223 218 211 205 202 189 187 186 180 173 162 156 144 126 116 113 53 92 150 149 166 167 162 166 174 191 197 198 208 211 217 222 237 239 243 236 240 249 245 250 252 245 238 230 230 234 234 226 222 205 190 178 171 167 175 180 166 158 151 142 145 131 117 110 53 91 150 151 146 125 123 139 146 152 147 139 142 140 136 160 200 216 224 230 230 241 239 241 241 235 226 221 229 228 214 206 182 145 118 108 113 116 102 112 133 123 114 108 110 123 116 114 58 90 145 111 91 107 143 144 120 106 108 116 120 116 132 138 157 159 194 206 220 227 234 231 233 234 223 219 222 210 188 170 145 137 126 118 109 107 99 101 102 109 113 126 93 72 104 116 63 82 91 102 145 179 184 178 170 164 148 127 115 133 142 154 157 158 180 191 214 218 224 224 230 228 219 213 215 204 173 152 159 147 127 122 122 140 171 185 182 178 172 161 151 109 71 112 66 66 123 163 178 184 191 198 203 197 191 181 169 164 159 166 168 172 174 182 205 212 215 222 230 223 211 208 201 187 172 161 158 156 156 160 172 180 183 177 172 170 166 163 154 142 107 108 70 85 145 157 169 175 178 182 182 180 174 164 157 152 152 162 177 181 180 185 197 210 214 216 227 220 208 201 192 173 161 165 168 161 151 157 167 173 169 162 156 145 143 143 141 139 126 120 74 88 151 160 163 162 162 160 153 165 182 199 198 193 189 172 166 188 189 177 181 200 211 220 228 222 203 189 169 158 171 176 154 154 168 176 169 174 176 163 136 122 128 128 129 137 133 124 78 88 152 154 151 148 135 128 161 151 111 109 106 135 175 190 176 175 181 177 169 188 208 217 235 221 197 178 155 159 164 156 158 161 124 79 66 69 85 103 122 102 99 122 124 138 138 130 81 95 157 149 136 120 119 95 90 87 82 62 65 101 137 166 185 180 174 165 166 178 200 214 231 214 191 167 144 147 172 177 163 157 122 70 88 72 114 171 77 60 88 112 121 138 144 136 80 101 163 147 123 105 85 84 168 133 102 53 75 132 223 193 176 199 201 167 154 173 196 210 225 209 187 153 136 178 201 176 181 226 167 104 73 107 144 192 153 90 98 125 136 156 156 140 79 110 174 160 148 135 117 153 192 185 121 111 130 206 227 200 190 198 207 189 160 167 187 203 217 206 182 146 154 195 176 181 168 185 199 154 124 153 191 164 135 114 137 141 150 171 164 143 81 121 196 179 166 174 163 160 153 171 159 161 176 185 183 181 198 207 205 195 169 170 177 192 202 193 168 143 160 192 202 197 181 169 157 161 156 155 143 148 149 146 162 170 168 174 165 146 82 123 204 194 193 192 186 185 183 188 170 172 182 187 192 196 203 201 193 186 174 165 172 190 195 184 163 140 159 185 189 181 177 176 178 178 183 181 178 171 164 167 168 175 176 173 166 144 83 125 203 198 193 193 192 187 193 204 204 202 208 205 197 196 195 197 190 176 177 161 165 180 187 180 159 136 156 173 195 190 186 186 185 184 187 183 179 177 174 175 173 176 174 178 168 146 83 123 203 202 196 193 195 189 185 184 186 192 196 197 202 196 198 201 189 183 175 157 167 179 187 177 152 127 160 169 196 200 195 193 187 189 194 188 185 183 182 179 174 177 177 174 165 147 82 124 203 206 204 202 204 205 198 197 197 201 199 201 199 201 205 199 185 185 159 152 165 179 187 179 156 126 152 163 191 203 201 193 194 195 193 188 189 183 183 188 176 183 183 170 161 145 81 123 201 207 206 199 207 207 206 201 204 205 201 203 203 214 207 195 189 175 160 156 166 178 187 183 163 131 144 165 190 206 207 197 195 192 187 181 187 185 194 195 191 185 181 173 159 137 79 123 205 209 209 207 211 214 215 213 212 217 217 215 217 212 205 196 183 166 157 156 168 181 193 188 164 137 132 161 182 202 217 206 203 202 192 197 196 196 203 198 189 181 179 168 154 136 78 122 203 205 205 206 213 217 223 222 225 232 227 223 219 213 206 197 183 164 159 162 173 183 197 194 172 144 132 162 178 199 212 211 210 207 205 206 204 207 204 197 186 179 175 162 146 136 73 123 196 200 205 210 215 217 224 230 229 233 225 220 217 214 203 193 182 171 161 159 174 185 196 193 177 151 130 158 177 190 206 206 205 208 207 211 208 206 200 191 179 175 168 158 146 136 68 121 195 196 197 203 210 218 225 227 222 231 223 221 217 209 198 191 183 177 156 160 178 192 205 199 180 159 136 152 176 191 200 209 212 211 209 207 202 203 194 183 175 170 161 153 143 131 65 117 193 195 199 199 205 217 221 222 220 222 226 220 218 209 205 197 186 180 152 168 183 203 218 215 198 171 152 148 173 193 204 211 212 210 210 210 208 201 193 179 177 169 157 149 140 124 66 119 192 191 196 199 208 220 223 222 223 222 231 225 213 209 209 192 183 178 157 182 201 216 226 224 212 184 164 146 163 199 208 208 208 207 211 210 205 198 183 179 173 159 156 152 142 113 63 115 188 193 195 198 209 219 221 220 221 224 227 224 219 213 208 181 170 158 174 191 208 232 225 227 217 190 177 148 161 202 207 208 212 210 213 204 200 195 185 179 167 156 152 147 134 104 63 113 185 190 191 202 209 209 218 222 223 226 227 225 217 217 203 171 166 155 178 197 215 243 228 229 221 193 180 152 152 196 207 207 209 208 208 205 202 196 189 179 169 148 143 145 128 100 61 112 184 187 193 199 206 205 215 219 225 223 218 215 215 208 194 170 168 165 177 199 217 234 235 234 217 196 180 139 150 198 204 204 207 210 210 203 197 195 186 174 160 147 146 142 118 98 69 111 186 186 191 197 205 211 216 221 219 219 213 212 215 211 197 171 176 172 166 183 209 216 217 224 209 188 151 136 147 196 204 206 207 214 212 207 200 194 186 171 156 150 144 132 111 93 69 109 184 186 190 200 202 208 212 217 223 221 221 221 217 212 205 173 153 148 143 146 177 199 202 209 191 135 97 126 157 196 199 205 208 211 212 209 198 192 183 167 150 150 143 122 107 80 13 114 183 180 187 198 203 205 212 216 221 222 219 218 212 208 207 198 173 168 174 154 145 161 171 166 121 110 160 182 192 195 199 202 213 213 210 207 198 193 180 158 142 150 140 120 108 72 9 114 187 186 189 199 205 210 213 212 217 221 221 215 211 204 206 205 206 200 192 187 177 150 143 138 155 180 189 194 190 191 192 197 206 205 201 203 199 190 179 161 154 150 133 116 98 50 10 116 186 188 193 200 208 209 215 215 215 217 215 211 210 206 204 202 205 203 200 197 197 196 198 200 194 188 191 195 191 192 190 195 200 201 198 198 191 185 176 162 158 149 129 114 101 35 11 113 189 189 190 198 204 206 207 208 215 215 213 206 205 200 199 197 202 203 202 205 203 206 210 211 200 192 193 195 194 194 188 194 196 199 196 194 191 188 175 167 160 149 127 114 95 29 13 111 185 189 187 197 203 203 206 205 211 212 207 200 196 195 193 195 197 207 210 210 208 209 212 216 207 192 189 188 188 187 184 188 190 195 196 195 191 188 179 172 160 150 132 107 80 26 21 109 181 189 196 200 201 204 202 203 206 205 200 195 190 187 190 192 196 205 207 207 209 208 212 214 204 187 181 178 182 180 184 186 186 186 196 193 191 187 181 173 160 151 132 101 51 17 12 110 187 191 195 198 201 203 204 202 202 200 196 186 184 183 185 189 188 184 179 177 187 197 185 175 158 162 163 163 170 166 174 183 187 184 195 190 189 189 179 164 159 150 127 91 29 20 13 111 183 191 195 201 199 205 207 201 195 197 190 172 156 147 131 121 113 111 111 111 109 117 107 101 93 91 87 90 100 123 156 182 186 184 196 193 192 186 174 163 159 146 116 75 20 21 13 111 182 188 198 202 204 206 206 199 196 190 160 144 113 92 84 101 123 126 130 136 128 130 123 111 107 97 99 106 121 153 158 172 187 193 203 197 191 182 176 164 158 139 100 48 21 23 14 112 183 186 196 203 204 205 212 207 195 177 182 187 176 162 143 142 149 159 167 164 155 157 153 146 136 127 128 145 164 176 183 188 202 206 204 193 185 180 173 158 151 128 81 21 26 25 16 112 185 187 194 203 210 209 211 212 199 194 198 190 187 181 180 180 178 182 183 182 178 176 175 163 160 158 167 170 173 173 179 183 199 202 197 186 183 175 170 160 146 111 45 24 28 25 14 107 183 185 191 200 206 206 204 211 200 192 194 188 184 183 179 186 190 191 191 187 182 178 179 180 176 172 172 169 172 171 175 183 195 195 191 181 176 173 164 155 130 72 21 34 30 29 15 100 182 187 189 194 200 202 205 208 199 184 186 188 181 182 179 183 185 187 188 191 188 175 177 172 167 162 162 166 173 175 172 178 190 190 188 180 175 166 160 147 103 30 39 33 32 28 15 100 174 182 185 189 195 197 200 197 192 187 185 186 188 182 179 178 178 178 180 180 177 172 172 169 165 159 162 169 173 172 174 177 178 179 179 175 168 162 155 121 58 24 41 34 35 31 17 92 163 175 184 187 192 195 201 196 191 189 184 183 188 189 180 178 178 180 176 181 174 175 173 172 169 170 172 177 173 175 173 169 169 177 175 172 166 156 134 78 17 46 34 36 33 41 18 77 155 174 181 182 190 192 195 195 193 186 178 182 187 189 191 191 186 194 187 188 181 184 188 185 184 185 183 175 170 171 170 169 166 171 172 169 163 143 96 23 22 53 35 39 32 40 23 36 124 162 179 185 188 188 191 193 190 191 183 182 185 194 199 205 208 204 197 199 196 199 197 196 197 189 182 176 171 169 170 165 166 164 160 159 145 108 34 14 43 47 40 41 34 40 23 22 65 133 166 181 185 189 187 186 186 188 191 190 192 197 205 208 215 212 206 206 208 207 204 202 199 193 190 186 180 172 168 161 159 157 153 143 106 43 15 19 48 36 43 41 40 43 23 24 82 70 127 160 173 179 181 183 183 183 185 190 197 200 206 212 218 217 216 212 212 213 207 201 199 195 189 187 179 172 165 156 148 139 128 95 42 29 27 29 59 42 45 43 40 39 28 32 90 120 71 109 148 163 170 170 174 180 187 190 196 195 197 208 214 222 218 216 218 216 207 199 194 190 192 185 181 169 155 138 125 108 77 40 51 84 40 47 59 47 52 42 43 47 30 43 66 158 142 76 80 123 150 154 158 175 184 188 196 198 200 204 212 220 217 209 214 218 215 203 198 192 190 180 175 159 135 112 86 57 45 91 122 100 38 57 51 56 55 48 46 45 30 46 61 141 169 169 121 74 95 127 144 157 177 187 191 199 202 203 204 213 215 207 208 207 205 207 199 191 186 176 162 136 98 77 55 71 141 151 124 94 39 58 49 61 56 50 48 50 33 52 72 106 174 180 184 158 104 83 104 128 157 178 187 192 197 197 198 199 202 202 204 197 193 198 197 186 178 166 138 98 71 63 94 157 165 146 128 88 38 56 57 65 65 55 46 48 34 50 79 81 164 183 187 189 175 145 98 92 123 152 171 182 189 190 194 194 193 190 193 189 187 185 180 167 154 130 91 74 68 110 157 170 163 143 126 73 36 61 59 69 70 60 53 51 36 55 92 75 146 187 190 193 189 174 160 129 89 113 133 154 169 177 174 170 169 168 169 171 170 160 144 123 103 91 74 75 121 156 173 171 159 151 128 57 38 65 58 76 72 63 58 51 36 38 60 49 80 114 119 121 121 115 106 102 91 55 63 74 77 83 87 84 85 87 88 89 80 75 72 71 63 43 49 79 90 108 108 101 100 91 74 27 31 44 36 49 47 40 35 34 26 