P2
48
60
255
36 64 68 70 73 71 73 77 78 79 81 80 80 86 81 81 82 77 74 79 79 77 75 75 79 79 80 76 79 76 77 78 78 77 78 79 75 75 77 78 76 69 70 65 59 60 60 35 58 102 107 110 112 114 122 125 124 123 120 121 121 122 123 126 125 128 124 120 126 128 127 127 128 129 129 122 124 124 122 126 127 131 129 128 125 125 124 121 118 111 108 104 97 95 93 57 59 101 103 108 109 113 120 121 122 124 125 123 123 125 125 125 124 127 118 122 127 127 123 126 126 120 124 121 124 127 126 127 127 130 130 125 125 126 126 120 114 113 109 104 98 94 91 56 55 95 101 103 106 109 116 119 120 123 124 125 124 126 121 123 124 128 123 124 126 128 128 130 129 127 126 122 127 126 127 132 129 127 128 123 126 125 123 118 115 110 107 101 97 92 90 56 57 89 102 103 105 108 115 115 122 125 122 123 124 123 123 127 127 128 126 129 130 130 130 130 136 131 131 130 128 130 130 134 136 134 130 129 132 134 131 123 115 114 108 101 93 92 89 53 56 94 101 106 108 111 117 122 127 136 131 126 129 127 130 129 132 138 131 134 135 136 135 135 136 134 133 135 132 134 134 138 136 138 135 137 137 136 137 128 115 115 106 99 90 88 86 52 55 93 99 107 109 111 122 125 133 135 133 133 136 137 130 132 136 138 135 134 129 136 135 136 137 128 128 136 135 131 132 134 136 137 131 139 136 131 126 119 107 101 106 97 91 85 85 51 55 91 94 101 97 100 105 112 117 121 130 135 137 137 132 134 131 134 127 118 116 132 133 130 137 119 115 125 131 131 133 132 126 132 120 124 116 106 96 96 86 84 92 92 87 86 81 49 53 87 86 82 74 76 77 83 82 87 94 104 110 114 121 123 120 120 112 103 99 124 131 132 127 105 103 114 116 122 123 116 103 96 83 81 77 75 75 76 72 72 74 80 80 80 80 49 50 76 67 59 54 56 57 54 56 54 52 49 59 69 74 88 101 100 101 94 85 110 122 127 115 94 95 105 99 96 91 78 60 53 47 46 44 52 62 60 60 56 67 71 71 75 79 48 42 65 58 57 57 59 62 56 54 49 48 47 44 44 49 62 70 83 88 78 75 104 117 115 107 84 85 91 80 67 61 54 47 44 52 50 56 59 61 70 67 62 60 62 62 65 75 50 37 57 62 66 73 75 87 93 89 80 73 69 62 58 53 56 62 70 72 66 65 97 112 112 103 78 64 73 71 63 55 56 61 67 74 83 94 101 105 101 93 82 72 71 65 62 69 49 38 64 73 76 85 87 97 112 111 106 101 90 79 74 66 60 59 62 56 52 69 100 110 112 105 85 67 60 60 61 60 62 69 75 81 91 99 105 112 109 104 92 84 81 71 68 70 47 43 68 75 78 81 88 93 100 97 94 90 81 70 63 63 62 59 56 52 59 81 101 109 103 105 97 81 63 55 54 60 61 58 54 62 66 67 69 72 65 74 83 83 81 74 69 71 46 44 74 76 80 83 77 61 46 34 30 27 54 36 46 42 46 54 54 60 73 82 100 116 118 122 103 90 80 64 57 55 47 57 67 52 56 34 71 39 48 52 53 61 74 73 69 71 46 45 72 70 60 47 32 40 46 28 30 30 50 55 83 51 46 46 52 61 76 89 112 131 129 135 106 90 81 68 61 54 56 54 69 38 32 31 45 45 99 63 41 49 46 62 68 75 48 40 58 44 37 36 46 83 96 45 39 37 39 90 143 112 60 45 71 76 80 88 113 131 131 135 107 87 85 86 86 51 62 102 131 64 39 39 37 64 118 98 69 51 60 65 72 82 52 45 64 60 61 64 73 95 111 98 68 57 84 131 127 104 85 72 86 84 81 83 114 130 126 134 108 83 86 92 99 81 96 107 128 123 71 60 77 118 110 94 79 78 74 74 78 94 58 48 76 82 90 87 82 89 100 105 104 106 103 106 117 116 103 106 101 85 79 78 113 128 121 128 103 79 86 91 108 115 113 108 111 106 109 99 105 99 92 95 97 103 97 90 93 98 62 57 98 97 102 104 110 111 115 111 106 103 103 101 99 97 97 106 100 86 80 90 112 130 131 132 103 81 85 97 108 119 112 98 94 97 103 105 108 110 113 114 110 103 101 97 100 98 61 63 99 95 98 102 104 106 110 111 107 102 93 89 95 104 115 113 96 89 86 94 107 125 131 129 112 95 87 99 104 115 120 113 99 89 95 110 119 124 121 111 105 101 105 103 104 98 60 68 106 98 101 108 105 101 99 98 96 95 101 113 124 128 125 109 99 92 94 93 106 119 121 121 114 102 90 102 109 112 122 126 114 104 98 93 86 94 102 105 103 103 114 118 114 106 63 70 113 108 110 110 115 117 123 122 121 117 123 128 130 128 118 108 101 95 95 103 118 125 127 129 124 114 99 100 110 113 121 115 125 120 117 114 111 118 120 118 115 117 121 121 121 114 61 69 120 122 120 124 125 127 127 126 120 124 127 132 131 126 117 108 98 96 106 121 129 134 135 137 134 125 113 98 104 113 120 126 127 127 122 120 124 125 131 133 130 128 129 126 125 115 62 68 120 121 124 128 127 124 123 121 124 130 129 129 127 117 114 102 95 101 112 125 127 133 137 136 136 130 123 107 96 101 115 129 129 132 125 122 120 121 123 123 121 124 127 127 122 112 64 63 113 114 122 124 123 121 118 119 124 128 133 133 128 124 107 89 90 104 118 131 139 139 139 137 137 134 125 113 93 90 110 126 133 130 131 129 125 124 121 122 124 124 125 122 113 101 61 59 104 110 113 120 123 124 127 128 130 136 142 138 122 95 85 89 93 106 119 140 155 144 141 143 142 137 125 112 94 89 90 109 125 130 132 136 133 129 128 125 124 122 118 116 108 99 59 59 95 100 104 112 120 125 130 133 137 147 137 124 97 80 92 102 99 105 115 142 184 153 154 153 169 155 125 111 100 104 103 99 107 121 131 131 137 129 130 130 123 120 113 107 103 98 58 55 86 94 104 108 113 121 131 131 139 136 121 103 79 93 105 108 103 101 107 117 131 132 137 142 158 141 114 103 101 111 112 102 97 105 119 119 131 134 134 131 126 116 114 109 103 98 57 56 89 94 103 108 115 118 129 128 129 122 107 84 80 95 105 103 98 96 96 101 113 121 123 118 118 110 103 93 98 110 116 106 97 95 104 112 121 126 128 128 127 118 114 104 99 95 58 54 93 87 98 109 116 118 123 125 119 106 91 78 105 96 98 91 70 64 71 83 94 102 106 106 102 94 76 53 54 78 96 98 96 98 96 106 115 118 123 128 121 116 108 105 100 98 61 52 88 92 98 103 109 114 113 115 108 94 75 91 109 93 80 65 31 23 24 35 62 81 85 83 81 62 34 27 26 37 72 81 94 100 90 95 105 112 117 122 118 111 104 99 96 96 57 52 90 89 93 97 103 106 107 108 94 81 71 95 103 95 77 59 48 55 66 57 44 49 61 61 64 81 88 84 69 55 64 83 97 99 91 84 95 104 114 116 111 109 103 100 94 93 56 53 88 89 91 97 100 103 104 99 88 73 80 97 101 97 97 90 88 89 93 91 78 67 61 65 73 80 84 91 90 80 83 91 93 101 99 94 86 97 103 106 103 105 100 94 92 89 54 52 86 87 92 97 98 97 99 93 83 77 90 98 96 97 95 95 94 93 99 96 98 96 97 93 83 83 86 90 88 90 92 92 96 105 107 106 90 90 96 100 101 103 95 95 91 89 53 51 84 85 88 91 93 93 94 85 80 85 93 96 95 96 97 98 97 97 99 102 97 98 96 98 105 103 103 96 94 96 96 97 97 102 104 108 100 93 94 97 97 98 94 91 89 86 52 51 83 83 86 89 92 93 92 87 83 88 96 98 99 98 97 101 99 105 104 104 92 98 102 104 103 107 102 101 105 111 104 101 102 104 105 109 103 95 89 92 95 97 92 87 84 84 50 49 80 80 83 86 88 91 83 81 77 83 93 94 95 103 99 99 101 104 105 107 100 101 103 107 102 107 109 105 105 107 106 108 108 106 100 100 100 95 89 87 90 92 87 83 83 82 52 50 81 80 81 84 85 86 85 79 80 84 87 91 90 93 96 102 104 109 115 119 109 106 105 105 111 116 123 111 108 110 108 101 104 103 96 97 98 94 84 89 87 84 83 84 83 82 53 49 79 82 78 79 80 84 80 74 80 79 87 85 88 90 98 105 109 113 112 122 129 127 121 121 126 127 121 116 111 109 103 99 95 93 88 86 86 85 83 82 83 80 80 80 82 82 53 51 80 77 77 77 80 81 73 70 75 79 77 82 83 88 92 95 92 88 90 89 96 101 113 112 101 97 91 93 93 94 95 97 93 84 77 73 78 79 77 79 81 79 78 78 80 80 52 51 81 76 76 77 80 78 73 68 75 77 71 70 73 78 74 73 76 78 85 86 86 87 90 92 85 88 91 90 82 77 74 77 79 78 69 66 71 77 73 76 82 85 79 82 82 81 52 51 76 74 78 78 76 78 70 69 72 70 64 48 47 55 59 67 73 76 75 77 79 85 90 89 88 76 80 76 73 71 63 60 58 52 39 50 59 70 69 76 86 88 80 80 82 78 51 52 82 77 80 76 78 78 71 70 73 63 44 28 33 46 60 68 75 76 83 84 70 70 67 68 67 69 78 87 85 84 80 73 68 59 48 38 52 64 71 79 88 91 80 82 78 79 52 51 81 78 79 76 78 80 80 72 68 55 40 62 75 65 74 87 101 114 121 134 118 115 110 111 111 117 122 129 126 118 99 82 72 75 78 62 54 63 74 83 89 88 79 77 79 75 50 48 78 77 79 77 76 82 85 76 68 60 59 73 85 85 78 77 86 99 119 140 120 126 136 146 137 131 138 129 121 111 83 77 83 88 88 76 66 69 77 84 86 81 77 76 74 75 49 48 79 78 77 79 76 80 84 79 70 68 72 78 84 86 88 85 81 83 93 108 119 125 124 121 122 128 121 114 93 88 86 88 87 90 93 81 78 76 75 80 84 78 74 74 73 77 47 50 78 78 76 76 79 79 81 75 70 74 76 81 80 83 85 89 90 93 94 96 99 99 106 106 103 106 105 97 96 94 90 90 90 86 85 87 88 79 77 80 81 76 71 71 76 77 46 50 81 81 73 73 76 77 73 72 72 73 76 78 81 79 79 86 88 90 89 92 96 96 95 99 99 102 100 93 88 86 89 89 83 86 88 89 85 79 72 72 76 71 70 73 77 74 46 48 77 78 77 72 73 74 73 70 69 67 75 79 79 76 71 74 76 83 76 74 70 70 70 75 74 73 73 75 80 85 82 81 83 88 86 88 84 79 78 71 68 69 70 72 74 74 48 48 79 79 78 72 71 70 67 68 68 68 73 80 78 75 74 72 68 66 61 61 57 53 50 57 54 58 62 66 66 69 76 77 85 88 87 83 82 83 79 70 70 70 72 73 74 75 46 48 77 77 74 73 70 72 68 67 66 67 74 77 78 79 79 76 71 62 58 57 54 54 55 56 55 54 55 58 65 70 78 79 84 87 86 79 76 77 76 69 68 67 70 71 73 77 43 47 75 74 75 73 71 72 70 67 64 66 71 73 77 79 86 85 82 79 75 78 81 80 78 74 70 75 77 77 78 79 83 84 85 81 83 76 72 73 68 68 67 67 69 71 75 74 44 43 73 74 73 71 68 67 65 65 66 67 69 74 78 84 89 93 94 96 100 105 110 112 108 108 106 109 107 102 101 99 90 93 90 83 80 74 73 72 68 69 70 69 71 73 75 71 44 42 70 72 70 69 68 65 66 66 68 69 69 75 79 85 89 89 95 106 111 116 111 113 111 109 106 108 112 110 109 106 105 100 92 83 77 76 72 68 67 68 68 70 70 72 71 71 44 43 67 69 68 68 67 66 68 67 66 70 71 76 77 78 79 86 94 100 100 103 100 103 103 102 100 105 108 106 103 108 106 96 89 79 75 73 72 69 64 65 69 69 69 71 68 70 43 43 68 67 67 62 61 62 64 65 66 70 72 74 73 77 81 83 88 85 90 93 90 89 89 87 89 92 92 98 101 101 95 87 81 75 71 72 70 65 63 65 65 66 66 67 67 70 44 43 67 65 67 64 59 58 56 57 63 63 67 67 68 72 74 72 76 79 85 87 83 82 78 77 78 80 89 91 91 86 83 78 72 71 68 70 66 63 61 62 61 63 64 66 66 69 39 41 61 62 63 63 61 57 57 56 57 56 61 66 66 67 68 70 74 72 75 77 77 80 76 71 79 81 83 82 80 80 75 70 70 69 68 66 61 59 58 58 62 62 63 66 67 66 33 26 37 36 37 38 38 38 37 35 36 35 35 37 41 39 38 36 39 40 42 44 43 43 45 46 46 46 47 45 45 44 44 43 43 42 40 36 35 35 35 37 36 38 39 41 41 41 17 