P2
48
60
255
48 78 79 80 79 77 79 81 80 80 82 84 84 83 84 84 82 86 86 85 84 84 83 84 82 81 82 84 83 84 85 84 85 85 84 83 84 81 75 76 75 76 74 74 73 73 70 40 78 128 127 128 128 128 128 131 131 134 134 135 135 136 136 136 137 137 136 134 135 135 133 133 133 132 135 135 135 135 134 136 137 136 138 135 135 134 130 125 123 123 123 121 122 120 115 66 78 129 128 127 128 129 129 131 133 132 132 134 136 137 135 136 131 134 133 134 133 133 131 133 134 133 134 133 133 132 134 135 135 137 137 137 135 133 132 126 126 124 123 125 124 121 116 66 79 130 131 128 128 130 127 128 129 129 129 131 133 133 132 131 130 128 130 132 130 132 133 135 133 133 134 134 131 132 134 136 135 135 135 135 133 133 131 129 129 126 123 125 125 121 117 66 81 132 130 128 128 130 127 122 123 121 120 121 123 125 124 121 126 122 127 129 130 132 131 132 133 133 131 129 130 129 132 134 134 134 132 132 130 128 127 127 127 128 126 126 124 124 118 69 82 132 128 127 127 124 118 113 112 107 105 105 109 110 114 112 114 114 119 123 127 126 127 130 129 127 124 121 119 123 124 127 129 125 125 123 120 118 120 121 124 128 127 127 123 125 121 69 83 133 129 130 125 115 105 100 94 94 93 91 91 90 93 97 96 96 105 114 121 121 125 124 119 117 114 114 112 108 111 109 111 115 113 111 107 107 107 106 106 116 124 123 122 123 119 71 82 131 131 126 116 93 85 84 78 74 71 65 62 63 69 72 73 79 91 103 110 113 118 114 112 108 111 112 106 95 96 99 88 90 96 94 88 87 89 94 98 97 114 121 121 123 118 72 83 133 129 118 94 77 74 66 60 55 52 51 51 51 52 57 61 68 85 93 100 99 108 110 106 102 102 104 104 85 84 74 65 60 63 64 63 63 66 73 87 85 95 112 121 122 121 74 83 130 117 93 76 66 61 53 51 50 51 49 47 51 50 48 53 62 70 89 93 97 99 102 98 99 94 94 92 80 72 62 55 50 50 50 54 57 55 59 76 78 76 86 110 115 121 76 81 115 90 74 63 59 58 64 70 68 66 61 56 56 53 56 55 60 68 83 92 98 97 101 96 99 91 86 83 73 70 58 51 48 48 46 49 52 51 52 58 62 58 65 81 104 120 76 73 103 82 66 63 67 77 89 93 96 93 84 72 65 65 66 66 67 74 82 96 101 103 102 102 107 100 85 78 72 69 59 57 56 56 60 69 80 82 75 73 65 55 56 66 87 112 75 70 93 79 73 82 94 100 105 107 107 108 102 87 75 67 62 63 67 74 84 98 105 108 102 104 111 106 94 79 71 67 66 64 63 68 78 90 98 104 104 98 89 77 62 62 81 111 73 66 90 78 84 95 100 101 101 98 94 88 77 70 62 61 64 63 61 67 81 97 107 115 114 114 115 110 102 81 65 61 62 62 61 63 74 87 94 99 104 107 102 92 78 71 81 103 68 55 85 88 96 100 97 89 78 68 62 57 54 60 60 59 56 59 63 69 84 98 115 124 124 121 123 116 103 80 66 61 58 54 53 55 57 56 59 67 87 93 101 98 91 84 84 97 70 55 90 95 101 98 81 70 66 53 44 48 40 60 49 58 67 63 65 73 89 103 118 129 130 131 130 119 105 87 74 69 69 68 58 46 47 45 50 51 67 69 86 96 95 91 90 96 68 59 95 97 95 87 73 67 51 63 50 41 37 44 65 81 60 68 80 81 94 106 120 129 131 134 132 120 106 93 86 86 70 61 68 51 46 38 44 42 48 64 67 86 94 93 89 94 63 60 98 92 90 80 69 50 68 83 64 49 45 53 87 94 75 75 86 89 101 111 123 127 130 131 132 121 107 100 97 84 79 75 85 61 43 37 47 55 58 48 59 73 89 92 93 99 65 63 99 95 99 87 74 73 73 79 82 72 73 87 103 100 96 100 97 100 109 114 123 129 127 128 127 121 110 106 98 100 97 96 98 88 62 52 50 75 73 52 57 69 82 95 99 103 67 68 107 107 103 101 108 102 96 91 84 81 85 89 100 103 98 99 102 112 113 115 122 127 127 125 125 120 113 109 106 98 99 97 100 95 92 87 82 88 76 67 72 84 93 99 105 109 70 74 120 113 111 119 120 115 113 107 102 101 105 106 108 107 104 108 114 115 115 117 120 128 129 129 126 118 113 112 112 104 102 102 101 102 105 99 96 96 101 97 101 99 103 108 113 116 73 78 123 118 120 121 118 120 116 117 121 119 116 117 114 112 114 117 118 115 114 118 122 128 129 131 128 118 110 112 115 115 110 109 111 111 116 118 118 113 112 112 116 115 111 117 122 125 77 79 128 126 126 121 122 123 118 124 126 125 121 118 120 120 119 119 120 118 117 119 120 126 129 128 127 118 112 115 117 121 119 114 113 116 118 121 119 119 120 117 120 121 122 124 123 126 79 82 131 131 127 123 123 123 125 123 126 125 124 121 124 125 127 122 121 116 117 118 118 127 127 130 126 119 114 112 118 123 125 124 123 121 120 121 120 120 113 116 122 125 124 126 127 125 79 83 131 130 130 128 129 128 128 129 126 127 127 127 127 128 126 118 114 112 118 117 119 123 127 127 125 115 115 109 112 122 126 127 126 124 125 124 122 123 120 125 127 127 127 127 129 128 78 82 134 132 132 130 129 131 132 129 129 130 131 130 129 128 121 110 106 114 119 117 116 127 130 132 124 116 115 111 106 118 127 128 129 125 122 128 128 127 128 127 129 126 129 130 128 131 79 82 133 135 133 131 133 132 131 131 133 132 132 131 130 126 114 102 110 117 122 120 123 127 131 129 127 116 117 114 106 106 121 129 131 127 128 126 130 131 130 130 131 131 131 130 130 128 78 82 132 131 133 133 134 133 134 134 134 131 132 129 127 117 106 106 120 120 121 122 121 123 122 129 129 117 118 115 111 101 108 125 134 132 130 131 132 130 130 131 133 132 131 130 128 124 77 81 132 131 132 132 133 134 133 135 133 129 128 126 119 107 92 116 121 114 111 111 112 110 109 112 113 107 110 109 110 108 97 113 128 133 131 132 132 132 132 130 129 131 129 128 125 122 75 79 130 130 132 134 134 135 134 134 132 129 126 122 110 91 81 110 102 90 98 101 100 91 87 94 98 93 94 97 108 106 90 101 117 127 132 135 133 133 134 130 129 126 126 124 123 122 75 80 130 131 131 130 132 133 133 133 130 126 120 113 99 78 76 95 72 48 51 68 81 79 76 79 85 84 71 61 84 99 86 91 108 120 130 133 135 134 135 131 130 126 126 125 123 123 73 80 133 131 131 132 132 132 133 131 129 119 114 107 93 80 81 81 68 56 46 41 53 71 72 74 61 46 43 49 66 87 89 86 98 113 124 131 134 134 136 133 129 128 126 122 119 121 73 80 130 129 131 131 131 132 131 129 125 119 113 108 96 94 90 76 67 80 77 58 71 75 70 71 69 63 64 80 73 90 100 92 93 107 118 128 133 134 135 133 129 127 125 122 120 121 73 82 129 128 128 131 133 132 127 127 123 117 113 110 108 100 84 72 66 65 65 60 65 66 64 66 63 60 59 71 77 89 95 101 98 103 113 119 128 133 133 131 131 127 122 122 122 121 72 80 126 128 129 126 130 130 128 126 120 116 114 114 110 96 78 61 58 53 56 56 56 55 63 58 54 53 54 52 59 72 85 102 106 105 111 119 125 132 131 131 128 127 121 121 121 120 71 78 124 125 127 126 128 128 124 121 117 114 112 98 91 90 74 65 59 56 55 54 51 51 51 51 51 54 54 51 56 65 80 89 99 108 110 113 122 128 131 129 126 124 122 120 120 119 72 78 126 124 122 121 124 122 113 116 113 109 92 82 84 76 73 65 61 56 55 56 51 49 48 51 50 57 55 55 55 62 72 76 86 100 111 114 120 125 129 129 127 122 119 119 120 118 71 80 125 124 122 120 121 117 113 114 107 96 79 77 73 68 68 61 55 55 53 56 51 49 46 50 50 55 51 54 55 62 67 64 74 86 100 112 117 123 128 126 122 121 118 118 118 117 72 79 123 120 120 118 118 117 116 113 102 83 75 70 64 57 61 58 57 55 52 53 56 49 44 51 50 52 50 52 58 60 62 57 67 73 81 104 115 122 123 122 120 117 117 119 117 118 72 75 120 119 117 119 117 119 118 110 85 71 69 65 62 60 62 58 60 53 54 54 53 53 47 52 58 57 52 53 62 58 60 58 64 69 69 85 111 116 120 122 119 116 117 117 117 118 73 75 123 119 120 119 116 116 111 100 73 64 61 64 60 62 61 59 63 59 59 56 56 57 54 57 59 65 58 60 62 60 65 59 59 65 63 77 102 114 118 120 119 116 115 115 114 117 71 75 120 117 119 115 118 116 107 91 65 60 57 56 55 58 61 62 67 62 63 61 63 64 67 66 67 67 63 65 65 63 68 64 58 61 62 64 99 112 118 119 117 116 116 114 114 114 71 75 119 119 119 118 118 116 108 82 60 58 52 56 56 59 63 62 64 65 71 73 73 72 76 74 73 74 73 63 60 65 69 59 56 54 56 59 89 117 121 118 118 116 116 113 114 111 68 75 119 116 116 118 119 116 109 79 54 54 54 58 61 58 56 56 60 60 64 66 63 63 64 66 67 67 65 57 56 55 55 55 47 53 57 59 83 113 121 116 118 116 114 110 112 110 67 76 117 116 117 119 117 118 109 78 56 55 54 54 48 49 55 63 78 87 92 93 92 94 92 94 97 98 93 87 79 63 54 48 47 50 55 59 83 111 117 121 114 112 112 109 110 107 66 74 118 120 118 119 118 118 108 80 61 61 62 64 77 90 99 101 100 100 101 102 101 104 103 102 104 105 104 100 100 98 94 84 63 52 56 65 94 118 123 120 116 112 112 108 107 104 65 73 119 118 119 118 117 115 109 98 85 82 86 91 97 100 103 103 99 96 92 90 84 86 86 85 89 90 95 96 99 100 101 100 91 75 71 73 104 118 123 121 117 113 110 107 109 104 64 74 115 117 117 116 114 111 109 104 97 93 97 100 104 101 101 101 93 89 84 77 71 70 73 75 78 85 88 90 91 98 102 105 106 100 94 96 109 115 117 120 117 111 109 109 107 105 66 74 114 117 116 118 114 112 108 101 98 99 101 104 102 101 102 96 93 87 83 82 80 73 77 80 82 86 88 91 95 100 104 109 107 108 104 98 106 115 112 118 115 111 109 108 107 106 65 74 113 113 116 114 112 111 106 97 98 98 104 104 103 102 101 97 91 91 85 84 85 83 85 88 89 93 95 98 99 101 103 107 107 109 102 99 104 111 118 115 112 110 108 108 106 106 65 73 114 113 113 114 110 107 100 92 98 98 101 102 103 103 102 101 96 94 89 90 91 90 93 94 95 97 100 103 102 103 100 104 102 105 101 101 98 105 110 110 109 108 106 106 106 104 66 74 115 114 113 111 107 102 96 93 98 98 99 101 103 104 104 105 103 104 101 102 103 105 106 107 105 107 110 110 109 106 105 106 104 102 100 98 95 100 105 104 108 103 105 103 106 103 65 71 117 113 111 107 103 98 96 95 94 98 102 99 102 103 103 106 107 108 107 108 108 108 108 108 110 110 109 108 109 107 105 105 102 100 99 95 96 96 103 102 101 100 103 101 102 102 63 76 116 115 107 101 96 89 90 93 94 98 98 101 104 106 102 103 105 107 110 107 111 108 109 109 110 109 109 108 103 103 102 105 103 102 98 95 98 97 95 96 97 99 102 102 101 101 61 77 115 112 104 97 97 91 89 90 91 95 96 99 101 102 103 105 106 108 110 109 111 111 109 111 112 111 113 112 107 100 102 105 100 99 95 97 91 92 95 96 96 96 99 99 96 95 61 75 115 112 103 97 93 90 88 90 90 95 95 98 101 104 104 104 109 109 109 107 110 110 111 112 113 110 111 112 107 101 100 99 97 96 96 92 92 94 95 95 91 90 94 94 96 94 59 81 116 107 102 93 88 88 88 88 91 92 95 98 103 104 101 101 102 106 107 103 110 110 112 110 111 109 108 105 106 102 100 94 96 95 91 92 88 90 91 90 88 89 93 94 94 95 56 79 123 109 98 91 88 84 84 85 88 94 97 99 103 99 99 100 101 101 103 104 105 105 104 106 109 106 105 103 99 95 95 94 94 92 90 89 87 84 84 88 88 88 93 93 94 92 55 89 118 110 97 94 85 81 82 84 88 93 95 95 97 95 96 93 97 96 100 100 102 104 103 103 104 104 101 98 98 96 94 91 93 87 87 84 82 85 81 85 86 88 89 92 93 90 56 53 73 67 62 55 54 52 51 51 54 58 60 58 58 59 57 57 60 59 58 59 59 61 62 63 63 62 60 57 60 57 58 59 54 54 51 52 49 50 47 51 55 54 56 56 56 54 35 