P2
48
60
255
55 89 77 70 70 68 68 68 69 71 73 73 73 74 74 74 74 74 75 75 76 76 77 75 76 76 75 75 78 77 78 78 79 78 79 77 77 76 76 74 73 70 68 68 66 65 65 42 84 143 130 116 115 109 108 112 112 116 118 119 118 118 121 120 121 122 122 121 121 123 123 121 122 123 123 122 123 124 124 125 126 127 127 126 125 120 119 118 115 114 112 108 105 106 106 68 82 139 135 123 114 109 108 109 111 115 117 120 120 117 121 119 121 122 121 118 121 122 124 122 123 124 122 123 124 122 123 123 125 125 126 124 123 124 119 116 112 112 110 106 103 105 106 68 79 133 139 128 113 111 109 110 114 115 117 121 122 121 123 121 123 120 121 122 121 123 122 122 123 123 123 124 124 123 123 124 126 126 128 123 124 125 121 115 112 110 109 107 102 105 106 68 79 128 137 135 116 109 109 111 111 114 115 117 120 122 119 121 122 123 123 123 124 124 123 124 125 123 123 124 124 125 123 123 126 126 127 125 126 123 119 116 112 111 108 105 103 106 103 65 81 124 134 131 117 113 112 113 114 112 112 113 116 117 117 116 119 117 118 119 123 121 120 122 124 122 121 121 122 123 122 122 121 122 123 123 122 121 119 115 112 112 109 105 104 105 104 64 81 126 130 124 121 117 116 112 113 111 112 110 111 112 114 111 107 111 112 115 116 115 113 118 119 117 114 117 120 119 119 117 117 118 118 118 118 119 119 116 114 114 110 108 104 104 105 63 82 128 127 128 122 126 122 115 109 108 108 110 111 111 112 108 105 104 105 108 109 108 104 105 110 112 106 109 113 114 116 115 115 114 113 112 110 101 103 100 102 105 109 110 106 103 103 62 84 134 135 130 123 121 120 105 100 101 102 95 100 100 102 102 100 99 99 102 103 101 97 99 101 104 102 102 104 107 107 105 106 100 93 87 82 79 84 80 84 94 111 111 106 103 102 63 87 138 151 135 119 102 90 84 84 78 78 76 81 88 89 85 87 92 95 97 96 96 93 95 99 99 95 98 97 97 91 87 76 67 63 59 60 71 65 69 74 82 94 105 106 103 101 62 91 148 159 127 97 89 91 86 79 77 77 74 77 73 65 66 70 78 84 87 91 90 91 100 101 96 88 88 90 84 76 61 50 52 54 50 52 59 65 74 79 81 90 97 102 101 100 62 88 153 160 125 101 93 89 89 78 74 61 58 55 56 54 52 56 63 66 77 83 84 93 103 108 96 80 77 77 68 54 47 45 46 48 52 60 69 80 89 87 86 85 86 92 99 100 63 91 158 169 131 103 95 86 81 73 66 62 58 54 49 48 49 51 55 59 68 73 82 93 103 108 101 80 66 62 58 53 50 49 50 54 59 64 72 78 82 87 90 85 81 83 94 100 64 93 169 145 125 112 97 76 62 51 43 37 35 36 40 40 45 50 50 52 62 79 90 94 103 106 100 90 70 55 49 49 49 44 41 38 33 32 34 41 51 69 83 89 82 86 95 100 64 85 147 121 113 122 86 56 45 49 41 61 32 37 41 42 42 41 46 46 51 76 91 97 102 106 100 90 65 45 45 45 41 42 42 37 37 37 40 48 43 45 65 84 87 85 95 101 64 88 126 107 111 111 60 53 62 79 59 47 41 48 65 55 45 47 46 45 53 71 92 102 105 107 103 91 64 46 46 49 46 52 65 51 43 42 55 86 73 50 47 72 89 89 92 102 64 88 113 99 110 91 65 72 79 92 76 57 56 72 89 75 57 55 54 59 68 75 94 110 115 119 112 98 76 71 66 62 73 84 88 79 60 61 77 93 91 81 71 67 89 92 96 101 64 78 110 96 108 92 92 105 98 94 93 92 90 94 96 93 90 79 67 71 76 80 92 108 118 121 116 99 86 79 75 88 89 85 85 92 91 96 93 91 90 91 101 86 89 99 101 102 64 73 109 95 101 116 112 102 96 89 83 81 77 78 80 81 87 89 71 66 77 88 93 105 116 119 116 103 93 83 72 85 94 88 82 80 82 83 86 90 94 104 108 102 94 98 102 103 64 74 112 102 105 130 112 104 99 95 92 89 87 89 91 95 96 89 68 73 86 91 96 110 116 117 117 106 99 95 79 76 87 92 96 90 88 92 92 94 101 103 105 104 100 103 105 103 62 73 110 102 104 122 109 98 97 94 92 92 91 94 95 92 86 77 70 84 93 90 98 108 115 115 119 107 98 99 91 71 77 83 91 99 101 100 98 99 104 102 101 99 108 113 110 105 63 73 111 106 106 113 107 97 94 93 94 93 92 90 83 80 74 73 84 91 95 97 101 106 116 114 117 109 97 98 93 80 70 75 80 86 92 98 103 101 98 99 94 99 113 115 112 104 60 75 115 111 109 109 100 94 92 88 86 82 76 70 69 69 73 84 89 93 97 100 101 102 114 110 115 108 97 95 94 94 77 65 69 75 80 86 90 92 89 89 93 107 117 116 114 104 60 75 119 117 113 108 101 92 84 81 79 73 71 73 79 83 94 95 91 95 96 100 102 103 108 115 118 108 97 94 93 97 105 88 71 68 69 72 76 78 82 87 104 113 116 116 112 102 59 76 123 117 113 112 109 103 94 87 90 92 94 97 102 104 104 97 94 97 96 100 102 103 109 119 120 111 100 95 95 97 106 109 106 98 94 90 90 97 102 109 113 112 111 112 106 98 58 84 126 111 110 105 106 107 104 104 100 101 101 100 106 108 107 98 94 97 97 101 103 103 110 115 121 113 103 96 94 98 107 115 112 110 106 110 110 110 110 111 108 105 108 104 100 95 57 94 134 108 104 100 98 101 102 105 108 105 105 107 110 110 106 101 94 91 90 99 103 103 105 107 112 110 105 98 83 94 103 111 113 114 113 110 108 109 107 105 102 100 102 99 96 95 58 102 133 107 102 99 93 94 97 104 110 110 110 111 113 111 105 95 82 72 81 97 102 104 107 105 107 111 107 100 75 82 99 106 112 113 114 118 115 107 102 100 96 99 99 96 94 94 59 109 133 105 99 98 96 97 98 107 109 108 108 111 112 107 100 85 63 72 87 96 101 102 108 106 110 115 109 101 81 71 89 101 108 113 112 114 113 106 104 102 100 99 99 97 96 94 59 105 137 104 99 99 96 97 101 102 108 108 108 109 106 100 93 73 57 73 89 100 101 102 113 109 110 114 109 96 91 66 74 87 101 111 113 112 111 106 104 102 102 101 101 97 99 97 60 100 133 104 101 100 99 99 101 100 102 106 106 105 104 97 82 63 56 80 93 99 98 98 104 102 103 105 96 86 87 72 62 78 92 104 105 110 110 108 105 104 103 101 101 98 98 99 60 90 125 104 103 100 101 99 102 99 102 101 101 101 100 89 72 55 58 83 90 85 87 86 88 89 89 89 82 67 74 76 59 71 86 98 101 107 106 105 104 104 104 101 101 100 99 97 60 85 120 106 103 101 100 101 100 99 101 102 99 98 94 80 60 54 72 77 68 48 57 78 73 68 69 72 59 41 63 81 64 63 77 93 100 103 103 104 104 101 99 100 98 100 98 97 60 86 120 107 102 99 98 100 98 98 100 98 97 92 85 71 54 71 84 82 67 52 56 61 62 56 59 65 64 59 85 94 86 63 73 88 97 100 103 100 101 100 99 100 99 98 97 96 59 86 116 105 100 98 97 98 97 96 96 95 92 88 78 61 63 83 86 85 81 78 79 77 62 53 67 83 84 87 93 98 94 76 66 79 92 99 99 99 98 100 100 100 100 99 97 94 58 94 120 103 100 97 96 95 94 95 95 92 87 83 70 60 81 86 86 85 84 84 84 81 72 70 79 89 89 90 94 96 95 91 71 73 88 96 99 100 100 101 101 100 98 98 94 94 57 96 121 102 101 100 98 95 93 94 92 89 83 76 66 73 84 86 85 85 82 84 83 78 74 75 81 87 88 90 94 94 93 94 86 72 80 92 97 95 99 100 100 100 99 96 94 92 57 104 117 101 103 98 96 92 92 93 90 86 79 73 72 82 84 84 86 85 83 84 81 80 78 78 83 87 88 90 92 94 90 90 90 82 74 86 93 92 96 98 98 98 96 94 91 92 56 110 122 102 99 96 96 94 92 89 85 83 78 77 82 85 82 84 84 82 82 83 83 81 76 78 81 88 86 88 92 91 89 89 93 94 83 78 88 88 90 94 96 97 94 93 91 90 56 117 126 100 95 95 94 94 93 89 82 80 77 84 87 82 80 81 80 82 85 86 85 79 74 76 78 82 84 85 86 86 84 84 92 97 92 77 83 87 88 93 94 93 92 94 91 91 55 126 135 103 95 94 95 93 91 88 84 80 83 90 88 80 75 78 77 81 85 82 80 80 78 79 78 78 79 83 81 81 75 77 89 92 94 84 77 88 90 93 92 90 89 91 90 90 60 136 144 101 94 93 92 89 88 85 84 84 87 89 85 73 67 71 68 63 61 59 61 69 75 75 68 60 61 66 67 67 66 61 74 85 91 92 79 87 88 88 91 92 88 88 88 91 87 142 153 101 91 88 88 87 87 88 91 82 88 82 74 58 46 46 42 45 49 49 47 47 52 51 52 60 64 60 62 60 59 45 56 73 83 90 83 88 91 86 86 87 85 86 85 91 75 126 166 100 87 86 86 85 84 92 93 86 86 76 60 41 64 70 69 73 79 82 80 79 79 83 86 88 85 87 90 92 89 79 49 53 73 87 90 96 92 89 87 84 86 86 86 90 68 103 172 107 86 85 83 83 89 94 95 89 80 66 50 64 77 82 86 87 88 90 91 90 89 90 91 94 93 93 90 91 90 90 85 62 69 84 93 97 95 88 89 84 82 84 86 89 64 94 173 115 88 82 83 87 92 94 91 86 78 69 68 84 84 82 81 82 79 80 76 72 71 72 74 78 81 82 86 86 90 92 95 88 73 83 91 92 95 90 84 82 82 84 86 85 60 75 151 128 89 82 84 87 91 89 86 80 80 77 81 88 87 83 80 75 72 71 69 67 66 67 71 74 74 78 81 82 86 93 93 92 87 80 89 90 90 86 85 79 80 82 86 78 56 51 123 131 96 82 81 88 88 85 83 76 75 77 82 89 88 82 76 72 69 66 67 68 69 70 69 71 74 79 84 85 83 86 90 91 87 82 79 85 86 84 82 78 80 82 84 80 55 36 90 132 101 83 82 87 85 80 73 72 75 77 84 87 86 83 80 77 73 71 70 71 74 75 76 78 80 82 85 85 79 86 91 89 86 76 74 79 81 80 80 78 79 83 83 74 54 40 67 106 112 85 81 86 82 77 73 73 77 79 84 87 86 84 87 81 78 76 75 83 88 92 86 83 81 82 87 86 85 86 89 88 87 83 73 72 77 77 76 77 80 83 74 73 53 52 55 76 113 90 79 83 78 74 74 76 80 83 86 84 85 86 88 88 83 82 93 96 96 94 92 97 94 92 90 90 94 91 92 91 87 85 80 73 72 74 72 77 81 80 60 77 53 58 69 55 97 95 79 77 77 73 70 75 81 83 90 90 88 91 93 90 90 94 96 98 95 97 93 96 100 99 95 94 97 98 96 88 87 81 78 75 70 69 74 78 79 71 58 82 54 62 84 56 67 98 79 73 75 75 72 75 80 83 87 93 93 95 97 97 99 100 98 96 94 92 94 97 98 100 99 96 98 100 96 91 88 80 75 73 68 68 71 76 75 59 65 85 55 62 90 67 51 83 85 76 71 75 73 74 79 84 92 93 97 97 99 101 100 100 96 94 96 94 93 94 95 94 97 96 100 98 94 92 86 80 74 68 65 67 71 74 65 55 74 89 54 63 96 75 62 53 83 76 71 68 73 71 77 88 92 93 95 96 95 97 95 93 100 91 93 94 89 88 90 92 94 94 95 94 91 90 85 78 68 61 59 60 70 66 50 69 78 88 54 66 97 86 75 47 61 75 69 65 63 70 76 90 92 89 92 91 90 87 86 86 89 87 85 86 84 86 85 91 91 89 91 91 87 85 81 71 59 52 54 65 66 55 48 77 82 90 54 67 101 88 78 67 47 60 64 61 59 64 74 88 91 86 87 89 84 77 76 76 79 79 76 76 77 81 81 82 82 83 85 84 83 81 75 61 51 50 60 67 56 38 65 77 81 90 56 70 102 94 80 74 55 45 54 56 56 62 65 74 89 83 81 80 78 74 73 72 74 73 72 70 69 75 76 75 73 78 81 79 79 75 62 56 51 56 65 60 44 40 74 80 84 92 57 71 106 94 88 76 66 45 44 47 52 56 61 64 78 79 75 75 77 75 69 67 69 71 72 71 74 74 73 71 72 70 72 74 73 63 56 51 52 60 59 51 31 57 75 76 82 92 58 46 66 63 55 47 48 35 23 27 27 32 37 40 41 46 45 44 43 44 41 37 40 40 43 44 44 43 40 39 42 41 41 42 39 35 30 29 33 36 34 24 23 43 48 47 53 58 36 