P2
48
60
255
23 35 34 34 36 39 40 39 39 40 41 39 39 38 40 40 46 50 47 48 48 49 48 47 48 46 44 42 44 44 38 33 32 31 30 30 33 35 34 33 33 32 32 31 29 27 28 17 38 57 59 57 61 64 65 64 62 60 56 52 58 55 59 58 67 79 80 77 77 78 76 77 78 76 74 72 72 66 56 51 49 52 48 43 40 46 52 54 54 53 52 52 50 48 46 27 39 60 60 58 64 65 64 64 57 51 44 47 55 56 58 58 63 76 84 80 79 78 77 78 78 77 73 72 70 61 58 55 54 53 48 44 41 38 44 49 51 54 53 53 52 50 48 28 39 61 61 61 65 65 65 59 48 44 47 51 54 56 58 62 63 74 84 82 81 78 79 80 79 76 74 71 70 65 65 62 60 53 50 45 44 40 38 40 45 54 54 53 53 51 49 29 40 62 63 63 66 66 62 50 47 47 48 51 61 60 58 65 66 72 82 83 82 80 81 80 79 77 76 74 71 67 66 65 60 54 49 45 41 42 42 39 43 53 57 53 53 53 51 30 42 64 64 66 66 66 62 53 50 50 48 52 54 62 62 63 68 73 82 85 83 82 84 81 79 78 77 75 73 70 67 64 62 56 53 48 46 46 48 48 48 52 58 55 52 52 53 31 43 67 67 68 65 66 61 57 56 55 56 56 59 61 63 66 66 73 79 82 83 81 83 82 80 79 77 75 72 68 66 64 62 58 55 53 53 58 62 62 58 52 54 55 52 52 53 32 43 68 68 68 64 61 63 70 69 68 65 61 58 60 63 65 66 69 76 78 79 81 81 79 79 78 75 73 68 64 63 62 59 54 53 56 60 65 68 67 63 58 53 53 52 51 53 33 45 71 71 66 59 63 72 75 76 73 69 65 62 60 62 65 66 68 71 74 79 79 78 78 78 75 73 68 65 61 61 60 58 56 59 64 67 67 66 67 66 62 56 54 51 50 53 33 46 73 71 63 62 65 74 78 76 75 74 73 69 67 65 66 67 68 68 73 75 78 77 77 78 74 70 66 62 60 60 60 60 61 64 70 72 72 69 66 67 64 62 58 52 49 53 33 48 74 72 65 68 72 77 77 75 77 76 75 73 74 70 68 69 70 69 70 74 76 77 77 75 71 68 65 61 61 63 63 63 63 68 72 74 73 72 68 66 66 64 60 55 51 53 33 51 77 72 66 71 76 77 74 76 75 74 73 70 70 73 72 72 73 71 71 73 74 77 77 74 71 68 65 62 63 64 66 65 67 69 69 71 70 68 68 66 64 64 62 57 53 53 34 53 79 73 71 74 76 73 73 72 74 74 73 69 67 69 71 74 75 74 74 75 76 77 78 76 72 70 66 64 64 66 66 66 69 68 67 68 69 69 67 63 62 62 63 58 55 55 34 56 82 75 72 75 74 72 69 71 73 72 68 66 65 66 69 74 77 78 79 78 79 80 82 81 76 73 69 67 67 68 68 67 68 65 66 66 66 66 64 62 59 59 61 61 57 55 35 60 85 77 74 75 71 68 65 68 72 72 68 64 62 61 65 70 76 79 80 81 81 83 83 82 79 75 72 71 70 70 69 69 65 62 63 64 65 66 63 60 57 56 58 61 59 56 35 77 87 78 74 73 70 66 63 66 68 65 59 58 57 57 60 67 76 80 82 82 81 83 83 83 80 78 75 74 72 72 71 67 62 61 63 61 61 64 59 56 56 56 56 58 59 58 36 107 90 79 74 72 68 64 61 60 60 55 46 41 41 47 52 61 77 81 84 83 81 82 84 83 79 78 74 75 75 76 74 65 54 47 41 45 41 46 51 53 53 54 55 57 59 58 35 127 92 80 75 71 66 61 59 54 46 41 40 39 42 57 51 53 73 79 82 80 78 80 80 79 77 76 72 75 74 75 68 49 55 74 45 41 36 37 40 47 50 52 53 56 58 60 36 132 93 80 77 73 64 58 52 46 50 43 41 41 49 69 64 58 70 78 81 78 76 76 76 73 71 70 70 71 73 72 69 55 67 83 59 39 37 38 43 40 41 46 51 55 59 61 37 132 93 81 79 76 68 56 49 49 55 58 54 55 62 63 62 66 74 77 79 77 73 73 72 71 68 67 68 69 70 70 71 68 65 63 62 49 44 47 50 45 44 46 51 57 61 62 38 127 93 81 79 78 73 65 56 57 56 58 57 62 60 56 60 70 77 77 76 73 71 72 73 71 67 64 66 66 68 69 72 68 64 61 62 59 54 51 51 50 49 52 56 60 64 65 39 128 93 82 80 79 75 69 60 60 60 62 62 59 56 60 68 75 79 76 75 70 69 71 71 70 67 63 63 65 67 68 71 71 68 65 59 55 53 53 53 52 52 55 58 63 66 67 40 124 93 82 81 78 76 71 65 63 64 65 63 62 65 68 74 81 77 76 72 68 68 70 70 69 66 62 61 62 66 67 70 73 70 67 65 61 57 56 56 56 56 59 63 67 65 66 40 120 93 82 81 78 79 75 71 67 67 67 68 68 70 74 79 81 76 71 68 66 68 71 71 69 68 64 60 60 63 65 69 73 76 71 68 66 63 64 64 63 64 66 69 71 69 67 40 121 94 82 81 81 80 79 76 73 72 71 70 71 73 78 82 78 74 69 65 67 70 72 72 72 70 67 62 59 60 64 68 72 76 75 72 70 68 68 69 72 73 72 73 73 71 67 40 125 94 83 81 83 81 78 78 76 74 72 74 74 78 81 80 77 74 66 66 70 74 76 77 76 72 71 68 63 60 60 67 71 73 78 76 73 72 72 73 72 74 73 73 72 70 68 41 128 95 81 82 82 81 76 77 77 75 76 75 76 79 80 78 77 68 67 72 77 79 80 81 82 79 77 74 68 64 60 63 71 73 76 77 77 75 74 76 76 75 73 73 72 70 68 40 126 96 83 81 81 81 80 82 80 77 76 78 79 78 80 78 71 68 74 79 82 87 88 86 86 80 73 76 75 69 63 60 67 71 74 76 77 75 76 77 77 78 76 74 72 70 68 41 131 98 84 82 82 83 83 83 81 79 79 80 79 80 81 77 67 76 81 79 75 82 87 81 77 71 65 70 74 75 67 62 61 69 74 73 77 77 78 77 78 78 77 75 72 70 67 41 137 99 83 81 83 84 83 84 83 82 82 81 81 81 81 71 70 78 76 69 67 73 77 73 70 64 58 62 70 72 70 65 60 64 71 73 75 77 78 80 80 79 77 74 72 70 67 42 104 97 82 82 82 83 84 84 83 83 82 82 82 81 79 67 72 73 65 54 56 67 71 69 66 60 49 46 60 69 68 66 60 59 66 72 74 76 78 80 80 79 79 75 72 69 67 41 65 94 84 82 82 82 82 85 86 84 84 84 82 81 76 67 68 65 50 39 40 49 62 62 59 50 38 38 42 60 66 65 60 57 63 70 73 76 78 79 78 78 77 75 71 69 67 41 57 93 83 83 82 81 78 84 85 83 84 83 83 79 73 65 66 60 46 42 43 54 59 57 53 51 46 40 42 52 61 62 58 57 60 68 73 77 78 79 79 76 74 72 69 69 66 40 55 93 83 83 82 79 77 85 85 84 84 83 82 77 71 63 63 61 54 60 66 68 64 58 54 57 61 57 52 60 60 58 55 54 60 68 74 77 78 79 79 74 69 69 68 68 66 40 55 94 83 81 81 80 81 84 85 84 84 82 80 76 71 64 59 59 56 61 65 68 72 74 74 70 67 64 56 56 60 54 51 53 63 69 74 77 78 79 80 78 71 70 69 67 65 40 56 96 83 80 81 80 78 82 84 84 84 82 79 75 71 67 59 56 59 65 65 63 68 75 76 68 64 61 66 61 57 52 53 61 66 70 74 76 77 78 78 77 74 70 68 67 65 39 58 95 84 80 80 79 77 82 84 84 83 82 78 75 73 74 74 74 73 69 59 56 63 69 69 63 59 55 60 67 70 71 71 70 69 70 72 75 76 76 75 75 73 70 68 65 64 38 59 92 84 79 77 80 78 82 84 83 82 79 78 77 76 77 77 75 69 58 53 56 60 63 63 61 59 51 54 60 65 70 71 72 70 71 72 72 72 72 73 74 70 70 68 65 63 39 58 92 85 78 75 79 79 81 84 82 81 77 78 78 77 77 74 71 59 57 58 65 68 65 63 65 67 56 52 55 60 65 69 70 71 71 72 71 71 70 71 72 67 68 66 64 63 38 57 95 89 79 76 77 79 81 83 81 78 77 78 78 76 75 73 67 60 67 73 75 74 71 70 71 73 69 66 57 55 62 65 67 68 69 70 70 69 68 69 70 69 66 64 63 61 38 58 95 92 81 77 78 78 80 83 80 77 77 78 78 74 73 72 65 66 75 75 73 75 76 76 72 69 67 67 65 60 55 59 63 64 65 66 68 68 67 66 67 67 64 64 62 60 37 64 93 95 84 80 78 77 78 82 80 75 77 75 75 72 72 69 65 73 71 68 69 67 67 67 62 63 65 63 64 64 59 57 59 60 60 60 62 65 65 64 66 67 64 64 62 60 36 72 101 97 88 82 78 76 75 81 78 76 74 72 70 70 69 66 71 68 68 69 68 64 64 63 60 62 64 63 60 58 61 60 57 57 58 57 58 64 65 64 64 66 65 63 60 59 37 123 115 102 94 84 80 77 75 80 79 75 73 70 68 69 68 69 67 63 65 63 61 59 61 60 59 58 59 59 58 56 55 58 57 54 55 56 57 62 64 64 64 66 65 62 61 60 38 156 158 110 105 87 82 79 78 81 78 74 72 69 66 65 66 66 59 60 58 56 55 55 58 57 55 54 57 58 54 54 51 51 53 54 52 52 54 61 63 63 63 65 65 62 62 61 38 158 226 128 121 94 85 80 80 82 80 74 72 70 60 61 63 58 55 56 61 65 67 66 66 67 69 71 72 73 70 65 59 53 47 47 46 49 54 59 62 63 62 63 63 63 61 62 39 158 255 240 218 109 90 82 80 82 80 75 75 69 60 54 55 54 58 68 71 75 78 76 73 73 74 76 81 80 75 67 62 58 55 48 47 51 56 62 64 63 62 62 63 62 61 63 39 158 255 255 251 138 96 86 80 82 81 75 75 73 63 56 56 59 64 66 70 75 84 86 80 77 78 82 79 71 64 58 57 57 56 56 57 60 62 65 65 62 61 61 62 61 62 63 40 158 255 255 255 180 103 90 83 82 79 76 76 77 70 66 66 64 63 62 62 66 71 76 75 73 71 69 64 61 57 55 54 55 56 58 59 62 63 64 62 61 60 60 61 62 62 62 40 158 255 255 255 226 113 94 85 81 78 76 76 79 77 73 71 67 65 63 61 59 60 62 61 58 57 56 54 52 50 52 54 56 58 59 60 64 64 65 61 60 59 59 60 61 62 63 40 158 255 255 255 250 138 98 87 82 78 75 75 77 78 76 73 70 67 64 62 59 56 53 50 49 48 48 48 50 53 54 56 57 59 61 62 64 64 63 60 58 57 58 59 61 62 63 39 158 255 255 255 255 191 103 87 82 78 74 74 75 76 75 75 73 70 67 65 63 60 57 55 54 54 55 55 56 58 58 58 59 59 60 63 64 64 62 59 56 57 57 59 60 62 63 38 158 255 255 255 255 238 119 89 82 77 74 72 74 74 73 75 73 72 71 71 70 68 65 63 61 62 61 62 61 61 61 61 61 61 60 63 62 61 60 57 56 56 57 58 60 62 62 38 158 255 255 255 255 253 149 92 83 78 74 72 72 71 71 73 73 73 73 72 72 76 73 71 68 68 66 65 65 64 64 62 62 61 61 61 61 59 58 56 55 56 57 58 60 61 61 38 158 255 255 255 255 253 165 97 82 77 75 72 69 70 69 70 71 71 73 73 73 72 74 73 70 71 67 67 67 66 66 65 63 62 60 61 60 58 56 55 55 56 56 58 60 61 60 37 158 255 255 255 255 253 148 107 83 76 75 72 67 69 70 71 70 69 73 73 72 71 72 73 73 71 69 69 68 69 68 66 64 61 60 59 58 56 55 54 55 55 55 57 59 59 59 37 158 255 255 255 255 252 139 104 86 77 73 71 69 68 69 70 70 70 71 72 73 74 74 74 73 71 69 69 69 68 67 65 63 61 59 58 57 55 55 54 55 56 55 56 57 59 58 36 158 255 255 255 255 252 136 94 92 76 71 70 69 69 68 68 70 69 70 72 74 74 74 74 72 69 69 68 67 67 66 65 61 59 57 57 55 55 55 54 55 56 56 54 57 57 56 35 158 255 255 255 255 250 132 92 85 78 70 69 69 69 68 69 69 70 69 71 71 73 74 74 69 69 68 68 66 66 64 62 57 58 58 55 55 55 55 55 55 55 54 55 55 55 54 34 98 158 158 158 158 155 79 56 50 48 43 42 41 42 42 42 42 42 42 43 43 43 44 46 44 41 41 41 39 40 38 37 35 35 35 34 34 34 34 33 34 34 33 34 33 33 33 20 