P2
48
60
255
51 77 75 75 68 64 64 64 66 66 67 67 68 68 69 70 69 70 70 70 69 70 70 69 71 70 71 70 70 70 71 70 69 68 66 67 68 67 67 65 66 64 61 60 61 61 62 39 80 122 118 120 109 102 103 104 106 107 108 109 111 111 112 111 111 112 113 113 111 113 112 113 112 112 113 114 116 116 118 115 111 110 108 107 108 106 106 103 103 104 99 96 97 98 97 61 77 121 115 118 107 103 102 103 104 106 106 108 109 111 112 112 113 112 114 115 115 113 113 114 112 112 113 112 114 115 115 111 110 110 107 109 108 108 104 103 103 102 100 98 96 96 97 59 75 117 114 115 107 103 101 102 104 106 108 110 109 109 111 111 112 113 116 113 113 115 113 114 115 113 116 115 117 117 118 116 114 109 107 109 110 108 106 102 102 101 99 95 96 95 95 57 77 117 118 113 107 103 102 104 104 108 110 110 108 109 110 113 113 117 115 113 112 113 115 114 114 112 115 114 118 118 121 116 113 110 108 108 109 107 106 105 102 102 100 97 94 97 93 55 79 116 120 109 105 102 102 102 105 107 109 109 110 110 109 112 113 115 112 113 114 114 114 116 116 114 115 116 117 121 121 115 111 109 109 109 110 109 108 107 105 103 100 99 95 94 94 54 81 121 121 110 105 103 105 105 108 110 112 112 110 110 110 110 111 112 112 110 112 112 112 115 117 114 116 117 116 118 117 113 112 108 109 110 110 111 109 108 107 104 100 98 93 92 93 54 83 121 121 110 105 106 105 103 101 103 107 109 110 107 106 107 107 106 106 108 108 107 109 108 111 110 113 112 111 110 110 108 107 106 108 105 105 103 101 98 94 95 100 100 96 93 93 54 87 126 124 110 110 104 90 82 79 79 83 87 93 94 98 97 99 99 100 102 102 102 102 100 102 102 103 104 106 104 101 100 100 101 96 87 84 83 81 76 73 71 81 95 98 92 92 55 94 134 129 116 101 81 70 64 67 66 64 61 63 67 68 72 81 86 88 92 94 97 98 94 93 94 95 95 96 93 89 86 82 75 69 60 58 57 61 63 61 59 59 68 87 93 92 55 97 145 129 103 78 68 59 57 56 53 49 45 42 41 42 44 50 61 72 78 85 87 91 93 93 89 89 87 84 76 71 60 48 43 44 41 41 46 51 51 53 55 56 61 68 89 92 55 101 150 114 82 69 62 62 63 64 61 55 49 46 44 41 40 41 46 56 64 72 79 87 90 93 92 88 79 71 60 52 43 39 38 41 44 50 55 60 64 65 67 65 61 65 81 91 56 102 141 100 80 75 71 74 70 66 59 52 46 41 37 34 38 43 48 54 58 68 77 87 92 93 93 90 81 70 59 51 44 38 35 35 37 40 43 49 57 61 64 68 69 68 77 90 56 94 123 90 80 77 71 66 57 49 46 46 40 41 38 38 36 35 43 53 62 70 81 90 95 99 100 97 85 73 60 43 34 35 36 34 33 33 34 38 43 44 53 63 66 70 77 90 57 84 105 86 78 74 63 53 51 42 41 42 40 40 35 39 38 41 41 47 62 72 85 98 104 103 106 104 89 72 49 44 41 40 39 37 34 68 40 57 43 40 41 53 65 68 72 87 57 77 93 82 76 63 48 49 54 71 51 49 37 46 42 55 47 42 47 52 58 72 88 102 105 107 109 106 88 69 57 49 44 59 43 40 31 43 50 76 77 50 43 49 66 70 74 88 58 64 88 78 70 54 54 59 79 88 63 48 38 43 47 75 62 43 49 62 59 73 88 101 110 114 112 105 86 69 64 49 51 69 52 44 40 44 56 93 86 69 61 63 69 75 81 90 58 54 80 79 69 69 73 79 80 86 79 53 46 51 71 84 66 56 57 62 62 74 87 103 111 113 111 105 86 70 65 63 57 69 73 55 51 60 81 93 87 79 77 77 78 85 86 92 59 57 89 82 79 84 86 90 88 86 82 83 77 75 77 73 69 69 72 70 70 77 91 103 107 110 108 102 88 71 72 67 64 66 70 72 74 78 81 86 91 86 84 86 84 92 93 93 59 62 96 92 93 93 90 87 87 85 86 83 80 78 74 72 71 71 73 76 77 84 94 101 104 108 107 100 90 77 75 70 68 67 69 76 79 82 87 89 88 87 89 92 94 92 95 94 59 63 99 99 99 98 96 92 86 85 82 83 79 80 78 76 77 77 78 84 85 92 98 102 105 107 106 100 89 86 79 77 73 74 74 75 76 77 79 84 89 91 97 99 96 94 94 95 59 62 103 102 100 101 101 99 95 93 90 84 84 81 80 82 81 83 91 91 93 98 101 101 106 110 107 99 91 91 87 84 81 81 82 82 85 88 91 96 99 100 103 102 99 94 95 94 58 64 104 101 101 105 105 102 99 97 93 88 85 84 86 88 90 96 97 94 97 100 99 102 105 109 109 100 93 90 91 92 94 88 89 90 92 94 95 98 99 105 103 100 99 95 95 92 58 67 104 104 103 102 105 103 99 97 94 92 92 92 94 97 101 98 96 97 98 100 99 99 104 109 111 103 94 91 92 94 97 98 95 91 96 96 95 99 101 101 101 102 100 97 94 93 57 67 109 106 103 102 103 104 105 100 97 96 97 100 106 104 103 96 96 97 100 99 97 101 105 111 111 104 96 93 95 94 97 100 102 103 96 98 99 100 103 103 101 100 98 96 93 91 57 69 109 103 102 101 101 105 104 103 103 102 106 112 110 108 104 99 98 97 99 98 100 102 107 111 110 107 97 93 94 95 96 97 103 105 106 104 105 104 102 100 99 96 94 93 92 89 56 72 109 103 99 98 101 104 106 107 104 106 107 110 109 109 104 97 92 90 94 100 101 99 106 110 109 107 99 94 91 94 99 98 102 108 108 107 106 106 101 100 95 93 93 92 89 88 56 74 113 102 97 97 102 103 103 104 102 106 106 107 106 106 99 89 84 88 95 103 104 106 112 110 112 112 102 95 89 87 93 99 105 107 107 105 107 104 100 100 98 93 90 89 87 88 56 75 118 104 99 100 101 99 100 101 103 105 103 103 102 98 91 83 87 95 103 104 108 108 108 103 102 103 98 94 93 85 83 94 102 106 105 104 104 103 99 99 95 93 91 88 87 88 55 77 121 105 97 98 99 98 96 100 102 101 103 101 98 90 81 80 94 104 104 99 99 95 91 88 85 85 80 83 93 94 81 83 93 101 103 103 102 100 96 94 91 89 87 86 86 88 56 76 117 107 96 96 96 95 96 96 100 99 97 94 85 77 77 77 99 97 81 69 79 80 73 70 69 71 62 60 80 95 84 80 84 95 101 100 100 98 93 90 87 84 82 85 86 88 56 73 112 105 98 96 92 94 95 95 96 95 89 82 72 75 77 75 89 69 39 28 33 48 59 60 62 45 31 29 54 82 87 85 75 84 95 97 96 95 93 89 86 84 85 84 86 89 56 67 107 101 104 97 92 94 94 93 92 89 81 73 77 77 75 72 67 46 38 44 49 48 53 55 54 51 53 40 45 74 86 88 82 77 85 92 95 95 91 86 83 83 84 84 86 90 55 65 102 100 103 102 94 92 92 91 88 82 75 77 76 71 68 65 59 47 40 44 48 49 47 45 45 52 56 51 56 67 77 85 86 80 80 87 90 91 88 86 83 83 85 85 87 86 55 62 102 101 101 101 94 91 86 84 80 74 72 72 65 61 60 52 45 37 37 38 41 42 41 39 40 43 46 42 45 46 54 63 72 75 75 82 85 85 85 83 83 83 86 87 86 86 54 61 98 99 98 99 95 89 82 78 71 70 63 60 56 51 49 45 41 43 40 39 40 39 37 36 37 41 46 47 43 46 46 48 54 61 64 71 82 81 83 81 83 85 84 86 86 88 54 60 96 96 95 95 94 84 81 76 70 65 56 54 50 43 45 43 45 44 39 41 43 38 36 34 39 41 45 46 46 47 46 44 46 50 59 62 69 79 82 81 84 85 86 86 85 85 54 58 95 93 90 88 92 89 83 77 69 57 57 51 43 42 48 45 43 43 41 45 44 40 33 35 39 38 41 44 42 40 43 44 40 44 52 64 63 69 82 81 82 85 86 86 83 84 54 58 91 91 88 82 91 91 85 77 67 61 53 45 41 44 44 41 39 44 40 41 42 39 33 33 41 40 41 43 41 37 38 41 41 42 47 56 60 70 81 81 81 82 84 86 85 85 54 57 92 91 87 81 90 96 88 79 65 58 42 43 40 38 43 41 37 39 38 41 39 39 40 33 39 40 37 40 37 37 35 42 39 42 42 53 52 59 75 81 82 82 85 83 84 84 52 55 93 88 82 82 94 100 85 77 61 50 38 39 37 35 38 36 36 34 33 36 39 44 37 33 36 37 36 37 38 33 34 38 39 38 42 48 48 54 70 80 82 84 83 84 83 86 64 56 91 88 85 83 99 103 80 68 56 45 36 38 35 35 38 37 38 38 39 40 42 46 38 37 36 38 36 38 39 35 35 36 37 37 39 43 44 52 71 82 83 83 85 82 83 89 123 60 91 88 85 81 100 93 76 52 54 40 34 36 35 37 37 37 37 37 38 39 37 39 39 38 37 37 37 37 37 38 36 35 35 35 36 38 40 55 76 84 84 84 85 84 84 100 133 61 93 87 84 85 107 100 72 50 39 35 33 31 32 34 36 43 50 58 62 64 61 62 64 66 65 61 56 50 42 35 33 32 31 34 34 34 38 64 79 84 84 82 84 84 84 124 138 60 93 88 84 81 108 100 70 45 38 38 38 41 53 60 66 76 82 83 82 82 80 79 81 80 79 83 83 81 75 67 58 46 38 35 34 35 40 69 80 83 83 83 83 82 82 163 139 62 91 88 84 81 105 119 71 58 50 56 60 67 71 72 72 77 77 75 69 63 57 56 56 55 59 68 73 75 73 74 77 73 68 60 48 41 57 77 77 82 81 82 81 79 86 202 139 64 96 85 84 85 103 121 82 70 72 75 75 79 80 78 78 73 75 70 66 66 62 60 62 60 62 66 66 66 71 78 83 82 80 79 72 68 76 80 79 80 82 83 82 81 110 223 139 66 98 89 83 85 100 119 92 80 81 84 83 84 86 85 82 75 70 67 68 68 70 68 69 69 66 65 66 72 79 84 88 83 88 83 82 81 77 78 78 79 82 82 79 79 175 224 139 73 106 92 86 85 93 117 95 81 83 85 86 90 87 87 86 80 73 68 68 70 72 71 73 73 70 69 72 79 86 88 87 85 89 85 83 79 77 77 76 80 78 81 78 100 217 225 140 80 114 97 88 85 91 111 101 85 82 86 88 89 87 86 88 84 77 71 70 71 71 73 77 77 74 72 76 84 87 90 88 87 85 85 81 79 75 77 78 78 78 78 80 174 225 225 139 86 133 107 90 88 89 109 105 90 88 88 88 91 91 89 91 89 87 80 79 81 87 89 87 86 85 83 83 87 90 90 88 87 86 82 80 78 76 79 78 79 76 78 126 222 225 225 139 96 151 119 100 90 90 106 107 99 88 86 85 89 91 95 94 92 90 87 90 92 91 94 92 91 91 89 87 91 93 95 92 88 86 84 77 77 77 79 78 77 77 97 209 225 225 226 139 98 158 136 112 97 92 105 112 104 87 87 85 86 91 96 96 94 89 91 92 93 92 94 91 94 93 93 87 88 90 94 94 90 84 82 79 76 77 77 77 77 78 146 225 227 226 225 138 105 159 155 123 106 98 106 117 109 92 88 87 88 89 91 91 89 88 92 93 95 95 96 94 96 96 95 90 90 89 90 91 86 84 80 77 76 78 77 76 78 85 165 225 226 223 224 139 99 159 151 143 115 107 109 119 112 95 90 89 89 89 90 93 92 91 90 93 93 93 92 97 98 94 93 92 89 84 87 90 88 83 78 76 77 77 74 75 82 87 178 226 225 224 224 138 88 149 142 143 131 117 117 123 120 105 92 89 89 90 89 88 89 88 90 90 90 89 91 91 92 90 91 91 88 86 83 84 82 77 75 77 77 74 71 77 83 89 193 225 224 224 223 138 79 138 139 136 134 126 125 132 122 112 99 92 89 90 88 86 86 87 85 88 87 87 87 85 84 85 87 86 83 84 82 81 80 77 75 76 73 70 75 81 84 92 201 226 225 224 223 138 73 122 127 127 125 125 128 132 127 118 118 99 90 87 89 87 83 85 84 81 82 83 81 81 81 83 82 82 78 79 78 79 74 74 73 73 68 72 78 82 85 94 207 226 224 224 223 138 66 113 117 116 117 116 111 118 128 128 127 109 95 89 87 86 82 81 80 81 77 76 79 79 77 78 77 77 76 77 76 76 73 72 70 66 68 74 80 83 85 97 212 225 224 224 224 137 40 64 66 68 69 67 63 63 70 77 73 71 65 58 51 51 49 48 46 55 50 44 44 45 46 45 46 46 45 47 44 46 44 43 41 42 43 47 50 51 54 62 132 139 139 139 139 85 