P2
48
60
255
39 55 49 48 52 53 57 59 62 65 66 63 64 69 71 73 69 70 70 72 71 70 70 72 73 72 72 70 71 69 67 67 67 67 67 61 55 54 53 53 52 49 46 42 40 43 43 29 67 89 79 80 85 88 93 100 102 104 104 101 99 101 99 101 101 104 102 106 112 110 106 110 109 116 115 111 109 103 106 103 102 100 100 94 89 86 82 82 84 83 77 72 65 70 71 42 63 87 78 83 85 91 95 100 102 100 100 97 99 100 100 99 98 98 102 104 106 108 105 106 107 110 112 111 108 106 105 102 102 101 96 92 86 87 85 81 83 83 79 75 67 70 73 40 61 80 80 82 85 92 95 98 99 99 101 99 104 112 114 111 108 104 105 105 104 103 105 106 105 109 114 111 110 109 109 106 104 101 98 93 87 87 89 86 83 82 76 73 69 66 71 44 49 78 79 81 87 92 92 94 97 99 100 102 109 118 122 124 120 115 112 111 108 105 104 106 108 110 112 113 113 114 113 112 112 105 99 98 91 85 87 89 84 81 78 72 68 64 69 45 46 77 76 81 86 86 90 94 96 103 106 111 114 133 135 135 131 125 127 120 115 110 105 106 110 111 118 122 120 121 121 121 120 113 106 100 97 90 88 84 85 81 77 77 68 64 65 43 46 74 74 78 83 85 87 91 97 104 106 112 118 133 139 140 136 129 136 130 122 123 116 113 115 121 125 129 124 126 129 126 123 121 117 111 106 99 96 90 86 81 77 72 69 63 62 39 45 73 72 80 86 78 78 85 90 91 76 73 76 87 96 100 108 108 127 138 126 125 122 120 124 129 128 126 127 124 115 105 110 101 102 107 109 105 97 92 89 82 79 74 69 62 60 39 44 71 76 83 74 69 70 74 70 58 56 61 64 76 84 84 96 99 115 124 122 119 118 120 120 123 126 122 117 102 97 87 88 80 65 72 81 88 84 81 73 67 74 77 70 61 58 37 43 70 77 72 69 69 64 72 77 75 73 71 70 70 72 79 89 98 105 116 113 114 117 112 113 115 116 115 109 90 86 72 78 75 67 63 62 60 59 62 65 65 62 72 70 66 57 37 42 75 68 69 77 89 99 98 102 104 97 92 84 77 79 83 90 98 98 104 110 112 114 113 108 113 107 104 98 86 82 76 80 78 78 74 73 64 62 67 68 63 67 65 68 67 61 36 42 73 74 76 78 91 95 100 113 112 109 110 109 101 94 90 89 90 94 99 106 111 116 111 107 106 99 94 87 85 86 87 88 91 93 98 98 93 92 89 84 73 62 62 61 65 65 36 43 68 72 79 83 88 99 94 88 90 91 84 81 85 95 103 100 93 88 92 100 113 124 116 112 110 102 91 85 88 87 94 101 108 108 105 103 96 105 105 92 83 76 66 61 63 62 37 43 75 78 79 82 83 70 78 93 96 90 85 83 82 82 89 98 99 93 93 101 111 124 117 109 106 96 88 85 86 100 106 102 96 91 87 85 86 82 79 89 86 74 66 65 67 58 35 45 79 80 78 77 68 70 76 86 79 72 67 76 83 81 78 87 93 92 93 100 102 108 103 98 92 85 84 85 95 102 99 84 88 97 92 80 80 97 90 69 67 76 67 65 67 64 37 46 81 83 77 72 66 58 57 55 50 49 36 49 55 67 80 81 82 84 92 96 95 98 95 89 86 80 81 81 86 89 87 98 93 80 70 59 66 86 84 68 60 61 69 67 66 70 39 45 79 82 80 68 53 48 54 66 56 103 49 108 94 75 64 80 89 98 96 93 90 96 102 101 93 80 77 79 86 86 92 79 64 55 91 34 71 42 52 57 58 57 61 68 66 67 39 46 80 81 73 57 47 46 97 119 45 40 41 55 128 115 78 77 73 98 92 90 94 101 105 105 100 89 76 79 87 76 60 63 124 79 89 38 76 40 58 42 43 53 59 62 66 66 40 47 81 82 70 66 66 71 81 95 82 71 59 90 112 93 86 84 86 86 87 91 97 104 109 107 101 93 81 74 77 65 83 77 107 106 54 40 43 64 91 54 45 44 55 65 67 68 40 48 84 84 82 85 86 87 86 88 95 89 86 86 96 102 99 92 95 88 91 97 100 107 110 107 101 93 82 76 73 78 70 85 94 91 78 77 90 80 74 73 64 61 59 60 69 70 40 49 86 89 89 94 98 101 117 126 132 132 121 110 105 100 95 90 91 95 98 98 102 106 109 104 100 92 84 81 75 74 68 78 92 99 95 94 95 94 96 96 81 74 71 67 72 71 42 49 85 85 88 96 97 101 106 115 122 123 116 109 104 102 97 96 95 97 98 97 102 106 107 105 99 92 83 81 79 76 72 76 87 95 103 113 117 116 108 100 88 77 75 73 79 73 43 50 81 82 92 97 102 106 111 112 115 118 115 113 107 102 100 99 99 99 99 97 103 108 108 107 101 93 81 81 80 78 79 80 88 98 100 105 107 106 101 95 82 80 81 75 75 75 44 49 79 90 100 106 109 114 118 124 129 126 120 103 88 100 108 101 101 102 97 94 105 113 113 109 105 93 81 81 82 79 81 88 90 96 104 110 110 108 102 97 90 96 95 84 74 72 43 48 81 98 108 107 113 115 118 120 122 114 111 102 113 113 114 106 102 96 95 94 107 118 116 113 109 100 82 79 82 81 83 88 95 95 106 105 109 108 103 103 100 100 98 89 75 69 42 47 87 100 111 113 115 117 116 114 114 112 113 118 120 122 122 112 97 92 94 102 120 134 116 117 116 105 83 78 79 79 86 91 99 103 103 107 108 104 96 94 90 97 98 90 77 72 43 50 89 96 107 119 114 112 119 120 116 116 115 120 125 129 126 107 91 91 92 109 165 157 123 120 144 120 87 77 76 79 89 98 102 107 111 110 109 103 106 102 106 105 107 92 76 71 43 51 88 95 103 111 110 103 116 112 116 122 124 123 126 120 121 97 89 94 95 109 169 154 122 120 154 141 88 76 75 75 87 101 108 106 112 116 112 98 114 120 119 120 113 96 78 71 41 50 86 89 96 111 113 107 111 121 124 123 135 136 117 114 110 96 100 99 92 93 107 117 111 112 114 101 80 75 78 76 83 99 103 106 109 113 115 116 115 119 117 115 109 92 74 71 42 51 87 90 94 107 112 110 110 118 122 132 135 118 108 119 101 101 100 87 79 86 93 101 101 101 99 83 74 75 82 84 79 94 94 105 112 112 115 116 116 114 109 112 97 82 74 73 42 50 84 86 89 102 107 106 117 122 124 127 125 106 111 124 97 92 71 34 22 36 84 94 90 88 84 70 50 45 65 81 80 93 90 97 114 116 116 117 121 118 108 100 92 82 71 68 40 48 80 84 85 95 101 107 108 115 128 128 114 102 120 124 96 78 43 28 32 50 91 87 77 75 74 41 21 20 29 62 78 94 92 88 104 111 114 111 115 112 102 90 85 75 66 65 40 49 79 81 83 93 101 100 104 117 134 120 98 107 124 129 110 76 69 108 120 109 92 78 66 71 75 86 75 56 40 57 73 103 100 87 90 110 113 109 104 100 96 90 81 71 67 67 42 48 78 80 83 91 98 103 103 118 136 107 101 118 118 120 119 100 81 87 115 125 108 98 80 82 101 107 93 78 66 66 92 106 102 90 90 107 113 108 103 100 91 84 75 68 66 67 41 47 79 80 85 93 93 99 106 119 119 103 108 113 114 116 111 111 107 95 95 111 116 130 130 123 105 94 86 75 76 93 100 101 101 98 96 108 111 107 99 93 89 81 73 67 66 67 42 49 81 80 85 92 91 99 105 118 114 104 104 108 111 108 107 101 101 96 93 101 97 113 113 107 94 80 90 94 98 100 99 99 100 104 102 103 110 105 94 90 87 82 73 66 68 70 43 49 80 81 83 90 89 93 100 112 109 98 99 105 101 97 100 98 98 82 76 84 85 104 100 93 83 64 80 83 90 97 95 98 95 98 97 104 104 104 91 90 83 78 72 69 77 72 44 49 79 81 88 90 90 90 100 108 97 85 94 91 80 89 96 91 79 69 59 72 88 96 93 82 100 75 62 74 74 83 89 93 94 93 92 97 106 106 92 90 85 76 71 72 76 70 43 49 82 82 84 86 90 88 100 101 79 78 82 81 70 77 83 88 70 61 69 84 87 85 85 88 84 76 69 63 67 63 75 85 87 89 81 83 95 96 91 85 82 76 70 70 74 69 43 47 81 83 85 85 88 85 97 76 62 69 74 68 57 70 87 77 62 69 78 90 88 87 85 90 87 67 75 56 64 59 64 70 72 83 76 71 78 92 87 87 78 73 71 69 71 68 43 47 80 82 82 84 85 89 86 66 58 61 72 59 58 73 91 80 81 86 82 110 115 101 95 104 100 84 75 62 61 60 60 54 65 73 69 65 62 80 85 82 75 70 72 69 69 70 41 48 78 83 83 80 86 85 84 64 57 66 64 50 60 77 89 85 84 87 81 87 105 112 98 88 89 89 73 70 68 63 63 52 56 60 64 59 62 70 81 80 74 71 71 70 67 67 42 48 82 80 81 81 82 81 74 60 53 52 58 58 63 71 70 73 84 90 92 79 79 82 73 75 81 78 72 59 59 63 58 55 53 58 53 60 61 68 74 72 71 71 69 69 67 69 44 48 80 82 80 79 80 77 77 60 53 49 53 54 52 48 50 62 64 59 58 58 62 67 57 59 60 61 65 52 43 48 52 55 52 55 57 53 58 66 74 73 71 70 68 70 68 69 43 51 80 82 79 80 82 81 70 65 54 50 41 40 36 40 54 74 86 87 90 95 89 83 82 90 81 62 54 44 41 38 42 41 49 51 57 49 59 75 76 73 71 66 65 67 68 68 40 49 80 78 76 76 79 82 82 79 56 63 63 74 77 78 83 92 100 111 115 114 107 107 109 109 102 93 87 72 59 54 45 43 44 50 55 57 70 71 74 71 66 65 67 66 70 68 39 46 78 78 76 80 74 82 82 83 70 77 84 91 91 95 98 104 109 113 118 116 110 111 110 109 105 97 92 85 82 82 78 68 62 55 49 53 71 73 76 69 70 65 69 66 71 66 38 46 79 79 76 76 76 82 89 92 91 89 88 88 88 91 91 90 88 94 92 86 87 88 87 90 91 93 91 86 88 86 81 78 73 70 65 61 69 71 76 68 68 65 65 65 64 63 38 46 77 76 75 73 73 79 86 88 100 98 96 94 96 96 94 88 83 79 71 63 62 62 60 66 75 78 80 81 83 86 83 83 81 80 78 76 75 76 75 69 62 63 65 64 62 61 36 45 76 76 74 74 73 77 79 87 92 95 97 100 102 100 98 95 96 95 96 88 69 62 68 73 81 83 82 80 82 84 84 87 84 81 84 81 80 71 69 66 61 61 63 63 60 59 36 47 75 76 74 72 71 70 76 82 87 91 93 95 100 102 102 105 111 108 105 101 98 90 91 97 97 94 91 87 86 88 85 85 83 79 79 77 75 70 64 60 59 62 62 61 60 57 36 47 74 75 73 71 69 69 73 79 85 87 86 90 97 103 107 113 117 116 111 108 102 102 103 106 106 103 100 94 90 88 83 81 78 75 72 69 68 60 59 57 59 59 60 59 57 58 35 47 73 72 71 68 65 67 73 78 84 86 80 83 87 101 108 112 118 115 110 113 108 110 111 112 111 108 101 95 89 82 78 74 74 75 71 64 63 56 57 56 56 57 57 56 57 56 34 46 75 70 70 68 64 64 65 69 74 76 79 82 90 102 112 113 114 123 121 118 115 114 111 112 110 108 104 97 87 78 72 69 68 66 66 60 54 53 52 52 54 55 54 54 54 54 34 55 75 72 66 64 61 59 62 64 69 73 75 81 89 97 113 116 123 128 125 120 118 117 116 114 111 112 103 97 80 76 72 66 65 61 60 57 52 51 50 51 52 53 52 54 53 54 36 122 77 71 67 64 60 58 61 65 68 73 77 81 86 97 111 119 124 126 125 120 118 117 119 119 121 121 100 95 77 75 68 63 60 59 54 52 51 49 49 50 50 52 51 51 52 55 36 153 108 71 64 60 60 57 58 61 66 73 78 80 85 88 105 113 121 123 120 114 115 114 114 114 110 107 91 88 78 77 67 64 60 57 54 49 46 47 49 49 48 50 49 49 52 54 35 157 155 69 66 60 56 56 55 57 64 70 75 81 81 82 88 103 106 113 107 106 107 102 96 100 99 92 89 84 75 71 66 66 60 53 49 47 46 47 47 46 47 47 48 51 55 54 36 158 173 72 68 61 56 54 54 53 57 66 74 81 79 81 81 86 97 95 93 95 99 93 87 86 86 88 81 74 72 67 64 60 56 52 47 47 44 45 44 44 45 48 50 53 55 56 39 98 114 47 41 38 35 33 33 32 33 37 43 47 47 49 50 50 51 56 54 57 55 52 50 50 49 48 45 42 42 40 38 35 31 29 28 28 25 27 27 28 30 30 32 32 33 35 25 