P2
48
60
255
10 21 20 14 26 34 41 65 83 88 91 92 91 91 93 96 95 92 92 94 91 91 90 90 92 92 94 94 93 93 91 88 87 82 79 75 73 69 65 62 60 56 48 33 22 15 12 7 16 25 27 36 50 70 104 128 139 146 148 147 151 155 158 159 154 152 152 151 152 149 149 149 149 150 151 151 151 147 148 148 143 134 127 121 116 110 108 102 100 95 81 59 38 27 21 12 28 49 51 53 75 108 129 138 143 147 149 147 152 159 161 160 158 156 154 154 153 152 149 152 151 153 150 149 149 148 145 146 139 133 126 121 116 113 110 102 101 98 88 63 39 28 23 13 47 79 77 81 109 127 135 138 143 147 151 154 158 163 161 165 164 157 156 154 154 151 150 155 155 155 152 150 150 152 149 147 140 135 129 124 121 115 111 103 102 99 87 70 40 26 22 13 48 88 98 112 128 136 138 142 148 152 155 159 161 167 168 168 164 161 162 160 159 155 155 159 160 156 152 156 154 151 151 149 144 137 133 128 125 116 115 108 103 102 94 80 52 27 21 13 53 107 121 125 130 138 143 142 150 159 161 170 176 175 174 168 164 165 165 165 163 159 159 161 156 155 155 155 159 157 154 154 152 150 142 137 129 119 112 110 107 100 99 89 68 35 22 12 69 127 131 130 137 143 145 150 158 153 159 164 168 170 163 161 163 162 165 164 165 157 159 162 161 163 161 158 164 163 160 160 161 163 158 148 140 125 116 108 108 103 98 94 83 58 30 15 77 131 132 134 136 141 147 141 136 130 127 130 128 126 133 145 152 157 159 162 164 156 156 160 161 163 164 163 167 161 161 162 161 161 148 131 130 118 102 107 106 103 97 98 87 75 38 14 81 133 135 135 127 133 149 144 145 143 143 135 129 126 121 119 128 140 148 153 156 153 154 158 159 158 158 157 157 153 149 145 131 122 115 117 116 118 117 112 103 92 92 98 90 83 60 18 80 132 131 124 122 139 146 151 156 153 149 143 137 133 126 119 116 127 134 146 151 150 153 158 158 151 153 145 141 135 127 114 108 111 114 129 137 137 129 120 111 99 89 94 93 86 73 22 82 131 129 121 132 146 152 154 153 148 143 137 137 132 128 127 123 125 123 137 144 150 154 153 151 151 145 137 130 121 114 115 117 127 130 138 138 138 137 125 113 103 87 86 91 88 81 26 81 128 119 120 133 140 152 155 153 146 138 132 129 124 123 127 130 125 124 131 138 150 151 155 153 147 137 123 114 114 122 127 128 128 127 129 133 134 135 125 117 104 93 85 92 90 86 35 81 128 119 123 132 139 149 156 154 145 134 128 128 125 124 124 125 128 124 129 138 149 153 152 149 146 130 116 115 127 129 124 122 119 122 127 127 128 125 121 112 104 96 86 92 90 91 44 80 132 120 123 129 134 141 144 150 134 115 104 103 111 115 115 119 126 129 133 141 153 155 156 150 146 131 118 125 132 126 123 119 116 115 111 108 112 113 107 100 99 93 86 90 90 95 52 80 129 120 119 126 126 125 111 100 101 102 95 85 81 84 100 113 119 127 135 146 157 156 155 150 141 127 117 122 125 127 114 96 81 82 85 89 90 83 76 82 89 88 83 91 93 95 54 81 126 117 116 119 107 86 93 83 66 52 55 58 71 76 80 104 115 121 135 149 159 160 158 151 142 128 116 115 121 114 89 79 79 66 41 65 38 52 64 64 68 82 81 92 93 94 54 81 124 114 114 105 83 81 52 44 35 30 33 57 79 62 76 95 108 117 136 150 158 161 156 153 145 126 116 114 112 95 81 67 70 42 31 35 42 70 40 47 59 67 80 94 93 92 54 82 126 111 106 93 73 60 80 92 78 57 69 97 104 86 72 90 106 125 147 150 161 162 153 156 142 121 113 111 114 105 73 88 118 103 70 80 85 94 83 60 52 66 78 93 96 92 53 83 124 104 89 77 96 116 129 128 119 110 109 109 114 111 107 108 117 142 151 151 162 167 156 154 141 121 115 109 119 110 123 121 116 110 105 105 105 106 98 82 74 62 71 90 94 90 53 84 128 109 99 102 107 110 128 132 124 116 108 105 102 98 105 117 128 146 151 148 161 169 159 156 141 122 113 109 112 112 116 111 108 107 107 108 103 101 93 83 84 79 80 87 91 88 54 84 130 120 115 118 119 113 108 109 106 102 101 98 98 112 117 127 137 146 146 151 160 164 159 155 144 122 110 115 115 117 118 120 115 109 105 106 102 100 103 103 99 91 89 88 88 86 53 80 125 124 125 123 126 135 137 135 134 134 134 133 126 128 124 134 141 146 148 156 160 162 158 153 145 124 115 118 120 124 126 129 133 131 130 130 130 132 130 123 110 107 108 97 90 85 52 80 134 136 133 133 131 142 143 143 140 142 139 134 130 130 129 136 142 148 157 159 158 162 156 154 145 128 120 119 122 126 130 135 135 135 142 145 145 147 136 125 122 123 123 107 93 85 50 86 144 142 141 138 141 142 139 139 135 134 132 131 133 130 132 140 143 154 158 152 155 160 158 152 143 127 119 123 122 128 136 140 142 140 138 139 142 138 134 138 136 135 129 114 98 85 50 88 147 149 151 150 148 146 147 144 140 139 140 138 140 139 143 146 148 158 154 149 149 152 154 151 144 127 117 120 123 129 141 146 142 142 144 146 148 147 148 148 148 140 125 112 101 87 50 88 145 150 151 156 153 152 149 148 149 146 145 144 147 142 144 149 154 148 144 146 148 154 157 153 146 132 118 109 117 127 138 150 150 145 146 150 154 153 152 149 149 138 118 106 101 86 50 88 144 145 150 156 151 154 151 151 148 148 152 151 149 149 152 142 132 139 141 144 153 160 159 156 153 136 119 108 103 121 137 152 152 149 147 151 152 153 152 149 144 131 114 103 99 85 51 85 143 145 148 151 159 160 155 155 152 152 152 151 150 152 147 120 125 135 141 145 158 165 164 160 158 145 124 109 101 97 131 146 152 149 146 147 148 151 148 136 125 123 107 103 95 86 50 85 142 141 150 158 164 163 163 158 157 157 156 153 155 147 120 118 131 135 142 150 161 171 167 165 168 151 126 111 107 94 103 141 153 154 151 149 149 147 146 134 126 121 108 104 95 86 48 86 138 146 149 158 166 170 167 160 160 158 157 154 151 132 98 122 133 138 149 147 155 168 162 159 158 144 119 114 113 104 78 122 142 152 156 153 153 150 145 138 129 118 111 101 94 87 45 83 138 143 145 152 162 168 164 164 160 159 157 153 143 113 89 127 141 147 145 132 130 140 142 141 138 117 99 109 114 105 80 93 132 149 160 157 155 150 148 139 126 114 108 100 93 87 39 83 135 143 146 150 159 169 170 166 161 157 153 147 129 95 96 124 136 127 104 83 106 122 124 122 110 89 54 65 98 99 88 80 119 148 155 153 149 147 141 129 118 112 107 99 94 83 32 82 137 136 146 152 156 168 168 160 158 151 144 135 116 107 103 111 106 68 42 39 61 104 106 98 92 55 37 40 70 85 96 92 114 141 151 150 146 146 139 128 114 109 105 99 95 79 25 83 136 136 145 153 159 161 165 165 156 149 140 126 121 135 129 113 94 90 99 106 105 106 79 73 88 93 94 83 75 93 112 114 124 140 146 149 145 142 131 121 111 105 102 98 93 74 21 83 135 135 141 150 157 157 162 162 153 144 136 123 134 147 147 148 140 131 129 129 128 126 116 119 116 109 108 111 114 121 125 129 131 141 142 146 142 135 129 122 112 103 101 98 93 72 19 84 134 134 138 144 152 150 155 157 147 141 133 126 143 149 151 150 149 148 145 144 144 141 137 144 137 130 127 131 128 128 130 133 133 139 142 141 135 133 126 117 106 103 100 99 93 73 28 83 128 132 137 139 146 150 154 145 140 135 127 138 150 151 153 153 153 155 153 153 153 148 147 154 150 140 133 133 131 127 129 129 130 131 139 142 134 126 119 111 100 102 99 98 91 80 38 80 126 131 137 138 142 145 145 140 140 130 132 147 151 152 150 152 153 151 152 158 156 149 148 160 153 143 135 133 133 126 127 127 129 131 127 135 127 120 116 108 103 100 100 96 90 83 29 79 132 132 136 138 139 131 142 140 134 129 141 149 148 149 149 156 152 151 153 154 152 146 149 156 150 142 134 135 131 128 123 124 129 121 117 122 120 115 110 102 100 100 100 97 90 66 26 79 133 132 134 134 134 135 134 136 131 133 147 146 141 145 147 151 152 150 145 146 145 140 141 142 147 137 127 126 129 122 115 121 125 120 115 114 114 109 104 101 99 102 99 96 90 67 41 80 133 133 130 131 132 131 130 133 128 138 144 135 128 135 143 144 148 143 140 135 134 135 136 140 137 128 119 119 115 110 104 110 114 114 110 108 110 107 104 103 101 102 99 96 90 51 60 80 132 130 126 134 134 131 131 132 126 133 130 120 118 136 140 135 126 115 111 111 109 112 121 107 102 100 97 101 104 101 99 95 101 103 103 107 108 104 106 106 103 101 100 96 87 65 118 80 132 132 130 132 133 133 134 132 128 130 113 103 111 109 97 89 86 90 97 102 101 101 94 93 96 93 82 74 69 69 73 74 87 95 99 112 113 108 108 106 101 99 98 94 79 82 135 81 129 132 135 137 135 138 137 132 128 122 94 77 74 82 91 106 111 116 117 107 106 108 108 108 100 90 92 87 88 78 73 73 81 91 100 121 117 109 107 104 99 98 97 91 63 81 110 79 126 130 132 132 135 135 141 131 121 107 88 112 121 108 102 105 115 123 130 130 127 135 137 134 130 119 108 96 83 84 93 91 88 86 112 129 120 111 105 100 97 97 94 84 36 69 88 77 126 127 129 130 132 136 137 129 117 100 116 130 128 125 124 117 113 117 119 122 117 122 122 119 116 101 96 91 88 90 97 100 90 97 125 127 121 108 102 96 96 95 89 64 28 37 70 76 125 125 127 130 129 133 135 127 118 118 130 136 133 132 132 129 132 123 126 129 122 123 125 122 119 110 108 104 96 97 106 103 93 103 124 124 113 105 96 94 94 90 82 33 32 45 45 74 123 124 122 123 126 131 132 125 116 126 135 139 136 134 135 133 134 132 131 125 116 114 120 116 114 108 105 103 103 106 111 102 98 103 115 118 107 97 91 92 91 86 58 27 36 82 33 72 117 119 119 121 121 123 122 118 122 131 135 134 135 137 136 135 134 131 132 126 115 111 108 111 117 114 109 107 106 112 109 100 98 101 107 111 101 91 90 90 87 75 31 29 54 131 37 66 113 115 115 117 117 117 117 116 122 131 134 133 132 133 133 131 133 131 127 122 114 114 113 116 114 113 108 107 105 108 104 101 99 100 102 99 93 86 86 85 78 41 26 32 127 179 52 59 105 109 109 109 110 112 114 116 123 129 128 128 129 132 132 129 127 128 126 123 120 120 120 121 118 117 114 108 106 109 102 101 98 98 99 97 87 83 81 80 45 22 29 122 207 186 55 59 94 100 102 102 105 110 115 119 123 124 129 130 128 127 125 131 132 129 130 127 129 134 136 130 125 122 117 114 108 107 101 101 99 97 94 89 81 78 78 59 28 26 39 118 173 124 123 62 94 91 96 99 103 104 109 116 122 126 122 125 124 129 129 131 132 134 137 138 142 142 139 139 132 129 121 117 113 110 101 97 96 92 85 79 74 75 77 74 70 68 60 49 50 83 93 66 101 94 88 94 95 95 100 108 115 119 123 126 125 129 133 131 136 137 141 143 140 140 137 133 131 123 118 115 113 103 97 94 88 81 73 70 70 77 84 86 86 86 88 87 86 84 54 68 106 101 93 86 87 86 89 95 102 111 116 119 121 122 128 131 135 135 138 137 132 129 125 119 122 116 114 113 105 100 93 85 77 70 67 74 78 82 85 87 91 92 94 94 94 94 58 69 110 103 101 92 81 79 82 84 89 98 107 110 115 117 119 124 126 127 124 121 118 111 105 108 107 109 111 103 98 91 85 76 70 68 78 82 83 83 82 87 91 93 96 98 97 96 60 70 113 108 103 100 92 81 75 75 77 82 89 96 106 106 109 114 116 116 113 103 89 77 74 87 100 102 97 90 87 81 76 69 69 78 82 84 87 83 80 84 89 94 97 98 100 100 62 70 114 113 106 103 99 89 81 76 73 72 77 85 89 92 96 98 97 93 85 81 74 63 69 85 85 82 77 74 74 73 68 71 79 83 85 91 89 84 82 85 90 94 98 99 100 101 63 71 116 116 112 106 102 98 90 81 76 75 74 73 75 73 74 73 72 70 68 69 64 58 64 70 68 64 63 65 66 67 72 78 84 87 93 94 90 86 81 86 91 95 97 99 99 102 63 44 75 73 71 68 65 64 60 55 49 46 45 45 44 43 39 37 36 36 33 33 29 28 29 31 33 36 39 39 41 46 49 51 55 57 61 58 56 53 50 54 57 60 59 61 61 63 40 