P2
48
60
255
21 38 37 38 36 36 36 36 35 33 33 34 37 35 33 34 38 42 44 45 41 36 37 37 41 46 45 44 44 44 44 43 43 46 45 44 42 42 43 45 49 52 52 53 52 50 49 29 35 56 57 59 57 57 58 56 57 55 50 50 54 53 53 56 61 65 71 71 69 64 61 64 66 69 69 73 72 72 74 74 70 72 74 74 77 77 77 81 82 83 86 85 85 84 80 47 34 54 54 54 55 55 54 54 55 56 55 52 51 54 60 61 62 66 69 68 70 68 63 70 79 79 78 76 77 76 78 77 76 74 77 76 78 79 81 85 87 86 87 86 86 85 83 49 31 52 54 53 51 52 53 53 54 55 57 60 63 65 69 70 68 75 77 76 77 79 76 82 79 79 82 81 82 82 83 82 80 77 79 78 78 81 81 85 88 90 87 88 87 86 84 51 31 50 49 52 52 52 53 54 54 58 61 65 69 74 79 82 83 86 86 86 89 88 90 92 89 86 90 89 88 88 87 86 83 81 80 80 82 84 87 90 91 91 87 87 89 85 84 51 31 49 49 50 51 56 58 61 64 67 70 75 81 86 89 91 92 93 93 91 92 93 95 97 97 98 98 97 96 96 94 93 88 85 84 84 87 90 92 93 93 93 92 88 87 87 84 50 30 50 50 51 53 59 66 67 72 77 83 88 93 94 96 96 97 98 98 97 98 97 98 100 103 103 104 103 102 101 99 96 91 87 89 86 85 86 89 90 90 87 88 88 81 85 82 50 31 49 50 52 54 58 65 66 70 76 84 87 92 95 96 96 98 99 99 98 97 97 98 103 105 105 103 102 101 99 94 88 79 76 76 75 73 73 75 75 72 75 80 84 79 80 81 50 32 50 51 53 54 58 62 66 70 70 70 71 72 75 82 88 94 95 97 97 96 96 99 102 102 101 100 97 93 84 76 71 69 70 68 66 69 71 70 70 70 74 76 72 73 74 76 49 33 53 53 57 64 71 76 75 72 70 69 66 67 69 71 74 81 90 95 97 96 96 97 99 100 98 92 86 79 69 66 64 65 63 63 65 66 67 72 77 78 80 79 76 71 69 68 44 38 59 64 71 82 90 88 87 88 83 78 74 69 71 73 73 76 83 91 95 96 96 97 100 97 94 83 77 71 66 64 63 63 64 66 70 76 81 85 85 82 82 79 78 75 72 69 45 45 70 79 84 87 91 92 92 92 91 87 84 79 78 76 76 76 80 89 92 94 96 98 97 94 90 77 68 67 64 62 62 65 69 72 72 75 77 76 76 75 75 74 74 75 74 74 46 50 82 87 89 88 85 82 82 78 75 75 75 78 81 80 80 81 84 89 93 95 95 95 95 93 87 76 68 64 60 63 68 69 64 60 63 62 59 58 60 60 63 67 71 74 75 75 48 54 89 90 87 83 77 70 69 65 62 58 57 58 65 78 82 81 83 89 93 96 98 97 95 90 82 74 65 60 63 66 66 57 58 58 53 51 54 53 57 60 63 61 68 76 77 79 50 56 93 92 89 83 73 64 56 59 56 53 47 43 49 59 74 83 84 86 93 98 102 101 96 90 82 72 62 62 71 68 55 56 72 60 67 44 45 52 60 57 59 67 72 80 84 84 53 58 93 94 92 85 67 60 73 87 58 75 55 40 51 64 66 73 82 85 92 98 103 103 99 92 82 70 60 65 69 57 56 71 100 67 57 43 46 59 70 71 67 71 72 73 78 84 53 58 95 95 91 84 76 70 72 89 74 54 44 47 60 74 71 72 84 87 93 100 107 111 105 95 84 72 63 65 60 57 70 86 104 93 69 64 70 73 74 73 76 82 80 86 91 94 58 58 95 98 96 94 89 80 80 81 86 81 76 76 81 84 81 85 91 105 99 102 110 114 109 97 85 76 73 80 82 91 95 101 104 99 95 88 82 78 79 77 75 74 81 88 95 96 59 59 98 100 100 96 92 85 86 90 91 90 89 89 89 91 94 97 97 103 100 103 112 114 109 98 87 83 81 90 95 100 104 101 98 95 90 86 81 78 75 73 76 80 91 97 100 98 60 59 99 100 102 100 99 93 87 86 86 88 91 93 94 99 97 96 97 102 101 103 112 112 109 100 91 86 87 95 99 98 103 102 100 97 89 87 82 79 77 75 80 84 96 103 101 99 60 58 98 102 103 100 99 97 95 94 92 96 98 97 96 98 95 102 106 105 103 105 110 113 111 103 93 91 91 97 105 103 98 97 96 90 87 89 85 80 80 82 92 103 106 107 103 98 58 58 98 102 105 105 104 103 99 96 93 92 93 92 95 103 109 112 111 104 103 107 112 112 110 103 94 91 95 98 102 105 108 108 103 100 94 93 92 98 104 104 104 109 109 108 104 95 57 58 98 100 104 107 106 107 106 104 103 105 106 106 112 115 112 110 107 103 104 110 113 111 108 103 94 91 95 99 105 111 110 111 113 112 111 112 112 110 111 110 108 110 108 105 99 93 57 57 97 99 104 107 107 107 107 109 112 111 111 114 113 115 111 108 104 102 104 110 113 112 109 100 93 92 94 100 105 107 110 112 114 113 113 114 115 115 116 114 112 109 105 101 96 93 55 56 93 97 102 105 107 110 111 112 113 114 116 117 115 115 110 109 104 103 104 110 113 112 108 101 96 92 93 97 101 102 104 107 111 108 109 110 114 114 115 114 110 106 102 99 95 91 55 55 92 95 100 105 109 112 115 113 114 113 114 115 114 113 107 106 104 103 104 109 111 112 110 102 95 91 90 87 87 89 93 99 102 104 104 107 111 111 110 108 106 103 101 99 94 91 55 55 92 95 100 106 109 112 115 114 113 112 109 109 107 103 97 99 100 103 106 110 113 114 110 104 94 90 88 85 90 85 76 90 96 98 101 103 105 105 105 104 103 100 98 95 91 89 54 55 91 94 99 105 107 110 112 113 108 106 103 96 93 87 92 100 98 101 107 110 113 112 110 102 95 91 87 92 96 91 72 73 86 91 94 96 99 99 99 99 97 98 94 90 88 86 52 54 90 93 98 102 104 106 107 105 101 97 93 88 81 81 98 101 97 100 105 110 111 111 108 98 93 91 89 96 98 89 71 58 69 80 86 91 94 93 95 95 94 94 90 87 86 84 50 54 88 91 94 98 102 101 99 97 93 88 82 76 70 78 99 100 100 101 103 113 114 111 106 97 94 93 91 99 95 84 69 56 55 63 74 82 86 89 91 90 90 89 86 84 82 80 49 54 87 89 92 94 96 96 94 90 84 78 70 62 65 81 97 100 102 104 103 116 114 106 101 94 87 84 84 90 84 73 69 62 55 56 62 74 80 84 84 83 83 82 81 79 77 78 48 52 86 86 90 92 92 90 89 83 77 69 60 57 75 86 89 92 93 98 102 109 102 96 90 79 72 69 71 68 61 63 72 71 65 59 60 64 73 78 78 79 79 77 76 75 74 74 46 49 87 85 87 87 86 85 81 76 68 62 55 66 82 89 93 89 85 84 86 90 87 81 72 62 60 56 52 50 53 70 80 78 73 66 61 60 64 70 75 74 74 73 71 70 72 73 46 45 87 85 84 84 82 80 75 69 62 55 60 77 87 92 95 96 90 82 79 78 73 68 63 57 52 50 51 53 65 83 87 86 84 76 68 63 63 67 72 73 72 70 70 70 71 73 47 39 86 87 84 82 80 77 70 63 56 56 71 85 92 95 96 98 97 94 88 83 77 69 63 61 59 57 59 68 81 90 92 91 88 84 75 66 63 64 68 72 72 71 70 70 72 74 47 33 84 87 85 82 80 74 67 60 55 66 81 89 94 94 97 95 98 97 95 93 84 80 78 76 74 71 76 85 89 90 88 87 85 81 76 68 61 61 64 66 74 75 74 75 76 77 46 31 80 86 86 84 82 75 69 59 58 69 82 89 89 90 91 90 91 91 92 92 92 88 87 82 78 74 76 77 73 73 73 69 65 61 57 55 55 57 60 66 74 84 81 80 77 76 46 28 71 86 85 85 85 80 74 62 59 65 72 71 63 64 72 77 77 76 77 77 79 80 77 73 69 66 62 58 58 61 61 56 54 51 47 44 48 58 66 73 80 91 89 84 79 75 46 29 63 85 85 86 87 84 81 73 60 62 70 59 49 50 75 84 91 88 92 85 84 81 74 71 74 72 70 77 75 78 88 68 67 55 50 45 61 72 73 79 87 97 94 85 78 75 45 29 53 80 87 86 88 88 88 83 68 67 80 84 67 49 80 91 99 93 108 96 113 120 96 104 121 118 93 108 96 97 105 84 81 64 54 68 83 82 82 85 91 98 93 84 77 74 45 30 59 77 85 86 86 89 91 88 77 72 92 97 87 66 74 104 112 105 124 109 128 135 117 125 126 122 112 118 102 99 100 85 77 60 80 92 91 89 88 90 96 99 93 82 74 72 44 30 55 56 79 85 86 87 92 91 85 74 94 100 92 87 76 96 104 109 121 115 123 125 122 124 123 118 108 103 85 78 92 66 67 87 94 92 89 90 90 92 102 97 88 78 71 71 45 32 51 51 65 83 86 86 88 91 90 81 94 100 97 90 84 83 88 89 91 79 107 111 110 102 104 98 80 54 57 54 65 83 92 88 89 89 88 88 89 95 102 95 84 73 70 71 44 32 67 106 64 78 85 88 85 90 92 87 92 101 100 94 84 78 77 67 65 67 73 73 66 62 66 65 66 69 84 89 98 95 87 83 85 87 87 89 88 97 101 92 79 72 71 72 45 32 51 83 51 56 83 87 87 87 91 89 89 98 100 97 89 76 78 83 85 81 87 86 92 84 90 91 93 95 101 105 99 83 79 84 87 86 88 88 90 98 97 86 77 73 73 73 45 32 48 48 45 47 71 85 89 88 90 92 94 97 98 99 96 87 79 83 98 102 105 102 97 93 97 103 102 99 92 84 80 83 82 84 84 86 88 89 93 98 94 85 76 74 73 71 44 31 48 46 49 49 51 77 89 87 87 92 93 95 98 97 96 94 87 83 88 101 112 112 106 102 100 97 89 84 79 79 81 83 84 84 83 88 90 91 95 95 87 81 73 73 74 71 42 32 50 50 44 44 44 54 83 89 88 90 94 96 95 97 96 95 93 89 85 84 86 88 86 83 83 82 80 78 77 79 79 82 81 83 87 89 91 93 94 91 86 79 74 73 72 68 40 34 52 43 40 41 42 48 65 86 91 91 94 96 97 98 99 94 91 90 89 85 82 79 79 78 77 73 74 76 78 80 81 79 80 84 90 90 94 94 93 86 81 76 74 71 69 64 38 33 47 40 42 44 45 49 55 77 90 91 92 97 99 100 101 97 94 91 89 87 86 83 79 77 74 77 79 80 79 81 81 81 85 91 96 99 95 94 90 85 78 74 70 69 64 60 37 27 45 46 51 53 48 46 49 70 85 90 91 94 98 100 101 99 96 93 89 86 86 83 81 79 81 82 82 82 84 87 88 88 91 97 102 101 94 92 85 79 74 70 67 64 61 60 38 26 45 52 54 51 45 40 43 69 90 86 90 92 95 98 99 102 100 95 90 88 90 88 87 86 87 91 93 92 94 98 94 94 96 102 102 100 92 88 80 74 69 66 63 61 59 61 40 31 51 51 49 44 42 38 41 66 91 91 85 88 90 95 96 102 103 101 98 96 97 98 100 102 105 103 106 106 104 104 105 102 104 109 105 96 90 84 77 70 65 63 60 57 59 63 40 25 43 42 42 42 40 42 44 66 91 96 90 85 88 91 96 100 106 105 103 104 107 105 106 110 113 112 111 110 104 107 105 104 105 106 99 91 84 78 70 65 62 60 57 57 60 63 41 26 39 38 43 43 45 44 49 70 90 95 97 90 85 88 91 97 104 108 104 107 109 111 110 112 112 111 111 110 108 104 105 105 104 100 90 84 78 72 63 61 59 56 56 59 62 64 41 28 44 39 40 42 44 50 63 75 89 94 98 98 89 84 85 92 99 108 111 107 106 111 112 111 111 111 111 110 107 105 105 105 100 87 81 76 72 64 59 59 55 54 57 61 62 66 42 26 40 38 40 45 52 60 69 77 88 93 95 99 96 89 81 83 95 102 111 109 106 108 111 108 108 110 111 111 108 104 101 98 87 76 73 70 64 59 58 54 52 55 59 62 63 67 43 26 40 41 43 49 56 64 72 79 90 92 95 96 99 94 88 79 84 94 102 107 110 107 107 106 107 106 107 107 103 97 92 85 78 65 64 62 60 56 52 52 53 56 60 62 64 69 43 36 42 43 46 51 57 65 70 80 89 93 94 95 95 99 94 88 80 83 91 97 105 106 102 101 99 96 95 92 88 82 76 71 65 49 59 59 54 51 50 52 55 58 61 63 66 70 44 29 29 28 29 32 36 39 42 49 55 58 58 59 59 60 61 57 54 49 49 52 56 58 59 58 57 55 52 49 46 44 40 38 37 34 35 33 31 31 32 33 35 37 38 39 42 42 26 