P2
48
60
255
44 74 93 92 90 119 132 135 138 135 140 136 135 141 142 142 143 142 141 139 139 138 136 136 136 137 137 138 138 136 134 134 132 129 128 126 126 125 125 124 119 119 120 118 116 105 82 39 82 144 167 183 199 219 218 220 218 218 218 216 221 224 226 230 232 229 227 227 227 226 221 222 225 226 221 220 219 218 213 214 213 206 205 205 200 201 200 200 193 193 193 190 180 167 139 55 104 184 200 214 218 220 217 216 218 216 214 211 221 224 225 226 229 227 227 229 226 227 222 223 228 227 225 217 214 217 211 212 208 209 206 200 196 199 201 199 198 194 190 188 178 169 148 63 120 200 203 212 216 216 216 214 217 216 217 221 223 228 223 224 232 233 227 230 228 229 229 225 224 226 226 224 217 214 217 219 213 212 209 203 199 199 199 197 193 192 189 185 176 168 147 73 124 198 201 203 209 217 215 216 217 216 218 220 224 226 230 233 237 234 230 235 238 238 234 230 229 227 227 224 220 216 217 217 220 218 209 207 207 204 203 198 188 190 187 179 175 165 148 82 124 196 195 199 210 213 217 221 222 224 221 224 227 227 229 235 236 234 236 237 242 245 234 234 233 236 231 234 227 220 212 217 223 217 209 206 211 208 206 203 195 188 183 176 170 167 158 90 118 188 194 205 215 217 220 224 222 222 230 230 231 231 236 235 237 238 240 246 251 247 239 241 238 239 237 245 233 226 215 220 222 216 212 211 216 212 213 211 203 194 184 175 162 165 159 91 115 186 197 208 216 211 208 212 219 221 224 226 232 230 236 238 241 241 242 247 249 243 243 245 239 237 237 239 232 224 219 223 218 213 211 212 217 216 213 211 203 199 193 187 162 158 156 91 107 174 173 181 171 170 177 185 183 206 217 195 201 207 209 218 227 235 235 239 238 232 244 246 232 232 226 233 228 223 221 223 213 209 207 208 201 195 181 180 182 166 169 168 149 147 151 88 78 122 119 122 115 114 114 118 115 166 168 125 146 161 167 181 198 214 227 227 231 224 236 232 225 218 213 218 213 212 212 202 194 181 152 150 127 118 108 110 109 100 108 108 96 98 105 69 87 155 163 165 163 160 164 159 153 151 145 141 128 122 120 132 159 182 201 215 220 225 229 230 218 212 209 208 204 201 193 202 182 103 81 88 103 107 119 129 129 129 135 139 134 133 130 63 97 168 174 185 184 181 181 183 187 186 180 184 183 185 179 165 145 141 166 197 215 221 227 229 216 208 203 198 190 168 141 123 134 141 161 169 172 175 177 176 174 169 159 149 149 142 138 80 110 175 179 193 193 189 180 166 148 137 128 128 134 158 183 193 180 157 142 171 203 213 222 237 218 203 199 194 170 149 163 177 180 179 175 167 171 171 185 185 182 181 177 170 164 161 140 76 113 184 185 188 177 140 111 97 83 101 101 96 112 125 147 171 186 182 157 144 151 193 220 230 212 194 184 159 147 160 183 173 143 117 95 82 83 72 88 127 162 171 174 166 160 160 151 83 107 176 182 159 116 97 143 106 86 85 95 96 155 151 129 156 175 182 172 148 82 131 216 183 125 108 96 62 133 166 154 144 123 127 107 103 90 78 85 119 99 104 149 163 154 153 151 96 110 181 175 144 119 151 167 97 76 74 72 96 149 201 160 139 178 188 186 155 102 153 195 206 187 152 108 82 159 178 164 146 181 178 101 87 110 55 83 130 161 105 87 141 155 149 162 108 111 175 163 159 162 172 172 125 86 73 78 112 173 198 184 177 167 186 180 148 129 184 215 231 217 186 143 105 154 168 163 171 198 190 119 86 62 78 89 150 161 139 92 129 155 152 170 103 111 174 170 172 167 162 160 170 131 121 135 169 181 166 160 165 168 172 171 131 141 189 214 227 215 183 142 111 138 157 159 158 162 177 171 128 96 108 156 171 156 127 98 135 153 156 168 108 118 190 186 185 179 169 169 169 157 186 160 151 166 166 167 166 187 189 147 101 152 181 214 224 214 188 156 94 107 182 175 173 182 168 157 148 138 132 150 143 141 115 134 152 163 162 166 102 125 199 198 204 202 192 192 192 201 208 203 201 190 191 191 189 193 182 115 106 159 182 212 221 212 196 142 81 65 160 190 192 190 190 186 185 175 167 176 163 159 161 169 172 178 176 174 112 127 203 205 204 207 198 208 202 204 204 201 199 194 201 205 203 195 166 92 140 163 191 212 222 213 195 147 105 89 120 189 199 202 199 193 192 183 186 188 192 189 184 178 184 187 182 182 116 128 211 213 208 210 206 216 215 216 217 220 220 224 220 218 206 186 121 164 169 173 200 211 215 206 192 164 129 124 116 172 208 220 223 221 217 210 203 204 203 203 196 184 192 194 192 195 118 131 208 208 208 208 212 227 229 235 242 245 231 221 216 217 205 143 169 189 176 181 196 206 213 206 191 168 145 148 166 126 201 212 221 229 231 224 218 212 210 202 196 184 201 201 195 188 119 134 215 213 217 214 210 222 229 236 238 230 216 211 216 213 159 159 188 185 178 183 190 204 211 202 188 167 158 155 167 165 148 209 218 227 231 223 215 208 199 192 189 192 204 199 195 189 110 134 220 221 223 223 218 212 220 221 217 213 213 218 212 151 156 201 192 184 179 183 193 202 211 205 188 168 160 164 171 188 151 153 212 225 231 230 223 212 205 202 196 204 206 202 191 183 108 134 225 230 226 228 229 222 224 226 228 221 213 186 138 174 200 198 193 183 177 187 196 206 209 202 195 172 159 163 175 182 195 168 145 201 218 220 221 222 216 210 215 214 208 201 189 179 103 101 186 204 216 221 220 221 214 208 202 183 151 165 207 215 202 201 196 176 173 185 191 200 202 199 197 182 164 158 174 182 197 210 198 149 148 178 198 206 209 214 213 208 202 189 169 134 63 116 179 171 179 181 177 175 175 180 191 203 219 223 223 221 213 198 181 171 175 187 188 197 196 197 199 192 177 150 163 195 214 214 217 224 211 184 159 145 142 142 137 131 126 119 113 111 70 130 215 219 226 232 234 233 233 231 234 225 228 225 224 228 223 188 173 173 181 193 200 206 205 200 202 200 186 161 158 194 227 224 224 226 225 229 230 228 219 215 213 206 198 189 180 166 89 132 218 223 235 233 233 237 236 235 228 228 229 229 228 221 198 177 174 175 184 202 212 231 225 212 206 197 181 164 158 176 216 232 235 229 227 231 233 235 229 223 219 212 203 192 179 165 85 131 218 226 234 235 236 236 239 237 230 234 231 228 215 191 182 181 184 183 180 193 207 233 226 214 201 183 165 174 170 162 190 220 239 235 233 235 232 233 231 222 222 215 200 190 175 158 81 132 220 223 229 235 236 236 244 240 240 238 230 217 199 196 186 185 183 170 169 174 190 196 195 194 182 157 146 161 164 163 178 200 217 235 234 234 236 234 228 224 219 215 201 187 168 149 78 130 215 221 226 233 235 241 245 234 230 225 212 200 202 206 181 172 165 147 137 150 169 178 176 171 153 132 139 162 158 155 183 193 207 223 230 233 235 234 228 221 214 206 198 181 163 146 77 127 210 217 226 230 235 231 233 231 221 208 195 198 207 210 195 175 180 187 194 191 166 166 166 159 161 181 168 162 161 177 194 200 204 214 226 228 231 228 225 220 213 204 192 179 159 146 79 124 208 211 217 225 225 226 224 218 207 195 201 208 208 209 203 199 188 195 207 217 208 189 186 196 202 191 178 175 182 186 191 194 205 212 217 223 226 220 216 218 208 201 188 173 156 145 80 118 202 205 211 214 218 219 218 206 197 205 206 210 206 204 199 200 201 202 213 212 209 211 212 213 202 193 184 183 187 186 188 188 201 211 214 218 222 216 214 211 204 195 182 166 151 145 81 116 195 203 208 211 213 215 211 204 212 207 209 204 202 200 201 203 204 205 213 211 211 215 218 213 198 195 188 185 188 191 186 182 194 208 213 215 215 212 206 205 201 190 177 160 151 144 79 114 191 200 204 209 210 212 211 216 214 210 212 206 202 202 205 208 203 203 215 217 218 222 220 218 208 197 192 193 189 191 185 181 187 207 210 211 206 208 207 202 197 187 173 160 150 137 79 118 191 198 204 211 210 212 214 217 207 212 204 201 203 205 207 210 207 208 213 217 216 214 214 212 209 199 190 189 187 188 188 184 185 197 202 210 211 209 205 199 190 183 174 162 153 133 78 121 191 204 211 212 211 214 216 202 205 211 194 196 202 203 206 207 207 203 207 213 213 210 212 212 202 197 194 186 185 185 187 179 181 197 200 196 206 206 203 195 187 181 172 163 155 134 77 125 190 199 209 214 213 212 204 195 201 199 183 178 178 173 169 173 180 183 186 197 201 201 187 190 186 177 168 168 167 168 172 173 175 188 199 189 201 202 195 192 184 180 172 168 152 130 75 130 196 194 205 212 213 219 200 188 171 163 145 121 141 156 166 163 175 180 196 187 200 196 188 186 184 166 161 153 147 139 129 120 144 164 176 183 195 205 198 191 186 176 179 173 148 127 70 131 206 193 205 214 218 220 207 197 190 183 176 153 143 151 165 159 166 168 173 175 163 159 166 170 171 167 161 156 137 131 118 115 142 153 166 186 193 212 201 193 188 183 184 170 142 124 56 130 212 198 205 213 220 227 217 210 209 191 179 169 162 166 169 175 183 205 212 224 214 207 228 221 201 201 185 165 146 140 139 149 162 171 184 196 205 214 201 196 190 186 183 163 137 106 26 129 209 202 205 215 220 233 227 221 215 195 186 173 163 166 168 173 180 183 191 201 208 205 201 196 189 187 180 174 156 154 150 154 164 175 192 211 218 214 206 199 192 182 183 155 126 77 19 127 207 201 204 215 221 228 230 232 216 194 190 182 181 180 178 182 190 195 202 213 207 208 203 201 196 197 187 181 165 161 160 169 175 178 199 224 222 215 202 194 189 178 176 148 114 42 18 121 204 200 203 214 222 227 233 227 216 195 190 190 191 194 192 191 189 194 197 200 201 204 200 199 194 188 181 177 167 171 173 175 174 176 200 228 219 208 196 189 186 176 165 132 73 28 17 116 197 199 197 206 216 222 227 222 216 201 190 188 188 190 191 192 189 191 196 194 196 198 197 186 184 181 182 181 173 174 174 168 170 177 200 218 217 201 190 184 175 173 154 106 36 28 18 111 191 196 196 197 205 214 216 212 208 202 187 186 186 188 188 191 195 196 195 196 198 199 192 181 184 185 185 179 177 175 169 166 170 184 192 210 210 199 189 177 169 167 135 64 27 28 18 104 184 193 196 201 199 205 210 204 207 206 192 187 189 190 192 196 197 197 198 201 202 199 194 189 191 186 178 178 178 168 168 166 176 189 189 202 204 188 183 169 170 153 89 29 26 28 18 83 168 185 190 199 200 203 202 202 212 208 197 193 191 192 196 198 194 194 195 197 195 194 192 191 187 180 187 186 180 175 170 169 181 189 194 191 197 187 179 172 165 122 43 25 26 28 18 67 139 176 190 189 193 197 202 203 207 200 196 196 198 195 196 195 194 188 191 197 197 193 195 192 183 176 187 187 180 179 175 179 182 182 193 188 191 185 169 167 139 52 24 25 27 28 18 97 120 153 182 192 196 191 194 198 193 196 196 195 197 201 200 198 199 195 194 200 199 193 195 193 185 177 190 191 187 183 176 180 180 174 192 185 180 176 163 154 89 17 16 27 27 28 18 114 162 107 155 181 195 186 185 188 183 190 189 195 199 202 205 202 198 194 194 193 196 197 197 189 185 178 188 192 186 181 177 176 172 166 190 182 169 166 156 109 56 15 16 35 36 28 18 114 189 143 100 140 166 170 164 171 174 183 182 191 199 200 203 203 199 188 191 191 194 192 194 193 187 186 191 193 186 183 179 172 164 159 175 174 161 158 112 53 55 29 27 45 42 31 17 114 194 193 129 71 87 109 119 133 152 169 175 184 195 201 200 198 201 198 193 189 192 194 193 195 192 187 191 188 187 184 174 159 148 144 154 147 128 90 42 44 82 111 36 49 42 44 19 110 192 193 191 169 116 79 83 105 109 140 154 168 184 194 196 195 197 195 195 195 193 193 193 192 187 187 186 189 187 175 162 136 120 96 82 59 48 33 48 97 94 143 61 50 43 42 31 110 189 191 191 192 198 192 169 146 124 103 115 134 161 180 188 189 192 196 190 190 188 188 186 190 185 181 178 185 178 157 128 93 67 38 47 56 73 101 128 128 95 185 86 48 49 40 27 109 182 187 192 194 199 202 198 173 159 147 113 89 100 137 165 180 183 184 184 183 182 177 173 173 174 170 171 172 144 102 71 62 81 137 166 168 171 157 144 127 144 145 99 45 50 43 26 68 109 113 117 122 123 125 125 117 105 106 105 94 57 50 70 85 96 96 95 96 98 94 88 86 93 96 88 76 48 29 40 59 92 113 114 110 108 95 92 69 79 86 73 28 31 29 16 