P2
48
60
255
40 64 67 68 72 74 74 74 72 73 77 80 80 82 82 83 83 83 79 79 81 80 80 80 82 81 82 81 81 82 84 83 83 84 83 82 82 82 81 83 82 79 74 74 70 67 66 41 64 104 107 111 117 121 123 122 125 124 127 133 135 134 133 133 132 131 131 132 132 133 134 132 132 129 131 131 132 133 134 137 140 137 137 134 133 134 134 132 130 124 120 115 112 109 107 63 63 105 107 110 115 117 120 124 123 123 127 131 130 133 133 135 134 130 129 132 133 132 132 132 130 132 131 132 132 135 136 137 139 137 137 135 134 133 134 133 129 122 119 113 109 107 105 64 63 105 106 112 115 119 124 126 125 126 130 128 129 130 133 133 133 131 129 132 132 133 131 131 129 132 131 132 131 133 135 136 136 137 135 134 133 133 134 132 130 124 119 116 111 106 103 63 63 105 107 109 115 120 124 125 122 125 130 136 132 135 137 136 133 133 131 134 134 133 131 130 131 131 130 133 133 134 139 142 138 138 138 137 138 138 137 130 127 122 117 114 107 103 101 62 63 103 105 108 113 120 123 124 122 122 128 137 139 138 137 135 135 131 134 135 133 129 131 133 133 133 134 133 132 131 132 137 139 137 141 140 140 136 128 126 121 118 114 111 107 103 100 62 62 102 104 109 112 119 122 126 125 123 125 131 136 134 132 130 132 130 133 133 132 128 128 130 131 132 131 131 129 126 128 131 131 133 136 133 129 127 122 119 118 112 112 107 106 101 99 62 62 103 105 107 109 116 117 122 125 130 124 121 125 124 126 124 125 127 127 128 127 126 123 125 125 127 125 127 124 122 124 125 125 125 127 128 127 119 109 106 108 117 115 111 106 102 101 61 61 102 105 108 111 113 111 110 116 120 125 123 122 120 118 118 117 122 121 122 121 119 121 120 118 122 122 122 119 116 115 117 120 118 119 114 109 104 102 106 108 107 109 109 107 105 100 61 61 102 104 108 108 108 108 102 98 99 100 99 102 104 106 106 106 112 114 117 116 113 115 115 112 115 114 113 113 108 108 106 104 98 93 90 89 88 89 92 98 97 99 102 103 102 100 61 58 99 97 101 102 98 100 94 85 84 81 77 76 77 82 85 93 102 104 109 112 113 114 113 108 110 109 106 101 94 89 80 79 74 70 67 68 73 85 96 102 100 94 93 90 92 96 59 54 90 91 92 93 90 94 92 81 74 65 61 63 66 71 77 82 88 96 102 108 111 111 110 108 103 98 93 88 80 73 67 63 62 59 61 68 78 87 104 108 106 99 95 94 91 90 57 51 82 85 87 96 99 102 102 100 97 87 78 71 71 72 71 73 77 83 92 104 110 110 113 112 105 91 80 73 67 62 61 62 63 70 85 97 107 110 109 107 104 100 96 95 94 95 57 53 84 85 93 97 100 107 110 113 108 102 95 82 78 73 70 66 67 72 84 97 115 124 122 118 106 90 74 62 58 61 64 68 68 66 70 74 80 87 94 100 102 98 93 92 91 92 57 55 88 90 93 96 97 96 88 78 62 52 49 47 49 56 66 66 65 69 79 96 119 134 136 130 114 90 74 64 58 59 57 49 42 37 34 25 30 33 46 64 82 92 92 90 89 92 59 57 89 88 87 89 77 58 44 34 28 29 21 34 38 43 45 56 62 72 83 95 118 133 136 133 117 95 82 67 60 59 49 45 61 50 39 18 26 33 40 42 44 66 87 90 89 94 60 59 95 88 81 63 46 41 59 52 43 33 29 48 58 62 45 56 82 85 90 97 116 130 134 132 116 97 95 91 88 54 46 62 93 88 60 49 57 52 76 76 66 58 62 83 88 95 62 62 96 87 76 72 79 93 98 96 61 68 68 67 94 85 75 78 91 101 97 100 116 132 135 133 119 101 100 102 99 93 92 103 112 118 100 86 91 104 125 123 105 90 84 83 93 101 67 67 105 100 95 98 100 109 123 127 117 112 112 115 113 107 100 97 97 99 101 103 119 133 132 133 115 101 102 102 99 103 116 119 117 118 119 114 115 125 132 128 114 106 108 105 108 111 70 69 114 112 108 107 110 118 133 142 142 134 126 122 117 112 105 103 101 102 101 104 119 133 130 127 107 101 101 103 104 105 116 117 114 117 124 131 136 138 133 126 117 112 113 118 122 123 76 71 118 119 114 110 112 121 134 141 143 134 125 121 118 110 107 106 103 101 102 101 122 135 134 124 103 102 104 104 108 113 117 118 116 119 124 128 133 136 137 133 124 121 120 124 127 131 79 72 120 121 121 118 118 123 131 139 142 136 130 123 116 112 115 107 103 102 102 106 125 134 132 127 109 102 102 104 107 110 120 125 118 121 125 129 134 136 137 135 133 128 126 128 126 126 80 72 119 123 123 122 124 128 133 135 135 133 124 117 118 121 110 104 102 103 102 110 127 134 133 131 110 104 103 102 104 107 118 131 127 121 119 122 127 133 135 141 137 133 130 130 127 123 76 71 118 123 124 123 125 129 134 133 130 124 120 125 129 119 106 104 103 101 105 115 130 132 132 134 120 108 103 103 103 106 113 127 134 129 122 122 122 128 133 140 141 137 134 129 126 122 72 68 114 118 121 125 130 132 134 131 129 124 127 131 125 115 105 102 102 101 109 125 135 135 135 138 126 115 106 102 102 106 115 124 133 138 132 127 125 127 131 138 143 140 134 124 122 116 69 65 111 114 119 125 131 132 136 134 132 128 128 127 119 113 105 101 97 100 112 126 132 134 136 136 130 112 109 103 94 103 109 123 132 136 135 137 129 127 129 134 141 136 130 120 117 111 67 64 105 112 115 120 127 129 133 129 132 127 127 123 119 115 107 95 92 100 109 122 132 132 134 136 128 117 107 105 90 90 109 124 130 135 137 139 134 132 135 135 135 130 123 117 114 111 66 62 104 107 110 115 123 130 131 134 134 130 126 122 119 114 101 84 92 104 112 121 135 138 138 140 133 115 109 104 96 79 95 117 128 136 135 136 139 139 139 141 137 130 121 117 112 110 66 62 102 107 111 114 123 125 129 134 132 130 127 125 121 105 87 89 100 105 115 126 141 137 137 134 143 116 106 102 101 91 78 95 114 128 135 136 138 135 135 139 133 128 122 118 112 109 65 61 101 105 110 112 122 123 129 133 131 129 127 121 106 89 76 100 97 99 107 127 140 126 122 124 123 109 99 94 100 104 75 81 101 118 128 134 136 139 137 138 135 124 118 114 110 109 64 61 100 104 106 107 115 123 129 131 130 129 121 109 93 78 83 100 92 89 96 107 110 108 107 106 100 94 88 90 97 99 81 69 86 104 119 129 135 137 141 139 128 119 116 113 107 104 61 60 100 102 104 106 112 119 124 128 132 126 110 95 83 73 86 91 87 78 82 93 92 89 89 89 86 75 59 79 88 91 83 69 74 91 109 122 130 135 135 129 119 115 112 107 104 102 60 58 96 99 100 102 107 115 121 127 127 117 100 86 76 76 91 85 74 41 36 73 79 75 70 71 64 33 26 55 75 85 94 78 70 82 100 114 125 131 127 122 118 110 107 106 101 101 62 57 95 97 97 101 104 111 118 123 121 106 93 82 77 84 98 87 65 51 72 82 76 71 69 71 70 65 48 53 71 95 102 89 73 75 90 107 117 122 125 118 113 106 104 103 101 99 61 57 97 96 95 99 101 105 110 113 112 102 90 83 79 94 103 100 84 76 84 77 78 68 67 72 78 79 70 68 91 100 109 97 81 74 85 102 114 121 122 114 109 105 102 99 100 99 61 54 94 96 95 96 99 103 105 106 105 94 87 80 87 103 106 100 94 87 84 82 79 77 74 80 85 87 89 92 98 105 108 105 92 80 85 99 112 117 116 111 110 101 99 96 99 100 60 53 92 96 92 94 96 100 103 104 104 93 87 85 96 105 106 101 95 90 88 90 90 86 83 92 94 92 94 100 98 102 105 107 102 88 84 94 106 115 115 110 107 100 92 96 101 99 60 54 90 93 94 95 98 99 101 102 102 93 90 90 102 104 101 101 97 95 96 99 102 97 96 100 107 104 101 101 101 101 103 106 103 100 93 98 109 113 112 108 104 100 94 97 97 97 60 54 89 93 94 95 95 98 98 101 101 97 92 95 103 103 103 101 103 100 103 111 120 118 115 118 121 117 108 108 107 105 102 105 107 106 104 105 109 114 110 106 103 100 98 97 96 94 58 54 88 92 95 94 97 98 99 98 101 101 97 99 103 103 102 104 108 108 113 124 132 129 122 123 129 124 117 112 110 109 101 100 100 100 106 105 109 111 109 104 101 100 98 99 96 93 59 55 89 90 94 93 97 98 99 98 102 101 100 100 100 102 102 106 111 111 108 101 101 115 124 119 107 97 101 110 114 114 105 100 99 99 100 102 103 107 106 102 102 102 98 96 95 94 58 55 90 91 92 94 95 96 98 99 100 100 98 101 95 95 99 104 98 86 79 78 82 86 91 85 82 79 78 81 92 102 103 95 89 94 94 96 98 105 105 102 101 100 99 96 95 94 57 54 90 90 91 94 94 95 98 98 101 99 99 99 90 86 90 83 71 68 66 66 69 72 75 71 64 60 63 62 63 69 80 84 69 77 91 96 100 102 105 104 104 100 97 94 93 93 58 54 88 89 91 94 96 96 97 95 97 96 97 89 72 64 60 53 56 57 56 53 50 56 56 55 47 50 64 68 67 58 54 53 39 46 80 92 95 100 108 105 102 98 96 95 94 95 59 53 88 90 91 93 95 97 98 97 95 92 90 75 51 55 66 78 81 83 98 104 91 90 93 93 92 100 110 108 99 92 90 90 91 72 76 88 93 101 108 108 103 100 98 94 95 96 58 65 85 90 91 92 94 97 98 98 95 86 80 65 67 88 96 93 86 87 95 110 107 108 112 113 105 108 115 112 96 91 97 103 100 101 97 93 95 102 107 106 102 98 96 95 95 94 58 95 89 89 92 92 93 96 97 100 96 87 84 86 93 96 93 92 91 91 91 101 105 103 107 107 106 104 106 98 91 96 94 95 99 108 108 102 97 100 105 103 99 95 96 93 95 94 58 103 109 87 89 90 92 95 95 96 94 91 94 99 102 101 98 93 87 84 81 82 84 87 91 91 90 91 86 89 89 89 90 94 98 107 108 105 101 99 102 101 98 96 94 94 93 93 57 103 114 87 88 90 93 94 96 94 91 96 103 104 106 102 98 94 90 83 73 66 60 54 54 55 59 65 67 70 75 83 91 94 98 102 105 106 103 102 100 100 98 96 93 92 92 93 58 102 114 89 87 89 91 94 95 94 96 99 105 109 107 103 99 95 93 87 84 84 79 72 66 63 62 65 70 73 79 85 93 95 97 101 101 104 101 101 99 98 95 95 93 92 92 94 59 103 114 91 89 89 91 94 94 93 96 100 105 108 109 108 105 106 106 102 100 100 101 103 102 99 99 98 96 92 95 97 96 99 99 100 101 102 104 100 98 96 94 95 95 93 95 94 57 103 114 91 91 89 89 92 93 93 95 101 104 110 113 115 115 117 119 121 117 121 116 117 115 113 111 111 110 107 105 108 107 107 103 100 103 105 102 101 98 95 94 94 94 93 94 95 58 104 112 91 93 89 89 91 92 93 94 98 103 110 112 117 120 124 127 125 123 121 118 122 121 119 118 120 122 121 119 118 116 109 106 105 104 105 102 101 95 94 94 92 94 94 95 94 58 99 105 93 93 91 90 91 91 91 93 95 95 104 111 113 120 125 127 123 123 125 124 124 124 123 123 122 124 124 122 121 118 113 109 108 106 102 100 97 94 93 94 93 94 95 95 94 60 69 90 93 93 93 89 90 90 90 91 92 93 102 105 108 114 122 123 123 127 127 124 126 123 127 124 127 127 126 122 118 115 113 109 105 104 98 94 90 92 91 94 94 94 95 93 94 58 62 91 93 94 93 91 89 90 89 88 90 90 95 99 105 109 110 113 118 124 122 122 119 119 119 120 124 130 128 121 112 110 111 103 100 96 93 91 87 90 89 92 93 94 90 92 94 57 60 89 93 95 93 93 91 88 87 88 88 88 90 91 95 99 96 98 105 110 110 109 108 110 112 116 115 114 113 109 103 103 102 98 96 91 89 90 90 89 88 89 90 88 88 93 93 56 57 92 93 99 95 94 92 89 85 84 85 89 88 89 90 90 89 89 91 96 103 102 101 102 105 107 107 104 99 98 99 95 94 91 91 91 89 89 89 88 86 88 85 87 89 93 91 54 59 81 92 98 97 93 93 91 88 85 82 82 85 86 85 86 86 83 85 88 91 93 93 97 98 98 99 98 93 96 91 87 86 86 88 88 88 85 85 85 85 84 85 88 90 91 87 53 37 43 58 58 60 58 58 56 55 54 53 52 49 51 51 52 52 51 51 52 53 54 55 57 57 57 56 55 52 55 54 52 52 52 54 53 51 50 52 52 51 51 54 55 55 55 53 33 