P2
48
60
255
18 36 41 45 39 19 15 14 16 20 27 29 28 31 35 37 44 52 60 69 77 82 86 88 94 96 100 100 106 107 108 108 109 111 116 114 109 101 99 99 101 105 103 99 96 93 82 38 30 63 70 75 74 57 33 30 33 39 41 45 53 61 66 77 87 99 114 122 131 141 148 155 156 157 160 165 168 171 174 178 180 182 185 181 172 167 164 165 170 174 170 162 156 148 137 68 31 64 74 75 81 76 60 47 43 44 50 59 66 69 78 96 118 130 135 142 151 157 160 156 157 155 158 161 163 169 170 171 175 178 181 180 174 170 169 169 172 179 174 167 157 147 133 70 29 58 74 83 86 86 84 78 76 76 82 88 100 114 126 138 149 151 153 157 159 160 159 160 159 156 157 160 165 169 171 172 173 174 179 178 174 174 169 172 172 174 174 167 156 146 135 71 27 59 73 83 87 89 88 87 89 98 112 123 133 142 145 149 156 157 160 164 163 164 162 159 157 155 158 162 164 169 169 172 172 176 174 173 170 171 171 172 171 174 169 163 153 147 132 70 26 54 71 81 86 88 89 92 101 115 123 134 138 145 150 152 154 158 164 164 168 164 163 163 155 157 158 161 162 166 168 171 175 177 178 171 169 172 172 170 163 165 163 158 146 140 128 69 27 55 72 80 85 87 92 96 101 111 119 131 136 142 149 153 157 159 164 167 169 162 162 164 156 153 155 159 159 167 173 175 177 186 181 178 174 176 174 169 163 160 156 151 143 130 117 67 29 61 73 80 83 86 86 95 98 106 112 125 134 143 146 150 152 157 161 165 165 163 164 166 158 155 154 157 161 164 169 171 176 177 174 173 177 176 171 168 162 157 151 149 143 134 122 67 32 64 71 79 82 84 86 90 92 100 111 116 122 132 141 145 146 152 156 156 158 159 161 167 159 154 154 155 161 163 163 163 163 159 160 160 166 171 166 164 160 156 153 152 149 142 130 71 37 67 71 79 82 85 84 82 88 91 95 101 104 117 126 136 141 144 150 154 156 151 160 165 161 148 149 147 151 150 148 149 147 136 140 133 131 133 129 131 141 147 152 150 147 141 134 77 41 69 72 75 70 63 63 69 71 73 75 78 84 94 102 113 123 127 132 140 148 141 149 160 154 140 140 132 128 124 113 102 98 94 97 90 95 102 106 106 120 128 140 143 140 137 130 79 41 65 64 55 45 44 46 43 46 44 46 48 48 62 68 76 89 101 111 121 129 127 142 154 149 139 128 115 100 77 59 51 46 47 54 67 67 70 79 85 100 106 111 118 125 127 123 78 39 57 46 42 34 38 36 34 34 31 30 25 28 28 31 40 52 68 85 100 111 116 135 144 149 141 118 94 67 51 42 35 31 34 47 47 47 56 67 70 72 85 92 95 92 89 103 73 33 45 38 39 35 37 39 38 32 25 21 21 19 19 20 24 31 40 51 64 82 108 136 148 152 146 120 84 56 45 41 36 35 36 32 32 35 42 49 51 50 59 63 71 69 76 87 65 29 48 41 40 45 41 40 39 33 27 24 21 19 19 20 22 24 27 30 39 67 102 132 151 158 148 127 81 50 41 38 37 35 33 31 32 35 39 47 58 61 72 78 75 70 85 87 62 31 48 54 53 51 54 45 37 28 23 18 16 13 15 18 18 19 22 24 32 62 100 138 158 164 155 130 94 45 36 36 30 28 28 23 20 23 22 28 42 53 68 79 81 89 88 88 59 32 56 53 56 51 40 33 29 23 17 16 23 12 18 31 26 32 43 43 46 61 103 139 158 166 153 128 105 67 45 42 35 36 54 46 28 22 18 17 26 39 46 58 79 90 96 98 59 35 57 58 54 40 35 28 22 39 31 23 22 25 36 58 50 49 48 65 58 70 116 140 150 160 150 131 114 105 116 74 74 86 88 91 71 53 45 42 74 51 40 63 60 90 106 109 71 41 67 63 53 41 31 23 34 53 70 54 64 74 87 81 60 61 64 70 65 92 124 138 146 156 146 128 118 121 139 133 117 93 92 97 95 100 102 106 94 80 63 53 68 84 110 123 80 42 70 66 57 50 45 46 52 60 66 66 72 77 88 92 69 62 65 66 71 105 127 136 142 149 143 129 125 124 129 120 118 110 103 100 100 97 101 106 109 104 94 99 96 100 110 127 85 45 75 73 70 72 69 64 63 65 68 73 79 86 97 102 80 71 68 67 79 110 132 139 146 151 143 132 127 125 128 131 133 132 136 131 126 124 128 134 133 136 140 148 150 142 136 144 91 48 80 83 84 87 87 86 85 90 95 104 112 118 122 110 83 78 73 71 86 116 133 143 151 152 145 136 130 131 133 137 141 145 148 148 150 153 159 162 163 161 161 159 161 158 159 157 97 50 87 95 94 95 99 103 106 111 120 125 128 127 125 101 84 81 75 73 94 122 138 147 151 154 147 136 135 134 137 141 150 152 153 155 156 160 164 168 176 176 175 169 165 164 158 160 99 52 93 100 102 106 109 112 116 113 122 129 128 126 112 89 85 79 76 75 97 121 137 150 154 157 149 139 136 136 137 142 155 166 157 158 160 164 166 168 174 177 177 175 170 162 161 160 99 51 89 96 104 109 111 117 120 123 127 132 129 122 96 88 87 81 74 76 95 115 139 149 153 151 146 135 133 135 137 142 156 172 170 165 159 160 164 170 172 174 174 173 170 168 162 158 98 48 84 95 105 111 112 117 121 126 128 129 127 105 91 91 90 82 74 75 87 114 139 145 144 142 139 132 135 131 134 142 159 172 175 174 169 165 167 169 170 173 177 178 175 169 163 157 96 44 80 93 102 110 109 114 122 127 125 125 119 97 90 96 94 86 75 74 90 124 141 149 146 140 133 133 137 135 136 142 160 169 175 171 174 171 169 171 172 174 175 178 170 168 165 155 95 42 78 89 97 103 107 113 117 125 127 126 114 96 95 98 96 86 74 72 94 133 151 153 152 158 143 133 136 138 141 140 156 169 166 170 173 175 171 173 176 177 176 174 171 166 156 156 93 41 77 84 94 102 108 112 120 125 129 122 102 97 99 98 95 80 72 67 80 122 140 144 143 160 156 130 127 135 139 141 149 159 161 164 166 170 171 173 177 178 175 171 168 163 154 148 92 42 73 77 86 97 103 110 117 123 127 111 89 97 96 93 89 73 66 61 66 86 107 116 123 127 124 107 108 123 134 137 139 146 155 158 160 162 168 172 176 176 177 170 167 162 158 151 90 39 72 72 79 91 99 106 114 119 117 98 92 94 91 87 83 61 43 32 59 69 77 87 100 106 101 91 79 80 97 117 126 121 143 150 155 158 163 165 169 171 172 168 163 161 154 148 90 40 71 71 76 86 96 103 109 113 102 93 93 90 85 80 80 55 33 20 27 52 51 55 66 73 62 33 18 20 37 76 105 102 117 136 144 150 153 160 163 167 168 164 160 153 151 143 85 40 70 70 75 83 91 100 105 100 90 90 91 86 83 79 81 72 53 54 51 51 47 48 50 45 36 46 43 34 40 69 108 101 102 123 135 143 144 149 156 159 159 157 156 149 146 140 82 40 70 71 74 78 87 95 96 88 84 84 87 86 80 80 87 90 68 53 62 62 53 40 40 50 75 98 97 77 76 124 130 107 106 120 126 134 141 148 150 152 150 148 148 143 140 133 81 39 70 72 72 75 81 87 85 81 80 81 85 81 79 84 89 91 86 75 66 68 74 73 63 67 92 109 120 128 136 142 143 136 135 128 123 128 134 141 143 145 146 142 140 137 134 131 79 37 68 72 71 71 76 79 79 80 78 80 81 79 82 86 89 89 85 80 72 73 95 120 109 83 97 113 118 128 137 139 144 152 156 142 129 126 131 136 140 140 139 138 136 131 130 130 78 36 65 72 73 72 73 74 76 78 78 79 80 79 83 86 88 85 83 78 79 92 113 122 122 106 110 128 132 134 135 138 152 160 162 154 143 133 132 136 139 137 137 136 133 130 126 125 76 36 63 70 71 71 71 73 74 76 79 79 77 79 83 84 84 79 80 85 93 104 116 121 118 113 110 126 142 145 145 148 155 157 160 153 147 140 135 135 139 136 136 135 131 128 125 125 77 36 61 67 69 70 70 73 74 76 77 76 75 79 80 81 79 78 85 91 94 106 117 119 121 114 107 120 139 143 146 151 146 150 153 146 141 141 138 138 140 140 138 135 132 129 124 123 77 35 61 66 68 68 71 73 74 75 75 73 75 75 76 77 80 85 83 86 94 107 118 123 125 120 117 125 137 141 140 140 142 145 141 140 136 136 134 137 138 139 134 134 132 129 125 123 75 35 60 63 67 70 71 73 75 76 73 72 74 74 74 77 78 77 76 82 94 108 124 132 135 131 131 128 130 134 134 135 136 134 132 131 133 134 131 135 138 138 135 135 133 129 126 124 74 31 59 63 65 70 71 73 74 75 74 75 70 72 69 66 66 68 67 63 67 74 92 108 125 121 114 99 93 98 109 117 123 123 120 118 118 119 119 124 134 136 136 135 133 127 125 125 75 26 56 60 63 69 71 73 74 76 75 73 73 72 53 49 50 50 44 40 40 40 45 53 67 74 65 55 53 54 55 60 69 80 86 87 84 89 104 119 128 132 136 137 133 127 125 119 73 24 49 60 62 64 68 70 74 77 76 73 75 57 32 25 26 24 25 27 29 29 29 33 39 43 45 39 36 34 32 30 31 34 37 38 35 51 80 105 120 127 133 135 131 125 121 118 73 24 41 56 61 64 67 69 73 78 87 74 74 56 50 64 64 60 58 59 60 69 81 93 98 99 103 104 109 115 112 109 106 101 98 102 96 83 91 105 117 123 129 130 128 120 117 116 70 24 37 49 58 61 63 66 69 82 100 96 78 68 70 75 72 69 69 72 73 83 98 121 129 133 134 139 162 152 136 130 132 130 132 134 135 122 110 111 117 121 125 126 124 117 113 111 67 25 38 44 54 59 61 62 65 75 97 102 79 74 77 78 77 72 71 80 80 83 89 104 112 115 113 114 131 138 132 127 126 125 131 137 140 134 126 121 120 122 122 120 114 114 110 109 66 25 38 48 53 56 58 60 63 67 82 93 76 70 76 77 76 73 72 73 75 79 82 84 84 88 92 97 107 115 119 124 124 125 132 135 139 136 129 124 118 117 115 112 110 107 107 106 62 24 38 49 68 54 55 57 58 61 69 82 73 68 70 73 73 73 71 70 75 83 92 91 87 91 96 101 111 116 119 121 121 125 129 136 136 127 118 116 113 110 105 102 105 105 104 98 60 25 38 51 72 62 55 54 54 55 61 75 73 64 69 72 71 72 70 68 68 73 81 86 87 91 94 97 98 102 107 111 116 124 129 126 124 120 111 111 110 103 102 100 99 100 98 96 58 25 38 52 72 73 54 55 54 52 54 62 73 69 68 69 68 68 70 66 68 66 70 74 77 79 86 86 90 95 103 109 114 121 126 123 123 124 119 116 110 105 98 96 96 98 100 96 58 24 37 53 74 77 63 53 57 57 53 56 64 67 70 71 67 68 68 68 66 65 67 70 70 72 80 84 89 95 103 110 115 121 118 113 117 118 123 118 111 104 99 94 96 98 98 94 53 24 37 55 74 79 70 59 53 59 60 56 60 70 74 74 72 67 66 67 64 64 67 70 71 72 77 81 86 89 93 102 109 115 111 114 119 131 130 125 117 109 104 102 98 93 95 86 58 24 37 56 73 76 76 65 55 54 60 62 59 65 72 77 75 70 65 73 79 74 72 81 88 93 97 99 99 101 101 105 111 113 116 125 134 133 128 121 117 115 105 102 97 94 85 91 67 24 38 58 72 77 78 68 62 51 54 60 62 61 68 75 77 79 80 86 90 99 98 107 118 117 120 128 128 128 124 123 131 136 137 139 143 142 133 122 120 111 102 98 92 81 84 103 67 24 37 59 72 78 78 73 66 59 48 54 58 61 63 68 80 82 101 101 98 96 101 109 123 131 129 135 131 133 131 142 148 145 144 143 139 141 134 123 116 108 102 91 78 76 95 106 69 24 37 60 74 76 77 76 68 64 53 49 53 60 60 65 71 76 92 100 103 91 97 108 114 122 129 135 129 133 141 145 145 138 141 143 138 136 123 116 107 102 92 78 74 89 100 107 69 24 37 60 74 77 75 77 74 67 60 50 51 55 58 61 65 69 84 98 104 93 91 98 107 114 120 123 128 123 134 138 137 131 129 129 125 121 114 106 98 88 78 76 86 95 102 107 72 23 29 59 71 79 75 75 76 68 65 55 49 52 53 56 61 65 68 81 92 98 95 94 93 103 107 112 115 115 118 121 123 124 115 117 114 112 104 99 88 80 79 82 90 96 102 111 73 11 16 37 43 48 49 46 45 43 41 37 31 31 32 32 35 37 41 45 52 56 58 54 53 58 60 64 66 72 70 71 73 71 69 68 67 62 59 54 49 50 51 54 57 60 63 74 47 