P2
48
60
255
21 43 50 54 57 60 61 63 65 67 69 70 70 71 71 73 72 71 71 72 71 71 70 70 70 70 69 68 69 68 68 67 66 65 63 61 60 58 57 55 55 54 53 52 49 46 43 25 35 71 82 88 93 96 99 103 106 107 111 114 114 116 114 116 117 112 114 115 116 114 113 112 113 111 111 111 110 110 111 110 108 104 101 97 95 94 92 89 89 87 85 83 80 76 71 41 37 73 83 89 94 95 98 103 105 107 110 113 115 116 118 116 114 115 115 115 116 113 112 112 112 108 109 110 112 112 111 111 110 108 105 100 97 95 95 91 89 87 85 82 80 76 72 43 40 77 83 88 93 96 98 103 105 107 108 112 114 114 114 113 113 114 112 114 113 112 110 111 110 107 108 108 109 110 108 108 110 108 105 101 100 98 97 93 92 89 84 82 79 77 74 43 44 77 83 88 92 96 101 103 105 104 107 111 113 114 112 113 111 109 108 110 111 110 109 109 108 106 105 104 104 105 106 106 106 104 104 100 99 98 96 93 89 88 86 83 78 74 73 45 48 79 82 89 92 95 98 100 101 104 108 110 112 111 109 109 108 107 107 107 106 106 106 106 105 102 101 101 99 101 102 103 101 99 95 92 89 87 85 80 77 75 78 81 79 76 74 46 49 80 81 85 85 83 89 91 95 99 98 94 95 100 103 103 101 101 102 102 104 102 103 102 101 99 99 97 98 97 94 88 83 79 76 70 68 68 68 67 66 65 60 61 67 74 74 45 49 80 72 64 67 74 78 77 75 73 68 68 69 72 77 88 94 97 98 97 100 101 100 100 99 96 94 93 93 87 75 67 63 58 54 52 52 53 53 54 55 58 62 59 58 62 73 46 50 76 54 53 58 60 58 58 57 57 55 56 58 60 66 66 80 89 90 95 97 97 97 97 96 93 90 89 85 75 62 57 54 50 49 47 46 47 51 54 57 63 66 62 61 61 69 46 50 68 50 56 65 63 63 63 56 50 49 52 54 56 55 56 64 78 87 91 93 93 94 95 94 91 87 84 76 64 54 51 48 45 45 47 51 56 61 65 66 70 67 66 67 65 67 45 50 67 57 69 75 79 75 74 72 69 62 57 53 55 56 55 59 68 81 88 92 93 93 95 93 89 85 80 70 57 52 50 50 49 52 56 60 63 66 66 66 65 66 68 67 66 66 43 49 73 70 74 80 79 79 79 78 75 72 69 65 61 63 63 64 66 77 85 91 92 94 95 93 89 82 74 65 55 52 51 52 51 51 51 53 55 56 57 57 58 61 62 65 66 68 43 50 80 77 74 77 76 73 68 65 60 60 57 54 55 59 63 65 69 76 84 90 95 97 99 95 88 83 73 62 53 50 50 47 45 53 57 60 62 62 57 49 49 54 57 60 63 69 45 50 82 80 74 72 69 58 53 60 64 60 53 48 46 46 52 61 66 74 85 93 101 104 104 100 94 85 74 61 51 48 45 49 55 49 42 40 43 43 47 54 55 48 54 59 64 69 45 50 83 82 75 70 59 55 59 47 44 39 41 34 39 43 48 51 61 69 81 94 104 111 110 105 99 88 74 61 50 47 51 53 54 58 58 37 39 44 48 43 47 54 53 57 64 71 45 50 84 86 80 70 59 54 43 54 66 46 48 32 39 47 49 52 62 70 80 95 107 114 113 110 103 90 75 64 57 59 52 51 78 70 51 38 42 52 60 54 52 54 59 61 66 73 47 52 86 88 85 76 66 58 60 72 79 50 40 35 49 55 54 49 66 83 84 96 108 117 116 112 105 90 77 70 76 66 52 61 79 82 59 54 55 59 70 67 60 65 68 71 75 79 50 53 89 92 91 85 79 73 69 72 81 72 60 58 65 72 68 67 75 92 90 96 107 115 115 112 104 91 80 76 79 81 82 80 84 84 80 76 78 72 68 64 64 71 76 78 81 83 50 53 89 92 92 88 86 80 76 75 70 72 75 73 73 75 77 81 87 90 93 97 108 116 115 114 105 90 82 79 79 75 76 79 80 80 77 69 65 65 67 66 68 76 79 82 84 86 52 53 88 92 93 92 88 85 80 78 77 75 76 77 75 75 75 77 79 89 97 95 106 117 116 114 108 92 84 83 85 78 73 73 77 76 73 73 71 72 70 69 73 81 85 87 88 87 53 51 88 94 95 93 92 89 81 77 78 75 73 71 70 71 76 80 88 98 98 97 109 119 115 113 106 92 83 86 89 89 83 72 71 73 74 73 72 71 75 78 85 90 89 89 89 89 53 51 88 95 96 96 97 94 90 87 81 77 74 73 76 79 86 96 103 103 98 100 108 116 115 113 101 89 86 87 91 95 94 89 79 77 77 80 83 86 89 93 95 95 93 92 90 89 53 50 89 94 96 98 100 100 100 98 98 97 97 98 97 99 105 104 105 104 99 98 105 114 114 111 100 87 86 87 91 94 96 98 97 93 92 93 95 99 100 99 99 98 97 93 90 87 53 49 88 94 97 99 101 104 107 106 106 106 107 107 107 113 115 111 106 104 99 99 106 114 115 110 98 88 87 86 89 92 97 100 104 103 102 103 102 104 102 102 101 98 95 92 89 87 53 48 86 93 97 99 102 105 109 113 112 111 112 111 116 118 116 113 107 102 99 100 107 113 116 111 99 90 86 87 88 91 97 100 105 107 109 110 109 107 104 103 102 97 94 91 88 86 52 48 86 92 98 99 100 104 107 112 113 113 116 119 120 117 116 111 104 102 100 103 109 115 116 111 102 93 89 87 87 90 94 98 105 107 112 112 110 109 108 103 99 94 92 90 87 84 52 47 85 92 96 98 101 104 108 111 114 115 118 120 118 117 113 110 104 100 100 104 110 114 114 110 103 94 90 86 85 86 91 97 99 104 110 111 111 108 107 105 100 94 91 89 86 85 52 45 83 91 95 98 101 104 108 111 114 116 117 118 117 114 112 108 102 99 100 104 109 116 115 109 104 97 90 85 82 82 88 94 98 101 106 110 112 109 107 105 100 95 91 89 85 84 51 45 82 90 93 97 101 104 108 110 113 113 114 117 114 111 108 104 99 96 98 106 112 116 115 111 103 97 90 84 82 78 81 90 95 99 103 105 107 106 105 103 99 95 91 86 85 84 52 45 80 90 93 95 98 104 107 110 110 110 113 114 110 108 104 97 95 98 99 107 113 116 116 112 102 94 89 86 88 82 76 84 91 95 99 101 104 103 101 101 97 93 89 86 82 83 51 43 79 90 92 94 98 102 106 107 109 110 110 108 106 102 98 92 93 99 101 106 113 118 114 112 102 92 85 83 88 86 74 78 86 93 97 100 100 101 98 97 96 93 88 85 84 83 50 41 78 88 93 95 98 99 102 103 106 106 106 104 102 99 93 91 94 98 95 99 105 109 103 97 88 80 73 76 85 83 72 74 79 86 91 96 97 97 97 95 94 91 87 85 83 81 51 37 77 87 91 96 97 98 98 99 102 103 104 104 99 94 89 89 93 96 85 82 85 89 85 76 63 58 60 68 75 75 70 71 74 81 88 92 95 95 94 94 91 89 87 84 82 81 50 34 76 86 91 94 96 96 97 100 101 103 102 103 98 91 86 90 92 81 68 64 73 72 65 56 53 49 46 49 56 65 73 74 75 77 83 87 91 91 91 90 90 88 85 84 82 82 51 28 75 86 90 91 93 95 97 98 101 101 98 95 91 84 85 90 94 89 65 56 65 64 56 51 49 44 43 45 51 70 77 76 77 79 81 85 88 89 88 87 87 87 85 83 82 82 51 23 73 85 90 90 91 92 96 96 97 97 93 89 85 84 85 90 95 97 91 74 72 71 59 52 48 47 48 49 61 78 79 79 77 78 79 82 84 86 87 86 86 85 84 82 82 82 51 21 67 84 87 90 90 93 94 93 94 90 90 85 81 77 81 91 98 100 99 92 86 80 69 57 55 58 61 66 76 81 80 80 79 74 75 77 78 82 83 83 84 83 82 82 82 83 51 20 59 83 84 90 91 92 92 91 89 87 84 77 74 71 78 92 98 101 101 98 93 83 70 61 64 70 75 81 83 82 81 78 75 69 66 71 74 76 80 82 82 81 81 81 82 82 50 20 46 81 84 88 90 91 92 90 88 85 78 70 69 72 85 95 98 100 100 99 95 88 77 74 79 84 86 85 86 84 83 79 72 64 62 66 69 73 78 80 81 82 82 81 82 82 51 20 38 75 83 85 89 91 92 90 88 84 75 68 73 78 88 94 96 98 97 98 99 99 94 96 100 102 96 91 88 88 84 82 76 64 57 62 67 72 78 80 80 81 81 81 82 81 50 21 34 66 80 85 88 90 91 90 88 86 77 70 69 68 80 91 95 96 95 95 91 91 98 104 100 86 74 71 71 73 74 75 72 62 52 55 66 74 80 82 81 82 80 79 79 80 49 20 33 51 79 84 86 88 90 91 88 86 77 70 58 53 64 75 76 71 67 63 66 67 69 72 66 58 55 51 49 50 51 54 54 54 52 52 65 75 82 85 83 81 80 79 78 79 49 20 32 39 73 83 86 88 89 89 88 86 78 64 53 62 75 69 68 66 63 58 58 60 57 55 52 51 53 57 63 68 69 69 75 77 68 60 67 77 83 84 83 81 78 77 77 78 48 19 32 33 60 79 84 85 87 86 88 85 77 66 69 83 90 87 83 79 81 86 87 84 76 71 75 81 84 85 82 75 74 78 79 78 77 75 76 82 84 83 81 78 76 76 76 77 47 19 31 32 43 73 80 85 85 83 86 84 79 75 82 91 95 91 88 85 80 80 83 86 86 85 88 82 79 75 73 75 77 75 76 82 86 85 82 84 83 81 78 75 74 74 75 74 46 19 31 32 37 63 76 82 84 83 84 83 82 81 87 94 97 95 91 86 83 82 77 77 77 80 81 76 75 73 72 72 71 74 79 83 87 87 86 84 82 78 73 71 72 72 73 72 45 19 31 32 36 52 70 77 82 83 82 81 81 83 87 92 96 96 92 86 83 80 78 76 76 74 73 71 66 63 65 69 72 76 81 84 87 88 87 83 77 71 69 69 70 70 72 71 43 19 31 32 37 50 60 73 78 80 80 81 82 83 86 91 94 94 91 86 82 77 72 67 65 62 62 58 58 60 64 67 74 79 81 86 87 87 86 82 74 68 67 68 69 70 70 69 44 19 31 32 37 50 55 68 75 76 79 81 81 83 85 88 90 91 91 88 83 79 74 69 66 66 65 62 64 66 68 72 76 80 84 85 86 86 84 79 73 68 67 67 67 69 68 69 44 19 32 32 36 51 56 60 71 76 77 80 81 83 85 87 85 89 91 90 86 85 83 83 86 88 87 83 79 79 79 81 83 85 87 87 86 85 82 78 73 68 66 67 67 67 66 70 43 20 33 31 36 51 57 60 64 72 76 80 82 83 87 88 90 90 91 90 92 94 101 106 109 106 106 105 102 98 94 91 89 88 87 89 87 85 82 78 72 69 68 68 66 64 68 72 43 19 33 32 35 50 57 62 64 65 72 78 81 84 88 91 92 93 94 94 98 101 106 115 114 110 107 110 108 107 103 98 92 90 90 88 86 83 78 75 71 69 66 64 63 64 71 74 42 20 31 32 35 50 57 62 67 65 66 73 78 83 86 89 92 92 94 96 98 101 102 113 114 111 107 105 108 107 105 97 91 89 89 87 85 81 77 72 69 66 63 61 63 68 73 73 41 19 31 32 34 49 55 63 67 69 66 67 74 78 83 88 91 93 95 98 97 99 101 107 110 108 107 106 105 102 100 92 88 88 87 84 81 77 73 69 65 62 60 60 66 72 76 74 40 19 31 31 34 48 55 63 68 72 71 66 67 73 79 85 88 91 91 93 95 95 97 101 101 99 100 99 98 93 90 85 84 85 85 81 77 71 66 64 60 58 58 63 69 75 75 73 37 20 32 31 34 44 55 63 68 71 73 71 65 66 71 78 83 87 88 90 93 92 90 91 90 86 89 90 86 82 80 78 78 81 80 76 71 64 61 58 56 56 60 65 72 75 76 70 36 22 34 33 35 40 49 57 65 73 75 75 71 63 63 69 76 80 83 88 88 88 86 82 80 78 77 76 73 72 71 72 73 73 71 67 62 58 56 55 54 58 64 69 74 75 75 65 35 22 34 35 37 39 44 53 62 72 76 77 75 69 62 61 65 70 76 81 83 82 79 74 70 66 64 62 61 60 62 64 65 64 62 58 55 53 53 53 56 61 67 72 74 76 71 58 35 20 33 34 37 38 38 39 47 67 76 80 80 76 69 61 58 60 65 70 74 74 72 69 64 59 58 56 55 55 56 57 57 56 53 52 51 51 52 55 59 65 69 73 76 72 59 57 35 12 20 20 21 21 22 23 29 40 47 49 50 49 46 41 37 35 35 36 39 40 40 39 37 36 34 33 33 32 32 32 32 31 31 31 31 31 33 35 39 41 44 46 44 36 35 35 21 