P2
48
60
255
25 45 52 54 56 60 62 63 63 63 62 63 63 64 63 63 63 61 62 60 59 59 59 59 61 61 60 61 61 60 59 58 56 56 54 50 49 48 47 45 43 42 42 39 36 33 32 19 39 72 84 88 92 99 101 100 100 92 93 102 104 104 102 101 101 100 98 95 96 97 96 97 98 99 98 98 97 97 98 95 92 91 88 84 82 80 76 74 71 68 67 65 60 54 51 30 38 75 84 87 95 98 100 98 96 94 98 105 107 107 105 105 102 100 100 96 96 95 96 96 96 97 97 100 99 99 99 99 97 94 90 85 81 80 78 75 71 69 66 65 60 54 51 31 39 75 83 89 97 99 97 97 99 101 104 106 107 106 108 107 107 104 102 100 99 98 96 98 99 102 100 103 102 102 105 103 100 101 93 86 81 79 76 74 70 68 65 63 60 54 51 31 40 75 84 89 97 98 93 92 93 94 92 98 100 103 108 107 110 107 104 102 100 100 99 99 101 104 103 104 103 100 101 100 102 101 94 87 80 76 75 72 70 68 65 63 60 54 50 30 42 74 82 88 95 92 73 72 73 72 79 79 82 87 95 103 105 104 104 106 102 99 98 100 103 102 101 100 100 97 97 96 97 95 88 80 72 65 61 62 61 60 59 61 59 55 51 29 40 77 83 89 92 63 55 49 45 45 42 42 46 52 65 77 84 90 96 99 97 95 95 99 101 99 96 94 93 88 86 86 84 80 71 65 54 48 44 41 45 45 46 51 57 55 51 30 42 78 82 85 63 48 42 33 36 35 33 31 30 30 34 40 49 60 64 79 81 83 88 96 94 92 87 84 77 71 64 54 55 50 41 34 31 32 28 26 25 28 33 34 48 54 51 31 44 80 77 59 41 35 32 33 42 42 36 30 25 23 25 28 34 43 57 66 69 73 80 84 82 84 74 72 61 52 40 37 36 34 27 26 26 24 25 23 21 22 26 27 36 45 49 31 47 80 60 41 32 41 54 64 70 73 71 71 63 47 36 36 33 45 52 63 59 69 77 75 75 77 63 59 51 39 37 30 24 22 23 25 30 36 38 40 40 37 31 26 25 30 39 30 49 74 43 36 48 64 74 83 87 90 89 89 87 82 73 68 63 62 63 64 61 69 75 79 82 74 64 50 44 38 37 34 32 32 39 49 55 60 64 63 61 56 52 39 27 26 28 25 50 69 39 53 70 82 87 86 86 86 83 81 77 75 76 76 77 77 75 74 73 80 84 84 78 74 65 53 44 40 44 50 52 52 55 57 61 61 59 58 57 59 58 49 40 30 28 18 49 62 52 71 85 90 83 76 68 67 68 69 62 55 55 63 69 72 77 81 86 90 95 87 78 74 65 53 44 44 52 53 47 48 62 62 59 56 53 47 40 45 54 55 50 43 35 20 50 62 62 81 87 84 74 66 74 71 50 43 38 42 50 49 52 59 68 81 90 95 102 100 89 75 64 50 43 50 44 38 51 53 55 41 26 28 25 31 40 38 41 51 51 47 40 23 50 62 70 88 83 75 62 69 51 44 32 30 32 44 56 45 52 52 61 77 89 93 101 107 97 78 60 49 43 38 38 53 48 78 83 58 26 32 27 38 28 33 34 42 50 49 45 25 50 68 80 84 78 68 61 41 47 72 34 58 21 34 61 73 56 66 75 79 89 89 100 106 98 79 57 49 46 46 53 42 63 98 72 52 20 22 31 46 37 31 36 40 47 49 49 29 50 77 83 84 75 64 47 41 64 79 37 31 22 37 66 82 71 83 88 91 86 91 99 101 92 75 59 52 50 56 53 57 75 93 92 44 35 31 42 52 47 44 37 42 46 49 51 31 52 86 87 81 72 63 51 57 67 87 70 41 42 54 77 74 71 78 88 86 84 92 97 100 92 72 60 55 50 51 61 64 66 73 79 68 56 56 61 59 50 42 44 46 47 48 53 34 53 88 91 83 74 72 66 57 59 72 71 73 68 68 68 69 72 76 81 81 86 93 96 98 89 69 60 57 54 54 56 62 66 69 68 61 57 48 49 48 50 50 55 53 53 53 56 36 54 90 94 86 81 80 79 71 70 68 69 72 69 71 77 81 82 82 84 86 90 95 93 98 90 67 58 58 57 57 58 62 68 72 76 77 73 70 67 65 65 64 63 60 64 63 63 39 54 93 96 94 90 86 85 88 89 89 89 92 93 92 90 91 91 93 92 91 93 92 92 97 87 67 57 57 57 59 62 66 71 75 79 82 80 80 79 75 73 69 66 65 68 71 69 42 57 95 99 99 96 92 90 91 91 96 97 99 101 103 100 97 98 98 97 92 92 90 90 95 86 69 56 55 56 58 64 69 73 76 81 85 84 84 84 79 76 74 72 71 75 75 71 42 57 96 99 99 99 97 97 97 96 101 105 107 108 107 106 106 104 100 96 92 90 88 89 94 87 71 57 54 54 58 63 70 76 78 81 84 86 87 87 86 83 81 79 78 79 77 71 42 56 97 98 101 102 103 103 103 101 107 112 112 110 107 107 109 106 100 97 91 89 87 90 95 88 72 58 54 54 56 62 69 77 82 83 84 86 89 91 92 92 89 86 83 80 76 68 40 56 96 97 101 106 108 109 110 109 114 115 138 110 108 109 108 106 100 95 91 87 86 93 94 91 75 58 53 52 55 60 68 77 83 83 84 86 88 91 92 94 91 87 83 78 71 65 38 56 90 94 102 107 111 112 114 115 113 113 113 109 106 108 106 103 101 95 88 85 86 94 98 93 82 62 53 51 50 56 67 76 83 85 86 85 87 87 88 89 89 85 82 76 68 63 37 55 89 95 102 109 112 114 116 113 112 110 108 108 106 108 107 108 104 92 85 84 89 101 105 97 89 71 56 53 50 51 65 77 83 86 86 87 87 90 88 88 88 81 78 71 66 62 36 54 87 93 101 107 110 112 113 112 112 109 107 106 108 108 108 110 106 88 83 85 93 110 109 100 90 75 60 55 54 49 57 72 81 88 91 91 89 91 90 89 87 82 77 70 65 61 36 53 86 93 99 103 108 111 110 109 112 110 108 107 107 107 109 107 98 86 86 87 92 110 105 91 83 73 58 54 55 56 50 63 76 85 90 94 93 91 90 87 88 80 75 69 63 60 35 52 87 91 96 101 105 108 110 111 109 109 108 107 107 107 106 99 89 90 93 88 86 94 88 81 72 63 49 50 53 58 53 52 69 82 90 92 94 93 91 88 87 78 73 67 63 59 35 51 88 91 96 101 103 108 109 110 111 109 109 109 108 106 102 94 85 92 85 64 67 84 80 70 61 49 31 23 35 52 51 45 62 81 90 93 93 93 93 88 85 79 75 69 64 59 35 52 87 90 92 97 101 104 107 111 110 110 108 108 106 104 96 87 83 83 58 32 31 62 71 61 51 30 19 20 28 44 47 49 62 80 89 91 93 94 91 89 85 80 73 69 63 59 35 53 86 89 93 95 99 104 107 110 111 110 110 109 106 101 91 84 83 77 59 60 59 48 63 54 42 31 32 33 35 39 52 62 70 80 87 85 90 91 91 89 84 80 69 68 62 58 34 54 85 87 91 96 97 103 109 110 110 110 109 107 104 96 90 86 88 83 71 77 70 64 69 64 55 53 46 43 42 46 61 72 77 82 83 87 82 88 88 85 84 78 70 67 62 57 34 52 85 86 90 94 97 102 108 110 111 111 107 104 100 94 93 92 91 87 80 77 79 81 80 70 72 72 64 52 49 53 62 73 78 82 80 82 83 83 83 84 81 76 70 67 63 58 34 51 85 87 91 92 96 102 105 105 108 109 106 103 98 95 98 97 93 87 82 80 82 86 79 71 79 79 71 60 52 55 61 74 76 82 80 76 76 78 81 81 78 77 69 65 62 58 34 48 84 86 90 92 99 102 105 107 105 106 103 99 98 100 99 96 92 86 83 76 85 85 78 75 82 86 79 68 56 55 58 68 71 76 77 71 69 72 80 81 79 77 70 64 62 58 33 48 83 84 87 92 96 98 102 106 102 101 98 96 98 100 97 90 89 84 82 81 88 93 79 77 87 95 88 73 63 57 58 62 64 71 68 64 62 61 74 82 79 77 72 64 63 57 33 48 80 82 88 90 94 96 102 101 100 97 94 92 95 96 94 90 82 82 82 86 91 95 87 87 89 96 92 79 66 59 61 59 62 64 65 60 56 56 66 82 81 80 72 66 59 56 33 47 79 80 87 89 91 97 96 97 94 91 88 91 93 91 88 89 82 84 89 96 96 97 91 92 94 91 78 70 71 66 61 59 59 59 59 58 55 51 60 83 85 83 74 65 57 54 33 47 78 81 88 87 89 93 96 98 93 86 87 89 83 86 86 85 89 91 90 88 74 72 75 81 71 63 57 55 53 56 58 56 55 53 55 51 48 49 62 86 89 83 74 64 58 54 33 47 76 79 84 86 90 91 94 96 93 84 86 83 81 84 83 85 86 84 74 65 67 71 71 69 62 57 56 52 50 44 42 43 45 45 43 41 40 47 65 88 92 84 74 63 56 52 32 47 76 79 82 85 87 91 93 97 94 84 86 79 70 73 76 76 76 63 59 60 61 63 64 61 54 48 45 45 44 42 39 31 27 31 38 45 54 57 75 91 92 84 73 61 55 53 32 53 77 79 82 85 88 92 95 97 98 90 80 68 57 52 56 53 49 55 61 64 67 68 65 60 59 62 64 66 62 57 49 44 48 58 62 64 68 62 77 93 88 79 69 59 53 51 32 55 81 79 77 85 86 86 94 99 100 89 76 65 56 60 69 69 64 69 71 72 77 77 75 72 75 74 74 72 63 53 48 51 55 58 62 69 68 62 79 91 86 75 64 55 52 50 32 85 82 80 81 82 82 85 93 93 93 88 74 71 79 85 89 89 79 74 71 72 82 85 83 79 77 75 71 65 58 55 57 56 54 57 63 68 65 63 74 83 78 71 60 54 51 49 31 145 105 81 81 81 82 82 88 91 88 81 73 77 86 92 93 92 86 82 79 75 75 79 79 77 75 73 71 69 67 62 56 52 55 56 61 65 60 63 73 78 74 65 57 53 49 50 32 157 177 84 78 80 80 83 87 88 85 78 73 76 90 94 92 91 90 88 86 85 88 89 86 84 81 76 74 68 59 50 48 49 53 59 61 60 60 60 69 72 70 61 53 51 49 49 31 158 244 111 82 81 81 84 83 84 83 78 77 82 87 91 92 89 89 88 82 77 74 72 66 61 60 53 48 45 43 43 45 51 55 60 59 60 63 64 68 67 67 61 54 50 49 48 31 158 255 197 86 81 79 82 82 77 82 77 78 82 86 88 94 92 88 83 78 72 65 59 50 51 52 48 45 46 47 51 54 60 61 60 58 59 59 59 61 69 65 60 54 49 48 48 29 158 255 247 106 81 79 79 79 77 78 77 80 82 86 87 93 92 89 85 80 77 68 66 65 63 62 57 56 59 61 60 63 65 62 59 60 58 57 56 57 59 61 58 54 50 44 46 29 158 255 250 113 80 77 78 78 76 77 80 80 82 86 89 89 89 89 87 86 81 78 77 75 73 67 64 64 70 73 71 71 65 61 60 57 59 57 56 56 53 55 55 53 48 45 46 29 158 255 252 120 81 75 77 77 78 81 80 81 81 86 85 85 89 90 88 89 86 87 86 83 84 75 69 69 76 77 74 72 65 61 62 59 54 55 52 49 50 52 53 50 46 46 48 33 158 255 253 124 86 74 74 75 78 80 81 83 86 85 82 85 85 87 93 90 91 93 93 93 85 82 75 76 75 71 73 69 63 60 59 58 57 50 48 44 46 48 48 48 46 46 49 34 158 255 253 132 88 81 72 74 77 78 77 75 78 80 81 85 86 87 90 93 94 93 90 92 81 75 80 77 75 73 69 64 60 60 59 54 52 48 47 41 43 46 46 46 46 48 52 34 158 255 254 133 89 83 76 72 74 79 75 77 78 79 78 80 84 84 87 93 92 89 89 89 82 78 82 77 65 65 64 58 59 58 58 53 50 47 43 41 43 45 45 48 47 48 54 34 158 255 234 114 89 85 83 73 71 74 73 74 76 75 76 80 80 82 83 86 91 83 83 81 78 78 74 67 65 67 62 60 60 56 55 54 48 45 43 42 44 46 46 47 45 51 55 35 156 206 113 90 88 88 85 83 73 70 70 74 73 74 75 76 77 84 82 82 81 81 78 77 72 69 66 61 61 62 57 56 54 53 50 50 46 43 43 44 45 46 48 44 46 51 55 34 97 98 70 87 86 90 88 85 77 75 62 64 67 70 74 74 76 74 75 77 75 73 73 70 65 65 59 56 60 58 57 55 52 50 49 47 44 43 43 44 48 49 45 44 47 54 56 35 38 48 48 53 55 55 55 53 52 50 47 40 42 40 43 43 44 46 46 44 42 43 43 40 36 34 33 33 34 35 34 31 30 31 29 28 27 27 27 29 30 29 27 28 30 34 35 21 