P2
48
60
255
37 64 65 65 65 65 66 64 63 65 66 66 67 68 67 69 68 68 68 68 69 69 68 68 67 69 68 70 70 70 69 68 68 69 68 69 68 66 66 65 64 63 63 63 62 60 56 30 59 101 106 106 105 106 106 104 103 105 105 106 108 111 110 112 112 110 111 111 113 112 110 109 104 109 111 111 112 112 112 109 112 112 111 112 110 108 107 105 104 103 102 103 100 97 92 51 58 103 106 106 105 106 105 103 106 106 107 109 109 111 114 113 113 113 112 113 112 112 111 110 104 107 111 110 111 111 111 110 110 112 111 111 110 109 108 105 104 103 103 104 100 97 93 52 60 104 107 106 106 104 106 106 106 107 108 111 112 113 113 113 112 111 111 111 113 113 112 111 111 108 111 110 111 112 113 111 112 113 112 112 112 110 107 106 105 104 104 104 101 97 91 52 62 105 108 105 106 105 104 109 107 109 109 108 111 113 112 112 112 111 110 109 111 110 109 110 109 109 111 112 111 111 110 112 112 112 109 111 111 108 109 106 105 104 104 104 101 95 91 52 65 109 107 105 105 106 109 111 109 108 108 109 112 112 109 108 109 107 106 108 110 108 107 106 104 106 108 110 112 111 109 109 110 111 110 110 111 112 110 108 105 105 105 103 100 95 90 51 70 114 108 108 110 108 108 109 105 104 105 107 106 103 101 100 101 102 101 101 103 103 102 102 104 103 103 105 108 109 106 106 108 110 109 108 110 110 107 107 107 107 107 104 100 93 89 52 72 114 110 112 114 111 106 99 90 93 92 92 90 90 89 91 93 94 94 95 95 93 95 96 98 99 99 100 105 101 100 98 100 103 103 105 104 105 105 106 107 105 107 105 101 94 90 53 74 117 116 118 113 102 91 81 74 72 67 68 67 68 72 74 78 85 87 88 89 90 91 93 94 95 95 98 97 95 94 92 94 96 97 97 98 96 96 96 98 92 94 98 102 96 89 55 74 123 122 113 96 86 79 71 66 60 56 52 51 51 51 54 56 65 72 77 82 85 88 89 89 92 93 92 94 91 88 86 84 82 83 78 76 72 66 69 72 74 73 74 89 96 90 56 76 131 123 101 84 79 78 75 69 64 61 57 52 50 48 48 47 48 54 61 72 79 83 84 85 89 89 88 88 86 79 76 71 65 58 52 48 46 44 50 56 64 71 72 74 79 89 57 79 127 113 99 87 83 79 74 67 61 53 49 45 44 46 51 55 55 55 55 64 72 76 83 86 86 86 84 81 75 72 65 57 51 47 47 46 48 52 59 65 70 76 79 80 76 78 56 80 126 112 96 85 76 68 56 55 58 58 54 50 46 40 35 45 56 58 60 63 68 76 84 85 85 82 83 77 70 63 59 53 51 45 40 40 42 46 51 60 68 74 80 83 83 76 57 73 118 101 86 76 63 52 63 55 45 40 36 43 44 46 47 40 53 58 60 66 72 80 87 90 88 86 84 77 67 60 54 44 36 36 35 36 37 45 49 50 49 62 71 78 84 88 59 68 102 91 80 68 62 61 53 76 51 45 28 46 54 71 50 52 50 60 61 69 78 85 93 98 100 97 90 81 68 60 51 43 45 37 40 43 48 60 57 49 54 50 63 72 84 92 60 64 97 89 80 73 65 68 75 87 60 47 32 44 64 88 62 52 66 68 70 73 81 90 98 104 105 103 94 82 70 68 59 47 53 41 31 26 46 64 80 57 52 54 61 73 85 94 61 62 95 88 79 74 79 87 93 92 77 55 51 57 88 90 74 67 72 88 88 79 82 94 102 111 114 109 98 83 81 82 66 53 66 51 44 42 48 77 84 76 70 65 73 79 87 95 61 64 101 95 96 98 99 97 92 90 86 80 78 79 82 84 83 88 93 95 93 83 87 96 106 112 112 112 98 86 90 92 81 76 78 79 73 71 75 88 88 87 85 78 76 85 91 97 61 66 106 106 107 104 101 100 99 94 89 87 83 79 75 76 80 86 92 93 93 87 89 100 108 113 114 110 99 87 88 92 93 85 78 76 79 81 86 89 93 95 95 96 94 93 99 101 62 68 109 108 104 103 103 101 97 91 87 82 80 78 78 79 80 80 83 92 91 92 92 100 106 110 112 109 97 90 89 87 82 82 78 76 77 83 89 93 95 97 101 102 104 103 106 103 63 68 109 109 107 107 107 104 101 99 99 98 92 90 86 79 78 80 91 95 95 94 94 101 105 107 108 107 99 90 90 93 82 77 79 84 88 88 87 89 93 100 103 104 108 108 107 105 64 67 110 112 111 110 109 106 104 103 100 97 91 88 87 83 89 96 98 95 98 95 95 100 104 107 106 106 97 91 91 95 96 87 80 79 84 88 93 97 101 102 104 108 111 109 108 105 64 68 111 113 111 111 111 108 105 105 102 99 93 91 95 99 103 101 96 94 95 95 96 98 101 107 107 103 96 91 91 93 96 102 97 90 88 90 94 98 103 106 108 111 113 112 111 106 63 69 113 113 111 111 110 106 106 107 104 104 99 104 105 105 102 101 93 92 93 93 95 100 104 108 112 108 97 93 91 91 95 100 104 106 102 101 99 104 107 111 112 113 113 111 111 106 63 68 111 113 112 111 109 109 109 108 105 106 104 104 106 105 101 100 94 93 93 93 96 100 104 109 110 105 97 95 91 90 88 97 100 106 108 108 107 104 109 111 113 113 114 112 110 105 63 67 108 108 109 110 111 111 108 106 104 104 103 103 101 101 100 96 92 91 93 94 97 100 103 106 108 104 99 94 89 91 93 96 99 103 107 109 111 111 111 114 114 112 112 111 108 105 63 66 106 103 103 108 109 108 106 106 104 104 104 105 102 99 100 94 91 91 93 93 98 102 104 104 108 105 99 94 91 90 93 96 99 102 105 112 111 111 112 114 115 112 110 110 106 103 62 64 102 102 102 102 105 105 108 107 104 107 106 103 102 100 97 92 86 86 90 93 100 104 105 103 107 108 101 95 90 87 87 92 98 102 103 105 107 108 111 112 113 111 109 105 103 101 61 64 102 100 100 100 102 102 103 106 103 105 105 102 100 98 95 86 79 86 90 96 101 105 104 104 105 108 102 96 89 84 81 90 97 100 102 104 106 110 110 110 108 106 103 102 101 98 59 65 102 99 98 97 99 101 103 106 105 104 102 100 99 96 87 74 78 90 91 98 101 105 108 109 110 113 101 96 91 87 73 81 94 98 101 105 104 104 103 107 108 106 101 99 98 96 59 65 101 99 97 96 95 100 102 101 102 101 101 98 94 90 79 69 85 92 95 99 102 105 111 106 107 110 98 93 87 90 69 70 84 93 97 100 102 103 103 103 102 102 100 98 94 94 60 67 101 97 95 95 94 98 101 101 102 99 98 95 90 85 68 67 92 94 93 90 98 97 96 92 93 95 91 82 82 90 73 64 71 85 92 99 101 103 101 102 102 102 100 97 94 93 61 69 104 98 97 94 95 96 97 97 96 96 95 89 78 66 60 66 92 91 78 77 88 86 80 76 79 81 77 71 76 85 77 70 62 75 89 94 96 98 99 100 98 99 96 93 91 94 61 70 106 100 97 94 95 95 94 94 93 92 88 83 71 64 66 69 79 71 46 35 58 75 64 61 65 67 53 44 65 76 80 75 65 66 81 87 92 96 97 96 95 95 93 91 91 96 59 74 110 100 96 94 94 94 91 91 92 89 85 77 68 69 72 73 73 61 50 50 58 65 65 59 63 55 45 46 62 81 82 79 72 61 73 84 90 92 94 94 92 90 90 90 91 111 89 76 114 105 95 93 91 89 89 90 90 88 83 73 73 75 76 76 77 71 62 61 67 65 61 59 62 64 56 59 79 86 88 84 78 65 66 81 85 88 90 91 87 89 88 89 93 154 112 77 116 106 98 93 90 88 89 87 88 86 78 74 78 78 79 80 79 79 78 78 76 69 62 62 73 81 84 86 88 88 88 86 84 75 61 69 81 86 85 86 86 87 86 89 103 158 114 77 118 108 99 95 89 85 87 86 84 81 74 81 84 83 81 80 81 80 81 80 79 77 80 81 86 88 91 90 89 89 87 87 86 83 66 72 80 82 82 81 82 87 86 90 116 180 113 76 120 109 100 96 89 85 85 85 83 77 79 88 89 88 85 84 84 83 82 85 89 90 91 89 92 95 94 93 91 91 90 90 88 86 77 73 80 82 79 79 77 80 86 92 131 186 116 76 116 110 103 93 89 88 87 87 83 78 88 91 92 91 91 90 90 92 93 94 98 97 98 98 101 100 100 97 95 95 94 93 91 86 84 75 81 82 80 79 79 82 87 94 155 192 117 75 115 112 105 97 91 89 88 87 81 82 92 94 95 96 96 94 95 97 97 95 98 96 97 98 98 98 98 96 96 95 95 94 91 89 86 78 84 84 82 82 82 85 88 99 178 189 115 73 114 113 108 101 93 90 91 88 79 88 94 94 94 94 90 91 89 83 81 77 73 71 77 82 77 75 76 79 83 86 89 90 88 87 87 80 85 88 84 83 85 88 91 108 186 188 114 73 110 110 110 102 96 91 90 88 81 90 88 84 86 84 70 68 64 65 68 65 62 60 60 59 60 62 66 66 63 63 69 77 76 79 88 84 87 88 85 84 86 89 92 126 190 188 114 72 112 107 107 102 99 94 92 89 87 88 76 64 54 51 53 51 54 56 52 50 48 48 49 50 49 49 51 53 52 53 45 44 54 71 86 88 91 88 85 86 88 92 95 154 187 188 114 72 109 107 102 105 103 96 95 92 92 87 79 68 65 67 70 70 75 79 76 72 67 67 68 69 69 70 73 73 73 73 73 80 75 78 88 92 93 88 87 88 90 93 102 170 185 186 120 73 111 108 101 103 105 100 95 93 93 89 86 90 94 91 88 83 82 81 85 87 87 87 87 90 88 87 80 78 79 87 87 89 89 87 93 96 92 89 88 90 91 92 125 180 180 187 116 77 114 106 101 101 106 103 98 93 91 87 90 95 95 92 94 92 89 87 84 83 85 86 88 89 84 80 77 85 86 86 88 90 92 94 96 95 89 87 90 91 91 93 164 183 180 187 118 79 114 107 99 100 102 105 102 92 90 86 89 92 93 94 93 91 89 88 85 82 80 81 82 78 78 79 80 83 86 87 89 91 94 94 95 90 88 89 90 92 90 114 191 187 179 186 117 85 116 107 100 99 101 103 103 93 88 84 84 89 89 90 89 87 84 84 82 78 74 73 73 70 72 76 79 81 83 86 89 92 92 92 90 86 87 89 90 90 92 158 192 186 183 188 113 88 122 109 100 96 97 100 100 93 88 87 84 86 86 86 86 84 81 78 75 72 71 71 72 71 73 74 79 81 84 87 90 92 91 90 85 85 88 89 89 88 121 186 187 182 188 182 116 96 136 114 104 95 95 98 97 92 87 86 85 83 83 84 84 83 82 80 77 75 74 77 77 78 79 82 85 87 88 90 92 94 92 88 86 86 88 89 87 99 174 190 185 184 193 175 113 107 146 126 108 98 98 99 96 95 92 90 88 86 83 78 83 83 83 87 90 92 95 96 97 97 97 93 91 91 92 93 94 92 93 89 87 87 88 87 91 156 193 191 185 184 184 181 107 121 170 136 119 104 101 99 98 97 97 92 89 88 86 85 82 84 88 92 97 98 98 100 101 99 96 96 95 94 95 95 93 93 92 88 87 88 86 87 146 185 186 181 187 192 189 186 106 110 190 160 134 116 110 101 99 104 99 95 91 91 88 88 87 90 93 94 95 100 100 99 100 101 98 96 96 96 98 95 93 91 89 87 87 86 85 103 176 177 184 188 187 187 188 186 117 100 170 184 160 134 120 106 104 108 106 100 93 89 88 89 89 87 93 95 96 100 99 99 100 101 96 96 96 94 94 93 90 88 87 87 82 83 94 107 176 186 194 195 192 192 186 192 118 100 157 168 183 160 137 118 112 111 115 106 93 90 90 91 92 90 92 93 91 95 95 96 95 95 93 94 94 92 93 88 87 86 85 84 81 92 100 107 175 192 191 190 194 193 192 193 118 101 153 151 160 170 161 136 125 120 121 113 97 91 87 89 90 90 90 89 90 92 91 92 93 91 91 91 91 91 88 86 86 84 83 82 90 98 100 105 159 181 190 194 194 191 190 193 117 102 146 144 148 148 156 157 142 134 125 123 104 92 87 88 88 89 88 87 87 86 84 86 87 89 90 89 88 86 84 84 83 82 82 87 95 98 99 104 162 184 188 190 193 191 191 190 118 102 144 134 135 138 140 145 151 145 135 129 116 99 89 88 86 85 84 81 81 80 79 82 82 83 84 85 84 82 81 80 81 79 85 94 97 98 98 100 146 184 194 196 194 193 191 191 119 61 86 82 82 80 80 83 85 85 86 80 78 66 58 55 53 51 49 48 49 47 46 47 48 49 48 49 51 50 49 49 48 51 56 59 60 60 60 62 71 115 118 122 120 119 120 120 74 