P2
48
60
255
21 34 36 36 37 38 39 39 39 39 39 40 42 44 44 43 42 43 43 44 44 45 45 45 45 46 45 45 46 47 46 43 41 40 39 38 39 40 39 38 37 36 38 38 38 38 36 23 34 55 57 58 60 60 62 63 64 64 64 65 67 68 71 74 74 75 75 75 75 73 75 77 75 77 76 76 77 76 77 77 74 71 69 68 65 64 63 62 62 63 62 62 62 59 59 37 34 55 55 56 59 59 62 63 64 65 66 66 69 69 71 74 75 76 75 75 77 77 76 77 77 78 75 79 78 77 79 82 79 76 75 73 72 70 68 64 65 66 64 62 59 60 59 36 33 56 54 55 56 57 62 64 66 66 67 69 71 73 73 75 78 78 76 76 76 76 78 76 77 77 77 77 76 76 81 81 81 80 78 81 80 77 74 70 70 65 64 60 59 59 57 34 34 55 54 55 56 58 60 63 65 66 69 70 73 75 78 79 80 78 77 75 74 73 75 77 78 79 75 75 77 78 80 83 85 84 80 82 82 79 74 73 72 66 63 61 60 59 57 34 33 52 54 54 56 57 60 62 64 67 70 72 75 78 79 77 76 76 75 76 75 75 78 77 78 79 76 73 79 80 81 81 83 80 83 83 81 80 78 75 70 69 66 60 58 58 56 33 31 51 53 54 57 57 61 64 67 68 72 74 78 79 79 79 77 76 77 75 72 73 76 76 79 79 73 75 77 78 79 81 81 81 83 85 81 79 79 75 71 69 67 63 59 57 57 33 31 52 52 54 55 60 64 65 68 69 71 70 75 75 75 74 75 75 76 74 71 72 77 76 78 78 70 74 76 73 76 79 78 76 78 77 75 75 73 75 75 72 70 65 61 57 55 33 32 52 54 56 59 62 65 64 66 64 64 64 67 67 68 66 66 71 70 68 67 66 72 75 76 74 67 69 65 62 62 63 62 62 64 66 66 67 65 66 67 67 69 69 66 62 55 33 32 54 57 59 60 58 58 55 53 49 49 47 46 48 45 47 48 53 55 59 59 61 67 72 71 67 60 58 56 54 52 49 45 42 45 47 46 46 49 53 55 58 59 62 65 65 59 34 33 55 55 56 52 49 52 48 41 37 36 34 31 32 36 39 40 43 42 50 53 55 61 67 63 59 53 54 52 50 45 45 39 37 35 34 33 33 37 41 44 49 51 53 58 62 61 35 32 51 48 48 46 42 44 42 39 36 31 30 30 30 32 36 39 42 41 45 48 52 57 62 57 53 51 51 50 48 44 43 41 35 31 30 30 32 34 36 39 40 42 46 48 52 56 35 29 43 42 42 44 43 44 43 43 43 37 34 33 32 33 36 39 40 41 42 45 49 50 53 52 51 48 49 47 44 41 39 37 34 32 33 36 38 41 42 44 43 42 38 37 41 47 32 28 40 38 42 44 46 46 46 45 46 45 43 40 37 33 32 33 36 37 39 43 47 49 50 50 46 44 43 41 38 35 32 31 32 36 40 44 46 45 46 46 45 43 42 39 35 39 29 25 41 41 43 43 44 43 44 44 43 41 38 37 37 37 35 33 33 36 37 42 46 50 50 49 46 42 39 35 33 30 31 33 34 34 36 39 40 42 40 41 41 41 40 38 37 37 25 26 41 42 44 43 39 35 33 31 29 29 29 31 33 33 32 33 33 38 45 49 52 56 59 57 54 47 42 37 32 30 31 33 37 38 33 29 29 30 31 34 34 34 37 38 37 37 24 26 41 40 41 32 30 29 28 25 26 41 24 28 33 31 36 35 34 36 48 54 56 63 71 66 59 50 44 41 33 35 40 39 32 37 36 28 44 26 25 29 30 32 31 37 36 36 22 28 44 40 33 29 26 30 41 28 23 23 24 31 47 36 35 40 47 42 48 55 57 64 73 69 60 51 46 44 36 47 38 39 44 51 43 26 25 26 27 37 31 27 28 34 39 37 23 28 45 43 37 35 39 44 48 38 28 29 30 41 48 47 48 45 49 45 52 56 61 71 78 76 66 55 47 47 42 49 51 52 52 54 50 41 33 31 37 44 41 33 29 33 34 36 24 33 51 46 45 45 45 48 50 49 49 50 50 49 46 45 46 50 49 49 55 60 69 77 78 79 71 61 52 50 47 46 51 50 48 49 49 51 49 46 46 46 42 38 35 35 37 42 29 34 54 51 54 54 48 47 46 46 46 44 43 42 41 44 51 53 54 58 61 67 74 80 84 85 74 64 58 53 52 51 50 52 49 46 47 47 44 43 42 41 42 41 43 44 43 46 31 36 56 54 56 56 54 51 48 45 44 43 43 46 51 54 56 59 60 64 68 72 76 82 86 89 79 66 60 57 55 57 56 52 56 54 51 49 47 47 46 46 48 49 50 51 53 56 35 35 56 57 58 58 58 57 55 55 56 58 58 58 60 60 63 64 66 71 73 74 78 83 90 94 86 69 62 58 56 59 59 59 58 59 59 58 57 54 53 53 54 57 61 62 60 61 39 37 60 58 60 65 65 65 65 64 64 64 65 64 64 65 65 66 70 74 74 76 79 85 91 99 97 81 67 63 60 60 61 62 63 62 61 63 62 62 62 62 65 68 70 68 67 66 39 37 59 62 65 68 66 67 68 67 65 66 67 68 66 66 66 69 73 71 73 76 81 86 92 100 102 87 73 66 62 63 63 63 67 66 66 64 64 63 65 68 71 72 71 68 64 64 40 35 59 61 64 65 64 68 67 66 67 69 68 68 69 68 70 67 68 68 76 80 85 86 91 98 101 90 78 67 58 59 63 65 70 70 70 70 68 67 67 69 70 67 65 62 58 58 37 33 54 55 59 62 61 65 67 67 69 70 68 70 71 62 60 63 67 76 83 82 85 88 89 92 94 91 84 75 65 57 53 60 69 72 72 72 71 69 69 69 69 62 59 54 53 52 33 32 53 53 55 60 62 66 69 69 71 71 70 71 63 55 60 70 76 82 81 82 92 95 95 88 86 84 82 85 84 71 56 51 61 68 71 72 72 72 70 70 67 62 53 51 50 49 31 31 51 53 56 61 64 68 69 71 70 71 67 60 53 60 73 77 76 73 73 79 90 98 99 88 79 74 74 76 77 77 71 52 53 60 65 68 71 71 70 67 64 60 53 50 50 48 30 31 53 53 57 62 66 68 69 70 68 64 58 52 54 66 67 65 62 61 61 65 69 73 77 73 66 62 63 64 64 66 66 59 48 51 57 64 67 69 68 65 60 56 55 52 51 48 30 31 54 55 59 64 66 65 66 67 62 56 49 51 57 59 54 47 42 42 48 56 59 62 64 60 55 50 47 45 44 45 49 52 48 48 51 57 61 62 63 62 55 51 54 53 51 49 29 31 52 54 58 60 61 61 63 62 57 50 47 58 54 48 41 30 22 22 26 42 51 55 55 51 44 34 25 23 24 32 38 42 46 51 48 53 57 60 61 59 54 49 52 52 50 48 29 31 51 53 56 57 60 62 59 57 51 45 55 61 56 42 36 30 31 31 29 29 39 43 45 40 29 25 25 26 27 31 36 39 46 51 48 48 54 58 58 56 53 52 51 50 49 48 29 31 50 51 54 57 61 59 56 51 46 51 60 63 62 51 42 42 47 48 48 45 34 33 33 29 26 30 32 34 34 35 39 48 51 53 52 46 49 54 55 53 53 52 51 49 47 46 28 31 49 52 54 55 57 55 51 45 45 58 63 66 66 64 61 57 55 57 58 48 40 36 32 28 32 39 44 45 46 49 54 60 60 59 56 50 45 51 53 52 51 50 49 49 47 46 28 31 51 53 55 54 53 51 46 42 53 62 65 67 64 61 58 57 58 57 56 45 41 43 43 41 38 45 48 50 51 52 58 65 66 62 59 55 45 47 51 51 49 48 47 47 47 47 29 32 52 55 54 54 51 47 42 47 59 60 61 61 57 54 54 51 49 49 49 41 36 42 42 40 38 43 48 45 49 52 56 58 60 60 59 57 51 40 48 50 48 46 48 49 47 48 30 33 52 53 53 51 47 44 40 57 58 57 54 53 43 37 39 43 43 43 41 37 33 35 38 38 43 45 42 39 44 46 47 48 49 52 54 55 54 42 46 48 48 48 47 49 47 48 30 32 50 51 51 48 43 39 49 54 55 46 41 39 39 36 34 37 36 40 34 36 31 37 35 36 41 40 39 39 47 46 50 45 41 43 49 51 53 44 42 47 48 48 47 48 47 48 28 30 49 49 48 49 44 43 53 54 48 35 34 35 37 36 32 36 35 41 37 39 37 47 47 42 43 36 36 36 38 42 42 44 39 38 44 49 49 47 39 47 48 48 46 45 46 46 29 30 50 48 48 48 43 47 52 54 44 29 27 30 36 38 40 43 43 45 46 48 52 56 53 50 47 43 44 37 33 34 36 34 30 31 41 46 47 47 40 45 47 48 45 44 46 45 27 29 48 48 47 47 42 51 52 52 46 34 29 34 41 42 41 39 39 41 42 43 44 43 42 40 37 38 37 37 37 35 33 31 29 28 33 42 46 48 40 43 44 45 44 44 43 42 27 28 47 46 45 45 45 51 49 47 41 36 30 33 33 31 31 32 31 32 32 32 32 32 31 29 29 30 30 30 30 30 30 29 27 29 34 39 44 47 45 40 43 44 44 43 42 42 26 28 45 44 46 45 47 49 46 45 37 31 29 30 30 34 37 42 45 47 46 43 41 40 42 45 41 39 35 30 27 26 25 25 25 30 37 42 42 45 44 39 43 41 40 40 39 40 25 27 43 43 46 45 49 47 43 39 38 41 48 50 48 47 47 49 52 56 60 55 52 53 56 52 48 46 44 43 41 39 37 36 35 37 41 41 41 46 46 38 42 41 39 39 38 40 26 26 41 44 42 44 49 48 44 42 43 45 50 53 54 53 54 54 54 55 56 54 54 52 51 50 51 49 50 44 44 45 43 42 42 41 41 40 43 47 46 41 41 38 38 37 38 40 27 27 43 43 43 44 48 45 43 40 43 49 52 53 55 53 52 51 48 47 44 43 44 41 42 45 44 47 45 43 44 43 43 44 44 45 43 42 44 45 45 43 40 38 37 37 38 41 32 27 43 44 43 44 47 46 45 45 43 47 52 51 53 51 48 47 45 45 43 42 42 40 44 45 46 46 44 44 44 43 43 45 46 47 47 44 44 42 42 43 40 38 37 38 40 46 39 28 42 43 43 44 44 43 43 44 46 48 50 50 50 50 48 47 47 46 46 46 46 46 45 46 46 47 47 45 44 44 45 47 47 45 44 43 45 43 41 41 40 39 38 39 43 58 96 27 42 42 41 42 42 41 41 42 47 48 49 49 48 51 50 49 50 49 50 48 49 48 48 49 49 48 48 47 47 46 45 46 46 45 43 41 43 41 40 41 40 40 40 40 48 118 150 26 42 41 41 41 39 42 43 47 49 50 50 52 50 51 51 50 49 48 48 46 48 48 51 51 48 48 49 50 47 45 45 45 45 45 43 42 40 40 38 39 39 39 40 43 67 212 154 27 40 41 41 40 40 41 42 45 48 50 51 52 53 52 51 50 51 52 51 50 52 54 57 55 54 49 51 50 46 46 46 45 46 44 44 43 41 38 35 39 38 40 39 52 89 238 154 33 40 40 41 40 39 40 41 44 46 47 49 51 51 51 52 57 60 59 61 60 61 60 59 58 57 53 52 53 51 48 47 47 45 43 43 42 39 37 35 38 38 38 45 59 104 245 154 37 47 40 40 37 38 40 41 42 43 45 49 50 52 54 56 57 59 59 59 60 60 61 58 59 56 56 55 55 52 49 47 47 45 42 41 37 36 35 36 39 37 40 54 52 139 248 154 35 53 43 38 38 39 40 40 42 42 46 48 49 52 51 51 53 55 58 57 58 55 57 55 54 52 53 51 51 48 46 45 43 42 40 37 36 35 34 37 40 39 52 44 54 178 249 154 34 49 47 38 38 37 38 40 41 42 45 46 49 50 49 48 50 51 53 54 55 54 52 49 49 49 48 47 47 45 43 41 41 38 37 36 35 34 34 39 39 46 43 41 61 211 249 154 34 50 45 42 36 36 37 38 39 40 41 44 45 47 49 47 48 49 48 49 50 51 49 46 47 47 45 45 42 40 40 40 39 38 36 34 34 35 35 39 46 44 37 42 75 232 249 154 34 51 46 42 37 33 36 35 36 39 40 42 43 44 46 46 45 46 44 46 46 46 46 44 44 42 41 40 38 38 38 38 37 34 34 33 36 34 34 43 45 37 37 43 95 243 249 154 34 50 46 42 39 34 31 34 34 36 37 39 38 39 40 42 43 42 39 40 42 42 41 42 41 38 38 35 34 35 36 36 34 35 35 34 31 32 39 46 38 36 38 45 127 248 249 154 22 32 29 27 24 22 20 17 20 20 21 22 23 23 23 24 24 25 23 23 24 25 25 24 22 20 20 19 19 21 21 20 21 21 20 19 19 21 27 24 23 22 23 28 94 154 154 95 