P2
48
60
255
25 43 53 66 71 71 72 72 73 72 74 77 80 84 87 88 92 90 88 88 87 85 85 85 86 86 85 83 78 75 70 66 58 57 53 45 45 45 56 55 49 54 53 51 54 49 50 34 38 71 91 112 116 115 116 117 116 117 122 125 129 133 139 142 145 144 144 139 140 137 138 137 137 137 138 135 125 122 116 109 99 94 89 85 74 73 75 93 80 85 84 77 77 84 84 51 38 76 97 113 116 114 114 117 117 119 121 124 130 134 136 139 141 143 144 140 140 138 140 137 136 136 137 136 127 122 115 111 108 95 93 84 85 80 73 77 85 76 82 84 76 74 78 52 39 82 100 113 115 113 111 117 119 119 122 125 129 133 138 140 141 143 143 138 139 138 137 135 137 137 138 136 129 121 117 114 106 102 93 90 83 85 82 71 73 79 72 76 86 70 68 41 43 84 105 115 115 110 110 114 120 120 120 127 128 131 137 137 143 143 144 143 138 138 137 138 138 139 139 134 129 127 118 114 110 105 96 92 88 81 82 74 67 71 76 67 79 78 65 35 46 91 105 112 112 113 116 119 122 126 126 130 132 134 138 139 141 142 145 144 138 136 138 138 141 140 137 136 130 130 123 118 112 105 100 95 91 85 79 70 69 67 72 80 75 78 70 38 52 94 103 109 113 116 123 126 127 130 132 133 137 138 140 139 138 142 142 142 137 137 136 137 137 138 135 134 131 127 126 121 118 112 106 98 95 92 84 77 69 71 67 71 85 83 71 45 57 98 103 110 116 121 130 133 134 134 139 137 134 136 133 132 132 132 133 134 132 136 134 134 135 136 133 129 125 123 121 117 114 110 109 106 97 89 85 79 72 67 68 65 75 81 77 49 60 98 106 114 117 126 133 131 131 134 135 130 130 129 130 127 125 126 124 126 128 132 134 131 133 132 128 121 118 114 110 111 109 104 94 86 81 75 69 66 63 59 60 61 70 76 62 47 61 99 106 115 116 116 119 112 109 104 99 99 98 98 101 109 114 117 120 123 125 129 130 129 130 126 123 116 112 106 104 97 83 68 59 60 63 67 69 68 67 67 61 61 70 76 65 44 61 100 103 96 94 97 102 102 95 90 83 78 70 73 74 77 92 102 111 116 119 124 128 131 128 123 119 111 103 96 84 71 62 58 60 63 70 80 87 90 88 87 80 71 71 79 71 46 62 95 89 100 108 115 117 111 105 104 98 94 91 86 83 81 86 91 99 105 112 120 126 128 128 123 116 103 92 82 74 72 68 66 59 56 61 70 76 80 85 87 86 79 76 78 76 49 61 91 102 113 114 116 114 109 99 98 92 87 86 88 92 95 92 90 93 102 109 119 127 131 128 123 113 98 86 79 76 76 71 61 69 78 82 79 76 73 66 64 72 72 72 75 84 55 65 106 106 108 107 97 78 65 54 57 53 54 64 66 67 82 95 95 94 101 110 118 130 133 128 119 105 92 83 78 78 76 70 86 77 46 31 30 30 40 46 56 53 63 72 70 84 58 68 106 98 93 82 59 58 49 38 31 41 30 49 63 77 81 85 97 97 99 108 119 132 133 130 118 101 89 81 80 76 74 86 78 72 83 37 71 41 45 47 36 44 51 74 65 81 64 68 109 101 86 60 50 43 76 54 43 53 34 58 102 95 78 91 89 99 101 106 115 133 139 130 117 97 85 78 76 76 83 68 103 102 47 27 28 41 66 65 50 43 53 71 62 78 67 69 110 101 85 61 50 56 85 84 50 43 45 67 118 110 86 89 103 102 100 108 116 137 141 135 115 93 86 80 82 86 77 81 118 128 83 50 52 63 81 64 51 54 66 71 68 75 62 72 113 110 102 91 79 83 88 87 85 93 92 93 99 105 106 107 108 117 106 108 116 139 138 133 112 93 87 85 92 88 89 91 94 92 87 79 76 77 82 77 61 68 79 81 71 72 50 71 117 121 117 105 104 107 108 108 110 111 112 112 110 113 113 109 111 110 107 109 112 136 134 130 106 91 89 86 95 95 97 105 108 107 103 103 102 101 95 84 73 81 85 86 76 69 44 72 120 122 125 125 113 108 109 111 110 104 101 103 110 113 116 111 107 109 111 109 112 132 132 126 100 92 94 90 92 96 106 110 109 108 106 104 103 99 97 92 90 99 102 95 83 74 41 72 117 122 127 131 131 128 121 122 118 121 126 127 130 129 121 119 118 110 115 107 110 128 132 122 98 92 94 95 94 96 110 119 118 118 116 116 116 113 113 112 112 110 106 98 86 81 43 71 114 118 121 128 135 134 132 131 126 127 128 129 127 127 128 130 118 110 111 106 109 125 129 118 98 92 97 98 94 100 106 113 123 126 127 127 125 127 125 125 124 117 108 99 90 85 49 68 114 118 119 127 135 136 135 129 129 128 126 125 126 130 130 122 116 113 109 105 110 128 131 115 98 94 102 99 95 98 108 113 115 119 122 127 127 128 128 128 127 120 109 99 92 90 53 68 112 115 120 127 135 138 136 133 134 134 132 133 135 136 132 120 117 110 109 107 112 126 129 112 98 93 101 98 94 98 107 122 124 121 119 120 123 128 124 127 129 120 110 100 97 90 54 69 111 115 120 127 137 145 143 137 138 136 136 135 139 140 137 121 115 112 111 108 116 128 127 110 101 92 96 98 94 98 107 125 133 130 126 125 125 129 133 136 131 119 111 100 94 90 53 68 108 113 120 130 142 150 151 144 139 135 134 133 136 137 130 118 111 108 108 109 122 129 126 111 100 92 92 97 96 95 104 124 133 131 134 131 130 130 130 133 129 119 112 101 92 87 52 66 109 112 118 129 138 150 153 147 138 132 132 128 128 131 125 115 106 108 109 113 123 129 126 113 101 92 91 95 95 95 105 122 130 130 131 134 137 137 134 134 127 119 110 100 93 87 50 66 108 112 116 124 137 142 145 138 131 129 126 121 122 120 112 103 101 103 106 113 120 125 121 109 95 86 88 91 89 92 104 120 129 127 128 132 131 136 137 131 125 116 107 99 90 85 49 66 106 109 112 119 127 131 130 126 124 120 117 112 106 99 96 96 100 101 104 112 118 124 121 107 96 82 82 88 88 86 93 109 118 122 124 124 126 131 128 124 119 109 101 95 87 83 48 63 103 107 110 114 116 117 118 118 114 111 108 98 88 91 96 101 102 100 105 112 118 122 121 110 96 84 84 91 94 85 85 96 101 106 111 117 119 121 121 118 110 105 98 91 85 80 47 59 99 103 104 108 110 109 108 109 105 99 87 77 92 103 104 109 104 103 104 116 125 128 127 131 99 86 86 91 96 90 83 89 92 95 102 108 111 114 117 113 107 99 94 88 81 79 44 58 93 97 101 102 101 101 102 100 93 77 76 94 107 110 106 107 105 101 107 137 138 128 121 116 87 80 83 92 94 89 84 86 88 85 87 94 102 105 104 104 98 94 88 81 80 76 37 58 87 93 94 94 94 92 90 82 71 79 99 104 107 110 106 95 92 91 97 113 116 103 99 86 72 65 66 70 75 78 83 81 83 85 83 81 89 92 95 94 89 85 78 76 76 76 31 59 88 91 90 87 84 81 71 67 85 95 100 103 105 105 107 106 88 85 89 92 94 80 84 75 61 54 55 54 71 81 82 82 82 83 84 79 75 79 79 79 77 80 73 74 76 75 29 60 91 91 89 85 82 69 71 86 91 99 104 105 105 104 106 107 103 92 88 85 75 66 68 67 68 72 76 79 82 85 90 88 88 87 85 81 77 68 70 73 67 68 74 75 78 70 25 62 95 94 91 91 86 74 80 67 84 97 100 102 104 106 105 104 106 103 102 94 86 79 74 75 80 85 85 86 90 92 93 92 91 90 86 79 69 67 61 78 81 71 76 79 79 64 22 63 99 98 93 95 96 81 75 55 69 79 91 99 101 105 108 110 111 112 115 113 113 112 107 100 96 98 96 98 96 96 97 93 89 84 78 67 56 61 70 90 87 81 79 78 78 52 24 62 101 101 98 100 104 92 79 77 72 43 35 53 76 88 97 105 111 116 124 124 121 119 117 116 114 111 104 104 99 93 89 82 71 55 44 47 57 71 86 99 86 79 76 78 76 46 36 62 103 103 102 102 106 101 85 96 104 83 55 36 60 74 69 78 79 88 96 102 107 105 104 102 94 86 79 71 65 60 56 49 35 42 62 77 78 82 99 95 81 76 78 80 65 53 42 59 102 104 104 103 107 107 94 103 107 105 87 65 72 99 87 80 73 94 94 80 73 73 73 69 68 65 69 77 61 63 71 66 57 69 87 87 89 95 103 89 79 79 80 79 50 59 37 52 100 105 104 103 106 109 103 102 111 112 105 91 80 84 66 111 104 120 121 117 102 90 79 92 105 109 109 101 86 92 74 64 72 88 90 91 94 105 98 84 81 80 82 69 44 58 33 46 95 104 105 104 107 112 109 104 107 114 113 107 102 94 86 90 80 109 113 121 133 130 113 130 133 118 118 107 78 78 68 78 89 89 96 93 101 103 91 86 82 83 79 51 48 53 26 35 93 100 104 105 105 112 113 109 105 114 117 117 112 107 102 99 99 102 99 103 106 104 90 103 104 87 82 83 77 73 81 90 92 94 92 97 110 102 87 84 83 82 69 45 50 46 21 28 94 96 101 103 103 110 118 115 109 107 112 116 118 119 114 109 104 118 119 109 104 105 103 103 102 94 84 80 82 86 91 91 89 92 91 102 112 93 84 84 83 78 50 48 50 34 22 25 95 99 96 102 101 107 120 119 111 104 110 116 119 121 122 120 116 109 101 96 93 93 90 89 89 90 91 92 92 92 91 92 92 88 97 110 105 86 83 83 80 60 48 49 47 45 24 22 96 106 95 97 100 102 116 120 113 106 110 113 116 121 124 122 118 114 107 102 99 98 96 96 95 96 97 99 97 95 92 94 89 91 103 107 90 81 82 81 69 51 50 43 45 41 21 21 94 108 104 91 97 97 107 119 115 107 110 114 115 118 122 123 121 119 114 108 107 106 108 107 108 107 105 102 99 98 98 92 91 95 102 95 81 80 82 73 52 52 59 59 45 39 23 24 94 110 109 97 91 96 99 113 116 108 111 115 115 117 121 125 123 120 120 118 115 113 115 115 114 114 111 110 105 101 97 94 93 96 93 81 78 80 75 57 54 59 64 51 45 39 25 24 93 110 112 106 94 89 92 103 112 108 108 118 121 120 123 122 122 121 122 119 117 118 119 117 116 115 112 108 102 100 98 92 89 91 81 76 79 74 63 46 44 57 51 48 48 44 29 26 95 113 112 108 102 91 87 92 106 108 109 114 121 121 117 120 121 121 118 116 113 111 115 116 113 111 107 106 102 98 96 87 86 80 75 76 74 73 67 34 37 53 54 53 43 68 38 29 93 111 113 108 106 98 89 86 95 105 108 113 121 126 121 123 127 127 122 123 120 119 118 118 116 110 106 104 99 91 91 83 80 73 73 71 75 78 72 61 83 49 54 52 47 74 30 28 94 111 112 109 108 104 99 91 87 97 104 110 118 127 129 130 135 132 127 126 123 123 125 126 121 116 109 103 94 89 83 76 71 70 71 79 82 80 83 134 93 54 57 50 50 58 28 26 93 111 112 109 110 109 105 102 95 90 98 105 111 122 133 137 135 130 125 125 122 123 124 120 118 113 104 97 91 83 75 69 68 73 82 84 85 81 69 75 106 65 55 50 55 64 37 31 92 110 111 111 111 111 110 106 103 98 92 96 104 110 114 121 121 119 117 118 118 116 114 114 106 103 95 90 81 74 67 69 79 85 86 87 84 81 68 36 54 46 55 54 68 81 48 31 95 107 111 111 113 111 112 109 106 103 101 94 92 96 100 104 106 106 107 106 105 105 102 98 94 88 83 78 69 67 73 80 85 86 86 86 85 80 67 29 30 71 77 89 90 156 113 41 100 107 109 109 112 112 112 112 107 104 103 104 100 91 86 86 86 86 87 86 87 90 87 83 77 73 70 67 71 76 81 85 86 88 86 88 85 81 71 31 32 35 66 110 86 138 119 52 103 108 108 110 113 114 111 111 109 106 105 105 105 103 101 91 81 74 69 66 67 65 65 63 64 66 71 75 77 81 85 86 88 87 86 87 84 81 76 38 34 33 45 57 61 85 97 55 103 107 109 111 112 113 114 112 108 108 109 107 106 104 102 97 91 88 81 74 70 67 66 68 73 76 78 80 81 83 85 87 87 87 86 85 85 82 77 52 39 38 35 46 48 54 47 58 106 109 111 113 110 104 108 111 107 105 107 105 104 104 103 97 95 95 92 89 85 81 81 81 82 82 82 81 82 84 84 85 89 88 88 85 85 83 79 64 38 44 43 37 45 46 30 38 66 69 70 70 69 59 64 65 65 65 66 65 62 63 63 62 61 60 61 59 57 55 54 53 53 52 52 50 52 51 54 56 57 55 55 53 52 51 50 42 22 27 31 25 22 26 17 