P2
48
60
255
42 69 70 72 74 78 84 87 87 89 90 91 97 98 96 95 97 98 95 93 94 93 92 95 95 93 93 94 96 93 92 91 90 91 89 88 85 84 84 83 83 81 77 73 70 68 66 38 68 112 113 115 121 126 136 140 141 144 144 148 152 153 151 150 148 151 152 150 150 150 150 154 154 153 152 152 154 151 148 148 149 148 147 143 138 138 135 135 135 132 125 119 112 109 104 62 69 112 113 116 120 130 137 141 141 144 148 150 153 151 152 155 151 151 151 149 149 148 151 155 152 150 151 156 154 152 150 148 150 149 150 145 141 142 140 137 135 133 125 120 113 108 103 61 68 112 113 116 121 130 139 143 142 145 149 153 157 156 157 156 153 149 153 154 152 152 152 153 152 150 153 155 156 154 152 153 155 158 153 150 144 139 141 137 134 133 128 119 113 106 102 62 68 112 112 117 123 132 140 141 139 147 149 153 158 158 158 158 154 148 156 157 154 156 154 156 152 152 155 154 156 158 156 157 161 163 157 154 150 146 142 137 131 131 129 121 111 106 102 63 68 111 113 117 125 135 140 137 138 143 148 153 155 155 159 161 159 157 158 156 156 154 154 156 155 153 154 154 157 155 154 155 156 158 158 153 147 141 130 130 124 117 116 117 110 105 100 60 67 110 111 117 127 130 126 124 136 136 140 142 146 152 153 154 158 154 152 154 154 155 155 156 157 155 154 152 154 150 150 150 137 119 122 118 119 111 104 106 107 98 98 97 110 103 99 60 67 108 111 120 126 112 108 113 118 114 116 121 115 118 118 123 130 138 144 151 152 154 154 155 155 149 148 149 147 139 138 120 98 82 76 71 75 76 74 70 85 97 90 84 90 99 98 60 66 107 112 117 104 99 104 105 100 96 87 79 73 74 70 75 83 99 119 135 143 148 148 144 145 146 142 143 142 129 121 101 80 70 60 53 53 53 58 62 72 83 89 89 88 88 93 60 64 106 104 96 93 100 100 92 81 67 55 50 49 51 53 59 67 77 98 122 136 137 139 137 137 138 136 135 133 122 104 93 82 76 67 57 56 63 72 79 84 85 92 97 95 94 87 59 62 103 96 99 99 94 94 87 75 65 61 61 56 54 55 61 68 78 94 109 120 125 128 127 127 127 128 126 120 107 97 88 83 77 70 71 83 93 95 97 100 99 98 96 101 98 89 56 62 99 99 101 107 100 103 103 104 103 101 99 88 74 64 63 68 77 83 93 105 111 117 121 121 120 118 112 103 94 83 78 72 69 74 88 104 110 110 107 104 97 94 92 98 97 90 55 60 96 96 97 95 95 96 102 108 107 107 106 96 84 68 60 60 65 70 80 90 99 108 116 119 119 113 101 91 83 75 69 67 68 72 80 92 98 107 110 106 95 85 82 86 91 89 55 58 92 93 91 86 85 89 94 92 81 68 58 59 68 60 48 54 60 65 72 85 95 109 123 130 130 116 101 87 75 70 65 59 56 69 64 59 54 57 66 76 78 81 78 81 86 89 56 59 93 87 80 75 78 72 55 48 43 57 38 65 75 68 60 54 59 65 75 88 103 123 146 149 147 125 105 88 76 68 61 56 60 64 78 41 64 51 69 56 65 59 71 76 85 89 58 61 91 83 76 72 58 48 56 77 52 48 32 65 82 117 64 56 65 77 85 99 113 132 160 157 156 129 108 95 86 78 58 55 101 76 54 32 41 55 87 69 54 57 65 75 84 95 59 62 93 81 75 61 53 60 83 89 59 53 45 67 101 131 95 87 75 103 118 113 122 136 152 154 151 133 113 109 115 88 88 89 127 99 71 50 63 68 92 82 69 60 65 74 86 98 62 64 96 85 72 68 72 83 106 108 91 74 72 91 136 124 109 102 107 120 120 115 122 132 144 149 148 128 116 112 124 107 99 108 123 126 93 77 88 104 107 104 81 74 74 80 94 101 64 67 105 91 81 88 91 90 95 104 114 111 110 104 101 102 98 98 108 122 119 118 119 129 142 147 145 128 115 113 120 119 103 100 99 98 101 105 107 108 98 86 89 93 85 86 101 107 66 72 118 103 95 103 105 100 102 112 116 119 112 103 98 96 99 106 113 120 116 120 117 128 139 145 143 127 112 115 116 119 106 101 99 101 105 115 112 109 102 99 96 97 96 97 108 114 68 77 126 118 111 107 107 104 103 104 105 108 110 114 113 111 112 120 126 122 119 121 118 128 140 145 143 128 113 113 118 122 120 110 109 113 116 120 117 111 103 101 99 98 103 110 116 116 70 80 129 131 122 110 108 111 114 119 124 128 128 127 122 122 128 132 129 122 122 123 121 127 138 143 141 128 114 113 117 123 129 125 118 118 122 129 128 122 115 107 108 106 110 121 125 121 70 79 130 133 127 123 119 122 120 123 129 136 138 128 129 136 143 140 129 122 122 122 119 125 141 143 139 124 114 112 115 123 132 135 132 125 126 140 139 123 114 114 116 118 122 129 129 123 70 77 130 138 137 131 128 127 123 128 139 145 138 139 144 145 152 139 128 122 122 119 118 124 138 138 135 124 112 111 116 118 131 144 147 137 138 139 145 131 121 118 118 123 131 135 132 120 69 77 132 142 143 138 132 130 133 140 144 145 144 147 147 147 144 140 125 121 118 115 115 121 132 136 130 120 113 111 111 117 128 147 157 154 153 149 143 142 131 127 125 134 141 139 132 119 68 74 129 140 143 144 139 140 144 152 152 150 152 148 142 147 145 139 125 118 113 112 116 124 134 139 130 117 112 110 106 115 123 141 159 160 156 149 147 150 140 134 132 137 141 140 129 117 67 73 127 135 141 144 148 150 154 159 157 153 150 151 151 149 145 136 123 114 106 112 121 132 140 142 134 118 112 108 101 108 121 134 147 162 165 154 156 152 147 139 137 138 140 134 125 114 65 72 124 134 140 141 146 150 158 159 156 155 156 154 154 154 137 133 114 103 105 114 125 140 153 145 139 122 111 109 104 97 120 135 141 150 157 155 159 154 150 144 140 136 136 130 124 113 66 70 122 130 139 141 146 150 155 155 155 158 157 155 154 149 134 115 99 103 109 115 126 151 162 147 155 132 114 110 108 100 105 134 143 146 153 155 155 154 151 144 139 134 131 127 120 112 66 71 120 127 133 136 144 147 153 152 154 149 151 150 151 143 118 94 99 114 113 114 118 132 135 133 128 121 105 108 109 108 96 117 141 148 154 154 153 151 147 145 140 136 131 125 118 110 64 71 121 126 131 135 141 146 148 154 145 144 149 146 145 128 99 87 109 112 104 103 107 112 117 114 108 102 98 102 106 106 99 99 129 144 150 151 148 146 144 146 140 135 132 128 119 108 64 71 121 126 130 134 139 145 147 149 142 143 149 147 137 109 87 92 104 94 63 53 85 95 93 88 87 80 65 57 78 97 98 92 110 136 146 150 149 143 144 142 136 132 125 123 115 109 63 70 117 123 126 133 140 140 146 146 145 148 148 141 121 95 90 93 96 75 43 34 38 69 72 71 73 51 34 39 62 88 94 94 99 123 139 144 147 146 144 139 135 131 123 118 112 106 62 70 115 122 123 127 134 139 139 141 142 147 143 135 112 96 96 92 85 72 54 54 70 73 65 63 80 90 75 60 65 85 95 103 103 115 135 142 145 145 141 136 131 127 121 115 110 105 61 69 116 118 120 124 127 134 136 139 136 140 140 130 114 111 109 98 85 68 74 95 95 93 88 81 87 92 96 92 81 97 105 111 114 121 134 145 147 143 137 136 128 125 118 113 107 102 59 69 115 117 124 124 126 130 134 139 138 142 140 134 129 126 121 114 104 94 95 107 112 117 111 105 111 104 102 96 97 106 112 118 124 128 134 143 146 142 134 129 125 122 117 110 104 101 58 68 112 117 120 122 123 126 134 140 142 140 140 137 135 131 127 125 118 114 107 113 118 119 116 112 124 121 112 112 105 114 117 121 127 131 140 145 144 141 134 127 125 119 113 108 103 97 55 65 110 116 119 121 123 127 133 138 141 138 138 138 128 130 125 122 114 108 106 114 121 116 114 112 120 121 113 115 113 115 113 122 125 131 138 143 141 136 133 126 122 115 111 104 103 93 54 64 109 114 115 117 123 126 132 136 136 136 134 131 128 119 119 116 113 106 113 125 128 119 111 113 118 128 123 117 110 109 109 116 117 126 128 134 134 130 128 125 119 112 109 103 98 90 53 64 106 111 114 116 120 120 127 129 133 134 126 121 121 119 114 112 113 117 127 130 129 129 122 119 125 129 126 125 112 108 111 109 117 116 113 123 128 124 123 121 115 109 106 104 95 87 52 64 104 107 111 112 117 121 123 124 126 128 120 113 115 112 109 111 119 124 114 106 102 105 116 118 106 101 104 112 118 109 110 102 108 111 113 113 120 119 114 114 108 107 106 102 93 86 51 61 102 105 106 109 114 115 118 118 119 116 114 116 117 107 108 112 108 101 101 105 102 97 93 93 94 98 101 99 99 106 106 100 111 106 108 105 113 114 112 110 107 105 102 99 91 86 51 61 101 104 104 106 110 113 115 118 112 107 112 117 109 102 103 96 83 85 86 88 81 73 65 70 70 72 81 87 84 83 92 102 101 99 100 97 101 111 108 107 102 101 100 96 89 83 51 61 98 102 102 105 109 112 111 112 104 106 108 103 96 91 82 66 62 62 69 84 90 92 89 90 93 94 93 82 70 64 68 81 86 94 96 95 99 108 109 104 99 97 97 93 86 82 52 59 96 97 100 103 105 108 108 110 106 103 96 87 71 57 54 57 78 96 110 123 123 118 119 123 122 123 124 108 93 77 55 52 59 76 91 97 101 106 107 103 97 94 93 89 86 82 62 58 97 96 97 100 100 105 108 106 101 97 89 78 75 96 102 105 110 112 114 119 118 116 115 115 116 116 114 105 100 102 99 101 91 82 88 94 104 110 108 101 98 97 92 87 84 85 60 58 97 96 96 98 100 105 109 106 106 99 95 100 116 119 113 105 107 109 114 117 116 111 110 112 118 120 117 108 100 98 99 108 107 98 94 97 107 108 104 98 92 94 91 87 82 82 70 58 93 93 95 98 99 102 106 107 105 100 99 107 109 108 107 101 96 90 87 81 77 69 69 72 74 80 84 84 91 94 98 100 105 104 100 105 106 105 102 97 92 91 89 86 75 99 78 58 93 93 93 93 94 99 107 109 102 99 103 110 114 111 106 101 92 87 80 74 75 72 75 74 71 73 75 78 87 94 102 107 106 102 101 101 103 105 100 90 88 88 90 84 89 124 88 57 93 93 94 93 94 98 102 103 99 95 99 111 115 114 112 106 101 93 89 82 81 78 81 77 80 84 82 86 93 97 103 106 104 101 100 97 103 101 92 89 88 89 88 84 119 127 86 54 93 92 93 92 90 90 93 96 97 98 98 107 113 108 107 107 107 99 93 88 87 86 87 85 85 89 93 98 104 108 105 102 102 98 97 96 97 93 93 89 87 89 87 96 129 145 90 54 89 90 92 88 87 89 90 95 97 95 97 104 101 104 105 106 109 109 105 100 98 97 97 98 103 101 108 110 112 106 101 97 99 95 94 94 93 88 89 88 88 87 85 118 132 156 89 51 88 90 91 85 84 86 87 91 93 95 95 95 94 95 104 111 114 118 118 122 113 108 109 108 111 117 118 115 116 107 102 96 93 94 92 95 90 89 86 86 85 85 98 129 136 149 92 48 83 89 87 86 82 82 85 88 93 92 88 92 89 96 105 110 117 122 125 128 123 125 123 121 121 122 122 117 115 110 102 91 87 93 92 90 86 85 82 85 84 82 121 134 143 161 105 46 78 83 85 84 81 82 84 89 89 91 92 91 86 94 104 107 114 124 128 127 120 120 125 122 127 122 123 122 114 99 94 86 88 89 87 88 84 80 80 80 82 95 159 162 155 162 107 46 73 79 81 85 81 82 83 87 88 92 93 97 89 93 99 105 108 122 128 126 127 126 124 128 131 128 124 116 112 95 89 89 90 89 89 86 84 81 81 79 78 130 168 172 170 176 114 49 73 75 78 81 81 85 87 88 86 90 90 93 92 96 98 97 102 114 116 126 119 120 120 121 121 126 114 111 103 92 87 93 94 88 86 85 80 83 79 78 82 155 162 170 180 182 113 53 76 71 76 75 78 81 82 85 82 84 89 92 92 95 95 90 101 101 112 114 110 121 117 116 114 109 107 100 93 91 91 87 85 78 78 79 78 80 74 75 90 131 162 177 185 182 114 56 80 73 70 73 77 78 81 85 80 80 80 86 90 88 94 92 89 91 101 104 101 105 106 103 104 106 94 91 87 84 86 80 78 75 76 78 78 76 71 86 102 164 174 176 183 185 116 35 53 48 42 44 45 44 48 48 48 47 47 48 53 54 54 56 53 55 58 60 58 60 58 58 58 59 55 50 51 53 52 48 45 47 47 47 46 45 47 61 67 110 108 112 113 116 72 