P2
48
60
255
21 37 40 41 42 43 44 44 45 48 49 49 51 50 50 49 50 50 51 50 49 50 50 50 50 50 50 51 51 50 51 50 50 50 48 46 44 42 42 40 39 39 38 36 35 33 31 17 34 62 66 67 67 69 73 75 76 79 81 83 85 85 84 84 84 84 84 85 84 84 84 83 84 83 84 84 86 84 84 85 84 82 77 76 72 70 67 64 62 64 62 59 55 52 50 29 33 61 67 68 68 72 74 77 78 81 82 85 88 90 91 90 90 88 89 89 89 88 86 87 87 87 87 87 87 86 86 87 87 83 81 80 74 70 67 64 61 63 63 62 59 53 49 29 37 64 66 69 71 73 76 79 83 84 87 87 91 92 92 93 93 92 90 90 88 88 88 89 87 87 87 87 87 87 86 87 87 85 83 80 77 73 69 67 64 64 63 62 63 59 53 31 39 65 65 70 72 74 75 79 81 86 88 88 90 93 93 92 91 91 89 86 87 86 87 86 87 85 86 86 87 86 84 84 85 84 82 80 79 76 73 71 68 67 65 64 65 63 58 33 40 65 66 70 70 64 71 73 71 76 81 82 86 89 91 88 87 87 86 83 86 86 86 87 86 82 82 83 84 83 83 83 82 80 79 78 74 73 72 70 67 68 67 66 66 64 63 37 40 64 65 67 53 53 52 54 54 56 63 73 80 83 83 80 80 82 82 82 85 86 87 88 85 81 81 82 81 79 80 79 79 74 71 68 64 65 61 60 59 59 65 66 65 65 64 39 39 64 63 50 47 47 46 45 45 45 46 51 57 66 67 67 68 74 77 79 81 82 83 81 78 78 77 77 75 71 70 69 69 63 57 52 50 51 50 49 51 51 53 60 63 64 65 40 38 60 49 47 51 52 52 51 49 45 44 42 43 46 52 55 53 60 68 71 77 79 78 76 74 74 72 70 66 59 56 51 50 47 45 44 44 45 45 46 49 50 50 52 55 60 64 39 37 57 55 57 61 62 63 62 61 57 51 44 42 42 44 50 49 50 60 61 71 76 75 74 73 70 66 61 56 50 46 44 43 43 43 43 45 47 48 49 52 52 53 54 56 59 63 40 39 63 65 66 69 68 67 66 64 62 58 53 49 46 45 46 47 49 52 59 68 73 74 72 69 64 60 54 49 45 43 42 42 43 45 48 51 53 54 55 56 56 57 56 59 61 64 40 39 65 66 68 69 67 66 65 65 64 61 55 50 48 48 50 50 50 51 57 65 73 76 73 68 63 57 50 45 43 44 45 45 47 51 54 57 59 59 58 57 57 58 59 60 61 63 39 40 64 66 66 67 64 62 60 60 61 58 52 47 45 45 46 49 51 53 58 66 76 79 76 72 65 56 47 44 43 44 44 46 50 55 58 61 61 60 59 58 57 57 58 60 62 64 39 41 65 64 63 61 55 52 56 64 68 59 53 48 46 45 43 45 50 54 59 66 78 87 84 79 69 57 48 43 43 43 48 54 60 61 62 63 65 61 57 53 53 56 57 58 62 65 41 41 65 61 56 50 50 55 52 47 44 49 38 38 42 44 45 46 50 58 63 69 78 89 90 84 71 60 50 45 43 48 51 49 54 53 57 45 46 48 53 56 55 50 54 57 60 64 41 42 65 60 53 50 48 45 52 61 41 43 37 40 51 54 45 46 52 67 69 71 78 89 91 87 74 63 56 50 49 49 45 59 70 49 47 44 46 51 53 51 51 53 53 56 59 63 41 43 67 61 56 56 56 57 67 72 49 40 39 43 61 60 50 53 57 72 73 74 78 88 90 87 79 65 61 58 55 51 51 62 75 60 47 48 47 58 62 57 57 56 57 58 62 65 42 44 71 67 67 68 63 62 66 70 72 59 52 59 66 64 60 58 65 72 75 76 77 86 88 86 79 68 65 64 60 59 60 64 68 71 62 58 63 68 68 65 62 63 65 65 67 69 45 44 73 74 77 75 69 65 66 70 73 73 69 66 63 59 59 66 74 78 78 75 77 85 89 87 79 69 67 67 66 67 63 60 62 64 67 69 70 70 65 62 64 70 74 76 74 74 47 45 74 77 79 77 73 71 67 65 65 63 60 59 59 62 69 79 83 81 79 76 79 85 91 89 80 71 68 68 67 73 75 67 62 60 59 60 61 62 62 64 70 76 81 83 80 79 48 44 76 79 81 81 79 77 77 74 71 69 67 64 70 75 82 86 84 80 78 78 81 89 94 92 82 72 70 68 67 71 78 75 70 67 67 67 67 69 71 74 79 85 87 87 85 83 50 45 78 83 84 83 83 84 85 85 82 82 81 80 81 82 87 87 84 80 80 79 82 91 96 94 85 74 71 70 69 70 74 78 75 74 73 74 75 79 81 85 88 90 92 90 89 85 51 46 79 85 88 88 90 89 90 90 88 88 87 85 85 87 89 87 82 81 80 80 85 93 95 94 85 76 72 71 71 70 73 76 78 78 79 82 85 87 90 93 95 95 94 93 91 86 52 47 80 86 92 93 92 92 91 91 91 88 87 88 90 90 90 87 80 81 78 81 89 97 99 96 88 79 75 71 71 71 72 78 81 82 82 84 89 93 95 96 97 98 97 96 93 88 52 47 80 86 92 96 95 95 92 93 91 90 91 91 91 90 89 85 80 78 79 82 88 99 101 97 89 80 77 73 70 71 74 78 81 83 85 85 88 91 94 96 98 99 99 96 93 88 53 47 82 85 91 95 97 96 95 95 94 91 92 91 93 91 88 85 80 76 76 80 85 98 102 100 90 80 77 73 71 70 73 77 82 85 87 90 92 94 96 97 98 98 96 93 91 87 53 47 83 86 89 93 96 97 98 97 97 94 94 93 93 91 87 85 77 78 78 79 85 99 104 104 93 79 74 73 72 72 72 77 82 86 89 92 94 95 97 98 100 98 95 91 89 86 53 45 83 86 87 92 95 100 100 98 97 95 94 94 92 90 87 84 83 84 84 84 90 105 106 104 96 82 75 76 75 76 73 77 82 87 90 91 94 95 98 100 99 97 93 90 88 86 53 45 83 84 85 90 96 95 99 98 97 95 93 94 93 91 87 82 88 88 87 85 90 105 103 96 88 78 75 75 77 81 76 78 82 88 90 92 95 98 98 99 97 95 92 90 89 87 53 44 74 84 83 89 95 96 98 98 97 94 95 93 91 90 85 84 92 88 81 79 83 92 92 88 80 71 67 69 76 82 79 77 83 87 90 93 96 97 97 98 96 94 92 90 89 86 53 45 76 82 83 88 93 96 96 96 96 95 95 93 91 89 83 82 85 75 68 66 75 82 80 77 71 64 61 63 70 77 77 76 83 86 89 93 95 96 96 97 94 93 91 89 89 86 52 45 76 82 82 86 92 93 94 93 94 94 93 92 91 87 79 76 71 53 48 47 57 74 72 67 62 52 47 49 56 67 71 75 83 86 89 93 94 94 94 95 93 92 90 87 87 87 53 44 75 81 83 84 89 89 91 94 92 92 91 92 90 85 77 70 62 54 66 75 77 72 67 64 56 53 52 52 53 61 66 78 83 85 87 91 92 92 93 94 92 90 89 87 86 87 53 42 73 79 81 82 85 82 88 93 92 91 90 89 89 84 71 70 65 60 70 80 78 71 65 59 56 59 63 58 53 55 70 82 85 85 87 90 92 92 93 91 89 88 88 85 86 86 53 43 74 77 78 80 80 79 85 89 91 90 89 88 86 84 81 82 79 78 79 80 79 76 68 60 62 69 72 68 61 64 79 83 85 87 89 88 91 89 90 88 89 89 88 86 85 85 53 44 74 77 69 79 80 78 81 89 89 89 88 88 86 85 84 85 85 87 82 81 79 76 68 67 70 73 75 76 77 80 82 84 85 87 88 89 90 90 89 89 89 88 87 86 86 86 53 43 73 74 74 78 82 82 81 86 87 84 87 90 89 87 85 86 86 84 83 80 78 73 70 71 75 74 76 77 78 79 82 84 85 88 89 88 88 88 87 87 87 87 87 86 85 86 53 43 70 74 75 74 81 80 79 83 84 85 87 89 89 87 83 83 82 83 82 79 79 78 74 77 80 79 77 78 77 78 82 84 86 87 88 87 86 86 86 86 86 85 86 86 85 86 53 43 71 72 74 74 77 77 77 79 80 83 87 86 85 83 82 81 82 83 83 83 82 82 81 83 87 85 84 80 80 77 78 81 83 85 86 86 85 84 84 85 85 85 85 84 85 87 53 43 71 71 73 74 73 77 77 76 80 79 82 79 78 77 80 83 85 87 86 90 90 91 89 90 91 91 88 85 83 80 78 79 80 80 83 84 84 82 83 84 84 85 85 84 85 86 54 44 71 71 73 72 74 76 75 77 77 77 76 75 71 73 78 81 84 86 83 80 75 77 83 85 78 74 77 83 82 83 81 79 77 79 81 82 82 81 83 83 83 84 84 84 85 87 55 44 72 73 72 71 73 75 76 76 74 73 75 69 66 70 74 76 76 67 61 60 61 63 65 67 63 62 63 65 69 78 80 78 77 77 78 80 81 81 81 83 84 84 84 85 86 87 56 45 72 72 72 70 73 74 73 75 72 71 70 64 61 64 69 64 55 54 55 57 58 58 61 59 57 58 58 58 60 63 71 75 75 75 78 80 81 80 81 83 84 84 85 84 86 88 56 44 73 71 71 70 70 71 71 73 71 69 67 61 55 51 50 51 59 68 73 73 67 65 60 59 58 60 61 58 57 56 60 66 69 72 76 79 80 80 81 83 84 84 85 86 86 90 57 44 72 70 72 71 71 71 69 71 70 68 66 60 56 58 60 63 65 66 71 82 85 81 77 85 85 83 75 70 67 64 57 57 62 66 73 76 78 79 81 83 84 84 85 86 87 90 57 45 71 70 72 72 71 72 66 67 68 67 64 62 61 68 69 68 69 69 70 75 77 76 78 79 78 73 68 66 66 66 66 66 70 70 72 74 78 79 80 82 83 84 86 87 88 92 59 45 72 69 71 71 71 71 66 67 67 64 64 65 66 70 70 71 71 70 71 72 74 74 76 74 71 68 65 65 65 67 67 70 72 73 72 73 77 78 80 81 82 84 85 87 89 93 60 45 70 69 70 70 71 70 69 66 67 65 64 68 70 70 71 72 72 70 67 64 65 66 67 67 64 62 62 63 64 66 68 69 71 72 72 74 75 77 80 81 82 83 84 88 90 95 61 45 70 68 67 69 71 70 69 66 67 64 66 69 71 71 70 69 69 67 62 60 57 55 55 56 56 57 58 60 62 64 66 67 70 71 73 74 75 74 78 81 81 83 85 88 91 97 63 44 69 68 67 69 68 68 68 67 67 65 66 68 70 70 69 66 67 65 63 61 59 58 59 56 56 58 59 60 61 63 65 67 69 71 73 73 73 75 77 80 81 83 85 88 93 99 65 42 67 66 67 66 66 66 66 66 66 65 65 67 69 69 69 67 66 64 64 63 63 64 63 60 59 60 62 62 62 63 66 68 70 70 71 73 74 75 77 79 80 82 86 89 94 102 68 43 64 64 64 64 64 66 66 65 64 66 67 67 69 67 68 68 67 67 67 70 71 70 67 65 66 67 68 67 67 68 67 69 70 71 71 72 73 74 76 77 80 82 86 91 97 106 74 45 64 63 63 63 63 64 65 65 64 64 65 67 68 68 69 70 71 72 74 75 75 73 70 71 73 74 76 76 74 72 72 70 70 71 71 72 73 75 76 78 81 83 87 92 99 112 102 44 66 59 61 62 62 63 64 65 65 65 64 65 68 69 69 71 73 75 78 82 82 76 73 74 77 78 79 79 79 77 76 74 72 72 73 73 74 75 76 78 81 83 87 92 100 126 143 44 67 60 58 60 60 61 62 64 65 65 66 65 66 68 71 73 75 78 80 85 85 80 75 77 79 79 79 79 78 78 77 77 74 74 74 73 74 75 76 78 81 84 86 92 104 132 149 42 66 63 58 57 60 61 62 62 63 65 66 65 67 69 71 73 76 78 79 81 82 80 77 78 78 78 77 78 77 77 77 76 76 74 74 73 73 74 75 77 80 82 86 93 104 134 153 41 64 62 59 56 57 59 61 61 62 62 65 66 67 68 71 72 73 73 73 76 73 73 72 71 73 73 73 73 73 75 75 75 74 75 73 72 73 74 74 76 78 82 86 91 102 141 155 40 64 62 60 58 55 57 60 61 62 61 63 65 66 68 68 68 67 69 71 68 67 65 64 66 66 68 68 68 69 69 69 71 72 73 72 72 72 72 74 75 78 81 83 90 102 144 156 38 63 63 61 59 56 54 57 59 59 60 61 62 65 67 66 64 62 65 66 65 64 61 60 59 59 64 65 65 65 65 66 67 69 70 69 70 70 71 73 74 77 79 83 90 100 139 154 23 39 39 38 38 36 35 33 36 36 36 36 36 37 41 40 39 38 38 38 39 37 36 35 35 36 38 39 39 39 39 40 41 42 41 42 42 43 44 45 47 46 48 51 55 61 73 71 