P2
48
60
255
11 19 21 23 25 27 29 31 33 35 38 39 41 42 42 42 41 41 39 39 40 39 39 39 39 40 39 39 40 40 39 38 37 38 37 36 36 36 36 37 37 35 33 31 31 31 31 19 18 31 33 37 42 46 50 50 53 58 60 63 65 67 66 65 64 65 65 64 63 63 63 63 63 64 63 64 63 63 62 61 61 60 60 59 59 59 59 60 60 57 54 51 49 49 49 31 18 30 32 37 42 48 50 54 56 58 59 61 63 64 64 63 64 63 63 63 62 63 63 62 63 64 65 64 63 63 62 63 62 62 61 60 60 60 60 60 61 59 56 52 50 50 50 31 18 30 33 38 45 52 54 55 57 58 59 61 62 63 62 63 63 63 63 62 63 63 63 64 64 65 65 65 65 64 65 65 64 63 62 62 61 62 62 62 62 61 59 56 54 53 52 32 19 31 33 39 47 54 56 57 59 60 60 62 63 64 65 64 64 64 64 64 64 65 65 66 67 67 66 66 67 68 68 68 66 66 64 64 64 64 64 64 63 62 61 60 59 58 56 33 19 32 35 40 47 54 58 59 60 61 62 64 66 68 69 67 67 68 67 67 67 68 68 68 69 67 67 67 68 68 69 68 68 68 66 66 66 65 66 65 64 63 63 63 62 62 60 35 18 32 38 42 48 54 59 60 61 64 65 68 69 71 72 71 70 68 68 68 68 68 69 69 69 68 67 65 67 68 68 68 68 68 67 67 66 67 66 65 66 64 63 63 64 64 64 37 19 32 38 44 49 56 60 61 63 65 68 70 73 74 74 73 72 71 70 69 69 69 69 68 68 68 66 66 67 67 68 68 68 66 66 66 66 68 67 67 66 65 64 64 64 65 66 40 19 34 41 49 53 58 62 64 66 67 71 72 74 75 74 72 71 70 69 68 68 68 68 67 67 67 66 66 65 66 66 65 63 63 62 62 61 62 59 55 58 61 63 64 65 65 67 41 20 39 47 53 55 59 64 67 68 69 72 72 74 73 71 70 70 68 67 66 67 67 66 66 65 63 61 60 62 61 60 59 56 53 50 49 47 47 47 50 51 52 56 61 65 66 66 42 24 46 52 54 56 61 65 67 68 68 67 69 68 67 65 65 65 65 63 63 64 63 63 63 61 59 58 58 55 53 51 46 43 43 43 43 44 46 49 50 52 55 57 60 62 67 67 42 29 52 55 55 55 59 62 60 57 56 53 54 55 57 56 56 57 57 58 59 60 61 60 61 60 57 56 55 52 48 43 41 42 43 44 46 48 50 52 54 57 59 60 61 64 66 68 43 32 55 56 55 50 44 42 40 39 38 38 37 37 37 39 41 45 50 52 54 57 59 59 60 57 55 53 50 47 44 42 42 43 43 44 45 45 46 46 48 52 55 58 60 64 67 68 43 33 56 56 52 50 48 42 38 37 38 38 36 35 35 35 37 37 41 48 51 54 57 58 59 57 55 52 48 45 43 43 43 41 41 41 42 43 44 45 46 47 50 54 58 62 65 69 44 34 57 57 55 54 54 52 50 48 46 43 40 39 37 37 39 41 42 45 48 52 57 61 62 61 57 52 46 43 42 42 41 42 45 46 42 44 48 48 47 47 49 53 57 62 66 70 44 35 57 58 57 54 53 49 44 38 34 34 33 34 33 33 35 39 43 45 48 54 62 67 67 66 61 54 47 42 42 41 43 51 44 42 44 46 50 50 51 53 55 56 59 64 67 70 45 36 58 57 56 53 50 42 34 33 40 46 38 48 33 34 38 38 39 43 48 56 65 70 70 69 64 57 48 42 41 41 45 52 51 48 50 51 51 54 56 58 62 64 66 67 69 71 46 36 58 57 55 53 48 40 37 38 49 56 38 34 34 36 44 42 42 44 48 56 67 75 75 73 67 59 49 45 44 46 54 54 52 51 52 54 54 55 57 61 63 66 69 70 71 73 46 36 60 58 56 51 46 45 45 46 46 46 45 40 38 40 43 42 45 46 54 58 68 78 79 77 70 60 53 51 50 52 53 53 53 54 55 55 55 56 58 62 65 69 70 71 72 73 46 36 60 60 59 57 57 56 51 50 52 52 48 44 43 43 43 44 46 49 59 61 69 77 80 79 71 62 58 57 59 55 53 54 53 52 53 53 54 56 60 65 69 72 73 72 72 73 45 36 60 61 62 61 61 60 56 54 52 52 50 48 46 45 45 46 50 61 64 64 71 78 80 81 73 64 61 61 64 64 60 58 57 57 58 59 62 66 70 73 75 74 73 72 72 73 45 35 60 63 64 65 65 65 62 56 51 49 48 47 47 47 50 54 63 68 67 68 72 79 82 80 74 65 62 64 66 68 69 69 68 68 69 71 73 76 77 77 76 74 72 72 72 73 45 35 60 63 66 68 69 69 68 65 61 59 56 53 54 57 61 68 73 72 70 70 72 79 82 81 74 65 63 64 66 69 71 73 75 76 76 78 79 80 81 79 77 73 71 71 71 72 45 35 61 64 65 68 71 72 72 71 69 67 65 64 65 69 73 75 75 72 70 71 73 79 83 81 72 66 64 65 66 68 71 74 76 77 80 81 81 81 79 76 73 71 70 71 71 72 45 35 59 64 64 67 71 74 75 75 74 73 73 73 74 76 76 75 74 72 71 71 74 80 82 80 75 68 65 63 63 63 67 72 75 76 79 81 81 81 78 76 73 73 72 71 72 72 45 34 59 63 65 67 69 72 75 78 78 78 77 76 76 77 75 74 72 70 69 72 77 80 82 81 76 70 66 62 60 58 61 68 72 75 77 79 80 80 79 78 76 74 73 72 71 71 45 34 58 63 65 66 68 71 74 78 80 80 77 76 75 74 72 70 67 65 67 72 78 81 82 80 76 71 66 61 62 58 55 62 68 72 75 77 77 78 78 77 76 75 73 71 71 72 45 35 59 62 66 67 70 74 77 81 81 80 77 74 73 71 67 63 59 63 67 73 79 81 81 78 75 71 66 63 65 64 54 55 62 68 72 74 75 75 75 75 75 73 73 71 71 72 45 35 59 62 64 68 71 74 78 80 79 78 75 72 70 66 63 59 58 70 69 74 79 80 79 75 73 70 66 64 69 69 58 52 57 63 67 70 72 73 73 73 72 72 71 70 71 72 45 36 60 60 63 66 70 74 75 76 76 75 73 70 66 63 61 58 67 73 71 74 79 78 76 72 70 68 64 65 68 68 61 53 52 58 62 66 68 69 72 71 69 69 69 70 71 73 46 37 61 61 62 64 68 71 73 72 73 73 70 66 63 60 58 59 68 70 69 68 74 75 73 69 67 64 60 59 62 60 59 57 53 54 59 62 64 66 68 70 68 68 68 70 71 73 46 38 62 61 59 64 67 69 71 70 68 68 67 62 60 58 57 61 63 61 59 61 65 67 66 64 61 56 50 48 47 49 60 62 60 55 56 58 61 63 65 66 66 67 68 70 72 73 47 43 63 62 59 63 66 67 68 68 67 66 63 59 57 57 62 65 61 50 45 51 58 59 56 53 50 45 42 41 43 50 62 64 65 61 56 56 58 61 63 64 65 66 67 68 71 74 47 50 64 64 61 63 63 64 65 64 64 62 58 56 55 59 66 68 66 60 53 55 57 52 48 45 43 41 41 44 49 58 62 63 65 64 61 57 57 59 60 62 62 64 66 68 72 74 48 102 68 64 62 62 62 62 61 61 59 57 54 53 55 63 68 68 67 67 64 62 60 57 47 44 42 45 48 52 57 61 63 64 64 65 65 62 57 57 59 62 63 63 66 70 72 76 48 148 84 64 63 62 62 61 60 58 54 51 49 51 59 64 66 67 66 68 67 65 63 60 54 50 51 55 57 58 60 62 64 64 63 63 65 63 60 57 60 62 64 65 67 70 73 77 50 156 116 64 64 62 62 60 57 53 48 47 49 56 61 64 65 66 66 65 65 65 64 61 56 55 59 61 62 63 61 63 64 62 61 60 61 62 60 57 60 62 64 65 67 70 73 78 51 158 165 65 63 61 61 60 57 50 47 46 54 60 61 61 62 62 65 65 64 64 63 62 58 60 63 65 65 63 62 62 61 59 56 53 55 58 59 58 63 65 64 66 67 70 73 79 56 158 219 70 64 61 61 59 58 53 51 54 57 59 56 55 57 60 63 64 65 65 63 62 62 63 66 67 65 61 61 60 57 55 52 48 49 51 56 61 67 67 65 64 67 70 75 81 92 158 247 91 64 61 60 60 59 58 61 58 56 54 50 50 55 60 62 62 63 63 63 62 65 66 67 63 56 52 51 50 48 46 45 44 46 51 56 65 69 66 64 64 66 70 75 96 142 158 254 147 64 63 61 59 59 61 66 63 55 49 43 41 47 52 55 55 55 53 50 49 51 56 54 48 44 45 45 46 46 47 48 52 51 54 57 65 67 65 63 63 66 70 75 144 156 158 255 219 70 63 61 59 58 60 65 64 57 52 48 48 51 46 48 49 49 48 47 46 46 48 49 46 47 47 47 47 48 51 59 59 60 57 56 61 63 62 61 62 65 68 80 210 157 158 255 251 113 63 61 59 57 57 61 60 54 53 55 56 59 54 51 51 52 53 52 48 46 47 44 45 45 49 54 55 51 56 59 60 61 56 54 57 58 58 59 62 64 68 115 223 157 158 255 255 195 64 61 59 57 56 58 55 52 54 58 60 60 60 53 54 57 56 54 52 48 47 49 54 60 64 59 51 52 56 58 60 57 54 55 55 56 56 58 60 63 73 203 248 151 158 255 255 246 95 60 59 57 55 54 52 53 57 59 60 60 61 58 51 53 63 64 61 61 60 63 62 60 54 48 48 52 55 56 58 56 57 58 56 56 55 56 58 63 110 239 255 156 158 255 255 255 176 60 58 56 55 54 53 54 56 58 60 58 59 59 56 50 51 55 55 56 56 56 54 51 47 46 47 52 54 56 56 57 60 58 57 54 54 56 59 72 169 236 252 158 158 255 255 255 234 70 56 54 54 54 54 55 58 59 60 59 58 57 56 53 50 48 49 51 52 50 46 44 44 44 48 52 55 56 56 58 60 57 56 53 53 55 60 116 209 238 234 157 158 255 255 255 248 85 55 53 53 52 53 56 58 62 61 60 57 56 55 53 50 47 45 44 44 42 42 41 42 45 49 53 55 57 57 58 58 56 54 52 53 56 67 159 229 235 254 151 158 255 255 255 249 86 56 53 53 53 52 54 57 60 61 60 58 56 55 53 50 46 43 41 41 41 41 42 44 47 51 54 57 56 56 58 55 53 51 51 53 58 68 178 233 226 255 158 158 255 255 255 244 78 56 52 52 53 52 52 54 57 60 61 58 56 55 52 50 47 44 42 42 42 43 45 49 52 55 56 56 55 54 55 52 51 50 51 54 61 64 138 218 228 255 156 158 255 255 255 209 67 57 52 50 52 52 51 50 54 57 58 59 57 54 53 50 48 46 46 46 48 50 53 56 57 59 59 56 53 53 52 49 48 49 51 55 56 66 136 115 146 242 143 158 255 255 204 81 59 59 55 50 50 52 52 51 51 55 56 58 57 55 53 53 53 52 53 55 57 61 62 62 60 61 60 56 51 51 48 46 47 48 51 52 56 70 223 216 197 130 127 158 255 228 92 61 58 60 58 54 49 50 53 52 51 53 55 57 59 57 56 58 59 59 60 61 63 65 62 62 62 61 57 51 49 48 46 46 47 47 49 53 56 65 145 213 253 204 76 158 254 157 67 58 58 59 60 58 52 48 51 52 51 51 54 55 59 61 60 60 62 61 63 63 63 66 63 62 61 58 52 47 46 44 44 45 45 46 49 53 57 62 72 126 237 225 150 158 245 91 62 57 58 60 60 61 59 52 47 50 52 50 51 53 56 61 64 64 64 62 62 63 65 66 63 59 57 53 46 44 43 42 43 44 44 47 50 54 58 61 60 119 124 129 132 155 150 65 61 57 58 59 60 60 61 60 52 47 49 49 48 51 52 57 62 63 62 60 59 61 62 60 57 56 53 46 41 41 41 42 42 42 45 48 51 55 57 60 60 145 143 165 65 72 66 64 61 58 58 59 61 60 60 61 60 54 47 47 46 46 47 50 55 57 58 56 54 56 56 54 51 49 45 40 39 39 41 40 41 42 45 49 53 56 57 59 60 59 68 107 99 39 64 63 61 59 59 59 60 62 60 60 60 59 56 49 45 44 43 44 46 48 49 48 47 47 46 45 43 41 38 38 39 39 39 39 41 44 47 50 54 55 57 59 64 87 128 146 80 39 64 64 61 59 59 60 60 61 62 59 60 58 57 54 51 45 42 40 40 42 43 42 42 41 40 39 38 38 37 37 37 37 38 40 42 45 48 52 53 55 57 59 65 90 239 253 144 24 39 39 38 37 37 37 37 37 38 37 36 36 36 34 33 31 29 26 24 24 24 24 23 23 23 23 23 23 22 23 23 23 24 25 27 29 31 32 33 34 35 36 40 45 127 158 92 