P2
48
60
255
28 35 41 49 53 56 58 58 57 56 58 64 66 67 80 81 86 93 93 93 90 90 90 86 79 79 76 73 72 70 70 71 69 72 69 71 72 70 75 68 67 66 60 56 55 52 52 33 44 68 71 81 89 90 90 91 90 91 93 101 110 115 125 128 141 147 146 158 147 140 139 135 130 127 121 119 115 113 115 112 112 114 110 113 112 111 112 119 106 105 98 93 95 84 81 50 47 69 74 83 93 91 91 92 91 93 98 104 113 120 123 121 122 131 142 150 153 148 144 146 135 134 131 130 124 119 113 111 116 116 116 116 117 113 113 116 114 103 99 95 94 86 80 49 42 75 74 82 92 95 95 95 95 100 104 114 119 120 131 131 138 142 144 155 154 151 142 142 137 136 131 130 127 125 126 124 124 124 122 122 122 121 122 117 112 109 102 96 97 90 79 49 45 71 74 84 91 97 97 100 103 108 112 118 128 124 131 141 151 157 153 160 161 159 147 148 142 142 135 137 135 136 133 134 136 137 135 130 125 129 124 128 121 113 105 100 95 90 78 48 54 75 75 84 93 97 101 109 107 111 115 123 132 138 143 152 168 168 169 169 161 157 158 156 151 148 145 145 141 140 138 140 144 146 141 139 139 134 127 125 135 130 115 101 95 95 78 46 47 61 75 85 92 103 106 108 102 105 114 120 134 137 139 146 157 159 160 159 159 156 155 158 153 147 142 137 136 138 134 133 130 130 128 126 130 139 133 115 117 131 124 103 87 105 78 44 38 56 73 84 97 103 96 92 83 82 86 95 108 109 120 137 144 147 146 144 154 156 154 153 147 142 140 138 127 122 117 113 109 102 96 103 106 105 109 110 112 119 118 104 88 98 82 44 41 64 75 86 99 90 85 82 77 70 67 72 82 86 100 121 134 136 142 142 151 159 152 146 140 136 130 131 118 110 98 93 85 81 87 92 91 89 99 106 107 103 101 99 90 90 79 44 45 60 78 86 88 86 86 91 94 89 80 89 91 92 99 112 127 130 145 144 154 165 145 144 140 135 128 130 111 107 100 89 87 92 98 108 121 121 119 122 117 106 94 90 88 83 80 45 44 52 78 87 85 94 98 114 139 141 129 112 103 104 108 115 122 129 135 142 144 148 139 141 134 133 127 123 116 111 107 106 102 107 121 127 135 135 137 130 123 109 98 90 86 81 83 46 42 55 79 89 93 99 105 124 145 156 156 151 127 104 101 106 113 118 121 127 131 136 131 129 127 124 119 116 110 107 103 95 100 120 136 140 138 135 139 135 121 109 98 89 89 85 85 47 43 63 80 88 95 100 109 125 137 149 158 157 151 133 107 96 103 108 116 122 122 123 122 123 121 115 112 106 100 93 84 92 119 134 134 129 120 122 125 121 115 108 100 92 88 86 86 48 43 59 81 88 96 101 105 108 112 119 115 114 122 125 118 97 85 94 103 113 123 123 119 119 118 114 107 95 87 76 86 100 90 80 94 110 106 99 96 95 97 95 96 92 88 84 87 50 47 66 83 90 95 94 91 90 100 108 94 85 83 76 83 93 86 79 93 107 120 131 129 129 121 114 105 89 75 78 89 73 85 113 110 90 71 63 75 83 70 66 84 83 85 87 85 51 67 69 83 89 90 86 75 67 62 43 111 33 88 75 87 70 74 77 87 106 121 141 146 141 134 127 112 99 76 82 84 92 91 77 96 86 70 53 65 42 52 60 56 77 80 84 85 48 84 77 82 92 85 63 52 61 115 48 52 35 63 112 74 67 81 83 98 110 123 144 168 159 154 142 121 112 111 113 95 70 78 126 157 77 39 36 37 80 63 44 52 50 69 73 78 52 100 93 83 89 79 50 42 85 140 86 42 42 58 123 98 83 81 111 116 117 124 149 173 159 159 146 129 123 123 130 99 94 120 140 165 143 63 49 76 118 83 62 56 58 57 73 76 49 130 122 81 80 70 50 58 89 129 136 100 80 101 112 111 111 113 117 118 125 125 147 168 161 154 140 123 130 126 128 133 132 123 123 124 122 103 102 110 114 98 81 81 77 80 88 96 57 120 113 81 88 83 78 82 90 102 110 115 105 112 112 114 111 119 125 125 128 125 142 159 157 151 135 113 127 126 127 131 115 111 108 99 94 95 101 111 121 104 90 85 87 95 103 102 54 140 108 85 90 92 85 95 101 107 116 127 131 126 117 106 106 129 128 130 135 132 138 158 157 141 135 114 121 132 128 131 129 109 95 98 101 99 101 105 101 87 87 97 103 105 105 99 58 143 109 87 89 90 85 85 93 104 119 124 118 105 92 109 130 135 135 141 140 132 133 144 144 140 134 117 115 133 137 134 138 133 124 113 100 95 94 97 107 114 116 117 118 114 109 93 55 139 115 84 88 91 99 99 93 94 94 96 98 104 116 134 139 145 145 147 140 129 131 136 140 140 132 120 115 130 140 139 139 141 134 133 124 123 123 115 116 119 120 124 132 120 100 90 54 115 102 86 90 93 108 121 131 129 124 130 132 133 139 146 146 146 147 144 132 126 126 134 140 139 133 122 113 122 138 147 148 150 147 140 137 131 133 136 137 136 135 140 145 124 100 91 55 107 93 87 91 93 106 116 139 161 158 139 142 149 156 159 163 152 142 130 124 123 128 132 138 135 132 123 110 113 140 157 154 155 156 150 146 140 138 134 136 137 140 159 162 121 101 93 55 112 85 86 91 96 106 117 139 150 144 147 155 166 169 176 171 149 128 122 121 123 127 134 140 136 133 118 111 111 117 136 141 150 156 152 149 144 144 142 140 137 129 135 138 127 102 96 54 136 90 86 92 100 107 119 132 143 149 160 171 174 184 181 141 123 118 119 117 121 130 141 140 137 126 111 108 118 114 107 103 135 158 146 143 147 146 147 146 144 142 143 136 125 106 97 56 146 99 85 93 99 107 120 127 143 158 167 181 192 171 131 103 105 112 113 112 124 140 150 148 139 131 109 104 113 118 110 96 101 133 145 149 153 149 148 147 153 152 156 153 127 102 93 53 152 116 84 89 98 112 119 131 153 170 171 169 160 134 104 88 113 118 112 118 131 148 180 160 141 144 118 112 116 121 114 106 85 100 137 155 156 145 140 147 156 161 169 155 126 98 89 50 154 125 85 88 99 108 121 137 147 160 155 144 126 100 82 107 119 124 120 124 135 154 178 162 147 159 137 135 132 134 133 118 98 71 109 131 136 138 136 144 158 163 168 136 115 97 88 50 116 104 86 88 98 109 117 123 143 148 135 117 100 80 98 105 128 132 131 121 120 128 129 127 121 118 119 115 104 98 109 108 96 74 80 111 121 129 132 132 143 152 138 123 106 94 86 51 73 101 85 86 98 110 113 117 130 127 119 104 89 98 114 97 95 89 97 101 103 107 106 106 100 97 92 63 32 33 69 91 89 81 76 100 113 119 125 122 131 133 126 112 99 93 85 50 84 95 85 87 94 107 108 110 120 120 108 96 92 109 131 97 64 36 38 57 82 88 89 84 79 81 72 50 42 32 53 72 82 83 89 97 106 107 113 105 111 111 110 106 93 89 81 48 116 102 85 86 93 101 106 113 115 111 98 94 104 125 142 132 79 58 63 89 111 91 68 57 57 65 72 80 92 70 69 90 106 106 107 102 100 96 99 103 100 95 100 97 91 83 78 47 149 128 87 85 93 99 103 107 109 109 98 95 111 121 128 135 136 113 118 119 133 133 116 97 89 92 95 103 112 116 122 127 127 124 120 112 102 92 84 90 95 95 96 90 84 80 76 45 158 232 106 81 89 93 98 100 101 95 86 88 105 114 117 125 132 132 126 124 132 133 131 131 127 116 112 120 120 121 128 132 132 130 125 116 106 94 78 75 82 86 91 89 79 77 73 44 158 254 142 82 87 88 93 94 93 85 78 87 106 110 111 117 123 121 115 119 123 125 122 122 127 120 111 112 117 114 111 124 127 126 125 117 111 102 91 71 71 78 87 85 80 77 73 44 158 255 175 82 82 84 88 88 86 78 72 94 102 106 106 111 106 96 99 105 111 100 110 128 129 114 105 100 103 100 91 94 108 121 113 102 96 87 89 84 70 82 85 85 81 76 74 43 158 255 213 87 80 87 85 84 88 76 72 95 94 90 92 90 84 77 72 85 93 87 93 114 115 100 80 78 89 91 80 75 94 95 86 83 74 55 73 74 77 89 88 85 83 78 74 44 158 255 243 101 81 84 87 87 92 81 75 88 88 80 76 67 65 70 60 94 100 79 80 85 102 100 82 76 82 98 69 65 85 73 80 63 53 43 51 55 78 101 96 92 84 79 74 45 158 255 253 132 82 83 84 86 90 89 76 87 71 61 65 68 67 71 65 83 86 83 102 86 101 98 80 72 76 80 71 69 80 65 68 63 51 35 30 45 86 106 101 92 83 78 75 45 158 255 255 180 87 83 82 88 88 91 80 76 46 35 55 63 64 63 69 73 68 68 67 69 68 63 63 62 63 62 60 57 53 52 51 48 59 49 46 60 97 111 104 92 77 77 76 47 157 248 219 158 89 84 84 88 90 89 85 79 61 50 53 57 60 52 41 41 35 44 49 52 45 45 45 41 42 56 66 71 68 72 66 83 94 88 77 87 103 107 100 87 77 77 77 47 120 162 147 136 91 84 83 84 86 88 93 82 72 72 89 93 81 79 79 83 77 71 81 82 77 91 99 101 109 114 115 89 88 86 99 105 105 107 108 99 104 100 94 81 73 76 76 46 91 141 131 116 95 84 85 83 87 90 90 92 86 91 101 101 94 84 83 91 113 124 129 124 127 137 125 116 129 129 100 96 98 106 106 111 118 120 114 114 107 101 90 80 77 77 74 45 85 127 113 111 116 86 83 83 82 84 92 93 95 103 107 104 95 87 84 85 102 141 156 117 117 131 107 96 101 100 99 106 105 99 107 120 127 126 117 114 108 105 89 77 74 73 69 44 93 143 115 129 144 96 82 80 80 77 82 88 98 108 113 107 101 93 93 94 99 103 109 110 114 117 109 104 107 103 95 98 97 104 118 127 130 127 123 117 100 101 80 70 69 69 67 43 94 145 139 113 148 123 83 83 78 78 83 83 89 105 110 111 110 101 91 91 98 99 104 104 106 107 90 87 80 79 83 90 102 116 127 131 128 123 119 120 99 90 74 64 70 67 69 41 96 138 144 140 143 148 91 79 80 79 82 83 86 99 106 109 111 109 99 84 71 64 60 57 57 61 64 68 71 81 94 107 117 128 133 130 125 115 113 109 98 81 70 64 66 62 67 42 97 147 153 150 149 146 124 84 80 77 81 78 85 94 100 107 115 117 113 108 101 96 87 79 77 74 74 80 89 101 114 125 132 137 133 127 117 114 109 107 94 70 65 63 61 64 68 44 83 152 164 157 145 151 147 97 81 75 75 75 80 89 94 101 113 121 124 122 117 118 110 107 107 105 104 107 114 122 133 136 138 135 134 126 113 109 105 99 86 75 61 61 63 67 72 44 68 128 161 161 155 147 147 133 84 78 76 79 78 83 93 98 109 124 130 131 130 134 130 124 121 124 132 136 138 141 138 137 137 133 129 121 110 106 96 88 77 71 66 63 65 68 69 41 72 144 146 147 150 143 142 151 114 82 76 77 79 83 90 93 106 120 131 137 143 145 142 142 144 147 149 151 150 145 137 130 131 130 127 113 106 93 86 78 68 69 64 63 69 67 66 40 94 150 143 148 141 140 143 153 164 91 80 76 77 76 85 92 100 112 129 137 142 145 147 144 141 144 143 148 145 137 130 130 127 126 118 109 98 87 78 68 69 67 62 65 66 63 64 37 96 154 143 142 140 140 145 156 173 145 79 80 76 76 77 90 95 105 118 130 141 147 147 140 136 140 141 141 137 133 131 127 126 122 110 97 86 78 73 70 65 60 62 62 61 61 59 37 76 122 135 144 140 141 148 161 176 172 121 75 78 77 79 85 88 97 106 118 123 125 134 133 131 132 132 127 124 125 121 117 120 111 99 85 80 72 71 67 60 61 59 58 58 57 57 38 92 156 151 144 140 144 152 165 180 173 152 86 70 74 78 83 85 91 97 107 112 118 119 117 121 121 122 115 114 112 112 113 109 99 88 79 75 70 67 60 58 57 56 57 55 53 58 38 100 158 150 145 145 149 157 169 179 172 159 102 70 64 66 72 84 85 89 93 98 106 106 107 110 107 108 108 104 102 102 100 94 86 79 74 72 67 59 56 56 54 54 53 55 56 60 39 99 155 150 146 148 153 161 172 179 174 162 114 60 65 63 61 67 83 82 84 84 92 97 97 97 98 98 96 96 93 91 86 80 75 71 72 68 57 54 52 50 50 51 51 53 56 60 35 60 95 91 92 94 97 102 107 111 109 101 77 33 37 37 36 34 41 51 50 51 51 53 54 52 53 58 55 52 46 48 47 44 42 43 42 36 33 32 31 31 30 30 31 35 36 37 23 