P2
48
60
255
33 59 61 67 70 72 75 75 77 77 79 78 78 79 79 79 80 81 81 82 83 83 81 83 83 83 82 82 82 83 82 84 84 85 84 85 85 84 83 82 78 74 72 72 69 63 54 27 54 95 100 105 108 115 116 120 124 126 129 127 127 129 129 129 130 130 130 131 132 131 131 130 131 134 133 133 134 133 133 135 137 138 140 139 137 137 132 126 122 120 117 115 111 102 90 46 55 96 101 104 106 110 113 117 123 126 129 127 129 128 129 130 132 133 132 133 132 131 132 135 135 136 136 135 138 137 137 139 142 141 141 141 139 135 131 126 123 119 118 116 112 103 92 48 54 93 98 100 103 109 112 114 120 121 124 127 128 128 130 131 131 136 135 134 134 136 135 138 139 139 138 136 138 139 142 142 142 140 135 136 133 126 120 114 110 116 116 113 110 104 100 55 54 91 95 98 101 104 100 101 108 114 118 123 126 129 133 134 132 137 139 139 140 140 142 143 143 142 142 139 140 141 142 140 138 136 134 128 119 105 93 78 73 84 109 110 106 103 101 60 55 89 94 97 94 73 65 71 84 94 98 110 120 124 129 137 138 142 146 144 146 147 147 149 149 148 144 142 140 142 140 138 141 132 114 98 79 62 60 56 60 68 77 102 103 102 102 63 53 86 88 76 60 49 52 55 56 61 66 76 100 113 125 137 138 143 142 139 144 144 146 150 148 151 148 142 139 147 145 143 127 96 70 60 54 48 52 49 50 54 61 63 84 99 102 64 50 73 58 48 49 49 47 46 44 54 50 51 53 66 83 104 112 123 120 122 138 145 147 143 145 143 142 136 123 117 111 100 73 56 51 45 45 44 51 63 68 62 58 53 55 76 99 63 39 50 49 47 46 47 50 44 41 41 42 40 42 46 53 62 69 75 97 105 122 132 134 126 129 130 120 109 93 82 70 54 52 45 42 41 46 69 94 98 102 107 91 72 65 56 82 63 29 48 51 59 65 64 62 54 47 42 37 37 36 37 40 46 52 55 73 89 103 115 119 112 111 118 115 99 80 70 53 45 42 41 49 66 87 104 111 115 116 116 115 108 84 62 67 60 31 55 69 73 78 88 94 86 79 76 63 49 45 43 40 41 45 53 64 81 91 109 111 101 99 104 105 97 73 60 48 47 57 69 80 92 103 108 111 113 114 114 116 107 94 83 70 53 38 65 74 81 87 92 95 96 96 98 95 89 79 68 63 57 53 55 65 80 88 105 109 110 115 112 104 92 79 69 72 76 82 87 96 106 115 115 113 109 105 103 109 109 104 93 77 53 39 72 79 81 82 85 90 98 105 110 112 112 103 91 82 77 71 66 65 75 87 100 118 126 129 125 111 98 87 82 81 84 91 97 103 113 119 118 115 108 101 98 99 103 104 96 88 52 43 75 77 76 77 79 82 89 95 100 103 102 97 92 89 86 81 75 73 77 91 109 126 133 140 138 118 100 85 80 83 89 91 94 101 109 118 119 117 112 105 96 95 95 97 98 93 55 44 71 74 72 69 69 71 79 88 98 105 107 101 91 79 76 79 77 72 76 87 105 123 134 140 134 114 93 81 79 81 81 85 94 102 111 119 121 119 108 100 94 92 88 92 95 95 56 48 76 75 74 70 69 73 79 87 98 105 107 103 96 92 81 73 75 77 76 85 102 119 131 136 128 107 91 85 89 90 90 90 92 95 102 106 113 110 102 97 92 90 89 94 93 96 61 54 84 79 76 72 70 68 72 79 82 82 81 79 72 68 68 71 86 97 85 86 102 120 133 136 123 105 94 108 107 87 71 63 59 62 65 76 91 98 94 90 87 89 93 94 97 99 61 57 93 85 76 71 63 49 42 41 41 41 42 50 48 57 71 82 86 95 86 88 105 125 135 136 122 106 98 103 109 106 92 76 63 66 60 46 47 49 55 67 75 82 92 97 101 106 65 61 99 95 86 79 66 49 46 48 57 62 68 70 74 79 88 94 97 92 87 90 105 124 134 134 120 106 103 103 110 110 103 95 90 85 83 79 73 63 50 46 54 78 92 100 109 112 71 62 101 100 94 88 83 80 78 81 89 95 97 97 94 96 100 99 96 91 90 93 106 124 132 133 120 107 106 110 112 114 115 113 109 107 106 103 99 91 84 78 78 86 103 111 118 120 74 61 102 101 100 97 94 94 94 96 99 105 109 111 109 108 107 103 96 95 92 94 105 120 130 131 121 108 107 116 114 118 125 129 126 124 121 115 113 112 110 105 102 103 109 119 123 123 75 61 100 102 106 106 107 109 109 113 118 123 124 121 118 116 113 108 100 95 94 93 103 118 128 128 121 109 108 112 119 124 127 135 136 135 133 132 130 126 121 118 117 115 117 123 124 122 74 61 98 104 110 114 118 115 116 121 128 131 127 127 121 118 116 110 100 95 95 94 105 121 128 129 121 111 107 109 118 129 134 134 140 138 135 139 139 140 138 134 129 128 127 128 127 123 74 59 98 105 112 118 122 122 123 127 128 126 126 125 124 125 118 107 98 95 93 97 108 122 128 127 122 115 109 109 115 127 139 139 135 141 143 143 143 142 145 143 138 137 137 134 126 123 74 59 99 105 112 118 122 125 128 129 128 117 121 127 127 123 113 103 96 95 93 104 114 124 130 129 123 114 107 106 112 122 135 144 141 143 143 141 140 141 144 145 145 142 142 138 127 122 73 58 100 105 107 113 121 124 127 126 123 126 127 129 123 113 108 102 96 93 100 113 123 129 134 132 126 120 113 104 108 120 130 141 146 146 146 145 143 142 143 144 144 144 142 137 128 122 75 56 99 103 106 112 116 121 125 128 128 127 130 128 123 118 110 103 93 92 103 116 130 138 138 135 135 126 117 108 101 120 132 138 143 145 149 148 147 147 147 143 142 143 139 137 128 122 76 58 98 102 105 109 114 121 124 129 131 129 129 125 122 119 113 98 91 92 104 117 140 141 140 142 152 136 123 113 105 110 132 141 146 147 148 149 149 146 150 147 143 142 139 135 127 122 75 58 95 98 101 107 117 121 127 132 133 132 128 127 122 117 107 93 95 94 102 116 138 140 139 145 156 136 123 113 108 109 120 136 146 151 150 148 149 149 151 149 146 143 137 132 126 121 73 57 95 99 102 107 117 122 125 133 133 131 126 126 122 112 102 94 97 93 92 104 119 128 133 132 134 123 110 105 106 110 111 124 138 149 150 150 151 150 153 151 147 143 138 132 124 116 72 57 95 96 99 106 115 123 129 133 133 130 127 125 116 110 101 93 93 86 81 85 97 112 118 120 115 100 91 90 96 103 107 116 131 143 147 152 151 153 150 147 146 142 137 132 126 116 72 58 94 95 98 105 115 123 129 130 131 128 125 121 114 109 100 87 82 63 46 58 79 90 96 98 93 83 59 49 69 91 103 115 127 137 145 149 150 153 149 145 143 141 132 126 122 114 71 58 92 94 96 102 111 120 127 130 129 127 122 117 116 110 104 93 71 59 72 78 73 69 71 75 80 90 89 85 73 90 111 123 126 133 141 148 148 150 146 143 142 136 130 122 121 117 73 57 90 93 96 101 108 117 125 129 127 125 122 120 118 113 109 105 88 76 79 86 91 90 81 83 94 95 90 88 96 110 122 128 130 134 140 145 144 148 144 142 140 133 126 121 118 118 71 55 91 91 94 100 105 114 121 125 125 124 123 123 120 115 112 110 105 102 97 99 108 116 119 114 107 107 105 106 112 118 127 129 133 137 142 143 145 147 144 139 136 131 124 119 114 117 70 54 89 91 96 100 104 112 120 122 123 124 123 122 121 116 112 109 109 107 106 109 120 126 127 123 119 121 116 112 112 119 123 129 134 138 142 143 142 140 142 138 133 127 123 119 116 118 71 56 88 93 96 98 104 109 116 120 119 122 122 121 117 112 111 108 108 108 110 115 119 122 116 119 123 122 124 119 119 118 119 125 129 135 139 141 140 139 136 134 129 125 120 119 119 117 74 55 90 92 97 96 101 107 114 118 119 122 118 118 111 109 109 105 108 111 116 116 117 113 111 118 125 124 126 121 117 116 114 120 125 130 134 140 139 138 134 131 126 124 120 119 115 115 76 53 87 88 96 95 99 106 112 115 114 116 108 110 108 105 105 101 111 115 119 125 126 129 124 130 130 130 131 115 119 116 112 118 120 123 123 137 137 135 130 127 122 119 117 121 117 110 72 54 84 91 93 94 96 105 110 112 110 106 94 103 101 97 104 105 112 114 124 129 135 134 126 122 129 138 136 126 126 119 118 117 119 123 115 120 129 132 129 121 119 116 114 118 115 106 69 52 89 91 89 94 96 100 108 111 105 95 90 93 100 99 101 105 112 109 119 128 132 137 137 136 137 139 138 135 126 117 116 114 117 114 110 105 120 129 125 120 119 118 119 118 109 108 69 51 89 92 92 92 91 97 107 109 101 93 88 87 91 93 90 95 100 97 94 94 94 97 106 109 101 97 101 107 109 111 110 109 106 109 107 97 117 127 124 120 119 117 115 116 111 110 71 54 89 91 94 93 94 95 103 109 104 93 94 83 78 70 65 75 74 65 62 60 56 57 67 71 60 61 66 69 74 87 90 84 90 98 94 104 117 121 125 123 119 115 112 112 110 109 77 72 88 88 89 92 93 93 97 107 108 101 99 92 85 77 77 71 74 83 92 96 87 82 82 81 81 86 89 99 93 83 77 77 74 82 97 107 111 119 128 121 117 114 113 111 111 111 76 124 88 84 86 90 90 90 95 105 111 110 107 106 106 105 97 92 84 92 102 122 123 114 116 117 112 110 116 126 102 90 96 101 102 105 110 112 118 126 126 119 114 114 113 111 109 115 76 152 111 84 89 88 85 89 97 103 111 112 110 113 114 109 98 88 88 92 94 96 104 108 105 102 105 105 102 96 87 90 89 100 117 118 120 121 124 128 125 116 113 111 112 110 110 118 98 158 179 84 87 87 85 87 93 101 108 112 112 115 115 114 109 99 88 85 85 82 80 81 80 81 80 81 82 83 81 89 99 118 128 126 123 123 125 128 123 119 110 110 108 108 109 124 133 158 239 100 85 87 86 85 89 97 103 109 113 114 115 116 115 110 103 92 82 75 70 62 57 56 58 61 66 77 91 106 118 128 128 126 122 124 128 129 119 111 102 103 104 105 109 131 150 158 254 165 82 84 84 84 85 94 99 107 110 113 112 114 117 114 115 115 115 112 105 98 99 102 101 96 93 103 112 119 124 127 127 121 119 123 125 124 115 107 96 100 103 104 111 139 153 158 255 227 88 77 79 81 82 91 100 104 108 112 113 112 115 119 121 123 124 121 116 120 126 124 125 124 120 118 120 121 125 129 126 119 119 123 122 120 114 105 101 101 102 103 111 143 154 158 255 241 100 75 75 77 82 85 93 100 104 109 110 112 116 121 126 129 127 122 123 127 134 128 131 130 129 124 128 130 136 133 128 123 122 124 120 114 108 103 100 96 96 104 109 145 155 158 255 248 113 77 74 73 79 80 87 90 99 105 108 112 117 124 129 129 128 126 129 136 136 134 134 133 128 130 131 134 138 138 133 130 126 123 116 109 103 98 94 92 93 102 105 144 155 158 255 253 139 80 71 71 73 76 80 87 93 96 104 108 111 117 122 126 128 127 129 138 133 127 130 134 132 129 128 130 132 133 130 127 122 117 108 106 99 95 86 86 96 97 102 147 155 158 255 255 161 80 72 65 68 70 71 77 81 88 99 99 100 106 109 117 122 125 129 131 128 130 130 133 132 130 127 126 123 120 116 117 108 99 95 91 91 85 82 85 90 96 105 151 156 158 255 255 181 82 73 64 60 61 66 63 73 75 85 93 93 99 98 106 111 118 126 126 123 124 125 124 124 122 119 114 107 107 106 99 93 89 81 83 80 77 76 82 88 95 105 156 157 158 255 255 202 84 78 70 59 55 58 60 61 66 68 75 83 89 93 97 99 101 107 116 115 117 119 113 111 112 110 103 100 97 98 90 80 74 70 72 72 74 75 83 89 96 106 158 157 158 255 255 218 89 79 72 62 55 53 53 57 59 58 60 69 76 84 85 87 90 91 98 97 101 98 98 93 93 91 87 87 86 80 75 70 67 65 66 67 70 76 84 94 98 107 156 157 158 255 255 231 94 80 76 64 58 56 53 53 54 54 53 53 55 64 64 69 69 70 77 82 82 77 77 76 71 68 75 78 71 63 60 60 61 64 64 67 72 80 89 94 100 107 156 157 158 255 255 239 97 81 78 70 60 57 54 55 54 54 51 47 45 45 48 53 51 52 54 50 50 49 47 49 50 49 54 52 52 54 55 59 62 66 68 71 74 81 90 95 98 106 152 157 98 158 158 150 63 51 50 45 38 36 35 35 34 34 33 31 27 25 24 24 24 24 23 22 22 22 23 23 24 24 27 28 30 34 36 38 40 43 42 43 48 52 57 62 62 65 93 97 