P2
48
60
255
42 78 88 89 88 86 46 22 22 29 29 19 26 35 61 59 45 36 33 40 48 54 60 65 69 71 73 69 55 36 50 49 55 39 33 28 30 35 40 30 26 22 23 23 25 27 30 13 66 128 139 143 143 140 115 39 33 36 35 31 46 60 91 92 79 54 48 63 77 89 98 104 108 115 119 115 95 59 77 82 92 71 50 45 42 50 58 49 43 36 37 37 41 44 40 19 74 129 140 146 146 140 137 80 45 34 32 35 47 69 85 86 79 68 61 72 89 93 96 100 102 106 121 117 103 67 69 84 88 80 48 43 41 46 49 49 45 38 37 38 43 44 37 19 80 136 139 145 136 117 117 111 66 46 34 41 52 68 72 73 73 75 82 90 94 95 96 97 97 108 120 116 114 77 86 90 105 96 53 41 39 41 43 43 42 43 38 36 45 45 42 20 83 137 142 122 85 70 76 86 84 89 59 53 55 60 66 74 81 89 95 97 96 96 96 95 93 106 113 120 122 89 90 106 116 115 66 42 38 44 38 40 40 41 39 43 52 54 44 24 85 139 112 91 77 85 85 68 62 66 65 54 52 60 73 81 87 93 96 102 99 98 95 92 91 100 108 120 125 106 72 104 119 118 88 48 35 53 47 39 36 41 38 44 45 46 44 26 82 127 93 96 117 141 142 123 89 63 45 35 39 50 62 72 82 86 94 100 104 104 100 96 96 99 108 120 124 117 79 96 107 106 90 59 34 51 58 50 43 40 46 40 42 46 47 29 82 101 100 127 142 144 145 142 128 107 82 46 36 37 43 55 70 79 90 99 108 112 112 107 106 103 105 117 121 116 104 66 83 92 79 68 36 36 46 44 47 40 51 44 40 44 49 29 80 107 122 144 142 135 134 131 129 118 106 93 64 40 35 40 55 69 85 105 115 122 125 117 111 106 101 105 100 96 89 73 49 51 50 48 37 31 33 34 36 36 44 51 40 39 53 33 77 117 136 138 130 123 111 103 102 100 95 93 86 74 58 48 52 69 90 111 123 132 131 126 116 107 97 90 78 62 56 45 40 35 33 32 35 36 34 39 37 38 40 42 52 41 42 28 80 129 131 129 117 103 81 68 63 62 62 65 67 73 75 72 70 77 100 117 130 135 138 136 125 110 94 82 63 48 38 35 34 34 37 42 51 57 41 36 34 37 38 40 58 55 49 29 81 131 127 117 102 81 61 64 82 78 79 61 51 54 66 74 80 89 104 123 137 142 146 145 135 120 102 83 67 60 52 50 51 50 48 48 51 52 49 40 35 38 49 51 47 67 56 32 81 129 120 108 90 68 93 105 107 78 91 81 86 74 60 63 70 82 103 126 142 153 157 156 147 132 114 96 81 73 65 56 46 39 36 36 40 39 43 47 55 60 67 76 60 50 59 42 82 127 117 105 84 77 73 57 58 70 57 49 53 62 71 64 63 69 90 124 146 157 163 164 155 137 118 99 82 70 56 39 31 30 29 30 30 33 39 43 55 69 75 75 80 88 107 69 84 126 114 98 79 67 44 60 110 88 107 35 71 80 63 66 75 69 82 117 147 165 172 170 163 144 123 101 76 60 46 40 37 44 41 32 40 51 40 39 45 56 82 99 109 118 124 76 85 129 113 92 70 51 46 93 139 97 45 27 62 98 109 65 70 90 101 115 146 168 177 177 169 147 125 98 76 63 56 52 66 59 61 25 96 65 80 49 37 47 61 96 111 120 125 77 86 134 123 101 86 80 72 112 141 104 76 35 73 102 132 92 78 100 150 130 145 170 181 182 173 150 126 108 102 83 68 76 101 84 57 27 43 86 115 87 48 47 62 83 108 120 126 77 86 138 137 137 130 97 91 130 142 127 109 99 109 132 145 113 126 143 152 143 148 170 184 182 176 151 129 122 131 101 102 98 132 120 101 81 98 92 126 113 82 69 76 89 107 121 125 76 85 142 147 149 147 119 109 102 119 127 136 130 119 130 130 130 124 132 148 147 146 168 182 180 172 152 134 126 129 130 135 134 129 133 126 118 121 127 128 113 97 101 116 117 119 125 127 76 85 145 150 152 151 139 118 116 119 114 111 118 118 123 125 115 119 149 154 149 145 162 178 180 176 153 136 130 132 131 122 131 135 135 129 114 112 118 126 136 128 125 135 137 133 130 130 76 85 143 150 155 150 145 130 116 114 116 113 117 116 113 115 132 154 161 153 151 147 163 183 178 177 159 137 133 139 148 144 130 124 131 134 131 124 128 132 133 132 135 142 144 140 134 130 77 83 142 151 156 156 149 147 133 117 112 109 111 120 134 149 168 170 158 152 151 151 169 189 184 175 167 141 137 140 153 167 165 148 127 115 113 116 117 120 124 131 139 147 148 144 137 130 77 83 141 151 157 161 165 169 170 169 169 168 166 171 178 184 179 166 157 150 151 152 175 191 184 176 168 145 137 140 152 168 180 181 172 165 154 147 140 139 145 150 155 159 153 145 139 131 76 82 141 149 155 159 166 172 177 178 184 189 190 188 192 189 178 161 151 147 148 150 173 192 184 179 172 150 136 138 148 163 176 184 182 184 182 179 179 176 176 171 166 163 157 148 139 131 76 80 141 148 152 155 162 166 176 181 193 197 201 195 194 186 171 154 149 150 148 150 169 193 185 180 173 148 135 136 142 153 166 179 181 183 187 184 182 182 179 174 167 163 154 147 139 130 75 77 140 144 150 154 158 163 170 181 195 197 200 196 190 179 168 153 147 151 148 149 170 194 187 178 167 148 134 131 138 145 163 173 174 181 185 183 184 183 182 171 162 156 150 145 138 128 75 74 137 142 147 150 156 162 170 182 194 199 202 192 186 178 162 146 140 141 147 155 173 190 186 181 167 148 133 128 129 141 157 169 175 179 183 179 180 179 176 169 162 153 146 139 134 127 74 68 138 144 147 149 153 159 169 179 189 198 192 185 183 169 150 138 130 137 149 163 173 183 182 177 169 152 138 127 120 126 145 163 173 175 179 181 182 183 178 173 165 153 149 142 133 128 73 61 135 143 145 147 152 154 164 172 180 189 184 176 168 152 134 125 134 144 152 167 181 184 180 175 169 151 138 128 130 115 126 150 165 165 171 179 182 178 174 169 160 152 147 141 134 128 73 53 131 137 142 144 147 153 159 165 173 176 173 164 153 133 116 116 145 146 154 169 194 198 183 179 174 148 136 131 137 126 108 137 158 161 167 172 170 169 165 159 149 146 141 139 135 129 73 43 125 134 137 138 142 146 151 159 168 168 162 154 138 117 105 118 146 144 151 164 178 176 174 183 184 149 134 133 139 130 99 116 146 156 160 161 161 157 153 146 140 139 136 137 135 129 75 32 119 132 131 134 137 140 147 154 160 160 152 141 120 93 97 117 131 128 136 149 155 157 160 163 162 144 135 129 132 124 107 98 126 146 150 150 152 146 140 136 131 131 129 129 131 126 73 19 111 128 131 129 132 136 142 146 151 149 141 122 99 80 94 123 118 85 98 120 133 140 142 140 133 123 118 109 103 122 116 93 104 135 146 145 145 140 133 127 125 123 123 123 125 125 74 14 105 127 127 126 128 134 138 142 142 139 128 106 83 73 103 133 136 101 57 87 113 113 116 114 105 96 86 83 118 129 126 102 89 117 136 143 140 135 127 121 120 118 118 117 122 123 73 12 95 125 124 125 126 128 131 135 132 127 111 88 69 82 124 140 144 134 98 84 95 96 92 98 98 97 101 113 129 135 130 111 92 103 124 134 137 132 125 120 116 113 113 113 117 119 74 12 84 124 125 123 124 125 127 128 127 116 98 77 70 93 127 142 146 141 125 109 92 89 81 90 101 98 103 123 134 135 130 116 90 89 117 131 135 132 127 118 114 111 110 113 117 119 72 11 68 122 123 123 124 123 125 126 126 113 95 74 64 99 138 147 150 148 140 123 91 69 68 67 69 87 115 132 138 137 134 123 93 73 98 122 134 133 131 127 120 112 110 112 115 117 73 10 48 118 123 124 124 127 129 128 123 110 86 64 57 120 144 148 154 152 152 144 123 95 86 79 78 107 129 134 137 138 135 131 116 65 70 101 120 125 128 130 124 116 111 112 116 118 73 11 27 109 122 125 125 130 129 126 120 105 75 55 51 126 139 144 149 148 151 153 154 164 169 151 121 118 134 137 135 134 133 128 123 76 52 71 97 116 127 128 124 119 114 114 117 116 73 13 19 90 121 124 127 130 132 129 118 97 69 45 31 64 96 111 113 115 119 126 133 141 151 147 120 104 105 106 103 99 97 94 86 54 31 49 70 108 127 126 124 120 117 114 116 116 72 17 22 61 116 123 128 133 136 136 125 98 70 44 50 81 75 80 77 80 88 99 107 114 118 112 101 91 84 79 73 71 71 72 71 83 65 62 80 108 126 126 123 120 119 116 115 114 70 18 25 30 103 119 127 134 135 139 133 119 101 84 122 137 113 98 98 99 99 97 89 82 72 69 77 91 98 99 97 96 88 90 108 128 114 97 103 115 126 126 123 120 120 115 115 115 68 15 25 19 72 114 125 134 134 139 139 140 134 134 158 155 135 110 104 117 133 160 163 149 139 135 139 137 136 139 129 97 91 107 128 135 132 122 115 120 128 124 120 118 118 115 115 113 65 16 28 20 38 105 119 129 133 136 140 143 147 157 165 163 150 132 111 105 113 141 149 142 133 132 128 127 127 117 97 94 110 129 137 141 137 132 121 117 124 122 118 116 117 114 113 110 58 17 27 22 20 77 114 125 130 131 138 143 148 161 167 163 156 147 136 123 109 101 107 113 112 110 106 103 101 102 112 123 132 138 140 142 138 132 125 118 119 119 117 117 116 113 111 105 38 16 26 25 17 36 102 120 127 128 131 138 145 154 160 161 158 152 143 139 131 120 109 105 110 111 110 107 112 124 134 139 141 143 147 142 138 132 126 120 115 115 114 115 115 113 108 91 16 15 25 27 18 19 70 111 120 124 127 131 135 145 155 159 160 156 150 147 138 131 126 123 123 124 125 130 132 139 140 141 147 148 151 148 143 135 126 119 115 114 114 115 115 111 106 61 11 15 25 29 17 16 31 91 115 119 122 126 130 140 149 155 155 157 156 151 145 141 133 131 134 129 132 138 140 142 144 149 151 151 152 149 143 135 125 119 114 112 116 115 114 108 91 26 10 15 24 29 18 15 17 52 103 114 120 123 128 135 143 150 140 153 158 156 151 148 147 138 142 141 139 144 145 145 148 150 152 154 153 146 141 133 124 118 114 114 117 114 111 100 53 15 10 16 24 29 19 16 16 28 79 108 119 122 126 133 143 147 146 151 160 158 160 164 166 166 165 164 164 162 158 156 155 157 155 157 152 144 137 131 124 118 116 117 116 112 105 79 22 15 10 14 25 29 21 15 15 24 64 98 113 121 125 132 141 146 149 155 158 160 166 170 173 171 167 165 163 162 167 167 165 163 157 157 147 139 132 128 122 120 116 115 113 107 95 51 15 16 11 14 24 28 20 16 15 23 58 99 107 117 125 131 139 145 146 150 158 164 171 176 167 175 166 169 168 167 168 171 168 166 160 156 146 136 132 127 122 118 114 111 106 97 93 42 15 15 11 14 24 28 20 15 14 24 54 98 115 109 120 128 136 142 144 147 154 162 170 178 177 181 169 171 173 171 171 166 167 164 163 145 138 133 129 124 120 115 113 105 99 102 95 37 15 16 11 14 24 27 21 16 15 24 51 95 124 117 108 121 132 138 143 145 150 158 163 176 180 177 169 175 175 171 172 171 166 160 159 145 134 130 127 120 116 111 105 98 106 110 93 34 16 18 12 16 25 26 20 17 15 25 49 92 125 130 111 110 123 133 130 142 146 149 153 164 170 169 171 171 170 168 170 169 163 160 153 141 130 126 120 117 110 104 101 112 116 110 91 31 19 17 10 17 27 26 18 18 15 27 48 87 124 136 127 110 111 128 130 138 142 143 146 152 159 161 164 164 161 162 161 161 156 150 141 134 127 123 118 110 102 102 112 116 115 108 87 29 18 16 10 16 30 25 16 22 16 29 47 84 124 135 136 126 110 111 125 131 136 138 139 142 143 145 147 153 154 156 155 154 145 136 129 127 122 118 110 100 102 113 117 117 115 106 86 30 19 17 10 17 32 22 17 21 16 32 46 82 124 138 137 134 124 110 107 122 129 131 132 131 134 137 141 143 141 142 140 136 130 120 120 118 118 110 102 102 110 117 120 119 116 106 87 33 20 18 10 19 34 21 19 18 21 37 46 81 123 139 138 137 132 124 111 104 116 124 126 122 121 120 123 123 120 124 123 118 115 112 113 111 108 101 104 111 117 121 122 121 115 107 91 37 22 19 10 13 21 13 10 13 20 25 29 50 75 86 88 85 84 81 74 67 62 69 75 74 69 66 64 64 65 67 66 66 67 69 68 65 62 65 69 72 75 76 75 75 72 68 58 25 14 12 6 