P2
48
60
255
18 26 29 34 30 25 33 36 35 31 28 40 45 41 43 41 40 39 39 30 29 34 38 36 35 37 31 34 40 40 37 36 36 35 34 30 31 29 33 35 34 33 34 35 33 34 36 23 27 44 47 54 44 39 54 60 57 53 45 66 73 67 71 66 66 65 63 51 45 54 59 58 57 61 52 52 64 66 61 58 59 56 56 48 51 47 53 57 56 52 54 55 53 54 58 37 26 44 47 48 42 41 57 61 58 59 45 67 71 68 72 68 67 66 64 55 43 53 56 58 57 61 60 50 62 66 63 57 59 56 56 49 50 49 49 56 58 52 53 54 53 54 58 36 26 45 45 50 41 42 59 60 59 66 45 69 74 69 70 71 67 67 65 62 43 50 54 59 57 62 65 50 56 64 67 56 57 59 54 50 50 50 49 54 57 54 51 53 53 54 57 37 26 44 45 48 39 43 58 56 61 74 52 66 74 69 69 74 68 69 68 66 50 45 55 57 57 62 66 59 51 61 65 59 54 59 56 51 49 52 47 51 56 56 50 51 52 52 55 37 25 45 47 46 39 41 54 53 64 79 65 52 70 69 67 73 71 70 69 67 60 43 52 55 57 61 66 67 48 55 60 63 53 56 56 54 48 53 47 51 52 55 51 49 51 53 54 37 25 45 48 44 39 37 44 46 60 69 70 48 60 68 64 73 72 69 69 67 64 46 45 53 56 58 65 66 58 47 53 59 57 52 56 54 48 50 47 50 51 50 52 49 49 53 54 35 25 47 47 41 38 35 35 38 44 46 48 48 50 60 60 68 71 70 70 69 65 57 41 49 51 58 60 64 64 50 48 52 57 53 51 48 44 45 45 45 47 47 48 49 47 51 54 34 25 47 41 38 38 37 35 37 44 45 44 42 43 45 50 58 66 68 69 69 66 63 47 43 48 53 58 58 61 58 46 44 45 45 42 41 39 39 40 42 42 42 44 47 48 48 54 34 25 47 38 41 42 43 39 43 52 57 56 49 45 43 45 49 57 63 66 67 66 67 61 47 44 47 53 55 53 51 45 39 38 40 40 40 40 40 40 42 44 44 44 45 46 48 51 33 25 47 43 46 45 43 44 44 54 64 65 62 59 54 51 52 53 56 61 65 66 65 65 62 51 48 47 50 47 43 40 39 39 39 42 43 43 42 43 45 46 49 48 48 49 49 50 33 25 48 46 48 47 42 44 45 52 63 66 64 62 59 58 58 57 55 58 65 65 64 65 65 62 56 51 48 45 44 43 43 43 45 47 47 45 43 43 45 46 49 50 50 51 52 52 32 26 44 47 46 49 43 43 45 51 56 60 60 60 57 56 55 56 57 60 65 69 68 69 67 64 60 54 49 46 43 44 45 46 48 49 47 43 40 40 42 45 46 48 50 50 52 51 33 29 44 47 47 50 50 46 44 44 50 54 55 52 48 52 55 56 58 64 70 73 75 75 72 69 63 55 49 43 43 45 45 48 52 53 48 45 42 39 38 40 43 47 48 49 52 54 34 32 48 49 46 51 54 50 46 45 47 45 41 40 41 41 48 57 58 63 72 79 82 80 78 77 69 57 48 42 43 45 51 51 43 42 34 33 34 36 36 39 40 45 48 48 52 55 34 34 54 51 50 48 52 48 42 36 36 33 40 29 30 36 41 51 57 62 72 82 89 89 87 85 73 58 49 44 47 51 49 57 60 40 33 33 39 41 40 37 39 42 47 49 52 56 35 34 61 54 54 46 41 38 35 43 52 41 33 29 34 47 51 52 66 70 74 84 92 93 92 88 76 62 55 54 60 51 47 68 75 50 40 40 45 51 47 45 45 46 51 54 55 58 36 31 61 65 55 50 46 43 48 52 63 64 45 41 48 60 59 62 77 79 77 86 95 95 94 91 81 65 61 63 67 67 68 67 69 66 61 60 62 54 46 47 49 56 61 63 63 60 37 33 65 69 58 55 53 54 50 51 55 62 64 64 63 64 69 76 82 80 80 88 96 97 95 94 82 69 67 68 72 72 71 70 67 61 57 55 53 53 55 59 61 66 69 72 72 67 38 39 64 72 65 62 64 66 62 59 58 56 56 60 63 69 74 79 86 83 81 89 96 95 94 93 83 71 69 72 76 76 71 70 70 69 66 65 63 64 65 66 70 72 74 77 77 74 42 43 71 73 70 67 69 75 76 74 72 70 71 74 75 76 80 87 89 84 82 90 94 94 94 91 81 72 70 72 77 81 79 73 72 71 71 70 69 69 72 75 76 79 81 82 79 77 45 45 74 75 74 74 74 81 83 84 83 83 81 79 78 81 88 90 89 84 83 89 93 95 94 88 78 72 72 72 76 82 85 83 78 76 74 75 78 79 80 81 82 84 84 82 80 76 46 45 74 77 79 83 80 83 87 90 88 87 83 83 86 92 91 89 86 83 83 89 91 93 92 85 76 72 71 72 74 82 84 88 89 86 85 85 85 88 88 88 87 86 84 81 79 77 46 46 75 78 82 86 86 84 90 93 92 90 90 92 92 95 93 90 85 82 83 87 89 92 89 81 75 71 69 70 70 77 84 89 91 92 91 91 91 92 94 93 92 88 84 80 77 74 46 46 76 79 83 86 86 88 90 93 93 94 94 95 96 96 94 87 82 80 82 86 90 91 88 79 76 71 68 68 65 73 81 88 91 93 93 93 94 93 94 93 89 85 82 80 77 74 46 45 75 79 83 85 86 87 91 92 94 96 95 97 97 96 94 86 81 79 82 86 90 90 87 81 77 73 69 66 67 70 77 83 88 91 93 94 94 93 92 90 85 82 80 77 75 74 45 46 75 79 83 84 87 88 91 92 94 96 97 97 96 95 91 84 77 78 83 88 92 91 88 82 80 74 69 65 64 67 73 80 84 88 90 92 94 94 90 87 82 79 78 76 75 73 45 46 75 78 82 83 86 87 91 93 95 96 98 97 94 90 87 79 73 79 85 91 93 92 89 83 81 75 69 64 61 62 69 77 82 85 89 90 92 90 87 85 83 79 77 74 74 71 44 48 74 77 79 81 84 86 90 93 93 97 95 94 90 86 83 75 75 81 87 91 94 93 90 85 81 76 70 67 62 58 66 75 79 84 86 87 88 86 84 83 80 78 75 74 73 71 44 52 74 76 78 80 82 86 89 92 92 94 94 90 86 84 80 75 77 80 87 91 94 90 89 84 79 74 69 67 67 59 63 71 78 81 82 83 84 83 81 81 78 75 73 73 71 70 43 56 75 75 78 78 80 81 85 88 90 93 91 87 84 82 77 77 76 78 79 83 85 83 80 77 71 64 64 64 66 62 63 69 75 79 81 81 81 80 78 77 74 74 71 70 70 68 43 55 77 75 76 78 80 80 83 84 86 90 89 86 83 79 76 75 73 71 68 71 71 70 68 65 58 53 55 57 61 61 63 67 72 77 79 79 79 77 74 75 73 71 69 68 67 68 43 52 80 74 75 77 78 79 81 81 83 86 86 83 81 78 77 74 64 54 48 58 61 59 57 52 45 38 40 50 54 64 69 69 74 77 78 78 77 75 74 73 70 69 68 67 66 66 41 89 89 74 74 75 75 77 79 80 83 87 86 84 80 80 80 79 70 55 52 59 61 58 50 42 39 38 38 43 54 73 76 76 77 80 79 78 76 74 72 70 68 67 66 66 65 66 41 152 115 75 73 74 74 76 78 79 82 83 84 83 82 82 81 80 79 72 67 68 72 70 60 55 53 48 45 50 68 79 81 82 82 81 80 79 76 73 70 68 66 65 65 64 64 65 41 105 140 75 73 73 74 75 77 79 82 84 86 85 83 83 81 80 79 77 76 74 78 76 70 74 76 69 68 72 77 81 83 83 84 82 79 77 75 71 67 66 65 64 63 63 64 65 41 76 157 76 73 73 74 75 76 78 81 83 87 87 86 86 83 81 79 78 77 78 80 75 73 79 83 78 76 77 78 80 81 80 81 80 77 75 73 71 66 65 63 62 62 64 64 66 42 55 112 79 74 73 74 74 76 77 80 82 86 88 87 86 85 82 81 80 80 80 84 78 74 80 83 79 75 76 76 75 78 76 77 78 75 73 70 67 65 64 62 61 62 64 66 68 43 143 220 84 76 75 74 74 74 76 78 80 83 86 87 86 84 83 83 83 83 83 87 86 81 84 87 81 73 74 74 74 76 75 77 75 73 69 66 65 64 62 61 61 63 65 67 69 43 153 243 95 78 76 75 75 75 76 77 78 80 82 84 85 84 84 83 84 84 83 85 85 85 86 82 76 73 73 73 72 74 74 74 71 68 66 63 62 62 62 62 62 64 65 68 70 44 87 247 124 79 77 76 76 76 76 76 77 78 79 80 82 82 83 83 81 76 65 56 57 65 63 52 50 57 65 69 69 70 69 68 67 63 63 63 62 62 62 62 63 65 66 68 69 44 65 238 179 81 78 76 76 76 75 75 77 76 77 75 76 78 77 73 60 50 48 47 46 48 46 42 43 42 43 50 57 58 58 61 62 62 61 63 64 63 63 63 64 65 66 68 61 42 151 254 232 92 79 78 77 77 76 75 77 76 75 73 73 70 62 53 44 45 48 49 49 49 45 45 50 53 45 40 40 43 44 49 55 59 61 63 64 63 62 63 64 65 67 68 60 43 158 255 253 148 81 79 77 77 76 76 77 75 73 71 68 62 54 55 51 57 61 65 67 70 68 71 69 61 53 56 58 63 58 54 57 59 60 61 62 62 62 63 63 65 67 69 68 44 158 255 255 228 92 80 79 77 77 76 77 77 74 71 69 68 72 78 72 66 64 62 61 67 67 65 61 54 56 56 60 63 63 62 59 58 59 59 59 60 61 62 63 65 67 69 70 45 158 255 255 254 165 82 79 77 77 76 75 75 73 70 69 71 73 74 72 68 65 65 64 59 58 56 53 54 55 59 61 61 62 61 59 57 57 58 58 60 61 62 63 65 67 69 71 46 158 255 255 255 244 117 79 77 76 75 75 74 72 71 70 70 69 70 69 70 67 63 57 51 49 48 47 49 56 59 59 59 59 58 57 56 57 57 58 59 61 62 63 65 67 68 73 56 158 255 255 255 255 218 89 78 75 74 74 73 72 71 71 69 68 67 67 65 64 63 56 50 50 50 50 55 56 56 58 60 59 56 55 57 58 58 59 60 61 63 63 65 67 70 88 63 158 255 255 255 255 245 115 79 75 73 73 72 72 72 72 70 68 67 67 66 64 62 58 56 58 57 59 61 60 60 60 60 57 57 59 60 62 61 61 61 62 62 64 65 67 82 83 57 158 255 255 255 255 250 111 90 74 73 72 72 72 72 72 71 70 70 70 71 70 70 69 68 68 69 72 71 70 67 64 61 60 60 63 64 63 62 62 61 61 62 63 65 74 72 75 59 158 255 255 255 255 251 116 85 82 71 70 72 71 71 71 71 72 75 75 77 78 79 78 79 78 80 80 78 76 71 66 63 62 63 64 64 64 62 61 60 61 61 63 70 66 67 76 61 158 255 255 255 255 252 122 86 82 75 70 69 70 70 70 71 73 76 79 83 86 88 85 85 83 80 81 80 78 71 67 65 62 64 63 63 61 59 59 58 59 61 65 61 60 68 77 61 158 255 255 255 255 253 129 86 83 79 71 68 68 70 70 71 71 74 79 82 88 88 85 84 84 80 78 77 73 71 67 62 61 62 62 60 58 56 57 57 58 62 58 57 62 69 78 59 158 255 255 255 255 254 136 86 84 82 78 70 66 67 69 71 70 72 77 79 81 81 83 81 79 78 77 74 71 68 63 61 59 59 59 57 56 54 55 57 59 55 54 58 63 69 79 60 158 255 255 255 255 254 145 85 84 83 81 77 71 64 66 69 70 71 72 74 74 75 75 75 75 74 72 70 65 62 59 57 56 56 55 54 53 54 57 56 52 52 54 59 64 70 78 60 158 255 255 255 255 255 156 85 84 83 81 79 76 71 65 64 67 69 69 70 68 69 69 68 67 66 65 62 58 56 54 53 53 53 53 53 53 56 53 50 50 52 56 60 64 71 77 61 158 255 255 255 255 255 165 85 83 83 82 81 78 74 71 67 63 64 66 67 66 65 63 61 60 58 57 54 51 51 52 52 53 53 53 54 54 50 48 48 50 54 57 61 66 70 75 58 158 255 255 255 255 255 171 83 82 83 82 81 79 77 74 71 68 64 63 62 61 59 58 56 54 53 52 52 51 52 52 53 52 53 54 51 48 46 46 48 52 55 59 63 67 71 74 50 158 255 255 255 255 230 121 81 81 81 83 81 80 79 76 73 71 68 65 62 60 58 57 56 55 55 54 54 53 53 53 53 52 51 48 46 45 44 44 50 54 57 61 64 68 70 72 47 98 158 158 158 136 65 51 50 50 50 51 50 49 49 48 46 44 43 42 40 38 37 36 34 34 33 33 33 33 33 33 31 29 29 28 28 28 28 29 32 34 36 38 40 42 43 44 29 