P2
48
60
255
30 50 53 57 62 59 59 56 54 54 52 52 53 53 54 53 53 54 55 56 57 58 59 58 59 58 57 56 56 55 55 55 57 56 54 54 52 53 53 51 50 53 55 53 55 57 54 32 49 83 86 90 95 99 96 90 86 88 87 88 87 88 88 89 91 89 90 89 89 93 95 97 95 93 93 91 91 90 89 92 93 92 89 88 86 87 86 85 83 83 86 88 88 89 88 52 49 79 83 87 95 102 100 93 90 89 90 90 89 90 91 92 92 92 90 92 91 93 94 94 93 92 93 92 93 95 93 94 96 94 94 91 90 86 87 86 83 81 83 87 88 89 88 53 49 80 82 89 97 106 98 92 88 86 89 90 91 92 95 95 93 95 93 96 95 95 95 97 95 95 94 93 94 98 100 100 97 96 97 94 90 86 85 82 81 81 82 84 86 87 87 53 49 79 83 92 97 93 87 83 83 80 85 88 90 94 101 97 95 95 96 98 97 97 97 99 99 98 98 97 97 99 104 108 102 100 99 97 95 88 84 81 76 78 81 81 83 85 85 52 50 83 87 94 86 77 73 74 75 74 77 79 84 90 95 94 96 96 96 97 98 99 99 99 101 98 98 98 98 99 106 113 105 109 106 100 93 88 84 82 77 73 77 78 79 80 81 51 50 85 90 82 74 67 65 65 66 65 65 67 75 81 83 84 91 93 93 95 96 97 102 98 102 98 96 96 95 92 95 99 96 94 90 89 84 78 77 77 73 75 72 74 76 78 79 50 50 87 80 71 66 63 61 60 58 58 58 60 66 68 72 76 81 86 89 91 93 95 99 99 95 96 91 86 85 84 80 82 76 72 69 72 75 70 74 78 77 72 73 70 72 74 78 50 51 79 72 67 63 62 61 59 58 55 54 56 58 58 63 66 74 76 81 89 88 89 97 101 90 93 89 80 79 77 74 73 68 60 59 62 65 68 71 75 80 79 73 75 74 75 77 49 49 73 70 67 67 66 63 60 58 56 56 56 57 58 58 62 69 71 74 82 84 86 90 95 92 92 90 80 72 72 74 72 66 60 59 59 64 67 71 76 81 81 86 86 78 72 75 47 45 70 71 68 68 70 70 74 76 75 72 65 61 59 58 60 65 68 69 75 83 85 85 91 96 93 90 82 76 74 76 74 72 69 68 73 79 84 87 89 92 90 86 85 82 77 75 49 44 70 69 71 73 74 76 78 82 83 81 79 71 65 63 62 64 66 68 69 79 83 84 86 95 96 89 82 80 79 77 73 69 68 70 75 82 86 91 94 93 89 85 85 86 79 74 48 44 69 69 71 73 76 77 79 80 82 80 76 73 68 63 61 61 63 66 70 77 82 84 90 95 96 88 82 80 75 70 67 63 59 62 66 72 78 83 88 89 88 88 87 85 84 79 49 44 69 70 72 73 72 70 67 67 71 72 80 93 91 83 65 59 60 63 67 73 80 86 93 99 95 88 83 78 74 69 65 60 65 69 70 73 82 85 78 74 77 82 85 85 86 85 51 43 68 68 69 64 58 58 60 54 55 57 56 62 76 91 89 69 59 61 66 71 80 88 94 107 101 90 83 77 73 67 62 62 61 57 64 52 58 58 70 78 74 66 72 82 85 86 53 43 67 66 62 55 57 55 59 58 54 54 81 84 109 78 76 86 65 59 63 67 78 89 98 107 100 90 83 80 79 66 62 63 87 60 54 57 106 58 86 63 67 72 72 71 79 84 53 42 65 62 59 57 56 60 75 62 52 51 58 65 147 123 71 72 76 63 65 66 77 90 95 104 96 89 87 94 84 74 70 78 102 62 53 53 57 66 119 99 67 63 71 77 77 81 52 41 64 64 63 61 62 66 74 69 51 53 53 73 135 132 91 61 73 66 65 66 77 87 90 95 93 87 85 87 84 81 83 79 103 82 55 56 56 95 125 103 77 72 77 78 77 78 50 44 69 69 67 64 61 69 75 82 69 57 66 110 123 94 71 67 68 64 64 67 75 85 88 91 89 83 83 83 85 77 71 71 76 84 71 65 87 105 95 81 75 76 80 82 81 82 53 52 84 83 78 71 64 65 68 73 77 78 75 76 78 80 78 74 67 63 64 66 73 83 86 89 87 83 82 81 83 81 74 72 73 73 74 78 86 86 84 81 79 80 78 81 84 85 53 55 86 84 85 84 79 71 67 66 70 72 75 75 76 78 75 69 65 64 64 65 71 79 81 83 84 83 80 80 80 81 79 73 74 76 78 84 91 91 87 82 78 78 79 80 82 84 51 56 90 86 84 82 79 73 69 70 71 73 72 72 75 72 71 69 64 65 64 66 71 75 78 78 80 81 81 80 80 80 81 78 74 77 78 83 86 88 84 82 81 81 83 81 82 82 51 59 92 88 87 82 79 74 71 70 70 73 73 71 71 71 73 68 64 65 64 67 73 78 79 77 78 80 81 80 79 81 83 82 80 77 77 80 80 80 81 83 84 83 84 83 84 83 52 60 95 92 88 83 81 78 76 74 72 70 70 71 73 75 74 67 64 65 67 71 76 79 83 81 81 80 81 78 78 77 80 82 81 79 75 76 77 78 79 80 80 82 83 84 86 86 52 60 100 96 93 86 83 80 79 78 76 76 75 75 75 74 69 65 63 65 81 84 83 85 84 83 84 84 82 78 78 79 79 82 81 82 79 79 77 77 79 80 83 86 89 89 90 89 54 60 101 102 97 90 87 83 82 81 81 81 81 79 77 73 68 65 62 76 93 91 88 88 89 88 89 89 83 77 77 80 91 90 85 86 85 82 80 82 82 83 86 92 95 93 94 91 56 61 99 102 101 96 94 89 87 85 84 84 83 82 79 74 69 63 66 89 107 99 93 92 93 94 94 95 88 73 74 74 86 98 96 93 90 87 86 88 87 87 87 89 94 96 95 92 57 61 99 103 106 100 97 93 90 88 88 85 85 84 81 71 64 69 77 101 103 100 99 96 98 100 105 104 96 82 77 81 80 86 91 97 95 93 92 93 94 94 92 92 92 92 94 94 56 60 99 106 108 101 97 94 90 89 89 88 87 85 74 63 77 85 105 98 92 97 102 103 105 114 129 113 105 95 87 88 89 83 86 91 98 100 101 101 101 99 100 98 95 92 93 93 56 58 98 105 104 99 94 92 90 89 90 91 88 77 63 75 117 116 104 88 83 91 96 99 107 122 119 107 106 111 106 100 97 89 87 82 92 100 104 103 106 103 105 103 99 97 95 94 56 58 94 99 98 93 91 90 90 88 94 94 86 68 59 84 94 93 88 88 81 82 91 98 103 107 105 99 99 107 112 112 104 93 87 79 83 95 103 105 104 108 106 105 103 97 97 94 56 53 90 92 90 89 90 89 90 90 93 93 82 62 62 79 84 86 87 87 76 74 87 94 95 98 97 83 74 87 103 109 105 94 94 85 76 87 96 104 109 107 111 107 104 99 98 93 57 52 84 86 86 86 88 89 89 91 93 93 79 62 64 74 80 82 76 62 51 55 70 84 88 88 83 71 63 54 71 94 98 94 96 93 78 78 88 97 105 108 113 110 107 100 98 94 56 50 82 83 84 84 86 87 89 89 93 94 81 67 66 68 74 82 76 57 55 54 53 65 77 80 82 86 83 61 51 68 81 90 91 92 86 71 80 89 99 104 110 111 109 102 98 93 57 50 81 80 80 80 82 85 87 88 90 93 81 72 68 66 64 67 59 55 58 56 57 58 67 73 68 68 60 53 52 64 66 73 84 83 85 79 73 85 91 100 106 108 106 99 96 92 55 49 78 77 77 77 80 83 85 87 89 88 77 73 69 66 62 54 50 50 50 48 52 60 65 66 53 53 52 48 50 58 57 62 69 73 78 80 70 79 90 99 102 101 102 96 94 90 54 46 75 75 76 78 80 80 84 87 83 75 67 64 61 58 54 53 49 48 48 49 50 57 67 62 52 52 52 50 51 53 53 55 62 63 67 73 73 72 86 94 97 96 97 94 91 89 54 45 73 74 74 77 78 80 83 82 75 66 61 58 56 55 53 52 49 50 50 53 55 55 59 61 60 67 67 58 53 53 53 52 57 57 59 67 70 70 82 90 95 94 90 89 89 88 53 45 72 72 74 75 77 79 81 76 66 61 58 54 55 53 52 51 54 54 55 61 67 69 74 76 79 82 84 81 70 63 55 52 56 53 55 63 63 70 81 87 90 89 87 88 88 86 53 44 71 72 73 75 76 77 76 69 63 60 54 53 53 52 53 58 66 70 71 73 72 75 77 81 79 78 80 82 82 75 68 62 58 55 55 60 61 65 80 86 86 86 86 87 85 85 52 44 70 71 71 73 74 75 72 63 58 57 56 53 53 55 58 69 71 71 72 72 73 75 77 84 82 80 82 84 83 81 81 76 63 57 56 56 58 62 75 84 87 85 84 86 83 84 52 44 70 70 70 71 72 71 68 59 57 55 54 53 56 58 66 67 67 70 71 74 76 77 80 92 87 81 83 86 82 79 75 73 71 58 53 56 59 59 71 84 87 85 83 83 82 83 53 43 69 70 70 69 71 68 64 59 54 54 56 56 59 64 65 63 67 71 73 75 79 77 83 83 84 83 83 84 82 78 75 72 70 59 53 55 58 61 70 84 86 86 85 82 83 85 53 43 69 69 69 69 69 67 64 58 54 55 55 57 61 61 60 64 66 68 73 75 78 78 79 72 73 79 81 79 78 79 77 73 68 57 51 54 57 62 72 83 84 85 84 84 84 84 53 43 70 70 69 70 68 66 65 59 52 53 57 58 56 51 57 60 62 68 74 78 82 84 84 84 85 86 86 85 83 80 78 73 68 51 51 52 57 59 74 82 83 84 84 83 84 85 52 44 70 69 68 70 67 68 66 61 53 58 58 59 49 51 62 62 65 71 77 82 85 86 89 92 91 90 91 91 88 84 81 78 73 64 53 52 59 64 79 83 83 84 84 83 85 88 54 44 70 69 69 69 68 69 70 66 64 68 67 62 56 55 60 62 66 76 84 91 92 97 98 98 95 102 106 109 100 93 84 82 78 71 69 60 68 77 83 87 86 86 85 84 86 87 54 44 70 69 69 69 68 69 72 73 72 76 71 65 59 58 58 60 64 70 77 85 88 92 91 91 91 96 98 100 97 89 84 81 80 78 74 69 73 82 86 88 87 86 86 85 87 87 54 44 71 69 68 68 69 69 70 72 73 75 72 69 65 61 60 62 63 67 73 78 82 83 84 84 85 89 91 92 89 84 82 82 83 81 79 76 75 81 86 87 85 85 85 85 87 86 54 43 70 68 69 67 70 69 69 71 72 76 73 71 69 64 62 61 63 66 69 74 78 78 77 79 81 82 86 89 91 85 84 83 82 81 82 80 79 81 85 87 85 85 84 87 86 86 54 44 70 69 67 67 68 67 68 71 74 73 73 72 71 67 65 62 61 61 63 65 66 64 64 67 67 67 72 79 82 79 79 79 79 80 84 84 79 81 83 84 83 84 85 86 87 86 53 43 70 70 68 68 67 68 67 71 72 71 72 72 70 69 67 64 64 62 63 65 64 62 64 65 65 66 68 72 76 75 77 79 79 80 85 80 79 83 82 82 83 83 84 85 85 85 53 44 70 69 70 68 66 67 67 68 69 68 69 70 69 69 68 66 65 66 64 63 63 63 64 64 65 67 69 72 74 78 78 78 80 81 81 79 84 84 83 82 82 83 82 85 84 84 51 44 69 68 67 67 66 66 66 68 69 69 68 68 67 67 66 67 67 66 65 66 63 66 67 66 72 72 72 74 78 81 79 78 79 78 76 79 84 85 83 81 82 82 83 83 84 82 51 44 69 68 67 66 65 65 65 66 67 67 66 65 66 65 65 66 66 66 66 65 65 67 68 71 75 77 79 78 79 79 79 78 77 76 76 79 80 82 83 81 80 81 83 83 82 82 50 44 69 68 67 66 65 64 65 65 65 66 65 64 64 63 64 65 65 65 66 66 66 73 71 77 79 78 79 78 81 79 78 78 76 75 74 77 78 83 81 79 79 80 80 81 82 81 49 44 68 68 67 67 64 64 63 64 64 65 64 64 63 63 63 65 63 62 66 66 68 72 77 84 86 82 83 80 77 79 78 75 75 75 75 77 81 83 80 79 79 80 79 80 80 79 51 44 68 67 66 66 64 63 63 63 63 64 62 62 62 63 62 63 63 63 64 68 71 75 79 84 86 83 81 78 77 80 78 75 76 74 75 77 79 81 79 77 76 78 79 79 78 78 49 44 68 66 65 65 64 63 63 62 61 61 60 61 61 61 61 63 63 64 64 68 71 76 82 85 85 82 81 79 79 79 77 75 75 74 75 77 78 79 78 75 76 77 77 78 77 77 49 28 43 40 39 39 39 38 38 38 37 37 37 38 37 37 39 40 39 38 39 41 45 47 51 51 53 50 49 48 48 48 48 46 45 46 47 47 47 48 47 46 47 47 47 46 47 48 31 