P2
48
60
255
44 74 74 76 78 76 73 76 81 83 83 86 87 83 85 86 88 88 87 85 85 85 85 84 87 85 80 85 82 84 82 85 81 81 80 78 74 69 71 71 68 66 66 64 61 64 61 33 72 117 121 124 126 123 118 124 131 133 135 138 140 138 139 139 137 139 137 129 137 140 136 136 138 138 134 134 133 133 134 134 129 124 127 123 121 115 114 113 112 109 107 104 99 101 100 57 70 116 118 125 125 122 125 126 126 131 136 137 138 140 140 139 138 139 138 135 137 135 134 138 135 132 131 134 136 136 135 135 129 122 127 123 118 116 115 115 108 108 105 104 100 100 99 57 71 116 119 124 121 121 122 124 125 127 135 138 136 138 140 140 139 137 136 134 133 129 135 138 131 134 132 137 140 140 136 131 128 124 124 120 118 117 114 112 109 106 106 103 97 101 95 56 70 114 116 119 117 118 121 119 121 130 136 136 136 139 138 136 137 136 139 133 131 130 139 140 133 130 131 136 141 136 118 110 106 104 105 104 109 107 100 102 103 103 102 100 98 99 95 56 69 113 114 113 110 104 109 108 110 119 118 116 116 122 124 128 134 136 136 134 133 138 138 139 134 131 139 141 142 115 85 69 60 61 67 71 76 86 82 74 76 81 96 95 95 94 96 58 68 111 109 102 85 79 76 71 72 74 74 70 71 76 83 91 116 133 136 134 130 134 134 135 136 132 139 142 135 106 80 69 65 70 68 70 73 87 93 92 85 73 76 91 91 94 93 57 67 108 105 89 79 87 89 90 80 66 65 60 56 59 71 84 103 124 136 133 130 134 134 132 134 136 137 136 128 98 85 78 77 79 88 94 110 117 122 120 110 96 75 74 89 90 92 56 67 105 102 89 105 123 132 132 119 101 81 77 70 68 74 83 94 116 134 131 135 134 132 132 129 131 133 132 121 101 92 89 100 109 117 126 131 131 131 129 120 113 97 71 79 88 90 55 64 101 94 106 122 131 135 142 137 134 126 118 106 97 95 93 98 113 125 131 135 130 132 129 127 131 128 122 109 100 98 103 114 121 132 131 131 132 134 129 119 113 104 86 70 84 89 56 62 99 98 113 124 131 136 140 135 137 132 132 124 117 113 109 106 109 118 123 132 129 123 128 129 126 121 109 100 100 104 111 121 118 123 124 126 128 129 127 118 112 102 97 83 82 88 56 63 96 102 112 122 131 135 133 127 127 121 115 113 116 119 118 111 107 112 122 131 133 128 131 131 126 109 95 93 105 113 111 108 89 92 104 117 123 122 121 120 112 100 95 91 82 86 57 60 96 105 113 120 126 126 124 107 93 81 77 76 84 101 111 109 102 104 117 132 136 135 132 136 123 102 87 92 108 108 100 84 75 89 82 78 84 92 106 115 111 101 90 88 85 87 56 62 102 107 112 114 102 85 60 52 48 52 59 71 83 73 92 101 99 97 110 127 142 144 138 137 119 99 89 91 104 101 84 81 88 60 46 44 44 44 54 80 100 98 91 89 86 88 55 64 101 106 109 93 61 37 43 48 41 37 41 53 56 78 72 82 88 91 109 123 136 139 134 135 116 100 91 86 96 87 73 65 54 58 44 34 41 51 40 35 53 87 92 89 88 89 59 68 105 105 104 73 40 48 74 65 78 36 65 84 91 57 71 77 83 89 107 120 132 133 130 132 113 101 92 81 89 78 64 61 103 77 82 29 75 66 70 43 40 60 91 90 91 94 59 67 110 107 99 58 61 69 95 66 46 23 41 64 108 86 69 75 97 109 109 115 124 128 126 124 106 99 97 92 92 71 76 92 113 64 37 23 42 60 84 67 57 55 80 92 93 92 58 70 110 100 82 70 86 90 92 79 45 41 47 71 111 91 89 90 100 103 105 112 122 125 121 116 101 100 100 92 102 98 96 92 101 89 56 47 46 74 88 86 81 69 68 85 90 96 60 70 116 105 93 94 96 84 77 86 81 79 81 91 101 101 101 104 94 101 107 109 117 123 125 113 98 98 100 99 98 109 110 107 104 96 86 82 83 88 93 91 82 83 78 84 90 93 56 64 109 115 110 106 100 106 109 107 100 97 97 99 102 102 98 92 90 106 110 109 113 121 122 115 96 94 97 104 105 105 110 108 107 103 97 100 110 115 110 95 90 88 90 95 98 98 58 68 119 120 116 111 107 113 125 129 130 122 114 105 102 106 104 105 108 112 108 109 119 120 117 114 96 92 96 105 110 108 117 116 110 104 101 104 112 113 107 107 97 97 99 101 101 100 58 66 118 119 116 120 117 110 110 111 111 105 101 107 115 112 111 115 116 113 110 111 116 125 120 114 98 94 96 99 104 111 110 113 115 116 113 105 97 97 101 105 107 106 99 102 102 95 58 68 116 119 119 120 121 118 109 104 109 114 117 115 110 110 120 119 116 111 111 113 124 130 123 114 100 94 98 99 104 111 119 109 105 108 112 114 112 110 102 110 113 110 105 104 99 96 57 68 115 120 120 122 127 124 121 121 124 121 118 115 117 124 125 117 113 111 109 114 123 129 126 117 103 96 99 101 106 112 116 121 109 103 106 109 109 114 116 122 123 114 109 107 99 96 57 66 111 110 120 125 128 124 126 124 127 122 123 123 130 128 120 118 117 114 108 112 118 126 123 119 107 98 98 103 108 112 116 121 125 121 121 118 121 124 122 125 118 116 109 111 102 95 57 65 105 106 116 128 132 135 132 132 129 127 127 130 130 128 125 123 118 113 110 115 121 125 125 120 110 101 97 98 106 112 118 122 123 128 130 129 127 128 130 125 125 124 116 111 103 94 56 62 99 105 113 126 132 133 134 133 129 131 130 133 130 129 127 122 114 111 109 117 125 128 124 123 111 102 96 96 105 117 124 124 123 125 127 130 128 126 131 129 125 123 115 110 101 92 55 60 97 99 111 123 128 130 134 132 128 129 131 132 130 128 125 110 110 109 108 121 128 128 127 124 116 104 94 93 97 107 127 127 126 126 127 129 126 126 128 129 125 121 112 105 100 91 54 56 90 92 108 117 123 127 129 130 134 134 133 134 131 129 111 94 107 106 108 124 129 129 129 124 119 110 97 92 99 95 108 125 128 128 127 128 126 126 128 127 121 120 111 103 97 90 55 55 85 95 109 114 120 124 126 132 134 134 133 131 128 118 94 100 109 108 109 127 134 133 132 126 121 113 100 95 100 98 79 113 127 129 128 125 126 125 127 124 120 116 112 103 97 91 54 58 87 92 101 109 117 121 126 129 130 130 133 131 120 104 74 106 111 108 111 125 133 131 129 127 126 115 102 95 96 94 68 82 117 128 131 127 126 129 126 122 120 112 112 102 97 92 54 59 87 86 97 106 114 119 123 128 130 131 131 124 111 86 59 95 104 107 109 115 123 122 122 122 121 106 94 90 83 81 69 56 98 118 129 132 132 125 125 121 116 111 107 98 99 91 53 60 96 87 99 105 112 115 123 126 127 127 123 116 100 70 53 93 82 84 98 102 109 111 111 111 107 93 85 81 61 76 86 53 75 113 128 132 131 126 123 117 115 109 104 100 98 90 51 62 103 98 101 103 107 109 117 121 121 119 114 105 88 62 69 111 105 82 87 89 95 96 95 95 91 83 85 85 78 92 95 77 56 94 117 126 126 122 125 117 113 108 100 97 93 88 50 60 102 104 99 101 103 108 115 116 118 118 110 100 78 57 95 112 111 108 103 97 86 81 80 77 77 79 85 85 88 95 95 93 64 76 105 119 121 121 119 115 109 106 99 95 90 85 52 60 102 106 103 100 103 108 111 113 112 108 105 91 70 69 109 109 109 110 105 106 101 84 76 70 73 81 88 86 90 93 95 96 88 70 95 107 114 116 116 112 107 103 97 95 88 84 53 61 104 108 109 102 103 106 109 108 108 107 98 81 65 95 113 111 110 111 112 113 109 101 100 100 93 95 95 90 92 93 95 97 98 80 86 98 106 113 111 108 102 96 96 94 90 87 53 61 103 109 110 104 103 105 107 107 106 105 92 76 68 109 111 110 109 112 117 120 122 124 123 122 119 113 107 100 97 97 97 97 101 99 79 92 104 108 105 101 98 96 95 93 93 89 54 61 103 107 109 103 103 102 103 105 104 97 86 65 95 110 109 108 112 111 116 121 121 124 122 121 121 121 113 109 99 99 99 97 100 104 93 88 97 101 100 96 96 94 90 93 94 89 53 62 102 108 109 105 105 103 104 103 99 95 79 74 109 108 108 109 111 114 114 122 122 122 121 123 123 119 114 106 106 102 98 98 98 103 104 85 92 98 98 94 93 91 88 93 94 88 53 59 102 104 110 109 107 106 106 104 103 94 68 99 107 103 107 109 104 98 95 91 97 102 106 103 99 97 101 105 105 101 100 96 94 98 102 92 87 99 98 94 91 89 89 90 94 88 55 57 103 103 111 112 112 112 109 109 106 95 77 104 100 99 99 88 79 80 81 82 79 79 83 79 78 83 86 85 83 86 95 98 93 92 96 95 83 104 100 95 94 94 92 94 94 88 53 49 101 105 109 111 114 116 116 113 114 104 102 104 93 83 67 61 71 79 79 77 77 76 72 72 78 78 76 73 69 65 64 77 85 85 88 93 87 108 107 102 102 101 95 101 99 91 52 34 97 106 108 111 115 118 119 115 123 121 111 102 85 78 77 81 86 93 101 103 105 100 104 104 101 99 96 91 86 72 59 46 51 73 81 89 91 117 112 110 113 107 98 105 99 91 52 25 87 104 109 111 115 118 120 120 126 134 114 99 92 96 94 88 85 92 103 114 116 114 109 113 113 116 105 92 85 74 70 65 68 65 78 85 94 120 120 115 115 106 98 102 97 89 52 20 67 100 109 113 115 115 118 121 127 135 123 99 93 99 97 95 93 91 95 108 110 111 110 108 110 105 97 91 80 73 79 83 83 81 81 89 99 121 123 118 112 105 102 100 94 87 52 22 46 96 106 111 116 115 118 120 124 130 124 103 103 103 100 102 101 102 103 103 103 107 111 110 108 105 104 101 92 89 83 82 83 83 88 94 107 126 125 116 112 105 103 97 92 87 51 28 35 83 102 108 113 113 116 118 124 125 124 109 106 109 103 101 99 97 91 86 79 80 84 81 76 77 82 90 90 87 85 84 87 91 95 96 110 126 121 115 109 101 97 95 90 85 49 39 36 56 98 105 108 110 111 113 118 122 120 108 108 108 106 101 101 99 98 98 99 96 94 92 90 96 95 94 92 90 88 90 91 93 94 95 110 121 115 113 105 100 93 95 90 82 49 50 45 38 90 101 105 107 109 112 115 117 116 107 113 110 107 106 105 107 111 113 114 115 115 116 114 112 112 106 100 95 94 91 92 94 96 100 108 118 109 108 100 96 92 93 89 80 48 52 60 34 85 97 104 107 109 113 113 115 120 110 114 114 111 109 109 116 116 116 121 124 123 126 125 120 114 111 105 99 99 95 93 94 91 107 108 112 105 103 97 92 89 90 86 80 48 69 81 36 79 95 101 105 107 108 109 114 116 108 110 109 110 111 116 120 123 124 129 128 126 129 128 124 121 121 115 106 102 97 95 92 97 104 108 109 101 97 93 90 88 87 83 80 65 94 101 49 72 99 97 102 106 105 109 112 111 108 108 110 111 116 118 124 126 126 127 127 128 129 128 127 124 119 117 111 106 103 97 97 102 101 100 104 96 93 91 89 86 84 82 101 110 109 134 74 71 99 94 99 104 106 107 108 111 116 115 111 111 116 119 123 125 128 127 130 130 128 129 126 124 120 115 110 108 102 101 97 98 98 99 98 96 91 89 87 85 83 86 153 121 116 156 117 83 103 95 95 101 104 103 102 107 114 112 111 111 114 119 121 122 127 132 130 133 126 127 126 123 117 115 109 104 103 100 94 95 93 99 95 89 88 85 86 84 82 96 188 118 121 175 162 110 104 102 98 97 101 103 104 106 107 106 110 111 111 115 121 121 126 130 128 128 124 121 124 120 116 112 108 103 99 96 92 91 89 94 92 87 85 85 85 82 81 97 187 121 123 192 188 113 102 106 100 98 96 99 100 100 101 102 104 110 110 111 115 120 120 124 124 123 122 117 119 117 112 109 104 98 94 90 88 87 86 90 89 85 85 83 83 82 80 116 188 125 124 199 164 74 100 109 102 106 96 95 97 94 93 96 99 105 107 109 107 111 111 116 117 117 113 112 112 111 108 101 98 94 91 87 85 84 83 83 85 85 84 82 81 81 81 131 194 127 123 177 95 65 99 109 109 107 107 92 88 90 85 85 91 96 101 104 105 107 105 105 108 108 106 106 107 104 102 95 91 88 86 84 82 78 78 77 81 82 81 80 81 85 79 151 205 127 72 78 47 49 61 67 71 66 68 63 52 50 50 50 51 53 56 58 62 62 61 61 62 62 61 62 61 61 59 54 53 52 51 49 47 46 46 44 47 49 49 49 52 53 49 98 128 79 