P2
48
60
255
54 88 90 87 77 71 68 67 67 68 68 70 70 72 73 74 72 73 74 74 74 73 72 73 73 73 73 73 73 73 73 73 74 73 73 72 70 70 68 68 67 67 64 63 63 64 62 38 90 145 144 138 128 118 110 108 109 110 113 115 115 117 119 118 117 118 119 119 120 118 118 119 119 118 118 117 118 116 117 119 120 120 119 117 117 115 112 112 109 106 104 101 101 101 101 62 95 150 140 140 131 120 111 108 110 112 114 115 115 116 118 117 115 115 115 118 119 118 118 117 119 118 118 118 117 117 116 118 119 119 118 117 117 116 112 110 108 107 103 102 100 101 99 62 96 152 143 139 130 120 110 109 111 112 114 114 116 115 115 114 113 114 114 116 116 117 117 116 118 118 117 118 116 114 114 115 115 115 114 111 111 113 111 108 108 106 102 100 101 100 98 61 96 149 144 135 131 119 113 113 108 107 108 108 107 110 108 108 108 107 110 111 112 114 116 115 117 115 116 115 114 110 108 107 108 108 106 106 102 101 101 104 107 105 104 100 99 99 98 59 93 148 145 135 127 122 116 109 94 90 91 91 92 95 94 93 92 92 98 101 107 110 109 113 112 110 110 108 105 98 96 85 76 73 78 82 81 81 83 86 98 102 102 99 99 99 98 60 94 149 144 137 124 124 111 92 74 71 69 68 65 61 54 53 61 69 78 91 100 101 103 109 111 106 104 99 93 84 70 56 50 47 45 48 55 57 60 63 72 90 100 99 97 99 99 60 98 148 141 137 127 110 86 65 58 57 54 49 44 40 40 42 47 55 67 78 87 94 98 103 108 102 99 91 85 69 56 51 43 36 35 36 40 42 48 54 55 65 83 96 97 97 98 60 101 148 142 136 121 90 72 60 51 45 43 42 39 38 39 40 43 45 56 65 76 83 91 101 105 101 92 82 72 61 50 46 38 35 35 35 39 42 47 49 49 53 60 78 95 96 95 59 97 150 144 141 113 87 77 70 59 58 59 63 61 56 52 49 50 50 54 62 69 75 88 96 104 97 91 79 70 60 56 54 51 52 53 57 61 64 66 69 67 67 59 66 90 96 95 59 90 140 147 142 114 91 80 76 78 82 83 82 80 77 70 61 56 57 60 63 70 78 92 95 102 97 92 83 70 63 62 62 65 72 78 84 86 87 87 88 88 85 76 66 84 95 96 59 90 144 152 145 110 95 82 80 79 81 84 86 82 80 76 70 63 57 56 61 72 81 94 103 102 102 98 85 69 61 59 60 66 71 77 80 84 88 88 89 86 85 82 78 82 92 95 59 90 144 146 140 107 89 81 79 81 78 76 79 75 75 70 64 61 56 52 55 68 83 98 106 105 106 102 83 63 56 54 57 58 64 77 86 92 90 80 76 80 83 84 83 82 89 94 59 88 140 138 131 97 83 80 77 73 81 84 88 87 84 76 65 54 53 51 52 61 78 98 108 109 110 104 77 62 53 52 52 59 67 76 83 87 89 88 81 71 71 79 83 87 90 93 59 90 138 131 108 83 80 70 81 90 83 81 80 79 74 69 63 59 54 51 53 61 76 98 111 115 112 101 78 70 61 57 58 55 59 65 72 77 80 82 80 74 66 69 78 87 90 95 58 89 131 116 91 75 74 80 95 86 72 62 51 45 44 46 49 49 57 60 63 65 75 97 110 115 112 101 79 77 73 57 45 40 40 35 32 37 42 55 66 71 68 70 77 84 90 93 59 88 122 105 84 76 74 67 60 50 46 46 36 35 37 43 45 48 57 60 69 69 79 98 109 115 113 102 82 78 76 64 60 53 54 44 36 34 40 40 41 45 58 69 79 85 91 93 60 90 117 97 82 74 75 74 64 57 55 59 57 60 61 62 62 67 71 75 70 71 83 99 109 113 112 103 86 79 79 77 73 65 62 65 62 59 56 54 54 55 69 70 78 86 92 95 60 90 121 99 88 81 86 89 82 76 74 73 68 69 69 69 66 66 70 72 74 76 88 101 109 114 114 101 90 83 84 79 74 73 70 70 68 68 70 75 81 80 82 82 80 88 96 97 60 91 124 105 97 96 95 91 83 80 80 79 78 74 69 66 70 73 79 82 83 86 93 101 108 112 114 101 92 89 88 90 85 81 79 76 76 78 83 86 85 85 87 90 89 94 96 97 60 92 127 110 105 101 99 97 95 86 78 72 71 73 77 81 83 88 91 92 89 91 95 101 110 114 112 103 94 94 93 96 96 90 86 87 85 84 85 89 92 95 98 97 97 97 96 95 60 94 132 116 108 105 104 103 100 98 96 93 90 86 87 91 91 97 99 96 92 96 99 102 111 115 112 104 96 97 97 98 103 101 96 92 91 93 98 100 101 104 105 102 102 101 99 95 59 102 140 120 111 106 103 103 103 101 100 96 94 90 94 98 102 104 102 98 95 98 99 103 111 114 110 103 97 97 98 100 104 107 106 99 96 99 100 100 104 105 107 107 104 102 98 96 58 106 147 124 111 107 105 105 104 103 98 94 97 97 100 104 106 105 102 97 96 97 100 107 110 113 111 104 99 98 99 102 105 109 109 107 104 103 101 99 103 107 108 108 105 103 99 96 57 114 156 129 111 107 106 105 106 103 104 101 103 105 107 108 107 104 102 100 95 98 102 107 110 111 111 108 101 97 99 103 106 108 110 110 107 107 105 103 103 107 108 108 105 102 99 96 57 118 162 131 109 107 107 107 107 108 106 106 106 109 108 108 106 103 101 94 96 101 105 109 111 113 113 110 103 97 97 101 106 109 112 110 110 112 109 106 107 107 109 104 103 101 98 96 58 123 170 135 112 106 105 108 108 109 107 107 107 109 108 108 106 103 94 94 100 103 107 108 111 112 115 111 103 98 98 95 104 109 111 108 110 110 110 109 109 107 106 103 102 100 96 95 58 134 181 132 112 107 107 106 107 107 109 110 111 109 110 107 104 95 87 97 99 100 104 103 104 103 101 100 96 95 97 95 96 106 109 107 108 107 106 109 110 108 106 104 99 98 96 94 57 140 186 139 115 108 106 108 108 108 110 110 110 108 107 103 97 83 84 98 93 87 92 92 92 91 87 85 84 85 93 93 91 102 106 106 108 107 108 108 108 106 105 102 101 98 94 92 58 146 193 147 121 111 105 106 104 107 108 107 108 108 104 98 87 74 78 90 78 57 53 79 78 75 75 73 64 68 83 90 87 94 101 105 106 105 106 107 107 106 104 99 99 95 92 92 57 142 201 154 127 112 105 105 105 106 105 105 105 103 99 91 78 71 70 76 64 38 31 57 69 64 66 50 26 40 71 82 84 86 96 104 104 105 106 108 109 104 102 99 95 94 92 91 57 144 201 161 134 116 106 105 104 104 103 105 100 99 95 82 74 73 69 66 59 57 67 74 68 60 65 69 59 51 62 74 85 86 91 99 103 105 106 106 106 101 99 97 94 93 91 93 57 144 200 161 144 123 108 103 104 103 102 102 101 96 90 83 81 80 79 76 69 71 73 73 67 61 64 73 73 63 64 77 87 89 92 97 99 104 105 101 104 102 99 94 94 94 92 93 58 141 191 164 151 126 109 101 101 101 99 100 98 93 86 85 87 85 83 79 75 72 70 69 68 68 72 70 71 72 79 85 94 95 96 97 100 101 103 104 102 101 98 94 92 93 92 91 58 142 181 157 145 134 109 99 100 98 96 96 93 87 87 92 91 88 83 79 74 76 73 69 72 70 70 74 73 79 83 89 95 99 100 100 102 102 102 102 102 100 97 95 93 92 90 93 58 146 182 152 143 134 108 100 98 97 95 92 90 87 95 93 89 87 84 82 79 79 75 74 75 75 73 78 80 83 84 91 92 95 101 104 103 102 102 103 99 98 96 92 94 92 89 93 58 148 191 144 132 127 109 100 98 97 93 90 88 91 92 90 87 86 86 81 81 82 78 79 77 73 76 80 86 87 86 87 90 94 94 100 104 101 102 103 100 98 94 92 93 94 91 91 58 145 195 150 127 119 109 100 97 93 91 87 87 93 85 85 84 81 83 83 84 87 82 83 84 81 86 88 87 87 86 87 87 89 88 92 96 100 100 99 98 96 94 94 92 92 89 90 58 142 194 152 120 115 110 101 97 94 90 84 85 85 81 80 82 83 83 86 88 91 91 89 90 88 90 90 90 89 85 85 85 86 86 89 91 95 98 99 97 95 94 92 92 89 88 89 56 136 198 156 124 114 108 102 97 93 90 82 82 81 78 78 81 81 84 89 90 88 91 91 94 92 93 94 95 91 89 85 83 83 81 84 87 90 94 95 95 95 93 92 91 89 90 89 56 134 198 164 130 116 111 104 96 92 87 77 80 77 75 76 80 82 84 83 80 79 80 84 89 88 84 84 85 88 88 86 84 79 80 79 85 86 91 93 94 95 93 93 90 88 89 90 56 126 198 170 137 118 114 104 93 92 87 78 78 72 67 68 73 74 71 66 64 63 62 64 67 65 65 66 68 71 75 81 81 78 76 74 79 82 86 91 92 94 92 93 90 88 89 90 61 133 198 173 144 122 114 103 93 92 88 81 79 66 53 51 57 55 51 49 48 50 49 49 50 49 51 55 58 56 55 59 63 63 63 66 74 81 84 89 91 92 93 92 89 87 87 92 106 140 207 180 151 125 109 104 96 92 91 84 81 73 61 52 52 52 56 62 65 70 71 68 67 68 71 72 78 73 63 57 49 48 50 62 72 81 84 90 91 90 90 89 89 88 87 104 119 140 212 184 156 133 112 105 95 91 92 88 87 83 77 75 78 79 78 76 80 84 86 85 86 87 88 91 90 84 81 80 81 81 75 73 77 81 86 88 90 88 89 90 88 87 88 132 122 137 212 188 162 140 114 102 95 90 90 89 88 85 83 85 87 87 91 91 88 87 88 89 89 87 89 93 89 87 87 87 89 90 85 82 82 81 87 86 87 86 89 90 89 87 89 165 122 138 212 195 167 145 116 103 94 89 88 88 89 86 87 90 90 90 90 88 84 79 76 74 74 75 78 80 82 84 85 88 89 91 89 87 85 84 86 85 84 85 87 89 86 88 99 192 122 141 210 194 174 149 121 105 94 88 86 87 88 91 91 90 88 90 89 87 82 77 71 67 66 66 69 74 78 82 86 90 90 91 89 89 84 83 85 87 84 84 86 88 85 86 131 198 122 143 211 197 177 155 129 110 93 88 86 85 82 89 90 90 87 87 87 87 81 76 69 65 65 64 68 72 77 82 86 90 87 89 89 89 83 83 84 85 82 83 86 86 86 90 173 199 123 143 217 195 182 160 135 113 96 88 85 84 83 89 88 87 88 86 86 83 78 73 67 63 64 63 66 70 75 79 83 85 86 88 87 85 87 85 84 83 81 82 84 85 86 109 195 198 122 143 220 188 185 162 141 116 99 90 85 83 86 88 87 87 88 85 84 83 80 74 69 67 66 66 69 71 75 79 82 83 85 88 88 86 87 86 84 84 81 81 82 85 86 133 198 199 122 142 217 183 181 171 148 120 101 90 85 86 87 87 86 86 86 86 86 85 79 78 74 71 71 70 72 75 80 81 83 85 84 86 87 84 85 85 83 84 82 81 83 84 84 132 199 198 122 142 221 186 171 176 159 128 108 95 90 90 88 87 87 87 87 86 89 86 83 82 79 78 78 78 79 78 81 85 86 87 89 86 87 84 86 85 82 82 81 81 83 83 85 130 197 197 122 141 219 182 164 170 169 144 116 101 96 95 90 87 88 86 87 88 89 88 88 90 89 88 89 88 87 86 86 90 90 89 88 87 85 85 85 85 83 80 79 80 80 81 86 128 198 197 122 142 220 174 161 160 172 157 131 109 102 100 97 95 88 87 88 88 88 90 91 92 90 90 89 92 91 92 94 94 92 89 89 87 86 86 84 82 82 80 78 80 79 81 87 124 198 197 122 141 217 167 153 151 163 167 143 118 106 105 103 99 92 89 88 88 87 89 92 92 92 91 89 90 90 94 96 96 92 91 93 88 85 85 81 81 80 78 77 79 79 82 86 121 196 196 121 142 212 163 153 147 148 165 154 129 113 105 109 109 97 93 86 86 86 88 88 88 87 87 88 88 89 90 92 92 91 90 91 87 86 83 80 78 77 76 78 79 80 83 87 117 196 198 122 141 206 163 149 137 138 155 156 138 122 109 112 116 108 100 86 84 84 84 86 84 85 85 84 85 86 86 85 87 84 85 88 83 83 79 77 75 74 74 77 78 80 83 87 108 193 197 121 116 194 158 144 136 129 141 152 143 127 112 110 118 118 108 88 83 81 81 80 80 79 78 81 81 83 81 80 83 79 78 81 81 80 76 74 74 71 74 77 78 80 83 86 98 161 196 122 60 117 95 85 80 78 81 88 88 80 71 67 69 75 73 59 52 49 47 46 47 46 46 46 47 48 48 48 50 47 46 49 47 46 46 45 43 43 46 47 49 50 51 54 58 80 119 76 