P2
48
60
255
45 73 77 79 81 82 84 86 85 85 87 90 92 94 98 100 102 103 104 105 104 107 108 106 106 108 107 107 104 104 102 100 97 95 90 91 90 88 87 89 89 89 87 88 85 82 79 47 72 119 123 124 127 130 134 138 140 135 142 147 149 152 157 160 162 167 169 169 169 175 172 172 174 171 172 169 168 168 167 165 161 158 152 151 147 145 144 144 144 145 140 142 140 136 129 77 71 119 122 121 125 127 130 135 137 136 141 147 148 151 156 158 160 167 168 170 172 176 172 173 175 173 173 170 169 169 167 165 160 158 153 153 148 146 144 142 142 141 139 139 138 132 127 77 70 118 118 120 122 123 131 138 143 144 147 149 153 156 163 164 170 169 168 171 173 175 172 173 172 173 171 170 170 171 166 163 160 157 154 150 149 147 145 144 141 141 140 137 135 130 129 77 70 119 115 115 122 125 132 137 143 147 146 151 156 160 168 171 174 174 176 175 176 175 175 173 174 173 169 172 173 172 172 168 164 164 162 158 157 152 150 148 146 143 139 136 133 129 129 78 69 117 117 118 124 131 135 138 143 145 146 149 155 159 163 162 172 174 177 176 178 178 176 173 173 174 172 175 172 176 174 165 165 163 165 161 159 155 153 151 149 143 137 133 130 128 129 77 70 114 120 124 130 132 133 133 142 145 147 150 155 157 159 161 167 170 174 176 173 176 173 173 172 170 173 174 172 173 172 168 167 166 165 162 157 155 151 151 145 141 137 136 129 128 125 77 69 113 119 124 118 113 117 119 129 134 145 147 153 155 156 158 160 162 164 168 170 171 167 168 168 169 167 167 164 163 164 164 163 164 162 159 156 143 136 133 126 129 136 137 129 128 123 76 67 111 118 115 102 100 98 99 109 113 119 123 129 137 146 150 150 154 156 156 160 163 162 161 160 161 161 158 153 150 149 152 138 134 137 125 119 115 112 110 107 108 124 134 134 130 125 75 66 108 103 92 82 86 86 86 92 94 90 91 92 97 102 115 124 135 146 149 151 152 153 153 149 149 152 151 141 131 126 123 111 92 88 87 92 94 95 95 95 101 101 123 133 130 124 76 66 98 86 76 76 78 76 81 80 72 74 74 76 76 80 95 98 107 125 133 141 145 150 148 144 140 141 139 128 124 112 103 91 76 75 73 71 71 77 80 88 94 96 103 123 127 122 75 61 85 72 77 78 72 74 73 71 67 65 62 62 65 72 78 91 97 112 122 129 139 146 147 146 140 132 133 124 115 97 89 82 75 69 66 68 69 79 83 77 81 82 91 107 123 121 74 54 76 78 86 87 87 88 87 85 86 82 77 72 71 77 84 89 96 103 113 122 138 148 148 147 141 132 127 115 106 97 95 95 96 99 111 122 127 126 119 112 104 95 85 89 111 118 74 54 89 87 87 86 76 78 78 64 58 59 59 63 77 73 75 87 92 96 104 117 135 151 156 156 150 133 126 113 102 99 101 92 80 74 72 75 86 101 110 117 115 104 95 96 99 114 73 60 100 98 91 71 71 59 63 56 48 43 56 60 91 85 89 87 93 92 101 113 133 154 161 163 154 143 127 108 94 90 82 78 80 61 68 55 80 48 63 82 99 104 99 98 102 108 72 70 109 103 91 77 71 81 96 95 61 59 65 98 149 131 96 98 101 96 98 110 129 158 170 171 162 143 123 102 104 107 96 98 130 102 67 50 58 62 86 65 72 84 107 110 109 112 73 78 116 103 95 91 85 91 105 117 114 104 106 132 138 127 115 112 110 126 110 109 125 155 165 168 160 139 116 114 130 109 114 115 131 130 90 72 74 99 120 106 85 85 103 120 122 124 77 81 123 113 111 107 101 96 99 106 111 111 114 115 117 114 113 124 133 139 128 110 122 149 162 162 156 138 116 127 140 137 127 116 118 120 116 119 122 134 118 111 97 100 107 120 131 134 82 83 133 128 123 116 108 100 102 106 110 110 111 111 110 107 109 113 116 127 124 114 119 143 160 163 157 139 119 122 129 121 119 113 113 114 121 120 124 126 117 108 110 119 117 128 139 140 86 84 140 141 133 127 127 117 106 105 108 109 111 117 123 124 123 120 120 122 123 116 117 139 156 158 154 137 121 121 120 124 126 127 127 125 118 116 116 116 115 116 120 129 133 138 146 146 88 87 145 146 144 134 136 138 137 135 136 135 134 140 138 134 136 127 123 126 124 118 116 135 151 156 151 135 122 122 124 123 133 132 138 143 145 138 133 129 128 133 139 141 144 150 151 149 88 87 143 149 150 144 139 138 138 141 145 142 141 144 140 145 142 134 130 128 125 117 116 137 152 153 147 136 123 123 129 129 137 142 141 146 150 151 153 152 150 147 145 150 157 157 157 150 88 87 144 150 152 150 147 143 142 143 144 145 145 146 150 153 148 137 131 129 124 116 118 138 151 158 148 135 122 124 131 135 144 145 147 147 152 155 160 159 155 153 152 159 158 159 154 150 90 85 144 149 152 151 148 148 147 146 149 150 153 156 157 156 147 135 127 126 121 114 119 137 151 159 152 139 123 123 129 132 145 152 155 151 153 157 157 160 161 159 159 161 161 160 153 146 88 83 141 146 150 150 150 149 149 150 155 157 155 159 158 154 149 137 129 126 117 116 121 136 153 157 154 141 128 121 127 132 147 158 163 163 161 159 157 153 164 164 163 165 164 159 153 142 86 82 137 142 143 148 149 148 150 155 154 155 158 160 157 158 149 138 129 121 113 114 122 137 148 153 150 144 131 122 124 133 146 157 163 167 165 167 167 167 168 168 166 164 163 157 150 145 87 79 134 138 142 149 149 148 152 153 154 152 157 157 163 161 149 136 119 112 107 114 129 146 153 154 154 148 135 122 118 129 144 161 166 169 169 170 170 170 170 167 163 162 157 153 146 142 87 77 127 136 140 147 145 146 152 153 155 155 157 162 164 159 145 125 109 111 108 124 139 146 157 157 157 153 142 127 115 122 142 160 168 168 167 169 167 170 169 166 162 158 153 150 144 141 85 76 124 134 136 143 143 146 148 151 153 156 159 162 158 148 133 114 111 110 116 130 145 155 163 162 163 164 149 133 118 116 139 154 164 170 167 167 172 171 167 161 159 156 153 150 146 141 85 74 123 126 134 139 143 145 148 149 150 153 153 153 147 134 117 107 113 113 119 134 150 167 172 170 172 171 153 136 124 120 126 144 158 164 164 165 167 168 165 160 158 156 155 149 145 142 84 70 118 127 133 137 139 142 143 144 146 148 148 144 133 120 111 106 113 111 109 124 141 162 166 165 168 167 150 131 123 119 114 132 151 157 161 164 164 163 164 158 154 154 153 149 145 141 83 68 114 123 130 135 138 141 141 141 141 142 139 131 121 112 110 103 100 88 85 98 121 138 148 152 147 145 133 114 112 113 114 120 138 151 159 160 161 161 157 156 155 152 149 148 142 139 82 63 111 119 127 134 134 138 139 140 137 136 134 125 121 117 120 113 86 66 65 75 102 122 131 137 136 125 96 80 90 105 116 123 131 139 151 156 158 155 153 154 151 151 146 143 133 134 80 61 109 117 124 127 135 138 139 137 136 132 129 124 121 128 129 124 105 81 83 87 87 105 114 121 118 95 73 61 81 119 126 129 133 137 143 151 153 154 152 150 151 147 143 140 129 131 78 59 108 115 120 128 131 134 134 137 136 133 131 130 131 134 129 123 102 86 71 70 76 85 91 96 92 82 73 84 117 131 136 138 139 140 142 147 150 151 148 147 149 145 143 139 132 126 77 56 100 108 114 119 129 131 135 134 134 135 136 136 128 121 113 100 71 61 61 59 72 73 75 76 73 65 62 62 93 128 138 140 141 142 142 144 146 148 145 146 147 143 135 130 128 122 72 55 91 104 104 115 125 129 133 134 135 133 126 114 100 90 82 72 58 57 58 57 67 71 84 80 71 67 61 60 68 113 131 137 140 143 144 144 146 145 144 143 142 139 128 120 121 111 69 47 84 93 101 110 118 128 129 132 128 113 98 90 80 70 63 56 56 55 53 57 65 68 77 73 69 69 61 61 62 83 108 118 120 132 136 143 145 145 145 139 137 132 118 108 108 104 66 43 80 86 96 110 121 128 127 124 110 84 77 68 62 57 50 50 50 46 46 53 63 62 59 61 61 57 54 59 61 64 79 91 97 106 112 129 141 144 143 137 130 120 114 100 97 99 56 40 75 75 89 105 116 120 112 95 75 65 59 52 55 53 54 44 42 39 46 52 59 53 52 57 64 52 47 53 54 56 62 70 74 78 81 104 131 141 142 137 127 113 104 100 87 94 56 38 67 69 78 89 93 89 86 71 60 57 55 57 49 50 48 42 40 41 48 51 55 56 68 62 55 52 44 46 46 51 57 65 63 63 68 78 110 131 137 134 121 106 94 90 78 82 51 36 67 66 64 73 74 69 58 55 57 52 52 53 43 46 43 42 43 45 45 49 51 60 73 63 52 47 41 42 44 53 50 62 65 58 61 66 80 114 132 125 108 95 86 80 76 80 49 36 60 57 60 64 62 51 60 57 50 49 52 51 50 57 62 68 65 70 74 78 84 80 78 79 65 53 49 48 44 48 48 52 59 52 57 64 65 92 117 113 96 86 78 83 77 84 48 34 57 50 54 64 59 54 58 56 59 54 58 63 76 90 98 109 114 120 128 130 130 125 123 118 111 96 88 82 70 59 54 50 50 50 51 53 63 80 103 96 83 73 65 76 75 77 47 33 54 48 54 63 62 54 56 62 57 58 72 89 99 111 102 103 99 95 97 98 102 99 96 98 106 107 103 103 101 90 88 74 62 55 49 51 60 73 87 86 77 65 63 70 74 78 48 35 50 46 53 59 62 58 58 55 57 68 85 95 110 109 89 82 82 73 73 70 68 70 71 69 73 77 81 80 90 97 109 98 80 65 54 51 58 65 85 80 67 64 63 67 73 76 51 33 50 46 51 53 52 54 53 54 61 69 85 103 110 91 81 81 71 67 60 56 53 59 60 56 51 53 63 65 78 86 94 101 91 81 60 55 64 61 73 70 61 61 59 64 76 76 48 31 45 47 49 47 44 49 54 50 61 67 81 91 96 86 79 74 64 53 52 47 46 43 45 45 46 56 55 54 61 63 70 80 97 95 76 61 61 55 65 62 61 65 60 65 70 81 57 28 44 48 45 43 41 42 44 45 54 67 77 78 84 83 74 61 65 60 54 47 49 48 47 49 56 59 68 69 69 67 73 79 94 107 84 65 65 51 60 63 63 63 56 62 68 85 74 26 39 40 39 45 40 40 39 44 57 66 72 73 83 76 79 73 71 66 56 67 61 61 66 74 81 85 84 90 88 80 81 84 88 107 91 70 60 56 56 59 59 62 56 61 70 101 95 25 36 35 39 40 38 39 37 43 54 63 63 67 62 81 74 67 67 62 62 63 64 75 85 84 81 85 85 95 91 82 83 72 72 77 83 73 54 54 55 57 59 56 51 64 67 122 110 32 41 36 37 39 44 41 43 42 53 53 55 63 59 64 55 60 64 70 74 75 74 73 77 71 61 62 71 77 83 70 75 71 69 67 73 64 60 60 54 53 56 51 51 57 78 141 136 43 54 39 35 38 42 41 40 39 46 56 57 57 55 53 52 53 54 63 77 81 87 77 78 69 72 63 63 75 68 59 67 61 60 53 56 61 66 61 52 49 51 50 51 58 98 159 153 58 71 51 37 37 44 42 39 36 44 55 48 53 51 46 46 45 51 65 66 69 82 76 67 61 62 60 60 63 55 60 52 52 52 50 55 55 56 63 54 47 50 44 52 57 112 209 156 60 79 63 43 39 42 42 41 38 42 42 43 44 47 48 44 42 51 58 62 63 67 69 58 50 59 55 54 52 49 49 49 48 54 51 50 51 49 54 53 44 44 43 50 63 107 187 154 59 93 80 66 41 38 38 37 40 36 36 39 39 41 47 40 43 48 48 53 56 58 60 55 46 50 50 50 45 46 48 49 47 46 51 46 50 47 45 49 45 45 46 63 77 91 60 63 61 99 88 82 64 39 37 37 40 35 35 36 34 39 37 38 44 43 43 47 50 49 53 52 44 45 46 47 46 47 44 52 48 43 47 43 47 46 45 44 42 47 54 80 78 120 44 24 61 98 97 89 84 59 39 40 39 36 37 36 36 39 37 38 43 39 43 42 44 43 44 43 43 39 39 42 40 41 39 43 41 42 42 42 45 40 46 43 43 55 65 85 83 120 62 20 59 100 98 94 88 78 52 39 37 38 38 34 43 39 41 39 41 41 38 34 37 34 35 38 40 37 35 38 35 34 36 41 40 44 40 42 42 41 45 43 47 65 79 83 85 115 79 19 36 60 61 59 55 55 40 31 25 24 23 22 21 22 26 25 27 26 19 19 22 20 20 20 21 22 22 21 19 22 23 26 24 30 23 27 25 22 27 28 34 47 52 46 56 69 52 11 