P2
48
60
255
12 17 25 42 60 77 83 90 92 93 96 98 99 98 101 102 102 102 98 99 96 93 95 89 82 80 70 70 70 74 81 78 60 66 73 41 45 62 52 40 28 21 19 18 16 19 17 12 17 32 46 78 105 128 137 144 145 151 158 164 171 175 176 179 175 174 168 169 163 159 159 150 141 133 124 115 113 117 121 120 111 112 136 76 62 101 91 76 58 38 30 31 27 38 35 20 21 37 57 85 111 127 141 148 153 156 168 173 181 183 177 181 179 177 175 171 169 166 164 155 153 153 144 138 132 126 118 115 120 128 128 93 76 101 103 89 72 47 35 29 29 29 35 24 22 41 75 95 121 130 143 151 158 164 171 177 187 185 180 180 175 173 170 172 170 168 168 165 165 163 160 154 148 146 133 122 122 129 135 118 89 103 102 98 84 63 42 32 30 31 34 24 23 48 87 110 132 140 147 153 164 167 178 184 192 189 179 183 175 170 160 164 171 171 168 173 168 168 168 165 158 163 157 143 136 133 130 126 90 118 111 103 94 79 52 36 29 30 34 21 27 61 100 123 136 144 147 154 163 166 176 177 171 167 168 169 165 156 153 158 167 172 171 170 166 167 165 164 162 165 164 159 149 143 145 135 114 116 118 107 103 92 67 42 30 29 36 20 38 74 114 131 138 137 136 141 131 124 129 131 132 118 135 140 142 144 138 151 165 171 168 171 165 165 164 160 158 156 157 160 164 154 137 141 146 120 126 115 107 100 88 56 35 29 34 22 42 93 125 132 117 91 90 88 80 74 63 65 64 74 76 106 117 117 129 142 141 153 162 163 159 157 151 145 139 132 131 118 137 136 135 131 140 131 131 124 110 104 103 77 43 29 32 20 52 110 128 110 83 73 69 71 55 47 41 41 40 46 54 73 82 82 98 100 124 145 155 158 156 145 136 129 116 110 103 96 103 94 102 113 113 114 119 119 109 102 107 94 59 34 31 19 61 117 109 91 90 84 83 71 56 47 44 39 38 41 49 53 61 65 70 74 100 124 149 149 150 143 122 106 89 80 74 77 72 68 62 59 60 64 65 70 77 84 92 101 78 44 32 21 63 92 77 78 93 108 108 99 91 83 72 57 46 41 43 49 51 61 60 64 79 114 143 149 151 137 108 84 67 61 64 64 62 62 50 51 48 46 51 59 62 61 65 78 86 59 33 21 58 76 75 95 116 114 114 117 116 112 102 92 82 68 57 56 59 59 61 68 82 120 147 148 151 138 104 77 65 59 63 59 54 50 45 47 49 54 55 59 74 80 72 63 71 69 42 17 51 71 91 108 111 106 107 97 94 106 99 94 89 74 62 69 76 76 74 86 103 133 154 153 153 142 116 88 67 61 63 59 53 52 57 69 85 98 104 102 107 110 106 95 74 70 56 19 43 84 111 106 104 97 74 83 74 51 38 36 46 69 95 68 70 89 100 110 133 150 166 164 158 140 122 108 88 83 76 61 51 50 57 64 79 88 99 108 106 108 109 99 82 76 60 23 55 104 102 103 97 68 72 48 38 32 82 31 69 45 55 90 71 76 100 117 137 149 165 167 162 150 129 114 101 84 66 50 55 53 40 37 47 67 79 75 93 103 103 101 91 72 63 29 69 107 106 102 77 62 44 47 63 39 34 31 60 61 96 54 87 76 87 116 136 148 168 170 163 150 130 114 89 67 62 64 44 39 81 31 49 32 40 64 66 80 95 99 99 85 67 33 71 112 105 87 72 65 70 85 89 49 40 34 45 79 137 67 68 96 92 118 135 144 163 166 155 141 121 110 91 73 74 53 107 52 39 32 73 37 57 40 59 58 85 94 97 97 70 39 73 115 104 86 85 95 86 89 103 84 60 52 63 124 137 97 86 99 117 123 136 144 151 158 154 132 118 109 103 87 74 70 133 71 42 34 38 41 76 61 40 59 68 96 100 101 85 45 81 122 112 106 116 119 103 101 99 124 113 99 104 105 102 110 111 122 128 127 133 140 142 157 151 129 114 110 107 95 90 95 123 116 63 52 54 66 88 73 65 60 64 85 96 100 91 51 82 130 133 134 136 133 121 117 120 112 91 75 85 85 96 109 125 136 129 131 134 134 142 159 152 125 111 112 112 117 126 114 103 97 101 97 104 101 101 88 81 84 77 81 91 99 96 56 89 142 140 145 141 139 135 129 117 110 101 101 97 109 110 124 138 140 134 135 136 136 140 155 154 127 112 113 115 120 128 118 108 98 84 84 98 104 117 114 105 104 97 89 96 103 106 64 88 140 144 146 149 152 153 152 143 135 133 130 127 141 137 141 142 142 137 138 137 132 147 153 153 124 112 115 117 121 125 133 127 114 104 100 107 114 122 124 118 119 120 111 109 112 111 68 82 136 140 141 154 153 161 165 166 160 166 158 154 148 150 151 144 139 139 140 134 134 155 160 150 131 118 117 118 123 128 137 145 140 137 137 135 127 123 131 135 127 129 125 120 122 119 69 83 137 143 145 148 153 163 169 172 169 164 164 164 158 152 152 147 141 144 136 132 140 160 165 161 140 121 116 120 122 134 135 146 154 154 156 158 158 157 155 148 133 132 132 126 122 124 72 84 142 148 152 154 155 159 161 161 169 163 156 160 159 159 154 148 145 141 131 133 147 160 164 161 147 126 111 117 124 130 140 143 146 152 160 161 159 160 158 155 148 139 132 132 120 120 76 87 149 160 169 167 165 164 163 167 168 166 159 158 161 163 157 153 144 133 129 138 157 163 163 162 149 130 113 113 128 132 143 148 152 146 153 153 156 160 162 161 155 146 136 127 123 118 73 85 146 160 170 181 181 175 164 166 169 169 163 165 166 169 168 149 132 127 130 147 167 164 163 161 159 135 115 108 116 138 146 155 155 151 139 154 154 152 157 161 155 148 139 126 125 118 72 81 141 146 169 178 181 177 172 174 168 173 173 177 177 178 153 132 123 124 137 157 196 186 169 165 173 154 122 107 109 125 150 164 160 155 154 156 161 158 155 156 155 157 145 127 126 117 70 83 129 145 156 172 178 178 179 179 179 179 183 189 181 155 128 131 137 135 142 152 176 168 162 167 193 161 131 115 122 116 139 169 173 167 162 159 162 162 158 158 164 158 149 136 125 115 68 78 127 142 153 161 174 176 173 176 177 183 190 188 163 127 119 135 139 133 126 123 130 142 146 147 140 125 118 120 127 121 120 150 170 174 169 167 163 165 165 164 167 162 147 137 126 117 69 76 129 140 147 162 175 174 166 175 177 186 182 165 131 106 120 122 111 100 91 103 112 120 122 127 115 104 97 98 112 120 113 124 155 177 178 175 171 165 167 165 165 160 144 130 121 118 70 75 132 142 155 165 164 172 176 177 185 178 168 142 106 108 113 107 76 40 29 43 94 105 104 110 101 61 39 43 79 104 107 108 136 166 175 183 182 173 171 165 165 160 142 131 124 111 69 73 129 136 143 149 158 164 168 175 173 166 150 117 98 119 102 84 59 37 31 38 63 81 81 89 73 48 46 44 65 89 100 105 111 146 169 180 181 174 170 165 161 161 147 135 125 112 67 71 119 134 141 147 150 160 165 166 165 159 137 111 125 135 129 92 62 60 90 102 91 73 66 77 89 108 107 77 66 80 106 112 103 127 153 172 178 169 169 166 164 157 142 130 123 117 69 72 120 130 138 141 143 153 159 159 155 150 135 130 150 147 146 136 121 119 127 131 117 79 66 85 107 115 111 97 94 107 120 127 113 113 140 162 170 168 163 162 155 149 139 129 122 117 68 71 119 122 128 134 140 144 148 153 153 142 136 149 161 151 148 142 129 136 146 147 143 127 117 117 119 122 122 117 121 121 124 127 123 110 126 148 160 167 162 148 143 139 137 129 122 116 68 70 114 123 125 131 140 144 142 145 147 140 145 157 157 150 150 147 143 152 159 159 157 151 152 158 153 147 137 124 121 125 124 126 127 116 116 140 153 154 153 146 137 133 127 125 119 115 67 69 111 117 120 125 139 141 136 137 137 137 150 148 149 151 150 152 147 156 160 158 156 153 154 155 156 152 146 141 132 131 126 127 126 120 109 130 140 144 147 142 135 127 126 120 115 113 65 72 110 112 114 123 132 135 133 131 130 135 146 147 141 142 142 146 150 150 156 155 154 150 155 157 150 147 144 137 132 129 125 126 124 124 109 112 126 136 140 134 130 122 120 117 113 108 64 67 108 111 114 115 113 120 125 122 120 133 135 130 124 129 132 142 146 147 149 149 148 142 141 151 146 140 141 135 128 124 118 118 119 119 111 97 118 126 126 126 121 119 115 113 111 106 65 66 104 110 113 113 117 115 118 114 115 124 122 117 113 116 129 135 132 127 127 133 138 141 137 142 144 134 131 133 127 120 113 108 109 113 112 93 108 121 122 118 116 112 110 108 106 103 65 68 107 109 112 112 115 115 111 105 110 111 108 98 105 114 111 98 91 98 93 92 94 104 115 106 106 105 100 102 114 115 110 103 99 99 105 91 91 109 114 111 109 109 106 104 100 102 64 66 110 110 113 115 112 107 102 96 102 97 94 96 102 100 73 68 70 79 81 73 63 65 72 75 70 78 85 79 74 84 101 102 95 92 96 90 84 98 108 106 107 106 103 102 98 100 64 67 114 112 115 117 112 109 99 94 90 81 88 96 88 60 49 52 57 54 56 59 63 62 64 64 64 60 62 60 56 58 64 90 97 87 87 86 83 92 104 105 103 100 104 100 97 100 63 70 114 119 116 113 113 109 99 88 76 72 84 80 54 41 45 70 83 77 81 101 110 112 97 102 93 84 85 76 59 49 43 55 78 91 82 79 80 95 107 107 102 100 101 104 97 99 61 72 115 119 120 117 115 112 103 86 69 72 67 44 43 79 100 107 119 113 120 123 123 127 130 126 123 116 113 100 90 79 65 47 48 66 79 75 76 94 108 111 99 99 100 103 102 101 60 72 117 118 119 116 118 116 112 92 76 66 59 67 80 88 87 85 93 102 124 123 119 121 127 123 133 125 105 87 82 79 80 78 70 57 61 72 72 92 115 108 105 105 103 103 103 101 60 72 116 116 114 109 115 120 122 104 83 77 82 92 92 90 91 95 97 96 104 105 110 107 104 108 108 107 100 96 97 94 97 92 91 88 75 75 76 98 119 114 104 106 104 102 101 103 62 73 116 117 117 120 119 123 128 113 99 93 101 100 99 94 95 95 95 96 97 104 105 100 101 109 110 110 107 106 109 106 104 97 97 99 92 89 89 106 120 118 108 103 100 100 102 102 61 71 117 113 114 110 122 122 127 120 109 105 106 103 103 99 100 97 98 97 91 76 71 70 72 78 86 95 100 105 106 106 101 98 100 104 103 99 102 115 124 118 110 99 98 96 101 100 60 69 115 115 111 111 109 115 121 123 109 104 107 105 107 104 99 102 105 106 98 98 91 90 89 90 96 97 100 103 102 97 94 96 95 103 105 105 109 118 122 116 109 102 101 96 104 102 58 68 114 112 113 110 109 112 118 115 103 102 109 106 102 100 99 97 95 93 91 87 83 83 78 75 79 84 91 92 89 90 90 91 96 103 106 104 107 119 120 113 108 101 101 102 102 101 56 68 112 111 107 107 108 109 113 109 102 106 106 104 103 100 97 100 97 94 89 84 79 74 74 76 75 79 84 87 91 92 90 92 96 104 104 103 105 114 116 108 106 101 100 104 98 96 55 65 110 109 109 106 103 108 109 108 105 106 106 105 103 100 101 104 104 105 101 105 107 105 103 101 102 99 98 97 96 96 93 95 97 104 105 105 103 109 110 103 104 102 104 102 95 93 54 62 107 104 105 102 105 105 105 104 105 109 109 105 103 104 104 109 114 123 129 139 148 146 144 137 141 131 115 111 108 101 100 101 98 104 105 107 104 107 108 100 102 103 105 98 94 89 42 51 101 101 103 101 104 105 104 105 109 108 109 108 106 110 112 115 126 140 153 155 152 156 156 154 150 145 138 127 118 113 110 106 104 105 106 108 107 107 106 100 101 101 101 95 93 81 26 45 89 98 100 99 101 101 104 106 108 108 109 108 109 111 118 125 137 146 152 150 143 146 147 151 146 145 145 132 123 125 115 109 109 108 106 108 108 107 100 99 103 104 102 98 90 61 17 50 77 91 97 97 99 102 105 107 108 108 107 109 111 110 118 129 138 141 145 140 132 130 132 133 138 139 138 136 133 128 119 115 107 105 102 104 104 104 100 100 101 101 100 93 83 46 16 56 84 80 90 95 94 97 100 102 104 106 108 103 106 112 118 127 136 136 138 135 129 129 131 128 129 133 134 135 133 127 117 112 106 101 97 97 99 98 99 97 98 96 94 90 70 53 16 39 56 50 50 54 54 58 59 61 63 65 65 65 65 68 72 77 81 81 81 77 75 76 76 75 78 77 83 80 77 74 72 66 63 60 60 59 60 59 59 58 59 58 55 49 47 40 11 