P2
48
60
255
27 53 61 67 70 72 72 72 72 72 72 72 73 72 72 71 69 69 67 66 69 69 67 64 62 59 59 60 62 61 58 54 51 49 43 40 35 32 30 27 26 31 28 27 29 26 26 16 45 85 100 109 112 116 117 116 116 115 116 118 118 118 117 116 114 113 112 110 113 111 109 106 102 99 100 102 104 103 101 98 90 82 76 68 58 53 52 48 46 48 41 40 42 42 42 27 47 90 102 109 113 117 118 118 118 118 120 120 118 119 119 119 116 112 113 114 115 113 113 107 102 102 105 108 110 109 106 102 94 89 81 71 64 57 55 53 50 48 48 41 41 41 42 27 52 98 106 111 114 116 119 118 119 121 123 119 120 118 121 121 119 114 114 116 116 113 112 110 107 108 110 110 110 114 109 105 99 95 84 75 69 63 60 58 57 53 50 44 40 40 43 29 55 101 107 112 115 116 118 117 121 123 125 122 125 124 125 123 121 120 118 116 118 115 111 112 113 113 113 112 113 114 107 106 103 98 87 80 72 67 64 62 61 56 51 49 43 42 39 29 58 102 107 112 115 118 117 120 123 124 126 125 126 125 124 121 121 119 118 118 115 115 112 117 116 116 112 114 113 111 110 107 103 97 90 84 77 72 68 66 64 60 55 51 46 42 39 25 61 102 105 110 111 108 109 115 120 122 122 123 125 122 119 116 118 117 117 117 117 115 116 116 117 115 113 112 111 106 103 101 98 96 91 85 80 75 72 70 68 65 58 53 49 43 39 25 62 102 105 99 100 99 101 104 107 109 112 113 115 114 112 111 112 113 112 111 111 111 115 115 113 110 109 108 104 100 98 95 93 90 87 81 74 70 69 68 67 65 61 56 49 45 41 24 61 99 96 98 96 95 95 94 93 91 91 90 90 91 91 96 102 105 106 105 107 109 112 113 109 106 104 101 95 93 88 84 79 78 73 68 64 63 62 64 65 61 58 56 51 47 42 24 56 88 94 93 82 72 66 63 62 60 58 58 62 70 77 77 85 91 94 99 103 106 109 110 108 106 100 95 88 83 74 70 69 65 64 63 63 66 66 65 64 63 62 58 53 47 44 24 52 85 71 74 82 91 95 94 86 80 75 72 67 64 66 64 66 75 78 83 92 102 108 112 109 103 95 88 82 71 65 63 63 62 60 59 58 58 61 69 67 70 66 60 56 50 44 27 54 77 86 94 108 115 116 112 103 86 83 80 77 76 74 75 72 63 64 79 86 97 110 115 111 104 95 84 74 65 59 57 51 48 51 50 55 60 65 67 63 60 55 50 48 47 46 26 48 70 92 113 117 120 117 106 92 65 59 56 57 62 71 77 79 78 68 66 91 96 115 121 114 104 96 84 71 59 55 50 56 56 56 56 56 57 63 67 68 68 66 63 57 53 48 27 36 53 103 111 117 118 108 93 73 50 45 43 44 51 56 64 76 79 82 67 75 84 128 135 101 112 84 74 64 58 56 56 53 50 51 46 44 44 46 47 52 60 62 61 56 51 48 30 26 61 101 108 113 112 99 89 83 55 67 42 43 53 59 62 66 77 83 85 54 79 96 108 103 103 81 68 66 56 60 55 51 51 47 51 44 43 48 50 47 48 54 58 56 52 48 26 28 81 96 103 105 101 90 92 91 53 54 38 41 57 65 60 71 78 84 88 64 80 102 115 115 106 93 77 77 64 74 59 48 58 47 49 39 41 48 57 48 46 48 55 54 53 50 26 30 96 95 102 102 100 93 89 89 75 51 46 55 74 69 62 76 84 88 86 63 74 105 114 110 98 80 65 56 76 91 62 51 62 53 44 41 46 56 60 51 48 48 52 53 53 51 28 36 106 101 104 102 107 105 100 85 80 77 72 75 80 80 81 86 95 94 86 62 69 112 121 120 113 94 68 52 79 91 79 73 71 70 66 62 64 65 63 58 53 52 52 52 54 54 30 44 106 106 108 108 107 104 104 99 95 92 88 87 84 85 88 97 95 86 89 58 76 118 116 116 113 95 72 49 73 83 77 75 70 72 74 75 73 72 70 70 65 59 54 51 54 55 32 52 105 108 107 107 106 101 98 93 92 90 86 87 90 90 93 94 92 87 82 61 95 121 120 119 113 91 73 48 79 76 77 76 75 74 73 77 75 76 74 72 68 62 58 53 53 54 33 55 108 112 113 114 113 110 104 101 100 99 96 97 96 97 97 96 91 89 74 75 110 120 120 119 112 87 75 51 64 74 77 78 80 82 84 86 80 82 80 74 69 65 64 58 56 56 34 59 107 110 113 113 110 108 107 108 104 102 99 100 99 98 99 100 91 90 67 97 116 118 121 116 107 85 77 64 59 72 79 81 85 86 88 90 89 91 90 81 78 73 67 62 59 58 36 63 107 110 112 114 111 109 109 103 101 105 105 103 101 103 100 100 90 77 80 111 115 116 123 121 101 83 78 73 55 73 82 83 85 88 90 93 92 90 91 85 83 77 70 64 61 59 37 60 105 108 110 113 111 109 108 105 106 109 106 107 108 107 105 103 90 69 99 112 112 115 124 121 96 82 78 77 63 67 79 82 87 91 94 96 94 94 95 92 85 78 74 68 64 61 42 46 99 118 118 112 110 107 108 108 110 109 109 108 110 110 107 96 71 87 110 113 112 113 122 121 100 83 78 78 68 58 76 80 87 92 96 97 96 94 93 92 86 79 76 72 66 68 50 69 84 120 119 113 109 105 106 106 107 107 109 109 111 110 94 76 83 105 112 112 114 111 121 122 106 88 79 76 76 65 59 78 82 86 91 94 95 94 92 88 84 80 77 72 69 79 61 69 113 95 88 102 108 107 106 107 107 108 110 109 101 81 83 85 101 111 110 110 114 117 124 122 112 95 81 74 75 67 65 62 80 82 85 91 94 92 91 86 84 83 80 76 75 83 44 67 109 112 110 98 84 80 84 86 85 83 80 77 84 89 88 100 107 108 106 109 118 123 121 117 113 98 82 74 70 67 61 69 62 74 85 86 88 88 87 86 85 90 94 91 76 64 43 67 108 110 113 114 111 109 102 99 96 95 94 90 89 95 102 102 103 110 110 111 120 125 123 122 114 99 83 83 76 65 61 62 69 69 66 71 81 87 90 91 90 86 75 67 68 71 44 66 107 108 112 113 111 110 105 100 99 99 99 97 100 103 101 98 106 117 112 111 124 131 123 116 111 99 87 83 85 69 63 63 64 66 72 75 73 72 72 73 73 74 74 72 71 72 44 65 105 105 108 109 108 107 105 103 103 105 107 107 106 102 97 95 110 115 108 107 120 128 115 104 98 88 77 77 81 72 64 65 69 69 70 71 72 73 73 72 72 70 69 69 71 73 45 65 104 104 105 108 107 108 108 107 109 110 110 109 106 99 96 94 103 102 101 97 100 105 101 92 81 71 66 68 69 70 67 66 73 77 79 80 79 77 74 72 71 69 67 70 73 74 46 64 104 106 108 108 108 111 109 111 112 111 111 107 102 98 99 99 98 85 72 87 95 90 83 76 68 64 53 55 63 75 74 71 74 80 85 86 87 89 84 81 77 74 73 74 75 76 46 64 105 106 107 108 108 111 110 112 112 113 109 106 101 103 106 104 103 95 83 87 92 84 75 71 67 54 52 54 70 82 82 79 78 83 86 87 89 91 90 88 85 81 78 77 77 77 47 64 105 106 106 107 108 110 110 112 111 110 108 105 106 110 109 106 106 105 104 103 103 96 82 70 59 56 61 71 83 88 88 85 82 83 86 87 88 89 89 88 86 85 81 78 78 77 48 64 104 105 106 105 108 110 113 112 111 110 108 108 112 114 112 108 105 106 106 104 103 95 79 70 68 70 76 84 89 91 91 88 87 86 87 87 88 87 88 87 86 85 82 80 79 78 49 63 103 107 107 108 108 109 112 112 113 112 110 112 113 114 111 109 105 104 103 102 99 83 74 80 85 84 87 88 90 92 90 88 89 88 86 86 86 87 88 87 85 84 83 81 81 81 50 64 103 106 108 109 110 112 113 113 112 112 111 110 111 113 110 110 105 102 104 101 95 81 83 93 100 96 93 95 91 90 88 88 88 87 87 87 85 86 87 86 86 84 83 83 82 82 52 65 104 105 109 113 112 112 113 113 112 109 106 106 109 111 109 111 105 103 101 101 99 90 95 103 109 101 97 96 93 88 89 87 87 85 86 86 86 88 87 87 86 86 85 85 84 84 52 65 105 104 108 113 113 114 111 110 106 103 107 109 113 114 111 110 108 104 101 96 91 95 98 102 96 84 82 84 88 87 86 86 86 85 86 86 88 90 90 88 87 87 86 84 84 85 55 66 107 106 108 114 113 112 112 111 105 102 106 110 109 108 107 103 95 88 84 81 78 77 81 78 71 70 70 68 69 70 76 78 80 83 87 87 90 93 91 89 88 87 85 85 86 87 57 66 108 108 107 111 112 113 108 109 103 103 103 100 92 86 79 73 71 69 70 73 70 67 68 64 61 60 59 57 57 57 59 62 68 76 88 89 95 95 93 89 89 86 85 85 86 89 62 64 108 107 107 109 110 111 110 109 104 103 96 84 65 59 62 63 60 57 60 64 63 62 61 57 55 54 52 52 50 51 51 55 69 80 89 93 100 96 92 91 88 86 85 86 87 93 75 64 106 107 108 107 108 111 111 107 105 104 98 91 83 80 80 82 84 82 82 84 84 80 79 83 83 81 74 73 70 68 73 82 88 89 95 96 100 93 90 89 88 86 86 86 90 104 69 65 106 106 106 106 106 109 107 105 106 106 104 108 105 100 95 92 91 93 95 94 88 88 91 88 87 86 78 72 72 75 80 87 92 95 96 96 96 90 89 87 86 85 86 87 93 119 53 63 104 106 105 106 105 107 105 104 105 108 110 114 112 110 101 99 94 89 91 88 86 84 85 86 83 81 73 72 75 79 83 91 93 93 89 91 91 90 88 86 83 83 86 88 106 127 78 62 102 103 104 104 104 104 102 102 102 108 110 112 111 113 109 102 98 95 89 86 83 83 85 82 77 75 74 75 76 82 86 89 91 89 87 85 89 88 85 83 82 84 87 93 155 209 154 65 99 103 102 102 102 102 101 101 103 106 108 111 110 111 112 107 100 92 88 85 82 81 79 76 73 70 70 72 78 83 85 88 90 86 86 86 86 84 82 80 81 84 89 121 232 255 158 69 100 99 102 101 100 99 99 101 103 105 107 106 106 108 108 104 101 96 89 82 77 77 74 72 72 72 74 76 79 82 86 87 87 85 83 84 83 80 78 79 80 84 98 205 255 255 158 71 109 97 100 100 100 99 98 100 105 107 106 106 105 106 105 102 101 97 90 84 80 83 77 75 77 76 79 81 83 85 86 85 86 84 84 83 81 77 76 76 80 86 112 203 254 255 158 70 114 105 96 97 97 98 98 102 105 105 105 106 105 105 104 103 101 97 92 88 86 87 84 84 85 87 86 86 87 89 87 87 85 85 84 81 77 75 75 76 80 90 85 101 166 242 158 71 115 114 101 94 95 98 99 101 104 106 106 106 108 110 108 106 105 101 99 100 102 101 103 104 101 95 93 91 94 92 87 88 86 84 82 79 75 73 74 77 83 80 74 85 98 123 132 70 111 115 112 100 92 95 98 99 102 105 106 108 111 113 113 113 111 108 109 109 112 113 112 109 106 103 101 99 99 95 90 87 83 82 79 75 73 73 75 78 75 75 69 83 88 82 59 69 112 112 114 111 100 91 93 97 101 102 104 106 109 112 114 117 117 118 117 117 115 110 110 111 108 105 103 102 101 95 89 83 80 79 76 74 73 74 73 69 70 69 69 85 83 73 50 68 111 112 111 112 109 102 90 93 97 99 101 104 106 109 115 116 117 118 118 115 111 106 108 110 108 105 102 102 95 92 85 79 77 76 74 73 74 68 64 66 68 66 75 85 75 68 46 67 109 111 113 112 110 107 102 93 91 95 99 100 102 102 110 112 113 114 113 110 105 104 106 108 106 102 100 96 91 86 80 76 74 73 73 71 62 60 62 64 64 69 80 85 76 65 43 67 109 110 112 114 110 108 107 103 97 91 92 92 98 99 103 105 107 108 109 104 102 100 103 101 99 96 92 87 83 77 74 72 72 73 67 59 57 58 60 62 66 77 81 83 78 64 41 66 108 110 111 111 110 109 107 105 101 99 92 88 92 95 94 97 97 99 99 95 93 93 96 94 92 88 79 77 74 71 69 71 71 62 55 54 54 57 59 64 74 77 80 81 78 66 39 66 108 108 110 110 110 108 109 105 103 101 99 95 89 88 89 92 90 90 88 88 85 84 85 85 82 77 72 69 67 68 71 67 58 54 52 52 53 57 63 72 74 76 79 79 78 69 38 40 66 67 66 66 67 68 65 67 65 63 61 60 58 55 51 52 53 52 50 50 48 47 48 46 45 43 41 41 43 44 38 34 33 32 31 31 33 37 44 44 45 47 48 49 48 44 22 