P2
48
60
255
23 37 38 39 39 41 43 45 47 50 53 56 57 61 64 65 63 61 63 62 63 62 63 63 64 64 65 65 64 64 66 67 70 67 63 61 59 56 53 50 47 46 44 42 42 40 39 22 36 59 61 62 62 68 72 76 79 84 88 94 97 103 107 105 104 101 105 105 103 102 103 103 104 105 106 105 104 104 109 114 114 113 107 101 99 87 90 84 80 73 71 69 67 64 63 38 36 59 60 62 64 70 75 79 81 85 91 96 102 107 109 107 104 102 107 107 104 107 105 104 106 107 105 102 104 102 109 112 116 114 111 103 102 96 92 86 83 76 72 68 66 63 61 38 36 59 60 61 67 68 70 73 72 78 82 86 91 97 98 100 101 101 103 104 102 105 105 103 102 107 103 98 100 101 106 108 107 105 99 90 89 91 88 80 77 70 67 68 65 62 61 37 36 59 60 61 56 53 58 59 57 57 60 64 68 72 79 88 91 91 91 91 96 99 97 99 103 101 101 95 93 88 92 90 89 79 72 69 60 64 66 66 71 60 55 61 65 62 61 38 37 59 57 47 42 43 43 42 41 41 41 41 41 42 49 64 75 81 84 83 86 88 84 90 92 94 92 85 78 75 71 59 51 44 42 45 46 44 46 52 51 50 47 45 55 61 61 38 37 52 39 36 38 36 37 36 38 36 34 32 32 36 38 44 51 61 68 75 80 82 85 87 89 89 84 77 68 58 54 47 39 37 34 34 35 39 37 41 45 44 41 38 43 48 60 37 34 37 31 35 34 35 34 35 34 32 31 31 31 33 34 37 40 45 50 63 75 75 85 85 87 86 76 67 60 50 50 42 40 35 33 31 32 34 36 35 35 37 40 38 36 39 54 38 29 36 37 37 35 37 39 40 39 39 37 34 33 33 33 34 39 46 52 58 68 77 81 83 86 85 74 64 53 48 46 41 38 34 34 33 35 38 40 40 39 41 44 41 39 40 51 38 28 42 44 44 44 43 45 52 55 54 48 41 36 35 34 35 37 43 46 54 64 75 82 88 90 87 74 64 53 48 44 40 39 38 39 44 50 57 60 58 56 56 54 53 48 47 52 38 30 47 49 50 53 55 61 67 70 69 65 56 46 37 33 33 34 37 40 47 59 71 84 90 93 88 74 60 54 47 40 37 37 38 45 54 64 73 77 73 68 64 61 60 58 53 59 40 30 48 48 51 54 59 64 70 77 77 78 73 63 49 37 32 32 34 38 45 56 70 86 94 97 92 75 59 46 41 38 39 41 48 59 68 74 82 80 72 67 64 62 61 62 61 65 42 33 52 51 52 54 56 57 59 64 70 74 79 79 65 52 37 34 35 38 43 56 70 90 99 103 97 78 60 46 43 41 40 47 59 71 75 83 87 78 68 61 57 57 59 63 65 68 43 34 53 50 48 47 45 52 61 72 78 80 80 74 69 64 54 40 42 43 45 57 72 90 97 101 96 80 58 50 47 44 48 56 57 62 70 74 77 76 70 64 57 52 57 63 67 71 44 36 56 51 47 45 51 55 58 59 56 52 48 41 39 41 45 46 49 50 49 58 73 89 96 99 96 81 61 59 54 46 42 37 36 33 33 37 39 46 55 57 55 56 59 66 72 73 46 38 60 54 49 46 43 39 36 32 28 28 29 46 51 36 29 39 44 52 51 61 76 90 100 103 99 84 63 63 49 37 30 39 54 41 29 30 30 37 34 37 43 51 58 67 74 76 46 40 62 56 49 45 37 34 35 40 40 38 50 54 49 47 47 51 50 51 53 67 83 99 103 104 102 88 69 60 54 49 49 48 51 53 43 40 52 56 42 37 40 54 62 72 76 77 47 41 66 60 51 45 39 36 41 41 45 41 44 43 45 50 58 60 53 51 60 74 87 98 101 101 100 90 76 60 57 60 54 51 49 51 50 56 50 52 43 46 46 53 65 73 78 80 48 43 69 64 58 48 47 43 45 46 47 44 42 47 53 58 63 61 54 57 68 78 87 97 99 100 101 92 80 67 59 62 65 62 56 51 54 56 56 57 51 56 55 59 67 74 78 81 49 43 67 63 57 57 55 54 55 54 54 55 56 60 67 70 69 62 58 63 72 80 86 94 101 101 103 93 82 75 68 65 75 74 67 64 63 64 62 64 61 61 63 66 70 75 79 82 49 42 66 65 64 63 61 64 66 65 65 66 68 71 75 77 68 64 64 68 76 79 83 91 99 102 102 92 83 79 74 72 71 76 75 77 73 70 71 70 71 72 75 77 80 80 78 80 49 42 68 73 74 75 73 74 74 73 75 77 77 78 81 75 70 71 66 71 75 77 81 93 99 101 101 93 84 81 78 75 77 75 78 81 84 85 86 85 85 82 85 89 90 84 79 78 49 43 73 81 84 83 83 82 83 82 84 84 84 82 80 80 78 71 68 74 74 75 84 95 101 105 104 97 86 82 78 77 80 85 84 85 86 88 89 91 93 94 95 95 92 85 80 81 49 42 75 83 87 90 90 87 86 87 88 88 88 88 87 85 79 69 70 72 73 76 86 96 104 106 106 99 90 84 78 78 81 87 92 93 93 93 94 95 96 101 100 97 92 85 84 81 48 43 74 82 87 92 96 94 94 94 93 92 92 92 91 87 77 70 70 71 74 77 86 95 104 107 107 99 92 85 79 76 81 88 95 98 97 98 100 102 103 103 99 95 90 86 84 81 47 44 74 76 82 88 91 96 96 96 96 91 91 92 93 85 76 69 68 69 73 78 87 99 105 107 109 100 93 85 80 73 75 89 98 103 102 99 99 102 102 104 99 94 90 85 83 79 46 44 72 74 78 84 86 90 96 98 93 93 93 97 94 84 73 68 66 69 73 80 89 102 110 111 118 99 93 86 82 79 70 86 99 106 107 106 104 105 105 103 98 92 87 83 82 77 43 43 72 74 77 81 86 90 95 94 94 96 96 97 93 84 72 63 68 72 74 80 88 109 119 118 134 103 95 88 85 86 78 78 93 103 108 109 107 106 106 103 97 88 85 81 77 72 43 42 70 71 76 79 84 88 92 95 98 99 99 98 91 83 68 70 76 79 76 80 89 106 113 115 120 101 89 89 91 92 86 77 87 95 106 109 107 107 106 101 96 87 82 79 76 72 43 41 68 71 71 74 81 87 93 96 99 100 99 96 87 77 69 78 83 84 81 79 84 94 99 105 104 92 86 86 95 94 88 80 78 87 102 108 110 109 107 103 93 88 82 75 76 71 42 40 68 68 69 73 78 84 91 94 97 98 97 92 80 72 73 79 81 79 74 72 74 84 94 98 96 85 78 76 80 82 82 80 77 80 93 103 110 109 107 101 91 88 82 78 75 66 42 38 65 65 66 71 76 81 86 91 96 97 93 85 75 71 70 68 66 60 58 60 67 74 86 92 86 76 54 37 37 50 64 74 81 79 83 94 101 103 103 96 90 87 80 76 74 65 39 39 63 64 66 68 73 80 86 89 92 95 89 78 73 73 65 54 40 30 27 29 46 66 74 77 74 59 44 40 36 41 59 79 83 83 80 89 97 100 98 94 88 84 74 71 69 68 38 38 62 64 63 65 71 78 86 88 91 91 83 73 68 72 65 50 41 40 50 53 49 47 54 56 56 64 75 70 65 66 75 81 86 86 83 84 88 95 94 91 86 81 72 72 67 68 38 36 60 62 64 64 71 76 82 86 87 87 79 75 74 72 67 63 62 60 66 67 61 50 45 48 55 68 72 73 73 71 75 81 86 86 85 85 86 89 91 90 82 76 73 71 67 64 38 36 58 63 63 64 69 74 80 85 85 83 82 78 74 70 66 64 66 62 60 58 56 53 58 62 57 60 67 67 65 67 70 77 81 84 81 84 85 86 86 84 76 73 71 70 67 62 36 35 57 63 60 61 65 67 75 80 80 81 80 77 76 72 68 63 60 56 58 59 65 65 69 74 67 65 65 65 64 66 65 71 71 75 78 80 81 80 79 80 74 72 69 69 68 63 37 34 56 60 60 59 63 64 67 75 77 77 76 74 71 69 65 64 63 63 64 66 72 71 71 77 72 70 67 67 68 67 64 65 65 70 72 74 77 77 76 73 72 67 68 70 66 63 37 33 53 57 58 58 60 62 66 69 70 71 70 69 68 66 64 67 65 63 66 69 74 80 79 75 75 79 78 80 76 73 71 68 69 69 73 68 73 75 74 71 68 66 62 65 63 62 37 33 54 55 57 58 59 61 62 65 68 64 63 67 64 64 65 65 68 74 80 79 83 83 82 80 82 86 88 87 85 84 75 72 71 69 68 69 67 74 74 71 67 63 63 63 63 60 36 32 54 54 55 56 55 59 62 63 64 59 61 65 65 64 67 71 77 81 81 77 78 79 81 87 82 73 69 69 70 72 72 71 67 64 68 69 69 69 71 69 67 65 63 62 60 60 38 33 53 54 53 54 54 57 61 62 62 57 60 63 64 62 67 71 69 64 59 58 59 60 61 65 61 58 58 54 50 51 54 56 52 53 61 64 68 68 69 72 69 63 61 62 58 60 35 32 53 53 55 53 54 57 60 60 58 56 58 59 60 56 56 52 47 42 43 46 49 49 50 52 50 48 48 47 46 45 43 39 32 37 53 63 67 68 68 68 65 63 61 62 58 59 37 33 53 55 55 53 52 56 59 58 55 57 55 54 48 41 40 34 32 37 46 48 53 56 59 61 65 71 71 70 67 65 66 56 52 48 53 61 65 67 69 66 65 64 63 63 59 59 49 33 53 56 56 51 52 54 57 57 54 60 54 45 35 29 31 40 55 62 69 78 85 85 85 87 86 87 87 85 80 70 69 65 68 68 66 63 64 68 69 67 62 63 63 62 60 62 98 33 53 56 55 53 54 53 55 55 54 55 54 51 51 53 54 55 61 61 66 86 93 89 94 92 95 93 99 92 74 70 69 71 72 71 71 65 64 67 69 67 63 61 59 62 59 87 144 32 54 55 53 55 56 53 55 54 56 55 52 55 56 56 57 56 57 61 63 71 80 84 85 87 86 85 87 81 74 68 68 71 71 69 70 62 63 59 66 63 62 62 60 60 60 159 154 32 53 52 54 55 57 54 54 56 55 54 52 54 55 52 53 51 54 55 60 65 71 73 73 72 73 72 71 67 63 61 66 68 70 67 65 57 58 58 64 65 62 61 60 59 76 229 153 33 50 51 51 53 55 55 53 53 54 50 50 50 54 56 53 52 50 49 48 50 53 55 54 54 52 49 46 47 52 58 63 63 64 65 65 56 55 58 59 61 58 60 60 60 157 248 154 35 51 52 52 51 53 55 52 52 50 47 45 48 50 52 53 49 48 46 41 38 34 32 30 30 31 35 41 47 54 59 64 62 61 57 56 53 51 53 58 58 59 59 57 68 221 247 153 34 53 51 53 52 52 52 52 53 47 44 41 43 46 49 50 49 50 49 47 48 46 46 48 51 57 59 60 63 63 64 65 63 59 56 51 50 51 55 59 56 55 57 56 78 235 248 153 36 52 50 48 49 51 51 51 51 46 44 43 44 46 47 49 51 54 59 63 66 71 73 75 78 80 81 79 76 74 72 69 63 59 51 49 50 51 54 58 57 57 56 60 92 243 249 154 37 54 50 47 47 48 48 51 48 46 44 44 43 48 47 49 52 58 61 65 73 77 77 79 82 86 84 81 83 76 74 70 61 57 56 55 53 53 54 55 56 55 54 62 114 247 249 154 39 57 48 49 46 46 45 47 46 46 44 44 43 43 46 50 53 55 59 65 72 74 77 79 83 85 87 82 81 76 75 67 64 62 57 56 53 53 52 51 51 52 56 64 139 249 249 154 39 59 49 44 44 46 46 45 45 45 46 47 44 46 47 50 50 55 59 62 68 73 80 79 83 84 82 79 75 71 68 64 61 60 59 54 52 51 53 51 53 54 59 65 167 249 249 154 38 61 53 48 43 44 44 44 45 45 44 46 47 47 46 51 49 51 57 59 62 69 78 75 76 77 75 71 67 67 64 58 56 56 58 56 51 52 51 48 51 57 61 66 197 250 250 155 38 61 55 50 44 41 43 44 42 46 47 44 45 47 46 51 49 51 53 56 61 64 70 73 70 71 71 68 64 62 63 55 57 54 54 51 50 51 48 48 53 59 63 70 215 251 250 155 38 60 56 52 48 42 39 42 42 44 44 45 45 47 49 50 48 49 55 54 59 58 61 64 63 62 61 61 59 57 54 56 53 52 51 50 50 46 45 52 57 62 65 76 230 251 251 156 39 61 58 55 51 48 41 38 42 42 43 44 45 44 45 47 48 47 47 47 51 52 53 58 55 57 55 56 54 52 51 51 52 52 49 48 47 47 48 54 60 63 66 83 239 252 252 156 24 37 36 35 32 31 27 24 23 25 26 26 27 27 27 29 27 29 27 29 30 30 30 32 32 32 32 32 32 31 31 31 31 31 30 28 28 29 32 34 37 37 42 56 151 156 157 97 