P2
48
60
255
14 20 20 21 25 29 32 39 46 54 59 49 31 56 47 45 33 48 40 30 26 26 26 26 27 29 28 33 43 46 48 49 48 48 46 42 38 32 28 28 28 27 24 23 22 22 22 14 22 33 31 34 42 45 53 66 80 91 98 99 62 70 97 78 61 56 66 64 57 49 47 51 52 54 60 56 61 71 77 78 77 75 74 73 64 56 51 48 47 44 41 39 37 35 36 23 22 33 32 34 42 46 58 72 85 93 100 104 91 61 84 99 78 65 52 52 59 64 66 63 64 66 69 72 72 75 78 79 78 75 75 76 71 62 52 53 50 48 43 43 39 37 37 22 21 32 32 35 42 52 68 79 91 98 103 106 105 87 65 93 95 81 70 60 57 61 71 74 75 76 78 79 82 81 80 81 78 76 75 73 71 67 61 52 55 52 49 43 42 39 37 23 21 32 33 36 46 62 80 89 96 102 104 106 106 100 82 73 91 84 77 75 74 77 81 81 82 83 85 86 87 84 84 83 81 78 76 72 68 66 64 60 54 54 53 50 43 41 39 24 19 32 35 43 59 77 91 95 99 101 102 101 102 100 91 83 78 82 81 83 84 86 87 87 88 89 89 89 88 86 85 84 82 78 74 71 67 65 64 63 60 54 52 53 50 44 41 25 20 34 38 54 74 91 98 95 95 92 88 86 91 93 93 88 86 82 85 88 90 91 92 90 91 91 91 89 88 86 84 80 72 62 55 52 51 50 50 49 50 52 53 55 56 51 44 26 21 35 45 68 84 89 77 67 61 59 57 59 65 68 67 69 77 80 83 88 92 93 94 94 94 93 90 89 86 79 65 58 60 57 51 50 50 49 48 48 50 53 52 56 64 59 49 27 22 40 55 60 56 57 61 61 60 58 56 56 59 57 52 52 60 68 74 82 89 94 97 98 94 91 86 81 71 64 62 53 45 39 39 39 40 41 42 45 45 44 51 52 53 54 63 32 30 58 57 73 84 68 62 62 50 43 41 41 40 41 46 52 57 67 66 69 82 92 99 99 94 89 82 71 69 62 55 58 47 39 39 42 43 46 47 49 49 49 49 49 47 53 49 29 33 65 82 101 86 77 74 71 59 58 57 57 56 53 50 48 48 54 65 68 70 86 97 97 94 87 78 72 72 65 66 62 47 45 48 51 54 55 57 59 60 59 57 54 51 53 57 34 42 74 103 105 89 88 89 86 73 70 68 67 66 63 61 62 60 55 58 67 70 80 95 98 96 86 75 76 80 74 69 65 49 50 54 58 62 64 62 60 62 62 62 61 56 55 62 38 45 81 108 101 91 92 93 84 72 71 74 73 69 64 61 62 64 66 66 69 78 77 93 101 97 77 75 82 85 72 68 64 53 59 64 70 74 78 76 71 60 56 57 60 60 60 67 42 43 95 108 104 94 90 88 80 77 78 74 72 69 62 56 56 60 63 68 74 84 79 88 91 76 65 71 80 80 68 66 62 54 63 74 80 84 86 72 66 64 58 53 56 59 63 70 43 44 100 107 103 91 85 84 76 70 75 81 77 71 63 56 51 51 58 65 73 82 85 89 74 69 64 70 79 76 65 64 61 59 65 69 70 72 71 70 71 71 62 55 55 58 64 66 41 45 101 106 101 88 83 80 74 74 68 61 49 44 41 45 47 48 52 63 72 80 84 99 100 93 68 69 77 73 64 62 57 50 49 42 39 38 43 46 52 57 62 60 58 60 64 64 41 45 101 108 104 88 81 78 62 52 45 42 39 34 33 41 45 45 53 67 72 82 90 96 89 90 73 71 79 75 69 62 49 49 60 46 40 39 43 45 44 45 47 51 61 66 67 66 44 46 100 110 107 94 79 67 50 48 58 61 42 41 43 46 54 48 54 72 74 86 83 96 100 87 70 71 78 77 79 69 56 55 59 60 52 51 52 56 53 54 62 71 73 71 71 72 48 45 97 110 109 99 89 84 69 62 61 65 61 57 56 60 61 61 69 76 76 87 98 119 116 107 75 66 74 72 74 71 63 61 62 60 60 58 57 59 60 64 68 74 75 74 75 79 52 43 93 107 107 98 91 87 82 78 74 71 69 66 66 65 65 69 75 79 80 83 112 119 115 110 88 64 67 68 69 70 66 66 66 66 66 66 65 66 70 73 75 76 76 74 78 85 56 37 79 95 97 95 92 90 88 84 81 78 75 73 72 75 75 77 81 83 85 89 114 118 114 106 95 73 68 71 72 74 72 70 72 75 75 77 77 79 82 85 86 82 78 78 82 88 57 38 77 94 97 97 97 94 93 90 88 87 86 86 84 82 83 85 89 86 84 97 113 116 114 107 97 89 92 74 74 78 79 77 77 79 83 86 88 91 94 94 91 88 83 82 86 91 55 52 74 94 98 100 100 100 98 95 93 93 91 89 87 87 88 92 93 89 79 103 114 114 113 106 97 94 93 85 76 77 82 83 84 86 88 90 92 95 98 97 93 90 85 85 89 93 53 85 79 93 99 102 101 102 103 101 99 98 95 93 91 93 95 96 93 102 98 106 112 111 111 105 96 92 87 82 71 76 81 84 89 91 91 93 95 97 97 95 93 88 87 87 91 93 46 69 124 93 100 102 103 103 105 103 103 100 99 98 97 98 97 96 96 123 97 111 114 114 113 107 99 93 89 78 71 73 78 83 87 92 92 93 94 96 95 93 90 87 87 89 92 89 44 45 147 97 100 103 103 102 104 103 103 103 102 100 99 98 97 96 102 89 105 114 116 116 114 109 103 95 90 79 70 75 81 81 84 88 90 92 93 94 93 90 87 86 87 90 95 76 55 42 92 103 98 103 102 100 102 103 103 103 101 100 98 97 98 103 93 83 109 117 119 116 115 112 103 96 90 91 72 72 90 95 88 86 88 90 90 92 92 90 88 87 89 93 80 84 55 50 71 100 103 100 101 100 101 104 104 104 102 98 99 103 103 95 79 96 108 115 118 114 110 109 102 94 88 93 91 67 72 87 92 100 96 95 94 94 95 96 95 91 81 74 85 89 54 52 89 76 97 100 104 104 103 103 104 104 103 107 108 94 89 81 84 102 102 108 110 104 101 98 91 83 81 87 91 81 64 71 76 76 77 76 78 79 77 74 70 72 79 85 88 88 53 52 91 97 85 76 80 87 91 94 92 90 83 80 83 84 80 78 96 98 92 91 94 91 90 85 74 66 68 73 81 85 62 67 72 76 77 79 79 79 78 77 76 75 79 84 88 87 53 56 94 97 102 104 100 95 91 87 86 86 86 85 83 80 81 82 97 89 72 65 81 79 76 70 62 53 48 55 65 75 58 60 67 72 74 75 75 75 74 73 71 72 78 84 87 86 52 59 97 96 99 103 102 104 102 98 94 91 88 86 85 85 85 87 91 76 50 43 64 77 71 64 55 42 38 42 55 64 59 59 67 72 74 74 74 73 71 70 69 71 79 84 85 86 52 111 99 95 99 102 102 103 103 98 96 94 92 91 92 90 90 91 91 73 64 75 85 79 70 63 55 49 46 45 54 67 71 70 73 76 79 81 80 78 76 74 73 75 79 84 84 85 53 141 120 95 99 101 102 102 102 100 99 98 96 97 97 96 95 95 98 93 77 85 90 82 72 65 59 58 56 50 57 83 86 85 85 86 86 87 86 83 82 79 77 79 81 83 84 83 52 93 103 94 97 100 101 102 102 101 100 101 101 101 99 99 98 97 101 102 95 91 91 85 78 73 68 66 66 66 77 90 93 94 94 93 92 90 90 87 84 82 80 80 82 83 83 84 52 152 125 95 97 100 100 102 101 102 101 101 102 102 101 101 99 100 101 103 100 98 97 90 84 81 78 78 78 82 90 94 94 97 97 97 95 93 92 90 87 84 82 82 82 82 83 84 53 122 136 97 95 98 99 100 101 102 101 101 102 101 102 100 101 101 102 102 102 100 100 93 87 87 91 93 90 93 96 97 97 98 96 97 97 93 89 88 87 85 83 82 83 83 83 84 53 128 238 129 95 98 99 99 100 102 101 102 101 101 101 101 100 100 101 101 100 98 99 94 88 93 97 99 97 95 96 97 98 98 97 95 95 93 86 87 88 85 81 80 83 83 83 85 53 156 255 222 97 97 100 99 100 101 101 101 100 100 100 100 99 99 98 100 98 100 102 96 96 102 106 104 99 96 94 94 94 94 93 92 92 91 89 87 88 86 83 83 84 85 85 86 54 146 255 241 104 99 99 100 100 101 101 99 98 99 98 97 96 94 97 98 99 103 105 105 109 113 109 101 98 96 94 92 90 89 86 87 87 88 88 88 87 86 85 85 85 84 86 87 54 97 244 251 119 98 99 101 100 101 100 98 99 99 96 92 92 92 96 98 100 97 87 85 89 86 77 73 75 82 85 87 87 85 83 83 82 83 85 86 86 86 86 86 85 85 86 87 55 150 189 218 136 99 100 100 100 100 101 99 99 96 93 89 88 92 96 92 84 70 62 62 62 59 59 57 57 60 65 70 74 75 75 76 79 81 84 84 85 86 86 86 85 85 86 88 55 158 253 239 180 100 100 100 101 101 99 98 97 92 87 84 84 85 80 67 58 59 68 81 73 67 73 68 61 57 55 54 57 61 63 65 70 78 81 82 84 85 85 84 84 85 86 87 55 158 255 255 234 104 100 101 100 100 99 98 97 90 83 74 67 62 52 47 50 71 82 89 81 74 78 73 65 53 51 45 46 51 55 63 68 75 79 81 83 85 84 83 84 83 86 87 55 158 255 255 252 132 100 101 99 98 98 96 93 88 79 73 64 62 63 61 57 63 68 80 74 63 70 70 66 68 70 73 74 75 77 76 75 75 76 79 82 82 83 83 83 84 84 86 54 158 255 255 255 191 100 100 99 96 96 94 89 86 83 81 85 85 81 83 84 87 92 95 96 97 97 95 94 90 86 82 81 79 78 78 77 75 75 77 80 80 81 81 83 84 85 87 54 158 255 255 255 241 112 99 99 97 95 93 89 86 87 87 89 89 86 87 90 94 97 97 95 93 93 91 87 82 80 77 75 75 77 79 78 76 75 76 78 79 79 80 82 83 85 87 55 158 255 255 255 255 176 100 99 96 94 92 88 86 90 92 91 91 91 90 86 85 84 84 82 79 77 77 73 71 72 72 74 77 77 78 78 76 76 76 77 78 79 80 81 83 85 86 54 158 255 255 255 255 242 117 100 97 95 93 89 88 90 92 92 93 91 90 87 83 77 70 67 66 64 66 65 66 68 70 73 76 76 76 75 75 75 75 76 77 78 80 81 83 85 85 53 158 255 255 255 255 255 196 102 98 95 93 91 91 90 90 90 89 89 86 84 80 74 68 66 67 64 66 63 62 66 69 72 73 73 73 73 73 74 74 75 77 79 80 81 83 84 85 53 158 255 255 255 255 255 250 144 100 97 95 93 93 93 92 89 88 87 85 83 78 73 69 68 68 64 64 64 64 67 69 70 71 72 73 73 73 75 74 75 77 79 80 81 82 84 85 54 158 255 255 255 255 255 255 235 118 97 96 96 95 94 93 90 90 88 85 82 78 74 72 73 73 70 67 67 66 68 70 71 72 73 73 74 75 76 76 77 77 79 80 80 81 83 84 54 158 255 255 255 255 255 255 255 198 97 96 96 94 96 96 93 92 90 87 85 83 82 86 92 93 92 89 86 83 79 79 76 75 75 76 77 78 77 77 77 77 78 78 80 81 82 84 56 158 255 255 255 255 255 255 255 216 102 95 95 94 95 96 95 95 95 93 94 94 97 103 106 106 104 102 99 97 93 86 80 79 79 79 79 79 77 76 76 76 76 78 80 81 81 87 58 158 255 255 255 255 255 255 255 218 105 96 93 94 94 95 95 96 97 96 97 100 104 107 108 107 104 101 99 95 90 86 83 80 80 79 79 78 75 75 75 75 76 79 79 78 82 89 59 158 255 255 255 255 255 255 255 216 106 103 95 91 93 93 93 95 96 95 96 99 102 104 104 100 95 95 92 89 86 83 79 78 78 78 78 75 75 74 75 76 78 76 76 79 84 90 59 158 255 255 255 255 255 255 255 214 105 105 101 95 90 91 91 93 93 93 94 96 96 96 95 91 87 88 85 82 80 78 77 76 74 73 74 73 72 74 76 77 75 74 76 80 86 92 60 158 255 255 255 255 255 255 255 214 107 105 103 100 95 88 87 89 90 89 91 92 92 90 87 81 82 81 78 75 73 71 72 71 69 71 70 71 73 76 75 73 72 74 77 81 87 93 60 158 255 255 255 255 255 255 255 215 107 105 103 101 98 94 88 85 87 87 87 88 88 85 81 76 75 73 71 67 67 67 67 67 68 69 71 73 75 73 72 71 72 75 79 82 88 93 60 98 158 158 158 158 158 158 158 133 66 65 64 63 61 59 57 54 52 52 52 51 53 51 48 45 44 44 43 41 41 41 41 42 43 44 46 46 44 43 43 43 44 47 49 52 55 58 37 