P2
48
60
255
18 38 42 42 43 47 49 53 58 62 66 65 66 66 68 68 68 71 76 75 83 86 84 92 94 93 95 96 95 94 94 98 100 99 97 90 88 85 79 76 75 74 69 66 62 58 47 20 33 63 70 70 71 76 81 86 93 99 102 101 104 106 111 115 123 132 129 133 140 142 144 150 149 152 155 156 156 156 156 160 163 161 158 146 143 140 131 124 123 118 112 105 101 97 79 34 33 65 69 72 74 77 83 90 91 94 94 99 106 109 119 130 136 137 141 146 147 143 145 150 149 154 156 154 156 160 161 163 164 160 154 149 142 139 132 125 121 117 111 105 102 99 74 34 37 67 68 69 72 78 83 86 86 92 96 99 107 118 127 133 136 141 147 149 148 144 145 153 150 155 155 153 154 159 161 165 167 159 154 153 146 138 130 125 122 120 112 107 105 96 70 35 40 68 69 70 73 77 84 88 90 95 98 104 111 117 127 136 144 150 151 154 151 151 151 152 154 155 151 152 156 158 161 165 164 159 155 154 145 136 130 130 123 120 113 107 107 100 78 32 41 69 71 73 75 82 88 90 94 103 106 106 110 115 122 135 141 148 149 152 152 153 152 157 158 154 150 149 161 164 162 167 164 158 155 148 147 137 128 127 125 122 112 105 105 103 92 43 42 68 70 73 79 82 81 83 95 102 102 104 107 109 118 126 130 135 143 144 149 152 152 157 156 153 147 147 157 162 160 161 150 151 150 133 136 140 123 115 118 121 114 106 102 104 102 55 41 67 69 73 72 63 61 73 80 80 85 95 101 107 110 112 116 124 132 135 139 141 142 146 152 151 140 140 152 150 150 147 137 139 131 128 126 129 126 100 89 105 108 106 104 103 103 61 40 65 61 52 43 42 49 57 64 64 71 77 84 94 102 107 111 111 117 122 130 134 134 138 143 137 134 133 140 137 136 135 129 128 121 121 118 109 99 89 79 75 74 79 94 101 103 62 40 64 55 39 38 44 45 51 51 52 51 51 50 55 70 84 94 102 108 109 113 120 123 130 135 129 126 126 129 126 122 122 118 111 111 103 93 86 84 76 69 62 55 54 64 90 100 64 39 55 43 40 45 53 60 60 63 51 41 35 31 34 35 46 60 74 81 90 96 102 109 121 122 119 115 118 118 109 105 103 83 73 67 62 57 59 61 54 54 63 73 64 63 81 98 64 37 48 45 55 58 62 69 79 84 83 73 52 43 37 30 28 40 49 55 70 79 86 96 104 107 107 99 100 99 81 69 57 44 39 35 35 41 47 64 78 87 89 83 76 71 70 93 63 37 52 54 59 60 66 71 80 87 96 98 81 62 52 40 34 34 35 40 49 61 71 79 86 91 92 89 83 70 59 46 37 29 29 34 45 70 94 104 105 103 98 93 87 76 78 94 64 39 56 56 59 61 61 60 58 58 62 65 57 47 41 39 39 39 38 39 42 47 60 70 75 78 81 76 63 47 39 34 33 29 30 40 65 86 95 95 93 91 92 88 83 78 83 97 64 41 59 57 56 53 43 39 43 44 49 51 48 40 32 27 32 43 47 49 48 48 57 70 80 83 84 73 53 41 34 31 29 27 24 25 30 34 37 42 47 49 55 69 76 79 92 104 65 42 64 57 48 39 39 31 29 28 16 12 12 15 23 26 31 42 52 57 62 64 69 86 101 109 108 88 67 47 34 30 25 22 26 16 13 12 14 22 32 47 52 43 61 83 101 108 66 41 68 62 51 45 40 39 49 51 21 18 17 24 46 32 28 40 63 70 71 78 91 112 125 137 133 115 92 75 64 63 23 29 59 34 20 18 24 52 63 49 42 54 71 96 112 112 66 45 73 68 65 68 63 63 73 81 75 72 71 84 87 78 65 63 78 85 86 87 102 127 141 151 150 127 112 113 117 102 74 75 86 74 58 57 71 105 101 88 87 97 97 113 122 118 71 48 79 75 78 79 72 70 79 93 96 95 101 101 99 100 105 111 113 109 105 98 103 129 146 155 148 130 121 125 135 135 129 108 97 96 97 107 120 116 108 98 99 113 120 128 133 127 69 47 86 90 94 92 86 76 71 74 78 84 89 94 103 113 126 134 131 115 114 102 110 125 139 152 145 127 127 133 140 144 142 127 112 96 86 83 85 86 91 105 124 126 127 129 136 132 74 55 104 109 107 111 114 106 98 95 100 104 112 116 121 129 139 132 126 118 113 105 113 129 142 149 140 129 129 133 141 148 149 143 134 128 122 117 118 119 126 134 136 135 138 135 132 129 75 60 106 115 122 125 129 129 127 123 124 125 124 127 135 137 136 130 119 118 111 105 112 127 140 145 135 129 129 132 140 146 147 148 146 139 137 139 140 140 143 145 147 144 140 133 125 123 74 58 104 115 125 126 131 134 134 134 132 130 131 134 136 139 133 119 115 110 107 99 108 124 138 141 134 128 128 130 134 140 149 151 153 147 147 149 145 150 153 153 150 142 138 132 127 123 72 57 100 110 122 122 130 135 137 137 134 135 134 132 136 137 126 117 104 101 100 100 109 122 136 140 134 124 127 127 128 133 143 152 159 154 154 154 151 151 153 152 148 145 140 135 129 122 70 54 94 107 118 122 128 133 136 134 133 136 135 132 132 134 122 105 88 96 98 97 111 112 131 135 130 125 123 125 126 126 133 147 156 157 160 155 149 147 155 152 145 144 141 137 129 119 69 51 92 101 107 114 123 123 132 134 138 140 141 137 134 133 120 98 72 87 90 88 105 115 130 137 135 122 119 122 119 123 131 143 154 156 159 157 153 154 151 150 145 139 137 132 126 114 65 48 86 95 100 112 118 124 134 134 136 141 141 142 133 130 118 97 78 89 92 81 97 120 131 136 133 119 114 118 112 111 126 140 145 149 162 162 158 156 160 149 138 133 133 127 120 109 63 46 83 95 102 114 115 123 127 131 134 138 138 135 130 126 111 88 94 110 101 80 95 122 140 156 144 119 113 127 122 108 119 128 138 142 152 154 158 162 158 149 136 136 135 124 111 104 64 44 80 91 100 112 110 118 124 128 133 133 131 130 126 121 106 93 111 116 107 82 97 132 136 148 145 123 115 127 129 120 114 122 125 125 135 147 154 147 142 136 129 124 123 114 100 95 61 44 73 80 91 102 110 112 113 120 128 125 125 123 117 111 93 96 108 116 103 81 96 113 121 126 124 116 108 127 136 123 112 110 113 120 123 131 142 136 133 131 125 120 116 107 95 88 57 42 67 74 78 89 101 108 117 111 111 118 120 114 103 91 78 82 87 95 86 74 82 93 104 106 99 98 96 116 120 112 106 97 104 107 111 119 126 129 124 123 120 112 109 102 94 89 55 39 66 68 72 77 88 99 107 103 105 111 111 101 93 78 67 61 47 44 58 66 68 76 81 84 82 81 77 67 66 76 88 95 94 111 107 109 114 115 113 108 103 97 98 93 90 90 55 40 63 67 71 69 74 90 101 102 108 104 100 93 79 80 67 44 29 24 20 31 52 59 57 56 57 41 22 17 23 44 87 101 90 91 102 106 110 107 103 98 94 92 91 91 86 86 54 39 64 64 66 68 70 79 90 96 91 98 94 83 82 85 80 60 49 59 66 57 35 37 42 40 24 23 25 24 31 69 112 111 104 98 96 98 100 100 100 95 91 92 88 88 85 84 53 38 62 59 62 66 69 71 82 93 94 88 90 80 86 85 82 78 75 69 70 69 58 45 28 25 53 85 87 84 89 107 117 121 121 117 104 99 97 92 92 90 91 89 85 86 85 84 56 37 62 61 64 65 66 69 76 83 94 99 87 84 86 86 82 75 74 69 67 67 62 57 57 72 99 108 103 100 105 109 125 134 136 126 112 104 99 97 89 91 91 85 86 85 85 86 57 38 63 60 64 66 65 66 73 82 92 96 88 84 81 81 79 73 69 66 67 67 64 69 85 89 106 113 110 113 111 122 130 130 131 128 118 105 100 91 90 86 86 87 88 87 85 91 59 38 64 63 65 63 61 65 72 77 88 93 93 85 80 74 76 71 73 70 69 81 90 94 92 92 105 114 113 117 118 119 126 119 120 119 115 105 102 96 88 89 86 87 89 88 87 94 58 40 66 65 65 65 64 67 73 81 83 88 90 87 79 73 74 76 87 98 105 112 115 111 108 110 118 123 121 117 123 122 119 114 114 105 102 100 103 99 86 84 87 88 91 91 91 96 57 41 67 67 67 67 68 68 72 79 77 81 76 71 78 79 82 103 112 117 115 114 123 126 121 119 124 122 124 126 131 126 114 105 99 95 97 97 102 96 89 87 88 90 91 92 95 94 54 42 69 68 68 67 66 68 71 75 73 73 63 63 72 81 90 91 84 78 74 76 87 97 105 96 88 81 83 88 104 112 110 103 87 80 88 94 99 98 90 90 90 94 93 95 95 90 52 42 70 70 68 64 67 69 69 71 68 63 55 60 64 65 61 54 51 54 55 53 58 63 65 65 63 61 60 63 64 72 83 89 78 64 74 85 92 96 84 88 93 96 97 97 92 86 62 42 70 70 70 65 67 67 69 68 62 47 31 43 49 42 43 41 38 39 39 38 44 44 42 42 40 38 41 46 47 49 52 57 44 37 63 83 90 93 89 91 94 96 98 95 90 86 70 41 68 70 71 69 68 68 69 65 56 43 49 52 42 46 49 50 51 50 44 39 40 35 38 47 52 60 69 75 63 51 37 49 61 56 67 81 89 94 93 94 95 96 95 92 83 99 72 39 67 69 71 71 70 68 71 69 58 60 67 67 62 60 64 81 95 99 100 97 99 96 111 121 134 124 125 106 92 88 89 88 92 83 86 88 90 91 92 95 95 94 92 88 82 120 72 39 64 68 70 70 68 67 68 67 65 68 72 69 66 64 67 70 81 101 112 117 119 113 120 127 123 112 97 83 80 83 86 95 99 100 98 91 88 90 91 93 93 94 89 84 100 125 72 38 62 67 68 71 70 66 64 66 67 69 70 69 66 66 61 63 64 74 82 88 91 89 85 90 87 82 76 78 80 82 86 97 102 101 97 93 85 85 88 90 91 91 88 86 126 125 72 37 61 65 67 69 69 66 66 66 67 69 68 67 65 64 62 61 62 62 64 66 70 71 72 71 69 71 71 72 71 77 85 94 99 95 93 92 87 83 86 89 88 88 88 119 129 125 72 35 61 61 65 66 67 66 68 67 66 67 67 64 65 63 61 57 52 49 50 48 45 47 50 53 56 54 50 55 67 76 83 93 94 92 90 88 88 85 87 88 86 90 131 130 129 125 73 32 59 60 62 66 66 67 69 67 66 63 66 66 63 61 60 58 51 44 36 26 22 21 22 24 27 33 45 58 66 76 84 89 89 86 86 87 87 86 88 89 89 153 180 135 128 125 73 35 53 59 61 63 66 68 69 70 69 69 66 66 65 62 61 57 56 51 47 43 38 33 29 27 36 52 60 64 69 78 87 88 86 84 85 86 89 87 86 88 153 201 188 147 128 124 72 38 58 54 59 63 66 68 68 69 68 67 66 67 66 65 62 60 61 57 63 65 63 65 76 93 94 87 83 86 85 87 87 88 88 87 86 88 89 86 85 139 212 201 192 164 128 124 72 39 62 57 54 60 61 67 70 69 68 67 67 68 67 66 66 65 69 71 71 85 97 104 108 114 110 105 100 96 92 91 91 91 89 87 86 87 87 83 90 197 212 199 195 179 136 125 72 39 64 62 54 52 60 63 67 67 66 68 69 69 68 69 68 67 69 76 88 91 99 105 104 105 105 103 102 101 100 97 95 93 90 86 83 86 84 69 158 212 207 199 198 188 180 177 98 44 66 65 60 51 52 60 62 63 65 67 70 70 65 68 70 78 78 75 81 82 86 93 93 89 97 105 96 102 100 97 94 91 87 83 83 83 61 119 211 211 203 200 200 193 182 196 121 79 92 68 65 59 50 48 59 58 62 64 68 69 66 66 68 75 77 71 69 72 72 75 79 83 88 90 89 89 90 87 86 85 83 78 76 54 107 207 213 207 201 201 201 196 183 194 119 88 136 108 73 65 60 50 44 58 60 63 63 67 61 60 61 63 64 63 56 60 62 60 67 75 75 81 82 84 84 76 79 79 76 74 42 98 205 214 210 203 200 202 202 199 187 198 129 89 143 140 126 85 66 61 51 40 52 63 62 63 63 59 58 54 57 55 50 51 56 55 57 60 65 69 71 76 71 68 72 73 66 30 96 201 213 210 205 202 200 202 204 201 192 194 136 91 146 145 142 136 106 72 64 55 40 42 57 58 57 60 56 55 53 52 51 51 55 53 53 54 57 59 60 62 66 68 73 57 25 99 197 213 212 206 202 200 202 204 204 204 198 190 132 57 92 92 91 89 86 70 44 40 35 24 20 33 36 35 34 34 34 35 32 33 34 33 36 36 36 36 35 38 41 45 29 11 48 119 129 132 129 126 126 126 127 128 127 127 126 119 81 