P2
48
60
255
50 75 73 65 65 63 63 64 64 65 65 68 70 70 68 68 68 69 74 71 64 66 68 70 71 75 74 74 72 69 68 67 70 70 67 64 64 62 60 58 59 59 59 59 59 59 60 37 81 125 116 108 105 103 102 100 101 105 106 107 111 111 110 111 112 111 114 120 118 114 108 103 105 108 114 116 119 117 118 117 116 114 110 105 102 97 98 95 94 93 94 94 96 96 95 59 83 130 118 105 99 102 108 115 117 117 114 117 118 120 119 118 114 111 112 114 118 121 123 120 117 114 116 119 121 120 115 118 118 115 113 108 104 98 97 96 95 95 94 94 96 95 94 57 86 133 119 97 105 113 118 119 122 118 120 121 122 120 117 118 122 120 112 109 113 118 120 121 120 120 116 117 118 117 117 121 121 115 109 105 105 102 100 98 96 95 93 93 95 95 95 61 86 134 117 106 113 124 119 114 116 117 121 120 121 120 120 118 118 118 118 114 110 114 120 118 118 118 120 120 117 115 115 117 119 118 113 110 109 107 100 96 94 95 94 93 94 96 95 60 86 138 111 118 121 112 95 90 90 99 110 108 107 111 113 116 116 115 117 112 105 109 116 119 119 116 118 114 117 120 119 119 119 119 117 118 117 115 111 107 99 95 95 95 95 97 97 60 86 142 123 128 111 87 75 71 75 84 85 81 85 91 96 103 110 114 120 119 103 104 112 114 117 120 121 119 119 117 117 118 118 120 119 120 116 116 113 108 105 101 97 97 94 95 97 59 88 147 136 127 96 73 64 64 62 59 60 58 61 72 78 86 96 105 112 114 105 98 104 111 113 113 120 120 118 116 117 119 118 110 112 115 112 109 108 108 109 106 101 100 95 96 96 59 99 152 154 106 89 67 59 60 61 61 60 62 68 71 76 82 86 97 108 109 105 102 99 104 106 102 111 113 110 113 112 108 104 99 98 96 95 93 91 92 95 98 104 102 97 96 97 59 109 163 142 100 89 64 62 66 68 70 72 74 74 73 78 84 93 97 103 106 104 105 104 103 102 93 100 104 101 101 97 87 78 72 64 65 72 70 68 72 71 78 95 104 99 95 96 59 129 165 126 94 83 65 67 72 75 77 76 75 73 71 75 80 85 91 94 99 102 104 104 102 100 91 89 92 92 89 79 68 56 51 50 52 54 57 57 60 65 64 75 93 99 97 95 60 142 178 111 88 82 75 73 75 78 83 83 79 76 73 69 68 71 77 84 92 101 105 102 102 98 93 81 83 82 78 73 62 56 52 50 53 53 56 57 58 58 60 66 79 91 96 94 58 133 167 104 85 84 81 76 79 82 78 76 72 65 64 69 65 61 63 71 83 96 101 103 102 97 95 84 75 71 65 59 56 58 61 66 70 70 72 67 61 58 58 55 69 83 92 94 58 114 155 111 91 85 77 78 77 78 85 88 87 82 73 60 63 60 55 62 73 88 102 110 106 104 97 90 80 69 59 58 60 59 55 57 61 66 71 74 73 66 66 58 69 76 86 93 58 113 117 94 87 85 75 75 91 83 67 59 57 69 77 73 58 58 55 56 67 78 100 114 116 114 106 96 85 72 61 57 53 48 58 63 52 54 47 50 54 58 66 68 69 73 85 94 59 99 99 83 84 83 65 89 71 69 65 51 40 45 46 62 64 59 56 55 66 74 94 109 113 111 105 94 87 72 59 55 53 58 52 40 34 39 45 63 51 47 51 63 71 73 80 92 59 77 95 81 78 78 68 75 74 96 92 60 51 53 62 77 64 58 64 73 73 76 90 108 110 111 104 91 86 75 70 72 56 58 75 58 51 50 64 89 70 57 49 49 64 74 84 91 59 83 100 88 84 84 83 100 101 99 97 91 87 87 87 86 88 83 84 78 76 77 93 103 107 110 106 91 84 79 93 83 80 82 86 87 87 88 92 91 89 82 72 64 61 71 82 91 59 78 103 96 93 87 92 102 100 94 90 87 85 86 87 86 83 84 84 78 78 81 99 107 104 107 105 95 84 82 89 95 91 85 82 84 85 90 92 91 89 85 82 83 79 87 89 89 60 72 106 101 96 94 95 96 95 90 87 88 86 83 80 79 79 81 81 82 83 88 106 110 111 108 105 95 87 88 89 88 85 82 81 79 79 84 86 86 83 82 85 86 85 88 93 94 60 74 108 102 101 100 101 99 94 86 82 80 77 76 77 80 82 84 89 91 87 94 106 110 114 114 105 96 93 91 94 91 86 77 78 77 76 78 78 81 84 85 83 87 88 91 97 96 60 79 112 109 105 103 101 99 97 91 89 90 89 86 86 85 89 99 99 94 92 98 106 110 115 115 108 95 96 95 97 97 95 89 77 70 70 74 77 81 85 84 85 92 98 100 100 97 61 79 115 111 109 106 104 100 94 92 88 84 89 85 85 93 104 106 102 97 97 101 108 113 115 116 109 99 96 101 99 101 103 105 96 87 80 78 82 85 87 92 99 103 106 104 104 101 61 79 118 114 113 111 110 108 104 105 101 99 96 98 106 113 112 105 102 101 103 109 114 115 117 116 111 103 98 101 101 101 103 109 107 102 101 102 103 101 103 105 109 107 106 107 108 103 61 82 120 117 114 110 112 112 113 115 111 112 110 113 116 114 110 105 105 107 113 115 116 117 119 118 116 110 103 100 102 103 102 106 114 116 111 108 112 110 108 107 109 107 107 109 106 102 61 82 120 118 113 113 113 115 115 119 119 120 120 116 114 112 110 105 101 107 120 118 119 121 120 120 118 111 106 100 100 104 103 105 110 114 117 116 112 113 113 115 112 108 109 108 106 103 62 86 123 116 113 117 115 116 120 122 121 123 121 117 114 112 112 94 97 105 123 120 119 122 120 121 121 114 109 102 99 97 99 105 110 113 117 117 117 114 119 119 117 111 110 106 105 101 62 87 124 114 113 116 118 119 122 121 118 123 121 119 119 115 96 81 105 108 126 119 121 121 120 122 116 114 110 102 101 99 92 100 112 113 112 116 119 121 120 115 115 113 110 107 104 101 62 88 123 114 110 116 120 116 120 122 120 120 119 120 116 102 78 94 111 112 127 115 115 119 114 115 115 113 107 99 103 103 95 89 105 115 114 118 120 121 119 117 115 112 109 106 103 100 61 88 117 111 112 118 118 117 118 118 119 119 120 119 109 85 66 105 113 112 121 110 106 102 104 104 112 107 98 95 101 105 97 81 94 109 115 115 116 119 118 117 112 110 107 104 101 99 61 87 115 112 113 116 115 119 116 116 117 118 118 114 97 72 71 98 92 87 97 105 98 95 97 99 98 94 87 84 89 94 94 84 81 96 111 114 116 117 117 113 108 106 105 104 99 100 60 83 115 114 115 116 117 117 117 117 117 117 113 106 87 66 82 89 70 51 47 75 87 84 86 85 81 77 57 44 56 74 86 91 77 84 101 110 116 115 115 112 109 105 102 100 98 100 60 75 116 115 112 113 116 115 117 116 116 116 110 99 77 74 91 92 80 57 48 53 68 71 69 67 63 53 42 42 49 65 88 99 92 79 94 105 114 115 112 110 107 105 101 101 99 98 59 73 117 116 111 112 117 117 118 115 116 115 108 93 77 86 92 90 81 69 57 58 63 60 56 55 57 59 50 45 52 75 96 102 102 87 91 102 110 112 110 107 106 103 101 102 100 98 58 72 118 116 113 112 113 119 118 116 112 110 103 92 84 94 94 88 68 62 53 54 57 57 59 62 58 58 55 53 64 76 86 100 104 103 95 100 106 107 106 108 106 105 101 102 101 95 56 69 112 116 112 106 111 120 117 113 110 106 97 90 96 98 87 74 67 57 55 59 58 55 58 62 53 59 53 52 57 69 81 88 101 107 103 99 102 104 103 104 104 102 100 101 100 92 56 64 108 101 106 107 116 117 111 109 108 101 94 95 98 91 80 67 60 65 60 69 61 50 49 49 54 57 59 59 57 66 80 85 90 95 101 101 102 102 100 101 102 101 99 96 99 90 57 69 107 101 102 108 115 110 107 104 106 99 90 91 84 81 77 61 56 67 56 60 49 44 48 46 48 54 59 56 57 58 73 78 92 86 92 97 93 95 96 96 96 98 95 97 98 90 55 70 103 96 98 112 113 107 105 103 100 87 83 81 77 74 67 57 56 56 55 51 48 50 52 53 48 48 52 56 55 59 61 68 81 79 79 85 90 90 91 93 96 95 93 90 94 85 56 67 102 98 98 110 106 104 103 101 90 77 75 70 71 67 58 57 52 57 56 54 56 63 82 81 68 68 66 62 58 61 57 63 70 75 75 70 87 87 89 90 92 93 87 86 88 83 55 70 110 97 97 105 100 101 102 95 81 69 69 59 55 54 57 59 61 62 68 72 72 79 93 102 88 78 84 80 75 67 63 57 63 62 67 60 77 79 87 87 87 87 82 83 86 83 53 69 112 97 95 100 96 94 97 92 75 63 57 49 48 56 59 65 65 65 67 69 70 71 75 79 74 69 71 73 75 77 77 72 69 59 54 59 57 74 83 84 85 84 77 79 84 86 51 73 121 99 100 96 89 90 94 88 71 56 50 48 47 50 50 57 64 73 77 75 70 67 68 69 70 70 69 69 67 60 56 59 62 59 53 50 50 64 80 86 84 81 77 75 80 85 49 72 128 104 99 91 85 86 93 83 69 54 46 44 51 65 72 77 80 87 91 98 99 97 98 94 98 99 93 86 79 76 68 59 61 53 46 47 48 54 74 83 79 75 70 69 82 84 44 89 142 117 96 91 84 85 89 81 74 60 51 58 77 85 89 90 88 84 86 90 97 94 99 96 97 95 84 82 79 83 85 87 86 78 62 53 51 56 70 77 75 67 67 69 80 72 51 84 133 125 97 90 83 83 84 81 75 65 54 75 95 96 100 102 104 104 100 96 100 102 102 102 101 97 94 96 97 95 96 95 91 87 84 67 56 55 66 73 69 61 66 66 74 74 52 87 131 131 102 87 82 85 82 80 71 60 69 88 100 100 104 107 108 109 107 104 98 94 98 96 102 104 106 104 102 100 98 98 95 95 89 78 63 60 63 66 64 59 64 61 73 78 51 88 130 129 107 87 85 84 81 79 65 59 71 87 97 100 101 100 95 94 84 83 77 78 75 73 75 75 82 86 85 86 91 94 95 93 89 81 67 64 63 56 60 55 61 62 73 77 48 92 134 135 107 86 86 79 76 78 66 63 68 80 92 97 95 88 84 77 73 70 67 70 64 62 60 61 63 68 74 79 82 89 88 87 81 81 73 68 67 59 55 51 61 64 70 75 49 95 138 134 116 86 84 78 73 79 61 67 69 78 90 90 86 85 79 73 74 69 66 66 61 64 58 61 62 66 71 77 83 82 85 81 74 71 76 69 65 56 51 52 64 66 69 73 48 104 157 128 120 89 84 80 69 76 64 71 67 74 83 86 85 79 78 70 72 67 74 59 72 62 61 58 59 69 63 73 80 79 84 84 78 78 69 69 67 57 53 56 61 62 69 77 47 107 171 139 106 95 79 73 72 74 64 69 66 76 80 80 85 82 81 72 63 64 64 57 68 54 62 58 64 64 73 75 84 80 82 85 82 86 76 65 69 60 60 57 62 71 70 70 48 120 172 150 115 101 79 69 69 68 63 70 67 74 78 84 86 87 88 84 76 67 65 62 63 61 60 65 66 74 84 91 90 83 76 75 81 83 88 70 70 62 64 55 66 68 68 75 49 127 169 144 129 109 86 79 68 69 66 78 73 70 77 83 81 85 89 89 86 75 69 74 67 62 60 67 80 84 89 95 93 85 76 73 75 82 93 75 67 62 61 53 60 73 70 82 52 105 173 143 133 111 98 89 70 66 80 82 83 69 77 78 77 82 87 91 87 79 73 78 73 70 74 78 79 86 87 88 87 85 81 71 75 79 82 89 65 58 57 52 58 70 69 86 48 80 164 160 125 112 98 84 75 79 78 96 87 68 75 73 73 76 84 83 81 77 73 74 77 77 80 79 81 79 82 85 79 83 79 74 62 76 71 80 71 62 55 52 57 66 79 86 51 53 133 169 119 104 97 88 71 81 96 113 81 72 74 73 75 72 75 74 71 69 65 71 70 72 75 78 78 72 77 80 83 85 86 82 62 63 70 69 78 63 53 50 52 62 81 82 54 42 128 174 139 107 84 84 73 73 114 113 82 71 83 80 74 73 72 72 63 65 61 63 63 65 67 73 71 73 77 81 84 85 88 85 71 60 67 67 77 63 54 49 54 71 84 87 58 37 109 180 145 121 82 84 73 78 122 105 88 89 94 74 77 69 70 68 61 61 58 60 58 60 60 61 59 72 79 74 76 87 93 83 77 57 61 69 73 61 50 51 64 81 88 87 57 22 55 105 91 83 68 50 48 49 59 69 53 52 57 47 49 41 47 44 35 37 33 37 34 35 36 37 35 43 44 47 44 53 55 52 42 37 39 43 44 34 32 36 45 52 57 54 35 