P2
48
60
255
18 31 34 33 35 30 35 36 33 32 37 37 37 41 39 35 37 31 32 43 42 41 39 24 36 41 34 37 33 26 28 32 36 32 33 34 27 27 23 26 21 21 21 19 22 25 25 14 31 50 51 53 59 58 59 57 48 56 54 63 60 68 62 57 57 58 50 61 73 72 70 57 50 76 59 61 57 45 51 52 61 53 61 63 49 48 43 43 34 32 31 33 34 39 40 23 31 48 51 51 60 63 58 56 54 48 55 61 67 67 60 63 58 57 53 58 62 72 79 74 51 81 64 64 63 47 60 62 64 55 63 73 65 58 45 41 36 32 32 33 32 40 37 23 34 45 49 49 60 62 69 59 60 52 47 58 62 68 58 66 65 57 56 52 61 64 71 82 63 67 71 64 68 60 67 70 73 65 67 75 72 63 63 49 40 38 34 32 32 36 38 23 37 46 50 49 57 67 73 71 60 59 54 59 64 64 62 66 75 75 59 65 61 62 67 82 84 66 92 80 81 77 101 81 88 79 83 81 80 62 73 67 45 57 39 32 31 33 40 22 36 51 51 54 56 69 72 78 75 71 61 58 72 76 76 65 77 79 79 68 72 73 74 90 100 106 115 98 93 92 121 123 104 93 94 100 107 79 85 91 55 78 56 38 33 36 41 21 37 58 47 56 53 75 66 82 87 73 78 69 57 92 100 91 82 81 88 92 93 89 85 94 108 124 128 115 116 125 137 136 119 115 115 116 141 114 107 98 87 84 80 68 37 41 38 22 40 64 49 52 56 62 74 78 92 94 106 114 101 93 127 131 120 106 103 109 121 119 110 111 119 131 129 125 131 135 137 129 122 129 127 108 114 111 112 104 99 90 92 97 55 45 40 23 42 65 61 53 61 63 75 82 98 117 121 134 140 124 118 126 122 123 122 127 134 137 131 126 129 139 131 130 128 125 117 99 95 84 79 81 79 87 99 101 107 103 93 105 87 56 44 29 41 71 63 59 64 77 80 88 101 116 97 93 96 90 90 103 114 119 125 131 136 137 141 132 137 139 131 126 119 109 93 80 72 70 68 69 77 94 111 113 99 95 101 101 101 80 56 38 37 68 76 71 70 78 76 73 82 85 77 63 62 65 61 74 94 99 112 120 130 134 145 144 144 139 131 116 102 94 85 78 76 77 89 105 118 126 134 131 119 102 92 102 92 94 78 46 43 61 86 93 69 68 71 90 109 122 111 91 70 66 61 65 74 84 93 106 119 131 146 149 152 146 133 111 96 89 87 90 95 109 122 126 127 125 129 129 124 118 105 97 93 94 91 56 58 82 83 89 85 89 93 101 111 117 118 107 94 81 83 85 84 84 87 99 113 131 155 158 161 153 137 118 100 98 115 119 118 102 103 113 112 113 109 104 103 110 108 101 100 98 101 63 56 100 94 95 107 105 93 85 101 108 107 109 118 113 94 90 115 119 103 107 123 138 159 164 168 161 141 122 107 119 121 106 89 105 110 81 65 65 80 94 94 85 99 104 105 104 104 65 71 108 104 110 105 91 79 81 64 46 45 43 59 97 115 107 110 131 121 114 128 142 163 176 170 163 140 124 108 109 102 88 103 82 47 50 39 63 58 56 61 82 76 99 103 108 109 67 74 115 109 105 92 68 72 56 57 51 69 42 63 54 85 113 101 112 113 115 128 142 162 173 170 155 135 127 109 94 92 99 79 63 49 52 30 61 59 85 57 57 70 85 96 108 114 68 77 114 103 95 74 73 63 79 66 58 33 39 54 87 71 76 106 101 101 117 131 137 158 169 167 149 132 132 132 116 115 79 67 106 62 51 44 56 66 95 89 76 75 76 92 106 114 71 79 115 102 91 85 87 92 92 87 61 63 62 65 114 109 71 79 118 122 124 132 133 151 164 165 143 128 133 133 145 105 79 91 121 84 59 58 61 96 112 124 94 84 84 94 111 116 72 81 119 108 100 104 110 96 115 114 91 72 74 109 130 127 113 114 128 139 129 130 131 150 159 162 146 126 129 131 143 141 131 123 130 122 97 90 109 125 129 104 101 103 91 102 117 122 75 85 128 116 114 120 125 111 102 108 130 125 127 126 119 125 131 143 138 132 131 132 130 154 157 156 144 126 131 131 137 132 130 118 110 113 123 123 117 109 103 103 114 117 114 109 122 129 77 84 134 127 126 127 127 130 123 114 104 99 101 104 113 122 123 128 134 133 133 130 129 155 155 153 141 125 130 136 136 141 122 119 115 108 103 104 104 108 115 122 125 122 127 130 131 132 78 85 138 138 136 131 131 137 142 136 136 130 127 124 125 121 123 135 138 134 134 129 128 143 150 149 138 123 129 137 138 148 138 122 118 116 117 118 120 123 128 130 126 125 136 140 138 134 79 85 144 145 143 140 135 135 138 137 138 135 129 127 124 124 141 147 143 139 135 128 129 139 147 148 137 123 126 136 143 147 152 137 118 122 124 121 120 119 122 126 129 139 147 148 143 140 81 83 145 155 150 149 147 141 138 135 132 131 125 120 127 144 154 150 143 138 130 128 131 138 145 144 137 124 121 135 143 146 155 158 140 120 114 119 127 133 138 141 145 149 152 149 144 137 79 82 142 153 150 153 158 158 158 147 141 133 130 142 150 157 157 148 141 135 127 128 134 139 142 139 134 128 120 128 138 143 151 160 159 144 131 128 131 139 141 144 151 153 155 150 144 136 79 82 134 148 153 157 161 158 154 149 145 144 152 159 162 165 154 144 141 127 124 128 136 139 141 138 137 130 121 120 135 142 150 158 162 161 154 148 145 144 145 146 152 157 159 145 139 131 78 81 130 139 156 160 159 159 152 154 155 158 166 164 165 163 158 141 126 122 124 132 139 139 145 140 136 132 126 118 117 131 147 156 162 165 160 160 155 151 150 155 158 154 149 134 132 128 75 77 128 134 145 156 159 163 166 163 165 171 172 170 168 165 152 122 117 121 122 131 145 150 151 153 148 139 128 118 114 110 136 153 159 161 164 165 161 162 158 155 157 144 136 133 127 124 71 73 125 129 137 148 159 165 167 171 174 174 175 171 166 150 120 111 118 123 126 133 151 150 149 155 172 155 136 123 116 109 110 141 154 161 161 163 163 163 161 153 149 142 135 131 129 120 70 71 121 124 135 139 150 155 165 169 172 175 173 167 149 118 104 112 116 125 124 126 130 131 134 137 140 141 129 121 114 116 99 117 142 151 151 159 161 158 156 148 142 139 133 128 123 117 67 72 118 123 131 139 145 147 155 163 163 165 165 150 127 98 111 111 109 115 112 113 117 116 118 119 119 115 107 108 106 108 105 95 127 143 152 158 157 155 154 147 141 135 125 123 117 111 63 69 113 119 127 130 139 147 150 152 155 153 149 134 105 96 107 102 94 90 89 90 93 94 91 89 86 83 85 87 89 98 104 85 110 141 151 150 151 151 144 142 136 130 121 116 111 104 63 67 111 116 121 126 134 141 144 149 151 147 142 120 91 100 100 87 63 37 44 67 77 73 69 68 66 56 39 38 64 86 96 90 94 124 140 147 143 141 136 137 131 123 117 115 105 102 62 69 110 113 118 122 132 137 139 140 145 136 129 104 94 105 91 68 42 32 34 38 55 64 61 58 38 34 33 37 53 73 97 100 87 112 133 138 137 134 130 131 127 120 114 111 103 103 62 68 111 112 115 119 124 130 130 128 130 128 117 100 107 115 96 63 55 65 73 73 75 72 64 60 53 57 62 55 58 88 111 112 95 106 129 135 135 132 129 126 124 120 114 109 106 103 63 68 112 114 116 116 115 130 132 127 127 124 115 106 119 124 120 102 89 94 101 93 85 70 63 67 80 90 93 92 97 114 120 119 106 106 125 129 133 131 129 124 122 116 112 109 107 102 65 69 112 112 116 115 117 123 130 128 125 121 116 116 126 126 127 123 119 120 121 119 114 106 106 110 116 116 119 122 124 125 126 122 113 115 125 128 129 129 126 119 119 111 110 110 107 104 63 68 112 111 113 118 118 121 128 122 124 125 123 126 130 130 133 129 130 132 132 133 136 136 139 142 138 135 133 135 136 134 131 129 122 126 129 130 128 126 121 117 115 112 112 110 107 103 63 68 113 115 113 116 118 120 122 123 124 128 127 127 131 130 133 133 134 133 138 139 141 144 142 140 140 141 139 137 137 137 132 128 128 127 130 129 126 124 119 114 113 112 109 108 107 106 63 67 111 116 115 116 117 120 124 122 125 128 128 127 130 127 130 132 134 136 135 139 142 143 143 143 143 141 138 135 133 134 130 131 130 135 133 131 129 126 119 115 110 112 111 112 107 104 62 66 110 114 116 117 119 120 120 123 127 129 129 123 127 123 124 126 127 132 137 137 143 144 145 144 143 140 134 128 130 126 124 130 137 140 134 131 129 124 121 115 113 114 111 111 105 104 63 66 110 112 115 117 119 124 125 124 127 126 125 123 120 115 117 120 121 127 131 129 134 136 131 129 121 118 123 122 125 121 121 128 133 136 134 133 127 125 122 118 117 115 110 106 103 102 62 66 108 112 115 118 118 121 125 126 124 126 120 121 111 106 107 108 104 95 89 87 86 88 87 83 81 82 86 87 94 111 117 126 129 128 133 133 131 128 125 122 119 114 112 108 105 103 63 67 107 114 115 118 120 123 124 126 124 120 113 115 108 97 95 81 73 73 74 74 75 80 90 99 100 96 91 79 70 78 102 119 126 124 133 136 131 132 129 126 119 115 110 109 105 101 62 70 110 115 116 119 121 122 124 125 125 120 118 109 96 76 70 76 94 108 119 126 130 130 131 134 131 128 126 122 119 114 97 96 121 126 136 140 137 135 131 127 119 113 110 108 103 100 59 68 112 113 117 120 115 126 130 128 127 123 121 109 92 88 106 108 114 123 135 139 138 138 138 129 122 121 117 118 121 128 130 120 122 130 138 141 140 136 132 126 120 114 112 110 102 99 59 66 112 111 114 124 124 125 129 130 133 127 121 113 121 116 107 107 111 116 117 116 116 111 106 97 98 108 115 121 125 132 130 125 130 133 141 142 139 136 131 123 115 111 112 108 102 98 58 65 107 110 116 124 123 129 130 133 132 128 124 122 125 119 115 108 106 97 84 78 77 75 71 86 107 114 121 130 130 133 128 126 130 134 139 138 136 132 130 119 112 110 109 105 100 96 58 64 107 110 114 123 124 129 129 129 129 126 121 118 123 117 113 111 106 103 98 86 81 89 93 103 113 125 130 135 134 129 124 125 126 131 133 136 133 132 125 117 112 109 106 99 98 94 43 61 102 106 114 117 117 125 128 125 126 126 123 120 121 121 122 115 107 109 108 111 123 136 143 139 136 138 138 137 135 125 121 122 125 126 125 128 127 125 123 114 112 107 103 98 98 90 27 59 98 104 112 114 116 118 120 122 121 122 116 114 116 116 122 122 124 126 133 148 151 154 154 156 154 145 141 137 133 123 120 118 122 123 125 126 124 120 118 112 108 105 101 95 95 93 27 58 97 103 108 112 114 117 116 115 118 116 115 112 112 112 119 125 131 141 147 151 156 159 157 157 157 149 144 138 131 122 119 118 120 125 127 127 125 118 112 108 105 101 97 93 94 96 27 56 93 98 103 106 109 113 113 111 115 114 114 110 112 113 117 125 138 144 143 152 163 158 156 155 151 149 144 139 134 125 122 121 123 125 123 120 119 112 109 106 101 97 95 92 95 98 30 52 90 92 97 101 106 107 106 110 115 115 114 112 113 112 118 126 139 142 145 145 157 148 149 149 146 143 142 139 139 131 128 123 126 125 122 116 114 110 109 102 97 93 94 90 98 97 32 50 86 92 96 99 101 106 106 109 117 115 114 115 114 112 120 127 134 136 138 136 140 142 139 138 140 137 135 134 137 130 127 123 128 124 120 117 112 108 104 99 95 91 90 92 103 92 33 57 82 90 95 96 101 99 105 107 110 111 114 113 111 114 117 123 126 127 131 131 132 133 132 130 132 130 129 128 130 126 125 120 123 118 115 113 107 108 102 96 93 91 88 99 104 79 34 62 90 82 89 94 97 100 102 105 109 113 114 116 114 115 117 120 122 120 120 118 123 121 123 124 122 122 118 118 120 119 118 116 113 111 107 105 100 99 95 93 92 88 89 104 101 64 34 63 100 79 80 89 93 94 96 102 104 108 114 116 114 114 114 114 116 118 111 110 110 107 110 110 112 110 111 111 113 111 110 105 102 101 99 100 101 96 91 90 89 83 99 106 84 55 21 62 103 93 75 82 88 91 89 92 96 100 105 110 111 111 109 108 107 108 105 103 102 98 100 98 102 104 101 103 103 103 99 96 93 91 89 89 96 91 88 87 79 85 102 105 66 41 31 38 64 61 52 45 48 49 51 52 54 56 60 64 65 64 66 65 62 62 61 59 57 57 55 57 57 58 57 58 58 57 56 55 51 48 50 54 54 54 54 50 46 57 64 57 33 25 28 