P2
48
60
255
39 68 71 79 79 78 78 80 81 85 89 87 91 92 92 92 92 95 93 93 94 90 90 91 88 88 89 88 86 86 85 83 85 84 81 79 80 74 74 72 72 69 68 66 61 54 49 28 64 109 117 128 124 125 128 129 130 136 140 141 146 147 144 143 141 140 139 143 146 146 145 146 142 140 140 138 138 136 135 134 134 134 126 127 127 122 117 117 117 115 109 106 103 99 90 50 67 115 118 127 122 127 127 127 134 133 134 134 141 143 146 144 143 142 143 143 145 145 145 144 143 142 141 141 140 136 137 135 132 130 126 123 120 121 119 116 115 117 115 105 104 98 93 53 70 113 116 124 125 125 125 129 132 128 131 137 145 149 150 153 153 150 147 146 147 144 145 146 143 142 143 143 141 144 142 138 134 133 130 124 121 124 120 117 113 115 117 106 106 99 99 56 70 117 116 121 126 126 123 127 131 129 133 141 147 150 150 154 152 150 149 148 148 146 144 145 146 144 144 143 143 147 146 144 138 133 135 132 127 123 123 115 111 111 112 107 102 99 98 61 70 116 113 119 123 123 123 127 132 134 138 143 150 153 155 157 155 154 150 146 148 147 144 147 149 148 144 146 146 145 144 145 143 137 136 136 130 124 121 117 111 109 112 107 101 100 99 62 70 113 113 119 119 122 125 130 134 139 144 146 149 151 155 161 158 154 154 154 151 148 145 147 150 149 149 148 147 150 147 149 145 135 140 139 133 127 122 119 112 106 108 106 101 99 100 61 70 113 115 117 119 123 126 133 138 144 150 150 150 150 153 154 155 148 149 155 150 148 148 149 149 149 146 145 144 144 147 146 143 139 136 143 135 133 128 122 117 112 109 106 103 99 98 60 70 113 114 114 121 126 130 135 145 153 155 152 148 143 143 145 139 141 144 147 146 144 145 148 142 143 142 138 136 136 137 135 135 133 135 137 140 141 137 128 122 116 112 109 104 98 99 59 67 112 112 114 123 128 127 132 138 137 135 135 133 128 127 131 130 131 131 133 138 131 135 138 133 133 138 133 127 125 127 130 127 121 121 125 125 125 121 119 116 113 110 111 105 100 95 59 67 109 111 115 121 121 119 118 120 121 114 107 98 95 101 108 109 112 118 121 124 125 131 139 135 128 131 125 114 111 111 107 101 98 98 96 101 108 109 112 112 112 109 107 107 99 93 58 67 107 106 110 114 116 113 109 104 102 95 86 79 77 77 79 82 88 97 104 106 113 129 142 130 118 119 109 95 86 81 77 71 69 66 73 81 89 96 102 108 105 105 105 101 99 92 56 68 106 105 104 106 109 111 116 115 107 103 94 81 79 73 71 70 70 76 83 89 108 134 147 135 119 108 91 76 67 61 57 53 51 53 65 78 89 96 99 102 102 101 97 92 94 91 55 68 103 104 103 107 113 120 122 119 113 104 93 81 70 69 74 84 84 82 84 93 111 133 150 142 122 112 85 69 57 57 58 56 62 71 76 78 88 98 105 108 107 102 93 87 89 91 55 67 103 102 102 102 110 109 86 62 55 44 41 48 57 69 78 79 85 86 97 109 121 139 149 140 122 112 93 75 62 69 76 83 84 75 59 47 47 49 59 68 88 100 94 89 91 93 54 68 104 104 104 100 89 60 55 88 77 93 42 74 77 120 88 90 97 90 102 113 123 142 147 142 125 106 93 84 68 78 92 81 97 125 94 60 58 69 73 66 58 62 83 85 89 91 54 70 111 108 103 94 64 72 83 112 88 68 44 56 78 136 121 98 108 111 117 117 123 141 146 141 123 101 94 91 84 91 91 116 133 136 72 48 47 61 79 90 63 67 63 82 89 95 57 70 114 109 100 87 82 85 110 117 116 87 74 72 105 136 114 106 113 120 115 117 123 140 144 140 121 98 98 93 97 98 98 104 124 147 103 70 69 78 108 106 99 81 77 70 85 92 57 70 114 113 106 97 99 96 95 108 115 125 118 118 120 119 117 115 112 115 117 115 120 137 140 136 120 98 97 98 93 92 104 106 115 119 120 113 112 117 112 104 89 80 79 79 80 92 59 72 116 115 114 112 111 114 114 111 112 114 114 115 115 117 117 110 109 119 117 114 121 135 135 131 117 98 98 99 100 92 98 107 111 114 111 114 114 110 110 104 102 102 95 85 91 98 62 72 122 125 129 125 120 122 125 131 133 135 126 119 118 118 112 112 119 121 117 113 118 132 133 128 110 98 96 99 102 100 95 101 109 112 112 113 118 124 123 118 118 113 102 98 104 109 69 73 121 131 138 131 122 126 133 140 141 138 131 125 123 121 117 123 128 122 116 113 119 134 134 124 108 97 95 101 106 110 107 102 105 112 113 115 120 126 132 130 126 117 104 103 115 119 75 70 122 138 145 138 126 129 137 142 143 141 133 130 123 123 127 135 129 120 114 114 124 136 137 124 108 96 96 98 105 110 117 110 107 110 113 120 123 131 135 135 128 117 103 107 119 125 75 66 120 136 147 144 135 132 136 137 137 139 133 128 131 134 137 135 126 118 113 113 129 135 137 126 106 96 95 99 103 109 118 124 116 113 117 121 124 127 129 129 122 110 106 117 125 128 74 67 118 131 142 148 146 138 137 140 143 140 138 137 139 141 142 131 123 115 109 114 130 134 137 126 108 95 94 98 102 105 116 128 132 122 121 124 127 130 128 125 119 114 119 132 131 126 72 65 115 124 137 143 144 142 140 141 143 144 142 143 145 145 136 124 122 112 110 118 135 142 135 125 113 96 91 92 98 104 110 122 132 133 131 126 130 131 127 127 128 125 127 132 128 117 68 64 111 119 128 134 140 140 138 144 145 139 144 145 146 137 131 125 116 110 110 122 139 141 138 132 126 102 87 89 93 99 108 116 127 130 135 132 130 127 125 128 127 128 131 130 122 110 64 62 106 115 122 128 131 135 136 142 145 145 141 140 142 135 131 123 113 107 111 126 151 155 142 147 134 111 91 90 94 94 103 112 123 133 136 134 133 131 130 130 125 126 126 123 113 104 61 63 105 113 118 123 124 128 131 136 140 141 139 142 138 134 124 114 109 106 105 111 133 139 136 138 115 100 91 89 90 90 97 107 118 124 133 134 130 126 127 126 123 123 122 115 104 97 59 63 106 111 116 120 120 123 129 132 137 133 137 140 137 124 112 111 109 110 105 99 111 119 122 119 97 87 88 93 93 94 95 98 107 121 129 132 129 123 121 120 119 116 109 101 97 94 58 64 104 111 115 118 120 122 122 127 131 132 136 137 125 108 102 109 107 96 89 102 106 105 107 103 93 87 82 91 96 100 94 98 98 113 124 130 126 122 117 116 112 105 102 95 92 96 59 64 106 113 113 118 121 119 119 126 129 132 135 135 115 100 107 105 87 55 31 44 88 87 81 81 74 44 28 43 78 93 92 93 91 102 119 128 126 118 118 113 107 99 96 95 93 96 58 63 103 114 116 120 121 118 118 123 127 134 135 131 113 108 119 112 82 71 84 89 95 83 70 74 75 70 54 42 59 81 90 94 91 96 114 125 128 122 119 110 105 96 97 96 96 95 57 62 103 111 116 121 122 119 117 121 127 136 136 125 115 119 127 123 110 87 91 102 110 102 85 83 95 98 87 78 72 80 99 101 100 103 114 123 128 124 117 109 101 97 96 98 99 97 59 62 102 110 112 120 122 120 117 120 130 138 136 125 120 126 129 129 128 122 113 110 122 123 115 116 124 113 91 85 93 108 111 112 116 115 115 122 128 124 115 106 99 95 95 96 99 99 60 61 102 107 113 118 121 118 116 119 133 138 133 125 126 131 133 130 132 129 123 120 130 133 117 121 124 121 105 109 117 120 126 123 124 121 121 123 127 124 117 105 101 95 98 97 100 98 60 58 99 105 113 117 120 117 115 115 130 133 130 128 131 132 132 129 130 132 130 125 129 129 115 123 129 125 114 111 120 120 124 124 125 121 124 124 126 125 117 108 100 95 97 98 100 101 58 59 96 105 112 118 120 115 115 117 128 129 129 131 129 131 130 126 125 130 129 131 136 125 117 125 129 126 116 117 114 120 122 123 122 120 123 124 122 122 117 109 102 97 97 100 103 99 58 60 97 100 111 116 119 114 116 120 124 130 128 132 129 130 128 126 125 129 132 133 138 130 127 131 131 133 119 117 117 120 116 113 117 117 121 122 119 119 116 105 102 97 96 99 99 97 57 59 97 101 108 115 120 116 115 118 124 127 123 130 130 124 122 123 131 130 128 136 142 135 130 132 134 135 128 119 121 122 118 111 110 108 117 120 118 113 113 106 101 97 95 100 101 95 56 81 98 100 104 114 118 115 115 116 124 123 114 125 127 121 121 120 127 131 135 136 141 136 132 130 135 139 132 120 119 119 115 109 106 102 112 118 112 107 109 106 99 97 94 99 98 95 56 147 123 97 102 109 117 115 117 113 121 119 119 125 121 117 119 121 123 123 117 111 107 113 126 127 126 112 102 103 106 110 108 107 104 98 106 114 108 106 108 105 100 97 96 96 97 93 55 152 182 96 100 105 115 112 115 112 119 114 115 123 121 115 108 105 95 89 93 95 96 96 102 107 100 89 90 87 83 83 83 87 90 93 97 108 110 105 102 105 97 95 96 96 95 91 55 152 232 104 101 105 111 112 112 112 116 110 112 122 112 90 76 68 70 76 80 82 83 74 72 79 72 73 80 81 75 70 65 58 56 65 74 92 108 105 102 101 95 94 93 95 93 89 55 152 245 145 98 101 106 110 111 108 115 108 112 108 86 62 65 73 86 100 108 120 119 117 113 112 109 117 122 115 112 93 80 74 64 69 68 84 103 106 103 101 93 93 94 95 91 86 54 152 245 213 100 100 105 110 109 109 115 113 108 104 97 96 108 104 107 115 116 125 134 137 133 132 128 133 131 126 114 102 94 90 90 97 107 103 109 108 107 106 92 94 95 92 90 86 53 152 246 243 146 98 103 109 109 106 108 118 111 106 106 110 109 107 109 116 120 118 130 134 133 133 132 131 130 117 109 103 97 101 101 104 114 110 110 108 115 106 89 91 93 89 89 84 53 152 246 245 225 109 101 107 109 108 107 117 117 112 114 111 115 116 115 118 125 121 121 121 116 114 117 104 106 105 107 110 108 108 105 105 108 103 105 106 115 100 89 89 94 89 87 85 50 152 246 246 246 194 100 103 104 106 105 111 116 112 116 113 112 115 119 121 128 129 128 121 111 105 106 104 107 108 111 116 112 103 104 102 102 100 101 101 108 95 84 87 92 88 87 82 48 152 246 246 246 243 144 99 103 106 102 104 112 112 110 109 109 111 112 116 120 121 117 115 115 114 110 109 112 115 112 114 105 98 101 96 96 96 97 102 106 90 83 88 88 87 83 78 46 152 246 246 246 246 227 108 100 103 102 100 105 113 111 102 104 108 110 113 113 119 116 115 115 112 106 108 109 112 106 107 100 97 98 93 89 90 93 98 95 86 87 91 87 87 82 74 44 152 246 246 246 246 247 185 99 103 105 102 99 106 112 106 100 101 106 107 109 115 114 113 110 106 109 106 109 109 102 102 98 98 89 89 87 88 92 94 89 86 90 91 86 84 77 74 50 152 246 247 246 247 247 242 131 101 107 107 110 109 113 112 106 102 104 107 111 111 109 111 116 117 120 119 112 104 101 101 97 101 101 90 91 93 96 92 89 86 92 89 84 81 75 82 56 152 246 247 247 246 246 211 138 97 104 108 109 110 112 118 120 109 108 112 113 113 116 129 131 132 130 126 120 112 107 106 106 109 115 90 90 100 100 97 91 86 88 85 82 76 82 87 57 152 246 247 247 246 232 118 134 101 95 102 106 110 114 118 121 117 114 117 122 122 120 127 132 135 133 126 121 115 108 111 110 113 105 98 101 105 99 93 91 87 83 81 77 77 86 89 57 152 247 247 247 237 147 79 107 98 101 90 96 101 109 115 119 118 123 125 127 124 120 127 129 132 129 122 115 116 113 109 108 112 106 101 104 101 100 95 89 84 80 76 76 84 88 94 54 152 246 247 240 158 62 83 89 84 104 104 86 93 102 108 114 115 120 120 123 121 116 121 126 122 115 111 111 114 111 105 107 102 106 100 101 101 94 88 82 77 73 77 80 86 87 91 56 152 245 241 174 69 60 89 118 72 104 107 96 85 94 105 111 110 119 119 119 118 116 123 118 111 103 98 103 109 107 103 101 100 107 102 96 93 87 81 76 71 75 80 81 83 85 90 56 152 235 160 69 59 56 87 143 63 101 106 104 96 86 96 104 109 118 119 114 113 111 117 115 108 99 94 100 99 103 101 99 99 103 97 88 87 80 74 70 73 79 80 81 84 87 90 54 89 92 45 36 35 32 53 94 40 61 65 64 62 59 54 60 63 68 68 66 66 66 69 68 65 61 63 63 67 65 61 61 59 60 56 51 48 46 44 44 47 50 48 50 54 55 55 34 