P2
48
60
255
33 54 55 57 58 59 60 60 60 60 62 62 62 63 64 63 63 63 64 63 64 64 65 64 64 64 63 63 64 63 61 59 58 56 54 53 52 52 51 51 50 49 48 47 47 46 44 27 53 88 90 92 93 95 97 96 98 96 100 99 101 104 102 103 102 104 103 102 101 101 104 104 104 104 104 101 103 103 99 96 94 93 87 84 84 83 81 81 81 80 77 76 75 73 72 44 54 87 90 92 95 95 97 98 99 99 100 101 104 104 104 104 104 103 102 101 102 101 102 103 104 103 105 103 103 103 100 97 96 94 87 85 83 82 82 81 81 79 77 75 75 73 72 44 53 88 92 93 95 96 98 100 100 100 102 104 106 107 105 105 103 104 102 101 101 102 102 102 103 102 103 105 103 102 100 96 95 94 90 86 83 83 83 82 81 79 77 74 74 74 72 44 53 89 93 93 95 98 100 100 99 102 103 103 104 107 106 105 104 102 100 101 101 101 102 101 102 102 105 104 102 102 100 97 96 92 90 86 84 86 84 84 82 80 77 76 74 73 72 44 54 89 92 94 95 97 98 96 97 98 100 99 101 103 101 102 101 100 100 100 99 99 100 100 98 100 102 100 96 95 95 94 91 88 85 83 80 82 83 83 82 80 77 76 75 73 72 44 53 88 91 94 96 95 90 89 89 90 89 87 86 89 91 95 96 94 95 97 97 96 97 97 93 95 98 94 87 86 80 75 74 71 68 67 71 74 76 75 76 78 78 76 75 74 72 44 52 87 91 94 92 85 81 77 75 74 69 64 61 61 63 70 74 80 86 91 94 93 93 92 90 92 94 86 80 75 66 62 57 55 52 53 54 58 63 67 69 71 74 76 75 74 72 44 52 87 87 86 79 78 80 75 69 62 58 54 55 52 51 54 60 68 77 83 88 88 92 90 86 88 87 82 74 70 65 59 56 53 52 51 53 55 58 62 67 68 69 70 74 74 72 44 52 87 85 77 80 78 78 76 77 71 62 61 59 61 63 66 68 71 76 83 87 89 90 90 86 86 85 82 77 72 68 63 60 59 57 57 60 63 64 62 62 63 64 64 67 73 73 44 52 85 76 76 74 76 75 75 79 80 78 78 74 70 71 73 74 77 79 81 85 89 92 90 87 86 83 78 73 68 66 66 67 69 74 79 82 82 76 70 66 63 64 66 66 69 73 45 52 79 75 76 79 80 80 83 85 84 86 86 83 77 72 72 73 75 78 79 84 93 99 98 94 87 78 70 65 62 63 67 75 83 91 91 91 88 84 80 74 68 66 66 64 66 72 45 51 77 76 78 79 81 81 85 88 88 87 85 82 77 72 71 71 72 77 82 88 99 104 102 97 87 76 65 59 60 69 81 87 91 94 92 90 87 84 80 76 73 69 66 65 67 70 44 49 76 77 78 78 80 81 82 83 83 76 68 63 58 58 62 68 70 74 82 88 98 103 102 96 85 72 60 57 63 74 79 79 80 78 79 82 82 79 76 74 70 69 67 65 66 68 43 48 79 78 79 80 78 75 70 68 70 61 52 48 49 56 59 60 70 75 83 89 96 100 99 93 82 70 61 61 65 64 63 74 80 75 73 74 72 66 65 66 67 67 67 66 64 65 42 49 79 81 79 76 70 62 66 59 49 42 46 46 43 59 57 59 67 80 86 90 92 96 94 89 79 70 65 63 62 57 66 67 64 54 45 47 49 55 61 58 57 61 64 69 64 66 41 50 80 79 76 70 60 63 52 56 65 52 59 35 44 62 76 61 60 81 90 88 89 93 91 87 78 70 66 65 63 50 60 83 80 76 48 40 46 48 50 56 57 53 59 63 64 67 42 52 82 79 74 66 67 56 53 69 78 50 43 39 51 68 79 72 81 89 87 85 87 91 90 84 75 69 67 67 73 72 69 82 82 54 43 42 50 56 55 51 54 56 55 61 64 66 42 54 86 80 75 72 70 68 69 73 82 72 55 56 64 80 81 83 85 86 86 84 86 91 90 84 74 68 67 68 71 73 78 80 83 69 54 53 52 62 61 56 56 56 60 62 65 67 44 56 90 88 85 85 84 81 78 80 81 83 84 80 77 77 79 84 88 88 86 84 88 91 90 84 73 68 68 69 71 75 77 78 78 80 79 75 69 69 67 65 62 63 64 64 67 71 46 57 92 91 90 90 85 85 86 89 87 87 87 84 81 82 86 92 95 90 87 84 88 91 91 85 75 69 69 69 72 76 79 79 78 78 77 77 76 74 74 73 69 71 74 74 75 78 49 56 89 90 91 89 86 87 90 92 96 94 90 89 88 89 94 99 96 89 86 84 90 93 93 87 76 69 69 70 70 75 80 82 81 79 79 78 77 75 75 74 72 74 76 79 79 79 49 54 89 90 90 90 90 90 91 92 93 95 95 94 93 97 101 100 93 88 87 85 91 93 93 86 77 70 69 70 70 74 81 85 84 82 80 78 79 79 80 80 79 79 81 82 82 79 49 54 87 88 90 91 91 93 94 94 95 94 94 96 99 101 99 98 92 90 87 86 91 94 93 89 79 72 69 69 71 73 79 84 88 87 84 82 82 82 81 82 82 85 85 84 81 79 48 53 87 89 91 90 91 92 93 94 93 94 96 99 99 99 98 96 92 91 86 86 92 95 95 89 80 72 68 68 71 73 78 82 87 88 88 86 85 85 86 86 86 86 85 83 81 79 48 52 85 88 90 90 90 91 93 94 95 95 97 98 100 98 98 97 95 88 84 89 94 95 94 90 80 73 68 66 69 72 77 82 86 88 88 89 88 87 86 86 84 85 83 82 80 79 47 51 84 87 88 90 92 93 94 93 94 95 96 97 99 98 99 99 95 86 85 92 97 97 99 97 85 74 69 67 66 69 76 82 87 89 88 89 88 88 87 87 83 85 82 80 78 77 47 50 84 87 89 91 93 93 93 94 96 97 97 98 99 101 100 97 90 84 85 93 101 104 99 100 91 76 70 68 68 66 73 79 85 89 90 90 90 89 89 87 86 83 82 80 78 77 47 50 85 86 88 92 93 93 94 95 96 96 97 99 100 101 98 93 87 85 85 91 103 105 95 90 84 74 68 68 71 67 69 76 83 89 92 91 91 90 89 88 86 85 82 80 77 77 47 51 85 87 90 92 93 94 94 98 98 96 99 100 99 96 93 91 88 86 83 85 93 92 88 85 77 67 64 66 71 69 65 72 80 86 89 91 91 90 90 89 88 85 83 80 77 77 47 51 85 87 89 90 93 95 97 99 98 98 99 99 97 94 92 89 85 81 78 79 81 82 79 75 66 58 58 61 67 68 66 68 76 83 88 90 91 90 89 89 88 86 83 80 78 76 47 51 84 87 89 90 94 95 97 100 99 99 99 96 94 91 91 88 82 66 54 57 70 74 68 63 53 47 46 51 60 62 66 70 74 82 85 89 90 89 88 89 87 84 81 80 79 76 46 51 84 87 89 91 93 96 98 100 100 101 99 96 94 93 92 87 83 70 70 77 76 73 64 58 47 44 44 47 56 59 68 72 77 81 83 88 90 89 88 88 86 84 82 79 78 76 46 51 84 87 90 91 93 95 98 97 99 99 98 95 92 93 91 87 85 79 77 81 83 75 64 57 52 51 50 49 50 60 73 77 80 83 85 87 88 87 86 86 85 83 82 79 77 75 46 50 84 86 89 90 90 95 97 98 98 98 97 96 96 96 93 89 86 85 85 82 81 78 68 64 62 60 58 57 59 70 78 81 83 84 87 87 88 87 87 85 84 84 82 79 76 75 46 50 84 87 89 91 92 95 96 98 97 99 98 95 95 97 95 90 87 85 86 81 80 78 71 73 75 71 68 68 72 76 79 82 83 84 86 87 86 87 86 84 84 82 80 78 75 74 46 51 84 87 90 91 93 94 97 97 98 99 99 97 97 97 95 92 89 86 83 82 83 82 78 80 84 80 76 73 75 77 79 81 84 85 86 87 88 87 85 84 84 81 80 77 75 74 46 50 83 88 89 91 94 94 96 97 99 100 100 98 97 96 94 92 89 84 83 82 88 89 82 84 90 88 80 75 75 75 78 80 82 84 86 87 89 87 85 85 83 81 79 77 75 74 46 50 84 87 88 91 93 94 97 97 98 100 99 98 97 94 94 90 87 86 84 88 91 93 89 90 96 92 86 81 75 74 76 78 79 81 84 84 86 85 84 84 83 81 78 77 75 75 46 50 83 85 89 92 93 94 96 97 97 97 97 95 95 91 90 90 91 89 90 94 96 97 92 91 94 96 88 83 77 75 73 76 76 78 81 82 83 86 84 83 81 78 79 77 75 74 47 49 82 85 88 91 93 95 95 96 96 97 97 96 94 92 90 92 93 94 98 99 98 95 96 93 93 95 87 84 81 77 73 72 73 77 77 79 81 85 84 83 80 80 78 77 75 74 47 49 83 84 88 90 92 94 95 96 97 96 95 97 94 90 87 92 93 94 89 80 77 77 78 80 78 73 68 67 72 74 72 71 70 73 76 78 81 84 85 82 80 81 78 77 75 75 46 50 82 85 88 91 92 93 94 94 95 96 94 94 91 86 81 86 89 78 67 62 64 67 68 68 64 61 57 56 57 60 64 69 68 69 72 79 81 83 86 82 82 81 78 77 76 75 46 48 82 84 86 90 91 94 93 94 95 96 94 93 87 76 65 75 70 62 62 67 70 71 73 70 65 67 67 64 61 56 53 57 61 59 69 81 82 84 88 84 82 82 79 77 75 75 47 49 82 83 85 89 91 93 92 94 93 96 94 89 84 75 62 67 70 81 86 87 90 91 92 91 88 89 88 86 81 76 71 62 56 58 73 84 83 86 89 85 83 80 78 76 75 76 47 50 81 82 86 88 89 90 90 91 93 94 93 88 84 85 90 93 91 89 88 90 92 91 90 87 87 86 86 86 82 77 73 72 72 75 83 88 85 87 91 86 80 79 78 76 75 75 47 50 81 81 85 88 90 88 88 88 93 94 92 90 89 94 99 98 96 94 91 88 86 84 81 78 77 77 77 79 77 73 71 73 73 75 82 85 85 89 90 86 79 77 76 75 76 76 47 50 81 81 84 87 89 88 85 87 90 93 92 91 94 97 100 99 98 93 90 87 83 78 75 72 72 72 73 74 73 73 71 72 73 75 81 81 81 86 88 84 79 75 74 75 75 75 47 50 80 81 83 85 87 87 86 86 88 90 91 91 93 97 99 100 99 94 92 89 85 82 80 77 76 75 76 76 76 75 73 74 75 76 80 79 81 83 85 83 77 74 73 74 74 75 47 50 80 80 83 84 86 86 85 86 87 88 90 91 91 94 97 99 97 96 95 94 90 88 87 85 83 81 82 81 81 78 77 76 77 77 79 77 79 80 82 82 74 73 74 73 74 75 47 51 81 81 83 84 86 85 84 85 85 86 86 88 90 93 94 96 98 97 98 97 94 92 90 88 86 84 83 84 83 82 82 80 79 78 76 76 76 78 77 79 74 73 73 73 73 75 46 52 80 80 82 83 84 84 84 84 83 86 86 85 86 90 91 91 95 96 96 95 95 92 91 90 86 86 86 86 85 85 83 82 80 78 74 75 75 77 78 78 75 72 72 72 73 74 46 52 82 81 80 81 83 84 83 83 84 85 83 81 86 86 88 87 92 96 98 96 93 94 90 88 89 87 84 83 83 83 84 83 80 78 75 75 74 76 76 73 73 72 71 71 72 73 46 56 83 81 79 80 80 82 81 81 82 82 82 84 85 87 88 88 90 94 94 88 90 93 93 90 90 89 87 83 82 81 84 83 80 77 75 75 73 75 73 73 72 71 70 71 72 72 45 111 88 80 79 79 79 80 80 80 80 81 84 82 83 86 89 89 89 92 92 90 91 91 93 94 91 89 90 86 82 81 84 81 80 77 73 71 71 72 71 72 69 69 68 70 70 71 44 155 135 81 77 77 79 80 79 78 79 79 80 80 81 85 87 86 89 92 91 92 91 91 91 91 91 87 90 85 84 81 82 79 77 75 71 70 70 70 69 69 68 68 68 68 68 69 44 158 223 86 76 75 77 78 75 76 77 77 78 74 76 83 84 84 86 89 90 90 92 93 92 90 88 88 88 88 86 82 82 77 73 71 71 70 67 66 66 67 65 65 66 66 67 68 42 158 243 100 76 73 73 74 75 75 79 77 75 74 76 78 79 82 83 85 89 89 92 91 92 90 89 90 87 85 86 82 80 76 71 68 67 65 65 64 64 64 65 64 63 65 65 66 42 158 250 110 78 71 71 71 73 76 78 74 74 71 74 75 77 79 82 83 88 89 91 90 90 88 89 88 88 86 84 80 77 72 68 64 63 63 63 61 62 62 62 63 63 64 64 65 41 98 156 76 48 45 43 43 43 44 47 45 45 44 44 45 46 48 49 51 53 53 55 55 55 55 55 54 52 51 49 48 46 44 40 39 38 38 37 37 37 37 37 37 38 38 38 39 25 