P2
48
60
255
32 49 47 46 48 49 51 56 57 59 63 62 71 73 78 77 75 76 74 74 74 75 78 70 65 62 63 64 63 61 63 62 66 67 66 63 64 60 60 58 55 50 45 45 49 46 48 31 53 76 74 75 76 80 82 89 91 98 102 108 118 117 122 123 125 121 121 120 120 118 118 118 127 124 126 127 121 120 123 118 119 118 109 104 107 106 97 92 89 82 74 73 81 78 77 48 52 73 70 76 77 78 83 90 95 92 97 105 111 111 112 117 125 123 127 126 124 128 126 121 119 120 126 125 120 119 120 119 119 120 115 115 111 108 100 94 89 85 77 75 78 80 81 50 55 74 72 77 78 77 86 92 95 100 103 110 117 121 122 122 117 117 118 122 122 125 125 116 121 121 123 123 122 122 121 122 118 121 116 118 114 112 106 100 94 88 81 76 75 80 75 45 47 73 72 75 78 86 92 97 102 104 107 110 119 123 121 122 122 124 124 122 124 123 122 114 123 124 121 121 123 121 118 123 117 121 121 120 116 112 110 110 104 97 88 81 77 76 73 46 49 75 72 77 83 93 93 98 101 108 111 110 118 122 113 118 121 123 126 125 122 123 124 123 121 121 121 118 123 124 125 117 115 115 114 122 122 120 113 109 105 100 92 84 78 70 75 49 49 72 72 79 88 94 95 99 105 113 115 118 118 118 110 115 121 122 124 122 124 123 119 124 118 121 122 122 113 117 112 108 115 117 118 116 122 116 107 98 99 95 92 86 78 74 74 49 46 71 72 78 83 85 87 89 101 104 108 114 126 126 111 109 121 122 123 126 126 126 113 117 113 117 126 112 106 110 105 104 111 104 103 105 115 107 85 73 77 83 84 84 78 77 76 48 44 70 73 75 81 81 74 65 81 88 98 99 103 109 103 107 110 114 117 121 122 121 110 119 113 117 113 100 99 96 94 95 95 107 102 98 99 94 82 77 80 77 71 80 78 75 75 50 43 70 70 70 73 67 61 68 93 97 100 90 74 93 96 90 92 97 111 113 117 109 106 116 119 112 96 88 85 95 84 81 95 85 80 71 85 92 81 78 81 74 73 73 74 73 74 46 42 67 63 66 61 54 59 81 92 95 90 87 79 71 63 66 69 73 88 105 110 106 100 108 115 101 82 68 67 68 63 64 90 106 87 65 65 65 67 65 63 70 74 72 68 72 72 48 43 65 59 63 59 58 67 70 78 79 85 80 56 52 58 60 56 54 66 87 99 103 101 103 105 94 74 53 56 62 59 51 50 50 60 67 65 65 65 63 62 60 72 63 62 64 67 46 43 67 62 53 60 69 76 70 78 83 84 75 67 62 59 56 55 52 52 67 80 85 76 71 79 77 64 56 56 56 52 53 68 78 85 96 94 93 90 80 80 69 66 61 61 60 63 43 42 64 55 53 65 71 79 88 88 87 86 91 92 92 82 65 53 51 52 56 63 62 68 73 70 62 59 58 50 50 63 79 84 82 79 82 84 83 85 82 77 74 71 63 59 56 65 39 40 56 57 61 67 70 72 81 82 82 80 84 87 87 86 79 61 48 52 59 69 94 111 121 127 122 95 71 53 63 75 76 65 50 42 38 40 43 55 70 73 67 67 66 58 56 56 39 39 53 59 61 64 63 67 61 51 43 39 39 39 43 50 63 65 56 59 73 93 121 130 130 128 122 99 85 74 75 66 46 33 35 43 31 30 30 28 35 45 57 65 61 60 59 56 33 41 53 57 59 57 47 35 36 34 35 33 34 40 40 35 35 46 61 74 78 86 113 134 134 126 102 88 84 82 64 40 37 53 66 91 60 42 42 43 52 32 30 41 52 58 59 51 33 38 55 57 51 36 28 37 48 61 69 76 87 92 91 86 70 63 67 73 81 77 107 136 133 124 92 80 86 85 79 79 78 91 101 102 92 80 92 88 76 63 48 39 41 43 45 46 29 37 55 47 45 53 57 64 80 86 96 92 86 87 86 86 73 81 77 77 83 73 102 135 133 118 84 73 83 88 87 79 84 85 85 85 91 92 100 94 85 71 77 79 81 63 49 51 33 36 53 46 59 71 75 76 77 80 81 85 83 83 81 79 88 100 92 84 82 78 105 127 129 119 87 76 92 93 101 105 86 72 78 78 79 82 85 85 83 82 83 88 90 76 64 59 38 35 53 57 63 72 78 83 87 92 88 76 72 74 90 104 109 113 106 89 83 86 111 123 128 118 97 85 85 95 107 116 111 94 72 67 77 80 79 81 85 83 80 80 77 74 76 80 48 39 66 73 68 69 74 72 69 69 74 73 84 100 114 122 121 117 109 90 82 94 114 121 121 115 104 91 86 96 118 121 118 117 103 83 64 65 79 88 80 69 67 66 65 69 78 83 50 42 74 82 79 73 78 89 93 83 79 95 113 122 132 137 138 127 112 89 89 100 116 121 121 120 106 102 100 96 116 128 126 136 134 122 106 86 67 68 81 94 98 95 95 97 90 82 47 43 75 87 97 104 99 91 85 97 111 121 134 147 138 126 111 111 107 95 96 106 118 121 123 120 110 105 101 102 116 117 101 112 135 136 134 123 108 97 87 83 94 103 98 92 82 77 47 44 76 86 93 94 96 106 116 120 127 132 142 126 99 81 88 97 101 96 99 107 119 119 120 121 113 106 100 99 102 103 87 77 107 128 134 146 137 125 119 104 93 92 94 92 88 80 48 47 84 97 103 110 117 123 129 139 136 132 115 96 74 85 91 98 102 96 103 110 121 121 120 126 116 111 101 97 97 90 91 88 79 105 119 136 144 145 139 130 118 113 103 96 92 83 49 50 88 101 114 121 125 130 141 141 112 101 97 85 76 82 95 105 107 101 109 112 132 131 119 124 115 122 109 103 102 95 86 83 74 83 99 112 124 137 140 141 139 124 113 107 89 84 49 53 95 105 108 120 122 122 121 109 96 90 85 73 78 88 109 122 115 111 106 119 186 152 117 170 132 132 136 117 112 112 99 84 81 84 91 103 109 113 122 139 147 141 123 113 99 84 51 53 92 102 109 118 122 114 103 95 90 88 73 75 84 85 105 136 136 124 99 113 138 116 102 123 124 130 144 159 145 131 96 80 80 82 78 95 101 100 102 116 133 141 131 112 98 85 49 53 91 98 107 112 114 101 99 91 90 76 55 86 96 73 81 95 105 100 96 94 97 96 92 89 90 95 108 115 93 84 74 68 82 90 70 80 100 103 97 109 122 139 127 108 94 84 50 52 89 94 100 107 109 105 100 96 85 59 66 99 113 90 56 54 69 80 85 87 88 87 84 80 81 84 80 70 58 50 51 75 104 102 81 61 87 98 101 108 114 120 117 103 93 83 48 52 87 92 98 103 103 99 98 88 68 54 97 103 103 100 80 47 39 49 65 72 74 73 69 68 67 61 50 37 36 41 67 102 106 106 103 67 69 88 98 101 108 112 109 97 90 81 46 50 85 90 92 95 96 95 87 75 52 86 110 101 100 97 91 87 82 77 69 51 49 51 48 47 41 41 60 72 88 101 101 97 99 102 102 94 60 75 89 96 100 104 100 92 88 78 45 48 82 88 89 91 88 82 78 57 65 101 109 101 96 96 93 94 97 94 101 89 63 47 42 46 57 70 97 106 105 110 104 99 97 100 106 106 88 60 78 89 89 89 91 88 82 75 44 47 78 83 85 85 82 72 62 51 94 100 101 97 96 99 102 99 100 102 109 86 87 97 92 93 96 83 98 114 115 111 112 106 101 102 102 109 104 74 64 80 86 86 85 84 78 71 43 45 74 78 83 84 79 71 52 65 96 97 97 97 101 102 104 104 102 104 111 95 95 101 100 104 102 92 99 118 123 119 118 117 106 103 98 106 105 98 60 72 82 86 85 78 72 67 40 43 71 74 78 78 77 67 46 84 94 92 96 98 100 101 105 105 100 103 121 123 111 99 90 92 96 103 125 128 120 121 117 112 106 99 100 101 104 100 80 58 76 84 84 79 73 66 41 40 69 73 75 75 73 57 54 94 87 84 87 94 96 98 101 99 105 107 109 117 118 123 105 101 95 100 107 117 124 139 120 102 101 92 92 92 96 98 93 54 66 79 80 76 73 66 40 39 68 73 75 79 71 53 69 92 87 83 84 93 94 91 86 89 97 104 105 102 102 101 95 92 97 101 102 107 110 107 105 97 95 89 85 85 88 94 96 69 61 72 79 78 72 67 40 38 66 70 75 79 73 52 70 88 85 78 85 83 74 71 78 84 94 101 103 98 94 89 84 83 89 91 98 102 106 101 93 85 81 79 82 79 78 81 87 78 70 78 75 73 69 64 38 39 63 68 74 78 77 62 66 68 75 74 74 61 62 65 70 72 77 83 88 91 93 84 81 78 82 85 84 87 86 81 77 70 64 62 64 72 72 72 73 71 69 86 79 75 73 63 39 38 59 68 73 75 83 76 60 52 48 56 52 43 42 47 55 57 61 67 69 69 68 67 69 69 71 71 69 68 64 55 50 49 49 45 47 60 62 57 65 68 79 89 82 71 67 63 37 39 61 62 68 74 83 89 72 58 60 60 51 37 28 30 63 58 43 66 60 57 57 53 51 51 53 53 52 51 53 37 32 32 26 23 25 33 48 52 60 65 88 88 78 68 61 58 35 40 65 59 61 70 82 90 79 71 70 66 82 74 67 72 84 80 67 58 57 54 58 54 48 46 51 51 46 55 52 46 61 64 54 53 57 74 61 62 67 82 98 87 74 61 57 55 34 39 64 62 60 65 74 85 79 78 77 77 85 89 72 75 82 87 104 99 95 95 86 62 52 74 50 86 65 77 87 87 85 80 76 74 81 96 73 69 80 95 85 81 68 60 57 56 36 64 64 64 59 63 72 82 82 79 82 89 89 90 88 85 80 95 107 119 121 111 106 100 95 99 91 98 96 106 115 103 91 87 85 91 97 89 80 75 81 85 75 74 67 57 55 57 38 137 73 63 64 62 66 77 80 82 80 93 89 88 86 86 82 86 98 119 138 125 114 109 109 106 112 109 124 126 112 101 93 93 99 101 96 92 88 77 83 75 72 73 63 56 54 58 37 156 137 63 64 60 64 72 77 76 73 86 92 87 87 84 87 84 90 105 115 114 104 102 113 114 117 112 115 110 106 99 94 95 103 95 93 92 82 81 82 74 74 64 59 54 55 59 37 156 227 73 62 59 62 67 76 75 74 78 91 87 86 89 88 95 98 104 110 99 97 93 95 89 90 90 98 102 102 102 104 99 96 93 89 87 87 84 79 73 75 64 58 53 57 58 37 156 252 145 62 63 61 64 68 72 83 73 85 88 82 89 85 92 98 99 108 106 102 102 100 93 96 96 101 109 112 106 101 95 90 91 90 87 92 85 76 76 68 58 54 54 59 58 35 156 253 232 75 62 58 63 64 68 76 77 78 82 84 80 88 92 91 94 93 98 97 94 95 97 96 98 103 96 99 94 94 92 86 87 86 87 90 80 78 76 64 55 52 58 61 56 35 156 253 253 160 60 60 57 63 70 77 79 79 77 80 78 78 83 84 85 85 85 82 83 81 87 70 73 82 88 90 93 84 83 79 79 82 83 80 76 81 74 59 55 57 59 57 57 38 156 253 253 242 87 61 59 62 70 74 78 80 73 78 79 76 74 76 79 90 133 114 93 107 105 71 77 81 82 83 78 79 80 80 82 81 75 72 81 81 67 58 55 58 57 56 58 39 156 253 253 253 184 58 58 57 65 69 72 82 78 74 78 79 78 74 70 72 122 141 104 128 74 71 72 70 72 72 75 78 81 83 82 80 74 78 78 78 64 55 58 59 56 55 61 39 156 253 253 253 229 67 59 58 60 71 75 84 80 78 80 81 79 77 76 72 100 132 101 129 70 78 79 74 79 81 84 86 87 90 84 78 77 83 89 69 58 56 57 57 53 58 62 39 156 253 253 254 239 80 54 57 57 65 74 80 80 80 87 87 88 91 86 84 84 107 129 122 77 82 88 92 93 93 92 94 94 89 81 82 82 81 74 61 54 56 55 53 51 60 61 39 156 253 253 254 246 97 60 52 54 59 70 76 80 81 84 85 87 97 100 100 94 100 134 106 82 93 97 99 102 100 100 101 90 87 82 78 77 71 62 56 57 55 53 50 55 59 60 44 157 253 253 253 199 84 70 54 49 55 64 70 79 83 86 86 91 97 105 116 115 105 110 110 100 99 106 108 114 109 106 99 90 84 78 79 73 69 60 55 54 52 49 52 57 57 61 45 156 253 254 230 99 73 77 64 50 49 56 62 72 78 83 88 93 97 114 125 136 127 135 115 117 109 103 113 111 112 102 93 85 81 79 79 76 64 58 53 51 50 52 56 57 55 68 44 97 157 156 99 47 43 47 44 34 30 32 38 42 45 47 52 56 56 68 77 85 89 77 79 76 78 62 67 63 59 57 55 48 49 46 46 42 37 33 32 31 33 35 35 33 35 43 28 