P2
48
60
255
18 33 33 36 30 30 35 45 47 58 58 42 35 47 57 55 59 57 49 52 53 47 44 51 59 56 59 52 61 66 68 70 82 78 90 96 94 89 95 75 78 60 48 53 51 59 76 48 29 52 54 60 45 52 59 73 81 90 90 59 59 76 86 87 93 86 75 80 76 69 68 80 99 92 95 87 94 104 110 108 129 133 138 148 155 144 152 123 131 111 83 88 89 96 118 75 30 47 51 55 53 56 55 73 90 88 73 52 62 77 81 81 91 75 67 67 69 63 69 80 91 95 106 88 95 97 107 101 113 131 130 151 142 141 155 134 118 119 99 85 88 98 104 73 29 43 45 48 60 68 65 81 86 74 65 47 63 79 85 74 90 70 65 59 64 60 68 75 88 102 120 95 90 93 97 100 100 121 116 156 135 126 152 138 121 122 96 96 81 90 105 71 27 44 42 39 52 62 71 83 78 69 63 59 61 82 79 80 91 68 63 56 58 56 65 76 85 98 125 104 83 95 95 100 89 101 101 133 141 121 141 146 122 134 107 104 85 82 108 68 28 42 39 33 44 53 65 73 71 70 59 62 61 83 76 79 102 68 51 46 54 52 59 83 75 89 117 117 84 82 90 93 83 88 91 100 133 113 132 140 120 125 129 104 94 84 98 69 28 39 33 32 45 48 60 62 59 57 68 71 70 76 65 77 102 66 44 42 52 47 53 79 78 79 103 119 95 68 80 83 86 77 78 75 106 109 114 131 134 110 131 112 108 87 84 61 27 40 32 32 40 43 55 54 53 61 75 84 74 57 51 56 68 53 39 42 46 43 57 84 78 85 93 111 109 77 58 76 86 78 84 77 77 101 116 110 113 104 99 122 106 91 87 53 30 36 31 33 36 43 54 52 47 52 57 61 58 44 43 45 48 44 43 43 36 43 68 79 70 90 101 107 110 98 78 62 76 80 79 90 75 82 87 89 83 82 104 116 103 99 82 51 34 40 34 39 45 54 52 49 46 40 37 35 38 47 48 48 50 39 35 41 36 39 55 67 63 74 96 95 85 81 61 62 67 63 60 58 46 43 48 56 66 79 92 101 91 82 94 48 29 50 44 41 43 47 51 46 37 33 28 24 24 28 35 46 51 41 37 36 33 37 45 49 48 59 74 72 56 52 54 54 41 33 34 35 30 38 55 72 79 87 98 100 107 99 96 58 36 57 56 57 61 54 54 59 54 41 33 27 23 22 21 26 33 43 46 45 48 55 61 55 49 62 64 61 49 45 43 32 28 24 25 26 33 48 53 65 81 91 101 104 105 104 91 61 39 60 61 63 61 59 57 54 54 50 42 35 32 29 26 24 26 31 38 52 61 66 68 66 59 66 67 67 50 37 33 31 30 29 29 31 44 55 57 67 80 87 92 98 103 110 104 52 41 60 58 59 57 54 48 40 37 36 33 31 29 26 27 28 26 27 32 50 61 68 71 70 68 71 70 60 44 36 35 33 32 29 28 34 46 50 53 55 61 71 80 88 95 102 110 56 42 64 57 53 42 28 23 27 22 17 14 14 19 28 31 27 28 32 36 51 64 72 77 77 74 70 65 56 41 36 34 27 20 22 29 32 35 34 37 31 28 36 51 72 84 96 112 73 44 67 59 47 29 27 27 28 35 21 15 12 20 27 30 40 41 40 48 57 66 77 95 103 104 96 77 59 56 48 31 27 30 32 23 17 11 17 24 37 47 54 43 43 73 97 114 77 47 73 65 56 50 39 37 45 51 35 32 32 36 42 43 29 42 54 61 68 70 86 115 135 143 138 119 104 100 83 56 57 32 43 46 49 35 40 47 74 54 47 60 76 85 104 121 80 50 82 76 73 72 60 47 47 52 62 68 62 66 62 56 48 45 61 79 74 77 92 125 152 165 162 138 126 128 129 97 52 63 72 88 91 83 90 92 83 68 71 98 109 114 125 135 86 53 86 83 85 83 80 75 64 59 51 56 60 61 58 53 56 68 78 87 79 82 98 133 160 176 171 146 138 147 150 120 114 96 88 83 78 78 80 88 90 100 113 130 138 142 150 153 94 54 91 90 91 89 88 87 84 82 75 76 75 73 72 69 70 75 84 91 85 86 105 139 159 175 171 148 147 151 154 133 118 106 93 92 93 93 102 107 113 130 141 152 157 161 164 164 99 55 93 96 95 95 92 90 88 87 88 87 85 88 85 87 90 89 92 91 89 89 109 141 161 174 168 149 152 154 156 147 127 116 111 107 99 99 106 118 130 145 158 164 174 177 176 169 102 55 93 97 99 101 100 99 98 96 97 102 106 109 105 108 119 115 102 96 91 91 113 145 159 173 168 148 154 158 161 158 157 139 128 130 132 134 138 148 155 164 170 173 177 179 174 165 99 55 95 98 103 107 109 112 113 112 113 116 118 123 129 133 132 118 107 102 92 97 122 151 162 168 166 152 151 159 162 157 167 168 155 149 152 151 153 157 165 171 178 180 178 174 165 157 95 54 94 100 106 117 126 132 138 138 138 133 138 142 143 137 125 112 107 99 92 102 128 149 162 168 170 152 148 154 160 158 164 170 172 166 162 157 161 165 168 175 182 183 174 168 162 154 92 51 90 101 114 123 135 143 146 146 148 142 148 144 141 130 117 105 106 94 93 110 135 151 160 169 164 149 145 151 158 161 164 165 172 176 173 165 167 170 173 173 179 176 168 159 156 149 91 48 85 96 110 122 132 139 150 148 150 151 147 143 131 126 115 98 97 88 93 112 135 151 159 162 155 142 145 151 156 159 163 168 173 175 173 173 174 173 171 169 171 162 159 157 152 144 86 47 82 92 104 117 125 136 145 145 149 152 147 141 127 123 107 90 84 80 88 111 134 150 158 160 155 141 141 146 150 151 160 166 174 176 177 174 173 174 174 169 157 154 153 151 145 137 80 46 79 87 98 105 119 129 139 147 150 146 143 131 126 121 100 79 75 76 85 107 135 152 159 165 157 136 130 134 134 137 149 158 166 170 169 172 172 170 168 167 161 152 140 143 135 130 75 42 72 79 90 101 115 125 133 141 143 140 134 126 122 111 85 71 75 78 86 110 134 151 158 165 157 134 133 132 129 121 129 145 150 161 166 170 169 162 161 165 161 150 139 141 130 124 72 38 64 75 81 94 108 120 130 134 134 132 131 126 119 92 67 71 82 81 86 106 131 147 152 162 154 136 137 138 137 125 104 126 140 151 156 159 165 163 160 159 153 143 136 130 124 115 69 37 64 71 76 82 97 109 114 121 128 126 129 128 104 75 62 82 88 82 84 97 120 146 152 152 138 133 143 144 135 130 99 115 132 143 150 151 154 157 150 146 144 135 128 124 119 110 65 35 61 66 69 74 86 100 105 109 121 125 124 118 89 70 64 72 72 73 69 77 96 117 130 129 118 108 114 109 108 113 97 101 122 138 147 146 153 150 144 142 138 128 124 117 110 103 63 34 59 65 67 74 81 91 97 106 112 120 118 101 77 68 64 52 37 35 51 57 65 79 97 92 84 82 56 34 48 77 90 89 115 130 137 142 144 147 143 142 131 121 119 113 106 103 63 32 56 62 67 70 75 85 95 105 107 114 111 88 76 71 73 58 29 21 19 28 40 47 51 51 45 30 22 23 35 73 96 87 115 125 132 137 142 142 139 138 131 122 117 109 103 99 63 34 56 62 67 68 69 77 90 96 103 106 95 79 77 77 83 77 45 36 35 26 21 24 26 26 37 55 60 48 67 110 113 102 115 123 128 131 135 136 138 133 129 121 114 107 103 100 63 33 57 61 66 69 70 73 82 88 95 93 80 79 79 85 91 88 83 76 77 73 57 32 29 49 90 107 111 106 118 123 130 132 131 126 126 128 132 133 128 123 114 116 109 105 103 100 63 29 54 59 63 66 69 70 76 84 86 81 79 79 83 89 91 89 87 87 88 87 89 92 93 74 100 114 118 128 138 146 154 148 141 132 125 125 126 127 126 118 112 110 104 100 101 102 67 22 54 57 62 63 65 67 71 76 75 75 79 82 85 90 92 91 90 91 91 91 111 133 124 106 124 136 135 147 156 157 156 150 143 136 130 127 124 123 121 114 112 106 102 101 102 104 66 16 53 55 60 63 65 66 68 70 70 74 77 81 84 88 90 91 90 92 92 105 129 139 130 113 130 144 143 146 149 146 145 147 141 134 129 123 121 118 113 108 107 103 100 101 102 106 64 14 49 56 58 60 63 66 68 69 71 72 74 80 82 85 85 84 87 95 101 111 129 149 142 125 136 147 145 137 134 134 137 141 144 136 128 121 114 113 110 105 100 101 100 102 106 107 55 22 44 56 56 59 62 65 66 68 70 69 59 69 77 77 77 80 88 94 82 80 86 103 126 119 100 100 110 125 129 126 123 125 134 136 126 119 114 111 104 99 98 95 99 104 107 104 31 16 33 56 58 58 60 63 65 65 67 70 65 66 67 62 64 66 61 53 49 48 46 48 61 64 56 60 67 74 83 91 90 93 108 122 126 118 115 107 100 97 96 96 100 106 107 85 16 11 21 52 59 59 59 63 65 67 69 70 66 58 47 36 32 33 36 40 42 41 36 40 48 49 41 45 51 56 53 51 44 43 60 83 106 115 113 107 102 100 100 99 104 106 105 49 12 13 21 39 59 60 59 61 65 68 69 66 57 42 35 53 62 61 63 68 81 97 91 80 80 88 100 112 117 114 111 109 108 108 79 61 76 95 102 106 105 102 100 104 107 105 95 29 18 12 24 32 57 61 61 61 65 68 67 62 53 51 71 80 76 70 66 65 71 94 103 106 113 110 111 109 103 105 115 121 130 139 137 114 89 85 97 104 102 101 102 104 107 104 154 128 32 16 37 85 64 61 64 64 65 67 66 64 63 70 78 79 80 81 77 76 76 84 96 103 108 106 107 108 109 116 120 123 133 134 131 130 116 100 96 99 100 100 103 103 103 106 170 189 117 31 108 114 69 57 63 65 65 66 66 65 69 73 76 78 76 76 76 73 71 68 70 68 69 70 77 81 88 101 115 120 123 126 128 125 119 111 100 96 99 99 100 100 101 123 192 163 110 72 133 106 71 62 60 64 65 65 66 66 70 75 76 76 74 72 70 66 64 59 51 46 46 43 44 56 74 90 101 111 115 120 122 122 119 115 106 100 98 99 97 98 105 142 215 156 119 86 138 102 73 74 57 60 63 64 65 67 70 73 74 74 73 71 70 65 62 57 53 50 49 51 58 65 75 87 99 109 115 115 116 116 117 115 106 103 99 97 96 96 121 155 189 181 117 89 139 113 75 78 68 57 59 61 65 67 69 71 74 75 77 74 73 74 78 77 78 84 92 96 95 90 89 96 103 110 115 117 114 112 114 109 105 100 96 92 93 111 130 151 160 156 107 91 142 123 79 82 79 61 56 58 62 65 68 69 71 77 81 85 91 96 110 119 126 133 138 143 142 140 135 127 119 118 120 121 116 112 108 101 99 93 91 89 102 125 132 121 115 133 118 91 145 128 90 86 79 70 57 55 58 60 64 67 68 71 80 93 103 109 120 121 129 136 135 142 147 149 146 144 137 132 125 121 117 110 100 94 87 86 84 95 121 129 135 110 99 170 136 91 146 130 117 88 84 73 71 53 53 55 60 63 65 68 77 88 98 111 116 121 124 123 132 138 142 144 143 143 141 134 127 117 111 100 92 87 82 79 93 118 125 134 135 98 112 203 142 89 148 137 125 99 89 84 79 59 47 50 53 57 61 64 70 78 87 101 107 114 115 111 120 133 136 136 132 131 128 123 115 107 96 89 83 79 77 97 117 121 130 136 135 80 160 220 141 87 146 143 125 118 92 90 83 75 43 41 48 51 56 59 64 71 77 83 90 99 105 105 113 118 120 122 126 118 113 110 102 93 84 77 73 82 107 119 121 127 134 138 126 110 203 227 137 85 145 145 131 119 114 93 89 81 64 34 34 45 50 54 59 64 66 68 71 77 84 90 94 101 106 106 105 100 96 93 86 80 74 70 88 110 117 122 127 133 136 135 109 173 219 225 131 81 140 147 140 119 115 108 92 87 77 51 32 31 40 49 52 55 58 60 59 60 63 66 69 75 80 83 81 79 75 71 70 70 61 78 110 116 120 128 133 134 135 117 141 202 222 213 125 80 135 144 145 131 114 112 108 89 84 70 42 32 31 35 45 50 49 49 50 47 46 45 45 48 49 52 54 55 53 57 58 53 71 107 115 119 128 132 134 134 123 117 187 214 214 200 136 78 130 136 144 143 124 114 110 108 89 81 61 39 33 31 32 36 44 48 45 43 42 41 39 38 40 43 48 54 55 54 53 67 103 113 119 128 132 134 133 129 115 174 209 212 197 213 144 47 78 82 86 89 85 77 71 69 67 52 47 31 23 21 19 18 19 22 25 29 31 33 34 34 35 34 32 31 32 32 37 60 70 73 77 80 82 83 82 74 100 124 130 122 121 143 87 