P2
48
60
255
31 54 56 60 62 66 68 69 71 73 74 73 74 74 72 71 71 71 71 70 71 70 69 69 69 69 69 68 67 65 66 63 61 60 59 55 53 50 46 43 43 41 40 41 43 42 41 25 49 87 91 97 104 108 112 113 114 119 119 119 119 119 117 116 115 116 117 114 117 116 116 113 114 115 113 112 111 110 109 107 103 100 98 94 90 87 83 74 71 74 73 72 73 73 69 41 52 88 93 100 106 109 112 115 115 118 120 120 120 119 118 119 117 117 117 116 118 118 116 115 115 116 116 113 115 114 114 111 107 102 98 94 93 90 88 85 83 83 82 80 80 78 73 43 53 91 94 102 106 110 112 115 117 118 120 120 121 120 120 120 119 116 115 116 117 117 117 117 117 118 117 116 115 115 114 110 108 102 99 95 94 92 91 90 89 88 86 85 84 80 76 45 54 93 98 103 107 110 113 115 118 119 121 121 122 120 120 122 120 117 116 115 116 113 115 114 116 118 117 115 113 110 108 109 106 100 96 95 94 94 93 92 91 90 89 86 84 82 80 49 58 96 99 103 108 110 114 116 117 117 119 120 119 119 121 121 119 115 116 113 113 111 112 113 114 116 112 111 111 107 105 104 102 98 95 93 92 93 94 95 94 91 89 86 84 83 83 51 59 97 99 104 106 107 109 114 114 114 115 115 115 115 115 115 115 112 111 109 109 110 112 111 110 113 109 106 105 102 99 99 98 94 92 91 90 91 92 92 91 91 88 87 84 83 84 53 60 97 99 102 101 97 99 104 109 109 106 105 106 106 107 108 107 107 106 99 102 105 107 107 107 108 103 103 99 95 94 92 89 87 84 82 81 85 83 82 83 82 80 84 85 84 85 52 60 94 98 96 86 86 84 85 88 90 88 90 92 92 95 96 98 99 99 97 98 102 103 100 101 101 99 94 90 87 83 80 73 69 67 67 65 67 67 68 69 67 67 72 81 85 86 54 59 94 92 82 78 76 75 73 67 63 62 64 65 68 77 82 87 89 90 92 97 98 98 96 95 95 89 84 79 74 70 62 59 57 55 54 54 56 58 60 61 61 62 63 67 79 84 53 59 91 75 72 76 79 76 73 66 60 60 56 55 56 59 68 74 74 80 87 94 97 95 93 90 87 80 74 69 64 62 57 56 55 55 55 55 55 56 59 60 62 64 63 63 68 80 53 59 86 74 83 81 81 78 78 77 74 69 66 65 63 62 65 68 68 76 84 91 94 93 91 84 79 72 65 62 60 58 58 59 59 60 62 63 63 62 62 65 66 66 67 65 66 75 52 55 74 77 84 85 85 86 84 82 80 78 74 72 71 71 72 72 74 77 84 89 94 98 95 87 77 67 61 58 58 59 60 62 62 64 67 69 68 67 66 67 67 69 69 68 69 74 50 54 83 82 84 84 85 81 78 75 77 76 66 60 58 61 70 77 81 82 86 92 97 104 98 90 82 68 60 58 59 60 58 58 62 62 60 58 59 60 61 63 65 67 68 69 70 73 50 56 90 89 88 85 80 70 79 81 64 57 50 48 51 56 60 69 83 90 92 97 104 109 105 97 86 72 62 58 58 57 57 62 64 57 50 54 53 55 57 58 61 65 67 68 70 75 51 58 93 92 89 84 68 76 65 64 63 73 54 44 53 64 63 68 82 94 100 104 110 116 115 109 92 78 67 61 58 60 57 75 77 84 49 48 56 58 56 57 59 61 65 69 71 76 52 60 96 96 92 81 74 65 68 87 73 55 45 46 59 72 68 76 88 100 106 108 114 123 120 115 100 85 75 67 68 58 65 89 87 59 47 51 59 67 62 56 59 60 65 70 74 77 52 62 101 98 92 86 81 77 82 93 94 65 59 62 73 81 78 86 92 106 110 109 112 123 121 119 107 89 81 75 77 79 83 87 93 77 67 65 68 76 70 65 64 66 69 74 78 82 53 63 104 104 100 94 94 86 84 88 93 91 89 84 85 87 93 103 105 110 114 109 113 124 122 118 110 90 83 85 85 88 92 92 93 91 88 86 83 79 76 74 77 78 77 80 83 86 53 63 106 108 106 105 105 103 104 108 109 103 98 93 95 99 104 108 111 116 116 109 115 124 119 117 108 90 82 87 90 93 94 93 92 92 91 92 94 94 92 87 87 89 89 88 89 88 55 65 108 110 110 110 108 108 109 109 108 105 104 104 107 109 112 116 116 118 117 110 113 117 114 112 104 90 85 87 91 96 100 99 97 91 87 87 88 88 89 88 90 92 92 92 92 91 55 66 109 110 112 114 113 113 114 113 113 114 114 115 115 115 118 119 118 120 114 112 111 113 113 110 101 90 85 85 90 94 100 105 105 103 100 95 94 93 94 94 94 94 94 93 91 92 56 66 109 110 115 117 116 119 119 120 122 121 118 118 117 121 121 122 119 120 113 111 111 112 114 110 101 90 85 84 90 93 97 104 105 107 107 108 109 110 106 101 100 97 96 93 91 91 56 67 108 110 117 120 121 121 121 122 120 120 119 118 121 123 122 118 119 116 112 110 110 111 114 110 102 90 86 85 88 92 96 102 105 106 106 107 109 111 110 107 103 100 97 93 92 91 56 67 109 112 118 119 121 122 119 121 119 117 118 122 122 124 123 119 118 115 109 109 110 112 112 110 102 92 87 83 85 91 96 101 105 105 105 108 108 110 108 107 104 101 97 94 92 91 57 66 109 112 117 119 123 123 119 122 119 119 121 119 124 124 120 119 116 110 105 106 111 114 115 114 108 96 89 84 81 87 94 100 104 105 106 107 106 108 106 106 104 100 97 94 92 91 57 66 109 112 115 118 121 122 121 121 119 119 122 122 122 122 119 118 111 103 102 105 113 122 118 117 114 97 89 84 79 80 89 96 100 105 106 106 107 105 103 102 101 99 96 92 91 90 56 64 108 111 114 114 116 118 122 122 121 123 123 122 122 122 116 112 105 101 103 105 117 121 119 116 109 97 89 84 83 76 83 91 97 101 103 106 106 104 104 100 97 95 93 91 91 92 57 64 107 110 113 113 116 118 120 120 122 121 121 121 120 117 113 108 103 104 106 103 109 114 114 110 100 93 82 82 84 82 77 85 94 98 101 102 104 105 103 100 97 95 93 92 91 92 57 65 107 109 111 114 117 119 121 122 122 121 121 119 117 113 108 103 103 107 108 102 101 104 102 101 92 80 74 81 86 86 77 81 89 94 99 101 102 104 102 98 96 94 92 92 91 92 57 64 107 107 109 111 114 116 120 120 120 120 117 115 113 112 109 104 101 107 104 92 93 96 92 92 83 73 68 79 85 85 79 79 84 91 96 99 101 102 101 97 95 94 92 93 92 92 58 65 107 109 109 111 112 114 117 119 119 117 115 113 113 113 110 101 100 102 91 60 63 89 86 83 75 61 51 65 77 80 80 80 83 89 94 97 98 100 99 96 94 93 92 92 92 92 58 64 105 108 109 111 113 113 115 117 118 115 113 114 113 110 107 99 98 94 72 54 60 79 79 76 66 54 51 55 69 74 84 82 83 87 93 96 96 99 97 94 93 91 91 92 91 92 58 63 105 107 108 111 111 112 116 117 116 115 113 115 113 109 107 104 100 92 72 64 78 84 81 70 63 59 57 59 66 77 89 87 86 89 94 95 96 97 95 94 93 90 91 91 92 93 59 65 106 107 108 110 110 111 114 114 117 117 118 115 112 111 109 108 105 103 93 84 91 93 85 73 73 65 55 56 61 83 90 91 91 93 96 96 96 96 94 92 92 90 90 91 92 94 59 65 105 106 108 109 110 111 112 113 115 117 117 113 112 112 109 108 108 105 103 102 102 98 86 83 85 74 63 64 73 88 93 93 95 95 97 97 97 95 93 91 90 89 91 91 93 94 59 65 104 107 106 107 109 111 112 112 114 117 115 112 112 112 110 107 106 104 107 105 105 95 85 93 98 90 82 82 87 92 94 94 96 98 97 97 96 94 93 91 89 89 90 91 93 96 61 65 106 106 105 106 108 108 112 111 113 115 113 113 111 111 110 108 108 108 110 109 106 96 94 104 111 104 96 95 96 94 94 94 96 97 97 96 95 93 91 90 89 88 90 91 93 96 62 65 105 106 105 106 107 109 110 113 110 113 115 114 110 107 108 108 111 111 112 114 110 104 104 112 114 106 102 99 95 92 93 92 93 97 97 95 92 92 91 90 90 89 90 92 94 96 62 65 106 105 106 105 107 107 108 109 112 112 114 111 107 109 108 110 113 115 114 111 108 107 108 109 103 98 96 96 93 90 88 89 93 95 95 94 91 90 90 90 90 89 90 93 95 99 64 65 105 102 103 105 107 107 107 108 109 111 111 105 105 105 108 109 113 111 103 95 91 90 92 85 82 84 85 86 89 87 86 86 91 95 93 93 90 88 89 89 89 90 91 93 95 101 67 66 105 105 103 105 107 108 107 107 107 109 108 104 101 101 103 104 103 95 87 84 79 78 81 74 74 76 75 75 76 79 82 79 84 88 90 91 88 88 89 90 90 90 92 94 97 103 72 66 106 107 103 104 107 107 106 106 106 108 105 98 92 89 93 91 83 75 74 68 67 72 72 70 67 64 65 66 65 67 71 69 73 81 91 92 88 87 88 90 90 91 92 94 99 106 109 77 107 107 104 102 106 107 106 105 104 106 102 89 73 70 74 73 70 78 86 92 95 92 86 89 94 94 93 84 74 66 59 57 61 75 90 92 88 88 89 90 90 90 92 95 99 117 145 118 108 105 104 103 105 105 106 104 103 103 95 82 69 77 89 94 98 102 108 108 109 106 107 110 108 105 96 85 81 79 78 80 75 81 92 89 87 89 89 89 89 89 92 95 100 131 154 149 123 104 103 101 103 105 105 105 105 102 93 89 95 105 110 110 108 106 106 105 101 98 102 101 97 95 89 82 79 80 85 90 91 94 92 90 88 87 88 88 88 89 92 95 101 140 154 156 139 105 103 102 102 102 104 105 104 101 98 101 109 111 112 113 110 107 104 101 98 95 95 92 90 87 83 78 78 82 85 88 93 95 93 89 88 87 87 87 89 90 91 94 104 141 155 154 134 104 100 102 101 100 103 102 104 102 100 106 110 111 110 109 106 105 99 91 83 77 77 75 77 76 75 77 80 82 85 88 92 94 94 89 87 86 86 87 86 88 91 94 105 143 156 153 130 106 101 101 101 101 103 102 101 101 102 105 108 110 108 105 101 97 93 89 82 77 77 78 82 79 79 79 80 82 83 86 90 91 89 84 85 85 84 85 84 88 89 94 105 146 156 152 128 108 100 100 101 98 100 101 102 101 100 100 105 106 105 104 103 100 97 91 85 81 79 83 83 82 81 81 83 83 84 86 89 86 83 82 82 83 83 83 82 86 87 94 105 146 156 153 129 108 99 95 96 99 99 101 101 99 97 98 102 102 103 103 102 101 99 95 90 86 84 86 86 85 84 83 83 83 84 85 85 82 79 76 78 80 80 80 81 83 87 95 106 146 156 152 128 109 101 94 94 98 99 100 100 97 94 94 98 101 100 102 101 99 98 98 96 94 95 96 92 88 85 82 82 82 82 83 81 78 77 75 76 78 77 78 80 83 89 97 106 141 155 152 127 112 106 95 92 97 97 100 100 94 92 95 96 102 102 101 101 102 101 103 104 105 103 104 98 91 89 86 81 83 84 83 81 78 76 76 77 77 77 78 79 82 90 98 106 137 155 151 127 110 109 101 92 93 94 97 97 95 90 91 91 102 105 105 106 107 109 111 108 102 101 103 102 98 95 94 89 88 87 86 82 77 76 75 75 76 76 78 79 84 92 98 106 135 154 151 127 111 111 107 96 89 92 93 95 93 89 88 90 97 102 106 107 109 110 109 106 100 99 101 101 98 96 95 93 90 89 86 83 77 74 73 73 76 77 77 79 86 92 98 105 129 151 151 126 112 110 110 103 93 89 93 92 94 90 89 87 92 100 102 107 106 109 107 107 99 96 98 98 96 93 91 90 88 86 81 79 74 71 70 73 76 76 76 80 87 92 98 105 124 148 150 125 112 110 109 106 99 90 86 90 90 87 84 86 90 94 98 101 105 106 106 102 92 89 93 95 93 92 88 86 81 81 80 73 69 69 71 72 71 74 76 81 87 93 98 106 119 140 149 123 113 108 108 107 103 95 88 84 84 88 84 83 84 89 93 94 98 102 97 92 86 84 89 94 93 89 85 81 79 76 73 70 68 69 71 71 72 73 77 82 88 93 98 105 116 129 143 121 113 107 107 107 106 96 92 88 81 82 83 84 83 84 87 91 92 94 91 88 83 86 92 92 86 82 77 75 73 70 67 66 67 68 68 70 71 72 78 82 88 93 99 103 113 110 85 74 69 66 65 66 66 60 56 57 54 49 52 53 53 52 53 51 54 54 53 52 50 52 55 53 50 46 44 44 43 42 41 41 41 43 41 43 43 45 48 52 55 58 61 63 69 56 