P2
48
60
255
31 54 58 61 63 65 67 69 70 71 71 72 73 72 73 74 73 72 72 71 71 70 70 70 70 69 69 69 66 68 67 67 66 65 63 63 63 60 61 61 57 56 55 53 52 52 48 28 53 91 95 100 102 107 109 112 114 117 117 118 120 119 120 120 118 117 116 114 114 114 114 115 112 113 112 111 112 110 109 110 108 106 105 104 104 102 101 97 94 91 90 88 85 83 80 47 55 94 99 102 105 108 111 114 115 117 118 120 121 121 121 121 120 118 116 115 115 114 114 114 114 114 113 113 113 111 111 111 110 108 108 107 107 105 102 99 95 93 91 89 86 84 82 49 58 96 100 104 106 109 111 114 116 118 119 121 122 121 120 121 120 118 116 115 115 115 114 114 113 112 113 113 113 111 110 110 110 108 110 109 107 106 103 101 97 94 92 90 87 84 83 51 58 97 101 105 107 109 111 115 117 119 120 122 122 121 121 121 118 118 117 115 114 114 113 112 113 112 113 113 113 111 111 112 110 109 110 111 110 107 103 102 98 95 93 92 88 86 83 50 59 98 102 105 106 110 112 114 117 121 120 120 120 121 120 118 111 116 115 114 112 113 112 111 111 111 111 111 111 109 108 109 107 108 110 109 108 106 104 100 98 96 94 91 89 85 83 50 58 98 102 103 107 111 112 113 115 117 116 116 116 117 114 112 111 111 110 110 109 109 110 107 107 107 108 106 106 103 102 102 100 101 104 103 101 99 99 98 97 94 93 91 89 86 83 50 58 96 101 103 106 105 104 109 108 106 108 105 100 98 95 98 101 102 105 105 106 105 104 102 103 102 102 101 100 94 92 86 81 81 80 80 78 77 77 83 84 83 86 88 86 85 82 51 58 96 99 100 96 88 86 86 83 78 75 69 68 70 72 71 84 88 94 98 101 101 99 97 97 97 96 95 90 81 76 70 64 58 54 53 53 56 58 61 65 69 75 81 84 84 84 51 59 94 87 83 75 72 72 69 64 60 60 58 56 57 63 67 69 75 83 88 94 95 95 93 91 92 91 88 80 74 67 63 58 53 52 50 49 52 53 54 57 59 61 63 67 71 79 51 55 80 71 68 68 68 64 59 56 56 55 53 55 56 60 67 70 70 76 80 86 87 88 87 87 85 84 81 73 69 66 62 58 56 54 56 58 59 58 59 58 58 57 58 59 61 70 46 51 75 72 71 69 72 73 73 71 69 68 66 63 62 65 67 71 73 73 77 80 83 84 83 80 79 77 75 70 67 65 63 60 61 62 67 71 73 75 74 71 68 65 64 65 63 65 42 50 75 79 81 80 86 88 88 85 82 76 71 67 66 66 68 71 72 74 76 78 81 82 83 80 75 71 68 65 62 61 60 60 60 62 65 68 71 73 75 76 75 74 72 71 68 68 42 54 88 89 88 89 89 85 79 69 66 67 62 56 53 54 60 66 69 72 77 81 85 90 91 86 79 70 64 60 60 61 60 56 62 72 74 76 67 69 64 59 64 69 73 73 71 73 47 58 96 95 90 87 79 66 68 69 61 57 51 48 48 51 52 56 67 71 78 85 96 107 108 99 89 74 65 62 61 60 57 66 66 61 59 50 46 50 55 59 56 55 62 69 72 75 48 60 96 93 89 76 61 66 63 52 51 54 51 39 43 54 54 54 60 72 80 93 106 117 114 107 92 78 70 65 65 60 64 61 73 82 66 46 43 49 52 52 52 53 53 60 66 71 46 61 94 87 78 67 60 52 54 64 69 48 42 41 51 67 61 53 59 79 89 99 109 115 113 107 95 82 74 72 74 63 60 70 86 91 59 49 51 58 67 64 59 57 58 60 64 71 48 61 94 85 79 78 78 78 76 73 75 77 72 73 74 76 76 74 80 88 100 103 108 113 111 106 94 84 81 81 83 86 87 89 93 90 85 84 79 77 73 71 70 70 75 79 83 87 57 64 102 101 98 94 90 88 93 94 96 93 89 86 81 78 77 76 81 94 105 103 109 113 111 107 96 85 82 85 84 81 82 85 88 91 89 87 84 82 79 77 73 76 83 90 96 98 61 64 105 105 104 100 94 89 88 91 91 89 87 81 77 73 73 81 95 106 106 102 109 112 110 105 94 86 83 87 91 88 86 82 79 79 82 82 79 77 75 75 77 85 94 100 102 101 61 65 107 109 107 104 102 95 87 83 81 77 75 72 73 80 92 104 112 110 103 104 108 111 109 102 92 85 83 85 93 99 98 96 92 85 81 78 77 78 81 87 93 100 104 105 104 102 61 66 108 111 111 110 110 108 105 101 99 97 97 98 101 107 113 114 111 108 106 105 106 107 108 98 90 85 83 85 90 101 105 107 106 106 103 102 102 104 106 108 109 110 108 108 106 102 61 66 108 112 114 116 114 113 111 111 112 111 112 113 115 117 118 115 109 108 106 104 106 109 108 100 90 86 86 87 90 96 104 109 112 113 112 113 114 114 115 114 115 114 113 110 105 101 61 66 108 112 118 118 117 117 116 115 115 115 117 118 118 118 117 111 109 108 104 103 107 110 107 101 92 86 85 87 88 94 102 109 113 114 115 117 119 116 118 116 116 113 113 109 103 100 60 66 108 112 116 119 117 118 117 118 119 119 119 120 118 117 116 112 110 106 102 104 110 111 110 106 96 88 85 84 87 92 99 106 110 113 116 118 120 120 119 118 116 115 112 108 103 99 59 65 107 112 114 119 117 119 118 119 120 119 119 118 117 117 115 113 107 101 102 110 114 115 113 113 107 91 87 85 83 88 96 103 108 112 114 117 119 121 120 120 118 114 112 110 103 99 58 65 106 111 115 116 118 118 117 119 117 117 116 116 116 114 111 107 101 100 105 113 118 113 112 111 103 91 87 85 84 82 91 97 104 108 114 116 117 118 119 118 117 112 111 107 101 99 59 63 107 111 115 116 116 117 116 118 116 117 117 114 113 110 105 100 101 101 101 104 111 107 104 101 90 82 82 83 84 84 84 92 99 105 110 112 113 116 116 114 112 110 107 104 100 95 57 62 105 110 113 115 114 116 116 115 114 113 113 110 109 105 99 101 102 98 94 96 100 97 94 91 82 75 76 80 83 84 81 84 93 100 106 110 112 110 113 110 109 107 104 101 96 92 56 61 102 107 110 112 113 115 116 114 112 110 109 106 102 98 96 100 100 90 82 88 92 87 82 80 74 66 66 74 80 80 80 78 86 95 100 105 109 110 109 107 104 104 100 98 94 91 55 60 100 105 107 108 111 112 112 111 109 108 105 102 98 95 95 95 92 74 48 52 78 76 69 71 58 46 45 64 75 76 76 77 80 89 95 101 105 106 107 105 103 100 97 95 92 89 55 60 99 103 104 105 109 108 105 106 104 103 100 96 94 94 93 90 84 62 48 59 74 73 64 65 52 48 46 57 70 70 70 76 80 83 91 96 100 103 104 102 98 95 93 92 88 88 54 59 97 99 101 104 106 103 102 100 99 98 94 90 90 94 94 87 77 63 69 80 80 71 63 61 57 57 56 57 62 62 70 78 81 82 85 92 95 97 100 97 94 92 91 89 86 86 53 59 96 97 97 100 101 99 98 97 94 91 88 87 91 96 96 94 85 74 76 77 75 70 66 67 67 65 63 60 59 69 78 81 84 84 83 87 91 95 96 94 92 90 87 86 84 85 52 59 97 94 95 98 98 97 96 93 88 85 83 84 93 97 96 96 94 91 87 86 82 76 74 80 80 78 76 73 76 81 83 84 87 87 85 84 87 90 93 94 90 87 86 85 84 83 52 59 95 94 95 97 96 93 91 86 81 78 77 86 95 98 100 99 100 98 96 96 90 85 86 91 92 92 89 87 87 87 87 87 88 87 84 82 84 87 88 89 88 87 85 83 83 83 52 59 95 96 97 96 95 92 88 83 77 75 80 89 97 98 99 100 101 100 100 99 97 92 92 97 102 99 96 94 89 88 88 87 87 87 86 85 84 84 87 87 86 85 84 83 83 84 53 60 96 97 97 96 94 91 87 82 78 81 89 96 98 99 101 101 101 104 104 104 103 97 99 102 105 103 100 96 94 90 88 88 89 87 87 87 87 84 87 87 87 86 84 84 83 85 53 61 97 98 97 95 93 93 87 81 83 89 96 99 99 102 103 105 107 111 111 108 108 106 106 107 111 107 105 100 96 93 89 87 88 86 84 86 87 86 88 89 88 86 84 83 84 86 54 62 98 99 97 96 94 92 85 86 88 90 90 94 98 101 104 107 108 111 110 105 107 107 107 107 106 100 94 93 92 91 89 87 86 82 79 82 89 90 90 88 88 86 84 84 85 86 54 62 99 99 98 97 94 93 88 87 86 83 80 86 94 97 95 95 90 84 80 77 78 82 85 82 76 70 67 68 71 73 76 80 79 78 74 75 80 86 88 88 88 86 85 84 84 86 54 62 100 98 98 97 94 94 92 86 85 77 68 68 81 82 77 70 62 59 61 60 68 71 66 63 63 61 58 59 58 57 60 62 65 65 63 63 73 84 87 90 90 87 85 84 84 86 54 63 101 99 98 97 96 96 95 90 85 82 76 69 69 63 59 53 51 53 66 66 76 80 74 67 70 67 60 68 61 53 51 48 51 55 64 73 82 87 90 93 91 87 85 83 84 86 54 63 101 98 97 96 96 91 95 92 88 91 91 91 92 84 79 78 73 68 66 64 75 81 78 68 69 66 56 61 62 60 63 64 67 78 85 88 88 90 93 93 90 85 83 82 84 86 54 64 100 99 98 96 94 93 93 94 94 97 99 97 97 95 90 90 93 93 91 86 84 81 76 72 74 74 73 79 80 80 79 80 79 84 90 92 90 90 92 92 88 84 82 82 85 87 54 97 100 99 99 96 94 92 92 93 95 99 99 100 99 98 95 92 95 99 101 99 94 95 93 93 94 94 98 92 84 80 80 79 78 85 91 89 88 89 92 90 84 81 81 82 85 87 55 141 108 98 98 96 95 93 93 93 96 100 102 101 102 100 96 92 90 93 95 92 92 93 94 94 96 91 87 84 80 79 75 75 79 88 89 88 87 87 90 85 81 81 81 82 84 87 55 153 122 96 97 96 95 95 95 94 95 98 100 101 103 101 98 94 90 85 83 82 82 83 85 84 83 81 78 75 71 69 70 77 83 87 88 86 85 86 86 82 81 80 81 82 84 87 55 155 129 96 95 95 95 95 94 95 95 97 100 99 101 103 101 99 93 89 81 75 72 71 71 70 69 68 66 65 66 71 75 82 86 86 86 84 82 83 82 80 81 80 81 82 85 87 57 156 132 98 93 94 94 94 94 93 95 96 97 98 102 103 103 102 100 95 88 84 79 77 73 70 69 69 71 73 76 79 82 86 88 88 84 82 81 81 79 79 79 80 81 83 84 88 60 157 140 95 92 93 94 94 93 94 96 96 96 98 102 104 102 104 103 100 96 95 90 86 83 80 80 82 84 83 83 85 87 88 88 87 83 81 81 80 78 78 79 79 80 82 84 91 63 157 139 97 91 91 93 94 94 93 96 96 97 97 101 104 105 105 105 105 105 104 102 99 96 93 94 94 93 91 89 88 88 88 89 86 81 80 80 79 77 77 78 79 80 81 84 93 61 157 141 100 91 88 90 93 94 94 94 96 98 97 101 104 105 106 109 110 111 111 111 109 106 105 103 100 99 95 93 90 89 91 90 84 81 81 79 77 76 77 77 79 80 81 86 91 58 157 148 101 94 89 89 91 93 93 94 95 96 97 98 103 106 108 110 110 112 113 111 108 108 107 106 103 101 99 95 93 92 93 89 83 81 79 79 77 76 77 78 78 79 81 86 89 58 157 143 102 97 90 88 89 91 92 93 94 95 97 96 99 105 108 109 111 111 110 109 108 104 104 103 102 99 98 97 95 93 91 86 82 80 79 77 75 76 77 77 77 79 82 85 90 59 157 141 104 99 94 89 87 90 91 92 92 93 94 94 96 103 107 108 110 110 106 105 103 100 99 101 100 98 96 94 93 91 86 81 79 78 77 76 75 76 76 77 78 80 83 86 91 60 156 142 104 100 97 92 87 88 90 91 90 91 93 92 93 97 102 103 103 103 102 100 99 99 98 96 94 90 89 89 88 84 79 77 76 77 75 75 75 76 76 76 77 80 83 87 92 60 157 143 105 101 99 95 89 87 87 89 89 88 91 91 92 93 95 98 99 96 93 92 92 93 93 91 88 84 84 84 82 78 76 73 75 74 74 73 74 75 75 76 78 80 84 88 93 60 157 139 104 103 100 96 92 87 87 86 87 87 86 89 89 89 90 92 91 90 87 86 85 84 86 85 82 81 80 77 74 73 72 71 72 71 71 72 73 74 74 77 79 82 84 89 95 61 97 83 64 64 62 61 58 55 54 52 53 53 52 52 54 54 53 54 54 54 52 50 49 49 50 49 48 47 46 45 43 42 43 43 43 43 44 44 45 46 46 48 49 51 53 56 59 38 