P2
48
60
255
43 70 68 68 67 65 66 65 67 67 66 66 66 64 66 67 67 67 65 66 65 65 67 67 67 67 68 67 68 69 69 69 67 67 68 69 68 68 66 67 64 62 64 64 64 61 58 32 67 115 114 109 109 108 104 106 104 106 108 107 109 107 108 108 108 109 106 107 105 106 108 107 108 109 109 110 111 111 112 112 109 111 112 111 108 108 108 107 104 102 100 102 101 102 94 51 67 115 114 112 110 108 105 105 104 104 106 106 106 109 109 109 109 109 107 107 107 109 110 108 107 109 109 109 111 112 112 112 111 112 112 110 108 106 108 105 105 101 101 101 100 99 92 50 67 114 115 114 113 109 107 107 108 108 109 110 108 111 110 111 111 109 109 109 108 111 110 109 109 109 109 110 110 112 113 112 112 113 114 113 112 110 108 105 103 102 102 102 100 100 92 51 67 113 116 117 113 110 108 108 104 107 111 108 108 111 111 111 111 111 110 111 110 111 108 109 110 110 107 110 113 112 112 111 112 113 113 112 112 109 109 106 105 103 101 100 99 97 89 49 66 116 119 122 115 110 109 109 107 107 108 108 108 108 110 109 111 110 110 108 109 109 108 108 108 109 110 110 111 111 110 109 111 112 113 112 112 106 109 108 106 103 100 98 97 95 86 47 67 119 122 126 115 113 108 107 106 106 107 106 104 103 104 103 105 107 108 110 110 109 108 110 109 108 108 108 109 106 107 108 109 109 109 110 110 106 106 107 108 103 100 98 97 94 85 45 72 120 126 131 122 113 107 106 105 107 105 105 102 98 98 99 99 101 101 103 105 107 104 106 106 105 105 102 101 101 102 102 103 103 105 108 110 107 106 106 106 104 102 99 98 96 85 45 75 121 129 134 125 112 107 109 106 102 102 102 99 100 97 95 95 95 97 97 100 95 95 100 101 99 99 99 97 96 96 97 100 102 105 105 105 105 109 107 108 106 102 98 96 94 88 44 79 124 132 135 127 118 110 106 103 101 100 101 98 97 97 94 92 90 92 93 93 95 95 96 95 95 94 95 93 92 91 94 95 98 99 98 100 102 106 111 110 107 100 98 95 94 93 49 80 125 139 140 130 113 104 99 98 97 98 97 91 88 85 87 85 84 84 87 87 91 91 92 92 90 89 89 88 86 88 87 89 93 96 99 99 101 102 104 107 108 107 100 94 95 95 53 79 127 141 137 121 102 93 89 85 81 75 72 72 69 68 71 75 74 75 80 83 85 88 89 89 87 84 83 79 78 76 76 73 71 72 74 76 85 91 93 95 100 104 102 96 96 95 57 80 136 139 125 106 98 89 83 78 73 67 61 55 52 52 55 58 63 66 73 79 84 85 86 87 84 82 77 71 67 63 58 52 52 55 60 68 73 76 83 87 88 94 97 95 96 95 57 81 133 128 118 103 89 79 68 60 55 50 43 40 39 43 42 47 53 60 71 77 82 87 90 93 87 83 76 66 57 51 44 44 44 43 46 51 55 62 72 76 80 83 89 92 95 96 59 79 124 114 107 96 83 66 60 62 55 40 42 36 40 46 45 47 47 52 66 77 86 92 94 98 99 89 81 64 52 47 48 45 39 38 47 38 49 57 56 66 76 80 83 90 94 97 61 72 111 103 94 89 73 63 59 57 73 51 42 40 51 64 48 45 55 58 64 79 91 101 103 109 106 96 82 66 62 50 45 59 50 35 34 48 64 52 62 56 69 80 84 88 93 97 60 67 103 98 90 81 71 65 56 64 83 70 54 52 66 86 66 58 55 75 73 80 94 105 109 112 109 97 85 85 62 58 58 77 66 52 51 58 83 61 51 63 63 78 87 89 94 96 60 65 102 99 93 84 76 81 85 86 82 85 81 80 87 90 87 85 79 79 78 84 94 103 111 111 108 97 88 91 84 82 83 88 87 75 73 84 86 77 74 70 74 79 88 94 96 95 60 66 104 104 101 97 98 100 100 98 93 88 88 91 90 88 87 88 88 85 82 90 95 102 106 111 110 99 91 90 90 89 86 89 90 91 88 87 90 90 90 91 89 89 94 100 99 98 58 66 105 108 108 107 110 108 105 102 100 101 98 94 91 90 91 91 90 91 94 94 97 103 106 108 108 101 94 96 95 91 92 92 94 97 100 103 103 105 106 108 109 108 107 106 103 99 59 67 109 109 112 109 110 111 107 102 102 102 101 99 98 97 96 95 96 100 99 98 100 103 106 107 108 102 93 95 99 97 95 96 98 101 104 108 109 108 111 111 114 113 111 110 105 103 61 69 110 113 114 114 111 112 113 110 110 109 108 102 98 98 99 102 101 100 99 98 100 102 105 108 106 101 94 95 98 102 102 98 99 100 106 113 112 110 111 114 112 111 114 112 106 102 61 71 113 115 115 115 113 113 114 114 112 110 103 98 99 102 105 106 101 101 99 97 98 100 103 108 106 101 94 94 97 101 106 105 99 98 104 110 117 118 116 114 112 114 113 112 106 101 61 74 113 112 112 111 113 112 114 114 112 107 106 103 103 108 107 103 101 101 99 98 98 101 105 108 110 105 97 93 96 99 103 109 111 105 103 106 114 117 117 114 114 113 112 109 104 101 60 76 113 108 108 110 111 111 113 111 110 109 108 108 109 108 106 105 103 101 97 97 98 104 109 107 106 105 99 93 93 97 101 107 109 112 112 111 112 112 114 114 113 112 108 106 99 99 60 81 116 106 105 104 105 108 108 111 109 111 109 111 109 109 108 104 100 93 93 96 99 107 106 108 108 108 103 94 92 94 102 108 110 109 114 113 113 111 112 113 113 111 105 103 100 94 59 88 119 106 101 101 102 104 106 107 106 111 112 110 109 109 107 103 93 85 91 96 103 105 103 108 109 112 103 95 91 87 96 107 110 112 112 113 113 112 109 112 109 104 102 100 96 94 57 91 120 105 101 102 102 103 105 106 108 110 110 110 108 106 102 97 85 90 95 100 103 108 109 110 111 115 105 97 93 88 91 102 109 111 112 113 111 114 113 108 105 102 101 97 95 93 56 93 123 105 103 103 103 101 104 106 110 111 110 107 107 105 100 90 79 97 99 102 99 104 106 105 105 107 103 96 93 92 81 92 103 109 110 111 113 114 113 109 105 101 99 97 94 92 56 95 129 106 104 102 103 101 103 104 105 107 107 104 102 103 95 81 77 96 98 89 81 87 90 89 90 92 88 83 88 90 80 85 96 103 106 108 111 110 108 106 102 101 97 97 93 89 56 95 130 111 105 98 99 98 102 102 101 105 104 102 100 98 89 71 72 91 85 73 73 76 76 78 79 78 69 68 77 83 80 80 92 100 106 106 105 106 107 102 101 97 97 95 93 89 55 99 133 115 104 98 97 97 98 100 100 99 101 103 100 96 82 69 66 81 67 42 38 69 66 64 66 67 52 44 63 78 79 80 85 96 100 103 102 105 102 99 97 96 96 93 88 89 55 104 134 115 104 96 95 97 97 97 98 95 97 98 95 91 79 74 69 69 56 40 43 56 62 56 57 56 41 39 53 72 83 83 85 93 98 100 101 101 100 97 97 94 92 89 88 88 55 109 137 116 104 97 94 94 94 94 91 94 95 96 95 90 82 82 81 74 56 46 55 63 65 57 61 66 55 44 56 81 90 90 87 91 97 97 98 98 97 97 96 93 91 89 86 87 54 115 145 115 105 95 93 92 91 92 92 91 94 95 94 91 90 88 86 83 78 72 73 75 72 68 76 81 79 75 83 89 95 95 92 92 95 96 96 97 95 94 93 92 91 88 87 87 54 115 151 118 104 94 91 90 90 90 91 90 94 96 95 96 95 90 87 84 80 78 78 79 78 82 85 87 86 84 88 91 96 98 96 95 96 95 94 93 94 94 92 90 89 89 88 86 53 117 156 123 104 95 90 90 87 89 87 90 94 96 97 97 96 94 91 87 83 83 86 87 85 84 89 93 90 88 89 89 93 98 98 98 97 95 92 92 92 90 89 88 88 87 87 85 52 116 166 129 103 98 90 88 88 88 86 90 94 95 97 96 96 94 93 93 93 93 94 93 86 84 89 95 95 93 92 89 91 96 97 98 97 95 94 92 90 88 89 86 88 86 86 84 50 117 165 132 111 100 91 84 87 87 89 89 90 92 93 91 93 94 91 93 96 99 100 99 94 90 92 99 99 98 96 94 90 91 92 94 96 91 92 91 87 86 88 86 86 84 84 81 50 115 165 141 115 102 92 87 86 87 88 86 86 87 88 87 90 91 91 95 100 103 106 106 102 99 100 105 108 104 99 96 90 88 88 88 88 87 89 90 88 87 86 85 85 83 82 81 51 117 167 151 120 102 93 88 88 88 86 83 81 81 81 81 83 89 94 93 89 84 86 92 98 99 98 92 89 93 97 98 92 85 83 82 81 81 82 85 87 85 91 84 84 83 80 80 51 121 173 155 126 104 95 87 88 89 86 80 77 74 70 69 74 80 72 65 66 70 70 69 70 73 70 70 69 68 72 79 86 85 79 75 75 78 80 84 85 96 95 84 82 80 79 80 50 123 175 161 128 105 97 89 88 88 85 80 79 71 58 46 54 55 51 51 51 57 58 55 55 56 55 56 57 55 53 53 59 66 61 55 61 69 79 85 92 101 89 82 81 78 78 81 50 131 179 159 131 107 102 92 88 87 86 81 82 80 72 53 53 55 57 60 59 61 60 58 56 48 53 56 60 61 58 54 50 53 57 60 77 81 81 90 94 94 87 82 78 78 78 80 49 132 185 163 138 111 104 92 87 84 87 84 83 84 87 87 88 91 90 89 88 91 91 92 90 87 89 90 93 91 90 89 89 91 91 89 89 89 87 93 93 88 84 80 79 78 77 79 75 137 195 170 143 115 107 94 85 86 84 83 84 87 88 92 93 94 94 95 93 92 94 93 93 96 96 94 95 91 93 93 92 95 97 95 92 91 88 91 88 85 82 79 77 77 77 88 118 131 206 176 150 123 108 95 84 82 81 81 82 83 88 91 92 92 89 87 84 82 77 76 75 78 78 79 81 83 83 85 88 93 92 92 90 88 86 87 86 84 80 76 76 77 76 137 124 127 209 186 158 128 106 100 86 81 81 82 81 82 83 87 87 87 86 84 78 74 69 65 62 60 61 68 72 76 78 81 86 87 87 89 88 84 84 84 83 81 78 77 76 76 86 190 124 127 197 186 166 138 108 101 87 80 79 78 77 80 80 82 82 82 81 77 73 66 63 64 62 61 62 64 67 71 76 80 83 85 85 86 85 86 83 82 79 78 78 76 75 74 118 201 125 121 185 178 174 147 120 97 90 81 79 77 76 77 79 80 80 79 77 73 69 63 59 59 61 62 61 61 66 70 74 78 82 82 83 85 83 84 81 81 78 76 76 72 72 75 91 182 124 114 174 167 163 159 129 103 91 81 76 75 76 79 80 79 79 78 76 76 72 71 68 67 68 69 68 69 72 75 78 79 81 82 83 83 81 83 80 77 75 74 74 71 71 80 72 94 120 114 167 155 148 159 137 111 93 82 75 74 76 78 80 80 81 80 80 81 82 84 85 86 86 87 88 88 86 84 85 84 84 85 83 83 82 81 77 75 74 72 71 70 72 83 65 42 74 105 154 139 136 140 146 120 97 84 77 73 75 76 79 81 82 82 87 86 90 93 93 90 90 89 94 95 94 92 94 90 89 89 86 83 79 77 74 73 69 68 69 67 77 86 61 33 27 85 137 129 125 125 137 132 107 89 76 74 75 76 79 81 83 87 89 91 93 93 94 90 88 89 91 94 96 98 96 95 93 89 87 83 80 75 72 68 67 67 65 70 80 87 58 31 26 64 116 113 110 110 113 131 113 91 78 72 73 75 80 83 84 85 89 91 91 93 91 89 87 88 85 89 93 94 94 94 90 87 82 81 76 71 65 65 64 64 64 76 82 86 54 31 23 48 97 101 99 98 98 108 119 98 83 75 72 78 86 88 84 82 84 86 86 88 88 87 84 83 84 86 88 90 90 89 87 84 81 78 73 67 61 60 58 59 69 79 83 87 53 30 22 31 83 91 92 91 89 88 101 105 90 76 74 77 90 94 85 79 80 79 81 79 81 83 83 81 79 81 83 84 84 82 81 77 74 71 66 60 58 57 56 62 74 81 85 85 52 30 21 21 66 84 88 87 84 82 82 94 94 78 77 77 89 96 88 75 74 75 76 75 74 74 75 75 71 74 77 77 76 76 69 68 66 64 62 59 56 53 57 70 78 82 86 83 49 29 21 20 45 75 83 83 80 79 78 76 86 84 76 75 82 94 90 74 68 68 68 68 67 68 68 67 70 70 69 67 69 68 65 64 60 59 60 58 56 56 65 74 80 85 84 79 43 30 20 13 21 40 48 49 49 49 46 44 45 50 48 48 49 53 53 44 39 37 37 39 37 38 39 39 40 39 39 37 37 36 35 36 35 35 37 35 35 37 42 47 50 54 51 47 24 18 11 