P2
48
60
255
39 72 77 78 80 83 85 88 89 92 94 97 99 99 99 101 103 105 103 103 103 104 103 101 101 100 101 101 101 101 100 99 100 100 98 97 96 94 90 87 85 84 80 79 77 76 75 43 66 119 126 129 132 135 138 141 146 151 154 158 162 161 163 164 164 166 163 163 165 165 166 164 161 163 163 162 162 162 160 160 160 159 157 156 155 151 145 141 136 132 130 128 122 123 121 72 68 119 127 128 132 135 137 142 145 150 152 158 162 163 164 161 163 166 163 160 162 162 163 160 161 162 161 161 160 159 159 159 158 158 158 158 157 150 144 142 136 132 130 128 123 121 120 74 68 121 125 127 133 135 137 142 147 150 155 161 166 167 167 164 165 164 163 161 159 157 160 158 156 157 159 161 160 162 163 163 162 163 163 163 158 154 146 145 140 133 128 127 122 121 120 74 67 118 124 128 134 136 140 145 150 155 158 163 166 168 166 166 165 162 160 161 158 158 159 157 157 156 160 163 162 163 164 165 164 166 165 164 158 154 149 147 142 135 127 125 122 121 118 72 72 122 124 128 132 137 143 148 153 158 161 164 166 166 165 166 165 163 163 161 159 155 156 157 156 158 160 163 164 162 165 167 165 163 160 160 158 151 150 147 143 135 127 124 121 119 117 70 74 123 126 128 133 137 143 148 156 161 160 162 162 160 160 161 163 163 159 158 157 153 153 155 155 158 160 162 158 159 159 158 153 154 153 152 149 147 146 147 140 131 127 125 121 120 116 70 75 123 126 127 131 139 140 142 148 150 151 155 155 152 150 154 153 154 152 155 155 149 148 153 155 157 156 152 149 144 139 139 135 137 140 142 139 134 133 134 125 119 120 123 119 118 117 69 74 124 126 126 129 126 121 123 126 132 133 137 137 132 133 136 132 134 137 146 150 150 151 152 153 153 150 140 129 117 110 96 86 87 92 106 115 113 107 103 101 101 100 106 115 114 115 69 75 124 123 122 112 90 88 97 97 99 91 86 91 91 87 93 93 97 114 132 144 149 150 153 153 147 141 129 115 98 85 73 70 67 66 72 81 87 84 89 88 84 76 81 92 111 113 67 75 123 117 93 79 82 80 82 81 77 71 69 67 68 68 69 70 78 95 119 133 142 147 151 149 142 133 118 103 93 80 66 62 65 62 65 66 66 66 67 74 76 77 73 72 91 110 67 75 122 96 78 90 100 108 108 99 86 73 67 67 66 72 75 82 88 99 111 127 138 146 148 149 145 135 115 97 85 78 79 83 83 85 89 90 92 94 99 103 104 98 90 77 92 109 67 75 118 91 94 111 126 137 135 132 124 123 118 109 106 104 102 99 99 105 118 131 144 154 162 161 155 142 119 100 91 97 108 114 114 114 116 120 118 120 120 123 121 112 103 90 92 112 68 74 114 94 109 122 128 132 124 116 104 96 86 76 73 76 79 90 100 107 120 137 149 163 168 165 159 142 122 101 97 99 86 93 101 94 86 84 95 101 97 92 102 109 109 101 98 114 70 76 113 109 120 122 108 93 93 83 54 46 38 51 56 61 67 72 87 100 119 134 148 162 165 163 153 136 116 99 88 83 88 80 80 59 50 52 55 56 71 84 82 80 98 104 110 115 70 80 124 123 119 96 90 90 65 65 57 93 20 87 74 118 82 67 86 108 124 132 144 158 162 158 149 130 114 101 84 67 74 125 107 115 34 45 73 66 90 59 75 70 79 101 111 118 71 81 130 126 112 91 87 72 98 101 63 57 48 77 96 135 105 90 96 125 129 130 143 154 152 153 147 126 114 111 85 64 84 131 114 78 57 60 76 88 98 74 72 83 93 103 114 121 75 86 136 128 120 108 85 86 108 123 99 82 77 91 120 118 116 115 116 128 125 130 136 152 149 145 147 123 114 118 103 88 98 126 132 100 80 81 98 115 105 90 90 97 103 115 123 127 79 89 143 140 136 128 121 101 116 114 115 111 107 110 118 116 111 111 114 124 127 130 130 148 148 143 145 123 115 115 102 92 93 107 110 114 109 111 113 105 99 93 109 120 127 130 133 134 82 90 148 146 143 141 134 125 128 130 122 127 126 120 116 115 115 113 118 129 130 131 131 141 145 145 144 124 115 119 106 91 85 94 107 121 121 118 116 119 109 110 118 126 134 137 136 137 83 91 149 147 145 146 142 136 129 126 122 123 128 132 133 130 125 123 131 133 136 133 130 135 142 145 142 126 113 118 117 101 95 97 104 113 115 117 117 114 116 122 128 132 139 141 137 137 83 90 147 148 149 150 152 150 148 148 147 150 148 145 138 132 136 141 139 135 133 131 127 130 139 146 144 126 113 116 121 120 107 105 113 124 131 133 133 132 132 133 136 138 143 145 140 135 82 90 148 151 152 157 157 155 154 154 151 151 146 144 141 143 150 145 137 136 134 129 125 125 137 144 140 121 112 115 118 122 122 116 115 124 136 143 146 144 143 144 144 146 148 145 140 135 81 90 150 150 155 161 163 163 164 162 160 156 152 151 151 152 151 140 137 135 134 128 124 130 144 143 140 119 110 114 117 120 125 129 126 126 132 138 142 145 147 149 148 147 147 144 140 134 79 89 149 150 156 159 161 165 168 168 165 162 159 155 156 154 151 141 138 135 132 128 123 130 141 144 138 116 110 114 118 121 123 128 131 136 138 142 148 152 152 152 148 145 145 142 135 131 77 87 146 150 152 156 158 164 165 166 167 163 159 157 155 154 150 142 138 132 127 125 123 135 143 143 139 117 108 112 116 122 126 127 129 137 139 144 148 152 152 149 145 142 141 136 132 127 76 87 145 149 150 150 152 158 160 163 163 163 162 160 156 153 148 144 133 123 121 122 128 139 141 145 143 126 110 109 110 122 127 129 129 136 139 141 143 144 144 144 139 134 136 131 126 123 74 86 143 146 148 147 149 155 158 161 162 161 161 155 151 151 146 137 125 119 122 125 141 152 148 147 165 132 110 109 110 117 126 127 128 132 136 140 142 139 136 136 133 133 130 130 123 123 74 82 136 142 144 142 145 151 156 157 161 161 158 150 143 140 138 129 120 118 120 125 153 156 140 134 140 121 107 109 112 112 117 120 125 131 137 140 142 139 137 135 129 128 128 127 123 120 73 82 133 140 140 140 143 148 152 160 160 159 150 142 135 130 125 122 113 107 112 118 127 126 124 123 120 104 99 106 111 108 105 111 118 125 130 135 136 141 137 131 130 127 124 125 122 120 72 80 133 137 137 139 141 147 151 157 154 152 144 134 126 119 119 120 108 88 72 98 104 97 105 108 99 82 76 91 103 107 100 103 111 121 127 134 134 137 135 132 124 123 123 121 122 120 73 79 132 133 136 138 142 147 150 153 153 144 136 125 118 116 120 124 97 63 62 91 95 80 90 87 73 51 36 54 84 107 104 100 107 116 124 130 136 137 137 131 125 123 121 123 123 121 71 82 132 133 137 138 143 144 146 152 149 141 131 120 118 120 131 131 112 89 93 105 115 93 77 79 88 88 69 63 95 114 115 106 108 114 125 131 135 136 137 132 125 122 119 120 122 117 72 79 130 133 136 136 141 144 149 149 144 135 131 125 125 130 134 129 105 84 74 85 96 104 101 103 100 83 76 88 96 112 119 117 116 120 127 132 136 138 135 133 125 121 120 120 121 116 69 79 131 132 133 135 141 143 146 144 142 136 134 132 131 129 126 99 77 71 64 74 80 83 92 96 98 84 71 79 85 95 114 120 127 130 131 132 137 139 137 132 124 121 119 120 120 115 66 78 130 134 134 138 141 145 146 144 140 136 134 124 121 106 90 76 69 69 76 76 69 56 68 76 87 80 70 72 74 86 94 106 119 132 133 132 136 139 137 131 124 121 117 116 115 110 65 79 130 135 137 140 143 145 144 142 139 134 125 103 95 89 74 64 71 77 76 71 64 43 55 68 76 77 70 63 66 72 79 89 105 121 129 131 134 135 132 132 124 122 118 116 110 106 63 78 127 134 137 141 142 144 144 138 135 123 98 84 76 78 69 67 74 77 77 67 69 49 57 73 79 80 71 67 65 66 74 77 89 111 127 128 130 134 134 134 130 122 117 111 106 106 64 78 128 132 135 139 143 144 143 138 128 106 81 68 65 71 61 75 84 97 99 99 93 92 96 92 99 91 81 71 62 59 63 65 74 93 114 122 125 128 135 136 128 121 115 107 109 105 65 77 126 128 133 139 144 143 140 137 121 97 69 60 62 69 72 91 102 98 91 95 99 118 111 104 104 104 98 78 68 58 59 64 66 73 93 112 118 130 135 135 128 119 112 109 109 107 66 77 128 128 133 137 142 140 135 131 110 76 60 59 69 82 90 88 81 79 74 75 77 80 76 79 85 85 84 89 89 71 57 60 62 65 80 108 115 125 129 128 123 115 110 110 109 107 65 77 128 127 134 135 139 139 137 125 105 69 69 63 65 77 73 61 58 58 61 71 72 67 65 62 65 66 63 63 72 73 64 63 64 60 76 100 113 123 128 126 120 114 108 109 109 108 67 78 127 127 133 134 136 139 134 121 102 74 69 58 49 45 32 39 70 94 92 108 110 102 102 89 62 45 39 30 29 42 52 62 69 66 78 99 116 125 126 123 114 109 108 108 107 107 66 77 125 127 129 131 134 140 139 127 104 78 74 79 96 93 82 77 82 79 63 94 83 62 61 63 63 53 52 56 71 79 84 83 84 83 95 118 126 125 123 117 108 106 105 108 106 106 66 77 124 123 127 130 131 137 139 137 123 112 108 125 133 125 113 108 105 106 102 100 98 96 102 99 96 99 100 96 95 106 119 125 125 126 125 132 131 126 119 112 107 105 102 106 106 106 64 72 123 121 124 128 128 135 140 142 137 130 131 133 134 132 126 117 115 119 117 118 119 119 120 117 116 113 106 98 102 111 120 127 129 132 129 131 130 126 116 109 105 105 104 105 107 104 64 75 123 120 122 128 130 132 139 140 134 130 135 134 132 132 127 122 116 115 119 122 121 121 122 121 117 111 102 104 106 112 118 124 127 129 127 132 130 120 112 109 105 104 104 105 103 104 65 71 120 121 119 124 127 130 135 136 135 133 133 132 125 127 126 122 116 112 110 111 109 110 109 109 106 102 102 103 106 115 120 123 124 127 124 127 123 115 110 109 102 103 103 105 103 105 69 74 121 121 122 122 123 123 130 133 131 130 129 127 126 126 125 121 112 105 100 98 97 98 94 91 90 90 92 100 109 117 117 117 121 119 116 120 119 111 108 106 101 97 100 103 103 106 66 74 119 120 119 118 119 120 125 128 126 125 122 125 128 127 124 121 116 105 91 77 74 73 68 70 76 85 95 107 111 113 114 115 116 111 113 116 112 103 103 101 98 97 101 103 106 102 53 79 120 120 120 117 118 120 120 121 120 120 117 120 123 123 124 123 120 112 105 99 97 95 95 97 100 105 107 113 112 115 112 111 108 109 111 113 103 101 100 99 98 98 102 105 102 84 72 89 133 120 119 118 118 118 118 117 116 118 114 117 122 124 124 121 119 115 114 111 110 107 109 112 116 114 113 114 111 110 108 107 107 105 106 105 98 100 98 98 97 101 103 101 84 98 110 91 175 122 117 115 116 115 119 113 112 116 118 121 125 124 121 124 125 125 123 123 118 115 118 120 121 117 116 112 108 108 104 106 108 103 103 101 99 92 94 98 98 102 102 88 85 142 122 87 202 145 119 118 117 118 114 112 113 117 119 124 124 126 124 125 123 127 121 122 119 116 118 121 123 123 123 112 111 112 108 109 109 104 100 96 97 95 93 99 99 101 92 82 107 184 125 84 195 195 130 117 113 115 116 118 118 115 119 122 123 124 124 126 128 130 129 127 124 124 125 126 126 127 124 110 108 110 111 112 108 96 95 94 97 95 93 99 101 95 93 94 136 197 124 90 180 212 166 121 113 115 116 117 115 117 117 121 122 123 123 120 125 134 127 127 128 126 132 132 132 128 121 107 108 108 109 107 105 98 96 93 97 94 94 102 96 92 104 107 176 199 124 105 157 214 196 134 113 109 112 115 114 113 112 118 119 120 118 115 127 130 127 130 129 131 132 131 133 127 113 103 106 102 104 103 96 94 95 95 90 91 96 96 90 125 101 133 194 199 123 120 141 208 205 162 113 110 111 113 113 111 112 113 113 115 112 113 123 129 128 134 134 133 131 128 123 118 107 99 101 99 98 99 99 92 94 94 91 95 95 86 132 120 102 169 195 198 123 128 139 196 211 187 118 110 116 111 110 109 111 110 110 110 111 112 114 120 123 125 125 124 123 121 112 106 100 95 97 98 99 94 94 95 93 93 93 92 85 119 148 104 127 189 196 199 123 81 95 110 131 125 94 56 67 69 68 67 68 68 65 63 67 67 66 67 72 72 71 74 72 69 63 60 60 58 58 58 59 58 56 57 55 57 57 54 59 93 82 64 99 120 122 123 76 