P2
48
60
255
19 33 33 33 35 35 36 38 39 40 41 44 47 49 52 54 54 54 55 55 54 56 55 54 56 59 59 61 62 61 60 60 60 58 56 57 55 53 51 46 44 42 40 40 41 40 38 18 32 55 55 55 56 57 59 62 63 65 68 74 80 84 87 89 89 89 90 86 90 90 90 91 92 94 95 97 99 100 98 96 99 99 96 92 88 88 82 77 71 69 66 65 66 65 64 32 32 55 56 55 54 56 58 62 64 69 73 78 84 89 91 91 89 91 94 94 91 90 91 92 91 90 91 98 98 97 98 98 100 101 98 94 90 90 84 78 75 69 67 65 65 66 66 35 32 55 56 55 54 57 60 65 68 73 77 81 84 86 91 93 92 91 93 94 94 93 94 92 94 97 96 99 97 99 98 102 103 103 100 96 94 92 87 79 77 71 70 65 64 65 65 37 33 54 55 55 56 59 63 68 72 77 81 83 85 89 92 94 93 93 95 95 96 94 93 95 95 96 98 100 97 91 97 100 101 103 100 96 94 93 88 78 74 74 70 67 63 64 64 39 32 54 55 57 58 60 62 64 73 78 81 84 85 89 94 95 94 94 96 96 96 94 93 94 94 93 96 98 95 94 96 97 96 94 94 91 89 87 78 65 56 60 70 67 63 64 63 40 32 53 55 56 58 54 46 50 63 72 72 78 81 86 88 91 91 91 94 94 93 94 94 93 95 96 94 95 90 92 89 87 84 87 83 75 69 64 56 48 47 43 47 57 61 63 64 40 33 54 55 55 47 39 35 44 57 55 57 64 72 77 80 85 87 87 89 88 91 94 93 91 92 92 90 88 87 86 85 79 74 73 63 53 45 46 43 41 41 38 40 41 48 60 64 41 33 54 50 39 38 36 41 52 44 37 43 49 51 61 68 71 77 79 81 83 85 88 89 89 91 91 88 84 80 75 72 62 53 46 41 40 38 36 38 39 40 39 40 41 42 55 65 41 34 55 44 45 51 49 44 35 33 33 35 35 38 42 46 52 63 66 71 74 80 84 87 87 89 88 82 74 67 58 52 43 36 33 33 33 36 39 42 47 53 57 55 57 51 52 67 41 34 53 44 45 39 37 34 34 31 30 31 31 31 32 33 38 44 49 54 61 71 76 82 86 89 85 70 57 47 36 31 30 31 33 37 43 48 51 54 59 65 68 66 65 59 54 67 42 34 55 47 45 45 50 51 50 47 46 43 39 36 33 31 31 32 34 39 47 61 71 81 85 87 81 68 54 40 36 36 37 38 36 34 34 37 46 55 52 47 54 63 66 65 59 67 43 35 55 53 55 56 54 51 48 45 43 38 34 33 32 34 35 35 34 35 43 58 72 82 90 92 87 74 61 50 45 41 37 36 35 29 27 33 33 34 43 56 49 53 62 65 65 68 43 35 57 55 56 54 45 43 50 43 32 33 27 27 30 31 32 36 39 43 49 60 74 86 90 95 88 76 67 58 48 44 42 38 40 30 29 30 32 47 51 36 47 49 59 67 69 70 43 36 58 56 54 47 42 44 34 38 29 51 27 30 32 32 36 38 44 48 53 62 74 86 87 90 87 77 69 61 59 53 40 47 69 37 30 30 32 58 67 49 39 48 59 69 74 73 43 37 59 58 53 47 40 31 49 57 32 27 27 30 53 48 34 40 51 53 55 60 72 84 83 88 85 76 69 69 74 50 52 65 89 61 36 38 44 82 74 53 49 55 65 74 77 75 44 37 60 59 53 44 37 44 58 65 38 33 33 41 90 75 47 38 51 57 56 61 71 83 84 89 85 74 70 73 70 62 62 67 78 76 61 59 77 79 67 57 61 71 75 80 79 74 44 38 60 62 58 54 49 47 59 73 66 48 45 70 83 73 68 60 55 57 57 61 72 86 88 95 87 74 70 72 74 78 75 73 72 67 64 66 69 69 62 62 68 74 78 78 78 74 44 38 62 64 61 59 55 52 55 59 65 69 62 63 67 73 73 73 62 58 58 63 74 89 92 97 89 76 72 71 74 83 81 75 69 67 67 70 71 71 69 69 73 75 77 76 77 75 45 38 62 63 62 60 57 53 53 55 58 58 59 63 69 76 81 74 62 61 61 65 76 90 95 100 92 80 78 75 75 80 89 83 80 77 77 80 80 82 82 79 80 78 78 79 78 76 44 38 61 64 63 60 59 60 61 63 66 68 70 73 79 82 82 70 63 62 63 70 77 92 97 99 93 84 82 79 77 80 84 91 86 85 85 89 91 93 91 89 87 85 84 82 79 77 45 39 61 64 64 63 64 66 67 70 73 76 79 82 83 83 78 68 65 66 68 71 75 88 96 99 93 83 81 81 79 82 84 87 91 88 89 93 97 98 96 93 89 88 88 85 82 78 45 39 62 65 67 66 69 71 75 79 81 83 85 83 81 80 73 71 65 66 70 72 77 94 100 103 94 83 81 82 82 83 87 88 88 92 93 96 98 98 96 93 91 92 88 85 82 78 46 38 64 66 69 71 74 74 78 83 85 84 84 82 81 78 77 71 65 68 70 73 80 97 101 103 96 85 81 81 80 81 87 93 93 91 93 94 94 94 95 96 94 93 90 87 81 77 46 38 63 66 71 72 75 75 77 81 82 81 81 80 81 82 80 71 63 67 68 72 83 96 102 104 101 88 82 81 80 80 87 95 98 96 94 93 89 92 91 95 96 96 91 87 79 78 46 38 64 67 70 73 75 77 77 76 78 78 80 81 84 83 80 71 63 65 67 75 83 94 99 104 102 92 82 80 78 77 83 95 99 98 96 95 96 95 97 98 92 93 90 86 80 78 45 39 64 68 71 74 74 77 78 77 80 81 80 81 84 86 81 69 61 63 66 76 82 91 100 103 104 94 84 80 76 74 80 92 99 103 99 98 95 96 96 99 94 93 88 84 78 77 46 39 63 68 69 72 74 79 83 81 84 85 84 84 86 86 76 66 61 61 68 77 82 90 100 104 104 94 86 83 78 74 78 85 95 99 97 100 99 96 97 97 93 90 86 80 78 75 46 39 63 68 69 71 74 78 83 83 86 85 87 82 87 85 74 64 60 65 73 78 84 97 104 112 111 97 87 86 83 80 79 85 91 96 101 100 101 95 96 95 92 87 83 78 77 73 45 39 65 68 70 71 73 77 82 82 87 86 88 87 87 81 70 62 67 68 72 75 83 102 105 113 109 93 85 84 87 85 76 85 88 93 97 99 98 99 98 91 87 85 81 79 76 74 45 39 63 65 69 70 73 76 80 86 85 85 88 88 85 77 68 62 70 71 67 67 76 93 95 99 98 82 76 77 84 82 79 84 89 91 95 98 99 99 98 93 87 86 81 80 76 73 44 39 62 64 68 69 71 75 80 84 86 87 86 84 83 74 66 62 65 64 57 55 67 80 84 87 83 71 56 56 61 69 76 88 90 91 93 97 98 97 96 92 89 84 82 77 75 72 44 40 62 64 64 67 69 74 77 82 84 86 87 85 79 70 68 63 52 39 31 31 53 67 69 72 74 52 35 36 37 52 79 90 90 92 92 96 95 92 92 87 87 83 78 77 74 71 43 41 62 64 64 65 68 71 75 80 83 84 83 83 77 71 70 68 50 37 41 47 50 51 50 56 62 67 66 63 52 70 85 88 89 91 92 93 94 90 90 88 86 77 79 77 74 71 43 41 62 64 65 63 67 70 72 76 81 81 82 82 77 72 71 68 62 54 52 55 51 51 41 44 56 56 48 59 68 73 71 83 89 92 92 93 92 89 87 85 85 81 78 75 74 70 43 41 63 64 64 63 65 67 72 75 78 78 82 80 79 76 72 63 56 54 43 38 37 42 43 46 46 39 37 41 48 57 59 71 78 87 89 90 91 89 84 84 82 78 79 74 75 71 43 42 63 63 63 62 64 67 69 72 77 79 80 78 75 73 65 49 47 41 34 32 31 37 38 44 36 32 31 31 36 40 47 54 59 63 71 80 86 85 83 81 80 78 76 74 74 69 43 44 63 62 62 62 63 66 68 68 71 74 73 68 64 55 48 43 36 33 30 32 32 32 34 34 31 30 31 31 34 33 34 47 43 45 51 63 75 82 78 77 77 77 75 73 74 69 44 66 64 61 62 62 63 63 65 67 69 69 61 54 46 40 40 36 29 30 30 30 31 30 31 30 30 33 33 31 32 34 32 37 36 40 41 49 68 75 77 75 75 76 75 74 73 70 45 102 67 61 62 62 61 61 63 65 65 58 47 44 37 37 34 32 29 29 31 31 33 33 35 35 37 35 35 32 34 35 36 37 35 36 36 41 52 68 75 75 75 75 75 73 73 71 48 133 74 61 61 61 60 60 62 64 60 48 38 38 35 35 33 31 30 31 33 31 33 36 49 47 39 36 35 34 37 36 38 40 36 33 34 37 44 64 73 75 73 74 74 74 72 71 72 151 93 62 59 60 59 59 61 63 53 41 35 31 32 33 33 34 34 33 34 35 37 42 48 45 40 38 39 38 39 38 39 43 35 35 30 33 39 56 71 73 74 74 72 73 72 74 115 157 132 63 60 61 60 59 61 62 50 37 30 30 28 31 33 35 35 35 36 39 44 45 46 47 46 46 44 42 41 42 48 39 30 33 30 33 35 52 70 72 72 72 71 73 72 89 146 158 194 67 61 60 59 59 61 62 53 33 29 30 29 28 29 35 41 40 42 44 47 49 51 51 56 60 68 63 63 67 66 48 34 33 33 35 35 55 69 70 72 71 72 71 71 124 156 158 237 80 61 60 58 60 60 61 56 35 30 30 30 31 35 42 48 56 74 84 84 85 89 93 93 94 96 95 86 68 61 55 55 44 39 38 42 59 71 71 71 71 71 70 70 178 158 158 253 121 63 61 59 60 59 60 58 40 34 33 36 42 49 50 51 58 75 92 96 91 95 93 90 90 107 122 74 63 60 60 63 58 55 53 54 64 69 70 70 71 69 70 73 200 158 158 255 194 66 62 59 59 59 59 57 51 43 43 47 50 55 54 53 54 62 72 77 81 85 84 81 78 78 75 65 62 61 63 66 66 67 61 58 65 67 68 71 70 69 68 76 217 158 158 255 244 88 62 59 58 58 58 56 52 49 53 56 57 56 54 53 54 56 62 67 71 74 75 71 70 69 67 62 57 58 65 69 69 68 64 61 65 66 68 70 69 66 67 77 228 158 158 255 255 162 63 60 57 57 58 55 51 51 54 59 58 55 52 49 45 45 49 52 56 59 60 57 56 55 50 49 58 65 67 69 67 68 64 60 63 66 68 67 66 65 70 79 240 158 158 255 255 238 85 59 58 56 56 54 52 51 54 57 57 53 53 50 49 46 39 33 30 29 29 30 32 41 55 62 66 67 67 67 67 65 65 64 64 67 67 66 65 66 67 89 247 158 158 255 255 255 165 60 56 56 55 54 52 50 52 55 58 53 53 53 53 54 56 56 54 51 53 58 69 80 80 73 72 70 67 65 65 65 63 63 64 66 65 64 64 67 67 96 249 158 158 255 255 255 213 68 56 55 54 52 52 52 51 54 53 55 57 62 66 73 75 77 78 83 83 80 83 87 86 81 79 75 71 68 65 64 63 62 62 63 63 63 64 64 69 105 251 158 158 255 255 255 234 73 61 54 53 52 52 52 52 53 53 56 61 69 74 76 76 76 77 81 82 81 88 86 86 82 80 77 72 67 65 63 64 60 61 64 64 62 61 64 70 119 253 158 158 255 255 255 245 81 61 53 52 51 51 51 51 52 52 57 60 66 68 73 72 72 75 75 77 77 82 83 82 80 76 74 70 67 66 63 61 60 61 61 61 60 60 67 71 132 254 158 158 255 255 255 251 102 56 56 50 50 50 50 50 52 53 56 55 59 60 66 69 68 68 66 67 71 74 78 76 73 73 70 68 65 64 62 61 58 60 61 59 57 63 68 71 139 254 158 158 255 255 255 254 132 57 52 49 47 48 48 49 50 52 52 52 54 56 59 61 61 61 63 59 65 67 71 69 66 65 65 65 65 62 59 59 58 59 59 57 58 64 70 72 141 254 158 158 255 255 255 255 164 58 54 47 45 45 47 47 49 50 52 50 50 52 55 55 57 56 58 58 58 59 61 61 61 61 63 63 61 61 57 57 56 57 56 56 61 67 71 71 138 255 158 158 255 255 255 255 193 59 54 50 43 45 46 45 46 47 49 49 50 49 51 51 53 54 55 53 53 55 56 58 55 59 59 60 57 56 56 55 58 55 54 57 63 69 71 72 135 254 158 158 255 255 255 255 213 61 55 52 46 41 43 44 45 45 46 47 47 47 46 46 48 49 50 51 52 52 52 53 52 53 55 53 54 54 54 56 54 54 54 58 66 71 70 71 87 147 125 98 158 158 158 158 137 38 34 33 32 26 25 26 27 28 27 27 27 28 28 26 26 28 28 29 29 30 30 31 31 31 32 32 33 34 33 33 33 32 35 39 43 44 44 43 38 26 19 