P2
48
60
255
32 47 45 47 58 74 83 87 90 93 93 94 97 97 98 100 99 100 98 98 98 98 98 96 96 97 97 97 97 96 95 94 94 90 88 85 81 78 76 76 74 73 73 71 70 69 67 39 52 76 72 78 100 122 135 142 147 151 154 155 159 158 160 163 163 163 160 159 158 157 157 157 157 158 158 158 158 156 154 155 148 144 143 137 132 128 123 123 121 119 117 115 113 110 109 64 53 77 74 80 104 126 136 144 148 151 154 155 157 156 161 165 163 162 161 160 160 157 155 156 159 159 158 157 157 154 152 150 148 147 143 138 132 129 125 124 123 119 117 115 112 111 108 64 54 79 75 82 111 130 139 146 151 153 154 157 157 156 159 163 164 162 161 158 160 156 158 158 159 157 157 157 153 149 147 145 145 142 138 135 131 127 128 127 122 120 119 115 112 109 107 64 53 78 76 83 115 133 141 147 152 155 155 156 155 156 158 161 162 162 161 160 158 156 158 159 157 157 155 153 149 143 143 138 136 138 137 133 131 130 130 128 124 123 120 116 112 108 106 64 54 79 76 88 121 138 144 147 152 155 156 153 152 153 153 156 156 156 158 156 155 154 155 154 152 154 152 150 144 142 137 132 131 136 134 133 132 131 130 130 127 124 121 117 115 110 107 65 52 80 76 93 129 139 138 143 145 147 148 147 150 150 149 151 150 151 154 152 151 148 151 152 149 150 149 144 141 137 132 130 130 133 131 131 130 130 130 128 129 126 124 120 115 110 108 65 51 82 76 101 133 128 116 118 120 121 118 125 133 135 140 141 142 141 144 145 146 146 148 146 147 145 142 139 136 133 130 128 127 127 126 124 122 122 121 120 121 122 121 121 116 111 107 66 51 81 77 112 123 107 107 105 99 96 98 94 94 99 107 115 125 131 134 138 143 147 146 145 144 138 135 132 129 125 123 119 117 111 107 105 102 100 103 101 101 104 106 111 116 112 109 66 53 80 79 111 104 102 105 112 110 98 88 81 79 79 80 84 97 109 120 131 137 141 145 144 141 135 130 126 119 111 103 96 90 83 84 82 81 82 82 87 90 89 91 92 102 112 110 66 55 80 79 101 105 116 122 126 124 117 111 106 101 95 92 94 100 105 115 125 136 141 147 145 140 131 124 117 106 93 86 80 76 74 74 76 77 82 85 88 89 90 88 89 89 97 108 66 55 79 79 103 117 124 122 122 117 114 109 105 103 100 101 103 104 107 116 124 132 143 149 148 142 132 121 110 98 87 81 82 83 85 85 90 94 97 99 100 101 99 96 92 92 89 98 66 55 79 80 109 120 119 113 106 93 94 98 99 92 86 85 94 103 107 113 124 132 142 152 152 143 131 119 106 90 79 77 82 86 84 82 86 89 92 94 97 99 100 99 98 96 93 91 62 53 79 78 106 115 113 100 85 97 97 81 77 76 84 89 88 96 105 113 124 133 142 155 157 146 134 119 105 87 75 77 83 79 80 98 105 106 97 91 81 79 89 95 96 97 97 94 60 53 80 78 101 111 105 84 91 79 76 70 92 62 69 75 88 95 105 116 124 132 144 158 158 149 132 117 102 87 78 81 83 84 97 99 80 73 73 69 69 76 73 82 91 93 95 97 60 53 81 78 97 106 98 90 77 84 119 84 104 57 61 80 91 87 108 121 128 133 142 155 160 151 133 116 102 93 85 87 92 86 86 116 104 90 59 69 69 71 77 74 83 92 93 98 64 54 83 80 95 105 101 91 82 106 129 104 82 70 80 88 101 95 117 134 133 135 141 156 160 155 137 115 103 99 99 109 98 77 104 134 96 77 61 79 77 79 71 77 78 91 97 99 63 54 86 80 94 105 104 101 97 104 118 127 102 100 105 115 116 123 132 137 139 139 144 156 158 153 138 115 105 104 106 117 120 110 111 127 116 94 92 90 92 96 85 82 85 91 99 102 64 55 88 82 98 110 114 115 109 109 115 120 121 117 114 114 121 128 135 140 142 140 147 155 158 153 136 117 107 107 110 117 121 121 121 120 122 122 115 110 104 102 95 93 99 101 103 106 67 54 89 87 107 121 127 127 123 123 123 123 121 117 118 124 130 135 142 145 143 143 146 154 152 151 133 119 113 110 113 119 123 125 124 121 120 117 115 112 107 106 106 110 118 121 118 114 72 55 90 91 119 132 135 136 134 131 127 127 125 125 129 132 136 143 146 145 142 145 145 152 152 147 134 120 115 112 115 121 126 129 130 128 123 120 116 114 117 117 121 124 127 130 129 123 74 57 91 97 127 139 143 142 139 139 138 138 138 138 138 140 145 148 148 146 143 145 144 150 151 146 131 118 115 117 115 123 128 132 132 132 131 131 130 131 132 133 133 134 135 134 131 126 74 57 89 103 134 145 148 146 146 147 145 146 144 142 144 147 149 150 149 145 144 143 142 147 146 144 130 117 114 115 115 122 128 133 136 138 136 135 136 138 137 139 139 140 139 137 133 127 75 59 89 110 138 147 149 149 150 148 148 148 147 146 151 152 154 151 149 145 145 143 139 142 145 139 128 118 114 114 114 119 124 132 137 138 141 141 140 141 141 144 144 143 140 136 131 126 75 61 87 115 140 146 149 149 151 152 151 151 150 151 155 156 154 152 148 147 145 141 139 144 146 138 126 117 114 113 116 118 122 131 139 145 144 145 146 145 144 145 144 142 140 135 130 125 75 59 87 119 140 146 147 151 151 153 154 155 155 154 157 157 152 152 149 146 141 140 141 144 144 135 125 118 116 113 114 116 121 128 136 145 145 150 148 147 148 146 144 141 136 132 127 123 73 59 88 120 138 143 145 148 152 154 155 154 155 157 155 156 153 152 148 142 139 138 142 143 144 135 124 117 114 113 111 111 116 123 133 143 148 152 152 150 149 148 144 140 135 130 125 120 73 59 90 121 136 141 145 148 153 153 155 156 156 157 154 154 153 149 143 139 141 141 146 149 149 146 128 117 113 112 112 111 107 116 129 138 144 148 149 149 150 148 143 138 134 129 124 119 72 60 93 121 135 140 143 146 149 153 155 155 156 154 151 149 149 143 137 136 138 138 151 159 150 144 126 113 109 110 110 113 107 109 123 133 140 144 144 147 146 146 142 137 132 126 122 118 70 59 96 121 132 139 144 147 150 153 153 155 156 152 149 147 144 139 136 134 129 126 135 135 133 128 112 97 95 103 109 111 109 102 112 126 134 139 144 145 146 145 141 137 129 124 121 118 70 59 98 118 132 139 141 146 150 152 153 154 152 149 145 140 135 134 132 128 118 115 120 118 119 112 95 85 87 96 105 107 104 99 103 117 130 137 139 143 143 140 134 130 127 123 120 118 71 60 101 116 131 137 141 145 149 152 152 151 149 144 138 132 129 130 127 117 88 73 97 110 106 98 85 77 75 81 91 96 95 96 99 109 125 135 138 140 138 134 129 129 125 122 119 115 70 67 114 114 130 137 140 142 146 148 148 149 144 142 135 127 128 131 127 109 86 79 88 106 96 93 79 65 62 65 79 89 87 96 101 108 120 130 135 135 133 134 132 129 125 121 117 114 70 69 118 113 127 134 138 141 143 143 147 147 145 139 131 128 131 134 135 124 100 100 114 112 95 91 82 75 73 75 83 83 82 101 107 111 120 128 133 134 133 132 129 125 122 120 116 113 69 71 116 112 127 133 137 138 139 141 143 145 139 134 129 127 130 134 137 137 130 117 114 114 101 93 94 88 82 76 74 76 94 112 115 116 120 127 130 131 130 130 127 122 119 117 113 111 68 75 122 115 125 130 135 136 138 139 139 140 136 131 126 126 133 136 138 138 138 135 132 127 114 107 110 104 95 88 89 96 110 117 118 120 120 125 127 128 127 125 123 119 118 114 112 111 67 75 123 119 120 129 128 135 136 137 136 135 133 128 125 131 136 138 138 138 138 137 137 134 124 119 125 124 119 114 113 115 117 119 120 120 119 120 123 125 125 121 120 117 114 112 110 108 65 73 119 117 116 129 128 132 133 133 131 132 129 126 129 135 135 137 136 137 141 139 140 138 127 125 134 139 137 128 124 122 119 120 121 118 117 117 120 121 119 116 117 113 112 108 107 106 65 72 116 114 110 128 129 131 131 130 130 129 125 125 130 132 135 136 136 137 142 143 143 142 134 134 145 149 149 135 128 125 121 119 117 115 114 114 115 116 116 115 113 111 110 105 105 103 64 69 101 103 101 126 130 130 129 126 126 127 124 127 129 129 131 135 140 143 145 146 147 145 146 147 149 147 146 136 132 127 121 118 115 111 112 114 115 112 112 111 110 108 106 102 102 103 63 68 93 80 81 119 129 129 127 128 127 124 124 128 126 122 125 135 140 142 139 129 121 116 121 128 127 117 115 113 115 117 118 116 114 110 107 110 115 111 110 111 109 108 105 103 102 102 64 68 101 84 75 109 128 129 128 127 127 126 125 126 120 108 119 129 129 117 108 102 97 97 96 99 96 89 89 90 91 92 95 101 105 101 100 104 112 113 114 115 113 110 107 104 102 102 63 69 105 90 74 98 126 127 128 127 129 129 127 123 109 87 93 102 97 90 86 83 80 95 109 89 84 86 81 74 74 76 79 79 81 84 85 92 106 115 118 123 118 111 107 104 103 102 64 72 107 92 74 89 118 128 128 128 129 131 126 116 98 81 92 90 97 105 107 110 112 114 115 109 107 111 110 104 102 98 94 88 78 72 70 79 100 115 123 128 121 113 106 104 103 103 65 73 112 97 77 83 110 127 128 128 129 130 128 114 102 111 125 117 118 119 123 130 135 137 137 133 132 133 133 128 120 111 106 101 98 99 104 105 111 119 128 131 124 112 107 104 104 105 64 73 116 99 87 78 101 122 128 129 132 134 130 122 116 128 134 133 130 128 128 130 132 134 132 129 128 127 125 121 115 109 105 104 105 107 111 117 122 126 135 134 125 112 106 103 102 105 64 72 119 107 87 80 91 114 126 129 130 133 134 129 125 134 137 135 134 133 131 131 128 125 121 119 117 116 116 115 114 110 108 106 107 109 113 120 120 131 138 135 121 109 104 103 104 103 63 71 115 113 93 84 79 107 120 128 131 133 136 132 130 134 137 136 135 133 132 131 128 123 122 121 120 118 117 116 113 109 107 107 108 109 117 122 125 134 139 131 115 107 103 102 102 102 63 70 113 116 101 93 80 93 113 124 129 131 135 135 133 137 139 136 136 134 133 131 129 128 130 131 130 125 124 120 117 113 109 109 111 114 119 121 128 134 132 122 110 104 101 100 100 98 61 72 114 111 103 97 85 80 106 118 126 129 133 134 135 138 138 137 136 137 138 139 138 139 141 139 134 132 132 129 123 119 117 115 115 118 119 122 127 129 128 117 106 101 99 98 98 98 60 69 115 105 106 99 92 83 95 112 121 127 130 132 136 139 139 138 138 140 142 146 148 149 150 149 148 145 141 134 129 124 120 118 119 118 118 122 127 127 121 112 104 100 99 98 96 95 58 67 115 108 106 100 97 90 82 105 114 122 127 130 135 137 138 139 140 142 144 147 152 154 155 153 150 148 146 140 133 125 123 122 123 121 119 122 123 119 114 107 101 99 99 97 95 93 57 67 110 111 99 102 87 89 88 92 108 116 126 130 133 136 137 139 142 145 146 148 152 155 157 155 152 147 143 138 130 127 126 127 126 123 119 118 117 112 108 103 100 99 97 95 93 90 55 69 110 108 100 94 95 84 93 92 102 112 120 127 132 136 136 137 143 146 148 148 150 154 156 154 148 147 141 136 130 126 127 129 125 118 118 115 113 109 105 102 100 98 95 92 90 87 55 69 113 107 108 90 90 89 87 89 95 107 113 120 132 132 134 136 141 146 148 152 151 152 153 152 146 144 140 132 127 126 126 128 120 115 115 112 109 105 104 100 99 95 92 89 87 87 57 62 112 111 106 101 86 81 91 87 85 106 106 115 127 132 132 133 141 146 147 149 153 153 154 151 143 139 135 132 127 123 124 124 117 114 112 109 106 103 101 98 95 92 88 87 86 89 58 61 103 107 106 102 92 86 83 90 79 106 104 108 118 128 131 133 138 143 147 148 151 153 151 146 139 134 131 127 124 124 123 121 117 111 108 105 101 99 97 94 91 88 86 85 86 91 60 59 101 103 97 101 98 87 87 84 77 103 107 104 109 121 126 129 136 138 143 146 145 146 142 138 134 129 125 125 122 123 119 117 111 106 105 101 99 97 93 89 87 85 84 84 88 93 61 60 99 102 99 95 98 84 89 87 71 97 109 104 103 113 121 124 130 133 137 139 140 138 135 131 125 122 121 121 120 117 115 112 107 104 101 96 93 89 87 85 84 83 83 86 91 95 62 37 61 64 59 56 57 57 52 50 46 59 68 66 63 65 73 75 78 80 80 82 82 81 77 75 74 73 72 71 71 68 66 65 64 61 59 56 55 52 51 51 51 51 51 54 57 59 38 