P2
48
60
255
17 31 39 47 55 58 58 61 62 64 65 65 67 70 73 74 74 74 73 73 72 74 74 71 71 71 71 71 72 70 69 69 68 64 61 60 58 58 59 59 58 57 55 51 51 50 47 28 28 57 72 87 89 94 101 103 105 108 108 112 112 115 120 121 121 121 121 122 121 120 121 120 118 117 117 118 117 118 117 113 113 109 105 101 99 98 99 98 97 95 91 87 83 81 78 46 31 65 81 87 91 101 107 109 110 112 111 113 114 118 122 123 123 122 124 124 121 123 125 124 122 119 118 119 120 120 120 119 118 115 109 106 102 102 102 101 98 95 93 88 86 82 79 48 34 71 84 85 97 108 110 111 113 115 117 118 119 124 125 125 126 125 125 125 124 124 125 125 122 119 120 121 120 122 122 123 120 119 115 110 108 108 106 105 103 99 95 91 86 84 81 48 39 74 81 94 105 109 113 115 119 120 122 122 123 125 126 126 126 126 125 126 126 125 126 125 121 120 121 124 124 125 126 126 123 122 120 117 114 112 111 109 109 103 99 95 90 86 84 50 43 80 91 99 110 114 116 120 123 124 124 125 125 125 127 127 127 126 125 127 127 127 126 126 124 123 123 123 125 124 127 126 123 120 118 115 109 106 99 98 100 103 102 99 96 93 90 52 47 87 95 105 112 114 117 120 119 110 102 106 113 115 118 120 117 119 122 124 124 123 125 125 125 125 123 124 125 124 122 118 110 104 99 94 93 93 99 96 96 95 99 101 98 97 94 55 51 92 101 111 115 116 105 97 97 98 99 95 91 96 105 107 111 112 117 122 122 121 122 123 123 121 116 122 122 119 113 106 98 92 90 96 106 114 117 114 111 104 97 96 98 98 96 57 56 99 107 111 115 103 97 111 125 126 125 118 109 102 100 102 108 109 112 117 118 119 121 122 121 119 118 118 114 112 108 100 95 91 95 101 106 109 112 112 111 111 106 100 97 98 98 58 60 105 109 106 96 108 127 134 132 128 122 116 110 105 100 101 102 106 109 111 115 118 120 120 119 116 115 114 108 102 99 93 89 91 94 98 100 102 104 106 107 108 108 105 98 98 99 59 62 103 103 99 110 130 132 129 121 115 110 105 102 100 95 94 95 98 103 108 113 116 117 116 114 111 110 106 98 93 90 87 90 93 98 101 105 108 105 104 104 104 105 106 102 99 100 60 60 103 96 107 123 126 123 119 114 111 106 104 101 99 96 95 93 93 98 102 108 113 114 112 112 107 102 97 92 88 88 91 96 102 110 113 114 116 112 107 103 101 101 103 104 101 100 61 63 99 106 115 119 118 115 113 112 110 108 105 103 100 97 97 97 96 95 100 107 111 115 115 112 104 96 91 88 90 92 96 103 109 105 105 108 108 103 99 99 99 99 100 103 102 103 62 63 103 111 113 110 110 109 109 106 100 97 95 96 95 94 92 94 96 95 98 106 114 120 120 116 103 94 89 89 91 94 98 100 104 109 110 109 113 106 100 95 94 98 99 101 103 104 63 64 107 109 105 103 103 102 99 103 106 101 100 97 93 90 87 88 92 92 95 105 116 126 127 119 105 94 89 89 91 93 99 105 100 91 81 78 81 83 86 92 92 96 99 100 103 105 64 66 108 106 100 99 97 94 100 92 75 65 60 59 66 72 83 87 90 92 99 111 122 132 134 125 108 97 94 93 95 100 101 88 84 90 74 72 73 83 80 81 86 91 97 100 105 107 65 67 108 102 98 95 87 80 72 63 59 67 53 55 81 80 72 80 95 104 112 122 127 134 138 131 114 100 101 108 109 98 84 99 110 77 72 73 78 97 89 84 85 90 96 102 108 108 66 67 107 100 94 86 73 65 82 97 58 56 55 61 104 101 88 90 95 109 120 124 127 136 139 134 118 105 104 111 105 103 105 106 110 90 84 84 95 100 94 93 95 97 101 107 112 111 67 68 110 104 95 90 89 89 93 98 87 79 82 90 100 102 102 99 100 110 122 123 128 136 137 133 121 108 104 112 108 104 104 105 106 104 102 100 99 100 99 98 100 105 109 112 115 114 68 71 116 112 105 101 99 106 112 113 108 101 99 98 94 90 90 99 112 124 125 125 132 137 136 133 124 110 103 110 119 115 108 103 99 98 99 99 98 98 97 100 106 111 113 114 117 116 69 71 120 117 112 110 101 97 98 97 95 92 88 85 88 97 108 118 128 129 127 128 134 139 139 136 127 114 106 107 117 122 121 117 111 105 100 98 98 100 106 113 117 117 117 117 117 117 70 72 119 118 119 119 116 111 105 101 98 98 102 109 115 120 126 133 133 128 127 131 133 137 138 138 130 116 108 105 111 119 126 127 126 121 118 117 116 117 120 124 123 122 119 118 118 117 70 72 117 121 124 124 123 121 120 120 120 121 124 125 128 131 133 133 130 127 128 129 131 136 139 135 129 118 110 106 107 115 125 127 126 129 126 126 126 126 127 128 128 124 120 118 117 116 71 70 116 122 125 128 130 129 127 125 125 126 128 130 131 131 131 128 129 129 127 129 132 136 135 133 128 120 113 110 106 112 118 125 125 128 129 126 127 128 130 128 127 122 120 118 118 116 71 70 115 118 123 129 131 133 131 129 129 130 129 131 130 130 131 132 130 126 125 129 136 137 136 133 127 122 118 113 109 108 114 120 124 126 128 129 129 129 128 127 125 123 119 118 118 117 71 70 114 118 125 129 130 130 129 129 131 132 132 131 130 131 130 126 123 124 126 132 137 139 139 139 131 124 122 118 112 107 109 118 123 127 132 135 136 133 132 128 125 123 119 118 118 117 70 70 113 118 123 124 127 132 133 134 134 134 133 131 128 125 118 118 122 125 129 136 141 143 145 145 142 126 126 123 115 112 107 108 116 124 131 132 136 136 135 130 126 123 120 119 117 117 69 70 117 121 122 124 132 133 137 138 136 132 129 124 120 115 111 119 127 129 137 146 149 150 147 140 133 126 125 124 116 112 114 106 110 118 124 128 131 133 132 129 125 123 120 118 119 116 68 72 120 123 125 128 133 130 138 136 133 127 121 116 112 110 112 124 131 135 136 138 138 140 136 128 121 114 110 108 108 110 113 108 108 111 118 124 128 130 130 126 125 121 118 117 118 114 65 72 118 120 124 127 132 134 135 130 122 116 113 108 107 109 109 123 129 127 117 110 111 121 124 117 107 99 93 92 98 102 105 107 109 108 111 116 121 124 125 123 121 119 118 116 115 111 66 69 114 117 122 126 131 131 128 120 112 109 104 104 110 111 105 115 115 105 92 91 101 113 111 102 96 91 80 77 81 87 94 112 113 110 111 112 117 118 120 118 117 114 115 115 112 110 70 68 110 115 118 122 122 123 118 112 105 100 101 108 116 113 108 104 84 71 74 80 87 103 98 90 87 78 73 74 77 82 104 117 114 111 110 111 112 115 114 112 112 111 111 112 111 108 69 67 109 110 113 115 117 116 111 104 100 97 106 116 120 119 121 115 97 89 95 102 100 100 90 82 79 77 79 78 80 90 111 114 112 110 109 110 111 110 111 110 109 109 109 110 109 108 69 66 106 107 110 110 111 108 101 97 95 102 114 122 120 120 122 123 120 117 117 118 113 105 96 90 93 97 100 100 100 107 111 111 110 106 105 108 108 107 108 108 107 107 107 107 109 113 72 62 101 103 104 104 102 99 96 94 98 106 115 119 119 120 122 123 123 123 121 117 110 104 101 105 111 114 115 112 111 111 111 110 108 105 101 102 103 105 104 104 104 104 104 106 106 109 69 60 96 100 100 100 99 97 94 92 95 107 114 116 119 121 122 124 124 126 124 117 109 108 112 118 121 120 117 113 113 111 110 109 108 107 102 97 98 102 103 101 102 102 103 106 99 100 62 59 95 97 97 96 95 96 95 90 103 109 115 118 121 122 123 124 127 128 128 123 121 120 119 120 121 123 118 112 113 111 112 111 109 106 104 98 96 103 102 100 100 102 103 104 96 97 61 57 92 95 96 95 97 100 96 102 101 101 111 118 122 124 121 118 116 111 109 108 107 104 105 104 100 97 94 93 95 95 98 103 106 103 99 96 99 104 103 100 101 101 104 100 95 98 62 57 91 94 96 97 99 98 102 99 82 102 111 112 105 98 94 93 93 91 91 90 90 91 92 87 83 84 84 84 85 84 85 87 89 92 93 96 103 107 104 103 101 101 103 96 95 98 62 58 91 94 97 97 101 101 104 93 75 83 82 79 77 81 84 86 87 87 88 86 87 85 85 85 85 83 83 83 83 84 85 85 82 83 87 96 106 107 104 103 102 102 100 94 95 98 62 58 93 93 96 99 105 103 104 92 71 65 66 85 93 96 100 111 109 115 115 118 113 105 97 109 127 113 102 107 92 94 88 83 80 90 96 101 106 106 104 102 100 101 94 93 95 98 62 55 91 92 96 101 103 105 104 96 85 87 72 102 111 127 131 150 124 152 147 142 162 154 132 162 159 148 126 134 111 112 99 86 97 104 102 103 106 105 104 100 100 96 91 93 96 99 63 56 90 92 94 99 106 105 106 101 97 105 95 98 113 138 140 146 133 166 166 168 174 168 158 172 161 151 132 127 112 110 101 101 107 103 103 106 106 103 101 98 98 91 91 94 99 99 63 53 90 92 94 98 102 105 108 108 108 109 110 101 106 114 119 130 125 149 149 160 162 154 145 153 141 132 106 105 101 107 107 108 103 101 106 105 103 99 97 97 92 89 92 97 98 99 62 50 87 90 91 95 98 102 107 113 113 113 113 108 107 112 114 118 125 123 121 121 126 123 120 124 122 119 119 116 108 105 100 98 98 105 105 104 100 96 95 93 87 90 94 96 97 99 62 42 83 86 89 91 96 99 103 110 116 116 117 116 108 104 107 123 132 131 129 122 121 125 128 134 131 119 114 109 100 94 95 95 100 105 103 100 95 93 93 89 89 93 95 95 96 98 62 39 73 81 85 89 91 95 97 105 112 117 118 116 113 107 103 105 110 118 118 110 107 106 106 105 100 98 94 90 89 91 92 96 101 102 99 95 92 92 90 87 92 93 93 94 96 99 61 37 65 76 82 85 87 91 95 99 106 112 115 115 114 113 108 104 101 102 102 100 99 99 99 96 91 88 87 87 88 90 93 98 100 99 94 91 90 91 88 89 90 91 92 94 95 96 60 35 60 70 80 84 86 88 91 95 101 108 110 113 112 111 110 106 99 93 89 86 85 83 83 81 80 81 82 84 87 89 95 98 98 94 91 89 91 102 89 88 88 90 92 92 93 94 60 33 56 61 74 80 83 86 88 93 96 100 105 107 109 108 105 102 99 95 89 86 83 82 79 78 78 78 80 82 87 92 96 96 95 91 89 89 111 99 88 87 88 89 90 90 92 94 60 33 55 58 66 76 82 86 88 93 95 99 102 103 105 106 105 102 98 93 88 88 87 84 82 82 82 82 86 88 92 93 95 94 90 89 87 95 117 93 86 87 87 87 88 90 91 94 59 33 54 56 58 69 78 85 87 93 97 98 102 104 104 106 105 104 102 98 94 93 94 91 90 90 90 90 91 92 93 94 93 90 90 87 84 90 103 88 87 84 84 84 87 89 90 93 59 33 53 54 55 59 71 82 87 90 96 98 100 103 105 106 106 108 109 108 108 109 108 107 105 103 100 98 96 96 95 95 91 89 88 83 81 93 109 95 100 83 82 84 86 88 89 92 58 34 54 53 55 55 58 70 83 88 93 96 100 101 105 109 107 109 111 114 115 116 115 113 109 108 106 102 100 97 95 91 89 88 82 79 79 90 135 111 106 84 82 83 85 87 89 92 58 34 56 56 56 55 55 57 69 82 88 93 98 98 103 109 111 113 116 117 118 115 112 112 109 110 107 101 99 96 91 89 87 82 79 78 79 82 92 99 103 84 82 85 85 86 87 91 58 36 58 59 60 59 57 56 57 68 82 88 93 97 99 105 111 114 116 115 116 113 110 108 105 103 97 92 93 91 87 86 81 76 76 76 78 78 77 78 82 81 82 84 84 85 88 91 57 44 68 66 65 64 64 63 60 62 69 80 86 94 98 100 106 106 105 107 106 105 102 98 95 93 88 87 86 85 82 79 73 73 75 75 77 75 76 76 77 79 82 83 85 83 87 91 56 48 77 74 74 72 71 70 70 67 69 75 78 87 92 94 98 99 98 100 96 91 88 86 85 83 80 80 80 79 76 71 71 73 73 74 76 75 74 75 75 77 79 82 83 83 86 89 55 49 79 80 81 79 77 76 75 71 74 79 83 80 83 89 92 91 92 90 85 81 77 76 76 76 75 73 73 71 69 71 72 73 74 76 77 76 73 74 75 76 77 81 81 82 85 87 54 30 50 52 52 52 51 49 49 47 48 51 53 52 49 49 51 52 53 51 50 47 46 46 45 44 43 43 42 41 43 44 44 46 47 48 48 46 44 45 46 47 47 49 49 50 52 52 33 