P2
48
60
255
53 88 91 93 95 98 100 103 103 104 106 105 108 109 108 104 104 101 99 100 99 99 97 95 94 96 99 98 95 96 95 91 90 87 85 85 82 81 78 77 75 74 71 66 61 49 35 20 86 145 145 148 154 160 163 167 170 171 172 172 173 173 172 170 167 163 162 159 160 161 157 157 155 156 155 157 153 153 152 146 146 144 140 133 131 131 127 124 122 118 115 108 101 82 60 31 87 146 147 148 154 160 165 170 169 171 173 175 173 172 169 168 163 162 159 156 159 156 157 157 153 154 153 155 153 150 148 147 146 144 140 135 132 131 128 127 122 117 115 110 103 84 60 31 87 145 145 148 155 161 167 170 171 172 174 174 174 171 171 167 166 162 161 157 157 156 155 154 154 152 150 151 148 148 145 146 144 141 139 135 133 133 131 129 124 118 115 109 102 86 59 31 87 143 145 149 153 161 166 168 170 169 172 175 173 171 169 167 164 161 158 157 156 154 153 154 152 151 150 149 151 148 147 145 139 139 136 133 132 134 134 130 123 120 115 109 105 91 61 31 88 142 145 148 154 162 166 170 169 169 174 171 170 169 164 164 162 159 156 154 153 151 153 149 149 148 144 142 147 143 141 136 136 136 131 127 130 132 133 130 122 120 115 111 106 98 65 30 89 140 145 149 152 161 168 168 166 168 168 165 166 165 160 158 155 152 152 151 154 152 151 147 144 143 139 138 137 134 132 131 130 132 132 127 127 128 128 126 122 120 115 112 106 102 71 31 87 140 143 148 151 159 161 161 154 153 151 150 151 152 152 150 144 141 145 149 152 151 148 148 144 137 134 130 126 124 126 124 124 124 119 116 115 114 117 121 119 118 115 112 106 103 79 31 86 138 143 147 147 151 150 145 141 136 129 119 111 111 113 120 125 129 137 144 148 149 147 146 139 132 125 119 117 113 112 109 104 100 95 95 94 99 102 105 108 111 112 110 107 103 81 32 86 135 138 128 128 131 126 126 121 111 100 93 90 88 88 89 95 105 117 137 145 149 146 141 135 126 119 110 105 94 88 79 75 75 75 79 84 95 103 104 100 98 97 96 105 103 85 34 84 138 137 131 128 133 138 141 134 125 108 98 91 87 90 92 96 99 111 131 141 149 145 136 131 124 117 103 92 79 71 66 66 69 72 80 91 100 105 106 104 103 99 100 104 103 88 36 85 139 143 145 142 142 146 144 136 123 110 101 93 91 95 99 104 109 120 132 144 153 149 140 136 126 115 97 79 70 66 65 67 74 83 91 99 103 104 104 106 106 107 104 105 103 91 38 85 139 141 141 142 142 139 132 121 109 95 82 74 72 78 92 100 112 125 136 148 159 159 147 141 126 112 95 76 65 63 63 64 68 70 75 80 82 88 93 98 101 103 104 105 103 94 40 85 140 140 139 137 134 125 102 83 73 67 62 57 59 65 69 93 106 122 136 146 161 165 152 146 129 112 96 76 62 57 57 71 67 61 60 65 66 64 66 78 89 94 97 101 103 94 42 86 141 138 135 129 115 85 76 63 53 51 45 54 63 70 74 81 101 117 130 143 161 169 161 154 132 111 91 70 57 55 66 66 54 55 53 54 56 60 61 58 70 83 91 97 103 96 44 86 141 137 129 112 78 73 60 66 67 75 39 54 79 74 78 87 98 117 132 142 157 171 164 160 138 114 95 72 61 64 60 80 62 64 45 54 61 60 57 60 59 72 86 97 102 99 48 86 140 134 119 95 87 69 96 104 67 52 41 69 94 89 76 91 115 128 135 145 154 172 168 165 140 119 103 86 81 58 65 91 70 58 51 66 74 75 63 66 67 71 83 98 103 102 52 87 139 131 118 111 100 101 107 123 87 75 73 88 108 99 96 103 124 136 143 146 154 169 165 160 140 121 110 104 96 81 85 99 101 87 85 86 96 95 94 87 87 90 95 101 108 105 56 90 140 135 127 122 123 122 120 121 118 114 113 115 114 113 118 120 128 139 146 148 153 167 161 157 138 121 111 112 110 115 113 111 110 106 104 98 95 95 98 107 116 115 111 112 115 109 59 88 142 137 135 137 135 135 134 132 125 115 106 107 110 118 122 127 140 150 150 149 151 161 159 154 139 120 115 117 119 116 113 114 110 110 110 109 112 115 119 122 123 123 123 119 118 109 62 89 142 140 140 141 138 132 128 126 123 116 113 119 126 132 141 151 152 152 149 148 150 157 160 156 140 123 118 117 121 124 122 114 115 117 116 114 112 110 110 117 121 123 120 122 119 112 64 89 143 145 144 147 147 144 137 134 133 138 140 140 142 148 157 159 153 149 151 151 150 154 163 155 143 126 119 115 120 125 131 130 125 122 120 119 117 117 116 122 125 125 123 121 120 115 64 93 150 152 151 147 151 149 147 148 147 148 147 149 155 161 164 157 153 147 150 149 152 160 160 157 145 129 117 118 120 124 131 136 139 138 132 133 133 132 134 136 135 129 125 122 120 115 66 93 154 156 156 153 149 154 151 153 152 157 156 157 163 166 164 157 147 150 151 148 153 159 160 157 149 132 120 118 117 121 126 136 142 140 139 143 142 145 146 144 140 132 126 124 119 116 67 95 155 156 157 156 159 154 157 154 158 160 163 162 161 162 160 158 149 148 149 149 151 158 159 155 148 134 118 115 116 119 124 135 143 147 144 144 144 145 147 146 140 132 127 124 119 115 67 94 155 156 159 161 162 161 162 162 161 161 161 161 161 160 160 157 150 146 146 147 153 160 162 160 155 137 119 111 108 111 121 132 143 152 151 150 148 150 146 143 137 132 127 124 121 115 66 93 153 156 158 159 162 163 165 168 167 164 164 162 159 157 158 155 145 139 142 148 154 166 164 165 169 137 118 106 101 100 115 127 140 147 151 150 150 150 145 141 135 130 126 123 119 115 66 92 152 153 155 160 164 168 172 169 168 167 168 161 157 154 150 145 137 140 142 145 157 170 159 150 143 127 116 108 110 96 107 119 132 138 146 147 147 147 142 137 133 129 124 118 118 114 66 90 148 153 156 162 168 170 173 167 166 168 168 160 154 147 139 129 134 145 146 138 144 150 148 135 127 117 104 106 114 97 96 112 126 132 138 144 143 139 139 133 131 127 122 119 116 112 65 91 149 152 153 161 170 170 170 172 169 166 163 155 148 141 134 120 138 153 146 133 128 131 131 121 110 96 90 102 113 104 89 103 117 125 133 137 141 137 136 132 130 125 120 117 114 110 63 90 146 151 152 158 166 168 168 168 167 164 158 149 139 132 126 117 140 139 122 114 124 125 115 105 96 83 77 89 100 103 85 94 108 120 129 134 136 134 133 129 126 121 119 115 111 107 61 88 146 148 149 155 159 163 166 166 166 158 147 140 133 125 116 113 129 110 69 56 83 115 101 92 84 65 51 59 79 90 83 88 102 113 123 129 132 131 128 126 124 119 118 112 109 104 60 88 144 146 149 152 156 159 162 161 159 153 143 133 127 115 105 114 129 101 84 93 117 118 95 87 68 53 50 57 72 89 85 84 96 108 118 124 126 127 126 123 122 118 116 111 107 102 58 88 143 144 148 150 153 157 158 157 152 146 138 129 117 102 102 125 137 130 113 123 125 116 99 79 65 60 59 61 75 103 98 86 93 106 114 120 123 124 122 120 120 116 113 109 104 100 56 89 142 144 146 147 149 153 152 150 147 141 131 123 108 97 115 133 139 138 133 124 123 114 90 79 77 70 64 63 88 110 111 100 94 103 111 114 118 121 119 117 116 113 109 107 103 99 54 88 141 143 144 145 146 148 146 145 143 134 124 113 98 107 131 138 140 141 143 140 133 112 86 98 96 84 80 84 105 118 118 113 100 102 109 113 113 113 114 114 112 111 106 105 102 97 52 88 141 141 142 143 141 141 140 139 134 126 118 103 101 129 138 139 142 142 141 140 129 104 92 111 114 106 105 108 118 122 121 118 108 100 108 112 111 111 111 109 109 109 107 104 101 95 50 86 140 141 141 141 141 140 139 135 128 121 109 95 118 137 139 140 141 141 141 139 131 113 106 126 134 128 124 123 124 124 123 119 114 104 98 104 107 109 108 109 108 105 103 101 100 94 47 87 141 140 140 139 138 138 135 129 122 113 93 108 132 144 144 143 142 141 140 138 132 124 125 140 147 141 132 128 126 124 123 122 117 110 97 99 104 107 108 109 106 102 100 99 99 92 44 87 141 140 139 139 137 135 133 127 121 100 101 129 142 144 144 144 143 139 133 128 121 120 128 136 123 113 109 114 116 119 120 122 118 113 107 92 102 106 107 107 104 100 97 98 97 91 42 86 142 139 139 139 138 135 130 125 112 91 127 128 133 134 134 127 121 120 114 111 107 109 118 111 98 91 89 88 90 93 98 107 112 109 109 98 103 110 109 107 101 98 96 95 94 89 40 85 141 140 139 139 137 136 132 123 106 107 121 109 97 101 98 101 110 111 110 110 102 101 101 96 92 86 83 83 86 79 74 75 82 88 98 107 108 114 111 106 102 97 95 95 95 86 38 84 141 142 140 139 137 138 132 124 111 119 110 79 65 74 88 100 95 87 90 97 95 99 90 91 87 73 69 70 67 69 69 60 60 75 94 113 117 120 114 106 100 95 94 95 93 83 36 79 140 141 141 139 137 135 134 130 122 125 114 110 116 106 105 107 106 105 106 104 104 97 90 88 85 89 90 83 78 76 77 82 96 110 113 117 123 120 112 104 97 94 93 96 92 78 35 74 136 139 140 138 136 136 136 136 134 132 129 130 135 137 129 126 130 132 134 136 138 137 134 133 135 135 125 113 108 108 108 113 121 123 121 120 126 119 110 101 95 93 94 94 89 71 35 68 133 138 139 138 137 136 137 136 137 132 134 138 140 143 142 136 132 131 130 134 135 134 134 132 128 122 112 101 99 103 106 114 122 123 120 118 121 115 106 98 94 93 94 92 87 63 35 64 124 138 138 138 138 136 130 136 135 131 136 140 140 142 142 140 138 131 123 121 120 117 116 113 109 101 93 92 95 101 108 116 119 118 117 114 114 109 101 94 93 93 94 90 81 59 35 61 114 133 136 136 136 133 133 133 131 131 134 139 137 138 141 139 136 135 127 117 108 110 105 99 94 92 92 93 95 101 108 111 114 113 113 110 109 103 95 90 91 91 90 86 72 56 35 42 107 128 134 134 135 132 131 130 129 131 134 138 137 140 140 138 137 133 129 119 105 97 94 88 84 86 90 95 99 104 107 109 111 110 110 106 103 95 89 89 88 90 88 81 62 56 36 28 89 120 132 135 133 133 131 129 130 133 137 140 141 142 139 137 135 132 127 118 107 101 98 93 95 95 95 98 99 104 106 107 109 108 107 106 100 93 89 87 87 86 82 72 55 56 35 28 60 113 127 131 132 133 132 131 130 133 137 140 141 141 139 138 135 132 123 113 106 102 103 101 102 102 102 103 104 105 107 107 107 106 107 104 99 93 88 87 86 82 76 61 53 55 34 27 45 90 123 129 130 133 132 131 131 137 141 141 143 141 140 140 138 133 128 123 119 122 125 128 128 125 121 117 113 114 111 109 105 107 107 103 98 92 88 85 81 75 67 53 53 54 35 29 43 53 108 124 129 130 131 133 136 138 142 145 143 143 144 141 140 139 143 147 152 155 155 156 152 147 140 132 122 117 114 110 111 110 107 102 97 93 89 82 75 68 56 52 53 55 35 26 44 45 71 113 124 127 130 133 135 137 141 143 146 148 145 145 147 150 156 158 160 159 160 157 156 147 144 139 131 122 117 114 111 109 106 102 96 90 85 76 69 60 51 52 54 56 36 29 45 48 52 80 111 121 127 132 134 135 141 144 146 147 148 150 151 157 160 160 163 160 156 152 150 148 144 136 129 122 119 114 110 108 105 99 91 84 76 68 62 57 53 53 55 56 34 29 46 51 52 58 85 110 119 126 132 135 139 141 145 145 148 148 154 159 160 162 163 161 154 151 147 142 140 135 125 121 117 113 109 105 100 92 83 74 67 62 62 59 52 53 55 54 34 29 48 51 53 56 71 88 104 114 124 129 133 138 140 141 144 146 150 156 159 165 162 153 148 144 141 139 135 129 119 116 114 108 104 100 93 83 73 64 60 61 64 60 55 53 56 55 33 29 50 50 53 55 70 80 89 99 110 120 126 129 135 136 138 140 143 149 154 160 155 149 138 136 134 129 127 120 113 109 104 102 97 90 81 71 62 59 58 65 66 61 55 56 57 55 35 27 48 50 52 54 68 80 89 92 93 101 112 120 127 132 133 134 137 140 143 145 141 136 129 126 123 122 117 108 105 99 95 92 87 76 66 60 58 57 62 69 69 63 54 56 59 57 34 17 30 31 33 33 41 50 55 59 60 57 58 66 72 77 78 79 82 82 84 82 79 77 74 71 70 69 66 63 59 55 53 51 45 39 36 35 35 36 40 45 44 39 34 33 37 38 22 