P2
48
60
255
33 57 56 56 60 65 73 75 77 78 84 94 100 95 97 92 91 93 97 93 91 87 89 91 93 93 90 88 84 81 86 85 84 84 86 86 84 81 75 70 67 66 62 57 57 53 50 30 53 89 90 91 100 106 117 120 129 128 140 147 155 147 148 148 155 157 155 161 148 141 147 147 154 164 152 143 140 139 135 135 135 139 135 134 128 133 120 117 112 105 100 95 92 85 81 49 53 86 90 91 97 105 115 123 131 128 136 147 152 155 160 163 155 172 174 160 162 157 159 159 160 170 164 153 142 143 136 136 142 142 136 132 127 126 127 119 109 106 99 94 92 86 81 48 51 87 90 96 99 107 120 131 130 137 140 149 163 177 186 182 176 172 185 162 159 167 162 166 168 168 158 152 149 155 151 155 154 147 142 135 130 124 126 123 113 103 100 92 89 83 81 47 52 91 92 96 102 109 119 132 140 144 148 161 180 187 194 181 164 169 168 159 162 165 168 174 175 156 149 148 145 160 162 167 162 152 145 142 136 128 130 128 118 108 101 92 87 84 78 51 54 90 90 94 96 110 127 136 141 153 163 170 182 183 177 154 149 151 160 155 158 163 169 173 158 151 145 144 145 151 152 162 168 167 159 147 141 137 131 117 117 115 102 92 81 82 77 48 53 89 90 94 102 113 122 135 164 183 175 188 193 172 148 141 141 146 144 151 145 159 164 152 142 137 136 138 140 141 136 140 151 160 160 161 160 152 147 129 118 112 106 91 84 80 78 46 54 88 89 94 106 112 117 132 158 176 160 166 169 148 133 135 139 141 142 137 136 150 148 140 136 137 131 134 139 135 126 123 129 132 133 138 144 135 140 134 108 112 106 89 83 80 78 48 54 90 90 97 102 103 104 111 117 121 114 118 113 114 122 122 123 131 133 131 129 143 139 132 131 130 125 128 130 122 108 99 94 97 101 101 94 103 117 109 97 104 101 90 82 82 79 47 55 89 92 98 96 94 120 120 106 109 100 100 90 89 104 108 106 112 116 121 122 134 137 132 132 128 120 115 115 101 88 81 88 83 80 83 78 87 98 100 103 95 91 87 83 81 77 47 55 89 93 96 98 106 115 112 107 104 101 99 83 79 82 92 93 103 106 108 118 135 142 137 136 134 124 106 98 94 82 77 75 76 81 89 94 93 96 103 102 101 93 84 85 81 80 48 55 90 95 95 99 102 111 121 136 135 129 114 97 85 80 81 85 90 98 106 127 143 153 152 143 139 122 100 88 84 80 73 74 83 95 108 120 125 124 122 109 101 94 88 82 84 81 48 55 92 98 104 98 92 117 142 153 149 135 124 125 116 95 79 77 78 89 106 130 156 174 155 156 153 124 104 86 78 73 78 98 120 124 120 120 124 133 122 107 99 85 83 80 84 80 50 57 94 98 98 95 97 110 127 158 155 124 110 110 113 114 97 80 77 88 107 128 155 165 145 158 152 130 104 86 74 76 99 117 115 106 101 108 125 144 123 97 91 88 84 82 82 82 50 59 97 91 91 95 97 103 110 109 105 93 93 89 84 73 83 89 82 88 103 115 140 160 136 147 136 117 104 88 78 84 90 83 95 113 101 95 97 104 103 93 85 83 84 82 81 85 51 58 96 94 90 92 93 85 80 85 61 48 46 54 67 103 102 84 99 100 104 109 122 149 133 137 123 110 105 96 93 88 106 132 105 73 60 57 69 88 80 73 81 81 79 82 83 87 51 60 92 93 93 89 79 69 57 44 43 50 64 101 98 56 80 111 116 110 112 104 114 147 141 141 121 104 106 105 111 120 112 69 60 61 63 44 59 44 58 70 63 74 76 79 85 86 52 59 89 93 90 83 56 52 47 83 52 42 45 93 165 97 79 90 123 116 120 102 123 147 143 143 124 100 107 105 111 104 66 66 137 104 48 42 46 68 51 50 56 59 72 78 83 84 51 59 90 90 85 63 51 46 68 115 78 72 76 105 112 111 116 126 118 120 121 102 128 141 143 138 126 100 103 107 110 104 104 105 127 119 74 68 68 100 79 46 49 47 61 73 79 81 52 56 88 87 80 62 62 72 89 106 122 133 120 114 114 122 127 126 114 134 119 109 129 141 140 140 131 107 99 129 107 113 123 117 120 113 112 121 132 114 98 76 60 54 57 69 76 78 50 54 94 91 80 77 94 92 102 119 128 145 137 119 119 122 127 118 121 139 113 115 132 137 135 133 128 113 99 125 120 110 115 117 117 115 112 121 128 126 106 94 78 70 67 76 82 77 49 56 103 102 88 91 102 99 102 111 129 133 129 122 115 123 132 122 134 126 111 117 130 146 133 128 123 113 100 105 135 116 118 119 112 107 107 116 132 124 109 100 90 83 80 90 94 83 48 57 108 108 102 102 104 108 119 134 146 135 123 114 120 133 134 125 137 116 111 119 127 134 131 125 123 114 101 99 117 123 127 137 125 111 103 105 117 123 119 113 103 93 89 94 98 89 51 60 108 107 111 112 118 127 143 147 139 123 116 124 135 143 143 130 126 109 111 115 123 128 125 122 121 117 102 96 103 119 134 144 143 131 120 108 110 126 135 131 120 110 98 101 99 91 54 63 108 111 115 123 134 143 147 144 136 131 137 146 154 155 143 125 111 105 106 115 125 128 123 124 124 118 108 94 94 112 134 150 152 145 135 129 121 123 129 129 128 124 113 107 99 95 56 63 106 106 112 126 141 144 150 151 141 143 149 153 161 158 141 120 107 102 101 119 164 177 139 136 148 133 109 93 92 100 127 144 157 148 141 134 130 134 132 133 128 125 121 107 100 95 56 61 98 101 106 126 149 168 166 155 139 144 151 152 158 151 145 110 103 102 105 115 168 203 145 142 174 135 110 98 92 93 110 135 151 153 147 140 138 137 137 142 139 136 122 108 98 93 56 59 98 104 107 125 147 163 166 160 151 150 166 170 160 150 126 103 104 113 113 101 114 139 126 126 135 105 98 114 104 96 103 119 143 152 152 146 141 136 132 135 142 137 116 101 92 88 54 57 98 108 115 131 138 156 159 161 156 158 163 160 150 120 104 101 112 135 98 89 98 113 112 111 105 89 83 98 111 103 99 99 129 147 153 156 155 149 141 133 135 130 118 98 91 86 52 58 97 106 111 122 134 151 160 163 156 155 165 154 129 102 99 103 106 94 72 73 87 96 96 92 87 76 62 60 77 92 93 95 107 138 147 153 154 150 147 139 137 129 118 101 91 86 52 57 93 103 106 114 127 149 159 157 146 148 149 135 113 92 99 94 75 45 29 30 55 79 80 75 69 43 28 28 37 67 84 98 94 122 139 146 148 146 139 146 134 124 113 97 90 84 52 57 94 99 106 112 129 136 147 154 150 154 143 123 98 106 99 79 50 28 25 27 40 59 55 54 57 42 31 30 33 56 78 98 93 102 126 134 138 144 139 138 136 123 110 95 89 82 52 57 92 94 100 107 126 133 138 145 145 145 126 111 108 126 111 70 52 44 69 76 91 77 52 57 84 99 96 73 55 57 73 106 103 96 115 126 135 141 136 135 130 118 105 94 88 82 51 56 91 91 97 103 113 130 134 138 133 136 121 116 128 140 120 81 61 81 108 103 107 115 114 105 93 85 91 83 60 59 86 106 114 104 109 124 127 132 128 125 120 112 101 91 85 83 51 56 90 90 93 104 112 120 126 136 136 129 121 128 148 144 136 127 115 114 107 107 102 113 132 121 97 90 93 94 94 99 106 114 119 117 115 119 120 120 123 119 113 108 96 87 86 83 51 57 90 90 93 99 108 115 120 135 127 126 127 140 141 134 129 125 119 111 124 95 80 99 114 103 86 90 76 95 104 109 113 116 121 128 125 119 119 120 117 116 107 99 93 88 85 83 51 57 89 88 92 97 107 110 120 127 124 129 132 138 133 127 125 115 109 99 113 99 94 93 101 96 76 88 84 87 101 93 110 116 118 127 132 126 117 114 111 107 100 97 91 85 82 81 51 53 88 87 89 94 99 107 110 115 117 125 137 135 130 122 115 98 94 91 101 88 104 103 102 96 79 94 83 77 81 81 93 98 113 124 131 129 120 115 109 100 94 91 89 84 80 77 51 53 86 83 84 91 95 102 104 111 124 130 134 128 113 106 99 92 87 96 90 104 110 107 104 105 98 89 83 82 91 82 83 81 93 113 128 129 120 111 100 97 85 84 83 82 80 79 52 54 84 82 84 87 95 96 97 109 122 121 125 111 101 95 92 89 93 93 110 128 130 132 126 125 122 123 115 103 90 72 78 80 79 91 102 112 114 106 101 96 90 84 83 81 78 80 51 53 86 84 81 85 93 93 99 108 112 122 106 96 94 95 92 104 110 123 120 118 112 115 121 113 109 112 114 117 112 90 83 83 81 70 69 95 99 99 97 94 88 80 79 77 78 79 49 52 86 85 84 85 86 95 100 96 101 108 96 100 89 70 80 110 114 109 108 111 102 97 97 93 94 98 96 94 95 96 99 88 73 67 56 73 77 86 92 92 86 81 77 77 77 79 49 52 85 85 83 84 80 92 102 87 92 98 99 86 77 80 93 91 94 89 97 92 80 83 84 85 78 72 71 69 75 77 79 83 81 67 54 58 74 82 87 92 90 82 76 75 76 79 48 52 83 85 82 84 82 90 92 85 85 83 79 78 80 86 80 75 77 75 71 66 64 71 74 70 60 54 54 50 59 63 62 67 75 75 57 48 60 82 82 91 88 84 79 75 75 78 48 50 81 84 83 86 88 89 91 80 70 67 67 76 80 74 61 61 63 58 67 76 76 81 79 84 96 108 109 112 116 111 96 64 56 59 63 49 56 71 72 86 87 84 78 76 75 77 49 51 83 81 82 82 83 91 87 75 63 61 69 64 58 54 69 105 115 124 139 137 141 146 147 150 155 151 142 140 135 113 98 92 83 83 78 68 67 67 70 87 89 81 76 73 76 78 50 51 84 82 82 80 84 89 85 76 66 64 70 80 80 92 108 117 131 140 145 148 152 152 142 144 139 130 127 118 111 94 91 94 88 85 86 76 84 82 86 91 92 81 77 75 77 75 51 52 85 82 82 82 87 92 83 76 79 82 85 91 94 96 98 99 111 114 121 124 126 122 122 121 121 113 110 103 96 90 87 82 82 86 94 92 93 90 92 97 95 82 78 79 78 80 50 55 87 82 81 82 88 94 91 87 89 88 91 92 89 87 90 93 100 105 104 111 112 111 109 108 105 98 93 85 77 72 73 75 81 91 98 96 97 89 94 94 88 81 77 79 80 82 52 59 88 84 82 81 84 91 91 93 93 97 98 95 90 84 78 75 75 78 82 84 79 70 67 62 56 55 55 59 64 67 74 80 89 95 94 96 102 97 93 87 80 80 80 78 80 84 52 64 90 84 85 81 85 89 89 84 88 94 95 97 95 88 79 74 65 55 46 41 38 36 40 43 45 48 53 65 75 82 87 90 91 92 90 95 96 93 87 85 77 76 80 79 81 85 53 80 97 83 83 84 81 86 82 84 90 94 94 93 94 91 93 92 87 76 69 67 66 65 65 66 71 76 75 84 92 95 95 94 92 90 92 93 91 87 82 80 75 79 80 79 82 86 57 79 104 90 87 83 81 82 84 84 85 91 95 91 93 97 96 99 105 106 108 109 115 119 114 112 112 110 112 109 112 112 106 106 95 89 89 91 90 83 77 77 75 77 80 81 84 90 62 77 117 97 90 84 82 81 80 81 88 92 91 90 91 97 107 111 117 124 119 117 123 128 126 123 122 120 117 119 117 116 113 108 97 88 86 83 83 80 75 72 74 78 81 83 85 97 69 74 118 107 94 88 84 81 75 80 85 86 84 89 92 99 111 123 123 123 130 126 124 126 130 125 123 124 124 122 120 119 114 106 99 86 79 81 81 75 72 70 76 80 82 85 93 107 74 70 112 115 99 89 88 82 76 75 80 83 82 86 93 100 108 126 128 135 141 131 126 125 123 122 122 126 125 130 125 120 111 103 95 88 84 77 75 72 70 73 77 80 83 89 100 115 69 68 107 112 111 95 93 84 79 75 77 79 84 88 92 98 102 117 132 140 143 134 116 120 119 117 114 113 112 122 117 114 105 99 93 85 77 77 73 70 71 75 79 84 86 94 105 114 64 78 104 106 117 105 97 88 81 79 75 79 80 85 91 92 94 110 120 128 129 120 109 106 102 96 93 96 100 104 106 102 94 92 85 82 76 74 72 72 72 75 78 85 91 101 112 105 62 115 107 104 111 117 101 93 85 80 74 76 80 84 87 86 85 92 102 108 112 104 96 91 90 86 89 87 89 89 89 88 83 85 79 78 76 73 71 72 78 78 82 88 98 108 110 100 63 88 75 64 66 74 68 58 53 52 48 48 48 50 53 51 48 52 54 57 58 57 57 52 51 51 54 55 54 50 51 49 48 47 47 45 47 47 46 47 49 50 53 57 63 67 65 61 39 