P2
48
60
255
24 43 50 57 64 59 59 62 62 63 62 62 63 63 64 66 67 68 70 71 70 72 73 73 73 74 74 72 72 72 72 72 72 71 69 67 63 60 52 40 32 29 29 29 31 32 33 20 41 72 82 95 109 101 102 100 101 103 103 104 104 105 107 110 111 113 116 118 119 120 121 120 123 122 119 117 116 118 119 120 119 118 116 111 108 101 92 76 58 49 47 46 50 51 55 34 42 74 85 100 109 108 102 102 104 105 106 106 108 109 111 115 116 118 119 121 122 123 123 124 125 125 122 121 118 121 122 123 121 120 119 115 113 109 101 91 71 53 47 46 47 50 56 34 44 77 84 102 123 111 103 104 106 106 106 108 110 113 113 116 120 122 122 124 126 128 126 128 128 127 126 125 124 125 127 126 124 123 120 117 114 112 107 101 87 64 49 45 46 50 53 33 45 78 83 105 123 113 103 102 103 104 106 110 110 113 114 117 121 125 126 128 128 130 131 128 130 127 127 125 128 129 131 130 127 123 120 118 115 112 108 104 98 80 56 46 45 50 50 31 46 78 84 98 118 112 99 98 103 104 105 107 108 108 114 117 120 123 127 130 131 133 134 131 130 128 128 128 131 134 132 125 121 119 120 118 115 111 109 106 101 92 70 49 45 48 49 31 48 79 83 98 118 111 90 87 87 85 81 77 77 84 88 97 108 113 122 128 130 131 133 132 130 130 130 132 133 128 119 112 100 99 102 103 105 103 100 96 91 93 82 57 45 48 48 30 49 79 87 96 98 91 86 89 90 83 87 87 83 79 77 79 86 92 106 122 128 131 132 130 129 129 129 131 123 115 108 95 91 94 94 93 88 88 95 93 88 86 81 69 48 47 48 29 50 80 86 84 90 94 97 104 108 109 110 108 108 104 94 86 81 86 92 105 121 128 130 129 130 125 128 123 117 108 104 102 108 112 121 120 122 121 112 114 107 96 88 74 54 46 47 29 49 81 84 92 99 103 110 116 114 114 114 110 110 113 105 97 92 91 94 102 114 124 127 129 130 125 125 124 116 112 110 117 117 115 117 117 120 127 133 137 135 122 99 84 64 47 47 28 52 82 97 101 99 104 109 110 111 113 113 118 114 112 110 107 102 102 102 107 113 119 124 123 127 127 131 127 123 120 120 121 117 110 112 116 117 119 128 139 137 125 120 106 84 55 47 29 52 90 105 99 96 102 105 107 109 105 104 113 116 115 114 112 109 106 106 111 115 115 120 120 131 132 135 134 132 128 123 117 111 107 113 114 117 124 129 131 127 125 119 119 108 79 50 29 53 97 103 99 98 97 98 101 104 106 109 113 118 120 116 114 112 104 101 108 112 116 123 128 132 138 141 138 133 129 117 109 104 105 111 114 118 124 124 123 125 126 120 121 120 106 72 34 53 98 98 94 95 99 101 101 100 103 108 114 116 116 113 114 113 107 95 99 110 115 123 128 132 141 142 140 130 119 107 103 101 100 107 113 118 123 122 119 119 120 119 121 125 117 100 51 57 95 96 92 96 99 98 96 95 88 84 85 93 100 102 106 107 108 95 88 104 112 121 129 136 146 139 135 124 107 100 98 93 92 94 99 105 110 115 116 114 114 114 115 120 119 112 66 58 94 90 91 93 85 74 61 60 54 48 45 84 56 74 93 106 105 97 84 96 105 119 128 137 140 134 129 116 104 97 92 84 64 51 46 78 57 69 73 88 102 108 107 110 114 115 70 60 97 91 83 71 57 60 67 74 71 60 51 59 79 92 59 75 103 98 82 90 97 114 127 133 137 130 122 112 106 99 78 73 71 59 52 59 69 82 78 68 63 74 92 103 110 115 71 63 101 94 88 89 86 88 89 91 92 93 93 92 90 89 84 80 86 100 85 88 96 111 123 128 131 127 118 109 113 93 89 84 86 87 93 100 106 108 105 99 94 90 92 97 108 116 71 65 106 106 107 107 106 99 94 95 99 103 103 102 96 92 90 89 88 93 87 87 93 107 117 124 124 122 116 113 110 102 94 91 93 97 105 111 116 115 112 111 110 113 113 113 110 117 73 68 109 110 111 114 116 115 113 106 100 99 96 95 91 88 87 87 87 88 87 84 92 103 111 117 121 118 114 114 115 104 99 99 98 96 97 100 104 105 108 110 114 115 116 117 117 114 69 71 113 113 114 116 119 122 124 123 118 115 112 108 101 99 94 91 88 89 84 83 91 102 108 114 118 116 114 113 118 118 111 108 110 112 114 116 116 115 116 116 118 121 122 123 125 119 69 73 118 118 118 119 121 123 125 123 118 113 111 108 103 101 96 94 96 87 83 85 92 102 108 114 115 115 116 114 112 117 121 118 113 115 115 116 118 118 119 120 123 125 124 127 130 126 73 75 119 120 119 119 124 124 125 124 118 116 114 111 106 102 102 98 97 88 83 89 101 108 110 114 114 116 117 116 113 115 118 121 120 120 119 116 118 122 124 125 126 127 129 130 134 131 76 74 122 120 122 122 124 125 127 123 121 119 117 113 110 107 103 99 96 96 100 106 112 111 110 111 113 114 115 116 116 117 120 120 119 123 122 123 123 122 124 129 130 131 134 132 136 133 80 72 126 123 124 123 123 126 127 126 125 123 118 116 112 109 106 105 104 105 114 113 114 113 114 114 116 114 113 115 117 124 125 124 122 122 122 125 128 126 126 129 131 130 134 138 140 137 81 72 125 125 124 123 124 128 126 128 128 125 120 115 115 114 112 106 96 97 107 113 114 113 117 119 121 118 117 117 113 122 132 130 127 123 125 129 128 128 129 130 134 134 137 141 142 139 82 70 121 125 128 128 125 128 127 129 129 125 122 120 120 118 106 94 96 104 116 111 111 118 120 124 127 124 122 118 109 109 119 120 123 124 128 128 127 129 130 133 132 136 141 144 144 141 84 68 117 123 129 133 132 129 129 131 131 126 125 124 122 105 90 100 109 116 113 105 116 125 125 130 140 137 124 121 111 109 108 116 115 119 125 129 130 129 132 134 135 142 144 151 147 143 83 68 115 119 124 130 135 134 131 133 130 127 124 120 103 84 87 123 114 111 108 106 114 123 123 129 156 150 128 125 120 120 116 110 114 106 116 124 127 130 134 136 142 151 160 162 152 145 86 68 114 116 120 125 129 130 132 131 131 127 119 103 83 75 83 98 104 107 106 103 106 115 121 125 144 136 123 129 131 128 126 115 110 103 101 112 121 128 134 141 152 164 172 163 151 142 88 68 111 114 117 121 125 127 129 130 127 121 109 89 80 71 78 91 97 101 98 98 100 109 120 125 129 127 122 123 127 129 128 116 108 110 92 99 113 119 129 138 149 159 160 154 147 143 87 66 107 112 116 121 124 124 127 129 125 119 108 92 86 82 81 84 82 69 61 62 72 96 113 116 122 118 103 93 86 100 115 118 126 124 107 89 99 114 123 133 136 144 147 149 145 142 86 64 105 110 114 118 122 126 126 123 120 118 111 104 96 91 93 94 88 79 77 75 75 80 93 99 109 109 115 115 105 106 113 120 124 126 124 100 90 102 116 127 134 139 141 141 139 138 83 63 104 109 114 118 121 124 123 120 117 116 115 110 100 94 95 97 100 103 106 104 101 99 99 104 110 115 121 120 116 114 115 118 120 123 128 122 95 93 107 118 127 133 136 136 134 131 80 61 101 107 113 115 120 121 120 119 118 115 110 105 97 93 95 96 101 107 109 111 115 121 126 125 127 130 136 137 130 122 114 119 117 119 124 130 118 93 98 111 123 128 132 133 132 131 77 60 101 107 111 115 120 121 120 120 117 110 103 94 91 92 95 100 103 106 106 108 112 114 116 117 118 118 122 131 133 128 124 120 116 115 118 127 129 111 96 104 115 123 127 129 129 128 80 60 101 108 113 118 121 125 126 121 113 103 92 89 91 96 100 103 103 104 110 114 114 115 114 115 116 116 127 136 130 128 126 125 121 119 116 122 127 125 100 105 114 121 124 124 126 128 80 59 100 110 113 120 124 128 128 120 106 96 90 90 92 95 98 101 101 104 105 106 108 110 108 114 114 121 130 132 128 124 124 123 121 122 120 120 119 122 111 107 120 125 127 130 130 129 80 59 101 109 113 119 124 131 131 118 104 95 90 92 90 90 89 92 91 95 97 98 102 102 97 101 102 112 118 119 118 114 111 112 113 116 121 122 120 119 114 112 127 129 131 133 132 130 80 59 100 107 112 118 126 132 135 118 106 96 95 88 78 76 80 82 81 85 84 84 89 94 94 94 97 102 104 103 100 97 97 98 96 98 103 117 126 122 115 117 133 134 135 134 134 132 80 58 98 104 107 113 123 132 138 121 112 105 102 61 52 64 74 92 94 108 120 112 116 111 106 103 113 119 121 130 112 107 110 104 97 78 55 74 122 122 117 124 137 138 138 136 136 133 80 58 96 102 107 109 118 128 138 131 117 109 105 45 48 74 77 100 103 104 122 112 121 138 128 126 136 146 127 129 142 114 133 120 120 93 46 56 118 123 116 132 140 139 138 135 136 132 80 57 95 100 105 109 115 125 134 139 120 114 115 81 59 78 79 102 115 113 133 131 138 152 149 134 147 156 148 145 154 130 144 128 127 98 63 92 128 130 116 136 140 138 136 136 135 131 80 56 94 98 103 106 110 120 133 143 121 114 112 102 87 78 73 95 103 116 133 136 143 160 159 143 147 153 153 147 155 133 131 118 102 93 103 128 133 133 124 137 140 138 135 136 133 131 79 54 91 96 100 102 106 115 129 138 126 116 107 103 92 87 78 82 80 101 113 112 126 143 151 126 135 135 136 118 130 108 94 97 97 104 125 134 134 134 129 138 140 137 135 135 132 128 78 51 88 92 95 99 102 109 123 133 127 118 108 101 93 85 81 81 86 87 86 104 114 113 129 107 123 96 115 108 96 96 98 98 101 118 132 132 136 135 133 138 139 137 134 132 129 127 77 47 83 89 93 97 100 103 114 126 126 117 110 102 90 88 82 78 83 92 92 94 97 99 108 97 99 95 98 100 106 103 100 98 111 128 133 136 139 138 136 136 136 136 132 130 128 125 74 43 77 85 89 92 95 98 105 118 124 117 113 105 94 88 87 81 81 90 101 102 104 104 104 99 98 100 110 119 123 107 102 107 125 132 134 138 140 138 137 134 135 132 129 130 127 121 72 36 71 80 86 88 91 93 98 110 116 116 113 108 98 89 89 86 85 84 91 96 100 103 103 102 104 107 115 117 108 106 112 125 131 134 136 141 140 139 137 134 132 131 129 128 124 116 68 23 58 75 82 86 87 89 91 102 112 113 110 109 105 95 87 89 91 89 91 95 96 96 96 97 100 101 103 109 112 119 127 130 131 136 137 139 140 140 137 134 131 129 126 124 118 109 57 23 39 62 76 82 85 86 87 94 105 110 108 107 109 104 93 88 93 97 98 99 100 103 103 104 105 106 110 117 119 122 126 130 136 138 137 137 138 138 136 130 127 124 123 120 112 96 29 22 35 40 64 78 83 84 85 89 99 105 106 104 108 112 104 94 91 85 102 106 106 106 104 108 109 112 115 118 109 116 131 136 136 135 137 136 137 136 134 127 123 122 120 114 103 83 24 23 37 35 42 67 79 82 83 86 93 102 106 105 106 112 113 105 102 100 103 107 107 106 104 106 109 114 119 122 126 133 132 133 134 134 134 135 135 134 128 124 121 120 116 106 101 82 23 24 37 36 37 48 70 79 82 83 88 97 103 105 105 111 118 113 110 111 111 111 111 111 114 115 116 117 121 128 133 134 132 131 133 132 132 134 134 129 119 120 119 115 107 101 108 81 24 26 39 37 37 41 53 70 79 82 84 91 99 103 106 108 114 119 115 115 114 111 113 116 119 121 120 123 126 131 132 130 130 132 133 132 132 134 132 127 120 119 116 107 99 108 110 81 26 27 41 38 38 41 52 61 72 79 82 87 94 100 105 106 110 115 118 116 114 112 114 119 123 125 123 126 129 132 132 130 132 135 136 134 134 133 129 120 118 115 107 100 105 113 111 80 25 26 41 40 38 46 55 60 64 72 79 83 90 95 101 107 110 112 117 121 120 121 121 123 125 125 127 126 130 135 140 137 139 141 138 136 134 131 122 115 116 107 102 104 113 115 110 82 23 24 36 36 36 45 55 59 62 69 72 78 84 90 94 101 108 108 110 116 123 124 126 130 129 132 129 127 131 141 146 147 147 144 140 137 133 126 113 115 107 103 107 114 116 117 111 83 24 22 36 35 35 43 56 58 61 68 73 73 77 83 89 95 102 107 105 109 118 119 126 132 133 132 129 129 132 137 147 147 142 138 136 134 127 115 112 107 105 109 113 119 119 118 111 86 29 14 22 22 22 26 36 37 37 42 46 46 45 47 51 55 60 65 63 64 69 73 77 80 82 81 78 78 80 82 84 84 83 82 81 80 74 68 67 65 68 71 73 75 75 73 68 57 25 