P2
48
60
255
23 44 49 60 69 62 46 36 36 42 43 51 59 73 64 50 48 65 90 106 104 84 98 106 108 78 53 64 61 62 71 61 58 50 46 65 69 62 60 65 61 58 55 52 48 52 47 37 38 79 89 117 135 126 69 54 60 69 89 94 102 119 78 78 91 159 168 182 162 132 173 159 172 133 89 111 100 112 114 102 83 71 71 100 95 88 93 99 87 85 94 89 78 75 79 53 42 82 101 128 138 122 67 58 82 89 96 95 117 92 74 83 132 190 181 188 175 138 165 166 155 128 93 116 108 119 121 97 81 63 63 106 82 82 93 93 80 75 88 90 85 69 72 45 46 92 98 121 137 112 69 82 98 118 99 101 113 84 83 101 177 198 193 203 185 152 165 191 150 131 101 119 115 123 130 103 84 60 69 100 85 76 93 91 77 72 91 83 75 68 71 39 45 93 103 122 140 119 84 86 123 146 133 125 114 121 94 145 193 209 210 225 198 195 159 215 152 145 119 112 118 148 134 125 92 70 67 73 100 67 83 85 80 71 87 80 71 69 63 38 45 96 123 131 132 119 105 96 129 154 147 159 128 152 128 182 219 233 228 216 228 212 189 227 179 165 140 111 134 168 142 140 115 72 61 65 88 69 70 76 90 64 74 79 71 65 63 39 36 80 112 127 125 121 102 97 123 143 141 160 167 175 168 208 227 248 247 215 244 238 229 215 206 173 139 94 132 151 157 136 122 84 67 59 62 67 57 64 70 65 70 78 70 69 68 41 42 71 92 116 107 89 78 74 76 85 99 115 141 163 191 216 219 237 242 218 241 232 241 214 216 195 167 136 111 158 157 117 90 74 56 54 55 56 56 62 67 61 66 80 73 66 69 40 64 100 96 90 74 69 73 69 68 69 72 68 67 83 113 163 196 221 218 202 218 221 232 219 204 189 186 200 123 110 125 91 73 62 61 57 58 56 57 58 60 67 62 71 70 63 68 40 64 103 78 73 74 78 79 80 80 87 84 86 101 105 95 104 130 176 198 211 211 223 222 227 198 192 201 180 159 101 87 101 101 114 102 82 68 67 66 61 65 72 68 65 65 63 67 43 68 84 76 81 94 112 125 138 145 161 165 166 169 179 156 130 149 176 178 199 209 213 217 224 199 191 197 176 168 155 151 148 178 193 180 182 165 136 138 110 88 95 86 74 63 63 65 43 65 75 87 116 136 153 165 169 184 197 199 208 215 217 210 197 181 182 189 198 202 208 224 219 210 181 195 190 187 188 200 213 220 226 215 200 188 188 182 176 144 144 130 106 85 72 65 44 57 97 117 131 148 157 165 178 185 201 214 206 200 202 208 213 206 195 191 194 191 209 220 225 204 188 194 206 204 215 218 221 204 207 217 219 205 194 187 182 169 157 140 125 111 97 87 43 69 127 125 128 143 159 168 176 184 203 205 199 178 177 185 198 210 201 193 188 186 205 210 213 198 188 191 205 209 215 213 201 196 198 202 210 214 191 185 183 175 163 140 125 124 125 111 61 77 122 120 132 137 149 159 168 177 189 183 162 160 161 163 178 197 197 186 183 184 191 205 202 193 185 180 196 213 211 195 185 180 170 168 173 186 183 180 172 169 156 135 124 125 128 119 74 81 121 120 126 130 133 124 118 89 77 97 70 84 139 144 165 187 194 178 169 179 193 202 204 191 182 169 182 200 199 190 166 158 108 63 98 64 68 100 128 137 144 130 122 120 126 131 79 87 125 121 121 114 100 136 158 69 55 59 57 98 200 164 152 197 208 171 164 176 189 199 200 191 175 163 167 201 208 173 150 211 142 66 63 57 63 133 169 102 101 125 120 122 129 135 80 96 137 115 108 115 132 132 149 110 67 69 71 134 176 148 119 191 210 164 160 175 183 199 201 190 177 161 163 207 213 124 138 166 164 87 73 70 91 159 149 129 113 110 119 120 135 139 82 94 154 136 133 136 142 152 153 145 140 144 147 147 147 159 170 201 175 163 163 179 185 194 194 188 177 159 157 177 220 187 171 167 169 162 161 153 155 161 159 145 131 129 120 132 138 141 81 93 150 147 148 152 154 161 171 184 197 202 205 191 182 186 186 191 165 161 161 169 194 195 190 182 178 165 157 166 193 206 202 194 203 205 221 212 206 185 175 161 153 153 143 147 143 141 81 91 147 150 160 165 162 169 182 189 191 194 181 183 181 189 184 173 162 163 167 175 185 185 184 176 172 165 156 161 177 190 195 196 196 192 198 206 203 196 184 170 166 167 153 144 147 144 80 91 148 157 167 171 175 184 187 187 186 194 197 206 207 194 177 170 161 167 170 170 177 175 177 172 173 163 157 161 172 183 197 208 211 206 203 208 204 200 195 187 182 170 167 148 145 142 81 91 152 160 168 177 183 190 194 198 201 207 211 210 202 182 172 167 164 163 163 166 173 173 169 166 163 156 156 162 164 175 186 200 216 218 224 220 214 208 204 190 188 182 171 160 141 135 81 89 153 166 180 183 189 203 198 197 209 208 204 200 197 180 174 166 158 153 156 161 174 175 170 167 164 151 149 158 166 170 184 190 208 218 228 227 220 215 210 190 198 183 174 163 152 139 79 93 152 158 175 186 193 195 208 207 201 207 200 194 189 183 176 163 149 147 151 157 161 164 164 159 157 151 143 145 165 174 192 196 191 209 216 219 218 217 215 204 194 186 175 165 155 141 80 94 154 168 175 183 193 201 205 203 204 198 193 191 206 196 180 152 137 145 147 155 161 168 169 163 152 145 135 135 153 180 208 197 195 202 205 216 219 213 215 205 186 186 177 164 153 143 80 93 154 165 176 178 188 197 202 200 201 196 195 199 213 205 174 132 129 144 148 162 170 182 179 172 165 148 133 127 135 177 213 220 210 208 207 214 208 204 212 200 194 181 176 166 158 143 82 90 156 165 170 178 186 191 197 199 201 194 204 211 218 204 158 122 132 149 158 171 184 199 214 197 167 152 136 124 122 165 207 225 224 205 211 212 212 210 207 200 191 184 177 165 154 143 84 88 158 165 169 174 181 185 191 195 202 200 211 214 204 190 137 128 140 149 152 173 189 222 232 200 167 149 141 128 119 150 201 217 226 221 224 214 209 215 209 201 190 185 176 161 152 142 81 85 157 163 169 170 177 189 195 195 203 212 210 205 198 178 126 139 149 149 154 163 176 179 184 171 157 151 148 136 126 137 202 208 226 227 226 221 213 214 204 197 190 182 172 161 151 141 81 86 154 159 166 171 175 188 193 198 199 220 216 204 191 166 127 147 156 144 129 146 158 154 157 151 139 135 153 147 133 132 193 205 212 231 231 220 218 210 201 194 188 186 171 159 147 138 83 87 150 159 165 170 179 189 194 202 205 212 201 190 189 161 128 149 149 122 74 120 133 129 134 128 98 79 138 155 134 129 188 206 202 217 230 227 211 208 195 190 185 181 170 158 145 135 83 86 145 158 168 171 178 185 193 205 207 208 197 197 183 163 133 127 146 169 143 159 141 128 131 140 136 146 150 153 131 142 184 210 201 209 221 222 210 201 194 184 181 179 168 158 144 140 86 86 143 155 162 165 175 181 190 198 206 205 195 191 179 162 153 131 131 159 173 180 177 159 171 184 174 173 156 132 133 163 179 203 199 207 227 224 208 198 190 185 176 174 166 152 145 142 84 83 145 153 159 168 178 179 186 191 200 204 196 188 178 165 159 158 152 155 166 181 192 190 188 197 173 165 156 145 154 166 173 183 201 201 218 210 205 197 191 188 177 169 161 152 143 141 82 85 145 151 161 166 174 176 183 193 202 200 193 173 170 167 164 164 171 168 181 192 198 194 197 198 184 173 170 164 159 168 177 180 190 201 215 206 196 194 187 177 174 166 161 153 146 146 85 85 146 155 163 163 166 173 179 191 196 199 189 171 167 168 164 169 172 178 187 192 203 202 199 196 187 183 179 172 167 167 176 176 183 200 210 209 198 191 184 177 169 167 159 149 146 142 84 84 148 153 162 168 167 176 181 190 191 195 186 176 170 170 171 171 174 181 181 190 191 199 191 194 192 184 178 177 167 170 171 171 178 192 203 204 195 185 182 178 169 165 157 153 150 141 83 85 145 154 159 165 168 178 181 186 191 189 183 171 163 167 171 167 177 185 184 187 185 186 182 192 187 185 182 175 174 169 167 172 178 185 194 199 188 180 179 176 165 159 157 153 147 144 84 82 141 154 161 163 170 176 177 180 188 188 182 173 162 165 172 174 176 180 177 183 186 175 179 189 178 179 179 175 177 171 163 169 180 183 183 200 182 179 177 174 162 159 160 153 151 144 83 86 145 155 163 167 169 174 177 180 186 188 185 167 165 166 169 174 168 173 168 168 179 194 189 175 163 165 172 168 175 173 159 163 180 190 186 198 186 181 177 175 166 162 160 154 152 143 85 87 149 155 163 166 170 174 174 180 181 187 172 164 165 161 160 155 150 132 119 117 128 143 141 116 114 117 134 149 161 164 156 158 172 188 184 190 186 180 172 174 166 162 156 156 151 143 83 90 154 155 163 165 168 172 175 182 182 186 169 159 159 153 138 117 104 101 105 106 115 127 113 105 102 102 98 105 115 138 151 156 167 178 189 192 191 180 175 171 165 160 157 155 153 146 83 93 157 154 161 161 167 168 176 186 186 182 163 145 132 118 92 87 91 95 91 95 101 104 104 100 96 99 96 91 91 93 117 141 150 170 192 187 193 180 177 174 165 155 154 156 156 147 81 94 157 157 160 156 165 168 175 192 188 180 153 137 129 116 104 98 97 104 100 97 96 101 101 98 104 113 101 100 99 106 120 133 145 168 190 193 195 184 173 170 164 156 159 157 159 144 75 94 157 158 158 158 162 166 171 190 188 180 170 171 158 134 112 105 110 118 121 121 116 123 120 115 117 120 111 115 121 116 137 158 174 183 195 198 195 187 179 167 161 160 160 156 155 136 68 89 151 158 160 160 157 165 173 177 187 190 182 175 164 148 135 115 108 116 126 141 135 144 147 135 131 128 110 116 125 139 149 160 174 189 201 199 185 177 172 164 160 160 159 158 152 124 57 87 148 154 162 160 159 168 174 183 183 182 182 169 163 156 153 144 138 128 127 153 167 185 196 174 150 127 127 139 144 149 156 164 175 184 194 193 191 181 175 162 162 158 155 153 138 105 46 79 139 151 156 162 160 164 173 177 184 185 177 163 165 160 159 156 158 151 143 140 149 153 152 143 148 147 145 150 153 153 156 167 173 178 190 193 186 176 173 162 158 155 148 146 123 87 32 69 129 143 149 155 158 161 174 172 175 178 173 164 167 163 164 163 163 164 163 144 139 142 146 148 158 159 160 158 156 160 161 167 171 176 182 185 182 172 168 158 156 153 149 132 102 59 28 56 113 135 143 148 155 157 172 172 177 180 171 163 166 169 169 171 169 170 167 162 164 163 166 164 168 165 164 165 166 165 162 162 164 173 180 178 176 171 162 157 150 147 137 113 76 45 33 43 96 120 133 142 147 152 167 165 171 176 176 165 164 169 172 176 174 174 177 178 174 169 171 170 172 168 167 167 170 165 161 162 166 172 177 167 161 162 154 146 142 135 115 85 48 52 35 48 74 103 121 133 141 149 162 161 163 169 170 171 164 172 172 177 179 175 181 186 184 185 187 185 184 177 177 176 170 168 164 162 170 171 171 165 165 159 147 144 130 115 90 55 46 55 47 60 74 80 108 123 135 141 151 157 161 165 164 166 167 171 176 175 184 186 196 196 203 206 204 195 191 187 186 179 170 167 164 165 163 168 166 164 160 147 137 128 112 93 61 53 50 68 51 65 92 74 84 108 122 129 138 146 152 161 161 160 166 167 170 174 184 195 208 214 214 215 204 197 199 189 190 185 170 169 163 160 167 168 165 155 146 138 127 109 89 63 62 72 68 84 44 66 102 89 76 83 105 117 118 129 143 151 161 160 163 167 172 180 187 196 210 219 224 223 213 209 207 195 190 180 173 169 161 160 164 161 154 144 132 121 109 85 61 68 97 76 67 85 43 66 106 101 91 79 83 101 110 116 126 139 153 160 163 167 171 177 187 195 209 213 227 226 219 223 217 204 190 183 173 166 158 151 155 147 139 127 111 100 81 61 76 104 100 71 48 73 43 68 113 108 101 95 79 83 96 104 108 122 138 151 158 162 167 174 184 191 199 201 204 218 217 211 205 193 189 182 175 163 151 149 143 130 118 103 89 74 65 87 107 113 96 60 49 67 52 63 120 109 112 102 95 88 87 92 99 107 119 135 148 152 161 168 179 186 186 191 191 193 192 192 193 189 183 176 165 156 146 137 123 108 95 83 75 70 92 110 115 111 85 57 52 59 54 36 75 73 69 69 64 58 56 55 57 61 63 73 84 91 96 100 105 109 111 113 114 113 111 110 110 109 107 102 98 91 83 74 65 56 50 47 45 52 67 73 72 66 51 35 32 45 31 