P2
48
60
255
29 28 20 18 19 22 27 38 50 67 72 77 81 88 90 83 74 83 89 82 73 70 51 42 44 63 55 61 69 62 71 65 63 69 70 66 60 43 42 49 53 46 37 31 27 30 27 16 46 82 86 64 37 36 46 76 99 115 121 127 138 146 152 146 137 141 141 144 127 125 110 80 66 97 91 78 84 95 107 118 112 109 114 110 101 70 66 72 80 69 54 53 59 57 51 25 51 88 91 64 51 59 72 98 109 118 125 131 145 148 148 148 144 145 144 141 134 126 126 113 97 94 94 96 101 117 129 135 127 116 110 107 96 64 68 67 74 61 61 72 88 77 52 26 53 87 91 84 88 96 104 109 110 121 127 132 141 150 147 143 136 142 139 133 132 129 123 124 120 107 107 120 133 135 136 139 136 127 112 102 91 86 79 67 64 72 74 86 93 88 62 29 52 87 91 96 101 104 107 107 111 121 131 134 136 140 144 139 134 132 140 138 135 135 135 135 132 130 130 132 139 136 138 143 140 138 129 116 113 119 94 80 91 99 103 106 99 94 72 33 51 85 88 92 84 81 82 87 85 87 101 117 126 137 140 134 129 130 130 138 137 142 140 136 136 137 134 135 139 141 140 141 136 132 135 135 130 129 114 99 100 104 109 106 101 96 80 38 51 83 82 65 70 88 105 108 103 97 80 82 96 118 129 131 125 126 130 134 137 136 135 138 139 136 132 132 135 138 137 120 98 81 79 85 94 106 103 85 76 94 108 104 99 98 89 47 52 80 63 77 107 120 123 123 117 112 107 95 83 82 108 125 125 125 128 127 129 132 131 131 131 129 129 128 130 128 112 77 65 76 92 113 132 145 146 119 94 75 86 98 94 95 91 50 51 67 67 102 109 114 117 116 110 101 91 90 91 83 98 114 119 121 122 122 122 123 127 127 127 122 122 124 123 120 86 71 87 103 105 112 123 136 151 142 133 117 86 89 93 91 91 53 47 56 91 98 101 107 112 109 105 96 87 83 82 84 89 100 109 113 116 115 116 117 120 122 124 120 117 116 115 110 97 92 96 100 101 106 112 117 123 127 127 125 111 76 83 88 89 54 40 71 92 93 102 110 119 119 112 100 93 87 83 80 81 85 92 101 106 107 108 112 115 115 117 115 113 109 103 95 91 92 93 94 98 101 105 108 114 116 119 113 110 93 75 80 89 54 43 81 85 90 99 108 118 126 124 112 101 95 87 79 73 73 77 84 93 97 104 113 114 114 113 109 102 98 93 88 85 89 93 97 101 106 115 121 123 122 120 111 106 103 88 71 89 56 48 82 83 87 92 95 100 100 98 85 78 78 79 79 77 68 67 71 77 88 106 125 135 132 121 105 93 84 81 82 88 91 94 98 101 106 115 123 124 120 113 106 103 99 97 83 89 55 49 78 79 80 79 74 62 50 58 61 56 69 57 51 67 73 70 70 79 95 115 140 151 149 139 115 95 81 75 77 82 82 77 68 64 64 74 85 92 97 96 95 96 96 91 89 90 55 49 76 75 72 60 40 40 33 23 35 22 36 54 77 54 58 69 78 92 107 124 154 170 163 155 130 111 91 80 77 72 55 45 46 42 31 31 37 49 52 62 80 88 91 87 88 90 55 49 74 67 53 33 38 30 50 29 34 23 35 48 49 66 72 67 78 96 114 129 150 161 156 149 135 117 99 90 78 62 62 52 51 62 84 22 49 26 37 49 45 70 86 83 84 90 57 49 73 59 40 33 26 50 81 53 26 23 27 83 108 52 65 96 91 99 115 127 142 152 153 152 138 126 112 106 97 90 52 69 127 76 31 22 27 39 59 32 43 44 61 79 82 89 57 51 79 64 52 35 33 57 93 93 39 32 47 123 130 95 54 98 109 108 116 127 141 154 154 149 138 130 123 120 129 75 60 118 140 111 34 27 28 61 93 54 30 41 52 65 82 89 57 56 87 82 74 58 48 54 62 66 66 62 70 88 106 102 97 106 108 110 118 133 148 157 152 148 138 128 124 123 124 96 102 105 115 121 70 36 47 94 88 60 43 45 57 70 85 92 59 58 92 89 92 86 81 81 77 72 73 70 80 87 95 109 123 116 109 112 120 132 145 153 151 149 137 132 125 125 127 133 121 107 101 91 76 67 69 63 66 63 73 87 90 89 94 99 61 59 95 95 98 97 92 88 86 83 81 85 89 101 115 124 123 116 112 116 120 128 140 147 149 148 138 134 127 125 127 133 131 119 103 90 86 84 83 86 89 97 106 107 109 105 103 106 66 60 98 100 102 103 102 100 100 102 108 114 120 125 129 130 122 115 114 118 118 121 135 142 145 144 134 134 130 126 129 133 137 134 123 112 99 95 95 103 103 109 113 111 114 114 110 110 66 60 100 103 105 103 110 115 118 122 126 130 133 138 138 128 121 113 115 117 116 116 126 132 138 137 131 130 131 127 128 134 142 143 135 131 126 123 118 115 117 121 125 125 125 120 113 114 66 60 103 108 109 111 116 118 122 125 129 132 141 143 135 126 121 114 115 113 111 115 126 134 137 134 127 126 129 128 128 132 145 150 147 134 131 132 135 137 134 131 131 130 125 119 117 114 65 58 100 108 112 117 121 125 128 132 134 136 144 137 129 123 119 115 111 106 109 117 127 134 137 135 129 123 126 130 129 131 141 155 156 152 139 129 129 132 135 135 135 129 124 119 124 115 65 55 94 102 110 117 126 135 135 134 143 143 138 135 129 122 119 114 102 105 111 118 132 139 143 138 130 124 121 125 127 134 139 149 157 160 150 147 142 138 141 142 142 141 133 126 126 115 65 54 90 96 107 114 125 137 136 137 143 135 131 132 129 129 118 104 102 105 113 125 142 148 150 144 136 127 118 119 123 133 140 146 153 154 154 152 152 151 150 147 146 146 140 127 122 115 65 53 86 93 105 112 122 130 130 134 134 133 130 136 144 128 106 103 112 110 116 135 163 162 168 166 143 130 120 120 118 121 140 147 156 155 156 160 158 157 152 154 152 149 140 127 122 112 64 52 85 89 98 106 117 121 128 130 131 133 139 144 148 120 100 114 120 116 115 127 157 157 160 162 142 135 127 127 123 112 125 150 156 156 159 154 157 158 159 157 155 150 139 125 116 104 63 51 84 88 91 99 111 117 123 127 129 134 147 151 130 103 103 113 124 121 111 116 127 137 138 136 129 133 142 140 133 116 114 132 150 157 158 158 153 152 154 155 153 144 132 117 111 100 60 50 82 86 88 96 106 115 120 124 132 140 149 141 107 99 100 104 108 102 97 103 114 121 123 122 119 118 132 149 139 123 110 121 138 150 159 161 156 152 152 149 147 140 125 113 103 98 57 50 83 87 89 97 103 110 116 124 134 143 141 116 95 103 94 90 71 43 53 81 91 100 104 103 98 90 102 117 120 114 106 113 128 140 148 160 161 160 153 150 144 136 124 110 103 97 57 50 84 86 88 95 102 109 115 122 135 146 130 102 96 107 88 75 49 32 35 45 68 75 80 81 58 30 27 46 85 98 100 113 119 133 139 150 164 162 155 146 140 131 124 107 102 95 56 51 83 85 88 92 100 107 111 119 131 138 118 97 109 111 93 68 56 64 82 79 67 60 63 69 66 57 42 40 63 82 95 116 112 124 129 136 153 157 153 141 133 126 119 105 100 95 55 53 82 84 87 91 98 105 108 114 128 132 111 99 115 108 105 87 73 87 104 106 102 84 78 83 105 108 86 61 62 80 111 130 130 117 124 127 139 149 147 140 132 121 116 105 100 95 56 57 82 82 84 90 94 99 103 110 120 125 114 115 111 107 110 110 110 112 114 120 125 126 126 124 126 126 119 113 108 114 121 128 141 130 120 124 128 141 142 133 128 121 113 106 99 92 54 85 84 81 83 87 92 93 99 103 111 120 121 118 113 113 115 116 117 117 115 120 128 130 133 130 129 126 126 125 120 124 132 131 139 147 125 119 124 127 129 125 121 116 109 103 96 89 54 39 84 80 82 83 86 91 94 98 105 116 118 114 112 115 118 117 113 108 111 123 126 126 129 128 125 121 121 120 123 124 133 132 132 141 136 118 120 123 121 121 118 111 104 100 95 89 53 34 83 79 78 80 83 88 91 94 102 108 113 110 110 111 113 109 104 108 115 125 121 121 121 119 123 124 117 115 121 124 129 128 128 132 139 128 115 118 116 115 112 108 99 97 92 87 52 31 87 82 76 77 81 83 87 88 96 105 111 103 103 105 101 101 105 105 100 99 107 117 117 116 114 112 117 119 118 116 120 121 117 119 130 132 116 111 111 108 107 103 99 94 89 85 51 31 63 83 76 74 77 82 84 84 93 103 102 94 95 94 94 98 89 83 82 88 87 92 87 89 89 92 92 98 110 111 114 113 109 107 109 125 121 106 105 103 101 99 95 90 86 83 50 44 48 77 76 74 75 78 79 83 90 99 93 86 87 84 90 76 69 73 79 82 75 70 67 66 69 81 86 83 82 91 102 108 99 97 92 106 118 109 100 98 94 95 91 87 83 81 49 28 41 61 78 73 74 77 77 81 88 92 88 78 76 74 62 57 58 57 59 56 51 50 51 49 52 63 65 68 68 69 65 85 93 86 85 91 109 108 99 95 91 90 89 86 83 80 49 45 43 40 80 76 74 77 78 81 86 89 83 69 61 52 44 49 46 44 44 46 54 61 57 52 48 46 46 45 51 57 55 51 69 72 65 83 99 104 101 95 91 89 86 84 82 80 50 33 29 37 81 77 75 76 78 81 85 87 82 56 45 35 42 46 43 43 53 72 99 111 101 93 98 79 53 48 44 48 50 49 48 43 50 85 98 102 99 96 92 89 85 82 80 81 50 17 22 29 77 79 77 77 78 81 84 86 82 58 60 77 70 60 61 64 73 87 91 90 92 89 85 83 86 79 73 67 65 66 79 77 69 77 99 100 97 96 92 89 85 82 82 82 50 34 40 19 49 81 77 77 78 81 86 85 82 70 76 83 73 62 59 58 63 78 84 87 88 89 88 92 96 82 89 79 75 65 84 100 93 84 98 98 95 95 89 88 85 83 83 82 50 45 55 18 30 77 79 76 77 80 84 85 84 80 84 88 82 73 68 62 58 69 75 77 80 85 85 83 82 81 75 68 63 71 95 101 99 100 99 97 94 92 89 86 84 84 84 83 51 19 28 18 59 53 79 77 77 79 80 84 85 88 90 91 83 78 77 78 76 71 70 73 74 76 76 77 76 74 75 80 86 90 94 100 106 111 100 94 92 90 87 86 85 85 84 87 53 13 20 26 148 122 87 77 77 75 78 80 83 88 90 90 87 79 73 69 66 75 81 91 93 95 94 94 94 93 92 86 81 84 89 102 111 108 94 90 89 88 86 86 85 85 86 93 53 71 64 125 206 192 154 83 75 75 75 77 79 82 84 86 85 82 79 73 70 63 55 54 60 66 67 70 71 68 70 74 81 88 96 104 106 97 89 88 87 85 86 84 85 84 89 97 54 133 212 214 213 208 205 124 75 75 74 75 79 81 84 84 82 81 79 78 73 68 64 61 54 50 51 52 58 66 72 79 86 93 94 98 94 87 87 87 85 84 85 84 85 84 93 98 53 133 215 215 215 214 215 187 85 73 73 73 77 80 83 84 83 81 78 78 77 72 67 65 65 62 63 63 65 71 79 83 90 91 90 92 86 85 86 88 86 84 85 84 84 86 98 98 54 133 216 215 216 216 216 202 103 75 74 73 78 80 83 85 85 83 82 82 83 80 76 71 67 66 69 72 76 81 86 91 93 94 93 93 89 88 89 89 86 84 85 84 83 90 101 99 57 133 215 216 216 216 217 210 116 84 74 74 78 80 84 87 90 90 90 90 96 102 107 99 95 94 91 90 93 96 101 103 103 102 98 93 94 94 94 89 84 83 84 82 83 95 100 99 63 133 215 215 216 216 217 214 130 89 77 74 76 80 83 88 91 92 92 97 106 116 123 122 121 120 118 122 121 120 116 113 112 108 104 99 96 96 94 89 84 83 82 81 87 99 99 99 62 133 215 215 215 216 216 216 149 90 86 73 73 77 83 87 89 89 95 97 104 120 122 122 120 120 122 125 128 128 129 124 116 112 106 102 98 96 90 85 81 81 81 81 92 98 99 99 61 133 214 214 215 215 216 215 163 90 90 82 71 75 80 84 87 87 92 96 102 113 118 118 115 116 118 123 126 125 130 121 117 110 105 102 98 91 87 83 78 78 77 86 96 99 99 97 62 133 214 214 215 215 216 216 180 91 93 90 80 72 76 81 86 85 87 90 99 110 111 113 113 114 118 119 122 126 122 116 112 105 100 100 96 89 83 79 77 75 80 93 97 99 99 97 59 82 133 132 132 133 133 134 118 56 57 57 55 46 45 48 51 52 51 54 57 64 62 65 64 66 68 70 73 75 74 70 67 63 62 60 58 54 49 47 47 46 54 59 60 62 62 61 35 