P2
48
60
255
27 41 48 48 53 55 49 54 55 62 72 79 82 82 81 72 57 58 59 62 65 64 72 78 78 76 71 70 73 71 75 79 82 82 81 82 81 78 82 82 76 74 70 64 61 52 45 28 43 81 85 96 98 89 93 105 116 121 129 133 136 138 138 133 130 136 132 132 133 133 137 139 134 130 123 125 129 128 129 131 136 139 136 136 136 135 133 129 130 125 118 112 100 92 88 53 53 88 96 101 98 100 109 120 125 123 125 130 133 136 137 136 133 135 133 133 131 130 132 131 128 125 122 124 129 132 132 135 137 137 140 140 136 138 133 132 128 128 122 118 112 106 101 53 56 93 101 107 110 113 115 120 122 126 129 134 138 138 140 140 141 140 142 141 137 136 138 140 139 138 136 137 139 140 142 140 140 139 141 142 136 135 131 130 128 125 123 116 121 116 105 55 59 97 102 109 112 114 114 118 122 125 128 131 134 138 139 141 146 147 149 146 142 141 141 146 145 145 145 144 145 144 143 140 141 142 139 140 136 134 132 129 125 123 121 117 119 114 102 60 58 95 102 107 112 110 110 116 117 121 125 128 132 138 138 142 145 149 150 150 146 149 148 148 149 149 148 145 140 143 144 142 142 138 134 137 133 130 128 125 126 124 121 116 121 115 108 58 58 99 101 106 110 109 111 116 117 117 120 124 129 134 140 143 144 147 145 151 150 149 150 152 150 148 147 144 135 143 143 142 141 135 135 130 129 130 129 127 128 125 121 115 118 117 106 58 61 100 103 109 111 112 114 116 114 117 123 121 121 123 129 132 137 137 137 142 145 143 145 142 144 145 143 139 128 131 133 131 127 116 111 110 110 110 121 125 124 122 122 115 114 115 109 60 61 99 102 106 109 104 105 91 83 83 86 93 104 103 103 118 124 121 125 130 129 134 133 133 135 141 127 124 109 118 108 105 94 85 73 63 60 63 77 86 85 83 102 112 112 114 111 64 62 97 100 102 89 59 51 51 51 47 48 51 54 67 75 82 102 99 113 120 123 127 127 124 122 124 121 111 88 87 83 78 54 47 42 41 47 48 53 52 51 53 56 75 94 107 107 64 61 95 92 64 41 33 36 42 42 38 40 41 43 52 66 82 87 88 98 114 121 125 130 129 122 122 117 105 83 74 76 59 44 44 44 45 45 45 50 51 49 49 48 51 61 89 103 66 59 83 57 41 40 41 46 46 44 40 40 41 42 46 53 61 70 76 91 107 116 122 126 132 133 118 111 96 83 71 68 61 58 64 79 88 90 95 101 97 83 66 58 54 58 91 101 64 52 57 42 40 47 56 66 77 86 83 73 66 63 60 56 55 59 66 77 92 103 114 125 128 131 119 102 88 75 71 73 83 95 111 123 128 131 132 136 137 124 109 81 69 67 90 101 61 56 58 46 59 79 95 107 116 121 120 116 108 98 84 75 72 70 68 72 79 95 117 134 145 140 121 94 83 83 88 95 98 92 91 91 95 100 108 119 124 123 120 108 88 73 77 93 61 47 52 55 79 101 107 107 102 84 67 52 46 48 54 54 66 79 76 82 90 97 121 141 150 142 123 104 101 89 91 88 70 66 59 44 49 39 49 55 72 84 105 110 100 85 80 84 60 44 59 73 88 93 80 55 43 29 45 55 61 54 72 64 68 70 71 81 97 100 121 140 144 144 127 110 110 94 98 85 68 84 96 46 68 28 60 39 54 59 61 79 99 95 93 96 63 41 65 80 83 60 42 44 69 41 36 27 33 53 119 105 73 79 95 90 93 101 121 137 138 140 133 114 106 118 118 91 96 115 116 65 46 40 48 59 91 73 68 64 90 95 91 93 59 50 82 82 70 52 69 87 96 85 78 79 78 104 117 105 103 106 102 96 89 99 118 135 136 141 140 119 105 114 125 134 124 122 122 116 111 111 114 112 110 103 98 88 93 97 97 101 63 53 86 85 73 78 91 98 104 98 104 115 117 121 121 115 104 94 101 94 92 100 116 129 135 138 135 116 105 112 115 108 106 117 122 129 127 127 128 129 123 114 110 99 97 101 112 108 64 59 91 86 87 95 98 102 110 120 124 127 120 114 110 103 92 96 101 97 95 98 110 132 136 132 128 114 105 111 113 109 100 94 99 107 121 126 122 123 118 111 103 109 115 123 131 129 76 66 106 104 101 98 100 98 102 106 106 107 104 100 104 105 105 107 105 101 97 97 106 125 135 136 132 114 105 112 120 124 122 116 106 96 96 98 102 107 102 106 114 119 129 137 140 135 76 73 120 115 107 105 107 109 107 105 105 106 113 121 121 122 116 112 108 104 98 98 104 118 132 138 133 116 106 112 121 128 129 134 131 125 120 110 105 107 117 128 131 136 139 137 138 134 79 73 118 118 120 125 125 127 126 124 127 131 134 131 130 124 115 114 110 102 99 96 101 116 129 133 134 117 107 111 117 130 129 138 144 142 143 142 142 141 138 144 142 142 139 133 131 134 81 69 115 119 124 130 133 133 135 139 141 136 134 127 129 117 119 110 107 106 100 98 101 113 127 136 130 118 109 110 116 124 134 145 147 146 146 153 151 150 144 145 144 139 134 132 126 124 75 65 109 114 118 124 130 137 140 142 141 140 135 136 134 120 110 102 101 109 102 100 105 113 125 134 136 126 116 110 114 117 130 146 153 148 146 150 150 148 145 145 143 140 133 128 126 122 69 63 108 113 114 118 129 134 138 142 142 139 137 133 130 121 108 100 103 105 102 106 115 124 133 141 139 133 123 114 112 113 121 141 154 152 148 149 149 147 141 140 135 128 129 126 122 117 69 66 111 117 118 115 121 134 137 135 136 136 136 135 132 118 109 103 104 102 105 117 125 137 149 145 143 142 131 119 115 110 120 135 148 151 148 150 148 150 141 138 133 128 124 121 117 109 62 64 110 115 118 122 121 136 141 139 137 139 134 134 132 115 103 99 103 104 111 126 135 138 142 145 145 145 138 126 119 109 109 121 135 144 148 150 148 145 146 144 137 130 123 118 119 111 63 61 104 111 116 125 127 133 128 137 137 138 130 130 123 107 97 102 103 110 116 125 136 140 135 136 143 148 142 129 120 110 108 102 117 134 144 145 144 147 148 140 133 130 127 127 118 106 66 61 103 111 119 121 121 129 133 136 136 134 126 120 100 93 105 105 99 107 118 130 142 139 141 145 146 149 137 121 113 106 114 105 97 112 127 137 143 144 143 139 136 126 120 116 111 107 67 61 100 109 123 119 116 124 130 134 130 125 110 99 87 99 106 101 96 99 106 126 154 145 149 147 150 146 123 105 98 99 110 110 91 94 110 121 131 136 138 136 137 125 117 111 106 108 66 57 96 110 114 120 120 128 125 127 118 108 92 86 92 94 96 93 93 89 94 107 123 126 128 129 126 113 97 89 89 97 100 98 100 87 94 110 122 132 129 132 135 130 119 113 106 104 65 57 92 109 110 117 122 124 123 119 108 91 83 90 101 82 76 75 79 83 85 88 97 100 102 105 103 89 85 81 74 70 72 87 104 99 84 94 109 118 124 126 129 129 119 109 102 100 66 60 85 99 105 113 120 121 117 106 92 83 87 101 100 93 62 49 43 46 59 67 70 71 70 70 72 70 57 59 67 61 74 100 102 103 90 86 101 113 119 122 127 126 116 104 100 98 64 54 88 99 102 105 112 115 109 97 87 85 96 103 101 100 91 70 69 62 52 38 35 42 49 52 55 66 75 81 88 85 91 93 100 103 103 92 96 108 116 117 121 121 119 109 101 100 66 53 89 95 103 106 114 110 105 95 86 94 99 99 99 98 92 93 86 87 80 72 56 47 50 58 72 83 86 85 88 91 89 92 97 100 105 104 101 110 114 117 118 116 114 111 99 99 63 54 87 92 98 106 107 107 102 91 91 98 96 96 96 94 93 92 91 93 93 94 96 93 88 84 85 91 98 93 91 95 91 98 100 103 104 106 102 105 113 116 114 116 110 102 98 95 56 54 89 92 102 107 107 106 96 94 98 96 97 96 94 93 95 96 99 101 110 115 113 110 106 106 98 109 112 106 103 101 98 102 102 103 99 104 106 101 113 116 119 117 112 102 96 93 57 55 91 95 99 102 102 100 96 99 97 97 100 93 95 94 97 99 105 108 111 113 121 115 117 114 111 119 120 115 110 109 111 105 106 103 100 108 107 106 104 113 113 111 109 101 96 93 57 53 89 98 107 104 102 99 96 97 101 98 93 93 96 99 103 99 106 103 110 122 124 125 124 121 119 123 128 117 115 113 108 110 105 103 102 102 107 108 98 108 112 114 113 104 97 97 56 54 90 97 101 100 100 95 95 101 97 91 88 87 85 91 96 103 108 110 119 124 131 137 135 138 139 132 129 125 124 114 104 100 94 97 96 99 101 102 100 104 111 111 112 105 97 90 59 55 90 99 103 98 97 92 94 97 88 80 75 79 86 83 88 99 105 105 106 106 113 114 120 123 121 116 104 96 99 96 93 87 91 88 89 94 96 100 100 104 110 113 110 100 93 93 58 53 90 99 105 104 98 91 95 91 81 65 60 64 69 67 65 66 70 73 78 79 78 76 80 86 82 80 81 75 70 67 63 61 65 63 66 79 92 99 100 104 112 110 111 101 92 94 60 52 88 96 102 108 101 92 92 89 68 46 59 67 70 79 89 98 103 102 98 84 74 69 72 78 90 98 100 100 97 95 93 88 79 83 75 76 89 95 100 106 110 109 108 101 92 93 60 52 87 91 98 106 106 92 91 89 78 80 83 82 90 86 91 98 105 112 114 113 115 113 117 113 116 119 119 115 110 106 102 102 96 94 98 96 94 97 101 110 110 108 107 96 93 94 59 51 83 88 95 105 110 99 97 92 92 92 87 82 84 84 89 95 98 113 119 119 121 118 120 118 119 121 118 116 112 106 100 93 90 97 104 108 106 101 101 106 111 107 101 92 91 91 54 49 82 86 90 100 104 100 97 96 96 92 89 84 79 77 77 78 86 97 105 110 114 117 119 118 115 117 112 104 93 89 87 86 96 100 104 109 106 101 99 100 105 108 99 90 90 86 53 51 83 82 87 91 95 93 92 93 92 88 88 86 85 79 74 70 69 66 68 72 73 74 76 77 75 73 71 75 80 85 91 92 96 104 106 106 103 101 94 97 105 102 94 86 85 84 51 48 77 80 83 83 86 89 86 88 92 89 88 90 86 83 83 81 82 81 76 73 73 73 72 71 75 77 84 91 91 90 95 97 99 105 106 105 101 97 96 96 101 97 89 82 86 83 51 47 76 77 81 83 85 82 83 85 87 88 88 89 87 84 88 88 90 88 89 89 85 83 81 84 88 92 94 101 94 94 101 99 98 100 98 98 98 101 99 94 98 94 84 80 82 81 52 46 75 75 79 81 83 78 81 85 85 88 85 85 85 86 88 88 91 95 95 93 91 89 89 93 96 101 100 102 102 99 100 100 97 99 101 100 101 101 96 98 101 88 81 80 80 81 57 50 75 74 75 76 74 76 78 80 80 81 78 85 85 88 92 93 96 101 106 105 105 105 105 101 106 106 106 107 105 100 94 95 90 94 104 98 97 96 96 95 89 81 78 76 80 89 57 54 79 73 75 77 83 79 78 76 78 83 83 84 87 90 88 92 98 103 107 110 115 113 114 114 115 114 112 110 106 95 90 88 90 93 100 100 101 99 94 89 82 78 76 77 84 91 58 54 84 71 72 77 78 79 81 79 79 80 82 81 81 82 86 89 99 104 110 112 112 109 114 114 119 116 112 105 104 93 86 88 95 99 100 102 99 91 89 83 81 76 74 81 88 93 58 54 84 76 72 71 73 75 80 77 81 80 79 85 88 82 84 88 94 96 100 104 100 102 109 110 112 109 110 104 96 90 88 97 100 104 101 101 97 87 83 80 76 72 77 92 94 92 57 56 85 81 73 65 64 70 75 77 81 84 83 86 89 80 78 84 86 89 94 94 91 89 97 103 104 108 101 99 92 91 96 94 98 101 102 94 87 80 77 73 68 73 88 89 92 93 57 57 85 84 78 64 57 60 69 72 77 82 83 84 92 87 81 90 88 88 90 90 90 91 94 92 97 96 91 84 88 94 101 102 103 95 92 87 81 74 69 66 71 83 86 89 93 93 55 54 87 84 80 71 59 49 57 66 75 77 82 84 88 92 88 85 84 85 86 89 83 87 89 83 86 88 83 84 94 99 92 98 96 90 86 77 72 65 61 70 82 86 89 90 94 92 55 56 87 88 82 77 67 54 45 53 67 73 76 77 78 83 86 90 84 80 83 81 79 75 75 83 84 84 84 89 93 86 85 97 89 85 78 73 62 61 69 78 83 87 92 92 94 94 59 34 55 54 53 49 43 39 30 30 33 43 45 47 47 46 45 51 51 51 47 46 47 48 47 46 47 51 51 50 49 50 52 49 50 50 44 36 38 41 46 48 53 53 55 57 59 57 36 