P2
48
60
255
23 44 59 67 69 69 69 71 73 77 77 76 80 81 80 80 80 77 78 77 77 77 77 76 76 75 75 73 71 73 72 71 69 68 64 62 61 61 60 60 59 57 55 51 45 41 38 22 35 71 96 108 114 115 113 115 120 122 124 124 127 128 128 129 129 126 124 125 125 126 125 125 122 122 122 119 117 117 116 113 110 109 105 102 101 101 100 97 96 95 91 84 76 68 62 36 36 73 95 107 114 115 115 117 122 123 126 126 127 127 127 128 127 126 125 126 125 126 124 124 123 122 121 117 116 116 113 112 110 107 105 103 104 103 100 99 97 96 93 89 80 71 64 36 35 72 96 107 113 115 117 118 122 123 124 126 125 127 128 126 126 126 126 125 124 125 124 124 122 121 118 117 113 113 111 110 107 105 104 103 104 101 99 97 97 97 95 91 82 73 66 37 36 74 97 106 114 115 117 119 119 121 122 125 126 126 125 125 126 127 125 125 124 123 122 121 120 119 118 115 114 111 109 108 107 105 103 103 102 99 96 96 96 96 95 92 85 76 67 39 36 73 97 106 111 114 116 117 117 118 121 122 122 120 123 123 124 125 126 123 122 121 122 120 119 119 118 113 110 109 107 103 103 104 102 100 100 97 95 95 96 97 95 93 85 77 69 40 35 72 96 103 109 113 104 93 89 89 95 100 100 100 102 114 112 115 118 121 121 120 120 119 120 118 112 111 105 101 99 97 98 96 90 85 86 81 79 77 77 87 92 92 86 79 71 41 35 70 95 104 109 100 77 72 64 61 64 66 65 65 70 89 96 99 113 117 118 119 119 117 117 114 110 104 95 89 84 80 67 62 62 63 64 63 63 64 62 62 76 88 89 81 74 42 35 69 95 103 99 70 63 76 83 90 94 87 80 73 69 75 87 90 105 113 114 117 117 112 111 110 104 98 85 78 74 68 62 57 57 58 61 63 64 68 70 69 66 76 86 83 76 43 35 69 94 98 72 77 99 115 116 119 115 109 101 97 86 79 85 87 102 111 111 115 113 111 108 104 98 91 80 75 70 65 62 62 68 73 82 90 93 94 93 87 78 72 72 82 79 45 36 69 93 88 92 109 116 121 124 124 115 113 105 99 95 93 92 92 100 108 111 111 112 110 104 100 94 86 78 73 71 69 69 76 86 94 100 101 100 101 98 96 91 84 79 75 77 47 39 71 93 96 105 113 115 119 121 121 118 113 105 100 96 94 93 93 99 105 110 113 112 108 103 99 91 83 75 70 71 74 80 88 97 103 102 101 100 98 96 94 90 89 85 80 77 47 42 72 96 103 106 110 113 117 118 116 113 110 105 99 95 93 92 92 97 103 113 117 112 106 102 95 87 76 70 68 73 82 93 98 103 103 100 97 96 93 91 90 87 85 84 82 80 48 43 73 96 104 105 105 108 112 111 105 102 101 99 94 92 90 87 87 92 103 113 120 118 110 104 92 81 70 64 67 79 92 96 98 97 94 89 90 87 85 84 84 84 82 82 82 82 49 44 72 96 103 104 103 100 101 92 80 74 69 68 67 72 79 85 85 90 101 114 125 126 117 107 95 79 65 60 69 83 89 82 75 73 68 64 63 64 64 70 73 78 81 80 79 80 50 43 73 96 103 104 101 92 75 62 52 51 51 50 48 51 55 69 81 90 102 113 126 130 122 112 96 81 65 61 69 75 71 65 62 60 56 53 54 54 54 55 60 67 74 77 78 80 50 41 73 99 102 103 98 82 57 48 56 82 68 75 46 47 55 63 77 93 111 116 128 133 125 116 98 85 75 69 67 67 67 65 88 78 71 49 54 56 56 55 55 59 67 73 79 82 52 40 78 101 105 104 100 85 63 57 71 105 75 69 44 49 59 69 73 95 116 117 128 133 127 121 102 92 87 91 82 68 65 81 104 79 64 50 57 62 62 61 63 67 70 75 81 88 56 39 82 103 109 110 110 104 90 81 73 74 75 69 69 78 83 89 96 108 115 118 130 130 130 122 105 97 95 97 101 101 99 97 96 91 82 74 80 85 92 93 94 100 101 97 96 98 60 41 88 104 112 115 116 117 116 120 120 111 108 110 108 106 107 107 109 115 117 120 126 125 126 121 106 98 97 99 98 99 103 106 110 112 107 101 104 106 108 108 107 107 107 106 107 106 64 42 91 106 114 117 117 120 123 128 132 129 126 121 112 109 110 114 123 121 116 117 123 122 123 118 106 99 98 99 102 102 104 103 103 105 101 98 99 99 102 106 110 112 112 108 107 108 65 43 93 108 115 117 119 122 126 126 126 122 122 120 123 122 123 126 125 114 113 116 121 118 117 115 104 97 96 97 99 106 110 108 111 111 111 111 112 116 119 122 123 120 116 112 108 107 65 43 95 108 115 119 122 124 126 127 130 126 129 127 126 127 129 126 118 113 112 115 119 118 114 107 99 96 96 96 96 102 110 116 120 121 121 125 126 127 126 124 125 120 116 111 107 105 64 43 95 107 115 119 121 123 124 124 125 124 126 125 127 127 125 119 114 113 112 114 118 119 114 105 98 95 94 94 96 101 108 115 122 126 125 127 127 125 125 126 124 119 113 108 106 104 63 45 94 107 116 119 121 124 125 124 124 123 123 124 125 123 123 120 113 114 113 115 118 118 113 104 97 97 92 93 95 102 106 113 118 123 124 125 127 126 126 126 123 115 108 105 103 101 62 48 93 106 115 116 122 123 124 128 128 123 120 124 124 124 123 118 114 112 113 115 117 114 111 101 97 93 91 91 94 100 106 112 116 120 123 123 125 125 125 123 118 110 106 103 101 99 61 48 88 107 113 115 117 123 126 129 130 125 121 122 122 122 121 119 112 110 112 117 116 116 110 100 95 91 89 85 89 97 104 110 116 118 121 123 126 126 126 122 115 109 105 100 99 98 60 47 82 106 111 114 117 124 129 132 131 127 123 119 119 119 120 115 110 109 111 118 121 122 122 101 93 90 87 84 85 89 95 105 111 117 119 121 125 125 125 122 116 109 104 101 99 97 59 47 73 105 109 113 118 122 129 132 129 126 124 120 117 115 112 109 110 108 112 122 132 120 120 97 89 87 87 89 89 81 82 95 105 111 116 118 122 123 123 121 116 106 103 99 96 95 57 48 65 103 107 111 114 121 125 129 129 126 123 119 114 109 103 104 109 103 103 110 121 108 98 82 74 75 82 91 93 84 76 86 97 106 111 115 118 117 117 112 109 106 102 97 94 91 56 49 60 97 105 108 112 116 122 126 127 126 121 115 109 101 96 101 106 96 92 93 96 92 78 65 63 67 77 89 90 83 72 79 90 101 106 109 114 115 112 108 104 101 98 95 92 91 54 51 59 87 105 104 108 112 117 121 122 122 117 111 102 95 94 103 103 92 84 87 86 77 65 59 58 63 72 79 80 77 73 75 84 97 104 105 107 108 108 104 101 98 95 93 90 89 53 52 60 76 104 102 106 110 112 118 118 118 112 104 96 91 98 111 95 80 60 62 81 71 63 55 51 51 63 69 67 74 81 83 84 93 101 102 103 105 103 100 97 94 91 89 88 86 52 55 65 64 102 101 105 108 109 111 114 114 107 99 90 89 105 117 108 81 68 77 87 74 66 61 56 53 57 65 63 84 93 91 91 95 100 100 100 100 98 96 94 91 88 85 85 84 52 58 69 56 100 100 102 105 107 110 110 106 100 91 87 94 114 116 115 110 98 95 95 84 79 76 66 58 57 60 67 92 98 97 97 97 98 98 98 97 95 95 90 88 86 83 82 82 50 61 75 54 96 100 101 103 105 106 105 100 95 87 88 105 115 115 115 113 110 106 103 91 87 92 84 74 69 73 87 99 100 99 100 97 96 95 94 93 91 89 87 84 83 81 79 79 50 60 76 56 88 101 100 102 102 104 101 97 92 86 97 111 115 114 112 109 109 107 101 87 92 104 105 99 98 101 102 102 100 99 98 96 94 92 91 90 90 87 86 83 79 77 79 78 49 58 77 57 84 101 100 101 101 101 100 95 87 91 103 112 113 112 109 108 105 104 97 93 101 113 118 117 113 111 106 103 101 99 97 94 94 90 89 87 87 86 84 81 78 77 77 79 49 61 79 58 79 101 100 102 101 101 101 95 90 98 107 112 113 112 111 112 107 104 102 103 112 116 112 109 109 110 107 103 101 99 97 92 91 91 87 88 87 84 81 80 77 76 76 78 49 59 81 62 74 100 101 102 102 102 103 98 95 104 110 112 115 108 96 90 85 81 81 82 87 81 78 76 77 79 82 85 93 96 92 87 85 87 84 84 85 83 81 80 78 77 76 78 49 54 83 67 63 100 101 102 104 103 103 101 96 107 108 107 104 85 75 72 70 70 77 82 76 69 69 69 67 67 67 64 68 76 81 79 80 83 84 80 85 84 82 80 79 77 77 78 49 53 88 64 59 99 102 103 107 105 107 107 99 108 98 91 83 69 67 72 91 109 120 128 109 90 109 96 77 73 72 64 63 61 62 65 70 79 83 85 90 89 84 81 78 77 76 79 49 53 92 64 58 93 101 103 107 108 110 108 102 100 86 72 62 56 73 101 134 138 154 149 138 119 133 116 98 93 88 72 64 58 53 55 65 75 83 90 97 93 86 82 79 77 77 79 50 53 94 69 60 85 101 103 105 108 109 109 101 95 90 85 83 72 77 101 133 138 149 145 141 133 136 125 113 98 95 82 64 60 59 66 76 87 85 91 96 91 83 81 79 77 77 79 51 52 90 74 59 74 102 104 105 107 108 108 100 97 101 103 108 97 95 91 93 98 117 125 124 112 126 118 107 87 93 88 83 83 88 96 96 94 88 91 94 88 83 80 77 78 78 79 51 51 90 79 62 62 99 103 105 107 108 107 101 101 104 109 113 109 106 106 102 100 100 102 104 102 103 102 105 109 94 86 88 90 92 93 92 89 87 88 91 84 80 79 78 79 79 79 49 50 89 83 63 58 92 101 103 105 107 105 101 103 107 110 110 112 108 107 106 111 108 107 106 106 103 100 97 92 85 82 85 83 85 88 90 86 86 83 88 83 79 78 77 78 79 78 48 48 88 85 64 57 78 99 102 104 105 105 104 103 107 107 108 108 108 105 105 102 105 103 102 101 98 93 86 82 78 77 75 77 82 85 85 83 84 86 85 81 77 78 78 77 77 76 46 46 88 86 66 59 62 96 101 103 103 104 103 105 105 109 109 107 105 102 97 90 85 80 79 77 75 72 71 69 68 70 73 77 80 84 85 83 85 84 82 78 77 76 76 75 74 75 46 46 87 89 70 61 54 86 97 101 103 103 103 104 106 110 109 106 105 101 96 90 82 77 75 73 72 72 71 70 69 72 77 80 82 85 88 84 83 83 80 78 76 73 74 74 72 74 45 46 87 91 73 65 53 65 94 99 101 102 104 105 109 111 109 109 106 101 98 93 86 81 82 79 75 75 74 74 75 76 79 83 85 88 87 84 85 83 81 77 74 72 71 71 70 71 43 46 86 93 75 69 57 51 84 97 98 101 103 105 108 112 111 111 109 105 102 96 90 88 88 84 80 81 79 80 80 81 86 88 89 89 89 87 85 83 81 76 73 70 69 69 69 69 42 49 86 95 77 71 61 50 62 92 95 98 101 102 106 111 112 112 111 107 105 103 99 99 100 97 94 93 93 92 93 93 93 95 93 92 90 86 84 82 78 73 71 69 67 68 67 67 41 51 86 98 83 71 66 52 47 78 93 96 97 100 105 110 111 113 114 112 112 113 112 113 112 109 106 106 107 106 105 102 100 100 94 91 89 85 83 80 75 72 69 68 67 66 65 63 38 53 83 98 86 72 73 54 48 53 86 94 95 99 103 105 109 112 116 117 116 119 120 120 119 115 113 114 112 108 105 103 100 99 94 91 86 83 80 76 72 69 66 64 64 63 61 60 36 51 80 99 89 75 72 59 49 44 60 87 93 96 99 101 105 108 112 118 122 123 127 123 117 111 107 107 105 103 100 98 96 97 91 86 81 79 74 71 68 65 63 62 61 59 58 56 34 55 79 100 89 80 70 64 49 44 43 68 86 90 94 96 101 102 108 113 117 121 121 115 105 98 97 99 101 101 98 96 95 92 85 81 77 73 70 65 62 61 58 57 56 56 54 53 33 54 80 99 88 83 71 70 50 46 42 47 67 83 88 92 95 99 102 106 107 109 108 99 88 81 84 92 98 98 96 92 88 82 77 74 69 65 63 60 57 56 55 54 54 53 51 50 32 55 79 100 87 89 74 71 51 47 46 45 43 60 78 84 88 92 94 96 98 98 93 85 77 70 75 86 91 90 86 83 78 71 67 65 61 59 56 55 54 53 52 52 51 50 48 48 33 35 47 61 53 57 46 44 35 29 30 27 24 25 35 47 49 53 54 55 55 56 52 48 43 41 46 52 51 50 48 45 40 39 37 36 35 33 33 32 32 31 31 31 30 29 28 29 19 