P2
48
60
255
25 42 44 46 47 47 48 48 49 50 51 53 54 56 56 57 57 57 57 58 60 61 60 60 61 62 64 64 65 66 66 65 63 64 65 66 64 66 65 64 62 59 54 44 46 46 44 23 41 68 69 72 76 77 77 77 79 82 84 86 88 89 90 91 91 91 93 95 97 99 98 98 99 100 103 103 102 103 103 103 102 104 104 103 104 105 105 103 101 98 91 77 71 75 75 44 41 69 70 73 76 78 78 78 79 83 85 87 89 91 91 92 93 93 95 97 98 98 99 98 98 99 99 103 101 101 99 101 103 104 103 103 103 104 103 103 101 99 94 90 73 72 78 48 41 70 71 72 75 78 79 78 81 84 85 88 92 93 93 93 94 95 97 97 97 99 99 97 98 98 101 102 101 101 101 101 102 102 102 102 103 104 104 103 100 100 99 93 87 76 75 51 42 69 69 71 74 77 79 78 81 82 84 88 91 95 96 95 95 97 97 97 98 100 99 97 97 99 102 103 102 103 104 105 103 99 103 104 103 103 104 101 100 98 98 94 94 86 80 50 42 68 68 70 73 76 77 77 76 79 83 86 89 92 96 96 97 96 97 97 98 99 98 97 99 101 102 102 102 105 106 106 107 108 107 105 103 103 101 99 98 97 96 94 93 88 83 52 42 68 70 71 73 73 70 65 66 71 76 80 85 87 89 90 92 95 97 97 96 96 96 98 99 100 104 102 103 106 106 109 110 109 109 104 99 98 97 94 90 89 91 94 93 90 84 52 42 68 71 70 67 62 59 55 54 57 55 55 59 66 72 76 82 88 93 95 95 97 95 98 99 99 102 100 102 103 100 99 96 88 85 88 83 82 77 75 72 68 79 86 89 88 86 53 43 69 65 59 57 54 52 48 46 44 43 44 45 46 52 57 67 79 81 84 90 95 94 97 98 99 100 96 97 92 79 80 71 66 60 56 57 62 58 59 63 62 63 68 74 84 85 53 42 65 57 54 50 49 49 51 53 50 47 46 44 45 45 49 56 67 69 71 79 91 92 93 97 97 98 90 82 76 66 62 56 53 50 51 49 52 51 56 57 57 56 58 57 65 79 51 40 58 53 54 59 63 65 71 72 72 71 67 60 53 48 48 54 60 63 63 71 79 86 86 92 93 87 79 69 64 58 55 53 53 54 59 67 74 82 87 84 79 76 73 62 58 60 48 36 56 58 63 65 67 69 72 73 75 77 77 74 69 61 56 55 56 61 63 66 68 74 83 86 84 76 72 70 66 62 66 69 71 74 80 85 87 91 93 92 89 91 88 82 73 61 43 37 60 63 63 63 63 65 66 69 67 68 70 68 65 63 58 55 55 59 60 59 61 66 76 78 79 76 76 78 77 76 74 72 70 69 69 72 77 79 82 84 84 83 85 88 86 81 45 39 63 61 60 58 58 58 55 58 59 60 63 70 73 63 51 47 46 51 59 61 62 71 77 78 85 85 83 83 75 68 65 58 56 59 61 67 78 87 78 70 73 78 81 85 87 86 50 39 62 59 58 56 51 51 51 50 47 51 39 51 65 64 59 48 44 45 54 61 65 74 82 87 88 92 89 75 65 60 55 54 53 53 51 44 50 56 67 76 72 75 79 83 86 88 53 39 61 59 57 53 50 49 51 60 53 41 38 93 75 87 53 47 44 46 50 61 68 73 79 87 90 92 84 73 64 61 57 58 73 57 47 46 87 62 83 61 70 71 80 82 85 89 56 40 61 58 56 54 54 58 59 66 55 50 49 55 91 88 62 46 47 52 51 61 68 76 84 91 93 92 81 83 72 74 66 67 82 59 50 44 55 77 104 78 67 72 77 82 86 90 57 42 65 60 57 55 55 60 63 68 68 60 58 71 85 67 54 48 49 55 52 60 66 77 83 91 93 91 79 86 72 64 61 64 78 75 58 58 67 90 82 76 75 76 77 81 89 93 58 43 68 65 62 62 63 65 67 69 71 73 70 75 73 63 55 50 52 54 54 60 64 77 86 91 92 89 80 80 76 67 65 68 72 74 73 77 83 86 85 83 80 79 83 86 92 94 58 45 74 71 69 66 65 65 69 75 78 78 77 74 68 60 54 51 53 53 58 60 63 77 83 87 89 87 84 76 76 71 68 69 71 75 80 86 92 93 92 88 85 85 89 90 93 95 57 47 77 75 73 71 67 64 66 70 75 74 73 71 67 60 55 53 54 57 60 59 63 73 80 84 87 85 85 81 77 76 76 76 75 76 79 84 89 92 91 88 91 92 92 92 93 94 58 48 79 78 78 77 75 72 72 73 75 77 74 71 67 61 57 57 58 59 60 60 67 76 80 85 86 84 83 84 82 82 83 83 84 84 85 87 89 93 94 96 97 96 95 94 92 94 57 48 80 81 79 78 77 76 78 79 80 81 79 74 69 63 59 59 59 60 59 64 78 82 82 85 86 83 83 85 84 85 86 89 90 92 92 96 99 99 100 98 98 96 96 95 94 92 56 49 82 82 81 81 80 80 80 80 81 82 79 73 67 64 61 59 60 60 63 75 81 78 81 85 84 81 80 84 85 85 88 90 91 93 94 96 96 98 98 99 98 97 96 96 94 92 56 48 80 81 82 82 83 82 81 82 81 77 74 69 66 62 61 60 62 64 71 84 78 77 81 81 80 81 81 83 87 85 87 90 91 91 92 92 94 95 94 96 96 98 99 99 95 93 56 47 79 79 81 80 82 83 83 81 79 76 72 69 66 63 65 63 64 67 80 88 79 78 83 85 85 83 82 82 86 89 88 91 92 92 92 91 92 94 96 98 99 99 99 98 96 93 56 46 77 78 79 80 82 82 81 79 79 76 74 72 69 69 66 62 65 74 85 89 81 89 90 92 97 93 87 85 83 92 94 94 95 96 95 95 95 98 97 99 102 102 100 99 96 93 56 45 75 77 78 79 80 81 81 79 78 75 73 70 68 66 62 64 71 73 68 69 80 92 93 97 112 103 91 88 82 87 101 100 98 98 98 98 99 101 102 102 102 103 99 99 97 93 55 44 72 75 77 77 78 79 80 79 76 74 72 69 65 60 59 69 69 66 63 63 71 86 93 94 97 94 90 92 86 83 94 102 103 102 100 101 102 103 104 104 102 100 99 97 95 92 56 43 70 73 75 76 79 79 80 79 77 74 71 68 61 57 60 69 67 65 62 62 68 83 87 87 87 89 89 91 90 85 90 95 101 104 103 104 104 104 105 106 102 100 98 97 95 92 55 43 70 72 74 74 78 79 79 80 78 77 72 68 60 55 58 67 66 46 38 44 66 75 81 83 84 69 65 77 90 88 89 89 93 101 104 105 104 105 106 105 103 101 98 95 94 91 53 42 68 70 71 72 75 78 78 80 79 79 74 68 61 57 55 63 62 46 37 38 53 72 77 81 70 54 56 58 78 86 92 90 89 94 101 104 104 106 107 106 102 100 98 95 93 88 52 42 69 69 70 72 74 78 78 80 82 82 79 72 68 63 60 55 57 58 56 53 57 66 73 83 86 84 88 76 78 87 91 92 91 90 98 103 105 104 105 104 103 100 97 94 90 83 51 42 69 70 70 71 74 78 79 81 83 83 80 75 71 68 68 65 60 56 61 65 66 71 76 83 88 88 83 80 85 87 90 92 93 91 95 100 104 105 104 102 100 99 95 93 89 85 51 42 68 68 69 71 72 76 79 82 83 81 76 73 71 69 71 72 71 68 67 71 78 79 78 86 90 90 85 84 83 85 87 90 94 94 96 99 104 104 104 103 101 98 95 92 89 84 51 41 68 67 67 69 73 75 78 81 82 77 74 70 70 69 72 72 72 72 73 76 85 87 82 89 93 92 88 84 83 83 85 87 91 94 96 97 101 103 103 102 99 97 93 91 87 83 50 42 68 67 66 67 71 75 77 78 77 73 69 69 68 71 71 69 73 74 75 81 91 91 84 85 92 97 91 87 84 82 84 87 88 89 93 98 97 101 102 99 97 95 94 90 86 83 52 42 68 67 66 67 71 73 75 75 73 72 68 68 70 71 71 73 74 76 80 86 93 90 84 85 92 96 93 92 88 86 89 88 87 87 89 96 96 99 102 98 96 95 92 90 87 84 52 42 68 67 65 67 69 71 72 72 73 72 66 65 69 70 71 73 75 78 79 88 91 87 83 84 91 94 96 93 90 92 92 90 93 91 91 91 95 97 100 96 94 94 90 90 87 86 51 43 68 67 66 66 67 68 69 70 70 71 71 67 65 66 70 74 77 80 81 84 88 86 84 87 93 96 96 94 93 93 95 96 93 91 92 89 94 95 98 95 94 93 90 88 86 86 58 43 69 67 65 65 66 66 67 67 72 76 72 67 63 65 68 69 70 68 68 69 73 82 85 79 77 77 80 85 89 90 91 94 93 94 93 90 95 95 97 92 92 92 88 87 87 87 75 44 70 66 65 65 66 66 67 67 73 75 72 65 60 61 60 59 59 59 59 57 58 61 66 64 61 63 66 68 71 76 82 81 82 87 92 94 94 94 96 90 91 92 89 88 88 88 93 44 68 67 65 65 66 66 68 68 74 78 69 55 50 49 47 46 48 51 54 55 56 57 61 65 65 66 68 65 59 58 56 56 64 77 89 94 95 95 95 90 90 91 89 88 89 89 117 45 70 68 65 65 65 67 68 70 77 79 75 65 51 42 45 50 57 63 70 74 75 74 76 81 83 83 78 76 71 68 71 81 84 86 90 95 95 96 95 90 90 91 89 90 90 92 135 45 71 68 66 64 63 65 68 71 77 79 77 72 65 56 52 55 60 64 72 77 76 77 81 85 88 86 81 81 81 86 91 94 94 95 96 95 97 95 93 89 89 90 91 92 89 97 145 45 71 69 66 65 63 63 67 72 74 77 76 71 66 61 59 63 65 69 70 73 74 78 80 83 89 91 90 93 95 97 96 96 99 100 99 98 98 95 90 88 88 90 92 92 89 116 155 46 72 68 66 65 63 63 65 71 72 73 73 72 70 67 64 64 68 72 75 76 75 74 75 82 89 95 96 98 99 99 97 97 101 100 100 96 96 95 88 87 88 89 91 92 88 154 157 46 71 68 66 64 63 63 63 67 69 70 71 71 71 71 69 69 71 73 75 78 75 73 76 79 86 92 97 101 101 100 99 96 98 99 97 97 96 94 88 87 88 89 92 91 89 205 158 47 71 69 67 65 63 63 62 65 67 68 68 69 71 72 74 73 74 77 77 79 77 80 85 88 91 96 101 103 102 100 100 98 97 97 93 96 95 91 88 88 89 88 90 89 101 243 158 56 72 69 67 65 64 63 62 63 67 68 66 67 70 72 73 77 79 82 82 83 81 84 88 91 95 99 100 103 102 100 98 97 97 97 94 94 92 88 86 87 87 88 88 87 153 254 158 75 75 69 66 65 64 63 62 62 65 66 66 67 70 71 73 78 81 84 85 83 80 83 86 90 93 98 100 102 100 99 98 97 96 97 94 93 89 87 86 86 85 87 88 95 224 255 158 65 83 69 66 64 64 63 62 60 62 65 65 66 68 71 74 78 80 84 84 84 84 84 90 91 94 96 100 102 100 100 98 97 96 97 93 91 89 86 86 85 86 87 87 141 253 255 158 57 83 73 65 64 62 62 62 61 60 65 65 67 66 69 73 77 80 84 83 85 87 87 93 91 92 94 99 102 100 100 97 96 96 95 92 90 87 85 85 85 85 87 89 162 255 255 158 53 82 77 67 64 62 62 62 62 62 64 63 65 65 68 72 75 79 82 84 86 88 89 91 90 93 95 99 101 98 94 95 95 96 93 90 87 86 84 83 86 86 88 88 169 255 255 158 52 80 75 69 64 62 61 61 61 61 62 64 65 65 66 69 73 78 82 86 88 90 90 89 90 91 95 98 100 97 94 94 93 94 91 88 84 83 83 82 84 86 87 85 178 255 255 158 52 79 76 71 65 62 60 60 60 60 61 62 63 63 64 66 69 75 82 85 90 92 91 88 88 92 99 99 97 93 90 91 91 90 88 84 80 80 82 82 83 85 87 85 181 255 255 158 53 78 74 71 67 63 61 60 60 60 59 60 61 60 60 63 65 71 79 82 85 88 87 86 89 89 93 92 86 89 88 89 90 87 83 79 79 79 81 81 84 86 88 84 186 255 255 158 52 78 74 72 69 64 61 60 58 59 59 58 59 58 57 60 64 69 74 81 84 85 84 85 86 85 88 88 85 85 86 86 86 83 79 77 77 78 81 82 86 88 88 84 183 255 255 158 50 78 73 71 69 66 62 60 59 58 58 59 58 59 58 57 60 64 70 76 81 82 81 81 83 83 84 85 82 81 83 83 80 77 75 76 79 82 82 84 90 90 88 84 181 255 255 158 31 48 44 43 42 42 40 38 37 37 36 36 35 36 36 35 37 39 42 44 48 49 48 48 47 49 48 50 49 50 48 47 46 45 47 51 52 52 52 53 56 56 54 52 111 158 158 98 