P2
48
60
255
16 28 32 37 45 52 60 62 65 68 70 71 72 74 76 80 80 80 80 77 77 78 79 80 79 81 81 81 81 81 82 81 82 80 76 73 73 73 71 72 70 66 59 54 50 42 32 17 26 46 57 68 80 89 99 105 109 114 114 118 117 121 128 131 133 133 130 129 129 128 129 130 131 132 133 131 133 133 134 134 135 129 123 123 124 123 124 125 122 112 101 89 85 76 57 29 25 50 63 78 86 94 102 109 112 116 116 122 124 127 130 133 135 137 135 133 132 129 131 131 131 134 134 135 137 133 136 134 135 132 128 126 129 129 129 129 125 117 106 94 86 79 66 31 28 57 73 83 88 97 106 115 121 122 129 129 127 131 133 137 136 138 137 137 134 132 130 130 133 133 133 135 134 133 132 133 135 133 133 130 129 128 130 126 122 120 111 96 86 82 73 35 36 68 79 85 90 97 109 117 120 124 132 128 131 135 133 135 133 135 135 137 135 131 130 130 130 129 128 130 135 131 129 132 135 133 132 124 120 113 114 109 109 113 113 100 89 83 78 41 41 78 82 87 90 100 112 111 109 116 125 126 130 134 135 131 130 130 133 133 133 131 130 128 130 131 130 125 127 127 124 126 128 119 113 106 96 93 89 86 85 89 99 96 90 83 78 45 45 81 84 87 92 97 99 88 85 90 94 99 102 113 122 127 125 124 124 125 129 128 127 126 129 132 129 125 120 114 116 119 109 99 89 75 71 69 73 72 72 71 75 76 79 84 78 47 48 83 84 88 84 77 73 70 70 73 72 68 71 79 92 105 115 118 117 117 121 123 121 123 126 127 121 115 110 101 97 95 81 70 59 56 54 56 61 66 66 68 63 59 60 79 79 48 51 84 84 81 67 59 63 68 70 67 63 62 59 60 65 74 83 88 96 100 107 113 116 120 121 120 113 106 97 90 83 73 67 56 50 49 54 62 74 74 73 73 68 64 59 71 80 49 54 87 83 68 59 57 63 70 71 68 64 60 53 52 54 55 60 68 78 90 98 101 109 114 116 113 106 98 88 79 70 61 55 50 51 57 68 77 83 84 83 81 76 70 64 70 79 49 56 89 83 62 57 63 72 73 78 79 77 74 66 56 51 49 50 54 60 75 83 92 104 111 113 112 104 90 79 69 64 60 57 54 56 58 65 70 71 77 81 81 77 78 78 72 82 51 58 92 80 72 70 71 76 76 74 72 72 71 66 57 54 52 53 54 55 61 72 85 98 106 113 112 106 92 80 69 63 61 58 52 60 80 95 93 93 83 66 68 79 80 79 77 84 54 60 95 85 82 75 71 69 61 69 82 91 87 87 78 60 50 57 61 59 63 72 86 102 113 122 123 111 95 80 70 62 59 55 75 80 69 56 55 53 66 74 67 62 74 77 79 87 56 61 96 87 80 71 63 58 66 59 51 51 49 46 56 72 74 57 63 64 67 81 93 113 130 131 132 121 98 82 66 63 60 75 68 58 57 37 59 42 84 58 56 58 67 76 81 90 57 63 99 92 81 70 61 56 50 82 62 37 35 35 44 84 64 78 65 67 68 86 99 123 142 137 141 126 98 81 69 66 75 63 100 94 39 37 37 44 110 97 57 55 66 79 87 94 59 64 104 101 88 77 65 56 80 106 79 39 37 38 67 137 101 60 78 73 76 90 105 127 144 149 147 128 99 85 83 85 72 85 143 127 50 39 43 69 123 99 64 60 73 87 96 101 61 65 107 108 98 86 74 63 70 106 113 59 42 51 116 148 133 87 71 90 94 95 109 129 148 150 147 128 100 90 99 91 95 106 125 129 94 58 69 117 103 77 61 76 87 99 104 102 63 66 109 113 105 99 93 74 66 78 92 104 88 89 94 90 86 97 101 95 94 98 112 128 149 151 150 132 104 91 93 96 105 104 97 89 83 77 79 84 72 66 73 90 99 103 106 105 64 66 110 113 109 105 100 87 74 68 69 73 70 69 75 80 86 94 105 101 97 103 111 123 149 149 150 137 109 98 101 104 103 94 87 85 80 75 73 75 73 77 86 98 105 109 108 107 65 66 110 114 113 112 108 100 90 85 81 78 78 84 86 86 95 106 111 109 104 107 112 131 151 152 148 133 115 105 103 114 115 111 101 92 89 90 87 86 85 92 102 110 115 117 112 106 64 67 113 117 118 121 120 117 109 101 95 95 97 98 101 107 112 114 118 115 111 110 116 133 151 150 144 128 117 109 110 116 121 116 114 115 113 107 101 101 105 113 119 124 125 124 118 109 63 67 115 119 124 130 129 127 126 123 119 119 122 120 118 117 119 123 125 123 117 113 120 133 150 150 145 129 120 113 117 120 127 126 122 123 128 130 129 128 128 128 130 133 135 130 121 111 64 66 115 121 128 135 136 135 133 132 133 132 131 126 123 124 127 134 133 129 119 116 124 135 148 148 142 128 120 116 120 129 134 133 131 130 131 136 138 140 138 137 140 140 139 134 123 111 63 67 115 123 130 139 142 142 141 137 137 135 131 129 130 136 143 143 137 132 124 119 125 138 147 147 141 127 119 117 121 131 139 143 140 138 136 135 139 143 145 146 147 144 139 133 122 112 63 67 115 123 130 138 143 147 147 146 143 142 142 144 148 151 150 146 138 132 127 121 125 136 147 150 141 123 115 116 123 126 141 150 152 150 146 143 143 146 150 152 149 144 137 130 121 112 64 68 116 121 129 135 142 147 150 150 150 151 152 155 156 159 155 145 135 131 124 118 125 136 149 150 143 125 110 111 120 127 141 149 153 154 154 151 150 151 154 152 147 140 132 126 118 112 63 67 114 120 126 132 139 143 149 152 154 155 157 158 159 160 154 142 132 122 116 114 124 137 148 148 144 127 111 104 108 123 138 150 156 157 158 158 153 156 156 152 144 135 128 122 114 109 61 67 112 117 124 129 138 141 148 153 155 157 159 159 160 157 152 138 121 106 107 111 122 142 155 155 148 131 111 99 97 112 132 146 154 159 159 158 159 155 153 149 140 132 127 120 113 106 58 65 109 116 125 131 136 140 144 149 153 154 157 157 158 154 146 129 103 107 112 111 124 147 160 160 165 137 114 100 101 97 123 140 151 156 157 158 157 154 151 145 136 131 125 118 110 101 56 64 107 114 125 130 133 138 144 147 151 155 154 155 154 149 138 110 100 120 120 112 120 147 155 151 154 133 108 105 115 97 109 135 147 152 155 155 153 150 146 141 134 129 122 117 108 98 53 62 105 113 123 127 131 134 139 143 147 150 151 150 148 143 125 93 106 122 120 109 112 128 134 135 132 116 99 107 115 101 93 125 142 149 153 151 150 146 142 137 130 125 119 114 107 96 52 60 103 111 118 124 127 128 133 140 143 146 148 146 142 133 104 87 103 105 100 99 97 109 118 119 111 94 89 96 101 98 83 111 136 145 148 148 146 141 136 129 126 120 117 111 103 94 46 58 103 109 114 118 122 125 129 135 138 140 140 139 138 119 90 86 91 79 51 50 77 91 97 97 92 79 59 55 80 88 83 98 130 141 146 145 143 138 132 125 122 118 114 108 100 90 43 58 101 107 111 115 117 120 123 130 134 135 135 135 130 107 88 91 92 74 59 62 65 77 75 75 75 58 48 53 76 91 87 91 118 133 140 140 138 133 128 122 119 114 110 105 98 84 42 56 99 104 106 111 115 119 122 126 131 131 132 130 124 105 90 95 100 94 81 79 82 85 70 70 86 83 74 80 99 101 93 93 112 128 134 133 131 127 124 119 114 110 106 103 97 79 42 54 97 104 105 108 113 116 119 123 125 128 127 124 118 102 94 101 106 104 103 104 102 98 84 87 95 98 100 104 106 104 98 97 111 124 129 127 125 122 118 115 111 108 102 100 92 77 39 52 93 101 104 105 110 114 117 118 119 120 120 122 116 104 101 108 109 106 107 107 108 108 97 101 106 104 102 107 108 104 102 102 110 119 121 122 119 117 115 112 110 104 101 97 89 76 38 53 90 99 103 104 106 110 113 112 113 111 113 117 116 110 108 112 113 112 112 111 114 115 103 102 113 114 108 109 109 108 106 106 110 113 116 114 112 110 109 106 103 101 99 95 87 76 35 54 91 95 100 102 103 105 108 109 109 108 113 116 115 116 116 118 121 121 120 117 121 120 116 114 118 116 114 112 111 111 109 109 115 114 110 108 106 103 103 101 99 97 97 92 86 73 29 55 93 95 98 100 99 99 102 103 104 107 110 113 117 119 116 118 120 120 120 119 120 128 128 130 128 117 112 112 109 109 108 111 115 113 107 104 100 100 99 97 96 95 94 91 86 68 24 55 94 94 97 96 96 98 98 101 104 107 104 111 117 115 103 105 112 115 116 111 96 100 127 131 112 99 109 107 102 100 98 102 108 108 105 102 100 99 98 96 95 94 93 91 84 61 22 53 96 95 95 95 96 96 97 98 102 106 104 109 106 95 83 88 100 101 89 73 67 68 83 87 66 65 77 96 95 88 79 87 97 100 103 102 103 99 97 95 93 93 93 89 81 53 22 51 94 95 95 96 97 97 97 98 101 103 105 105 98 83 59 63 66 59 54 56 59 58 58 59 55 54 54 56 67 66 54 71 87 96 102 103 102 99 97 94 92 94 91 89 77 44 21 48 90 94 94 97 98 97 98 102 103 105 105 103 92 66 42 58 71 84 83 79 65 59 57 58 68 71 76 68 64 60 50 53 81 96 99 104 105 101 96 96 95 94 91 87 69 37 21 44 85 92 93 96 97 99 100 103 106 104 100 101 85 68 77 80 84 98 106 108 105 100 106 104 109 108 98 89 81 85 92 81 79 90 97 104 105 100 98 95 96 93 89 82 58 34 21 40 77 88 92 94 95 98 101 103 104 103 96 90 82 95 101 90 82 86 98 109 109 118 109 108 109 101 87 85 90 100 108 102 86 88 94 101 103 98 96 95 94 91 87 76 46 33 21 34 73 84 89 91 93 95 97 99 101 98 91 90 95 108 109 100 93 89 86 86 87 103 97 94 87 83 88 94 98 105 111 108 95 87 88 96 99 94 93 93 90 88 82 68 37 34 21 25 67 79 85 89 91 92 94 95 98 94 90 92 103 112 110 104 99 94 84 77 79 75 76 77 75 83 90 93 101 108 114 111 100 88 87 92 92 91 89 89 86 84 76 55 34 34 21 21 56 75 81 85 86 88 89 91 89 87 88 95 108 114 111 105 98 91 85 78 68 67 67 62 68 78 88 96 104 110 113 109 102 93 90 88 87 86 86 85 83 80 69 41 34 34 21 21 42 69 78 82 84 85 86 87 86 86 89 96 107 112 111 108 104 97 89 82 73 72 74 77 84 90 98 104 111 110 108 106 99 92 90 87 84 84 83 82 81 75 59 37 35 34 22 21 35 59 74 78 80 82 82 83 82 85 90 96 103 109 110 111 107 104 99 99 103 104 111 114 113 110 107 109 113 111 107 106 97 90 89 86 81 80 81 80 78 68 42 35 36 34 22 21 35 54 66 74 77 78 80 81 81 86 91 94 101 108 108 111 109 111 113 116 122 126 127 128 128 124 121 119 117 114 107 102 94 89 86 82 80 79 79 79 74 51 34 34 34 34 22 21 40 60 61 71 75 76 78 79 81 83 86 92 98 105 107 110 112 117 121 126 127 130 127 129 129 128 125 121 119 116 106 100 96 89 85 80 78 78 78 76 63 36 34 33 33 34 24 21 61 65 66 63 71 75 77 76 79 81 84 91 96 101 105 109 118 122 125 129 128 130 130 129 126 126 124 123 120 116 105 98 93 87 82 79 78 78 78 70 42 34 33 34 33 33 23 26 67 62 74 66 65 71 73 74 76 79 83 87 92 98 104 110 121 129 128 129 130 131 131 131 129 129 125 122 119 111 101 97 90 84 81 79 77 77 72 50 35 34 34 34 33 34 22 42 61 62 76 75 64 65 69 72 71 74 79 83 89 95 103 109 119 127 128 129 131 130 130 131 128 126 121 120 115 106 95 90 83 80 78 77 76 72 66 44 34 34 34 34 34 34 21 56 60 64 75 81 74 63 63 68 69 71 75 79 84 91 98 103 108 115 119 123 122 125 124 123 123 124 119 112 109 100 90 84 78 77 75 74 72 68 72 82 34 34 34 34 34 34 22 56 59 66 74 83 82 73 62 62 66 67 69 74 79 85 90 97 100 107 110 115 116 116 113 112 113 115 111 104 100 89 84 78 74 74 72 71 72 71 81 116 35 35 34 35 34 34 22 55 61 66 75 81 88 82 74 62 61 64 66 68 71 79 83 89 92 97 98 102 102 102 100 101 102 99 96 93 88 82 78 72 70 71 71 74 76 75 77 134 39 34 35 34 34 35 21 33 37 38 46 49 52 55 49 44 36 38 38 39 40 44 48 51 53 56 55 57 57 54 54 55 56 55 54 53 50 48 44 42 42 43 47 48 47 50 52 102 29 21 21 21 21 21 13 