P2
48
60
255
38 64 67 65 66 66 69 71 72 70 72 75 79 80 80 84 84 84 84 85 85 85 87 88 90 90 89 87 88 85 87 88 90 89 89 88 86 85 84 85 85 82 82 81 77 79 78 47 63 105 108 105 106 111 112 116 118 118 121 125 126 131 131 134 135 133 136 139 140 141 142 143 144 142 141 143 142 141 144 146 145 146 145 144 142 138 140 137 135 132 132 131 126 126 121 73 64 106 105 105 108 110 114 119 121 120 122 126 127 131 129 136 136 138 139 139 137 136 142 138 139 141 135 141 145 147 148 151 149 150 145 145 144 143 143 139 131 126 133 132 128 123 117 72 63 103 104 106 109 110 116 117 124 125 125 128 125 129 129 134 136 137 138 139 141 139 135 135 136 142 140 142 145 143 145 145 147 146 145 145 144 142 138 136 129 126 129 129 127 119 115 69 61 101 102 104 107 110 115 119 126 126 129 127 126 127 132 133 137 138 139 139 140 136 136 139 142 131 140 140 140 141 144 145 146 145 142 135 137 141 122 105 110 109 123 128 126 115 114 69 61 100 100 103 107 108 113 115 126 126 129 124 131 133 134 130 130 132 135 137 141 137 137 141 143 129 140 141 139 138 138 139 134 127 115 110 104 101 82 73 72 80 85 103 114 114 112 69 61 100 98 101 93 85 87 89 97 108 108 113 117 131 132 130 124 129 126 130 135 137 137 134 135 122 134 131 121 122 119 108 88 81 71 65 62 61 54 55 63 68 87 92 101 109 112 70 62 99 94 92 74 71 57 58 51 47 54 63 71 87 99 113 117 119 121 124 130 132 134 136 133 121 127 115 99 88 71 67 65 62 54 50 47 48 46 56 60 62 59 69 91 105 110 67 60 95 87 71 58 52 45 36 41 37 39 36 37 41 56 74 96 103 108 110 123 126 129 133 131 110 118 104 79 61 59 57 49 47 47 45 45 50 53 56 55 54 53 61 79 98 101 63 59 92 72 49 49 54 49 42 41 38 36 33 33 40 50 57 70 84 96 100 113 124 131 132 129 106 111 95 81 72 63 57 52 46 45 49 51 57 62 60 66 61 61 54 75 88 91 63 59 85 54 46 47 47 52 69 85 82 70 62 56 55 61 63 65 73 85 90 105 121 130 133 121 105 104 93 80 74 74 75 80 82 89 94 103 105 103 90 86 83 71 70 74 83 100 63 56 65 41 50 52 54 74 96 114 126 120 117 109 97 86 79 69 68 75 85 102 118 124 128 118 110 110 93 82 83 95 107 115 122 126 128 127 127 132 126 123 104 90 77 77 79 99 61 50 58 59 60 63 83 100 113 124 127 129 128 127 119 111 101 85 71 69 83 99 119 132 128 124 114 108 92 87 98 107 112 114 121 123 125 124 129 129 128 122 117 99 83 85 87 92 59 51 67 65 60 76 97 102 109 110 106 102 98 96 98 98 95 87 70 68 78 97 121 134 136 131 119 102 87 78 91 95 92 85 68 58 57 59 65 74 87 102 108 102 100 90 88 91 62 53 76 74 71 84 86 71 55 41 31 30 31 29 34 42 54 65 59 58 78 96 120 140 141 136 120 100 76 67 78 69 50 40 37 32 57 29 50 34 38 48 68 94 95 90 87 93 61 53 78 76 75 68 46 33 35 38 36 31 43 52 75 52 44 48 52 57 77 97 117 140 141 134 122 98 80 63 64 57 51 60 89 56 38 21 40 49 62 43 51 61 86 91 97 99 66 60 85 72 66 50 45 52 63 60 62 47 59 70 104 93 67 70 90 98 92 99 118 132 134 132 116 99 96 107 103 81 84 100 108 72 64 41 56 70 94 75 65 67 68 87 95 109 71 62 95 84 71 68 69 78 90 92 85 85 89 106 107 104 102 97 101 106 96 99 121 131 135 128 113 101 104 115 120 124 114 109 106 106 104 95 98 109 100 90 92 90 90 94 105 114 73 62 94 90 80 80 81 85 89 91 98 92 92 98 102 94 96 91 93 102 98 100 122 133 134 133 118 100 102 111 108 104 101 100 101 97 91 90 95 101 109 102 99 95 95 105 114 117 71 67 102 100 88 85 87 87 90 92 97 95 94 89 88 95 92 88 97 103 99 103 122 136 136 139 124 102 105 115 111 105 97 90 86 97 104 102 104 105 101 99 98 97 107 120 128 125 74 65 105 104 94 84 85 87 88 86 84 80 85 92 96 98 99 106 108 105 98 100 119 133 139 139 125 107 104 119 124 127 119 108 95 84 80 84 91 95 98 103 107 115 123 125 127 128 76 65 106 106 100 90 84 89 92 97 101 104 104 103 105 115 116 113 109 105 98 101 113 134 140 137 122 110 103 120 127 133 139 130 118 113 107 104 104 102 106 103 107 116 123 128 127 123 75 66 108 113 111 100 91 93 95 101 103 106 106 110 122 124 119 113 111 104 98 100 113 136 141 139 119 107 106 114 126 132 140 146 137 129 122 117 117 120 118 124 126 131 129 127 130 128 72 64 111 115 121 119 106 97 98 96 108 111 116 123 124 121 115 112 111 104 99 100 116 134 140 135 118 108 106 115 128 135 137 136 142 141 135 133 126 129 127 132 137 130 119 126 130 128 71 64 111 117 121 128 127 121 122 119 122 127 128 127 124 121 116 112 108 104 102 108 121 135 143 138 125 115 112 120 130 135 139 137 141 144 140 138 135 141 142 143 141 137 129 127 128 124 72 63 108 114 117 126 128 130 132 133 131 133 132 130 125 122 116 111 104 104 104 116 130 139 142 139 126 119 116 116 126 137 140 144 143 147 143 143 144 148 150 148 142 133 132 129 125 121 68 62 105 110 113 119 121 128 130 133 131 132 130 130 129 119 103 92 95 100 109 121 134 144 142 139 130 121 111 107 100 112 132 142 146 146 147 143 144 145 145 143 137 136 131 128 123 114 69 60 101 103 110 114 118 125 129 128 131 133 132 129 119 104 78 82 94 98 113 127 136 142 142 136 136 122 108 104 103 89 107 130 141 142 147 149 144 147 150 147 140 134 133 127 119 107 67 60 100 102 107 114 121 125 124 128 130 133 128 122 104 79 65 95 97 100 117 135 139 140 138 138 138 121 106 108 113 105 76 106 126 138 144 147 146 147 149 146 142 135 130 121 115 106 67 59 98 104 106 109 116 123 122 123 126 127 121 108 85 58 76 98 98 100 115 139 139 142 138 139 144 121 106 112 117 109 71 77 106 122 132 138 143 143 145 140 137 133 125 118 110 112 69 59 98 103 106 110 116 121 123 123 122 120 107 90 64 57 83 94 96 96 107 122 127 131 129 133 130 113 105 109 110 105 78 58 85 108 120 130 132 140 141 136 132 130 122 120 112 112 69 59 97 102 104 111 114 118 118 121 120 111 94 72 53 78 95 81 72 87 95 104 111 112 115 118 112 102 96 77 78 90 91 69 66 90 111 122 128 135 137 132 128 126 116 115 107 107 64 60 96 101 103 108 110 114 116 116 112 101 82 57 68 98 102 90 53 47 83 94 97 99 103 104 98 88 73 70 72 89 93 91 75 79 98 110 121 127 127 128 124 123 118 114 107 101 59 59 97 98 103 107 108 110 115 112 105 88 68 59 93 102 102 100 86 64 60 83 85 88 90 91 80 86 86 84 88 90 91 96 98 80 86 101 115 122 125 123 120 117 115 111 110 108 62 58 96 97 101 104 105 108 109 103 93 79 63 82 103 102 100 96 94 89 77 62 60 71 77 72 67 79 82 85 85 90 95 99 107 99 79 90 107 116 119 118 120 114 111 107 109 106 63 58 94 94 99 102 104 103 103 98 85 70 74 97 101 98 96 96 95 94 89 82 64 52 61 69 77 83 84 86 86 91 95 100 104 107 99 83 97 108 113 117 114 109 109 107 107 106 64 60 96 96 97 98 102 101 97 93 81 74 94 99 96 95 96 96 97 95 92 94 94 79 75 76 80 86 87 89 89 93 97 99 102 106 111 90 86 102 107 112 112 109 105 106 106 103 63 60 97 95 97 97 100 100 95 89 78 85 99 98 93 95 97 96 98 99 98 102 103 94 83 79 81 87 89 92 94 97 99 102 104 106 106 106 83 94 107 107 108 106 104 105 105 101 61 58 96 96 96 96 97 96 92 83 84 95 97 95 91 93 94 97 102 101 106 112 114 114 99 91 89 95 96 97 96 101 99 98 100 103 104 106 95 91 101 106 107 108 105 106 103 101 61 56 94 94 95 96 98 96 89 87 90 96 96 94 94 93 94 98 103 102 104 108 113 114 113 112 110 106 102 98 93 98 97 97 98 102 105 105 99 99 102 107 106 106 103 105 100 100 60 56 94 95 95 97 97 94 92 92 92 95 95 92 89 90 90 84 76 72 73 73 78 94 105 107 99 89 87 88 87 89 95 95 88 90 100 100 100 104 103 105 104 105 104 104 101 100 61 56 93 93 94 96 97 94 95 95 94 92 91 87 75 66 57 55 59 62 64 64 60 56 62 66 64 63 63 59 60 62 68 75 66 70 92 99 104 109 106 106 105 103 104 103 97 101 61 55 91 91 93 93 93 94 97 98 94 92 85 71 57 62 62 76 88 100 95 89 82 74 65 63 67 71 75 84 82 68 57 66 63 58 80 98 106 109 105 103 102 103 103 102 99 100 63 56 91 95 93 94 94 95 96 98 97 91 72 73 84 92 94 88 84 92 97 108 116 112 112 114 108 110 110 102 98 86 92 95 91 83 80 101 112 107 103 102 104 103 105 102 101 100 63 57 93 92 94 90 91 93 94 98 98 94 90 95 93 90 90 93 100 102 99 98 107 113 118 115 114 112 104 98 100 96 94 97 105 96 87 99 109 106 103 99 102 101 105 103 101 102 62 57 92 94 93 92 90 90 94 99 98 95 96 93 96 93 87 87 93 100 108 108 111 111 110 109 111 111 108 105 101 94 92 100 104 104 95 103 110 107 101 97 100 102 101 102 99 102 62 57 92 93 90 90 91 90 91 92 92 96 98 99 98 97 92 88 86 89 89 89 92 96 100 99 97 103 101 96 93 90 95 105 111 108 98 102 106 100 98 95 99 102 103 104 102 103 64 57 93 94 91 90 88 85 84 89 94 95 99 100 99 99 97 93 85 78 74 67 60 60 62 62 68 73 77 84 86 90 100 109 110 111 106 105 101 95 94 94 100 104 104 104 100 103 63 56 91 92 91 90 88 88 83 88 93 97 101 100 97 99 100 97 92 85 79 70 67 71 74 69 68 74 80 87 92 99 105 109 112 109 108 103 98 93 93 93 97 100 100 101 100 100 63 55 89 91 89 87 89 85 84 86 90 93 99 98 95 97 101 102 100 97 93 91 88 85 83 87 91 92 95 98 103 105 106 106 108 111 107 103 97 92 89 91 94 96 97 103 101 101 54 56 89 92 90 87 86 84 86 88 94 93 97 94 95 99 103 102 99 101 104 103 100 100 96 98 98 97 103 106 106 105 108 106 107 111 107 102 96 90 88 91 93 96 100 102 102 97 31 56 89 90 88 86 82 84 87 88 92 95 90 93 95 106 111 110 115 121 121 117 116 119 112 111 108 111 112 114 114 111 107 102 108 111 108 99 94 89 90 91 95 99 101 101 100 73 23 55 89 87 87 87 83 82 84 86 87 91 90 92 98 107 114 114 117 117 117 121 121 122 121 120 119 123 123 123 117 114 112 107 109 108 102 97 94 83 89 95 98 100 102 98 94 56 20 56 90 88 89 87 85 84 83 86 87 86 88 96 105 110 115 114 113 118 120 118 118 120 120 120 123 123 126 126 126 115 107 106 108 108 98 96 92 84 91 97 98 100 98 97 85 47 18 56 91 88 89 88 83 81 81 85 84 87 91 96 100 106 112 114 114 117 117 113 115 116 119 119 124 123 123 123 121 114 104 104 106 105 98 96 87 89 94 98 99 98 95 89 82 42 18 55 91 89 88 87 85 82 81 82 82 89 93 95 97 97 106 110 109 114 119 118 115 114 118 119 121 122 121 120 116 106 105 105 107 101 98 90 89 90 96 98 99 96 90 85 79 27 28 53 89 90 90 89 87 84 82 81 83 89 91 95 96 95 101 105 107 106 114 112 112 112 115 115 118 115 115 114 111 105 106 104 102 95 91 87 89 95 97 98 96 93 87 85 69 28 47 51 86 90 90 91 89 87 84 83 84 87 90 95 90 91 95 100 105 106 106 103 108 109 113 110 111 114 107 107 105 104 103 101 100 89 86 87 93 98 98 97 96 88 87 83 51 45 56 49 82 88 91 92 91 90 87 83 82 87 91 93 89 93 91 95 98 104 104 97 101 105 106 108 107 108 106 101 100 99 101 100 93 89 90 92 97 99 100 97 92 88 86 78 35 72 61 30 49 53 56 57 57 56 54 54 51 51 57 58 56 56 53 56 59 62 62 58 59 61 63 63 61 63 63 62 61 62 61 61 54 56 57 58 60 62 60 59 54 54 52 42 19 56 39 