P2
48
60
255
19 32 25 31 32 31 28 20 28 28 31 29 28 22 19 22 29 32 32 32 35 37 36 34 37 37 35 39 41 41 41 42 41 38 38 35 34 31 30 31 32 34 34 33 33 34 33 19 24 52 46 45 51 45 52 38 36 40 42 46 52 43 35 39 50 52 52 53 60 62 59 58 63 62 60 66 69 69 70 69 67 64 61 56 58 56 56 57 55 55 56 54 53 54 55 32 28 41 51 45 45 48 41 47 50 44 45 52 58 63 60 57 56 56 56 60 63 62 58 61 65 63 64 69 72 73 73 71 69 66 63 58 58 57 57 58 56 53 55 54 53 54 55 33 37 60 49 42 40 40 43 53 64 64 66 62 63 66 67 68 67 64 62 63 64 63 62 64 66 66 68 73 76 75 73 72 70 68 65 59 57 56 56 57 57 54 53 53 53 54 54 34 38 64 67 67 63 58 54 61 66 68 70 68 67 69 69 71 72 71 67 62 65 65 64 66 68 69 72 74 75 73 71 71 71 69 66 60 57 57 57 57 57 55 52 52 53 53 54 34 38 64 68 69 68 62 60 64 64 70 71 70 66 68 71 71 72 72 69 67 68 67 67 66 67 70 72 72 73 70 70 69 69 69 67 62 58 58 58 59 58 57 53 52 53 53 54 34 38 65 66 65 56 50 51 49 51 53 58 61 61 63 69 70 70 69 69 67 70 69 68 67 67 70 70 68 67 67 68 67 66 66 64 62 59 58 58 59 60 60 56 53 53 54 54 34 38 60 51 46 43 40 35 34 34 36 37 38 40 45 53 63 66 65 67 67 69 69 70 68 67 68 68 66 63 63 64 64 63 61 59 59 57 56 55 59 60 61 58 54 54 54 55 34 35 49 48 54 59 57 52 49 44 39 36 34 33 34 37 42 53 61 62 66 69 69 69 68 65 65 64 61 60 59 56 52 51 49 48 48 50 50 52 56 57 59 60 58 55 54 55 34 33 48 57 64 65 64 64 62 59 55 51 49 45 39 36 35 38 51 60 63 68 68 70 67 64 62 58 55 52 47 41 38 38 37 38 38 39 40 41 44 45 49 55 58 57 56 55 35 29 55 61 64 63 62 62 62 62 60 58 54 51 50 46 43 40 45 56 64 68 70 71 65 62 58 53 49 43 38 37 36 35 36 37 38 40 41 41 43 46 47 47 52 57 56 57 36 34 60 62 62 61 61 60 56 53 51 51 49 48 49 48 49 50 50 55 62 68 72 71 64 59 54 48 43 40 38 37 37 38 40 41 44 44 46 47 51 53 52 50 49 52 56 58 36 38 61 62 61 60 56 50 53 50 50 47 43 37 37 40 47 51 54 57 63 70 75 72 65 59 51 44 40 38 39 39 40 41 42 44 45 47 48 49 51 52 54 54 52 50 53 59 37 39 64 62 60 56 48 51 41 34 29 31 28 28 32 34 38 47 53 58 65 72 80 75 66 60 52 44 38 38 39 38 39 41 44 47 46 44 44 46 48 49 51 52 53 51 50 56 37 40 66 64 59 54 44 34 33 39 31 41 28 27 30 34 36 42 49 59 66 73 83 82 73 64 54 44 37 37 37 38 46 50 50 52 57 53 51 46 43 46 48 50 52 52 50 53 37 41 68 67 60 53 41 39 48 48 33 29 27 29 33 41 40 38 50 59 65 75 86 85 80 70 56 46 39 36 37 40 41 37 39 35 37 40 49 53 50 44 46 49 50 53 52 53 35 42 69 70 66 61 57 47 44 51 50 33 31 32 39 46 42 43 53 64 67 75 86 87 83 73 59 51 43 39 36 39 47 39 46 34 35 37 39 42 46 49 46 48 50 52 54 54 35 41 71 72 72 70 65 56 48 40 41 43 40 39 40 42 46 52 57 66 68 76 84 87 84 74 62 55 50 41 36 42 50 39 37 34 36 38 42 41 40 46 50 49 51 52 55 57 37 42 70 72 73 72 69 64 58 53 50 48 47 46 45 49 55 61 65 70 71 76 84 84 82 74 63 57 54 51 48 46 49 48 38 37 38 40 44 44 43 43 47 51 52 54 57 60 38 41 70 72 74 73 72 71 69 64 61 57 56 57 59 61 62 65 71 73 72 76 83 82 80 75 63 57 57 55 53 53 52 51 46 43 43 44 45 45 46 50 53 53 56 58 61 61 38 40 69 72 73 74 74 74 73 73 72 71 69 69 68 69 70 74 76 74 72 75 83 82 81 75 62 56 57 59 57 54 56 55 51 49 48 47 46 47 49 56 60 61 62 64 64 64 40 40 69 71 74 76 77 78 79 78 78 77 75 74 73 74 78 79 76 73 71 74 83 83 81 75 61 56 57 59 61 60 59 57 56 56 53 51 51 51 54 60 63 66 69 68 67 66 40 39 67 71 75 78 79 81 81 81 80 78 78 77 78 80 81 79 75 72 71 73 82 83 83 72 59 56 56 57 60 64 63 61 62 62 61 58 58 58 62 65 68 70 71 69 68 66 40 39 66 69 73 77 80 81 78 82 80 80 80 80 80 81 80 77 74 72 70 73 82 83 81 70 59 56 56 56 58 62 67 66 66 68 68 67 67 68 69 70 72 72 72 70 68 66 40 39 65 69 72 75 78 80 81 81 80 80 81 81 81 81 80 75 74 72 71 73 80 82 81 69 59 56 56 56 57 61 66 69 70 70 71 71 73 73 73 74 74 73 71 69 67 66 40 39 65 68 71 73 75 77 79 80 81 80 79 79 80 80 79 74 72 71 72 77 81 81 80 71 61 57 56 56 56 60 64 68 72 73 73 75 76 76 76 75 74 72 70 67 66 65 40 38 64 67 71 73 74 78 79 79 81 82 81 79 79 77 76 75 70 69 72 79 81 80 80 75 65 58 55 54 56 58 64 68 69 72 74 75 76 76 74 73 70 69 67 65 65 64 39 37 61 66 69 72 75 78 78 78 80 79 80 77 78 77 76 73 69 71 73 82 80 80 80 78 66 59 56 54 54 58 62 67 69 73 75 75 75 73 71 69 67 65 65 65 64 64 39 36 62 65 69 73 73 75 77 79 80 79 78 77 76 74 72 71 74 71 68 74 75 75 74 70 59 56 58 56 53 56 61 65 70 73 73 73 73 72 69 67 65 64 63 64 63 62 38 36 61 65 67 71 72 73 76 78 79 78 77 75 74 72 70 71 73 68 65 65 66 65 65 58 50 51 58 59 55 55 59 63 67 70 72 71 70 70 69 67 64 63 63 63 63 63 38 36 62 64 67 70 73 73 75 76 77 77 76 75 73 71 69 69 66 58 53 60 57 55 55 49 45 45 52 58 58 54 58 61 63 67 68 68 69 68 67 66 64 64 63 62 61 62 38 36 61 63 65 69 73 74 75 77 77 77 76 73 72 69 68 65 56 40 33 47 54 50 48 43 36 35 42 50 54 54 56 60 63 66 67 67 68 66 65 63 63 63 61 61 61 61 38 35 59 63 63 68 71 72 74 78 77 77 76 72 70 68 67 66 56 46 50 61 58 48 45 38 35 33 35 43 48 53 54 58 63 66 67 67 66 64 63 63 63 61 61 61 61 61 38 36 59 63 64 66 70 72 71 76 77 77 74 73 71 70 70 69 64 55 58 62 56 49 43 40 40 38 37 42 46 57 57 58 63 66 68 66 65 63 63 62 61 60 60 60 60 60 38 35 59 62 65 66 69 72 73 75 76 76 75 73 72 72 71 70 70 67 66 66 63 53 47 53 52 44 39 39 48 61 61 62 64 66 66 67 66 64 63 62 61 60 59 60 60 61 37 36 60 62 63 65 68 70 72 74 75 75 75 74 74 74 72 70 71 71 71 70 65 55 56 66 63 57 54 51 57 61 62 65 66 67 67 66 65 64 64 63 61 59 59 59 60 61 37 34 59 62 62 65 67 69 70 72 73 74 74 75 74 74 73 73 73 72 72 71 66 58 61 70 68 63 62 61 61 62 63 65 67 68 67 66 64 63 63 62 61 59 58 58 60 60 37 28 58 62 63 63 65 68 70 70 71 72 73 74 74 74 74 74 74 73 71 72 67 62 65 72 70 65 63 61 62 63 64 66 67 67 66 65 64 63 62 61 60 59 58 58 59 60 37 25 55 61 62 63 65 67 69 69 70 70 69 71 71 71 72 74 75 74 73 74 72 67 68 74 74 67 63 63 61 62 63 65 66 65 64 63 62 61 60 60 60 58 58 58 59 60 37 23 52 60 63 63 63 66 66 68 70 70 69 68 67 68 72 73 74 74 74 74 73 74 72 77 76 69 64 61 60 60 62 63 64 64 63 61 60 60 60 58 57 58 57 57 58 60 37 27 48 59 63 63 64 65 66 67 70 70 68 64 61 63 67 68 64 58 53 50 53 60 65 67 61 58 58 58 58 57 58 59 61 62 62 60 59 59 58 57 56 57 56 57 58 60 38 39 51 58 62 65 63 64 66 67 69 70 64 56 49 51 54 51 45 42 42 43 43 45 45 42 40 40 42 47 52 53 52 51 54 58 58 59 58 57 56 57 56 55 55 56 58 59 37 43 56 62 61 64 63 64 67 69 68 66 60 49 41 42 44 45 45 42 36 36 36 38 38 36 35 35 35 37 40 43 45 44 49 54 58 58 58 56 56 56 55 55 55 56 58 59 37 42 60 105 60 63 64 65 67 68 68 66 60 55 57 63 59 59 60 59 58 56 53 47 41 43 43 41 38 36 35 35 37 39 43 51 57 59 58 57 56 56 55 55 56 56 57 58 37 39 57 105 58 61 63 64 66 66 67 65 64 64 68 70 68 65 65 66 69 71 66 66 63 66 67 66 60 57 52 47 47 47 47 53 56 58 57 57 55 54 54 54 55 56 57 58 35 29 45 56 52 60 62 63 63 65 65 65 68 70 71 70 69 67 67 64 64 65 62 62 63 65 63 61 57 56 55 56 57 59 59 59 58 57 58 56 55 55 53 54 55 56 57 56 33 25 40 43 48 56 61 62 62 63 63 65 67 69 70 70 68 66 65 62 58 55 52 51 51 52 53 54 53 54 54 56 56 58 61 62 60 58 57 56 55 54 54 54 55 55 56 56 33 26 39 42 59 54 58 61 63 63 62 65 66 68 68 68 67 66 64 61 59 54 48 45 46 47 49 50 50 51 53 55 57 58 60 60 59 57 55 54 54 54 54 54 54 55 55 59 36 37 41 40 53 48 55 60 62 62 63 65 66 66 66 67 66 64 62 59 55 50 47 47 49 50 52 53 53 52 53 54 55 55 58 58 57 56 52 51 52 52 53 53 54 54 54 61 37 65 44 36 43 45 54 57 60 62 62 63 64 65 64 65 67 66 63 59 55 51 49 51 51 50 51 50 49 50 51 52 53 54 55 55 54 53 52 50 49 51 52 53 54 52 55 62 38 48 47 34 38 49 56 57 59 60 60 62 63 65 64 66 68 68 66 63 61 62 62 61 59 58 55 54 53 54 54 54 54 53 54 54 54 52 50 49 49 51 52 51 52 52 56 62 39 35 50 40 37 55 57 61 56 58 60 62 64 64 65 68 70 71 71 72 75 77 78 75 73 74 72 68 65 60 57 55 54 52 53 52 52 51 49 49 49 50 51 51 51 52 57 62 39 43 62 47 51 60 59 63 59 56 57 61 63 64 67 69 72 74 75 77 78 77 77 74 72 72 72 71 69 64 60 58 55 54 52 51 51 50 50 49 49 50 50 49 49 53 59 63 39 53 65 48 65 60 59 63 62 58 55 58 61 63 66 69 72 72 74 75 77 76 73 71 71 71 70 69 68 64 61 59 56 53 52 51 50 50 49 49 48 48 48 48 49 54 59 62 39 79 79 61 67 56 59 63 62 61 56 55 59 61 64 66 68 70 72 73 73 72 71 68 68 69 68 66 64 63 60 59 55 53 53 52 51 50 49 47 47 48 47 46 50 55 59 62 39 100 118 70 65 51 59 64 64 63 61 56 56 59 62 64 65 67 68 69 68 67 65 64 64 66 65 63 62 60 57 56 54 53 52 51 50 49 47 47 46 46 45 46 51 55 60 63 39 55 76 72 64 44 58 63 64 64 62 61 56 55 58 61 61 62 63 65 64 61 60 59 61 63 62 60 58 56 54 52 51 51 50 50 49 47 45 45 44 44 43 48 53 56 60 62 39 91 74 72 61 41 58 63 63 64 63 62 61 55 56 57 58 58 57 59 58 56 55 54 56 57 56 55 54 51 50 49 49 48 48 48 46 44 43 43 43 42 45 50 53 56 60 62 38 64 74 72 60 40 57 62 63 63 63 62 61 60 54 54 54 54 53 52 52 51 50 50 52 52 50 49 47 46 46 46 46 46 46 45 43 43 43 41 41 42 46 49 54 57 59 61 38 29 46 44 37 25 35 39 40 39 39 39 38 38 36 32 31 31 30 30 30 29 29 29 29 29 28 28 27 26 26 26 27 26 26 26 26 26 25 24 25 27 29 31 33 35 36 37 23 