P2
48
60
255
42 68 64 67 70 69 80 83 85 90 95 93 96 98 95 94 97 97 98 98 96 96 96 96 96 96 95 95 95 93 93 93 93 93 91 88 88 84 86 83 82 80 75 73 70 69 65 38 70 116 117 120 114 118 130 134 140 142 151 153 151 154 153 155 156 156 156 158 156 153 157 155 154 154 155 153 154 154 149 148 147 148 145 147 139 140 138 135 132 127 119 118 113 110 103 60 69 119 121 120 115 126 130 133 139 145 148 149 149 151 154 152 151 151 154 155 157 158 155 153 153 149 153 149 152 147 149 145 146 148 146 143 140 140 133 133 131 128 121 116 112 109 103 61 69 114 121 122 124 126 129 132 138 142 144 145 141 143 145 145 143 146 147 152 156 157 152 148 152 153 152 147 145 145 146 145 148 141 136 128 132 134 128 123 127 122 122 118 113 108 102 61 68 114 118 122 124 124 127 130 133 130 139 139 141 141 140 141 133 138 145 146 151 154 153 148 144 150 148 142 138 134 132 135 142 131 119 118 117 122 119 123 119 119 119 117 113 108 100 59 68 113 117 117 122 123 126 131 128 124 132 131 128 133 136 135 131 127 132 137 143 143 148 144 137 139 142 137 123 127 116 114 124 108 100 105 111 117 112 114 112 116 114 114 108 105 96 59 63 106 112 115 116 119 119 117 115 117 124 118 118 114 118 114 112 118 127 140 142 135 139 138 132 132 132 126 105 103 92 91 93 70 70 74 74 80 94 96 100 103 97 103 105 98 95 58 66 107 109 108 108 105 108 104 103 99 92 81 77 77 82 90 96 106 120 131 133 132 130 127 128 128 122 111 93 85 75 80 65 57 50 51 53 55 58 71 70 77 77 73 87 96 94 57 61 101 101 92 93 87 82 74 64 59 56 53 57 60 57 61 73 95 107 117 128 127 127 126 123 126 119 96 87 74 65 66 56 49 43 42 42 38 42 43 48 49 53 55 58 74 86 55 61 88 66 60 56 49 44 43 43 46 45 43 41 46 48 53 61 77 87 109 117 115 115 109 121 119 107 98 80 75 68 62 51 45 39 37 38 40 41 40 45 50 51 49 48 50 63 48 41 47 44 45 45 47 50 45 40 42 42 37 37 39 45 48 55 61 80 107 115 121 118 119 120 116 106 95 82 73 71 63 57 51 48 46 51 61 63 68 75 80 68 57 51 49 49 35 28 47 48 48 53 56 54 54 52 52 51 47 44 46 49 52 58 65 84 104 121 127 124 117 117 118 116 99 85 78 72 73 74 73 82 98 111 114 120 120 120 117 103 89 74 63 50 26 30 55 66 76 81 87 90 98 108 109 106 97 87 79 75 72 74 75 85 105 122 133 136 128 125 123 121 110 94 85 84 87 94 100 109 120 122 123 124 120 117 114 105 98 92 82 74 34 35 67 83 88 95 106 114 117 121 118 116 109 97 89 87 87 84 85 92 105 119 136 151 149 146 140 123 110 98 89 88 93 91 85 88 98 104 107 96 89 93 101 102 99 92 89 85 42 48 82 85 94 101 101 100 92 88 96 97 95 98 93 72 66 76 79 88 102 117 137 151 154 150 143 124 108 97 87 86 77 78 106 117 103 104 111 116 106 92 73 81 91 91 90 90 52 56 94 95 95 90 76 69 88 93 76 60 45 55 56 77 83 68 72 85 97 112 127 144 153 148 141 120 105 95 84 74 82 85 66 49 66 38 50 51 72 85 84 69 76 85 90 87 53 57 92 87 82 64 69 76 59 43 35 44 30 47 60 88 57 72 81 89 99 109 120 141 154 149 139 115 104 97 89 86 71 65 94 45 37 30 35 39 49 47 62 72 63 80 87 93 58 55 87 92 70 61 63 43 49 64 37 33 31 41 75 112 81 53 87 108 107 110 116 134 150 148 135 114 104 103 102 72 60 94 113 65 42 36 41 55 75 51 40 50 71 77 86 94 60 62 98 85 69 61 38 49 70 81 62 65 62 81 95 105 108 101 98 111 109 112 115 131 144 147 136 114 104 106 104 89 103 106 102 92 85 85 86 89 79 67 51 47 61 80 90 95 61 62 96 85 73 59 59 65 68 76 87 92 83 86 92 93 105 121 114 113 112 111 114 126 142 142 136 116 105 108 106 114 117 104 97 93 89 83 84 78 75 76 72 74 83 88 92 102 66 64 98 97 95 88 84 91 90 93 92 93 92 89 91 102 116 117 111 118 115 110 113 125 139 145 135 118 106 107 112 106 112 112 102 94 93 93 94 93 96 96 96 96 102 102 103 111 71 69 110 115 116 113 113 114 113 111 104 102 103 107 115 124 126 120 122 119 115 111 116 126 136 143 137 122 110 105 111 114 115 120 121 113 108 104 108 112 113 113 115 117 116 113 110 112 73 74 123 126 128 128 130 130 129 130 129 126 126 127 131 134 130 128 125 116 112 112 121 131 137 143 138 130 118 104 108 118 121 125 128 130 127 125 128 132 136 137 135 131 128 126 122 117 71 79 130 133 134 140 142 144 142 139 136 135 136 138 144 143 139 132 125 114 110 113 127 131 134 140 137 132 123 111 105 112 120 124 133 135 136 134 131 135 141 142 144 142 138 134 130 121 70 82 135 138 140 143 143 144 144 143 143 146 150 149 150 147 140 131 124 113 111 124 133 138 141 145 140 138 131 121 106 108 116 126 132 140 141 143 142 139 141 139 143 144 142 140 136 126 71 82 140 143 145 146 144 148 147 146 149 152 152 154 151 149 141 129 117 108 116 129 146 155 149 149 141 149 140 126 110 100 110 124 132 136 141 145 144 145 144 136 140 143 145 142 136 128 74 84 140 144 145 150 147 150 148 148 153 154 152 153 154 149 134 120 107 112 117 126 136 147 150 149 150 153 131 118 110 104 102 120 135 142 141 141 145 148 145 141 139 142 141 143 133 123 74 81 135 141 147 149 150 148 151 152 157 152 154 158 156 137 116 110 111 115 110 110 114 125 136 134 131 122 107 103 107 110 110 106 123 141 149 150 146 145 145 143 141 139 138 135 130 123 72 80 133 140 145 145 142 147 154 155 154 156 163 157 138 112 108 118 119 117 109 96 100 108 115 117 115 105 91 93 105 113 118 110 109 123 141 151 148 148 139 142 143 141 134 129 127 118 70 78 134 137 138 143 148 152 157 156 160 158 159 142 116 105 111 119 111 102 93 84 91 96 99 103 99 92 78 68 77 94 104 111 104 110 127 146 153 151 147 146 143 135 136 130 127 119 69 76 133 133 137 144 150 154 155 153 159 159 148 122 105 108 108 106 90 67 37 33 44 67 76 77 79 57 36 29 36 71 92 102 101 109 112 129 148 154 150 147 147 143 138 130 125 116 66 80 133 137 139 146 151 153 150 155 158 154 135 107 102 109 98 95 80 49 36 52 73 75 72 67 74 84 83 52 38 56 80 90 97 108 107 113 134 152 154 151 146 142 140 131 122 114 69 77 127 134 136 147 152 154 150 155 153 146 122 101 106 105 93 84 69 53 77 96 97 89 85 77 77 84 92 94 71 54 68 85 101 108 107 104 125 145 149 146 144 140 139 131 124 112 68 74 125 132 137 144 148 149 152 149 149 140 115 100 107 111 111 92 65 58 77 89 98 104 101 92 96 98 87 81 72 61 79 100 109 112 110 112 126 141 145 144 144 140 134 129 124 110 64 72 121 131 137 141 143 142 146 143 142 138 121 109 112 118 113 103 96 91 94 95 111 112 103 99 103 112 105 95 95 96 99 106 112 117 118 122 133 140 145 142 137 134 128 126 119 106 63 72 121 126 134 136 139 139 138 140 137 136 126 122 123 121 114 108 107 106 105 107 112 104 94 95 103 105 106 110 107 108 107 104 110 118 126 129 137 141 140 140 136 131 126 125 118 108 64 69 118 126 133 135 135 135 136 134 136 132 130 128 122 123 120 116 111 111 109 117 115 102 92 97 106 110 106 109 109 109 109 111 113 115 126 129 132 137 136 133 127 125 125 121 114 108 64 66 117 124 126 130 132 132 135 127 126 127 128 122 116 116 117 114 112 114 110 118 111 98 100 100 103 110 107 105 108 107 110 114 113 111 119 122 127 127 132 128 125 123 119 115 113 104 63 68 114 119 126 125 127 127 126 126 123 122 122 114 113 112 108 109 108 117 118 116 119 112 110 107 112 114 114 115 109 108 109 104 104 106 113 118 122 117 125 124 120 117 113 117 107 103 62 65 109 114 120 120 121 123 125 122 121 119 113 110 111 110 108 105 113 119 118 128 135 125 120 121 125 129 127 121 116 109 111 102 108 106 111 113 116 110 112 120 118 117 113 110 105 102 59 64 106 110 112 117 122 123 123 118 116 116 116 109 109 109 113 118 120 121 122 121 130 130 127 128 133 128 122 122 119 118 114 106 101 101 103 109 108 105 108 113 116 115 109 104 104 97 60 63 107 111 112 114 120 123 122 118 116 117 110 111 105 108 109 112 110 99 91 91 95 105 118 111 102 91 86 90 97 102 105 102 96 95 95 93 102 104 107 109 114 112 107 104 100 93 58 64 102 107 109 114 116 120 121 116 118 113 111 111 107 107 97 87 82 77 78 82 85 86 85 85 79 80 79 73 69 70 79 85 87 86 83 74 90 102 110 111 111 106 107 103 96 96 58 64 100 103 110 111 114 118 116 116 113 117 113 99 89 88 73 63 63 68 70 72 70 68 71 68 67 74 73 65 61 57 55 55 60 63 63 59 79 107 110 114 112 109 104 100 97 95 58 63 101 105 105 108 111 116 120 117 116 107 101 80 66 54 48 50 63 75 78 80 82 82 83 85 91 95 95 93 92 90 82 70 59 51 51 66 95 108 113 117 111 104 101 99 97 95 58 64 99 103 106 109 108 115 120 125 116 104 87 63 54 53 67 83 93 102 108 113 113 109 108 106 112 114 119 115 106 100 92 84 81 85 92 92 103 103 112 118 110 102 99 95 96 97 57 65 103 103 106 109 105 118 122 122 112 100 95 97 97 89 86 89 96 102 112 121 123 117 115 114 117 117 117 114 102 94 89 87 88 94 107 115 114 102 112 116 108 102 98 97 97 95 58 66 105 103 105 106 114 119 120 124 111 107 115 121 114 104 100 97 99 102 106 108 108 105 104 104 103 104 106 106 102 99 92 90 92 100 111 120 119 110 115 116 113 103 99 96 98 98 60 66 104 102 105 106 109 119 119 119 109 117 128 130 123 112 105 101 98 99 101 99 93 86 84 84 83 86 86 87 86 90 90 93 97 104 114 122 122 112 114 118 110 101 96 95 96 96 59 66 105 104 107 105 110 115 114 109 108 121 128 126 128 120 113 109 100 96 89 80 70 58 54 58 56 59 69 78 85 89 93 99 102 111 117 118 120 108 111 114 107 97 96 96 94 93 58 63 105 105 107 103 105 112 116 108 110 115 122 124 129 126 122 114 109 102 93 84 79 78 77 77 79 83 80 85 87 95 101 105 108 111 113 108 110 110 105 109 102 95 93 94 94 94 58 62 104 103 106 106 104 107 111 110 111 112 115 118 122 124 125 117 115 113 107 99 93 88 88 87 89 91 95 101 104 106 111 110 110 108 106 104 108 105 103 101 97 93 93 93 93 91 58 60 98 101 100 104 103 106 104 107 100 103 104 104 117 121 122 123 123 122 116 107 99 95 94 92 93 96 101 110 114 119 118 114 111 107 102 103 100 99 99 96 91 92 89 91 91 91 57 62 100 101 98 98 99 97 101 103 102 105 106 110 114 116 120 123 125 125 124 121 116 112 111 110 107 113 121 123 124 122 120 115 112 103 101 102 98 99 97 94 91 90 89 89 90 89 56 59 98 98 95 95 98 97 95 97 98 100 102 108 110 113 119 127 130 136 139 132 127 118 118 118 120 119 125 130 133 133 129 121 110 98 97 98 99 100 97 93 91 88 88 88 90 86 53 59 97 95 93 93 94 96 96 96 94 97 98 104 109 109 116 127 135 137 132 124 126 122 123 126 127 125 124 125 126 125 127 127 116 97 95 99 98 96 94 90 91 86 88 88 90 86 52 58 92 90 92 90 90 89 93 90 87 94 99 103 105 111 115 124 124 131 127 126 128 127 131 131 127 129 125 125 120 112 117 120 105 98 95 96 97 92 90 87 86 86 88 88 89 85 50 56 90 91 88 89 88 90 90 86 84 90 96 102 105 106 113 121 124 123 126 130 130 128 134 131 132 130 127 125 120 112 110 108 101 93 93 91 92 85 85 84 81 85 85 86 86 82 48 55 88 88 90 86 86 86 87 85 84 87 92 102 102 103 107 113 114 115 124 126 125 123 125 127 122 124 124 124 122 110 105 99 94 91 89 88 84 80 82 80 81 81 83 81 81 77 46 33 54 55 54 52 53 53 52 52 50 51 54 57 60 64 63 65 65 67 74 73 73 75 73 72 69 72 75 77 71 65 61 58 54 55 52 50 49 48 49 48 48 49 51 49 48 46 28 