P2
48
60
255
21 35 37 36 38 39 39 38 39 40 42 43 45 47 48 49 50 52 51 52 53 51 49 48 49 50 49 48 48 48 49 48 48 47 45 43 42 42 41 42 42 43 44 44 44 43 42 26 34 56 59 58 61 63 63 63 65 68 70 72 76 80 80 81 81 83 83 83 83 79 78 78 79 78 77 77 78 76 78 79 77 75 73 70 69 68 67 69 69 70 71 72 70 70 68 41 33 58 58 58 61 64 65 66 68 72 74 75 77 81 82 82 81 82 82 82 81 79 78 77 76 76 75 74 77 78 77 80 79 78 75 72 70 69 68 69 70 71 71 72 72 70 69 42 32 58 58 59 61 67 69 69 71 75 77 78 78 80 82 82 81 79 80 80 79 79 75 76 75 74 73 73 77 78 78 81 80 80 78 75 76 73 71 70 71 73 71 71 71 71 70 43 33 58 58 59 63 66 70 71 70 76 78 80 81 79 81 81 78 77 79 78 77 76 74 74 74 74 74 74 75 77 79 80 80 80 78 78 77 75 74 73 72 73 72 71 71 71 70 43 35 59 57 59 62 64 67 68 69 73 76 77 78 79 80 78 79 77 75 74 74 73 73 72 73 72 72 72 74 75 77 79 79 79 78 77 77 77 77 75 75 75 73 71 71 71 71 43 36 60 58 59 60 59 59 56 59 60 58 61 63 67 72 74 72 73 73 75 74 74 73 72 71 71 69 69 72 74 74 74 72 69 70 70 70 72 73 74 75 77 75 72 72 71 72 44 36 60 59 59 57 52 54 55 56 56 54 53 52 55 58 61 65 67 69 73 71 71 72 71 71 71 69 68 66 64 64 62 62 60 59 59 61 61 65 66 70 73 75 73 72 72 73 46 36 60 59 56 51 58 62 65 67 66 59 55 53 51 51 53 57 61 65 69 71 72 71 71 71 67 67 66 61 60 57 58 57 57 59 60 61 63 64 64 65 66 70 74 74 73 75 46 36 60 59 55 57 62 64 68 70 70 65 61 56 55 53 57 58 60 63 68 69 71 71 72 71 67 67 64 59 59 58 57 56 58 61 64 69 72 74 73 70 66 66 68 74 74 76 47 36 61 58 59 60 63 64 70 72 73 71 67 61 58 58 58 60 63 64 68 73 75 74 73 72 69 67 64 60 61 59 59 60 62 64 68 72 76 76 76 75 72 71 68 72 76 76 48 37 61 59 60 61 63 64 66 67 68 66 64 61 60 59 58 61 63 66 69 73 78 79 77 74 70 67 64 62 61 60 60 63 65 68 72 75 76 77 76 75 73 75 74 72 77 78 49 37 61 61 60 59 61 60 57 56 56 55 53 53 55 58 58 58 61 65 70 78 83 84 81 76 71 67 64 62 60 60 62 65 67 68 70 71 72 73 73 73 73 75 77 76 77 80 49 38 61 61 59 58 56 52 54 58 58 56 53 52 50 52 56 57 59 65 70 79 88 87 85 81 74 68 64 61 59 60 63 63 62 60 61 63 65 66 67 69 72 74 75 77 78 80 50 38 61 62 61 57 52 51 50 47 47 47 46 44 47 50 52 56 60 65 71 79 88 90 88 86 78 69 64 60 59 60 60 58 60 64 66 68 73 72 69 67 67 72 75 76 78 81 50 38 61 62 62 56 52 46 46 57 60 56 48 45 48 53 53 58 63 68 73 80 89 90 89 89 82 71 66 62 60 58 58 62 62 59 61 59 60 62 64 68 69 68 73 76 79 81 51 38 62 63 65 61 56 56 54 56 63 50 46 46 53 63 63 59 65 73 75 81 89 90 88 88 81 73 69 67 65 62 61 59 68 66 63 59 60 64 65 64 66 69 73 77 80 82 51 38 63 66 67 67 67 67 69 67 65 64 59 58 62 65 69 68 69 77 77 81 88 90 91 87 80 74 72 70 70 66 66 68 72 71 66 65 68 69 70 74 75 72 74 78 81 83 52 38 65 67 71 73 73 71 71 71 70 68 68 67 66 66 67 71 76 78 77 80 87 90 90 87 82 77 74 73 76 74 74 76 79 79 79 76 74 76 78 81 81 80 82 83 85 84 52 39 65 70 76 79 80 78 74 70 66 63 63 63 67 73 77 79 81 79 79 82 88 90 89 89 83 78 75 75 77 79 77 76 74 73 73 74 75 78 79 80 83 84 85 86 87 86 53 39 67 74 80 84 85 84 82 80 79 78 79 81 84 85 84 82 81 79 79 82 87 90 91 90 84 78 77 77 76 80 83 84 84 82 80 77 77 80 84 87 90 91 91 89 89 88 54 39 69 74 82 88 89 88 87 88 88 86 86 87 86 86 83 81 80 77 77 83 88 89 90 91 86 79 77 77 78 77 82 86 90 91 92 93 93 95 96 98 98 97 96 94 91 89 55 40 71 73 83 88 88 88 89 88 87 85 84 83 82 83 82 78 77 76 78 83 88 89 89 89 87 81 77 77 77 78 80 84 88 91 93 95 97 98 101 103 104 102 97 95 92 90 55 40 71 75 82 86 88 89 89 89 85 84 82 83 85 84 80 76 75 76 81 86 89 87 87 89 86 82 77 76 76 77 79 84 87 90 93 95 98 100 101 103 104 100 96 93 91 90 56 41 71 73 81 84 90 92 89 86 83 82 83 84 84 82 78 75 74 77 83 88 91 91 90 93 89 84 78 75 76 74 75 81 87 89 92 95 97 100 101 102 103 99 94 92 92 91 56 41 70 72 77 84 90 90 88 86 83 83 83 83 81 77 74 77 78 78 84 90 95 95 94 96 93 86 80 77 80 77 73 74 83 88 92 94 97 100 101 102 101 100 96 93 92 91 57 41 70 72 76 84 89 87 86 81 83 82 79 78 74 71 78 83 82 80 86 94 98 97 96 98 95 87 81 80 86 85 80 71 73 80 85 91 95 98 101 101 100 99 96 95 93 93 57 42 69 72 75 81 85 84 86 82 80 77 74 71 68 71 82 88 87 83 86 94 95 93 88 86 88 83 80 83 90 89 83 75 71 74 80 86 91 94 98 99 97 96 94 94 94 94 58 43 69 70 73 77 79 79 82 78 74 69 69 65 66 70 78 86 86 80 80 85 86 83 79 78 77 75 73 78 84 81 77 76 74 71 76 81 87 90 94 95 95 95 94 94 94 95 59 43 69 68 70 71 74 75 77 73 69 66 63 62 67 71 72 76 77 73 68 71 73 73 72 70 68 66 66 72 74 74 73 72 74 72 72 77 82 86 89 90 92 92 93 93 94 95 59 43 67 67 67 66 67 70 70 67 65 61 56 56 62 69 72 61 57 57 58 62 66 66 65 63 62 61 59 60 60 62 66 73 74 72 70 73 78 81 84 87 89 90 91 93 94 96 60 43 67 64 65 66 65 66 67 63 59 54 50 57 67 69 69 68 62 57 55 56 60 63 61 60 58 55 56 58 59 61 69 73 74 73 69 69 73 77 80 85 87 88 90 92 93 96 60 43 67 64 63 64 64 63 62 58 54 49 54 66 72 74 74 71 67 63 60 60 62 61 58 56 55 56 57 58 61 66 72 75 77 77 73 70 71 75 78 81 84 86 88 90 93 95 60 44 68 64 63 62 63 61 59 54 49 49 61 70 74 77 76 75 73 70 66 64 63 62 60 58 58 59 61 64 67 73 78 80 81 81 78 72 71 73 77 79 82 84 86 88 92 94 60 50 69 65 64 63 62 60 56 51 47 53 63 70 74 75 76 74 72 71 71 68 65 62 60 60 61 63 66 70 72 75 76 80 82 82 81 75 71 71 75 78 80 81 85 88 91 95 60 81 70 66 65 62 61 59 54 48 49 57 63 67 69 68 70 70 69 71 73 72 70 67 67 68 70 71 74 77 75 75 75 77 78 79 80 78 74 71 72 78 80 81 84 87 91 95 60 118 74 67 64 64 61 58 53 48 50 57 63 66 68 70 72 75 76 77 78 78 78 76 76 77 77 77 79 82 80 80 80 79 79 78 78 79 75 72 71 76 80 82 84 87 90 94 60 76 83 68 65 64 62 58 54 49 50 53 57 59 60 62 62 63 64 67 68 69 70 69 65 64 65 66 68 69 69 69 71 72 73 74 76 77 76 73 72 75 81 82 84 86 90 94 60 120 132 70 65 63 62 59 57 53 52 49 52 53 50 52 56 57 59 61 62 62 63 63 61 60 61 62 63 64 64 65 66 67 67 67 68 69 70 71 71 75 81 82 84 87 90 94 61 144 197 73 67 63 61 60 58 56 54 54 61 62 54 53 66 70 78 63 62 61 64 64 59 58 59 60 59 59 61 63 67 64 65 65 65 68 70 70 72 78 82 83 84 87 90 94 61 150 243 92 68 64 62 61 60 60 57 57 66 68 65 55 81 95 103 89 93 83 85 100 81 67 77 86 76 72 73 73 79 70 70 65 65 72 75 75 75 81 85 84 84 87 90 93 60 157 255 157 70 64 62 62 61 61 59 60 68 71 71 67 71 99 105 104 109 106 108 122 113 89 111 110 101 93 88 87 90 81 75 66 73 83 82 78 78 84 85 84 84 86 89 92 60 158 255 229 81 65 61 60 62 62 60 62 69 74 72 72 68 77 81 98 104 110 110 122 120 106 118 115 109 96 82 87 86 80 77 75 85 87 82 80 80 85 84 83 84 86 89 92 60 158 255 254 141 66 61 60 60 62 61 62 68 74 76 71 73 72 70 68 79 86 90 112 113 103 113 110 100 76 66 67 70 72 82 84 85 84 81 80 81 83 82 82 83 86 89 92 59 156 255 255 226 76 61 58 59 61 62 62 66 72 76 74 68 73 74 75 82 76 77 74 74 70 72 71 73 71 83 79 83 82 83 82 83 80 79 80 82 82 81 81 83 85 88 92 61 72 149 174 224 139 61 58 57 59 60 62 65 69 74 74 69 69 78 84 86 85 85 84 84 83 85 83 84 82 85 86 83 79 78 80 79 79 78 79 81 80 79 79 81 84 88 93 98 42 68 66 76 143 70 57 57 57 59 61 64 66 71 71 72 69 71 87 99 96 92 86 86 86 86 88 87 96 101 89 78 75 77 77 77 78 77 78 79 78 77 78 80 84 87 111 106 37 57 53 51 66 109 56 56 56 57 58 62 65 67 70 70 71 70 71 81 86 83 81 79 79 80 81 81 82 82 75 73 74 74 75 77 77 77 78 77 76 76 77 80 83 87 161 80 33 50 47 46 46 67 57 55 55 56 58 59 63 65 70 69 68 68 68 67 67 68 69 70 71 73 72 71 69 69 69 71 70 72 75 75 74 76 76 75 75 75 77 79 82 99 182 74 30 46 44 42 48 56 60 53 54 54 56 59 63 66 69 70 69 65 63 62 61 59 60 59 60 61 61 61 61 63 64 66 68 72 75 75 74 75 74 73 74 75 77 79 82 104 163 68 28 43 41 47 52 52 58 54 53 53 54 58 62 66 68 70 69 68 65 61 58 56 55 55 55 55 56 56 57 58 62 66 70 73 75 75 75 74 72 73 73 75 76 78 85 92 158 65 26 40 43 48 49 48 54 57 52 53 54 56 60 63 68 72 70 69 67 65 62 59 58 56 55 55 56 58 59 62 65 69 72 73 76 75 74 73 72 72 73 74 75 78 85 90 151 72 25 39 41 43 43 45 52 58 53 52 53 54 58 62 67 71 70 70 69 69 66 63 61 59 59 59 61 63 64 66 68 71 73 75 76 75 73 72 71 71 71 72 74 78 83 89 165 94 24 42 48 52 53 54 54 58 56 51 52 53 54 59 64 67 68 71 71 73 72 69 70 69 68 69 70 71 71 71 73 73 75 77 75 73 72 70 69 70 70 72 74 78 82 85 94 51 33 57 57 57 56 55 55 57 57 53 51 51 52 56 61 66 69 71 71 73 72 74 74 73 74 73 75 75 75 75 74 74 75 75 74 71 70 68 67 68 69 71 74 78 82 83 83 49 37 59 58 58 57 56 53 57 57 55 51 51 51 53 57 63 68 72 74 75 74 74 73 72 72 72 73 74 76 75 75 76 75 72 70 69 68 66 66 67 69 70 74 78 81 81 78 48 37 59 59 58 56 53 52 58 58 57 54 50 50 51 53 57 63 69 70 74 76 74 74 73 72 71 73 75 72 72 73 72 70 68 68 66 64 64 65 66 68 70 74 78 80 78 76 47 36 58 59 58 57 54 53 58 59 58 56 52 49 49 49 52 56 61 61 67 70 71 68 68 68 69 68 69 68 67 68 66 65 65 64 63 62 62 63 65 67 70 74 77 79 78 84 51 35 57 58 58 58 54 53 58 59 58 57 54 51 49 49 49 51 55 58 60 60 61 62 61 63 64 64 65 64 61 61 61 61 60 60 59 60 61 63 65 67 73 74 77 78 77 83 52 21 34 36 37 36 33 33 36 36 37 36 35 33 31 30 30 30 31 33 34 35 35 35 36 37 37 37 36 36 35 36 35 36 36 35 36 37 37 38 40 42 44 46 47 47 46 52 31 