P2
48
60
255
44 74 77 78 82 83 84 86 85 87 91 92 94 94 95 95 93 93 91 92 92 90 88 85 87 90 92 91 94 96 94 93 94 93 89 88 86 84 82 79 79 80 76 74 68 58 44 16 72 120 125 128 133 134 138 139 140 142 147 147 150 150 151 153 152 150 149 150 148 146 147 150 152 151 149 149 156 154 152 151 150 147 144 143 140 136 130 129 128 126 122 118 111 97 78 33 71 124 128 131 135 136 137 143 145 144 147 147 149 151 152 151 150 149 149 150 147 145 147 151 149 149 148 151 155 155 154 151 150 149 147 144 141 133 130 129 130 127 124 119 111 96 80 39 72 125 129 132 133 135 143 142 143 143 146 149 152 155 155 152 151 145 146 147 147 149 144 145 148 144 145 149 151 155 155 154 152 154 149 144 139 133 130 130 131 127 123 121 113 98 78 39 73 125 129 129 129 134 142 144 143 144 141 145 151 157 154 150 146 144 145 146 148 146 143 144 146 144 142 142 149 153 155 152 151 154 147 138 133 128 127 132 132 128 122 122 116 106 77 36 75 124 125 124 125 136 142 147 147 151 141 135 134 143 142 140 141 140 140 140 141 142 141 139 137 139 140 137 139 142 145 143 145 143 139 133 131 131 133 134 130 128 124 121 118 112 88 39 76 125 125 122 125 136 139 148 150 146 147 141 135 129 129 130 133 135 131 129 131 135 134 132 127 131 130 132 130 131 129 135 138 136 132 139 139 135 139 133 130 125 122 120 119 113 100 46 75 122 118 116 115 122 128 137 144 146 141 136 134 130 129 126 126 124 126 123 124 126 128 126 125 124 125 123 119 119 120 125 125 127 129 131 131 130 136 134 126 122 118 116 116 113 108 57 75 117 106 89 91 104 109 113 118 113 115 120 123 122 121 120 120 119 120 121 120 121 120 123 123 121 118 116 114 115 117 119 119 117 115 117 116 120 123 111 94 92 97 106 114 113 110 66 72 105 87 102 119 134 144 156 143 116 99 90 100 111 112 113 114 113 113 115 117 116 118 119 120 116 113 111 110 112 110 107 103 98 92 89 91 108 120 122 118 110 94 79 103 111 110 67 69 97 110 119 126 134 142 154 149 142 133 117 95 86 91 101 106 109 109 111 112 115 115 119 119 113 110 109 107 101 98 91 82 82 92 107 126 139 149 144 136 125 114 101 85 108 109 68 68 108 111 119 126 130 136 139 141 139 138 136 124 108 95 80 89 97 101 107 114 118 118 121 122 112 113 103 94 86 82 82 91 109 123 132 137 140 145 145 137 127 113 106 102 105 108 67 68 107 110 117 123 124 132 135 142 140 134 134 129 122 116 104 89 86 92 104 115 120 123 122 120 112 109 100 86 80 92 107 117 126 135 139 140 139 137 136 129 124 115 106 103 105 108 66 66 104 105 113 117 118 119 117 117 105 93 90 85 88 100 110 107 87 86 101 116 127 130 129 124 120 110 96 86 89 112 115 111 109 113 117 125 128 126 126 123 119 111 104 99 103 109 66 67 102 101 107 108 94 57 39 29 25 21 24 26 38 54 78 96 89 75 100 115 135 141 138 138 131 113 100 79 87 103 99 73 50 42 37 42 58 74 92 104 106 105 100 97 103 107 68 67 104 100 102 75 44 34 46 37 29 20 26 38 63 53 59 81 80 77 107 119 138 147 142 150 136 116 104 75 74 75 61 53 38 67 22 32 25 36 36 46 78 97 98 95 103 104 66 69 108 102 88 65 60 68 83 75 67 60 71 94 102 92 94 98 108 105 114 123 141 152 146 154 133 118 107 87 84 81 63 95 65 39 25 32 38 59 46 34 41 78 99 98 104 109 66 69 110 104 93 85 98 100 105 101 96 100 95 95 102 114 124 128 125 119 117 121 139 151 143 150 132 118 111 118 116 113 113 100 103 86 70 69 72 92 85 65 51 67 95 104 109 111 66 73 116 104 101 112 122 114 121 120 124 117 117 110 102 106 122 130 124 119 120 120 128 146 142 146 128 115 112 114 119 119 119 120 110 101 91 94 101 104 98 105 101 82 94 113 115 113 67 76 125 119 117 121 130 132 125 115 108 105 109 113 123 131 134 135 132 129 126 120 124 138 138 140 126 115 113 118 120 124 122 117 111 113 120 126 129 129 124 118 117 106 98 111 116 113 66 80 127 123 120 123 132 133 134 133 133 135 134 135 135 138 140 140 135 132 128 121 121 133 134 133 123 114 117 119 126 131 131 130 126 117 104 103 105 109 114 128 131 121 115 117 115 110 65 80 130 126 121 122 128 128 132 140 147 142 138 135 135 140 145 138 135 133 133 121 118 133 135 132 117 110 117 119 126 139 143 139 140 137 139 134 127 133 133 129 122 115 117 116 113 108 64 78 128 128 125 126 124 131 138 142 141 138 136 138 141 143 140 139 136 134 130 119 120 129 133 133 121 109 115 120 123 135 148 144 136 139 144 146 141 133 130 129 121 117 119 118 112 109 64 77 125 128 131 131 131 135 141 146 142 142 144 143 144 143 144 140 139 138 126 117 121 130 129 132 123 112 112 115 121 131 144 149 147 145 140 139 137 136 127 121 120 123 122 120 113 111 64 75 124 127 133 139 142 147 149 147 147 147 146 143 144 151 146 143 153 137 121 117 126 132 134 133 126 113 112 112 123 130 144 152 153 157 156 149 146 144 139 134 134 128 123 119 113 109 64 74 122 125 133 139 144 146 151 150 149 145 145 142 153 153 148 145 143 125 116 117 123 133 135 136 130 116 111 110 118 129 141 156 157 157 158 158 162 155 155 148 144 132 125 118 113 109 64 73 121 127 130 134 140 143 149 150 148 147 146 156 161 153 138 119 111 113 115 115 125 133 135 138 134 120 110 107 103 113 133 155 163 159 156 164 165 161 156 150 141 129 125 117 113 109 65 71 119 123 124 127 137 143 147 149 152 151 157 166 153 139 128 94 106 109 113 115 127 141 134 145 145 123 112 106 92 90 122 147 165 163 162 161 166 168 155 146 136 130 122 116 113 109 66 70 119 120 122 127 132 140 146 153 155 159 165 149 138 126 106 99 108 110 113 116 133 161 138 141 152 126 111 106 101 71 101 131 149 163 162 164 162 160 152 142 135 127 122 116 113 109 67 70 116 121 122 125 132 139 146 149 151 151 146 138 129 118 83 109 115 114 111 112 118 129 121 124 123 114 105 103 105 79 78 112 131 146 159 160 159 159 150 140 131 124 118 113 111 108 65 72 117 118 123 124 131 134 139 137 139 140 132 126 120 105 66 115 113 104 108 104 104 110 113 113 109 102 98 97 103 99 64 93 118 133 142 149 152 148 143 134 129 121 115 110 108 106 64 72 115 116 121 125 128 131 130 130 131 132 126 123 112 81 56 106 102 98 91 90 94 97 101 103 98 88 82 87 96 100 59 75 100 124 133 138 136 138 134 128 124 118 114 108 106 106 65 68 113 116 121 120 124 126 126 128 129 127 122 116 97 58 55 90 82 58 41 45 60 89 87 84 81 65 49 59 82 89 53 64 86 112 123 128 127 128 128 125 120 115 112 108 107 105 65 69 110 115 118 120 119 120 120 124 124 121 116 107 83 56 91 102 78 51 50 57 60 76 76 70 62 43 39 43 65 85 60 54 74 102 115 121 124 125 121 117 116 112 112 108 105 103 65 69 113 114 114 116 116 118 116 118 121 117 111 99 76 83 111 114 108 102 100 101 93 83 75 61 59 55 51 52 79 105 89 57 62 87 108 116 120 120 118 116 113 111 110 105 106 105 65 67 110 109 108 111 115 118 117 117 116 113 103 95 89 108 120 116 114 114 116 113 109 107 109 112 111 105 99 100 106 113 109 80 65 80 102 111 115 114 110 114 110 108 106 103 107 106 64 67 107 106 109 111 111 114 118 115 115 110 104 99 100 119 124 123 123 122 123 119 118 125 129 131 133 128 117 113 113 112 111 100 82 87 100 107 107 109 108 104 106 105 103 100 105 106 64 67 105 107 108 110 113 116 114 113 110 111 109 109 114 119 127 129 128 129 134 133 130 132 134 134 134 130 126 125 121 114 110 106 97 95 99 103 104 105 105 104 103 103 99 95 102 105 64 66 107 105 108 110 113 114 114 111 112 112 114 116 122 121 123 130 128 131 135 139 136 132 135 133 133 131 126 127 119 116 114 105 100 100 101 101 101 103 101 100 101 100 96 96 101 102 62 67 110 108 108 109 109 109 107 107 107 108 113 118 120 121 122 127 133 134 135 141 140 134 134 132 137 133 125 123 115 113 110 104 99 101 100 98 98 95 92 93 96 95 96 97 98 98 59 67 109 108 110 110 110 107 105 104 105 112 112 117 116 115 120 121 128 132 125 119 128 133 136 136 133 123 120 117 112 110 106 105 98 91 99 92 89 93 91 91 95 97 98 98 97 97 58 65 108 109 111 113 113 110 106 100 105 110 110 115 108 108 114 113 107 96 89 85 87 94 105 100 91 88 98 106 106 103 101 100 99 94 95 88 85 88 94 100 99 99 98 98 97 95 58 64 107 109 110 113 117 119 115 113 111 109 108 107 96 94 94 80 71 71 77 81 74 74 76 75 77 79 74 71 77 90 95 90 95 97 100 97 96 106 109 109 105 101 99 98 98 92 63 63 105 106 109 112 117 118 120 123 116 112 107 95 65 52 55 57 67 71 68 61 62 65 61 60 64 66 60 60 55 51 56 60 83 101 107 107 118 116 117 115 108 103 99 97 96 95 75 64 103 106 105 110 113 117 123 128 123 113 98 74 71 98 95 92 95 106 110 110 111 111 108 113 110 105 98 96 87 79 81 64 59 93 108 118 129 124 119 113 105 100 95 97 95 101 92 62 102 104 104 106 112 117 123 129 126 113 93 91 116 120 116 113 107 94 103 108 110 110 108 113 112 113 96 93 90 94 105 103 73 87 110 129 130 118 113 106 101 97 96 94 95 118 103 60 100 102 104 105 110 116 121 124 121 106 97 115 125 127 126 118 115 117 114 110 106 111 111 111 107 105 108 108 100 102 109 113 104 94 113 128 125 113 104 99 96 95 96 95 96 141 112 59 97 100 104 107 108 111 116 119 111 98 108 119 126 129 127 121 113 109 106 103 99 100 105 99 103 103 100 97 99 106 109 112 110 104 117 126 117 106 100 95 93 94 93 92 102 162 114 59 97 97 101 104 106 109 111 111 100 105 113 115 120 123 123 119 113 103 96 88 79 79 78 78 84 89 92 97 102 106 107 108 109 110 110 116 111 103 95 91 91 92 91 92 114 175 115 60 99 98 100 101 102 104 107 105 98 108 115 113 110 117 119 117 114 111 106 100 102 102 103 101 97 96 100 101 103 109 108 106 108 109 105 107 107 97 92 92 92 91 90 100 130 182 115 61 100 99 98 99 101 103 104 99 99 106 113 118 114 116 119 117 120 122 122 126 128 130 128 128 123 117 110 112 110 112 112 107 110 108 101 102 99 92 93 93 92 89 95 105 145 184 115 63 100 100 101 98 98 100 103 103 106 109 117 120 122 122 125 123 124 130 132 136 133 133 134 133 132 133 124 119 116 116 117 113 107 104 96 97 92 90 92 91 89 91 101 106 161 185 114 64 99 102 100 100 97 99 102 107 109 113 114 117 121 125 124 130 133 130 137 134 133 131 134 138 132 129 125 121 120 119 118 111 107 101 93 93 92 90 88 89 89 96 104 109 169 186 115 67 101 102 99 97 96 96 100 104 107 110 113 116 121 127 131 130 134 133 134 136 131 127 135 137 134 131 117 117 119 120 116 110 105 101 96 91 91 89 89 90 96 99 103 114 170 179 115 67 104 100 100 95 92 93 96 97 97 100 108 110 117 126 126 117 117 123 127 131 126 127 128 129 128 128 121 115 122 121 115 105 102 101 95 94 91 87 87 94 98 101 106 121 177 173 115 68 105 99 102 95 87 84 87 87 91 96 101 105 110 118 124 120 118 120 131 131 122 120 122 122 121 120 115 111 117 116 108 99 99 95 88 87 84 85 92 99 99 103 106 132 171 168 112 67 108 101 101 101 95 86 84 79 77 86 95 99 104 111 123 124 121 126 125 125 118 122 114 117 119 114 114 108 109 109 99 96 93 83 77 76 82 90 98 103 100 104 105 134 168 168 105 67 108 104 99 104 104 100 100 98 88 84 86 93 97 102 113 123 121 122 120 118 115 113 112 114 118 110 107 101 106 100 95 91 82 75 81 90 94 100 102 101 100 105 103 122 170 165 101 67 109 108 100 101 105 106 105 106 105 99 94 88 91 95 101 111 115 112 111 109 105 106 103 107 107 104 99 100 98 92 88 83 90 91 99 101 102 102 101 100 100 104 100 107 168 169 102 41 68 69 65 61 64 66 66 66 65 63 64 60 55 55 57 61 63 64 61 62 59 60 61 61 60 59 58 60 55 52 50 58 62 63 66 65 64 64 64 63 64 66 59 81 101 106 66 