P2
48
60
255
25 49 59 62 66 69 71 71 75 80 84 87 91 94 96 93 99 101 106 108 108 106 103 99 99 94 96 98 97 99 98 101 100 98 99 99 100 96 93 93 91 87 85 79 68 57 40 23 40 81 97 104 109 112 114 119 125 130 133 141 146 147 151 151 160 165 171 167 165 164 163 167 161 159 157 159 158 163 163 159 162 162 162 160 157 154 152 150 149 149 140 132 122 106 85 41 43 87 100 108 113 115 118 122 127 135 136 140 143 146 149 145 148 155 157 154 159 159 158 160 159 157 158 158 158 161 162 162 164 162 159 160 160 155 153 153 151 150 145 137 132 121 103 55 49 93 102 110 116 116 119 122 126 137 141 143 144 147 144 147 154 151 156 156 157 156 157 156 156 156 157 158 159 164 168 167 164 160 159 161 159 157 155 153 151 150 148 142 133 131 117 65 51 95 104 112 117 118 123 123 132 139 142 145 145 149 151 152 153 156 154 156 156 155 156 159 156 158 160 163 169 165 169 167 165 161 159 158 160 156 153 153 149 150 149 145 137 132 127 74 54 99 106 114 117 122 124 124 134 140 142 147 148 150 155 157 157 161 162 159 159 159 161 159 162 165 164 164 169 171 170 170 172 165 164 161 160 157 152 152 150 150 151 146 139 132 128 78 56 100 107 115 119 126 129 130 138 141 145 148 152 150 156 160 163 163 161 166 167 168 167 164 165 171 164 162 161 164 161 162 162 158 157 166 155 150 151 153 153 150 147 146 141 134 128 78 58 102 108 113 119 119 119 124 130 136 142 145 147 148 150 152 154 157 163 169 168 168 172 167 163 160 154 147 142 136 133 123 119 118 116 125 137 142 138 140 145 149 149 146 140 134 129 77 59 103 109 112 113 106 103 101 104 111 114 115 123 129 134 135 139 143 151 163 168 168 167 165 155 152 143 138 126 120 112 108 107 108 116 123 127 124 123 133 134 128 136 145 141 131 127 76 59 102 107 95 98 102 101 96 100 99 97 94 93 107 117 122 124 134 140 150 158 167 163 163 152 141 134 130 120 116 114 114 110 114 117 117 121 133 128 135 133 123 119 125 128 125 124 74 59 100 90 82 90 99 108 114 118 120 109 99 94 95 100 106 111 121 131 142 147 160 163 163 150 144 132 126 122 119 113 110 110 116 125 135 143 144 145 144 143 137 133 122 113 112 118 74 58 95 84 84 97 114 119 128 128 127 121 108 97 92 91 96 101 109 121 135 145 158 163 168 160 146 130 121 115 111 110 111 114 121 129 133 135 136 140 139 140 139 136 131 123 116 114 71 57 92 87 93 102 113 118 120 118 114 112 108 97 91 90 86 83 90 105 126 143 154 160 168 163 150 135 118 111 112 115 115 110 109 104 105 105 113 121 123 127 130 134 131 126 126 121 71 59 92 93 93 95 98 101 92 72 67 60 63 58 65 79 94 89 81 91 113 133 148 161 163 159 142 132 116 113 121 114 98 69 53 51 50 48 57 69 84 104 113 122 125 126 127 125 76 60 97 94 91 88 77 53 39 41 39 30 29 32 46 66 67 78 85 82 104 127 138 148 153 154 144 131 119 115 113 91 69 68 60 52 29 27 27 32 39 54 77 102 116 119 122 128 79 62 102 95 89 76 46 34 35 58 50 31 68 36 51 68 73 68 77 86 96 119 137 147 150 144 139 128 116 110 97 83 79 70 96 79 41 90 41 51 38 43 42 55 94 111 117 125 78 64 103 95 86 62 40 39 60 96 58 38 42 32 57 76 99 68 78 91 97 124 141 148 149 137 128 122 115 121 115 87 83 105 136 91 45 32 29 42 59 99 50 41 60 92 113 120 79 66 104 94 85 65 55 45 70 103 82 42 36 35 44 78 106 114 97 96 103 129 145 149 143 134 123 122 122 130 129 110 119 124 125 116 55 42 42 45 72 122 87 63 64 87 105 123 79 67 107 99 90 77 64 58 75 90 99 68 45 49 64 93 86 90 100 95 111 133 147 152 148 137 126 125 126 128 136 128 120 109 106 95 81 67 54 69 98 95 82 84 86 91 108 122 76 68 110 104 95 79 77 73 69 67 72 80 78 87 95 98 95 93 95 96 116 136 144 149 144 134 128 126 127 126 132 125 118 114 116 109 97 92 89 93 93 108 109 109 116 117 111 112 79 70 112 113 106 97 99 95 93 90 93 99 97 97 101 99 102 99 99 97 121 140 148 149 147 138 129 132 129 129 131 134 132 125 117 111 110 112 113 117 122 125 121 126 131 135 141 134 87 69 115 118 114 110 102 105 101 99 99 98 98 99 105 102 106 104 101 99 123 141 152 150 146 140 131 134 132 131 131 135 136 140 138 130 119 114 112 113 117 119 125 132 136 144 147 149 95 70 117 119 125 117 108 113 113 112 109 113 111 116 120 118 111 104 101 103 124 144 152 153 147 139 134 134 135 133 134 135 136 137 140 138 147 144 141 137 137 144 144 142 147 150 155 158 98 72 119 123 132 126 124 120 120 122 126 123 126 122 118 110 111 106 104 107 129 149 155 152 149 142 136 135 140 142 138 138 138 141 143 139 143 145 149 152 152 142 149 153 155 152 159 162 100 74 121 127 132 132 133 130 129 129 129 124 122 114 112 115 113 106 105 112 131 148 152 157 152 146 137 131 135 145 141 138 141 143 147 152 150 145 148 150 154 147 151 153 153 156 160 160 101 73 121 128 135 135 137 136 135 132 131 127 124 124 118 116 112 108 105 120 136 149 155 157 154 149 139 127 124 137 143 143 143 148 149 150 155 155 153 153 152 153 154 153 155 158 160 162 100 73 119 125 131 134 137 138 138 135 135 130 130 128 123 120 116 111 105 121 136 148 153 156 153 152 142 126 117 124 138 149 152 154 155 154 158 157 160 160 164 162 162 160 158 159 160 161 102 72 117 123 126 130 133 138 142 142 136 134 132 132 128 123 121 114 108 120 135 158 158 159 155 148 140 129 118 123 132 146 158 158 159 163 162 160 161 161 164 167 168 169 166 166 166 164 102 70 115 119 122 124 128 137 141 142 139 136 133 136 129 124 121 115 108 116 136 161 160 170 159 148 145 134 123 127 125 133 154 157 154 159 167 166 167 168 167 165 166 168 174 172 166 166 102 68 113 117 118 120 128 134 139 140 136 134 137 134 130 125 119 111 105 110 126 139 143 149 148 141 143 141 135 131 127 126 142 152 155 157 165 169 169 165 168 169 167 168 169 165 160 160 97 68 113 118 116 118 123 130 134 135 133 135 135 131 129 125 116 107 100 100 108 122 127 130 127 127 129 130 131 131 129 119 127 142 150 159 161 167 168 168 170 173 173 170 170 163 159 152 93 67 111 117 115 116 121 127 131 134 133 127 128 127 124 117 108 99 91 86 91 103 111 116 113 108 105 105 114 120 125 120 117 134 141 152 156 159 157 167 170 170 173 171 165 160 157 151 92 63 109 114 113 115 120 123 127 129 130 125 126 125 123 113 105 90 74 45 51 76 86 92 97 89 52 37 61 100 111 116 107 130 137 148 154 156 155 159 167 170 167 165 159 157 155 150 91 58 109 111 113 114 119 124 124 128 130 131 125 121 119 109 109 101 73 60 54 56 66 73 82 86 68 52 49 77 96 104 105 130 138 140 149 150 155 161 163 166 166 160 158 157 155 147 91 56 106 110 111 113 119 122 123 127 129 128 121 124 115 110 116 115 94 75 78 84 83 77 91 109 106 94 77 79 90 109 125 138 145 140 146 150 154 160 163 161 160 155 155 156 154 145 89 60 104 108 109 111 114 120 120 124 129 130 122 123 115 113 119 116 112 108 106 110 120 115 121 130 134 130 126 126 136 142 150 153 149 142 136 145 151 158 158 160 158 156 151 152 153 144 86 63 109 106 106 109 111 114 119 122 127 131 128 123 116 117 119 117 116 122 122 125 138 137 137 143 152 152 149 146 151 154 153 157 157 153 142 138 146 156 156 155 150 152 150 149 147 143 85 59 103 105 104 107 109 110 116 121 124 131 130 128 124 125 121 122 126 127 126 133 146 146 142 143 151 157 157 154 149 154 154 154 156 157 152 143 141 149 155 154 148 150 144 146 142 139 84 70 105 102 104 105 106 109 114 116 124 129 130 131 131 125 123 125 127 130 130 138 149 149 147 146 146 155 158 157 155 152 157 157 155 154 153 149 145 145 150 153 149 147 143 142 138 136 82 75 113 111 102 105 104 106 110 114 119 126 128 132 132 123 119 120 126 131 128 140 148 147 146 143 141 154 156 157 158 156 158 155 155 151 148 150 149 145 145 146 143 141 139 137 134 130 81 72 118 118 104 105 102 103 106 110 117 122 127 132 129 121 117 117 124 122 123 127 136 133 133 136 142 146 146 152 154 156 157 156 153 151 147 144 147 149 143 142 141 141 138 133 133 128 78 67 116 120 106 100 101 102 103 105 112 118 122 130 126 114 114 112 109 102 96 96 96 96 100 104 107 111 115 122 133 147 148 152 152 149 143 136 137 145 146 141 140 139 135 132 129 129 78 35 92 104 99 95 101 104 104 105 107 114 119 127 120 109 106 89 73 70 73 80 88 78 74 79 82 89 96 95 96 103 113 125 136 140 138 128 123 134 141 139 139 134 132 131 127 127 79 16 31 41 53 102 105 105 105 106 106 113 118 125 112 101 88 67 62 66 68 68 72 74 64 70 72 79 82 82 83 82 84 86 100 107 115 119 107 118 136 135 137 133 131 130 131 130 81 17 23 24 35 100 106 108 108 106 108 115 116 121 102 78 60 57 59 67 77 82 83 84 77 78 75 74 75 75 74 72 72 71 72 74 74 78 87 99 128 135 137 139 135 133 133 134 83 16 23 27 32 93 107 109 110 108 110 118 122 123 91 58 63 58 69 80 81 90 98 107 106 108 113 109 105 104 100 101 100 98 95 85 70 64 63 81 119 140 143 145 142 136 135 138 85 17 23 29 29 78 108 109 110 111 111 118 128 125 98 92 99 86 77 75 77 87 100 101 98 103 107 106 102 107 106 100 96 101 110 111 112 116 125 114 118 139 147 149 144 134 138 143 87 17 26 28 30 62 107 109 111 111 111 118 133 131 120 115 109 101 94 91 86 88 97 97 93 95 100 103 106 109 109 110 112 117 122 128 132 133 139 141 131 134 148 151 148 141 141 144 88 19 26 29 29 45 103 108 110 111 113 116 132 136 128 116 110 109 107 107 108 110 112 110 104 106 107 111 118 125 128 132 133 137 137 135 143 144 144 149 148 148 143 151 149 139 138 143 86 21 25 32 30 33 93 107 111 112 112 117 129 127 122 114 110 109 111 111 115 117 119 123 116 114 118 120 124 132 137 138 139 140 140 142 146 144 139 147 151 149 149 148 145 141 142 142 84 23 27 31 28 27 69 108 110 110 112 114 123 119 116 114 111 112 116 118 120 122 126 136 140 142 145 145 140 138 143 144 145 141 142 146 148 147 146 146 147 151 147 145 144 141 140 137 81 20 30 32 27 26 42 100 109 108 110 111 116 116 112 111 108 111 116 119 126 129 134 144 149 146 147 150 146 149 148 150 151 150 148 149 148 145 146 148 142 143 144 142 142 140 143 137 83 20 31 31 27 27 30 84 106 108 110 110 110 110 108 106 105 108 116 122 125 132 140 142 147 149 150 150 151 149 152 153 154 152 150 147 145 143 142 141 140 139 140 145 144 143 140 136 83 19 30 29 27 30 33 58 102 103 107 108 109 106 104 103 112 106 115 120 124 128 139 144 143 151 155 155 155 156 156 156 156 151 149 148 145 142 140 140 138 138 138 140 141 139 138 132 81 19 30 31 29 30 35 42 84 102 103 105 105 103 104 102 111 106 112 117 126 125 133 138 143 150 155 151 152 155 159 159 160 155 150 148 146 143 140 142 144 142 140 137 136 137 137 133 82 19 30 31 31 36 42 39 49 94 100 102 102 103 103 102 102 103 109 119 124 127 130 134 143 153 159 152 149 155 156 157 157 156 154 147 145 140 141 142 138 136 136 135 137 135 134 129 78 20 28 30 34 35 44 36 32 64 96 100 101 102 102 104 102 106 108 113 121 124 127 132 145 154 163 163 159 161 160 160 157 153 151 149 143 141 142 140 137 139 134 132 131 132 129 127 77 18 30 30 37 38 41 33 26 29 79 97 98 101 101 103 103 103 107 112 118 123 128 133 143 152 165 169 170 168 167 163 156 157 152 150 144 141 142 137 132 133 130 129 127 127 124 123 73 20 30 30 34 36 38 28 23 20 33 85 94 96 98 101 103 101 105 109 116 123 126 129 137 148 154 156 159 159 162 164 158 152 151 148 138 137 137 134 130 125 123 120 120 121 119 116 71 13 19 19 19 21 21 16 13 12 11 30 55 56 58 61 63 62 60 64 71 73 76 79 82 86 86 90 92 91 93 94 93 93 91 88 86 83 82 79 77 76 73 71 70 70 68 67 42 