P2
48
60
255
37 64 70 72 76 78 77 79 84 83 85 86 89 90 88 92 88 91 90 92 92 90 91 88 92 89 91 90 89 90 90 86 88 88 86 82 80 81 80 76 76 75 73 71 66 63 62 37 60 106 113 118 123 130 128 130 134 133 136 140 144 144 148 151 145 149 149 145 148 149 145 145 150 145 141 146 145 144 147 146 141 145 142 139 130 133 128 127 126 121 119 115 111 104 103 60 64 109 115 119 125 126 128 131 132 134 136 142 149 146 152 148 151 151 150 147 143 146 146 146 148 145 142 143 143 143 144 146 148 149 143 141 138 134 132 129 125 121 117 113 108 105 102 61 65 109 113 120 124 125 131 132 132 136 142 146 148 152 154 149 144 154 153 153 149 150 150 148 151 152 151 148 147 151 148 151 152 147 145 138 135 138 129 128 124 118 114 109 108 104 103 62 63 111 113 119 122 127 129 130 135 140 141 145 146 152 153 151 144 150 157 154 150 148 152 154 152 153 153 150 151 153 150 156 153 142 148 141 137 139 132 126 129 123 113 108 105 104 98 63 69 110 115 117 120 121 121 128 133 137 136 141 143 149 151 146 155 156 158 158 151 151 155 158 155 150 152 154 152 150 151 152 154 152 148 145 144 142 137 132 126 123 113 108 103 101 103 64 66 108 112 114 115 118 117 126 130 138 137 141 144 148 152 154 158 155 156 155 153 154 156 155 156 150 151 151 145 149 146 148 153 153 149 144 140 136 136 131 127 122 114 107 103 99 101 61 65 106 108 106 114 108 107 114 118 119 122 129 129 130 138 144 147 151 150 149 150 154 156 155 154 152 151 147 146 140 132 136 140 138 134 132 123 125 120 117 115 116 110 105 104 95 96 60 67 106 106 101 97 93 92 89 87 83 88 83 82 84 82 97 122 138 144 146 148 149 149 153 147 147 145 140 135 133 110 107 125 114 94 84 81 82 85 91 93 98 108 106 102 96 93 57 64 103 97 91 88 86 88 85 83 76 72 72 68 67 66 76 88 104 126 132 138 142 144 148 145 140 135 129 118 109 97 84 85 81 69 66 65 66 74 80 79 82 103 102 96 88 90 54 65 101 86 88 92 92 101 106 107 104 96 79 65 63 65 71 82 93 111 122 127 137 139 134 138 133 132 123 110 95 85 77 68 64 60 62 70 77 88 91 103 99 89 87 93 87 85 55 63 92 87 95 104 107 123 135 134 134 125 120 108 93 81 79 86 93 99 113 124 132 133 127 129 129 121 118 106 94 84 77 75 77 84 97 110 116 118 123 120 113 109 106 89 85 82 52 62 93 93 101 107 114 122 114 113 115 112 110 104 92 89 90 90 89 94 103 119 129 133 133 134 132 124 113 101 91 84 86 87 87 89 95 102 96 94 104 105 112 110 102 97 92 86 53 60 96 94 99 105 105 96 96 96 84 70 63 66 75 83 76 75 88 95 100 114 133 144 142 139 139 129 112 98 88 88 83 77 100 101 77 60 53 58 72 76 84 92 96 95 87 87 55 62 98 98 98 95 84 79 68 74 51 71 33 49 46 70 72 78 77 84 98 111 136 155 157 151 148 132 111 98 91 82 87 92 78 69 63 39 46 49 73 72 65 68 73 90 93 92 58 65 103 105 97 78 63 63 91 106 47 70 27 59 55 107 98 70 84 85 104 114 132 153 159 153 148 124 108 105 88 91 87 84 127 79 75 34 48 58 71 109 74 62 59 79 93 98 61 65 107 106 100 85 78 92 112 123 70 44 40 45 67 132 124 103 98 110 117 119 125 140 150 145 139 123 108 107 100 91 98 127 150 114 52 41 43 52 98 109 100 82 79 81 91 96 62 65 112 116 110 105 95 99 103 117 114 103 82 90 114 120 110 113 120 119 114 120 121 135 139 136 128 120 107 106 114 107 111 109 120 127 109 95 96 112 115 108 102 93 93 97 102 107 65 69 113 116 113 110 107 110 108 118 117 117 110 111 116 118 119 119 122 120 119 122 119 131 131 130 118 115 107 104 108 106 109 116 122 119 111 105 113 120 117 114 105 100 103 107 103 107 68 70 111 113 114 112 108 110 112 120 118 129 124 123 124 119 117 115 120 119 124 120 120 128 130 125 123 106 102 102 104 105 112 114 123 123 123 127 129 127 126 124 121 116 115 111 108 105 67 69 114 114 111 116 120 119 124 122 119 129 129 131 134 135 135 128 124 119 122 121 117 128 130 127 124 115 103 105 105 109 116 123 131 131 130 136 137 134 132 126 123 122 121 119 111 108 67 70 115 115 112 116 121 130 127 123 134 145 144 151 148 146 137 131 125 118 123 117 114 119 125 123 123 113 101 103 104 105 113 119 130 136 141 141 140 142 140 139 133 130 132 125 114 111 69 69 117 118 117 123 128 140 138 138 145 144 146 149 148 142 138 129 127 124 119 113 111 119 125 126 119 108 98 101 110 107 117 125 130 132 138 139 139 135 136 142 145 142 135 132 124 111 64 69 118 119 121 129 133 141 142 140 143 145 146 147 146 144 134 130 126 121 120 111 111 125 127 126 112 100 96 104 105 111 117 122 130 137 140 140 137 131 138 140 141 132 135 129 124 112 65 70 116 120 123 132 136 142 141 145 145 144 145 153 151 143 131 128 121 122 114 111 113 126 130 125 115 103 96 103 112 118 117 122 130 135 140 137 139 143 143 146 139 135 133 124 118 115 66 70 112 117 124 126 138 145 145 142 144 147 150 152 146 137 130 127 128 120 115 108 121 128 131 127 120 110 96 97 105 113 122 131 135 142 143 144 146 148 147 147 145 143 139 125 122 114 66 69 112 117 123 127 138 144 144 145 147 148 148 148 140 136 133 131 122 115 113 112 124 129 130 128 122 112 100 94 95 105 120 135 140 144 146 149 146 143 145 151 145 146 138 133 125 115 68 68 108 117 120 130 141 144 147 151 143 144 149 143 140 142 132 118 112 113 111 117 127 135 135 131 128 115 104 96 91 94 101 119 128 136 144 148 152 146 146 148 144 142 143 135 128 115 69 67 108 115 125 133 144 144 148 148 144 150 149 143 134 127 121 116 113 113 111 119 134 151 145 144 148 124 107 98 96 99 98 101 111 123 133 139 145 144 149 152 150 149 143 134 126 119 68 65 108 115 124 133 141 143 150 145 147 147 146 137 126 117 121 117 116 116 116 120 147 162 143 142 142 116 102 99 104 105 101 97 103 114 123 132 134 140 142 149 153 153 144 135 125 117 67 64 108 114 123 133 142 142 146 144 147 139 136 123 116 121 120 118 117 111 105 111 130 137 125 124 120 100 86 89 100 102 102 101 105 106 110 120 127 128 137 142 145 148 134 130 125 114 63 63 106 112 119 127 135 137 136 144 141 128 122 110 113 126 126 110 100 71 63 84 105 116 108 101 95 80 60 55 61 80 94 101 110 111 107 107 112 119 127 130 133 135 126 127 120 109 63 64 108 113 120 126 131 134 136 134 134 123 115 110 121 130 130 118 84 77 98 99 96 89 84 79 87 93 88 83 73 71 89 104 108 113 113 105 101 102 115 121 126 130 125 121 118 110 62 64 105 114 119 125 129 127 130 132 124 116 116 116 126 126 123 118 108 96 100 108 113 99 76 82 95 97 81 84 87 93 94 93 93 106 114 116 101 79 82 102 115 122 119 115 113 106 61 64 107 112 120 118 119 125 126 127 120 119 120 126 131 124 111 109 102 101 84 83 102 109 103 93 87 85 70 66 64 80 86 86 86 94 99 108 109 96 80 74 93 112 119 116 114 100 58 63 104 107 114 117 118 125 122 123 117 119 128 124 126 117 103 100 92 73 60 68 84 87 82 72 80 84 77 66 58 56 63 70 69 76 79 82 87 88 80 79 79 101 112 113 111 106 58 63 103 106 113 119 121 116 119 118 118 123 121 109 102 90 87 77 73 56 51 62 77 83 77 65 71 83 78 74 60 56 59 58 60 57 63 62 62 64 69 77 75 88 110 119 115 106 60 62 102 108 112 118 118 115 111 112 124 114 102 87 79 68 69 68 63 54 55 67 74 77 77 63 76 84 76 79 66 66 63 53 58 53 57 58 59 56 57 59 77 76 115 122 117 105 57 63 103 105 114 118 121 120 118 118 106 83 75 65 55 61 60 70 64 67 65 66 73 70 74 77 84 84 73 79 73 72 67 64 62 55 58 58 50 47 46 53 63 71 119 127 119 107 60 61 101 105 110 120 125 126 118 109 79 61 59 54 54 57 64 72 71 71 67 62 60 65 68 78 80 75 71 68 66 67 63 65 60 54 55 55 47 43 43 47 53 73 123 131 117 103 60 62 102 106 110 119 126 120 111 93 65 54 51 49 53 60 63 65 67 61 62 58 54 66 63 71 80 74 67 59 64 71 64 61 55 46 46 44 40 35 36 40 55 85 132 126 110 97 59 62 101 105 108 119 123 120 112 80 55 50 47 42 51 56 63 59 57 52 58 65 62 67 69 69 76 75 76 66 71 57 55 54 52 47 50 51 45 36 41 49 66 101 127 121 106 98 58 60 98 104 111 114 122 120 106 73 54 40 41 39 48 55 60 43 41 45 70 84 93 106 106 100 112 112 107 88 80 73 79 78 70 76 85 86 62 49 51 54 74 110 122 118 101 92 56 58 97 98 107 112 117 121 104 71 53 42 45 47 50 57 67 71 73 78 84 92 102 117 119 112 115 107 101 99 100 105 104 98 88 93 105 111 98 71 54 64 90 109 112 107 95 89 54 55 94 100 100 111 118 122 107 79 54 46 50 58 92 100 98 91 97 108 110 110 107 107 114 117 116 111 110 114 109 104 100 95 97 102 110 117 106 79 67 70 92 96 99 98 93 86 53 47 90 93 101 105 113 105 106 91 59 54 61 91 117 118 112 106 103 115 125 123 122 117 116 116 120 118 115 123 121 108 104 103 102 105 111 121 110 80 73 74 79 94 98 95 89 83 52 35 85 95 98 103 105 99 90 78 57 65 69 107 124 124 116 113 111 113 115 120 125 119 114 114 114 113 110 110 109 108 110 102 100 111 123 125 110 83 73 67 68 84 95 88 88 83 54 29 64 94 97 100 98 96 93 72 64 71 83 115 121 124 122 112 113 115 116 111 110 104 104 103 104 103 104 104 103 105 105 100 108 116 122 122 108 76 62 63 67 77 87 87 86 85 44 27 49 82 94 99 98 98 79 59 62 68 90 123 127 125 127 120 109 104 105 102 97 91 88 92 92 89 92 97 93 97 93 100 110 115 120 119 102 79 65 65 64 75 90 87 75 66 36 31 42 58 87 96 99 92 73 65 68 65 85 113 129 129 131 122 114 102 94 87 85 81 85 90 83 77 87 94 90 97 104 112 114 118 118 120 100 80 66 61 58 67 84 74 62 51 31 43 45 42 63 87 90 91 63 57 62 68 83 115 124 124 128 127 120 113 98 92 84 72 70 76 64 71 84 97 94 103 113 121 121 119 109 113 99 74 58 49 49 62 69 58 46 38 22 56 66 44 51 69 75 81 62 54 51 64 80 113 116 124 128 134 127 116 108 98 83 67 67 65 61 74 88 105 102 109 117 121 124 119 114 107 101 74 56 49 50 59 53 49 44 35 21 68 90 59 45 47 57 64 51 48 47 56 79 108 112 119 133 129 127 118 117 113 97 84 76 78 89 99 103 101 96 110 107 115 119 114 107 99 82 63 48 46 50 53 45 40 37 37 20 69 106 96 49 40 47 53 50 46 50 54 66 92 108 115 127 136 132 124 113 103 96 84 87 98 103 106 107 96 93 98 97 106 98 104 87 80 70 56 47 43 41 41 36 32 32 38 29 68 110 111 86 45 41 48 45 44 43 47 60 69 82 99 113 118 122 118 111 101 102 98 94 96 100 102 94 97 92 80 97 95 83 85 70 62 61 44 45 35 38 35 33 32 38 61 51 69 119 116 107 67 42 41 40 39 40 44 50 59 70 80 91 94 100 95 97 99 93 93 90 81 79 81 88 87 75 74 72 74 65 60 53 54 55 36 40 34 33 33 31 39 63 87 58 73 117 120 112 100 58 40 40 41 39 40 45 50 57 68 73 74 75 77 83 89 89 91 89 83 71 71 70 74 67 64 61 60 54 47 46 47 42 33 36 33 30 31 40 64 89 97 64 71 121 121 119 116 90 50 40 35 34 39 44 45 47 57 61 63 65 66 70 82 91 88 81 69 67 73 69 69 65 60 57 51 42 45 41 36 38 30 32 34 35 52 70 89 101 105 64 73 119 122 123 124 110 81 47 36 34 33 42 41 41 47 53 51 56 55 64 74 78 73 65 61 59 61 68 69 59 54 51 48 39 41 36 32 36 30 29 34 58 84 94 98 103 102 64 46 74 74 72 74 74 70 56 25 22 23 28 22 23 26 29 26 31 28 36 42 41 39 36 31 38 33 37 36 30 30 28 24 21 23 20 19 22 19 23 32 57 58 62 62 62 60 40 