P2
48
60
255
19 36 47 63 72 81 90 88 89 92 97 101 103 107 110 106 101 101 101 98 97 99 99 98 99 98 97 100 104 108 105 105 102 101 96 93 99 100 95 94 93 86 82 70 59 52 45 26 28 60 88 116 130 143 151 148 141 148 159 164 169 170 170 172 164 162 164 163 160 160 161 165 159 159 161 162 167 172 170 168 169 170 154 159 159 162 157 156 148 141 133 119 98 82 68 35 28 71 104 125 136 141 153 151 150 153 159 164 172 175 176 171 165 167 164 164 162 160 161 164 163 165 163 164 171 170 169 171 171 175 170 166 165 164 160 159 155 147 136 121 112 99 82 43 37 81 105 126 132 135 153 154 157 159 170 171 172 173 178 175 171 168 169 165 162 158 161 160 162 159 160 159 170 171 166 170 178 179 174 168 165 168 161 159 154 146 133 119 110 101 97 46 41 82 105 125 133 144 156 159 157 159 167 174 174 174 174 170 167 161 160 161 158 155 151 155 160 160 159 155 165 161 162 167 168 175 172 168 166 169 166 166 152 145 132 119 107 100 99 56 42 91 113 128 140 147 156 169 160 158 159 167 162 162 159 157 155 152 156 153 154 150 148 151 158 154 150 151 155 151 153 157 155 161 164 165 161 160 164 160 149 137 131 119 109 108 108 60 52 103 119 128 140 146 155 172 177 167 158 164 158 154 151 147 141 142 148 146 143 139 142 143 148 148 143 141 140 140 141 136 123 119 113 108 111 111 105 100 90 88 105 121 114 109 114 66 52 105 118 133 145 147 155 160 169 165 152 147 143 144 137 134 134 132 138 139 134 133 143 141 137 139 131 133 117 105 93 70 60 61 68 75 84 103 111 98 91 88 78 92 110 111 114 70 58 108 126 130 119 108 94 81 87 84 80 78 79 89 107 114 125 126 130 131 133 129 138 136 127 121 112 104 87 67 56 58 72 84 100 108 122 135 144 147 145 135 104 83 89 110 112 71 67 116 120 84 74 69 82 85 88 86 79 74 71 55 51 65 91 106 115 121 126 128 136 142 132 115 101 73 63 57 76 83 92 97 109 124 138 146 152 156 155 144 127 110 98 106 113 71 71 116 86 85 116 124 131 138 135 128 116 109 96 85 71 58 58 71 87 104 121 134 140 143 142 118 86 62 58 72 82 91 95 106 121 137 145 150 155 155 152 145 131 124 109 110 111 69 74 102 84 125 143 150 156 162 154 142 129 110 95 87 81 79 68 63 69 86 120 140 146 145 139 129 92 74 77 92 99 99 109 112 115 117 121 128 132 138 143 136 131 124 117 112 112 68 74 97 109 134 145 149 153 159 155 148 140 128 117 105 91 89 89 80 69 79 108 132 144 141 131 119 110 96 95 107 106 96 80 73 89 91 97 95 87 95 109 112 115 120 119 114 116 70 76 115 123 133 136 137 131 118 97 83 76 79 87 82 77 95 101 98 87 87 111 125 133 134 130 119 108 98 98 107 93 66 94 106 71 48 51 58 73 84 71 81 101 108 114 113 116 71 79 125 124 127 119 103 73 66 58 41 39 36 44 70 88 64 90 106 97 101 120 137 155 152 149 135 120 108 96 96 72 88 83 53 51 74 36 60 37 49 72 68 76 101 106 109 113 73 80 121 120 111 90 57 57 44 54 39 71 30 90 52 64 84 74 89 98 116 139 152 169 162 163 151 130 122 108 91 84 79 58 91 54 31 30 51 43 79 49 62 64 85 101 107 113 74 81 122 110 94 64 47 42 57 90 43 32 29 33 53 113 68 81 97 111 133 142 160 181 177 176 153 136 132 127 113 82 76 105 117 64 36 32 35 56 98 77 67 81 86 101 117 124 76 79 124 108 86 63 63 65 78 93 64 35 34 39 73 136 106 76 87 136 141 148 167 191 190 180 154 142 136 141 117 97 137 129 133 100 49 38 50 106 110 91 92 109 104 107 117 124 77 80 129 116 94 100 104 87 101 111 113 77 55 72 117 136 127 129 130 135 148 154 169 190 186 174 155 149 146 145 146 155 146 139 127 130 111 104 110 102 96 93 116 130 122 121 120 128 79 82 139 134 127 130 134 119 111 101 104 110 101 96 106 124 137 150 150 148 151 153 167 190 185 171 152 150 149 151 151 150 145 134 118 97 89 80 88 90 113 130 138 135 125 127 131 137 83 83 138 136 136 136 145 151 139 127 112 110 107 115 125 130 138 141 154 152 149 151 170 192 186 171 153 146 146 149 155 153 144 140 137 128 123 124 125 134 145 145 142 134 135 135 139 141 85 86 139 142 141 142 146 159 157 150 146 147 148 145 137 139 140 159 161 147 150 152 175 194 185 170 152 147 149 146 151 161 150 139 147 151 148 148 147 152 150 142 145 144 144 147 149 143 86 85 138 148 147 147 145 152 157 154 157 160 160 154 142 145 158 177 156 144 145 152 174 184 180 171 154 147 144 134 142 156 165 146 147 152 159 163 168 162 157 153 154 151 160 158 156 145 87 84 143 149 154 160 158 160 163 164 169 171 162 152 143 149 177 174 153 139 144 157 167 165 164 160 154 147 140 128 128 150 163 165 145 149 152 150 159 161 161 167 167 164 164 158 156 146 86 84 146 153 154 160 174 173 171 169 163 153 146 144 153 180 177 166 146 142 147 154 165 159 157 156 150 144 140 134 133 147 161 171 168 148 145 141 144 149 158 168 176 176 171 160 154 142 83 86 146 155 157 164 176 179 181 172 160 156 152 161 181 183 176 155 140 144 143 153 162 160 161 159 151 138 138 125 125 142 157 169 176 174 162 157 155 163 173 178 181 177 170 158 147 137 81 85 143 150 158 166 172 181 189 184 169 170 179 185 186 182 168 144 129 135 144 154 163 168 163 154 146 137 130 120 117 126 152 167 174 173 173 172 169 169 175 178 181 175 161 146 142 129 79 82 142 146 149 155 166 172 183 180 185 187 188 186 183 170 148 123 121 132 143 158 168 166 161 155 143 132 127 123 119 113 136 160 172 174 173 174 171 171 170 173 174 163 148 134 131 125 76 79 134 140 140 144 151 156 168 173 181 188 184 183 179 160 128 105 130 134 144 162 181 180 173 165 151 135 132 131 134 119 126 152 166 170 172 171 171 173 173 168 164 150 137 129 123 123 74 74 125 128 129 131 140 152 160 170 174 182 176 176 168 143 110 111 140 136 141 159 176 172 165 165 150 134 131 138 143 130 114 139 157 165 171 170 169 172 172 166 154 141 132 126 120 118 72 71 121 122 125 127 136 145 152 168 170 173 168 170 153 120 93 129 137 129 123 125 136 142 139 127 117 113 116 128 133 128 105 122 150 156 163 169 169 170 166 159 147 138 128 125 121 118 71 70 120 121 124 132 137 142 144 157 163 163 163 158 133 100 87 121 115 105 104 105 110 113 113 106 99 97 91 98 106 112 103 90 123 142 156 163 160 162 161 153 146 135 126 121 117 113 71 68 116 119 123 131 136 140 145 156 157 156 154 141 116 89 91 105 79 45 42 74 88 86 86 92 81 48 34 38 69 90 99 92 101 132 149 160 162 160 156 150 143 131 123 117 113 112 71 60 113 121 126 127 133 137 141 147 150 147 143 126 96 90 129 132 79 45 40 39 60 72 71 80 74 83 87 68 60 88 110 104 98 123 144 153 147 151 148 144 136 129 123 115 115 113 70 61 110 118 122 126 133 132 139 144 144 146 145 124 102 118 145 146 129 89 83 83 62 53 63 70 86 102 100 91 99 115 118 115 108 123 141 147 149 150 146 138 131 128 121 116 114 115 69 60 105 115 116 128 130 133 136 137 139 143 137 122 117 140 149 144 141 133 125 134 127 109 95 84 99 112 112 114 116 120 122 121 125 130 144 154 153 150 141 138 133 129 120 117 116 115 71 61 102 112 117 125 129 130 132 132 135 138 134 130 139 148 148 146 143 144 142 151 152 152 144 127 117 119 122 123 121 124 125 131 141 143 146 151 150 146 138 135 130 124 120 117 117 110 68 58 102 112 123 124 125 127 128 132 136 137 139 140 147 152 151 153 148 155 153 157 155 156 161 155 146 142 140 133 134 137 139 143 148 149 146 149 149 142 140 132 126 124 124 119 118 115 67 52 103 111 121 128 126 124 127 130 132 139 139 145 149 146 145 148 145 147 148 155 151 146 159 150 149 154 148 145 148 145 145 145 145 149 153 151 148 145 135 132 129 123 121 118 120 114 67 31 103 106 118 127 125 126 131 126 129 136 142 145 140 138 138 151 146 144 143 147 153 154 154 151 149 151 144 146 150 146 144 147 142 143 151 148 146 142 137 132 126 121 120 119 117 113 67 18 97 104 113 123 124 126 127 129 129 134 136 140 133 130 137 137 128 110 99 100 103 123 127 112 98 103 112 134 144 141 141 139 138 131 137 141 140 137 131 129 123 121 120 118 115 113 68 12 80 105 114 121 123 122 124 127 130 131 130 125 118 128 120 102 89 93 94 85 85 94 94 92 92 97 100 93 95 109 122 131 127 122 123 129 135 132 131 130 125 124 117 117 116 111 67 10 58 99 109 117 121 123 124 125 127 124 125 110 108 113 90 78 75 64 63 63 66 68 71 67 70 71 76 83 84 77 83 107 118 118 111 117 125 128 128 123 124 119 114 117 113 111 66 10 36 98 107 115 118 122 123 125 126 118 113 103 99 80 67 69 60 63 75 87 89 80 70 63 66 63 63 61 62 66 66 70 85 102 105 109 114 124 126 121 117 117 115 113 112 112 64 10 22 92 102 114 114 117 120 122 124 112 103 88 76 52 71 90 101 119 133 148 157 144 138 141 138 127 125 116 94 75 68 63 52 61 87 102 108 118 123 119 114 115 113 110 110 107 62 10 16 73 98 111 119 115 119 121 125 117 101 79 75 99 110 109 98 115 146 179 186 163 150 155 151 149 157 141 123 111 111 102 99 91 76 91 107 121 124 118 115 113 111 107 107 103 61 10 18 46 95 105 115 116 114 119 124 120 101 86 103 114 112 111 112 104 116 136 148 142 150 141 144 150 132 117 115 116 114 110 110 111 98 89 111 124 123 113 114 110 106 106 105 99 59 10 25 27 90 102 111 114 111 117 123 122 105 101 116 121 119 113 109 106 111 110 112 114 117 112 114 120 116 106 100 98 107 113 116 117 113 100 113 125 120 114 113 109 106 104 101 98 54 9 17 22 72 99 108 112 113 111 119 118 106 112 116 117 118 117 111 104 92 79 72 74 78 76 77 80 86 93 102 107 114 114 118 118 116 112 115 118 115 112 110 108 106 103 99 98 50 11 17 30 66 93 109 111 115 116 112 114 101 106 112 110 113 112 109 102 93 83 70 62 60 60 64 69 79 88 98 106 107 110 107 109 111 113 108 108 108 109 107 105 105 102 102 93 45 10 19 42 55 82 106 113 114 114 113 109 97 100 108 108 108 108 105 99 91 76 70 70 67 65 64 68 72 82 93 103 104 105 101 99 100 103 98 99 99 101 103 104 105 105 100 83 33 10 28 43 39 60 98 115 114 112 109 108 97 102 111 109 107 107 108 102 91 83 83 86 91 92 87 80 77 83 93 103 107 106 103 98 94 98 93 90 94 97 99 101 106 104 94 72 20 16 36 34 31 38 85 112 120 116 108 105 102 111 115 110 110 112 117 113 109 110 113 121 133 135 128 126 115 105 106 112 113 112 107 104 104 99 95 91 93 95 99 100 106 99 84 66 14 21 30 29 32 33 77 101 119 120 116 109 113 118 117 113 114 120 125 121 124 124 128 139 140 138 144 145 142 137 130 128 127 122 112 108 106 101 100 98 98 97 100 103 102 93 79 65 11 20 28 33 53 34 79 94 108 115 117 115 118 116 116 118 121 126 126 125 133 136 142 142 145 142 143 149 148 145 142 138 135 126 118 110 109 104 102 104 101 98 100 98 94 80 79 56 11 20 34 46 48 29 85 95 99 107 112 114 116 114 116 118 121 122 123 122 127 136 137 130 140 141 144 150 147 147 141 140 138 128 118 112 108 105 105 102 99 98 96 92 81 82 79 52 10 23 53 50 40 30 92 103 96 98 106 110 109 112 111 115 117 115 118 117 124 132 143 144 137 139 139 139 147 146 145 139 131 120 113 110 107 105 101 97 94 92 88 80 81 89 80 45 11 41 76 69 39 30 95 113 102 94 92 98 102 106 110 110 115 111 114 117 119 125 128 132 132 130 138 134 131 136 137 127 121 112 110 108 105 101 96 89 87 82 76 78 90 93 78 40 12 86 112 64 43 33 96 123 113 100 89 86 90 95 102 105 112 110 111 111 113 115 112 116 124 125 125 128 125 120 122 115 112 109 109 107 103 97 90 84 79 74 78 90 97 92 75 37 10 57 75 37 32 22 60 80 72 66 58 53 53 53 57 62 64 66 65 67 66 67 67 65 67 72 69 68 67 67 67 63 64 65 65 63 60 56 54 50 48 49 55 61 62 56 43 20 7 