P2
48
60
255
42 69 70 72 72 78 83 84 86 89 89 91 91 91 91 90 90 90 91 92 92 93 94 93 94 93 92 92 92 92 92 92 90 89 89 85 84 81 81 80 78 74 73 73 69 69 66 39 68 112 114 116 119 126 133 136 140 145 143 147 150 149 150 149 149 148 145 152 151 149 152 150 150 151 149 151 149 148 147 147 147 144 143 140 134 132 132 126 123 118 115 115 111 109 103 63 67 113 113 116 119 123 131 137 140 144 147 149 151 152 150 150 155 153 152 152 151 151 153 153 151 152 152 151 150 148 147 148 147 147 142 138 133 134 131 125 120 115 111 112 109 106 103 64 68 112 113 116 120 124 129 137 142 144 151 153 148 150 151 149 154 154 154 155 152 152 153 153 154 156 155 154 152 150 150 151 149 146 139 136 134 134 130 126 120 115 114 111 107 106 103 65 68 112 114 119 122 125 130 134 139 143 148 150 147 151 149 151 154 154 155 154 154 154 152 154 154 155 156 152 149 150 150 152 151 147 143 138 136 132 129 125 120 116 112 111 107 103 105 66 67 111 115 118 121 124 127 133 139 141 144 144 145 145 146 146 145 147 149 150 149 150 150 150 150 150 152 149 146 146 146 147 148 146 143 142 139 134 135 127 121 120 112 107 106 103 104 65 68 112 115 117 117 125 128 132 133 135 137 141 140 135 138 138 138 140 142 143 145 147 148 147 143 145 143 139 142 139 137 139 141 138 139 135 134 131 132 129 126 122 115 109 105 104 103 65 68 111 114 116 115 118 116 115 112 117 118 120 124 126 129 128 130 133 134 138 140 143 145 143 138 136 135 129 130 129 120 118 120 115 109 102 99 101 108 116 116 121 119 110 107 104 105 64 66 110 113 108 90 81 78 72 66 60 62 65 77 84 104 112 119 126 129 134 136 138 139 138 138 133 126 114 108 102 94 74 64 56 54 57 58 66 74 79 86 98 115 112 107 104 106 65 68 109 99 80 65 60 49 46 48 48 46 47 51 56 71 85 98 110 120 126 134 135 136 136 134 129 122 109 94 77 63 55 51 48 48 44 44 50 60 68 72 74 81 95 107 103 105 64 67 91 74 67 62 61 54 48 45 42 41 42 48 53 63 73 85 92 102 117 127 133 136 138 133 126 114 100 85 74 66 56 51 46 49 55 61 70 73 76 67 67 70 70 81 100 104 64 52 58 50 58 69 85 91 94 91 84 75 69 67 69 71 73 74 81 95 112 124 133 137 142 137 125 112 97 88 80 76 72 70 73 80 89 99 109 116 112 105 94 72 57 60 80 101 63 37 56 70 88 103 118 120 120 117 110 101 93 86 84 85 85 87 91 101 114 126 138 144 145 140 126 110 98 90 87 88 87 86 86 95 103 111 114 121 122 120 113 107 90 72 66 90 63 43 73 91 103 111 114 112 109 98 93 90 84 76 77 92 99 101 104 110 118 126 141 146 150 144 125 113 104 101 98 98 86 89 110 123 124 123 115 95 93 102 107 109 105 94 79 84 62 53 93 99 99 98 91 79 93 117 125 122 124 117 104 89 98 106 115 118 119 128 141 148 153 143 125 117 116 110 104 93 101 118 113 99 90 90 112 109 106 85 76 95 104 103 96 93 59 59 100 100 88 70 83 103 104 75 62 67 74 66 88 106 97 107 118 124 120 127 144 155 155 145 124 117 124 120 108 112 100 77 47 54 27 50 33 52 84 94 83 72 95 102 100 101 61 65 104 96 77 88 98 90 81 46 39 26 37 48 98 73 94 117 123 125 119 126 141 150 151 143 123 116 126 135 131 85 82 124 68 41 29 37 40 79 62 56 92 98 96 109 108 112 67 74 115 105 104 104 88 73 98 66 46 40 46 60 126 90 74 111 129 124 116 125 141 149 149 141 124 116 127 140 124 102 111 134 117 61 51 54 69 102 85 75 76 97 113 119 122 118 74 78 122 116 107 88 78 91 107 112 72 65 76 115 131 119 122 126 125 120 115 122 135 143 145 141 123 116 122 133 137 146 142 134 130 127 117 117 122 112 101 90 112 124 125 128 133 133 83 81 125 129 128 121 100 95 106 112 110 113 110 119 125 129 128 129 123 116 114 120 133 139 141 138 123 115 117 127 139 145 144 135 126 121 110 110 109 114 115 114 131 133 133 134 138 147 92 79 123 136 134 132 120 112 111 114 108 113 124 127 132 133 128 130 120 113 114 118 132 139 136 133 124 115 113 119 130 148 152 148 144 135 128 129 127 128 128 125 138 139 139 138 142 148 91 78 126 134 136 134 130 124 121 124 128 129 135 141 142 140 136 123 115 113 115 116 130 138 140 132 122 113 112 115 123 139 150 151 149 150 148 146 142 138 138 141 143 141 146 148 149 145 85 77 128 141 140 136 135 134 134 138 140 145 147 148 146 141 129 119 112 113 114 115 125 135 139 134 120 113 112 115 122 130 142 152 152 151 150 153 153 148 145 142 140 143 145 152 150 142 82 81 134 146 149 139 136 138 141 142 145 149 147 147 145 137 124 117 115 114 112 114 125 137 142 138 126 115 113 113 119 127 138 144 145 151 152 151 152 152 152 147 145 148 148 148 145 143 83 82 138 145 147 141 141 144 148 148 150 149 147 140 134 132 123 118 113 114 112 118 133 138 140 140 133 119 112 114 117 124 134 139 141 148 152 146 148 147 144 146 148 146 146 147 144 139 81 81 136 142 144 143 141 141 143 147 148 144 141 135 133 131 123 118 112 111 111 125 133 142 145 142 135 126 113 110 115 122 135 138 138 141 145 148 148 147 149 148 148 144 144 144 140 134 78 79 134 141 142 141 138 140 142 142 140 139 137 136 136 131 123 116 111 108 114 126 134 151 150 148 143 132 115 108 111 118 131 139 140 140 144 145 149 147 148 147 145 144 142 141 133 127 74 75 126 134 137 140 139 139 139 141 141 142 138 138 133 129 121 111 109 110 114 125 148 157 146 146 160 131 115 110 107 115 125 138 141 143 143 144 145 145 143 143 140 140 136 132 128 123 71 72 121 127 132 132 136 136 139 141 140 139 140 138 134 123 115 107 109 113 111 113 137 144 134 130 130 111 106 107 111 112 120 131 141 144 145 145 146 146 143 140 136 136 132 127 124 118 69 71 121 123 132 131 132 135 139 140 139 139 143 140 132 120 113 110 112 110 103 104 115 127 124 117 111 107 101 104 109 111 120 126 133 143 146 144 145 146 142 141 136 133 129 126 121 115 67 71 119 120 123 127 131 133 137 140 142 140 140 132 125 119 113 110 108 100 86 85 100 112 114 106 101 70 49 66 95 106 119 119 126 140 143 147 147 146 142 139 136 132 127 121 117 113 67 71 117 120 121 122 128 132 137 140 141 140 135 127 118 118 110 98 74 50 33 40 63 95 96 92 80 40 39 51 75 99 111 115 118 130 142 144 147 144 141 138 134 131 124 120 119 112 67 68 116 118 120 122 127 131 134 139 139 137 128 124 119 119 110 83 58 50 50 78 93 91 79 92 101 79 61 57 72 100 117 114 111 120 132 140 141 142 139 137 131 129 125 120 118 111 67 69 115 119 117 121 123 128 134 140 138 133 125 121 119 120 116 87 65 69 91 102 98 86 76 92 100 104 94 67 82 112 120 116 112 115 126 136 139 142 140 137 131 127 123 119 115 111 67 67 112 116 117 120 123 128 133 134 135 129 123 120 122 124 121 110 87 84 95 105 112 101 91 95 90 87 99 99 112 118 118 118 115 115 122 132 136 140 137 136 131 126 121 117 112 110 66 66 111 114 117 122 125 129 134 132 130 124 122 124 124 123 121 119 115 93 76 90 106 103 98 85 82 72 74 102 117 122 119 121 120 120 124 131 135 136 136 135 130 125 119 116 113 106 66 65 110 115 118 122 123 129 130 129 127 125 125 126 124 122 122 122 106 66 61 83 83 100 89 76 73 65 68 76 106 118 119 124 125 128 132 133 134 133 134 133 128 122 117 113 111 106 65 65 109 112 117 120 123 126 127 127 123 126 127 127 123 119 120 103 83 55 46 74 72 75 80 70 66 57 60 75 90 93 109 121 125 125 128 132 132 132 131 128 124 119 116 112 109 105 64 62 107 110 116 118 121 125 124 125 127 127 121 115 114 113 100 88 58 43 47 50 55 70 76 68 63 57 61 70 75 73 83 105 112 110 112 119 126 124 127 126 123 119 113 111 109 105 64 61 106 106 114 117 120 121 124 125 119 110 106 99 98 91 76 67 53 44 41 42 67 80 84 86 73 56 54 72 65 60 66 83 88 94 98 101 109 117 122 125 124 119 112 107 105 98 60 62 102 106 110 114 118 121 123 116 100 98 91 85 78 75 65 62 59 46 40 50 96 111 111 121 111 76 57 57 50 61 59 66 70 73 80 76 87 98 118 119 122 119 111 106 100 98 61 60 97 99 108 111 117 119 116 89 91 83 63 60 65 72 61 61 69 59 61 71 98 113 119 111 104 86 78 64 67 70 59 62 60 54 60 58 67 76 101 113 119 116 106 98 102 98 59 54 95 102 104 103 112 105 92 83 80 60 45 44 58 70 65 69 79 80 87 87 88 94 102 99 97 90 92 87 80 66 61 67 67 48 42 45 48 61 81 103 112 114 104 107 102 100 59 52 92 99 97 102 106 108 97 82 62 53 52 44 63 77 79 72 81 85 86 84 77 78 82 82 81 80 79 79 80 71 66 68 77 60 50 43 43 46 61 84 102 104 97 96 100 98 55 58 89 96 94 96 101 103 87 65 63 64 61 49 58 71 71 75 69 66 64 61 58 55 51 57 64 70 72 75 73 67 66 68 65 51 50 48 52 48 58 59 95 99 94 92 96 95 55 58 89 93 97 93 96 96 76 61 79 72 59 68 66 73 78 90 98 106 109 112 122 119 114 121 118 120 117 121 114 111 109 100 92 86 87 69 58 60 67 60 88 102 100 95 94 92 54 56 89 91 98 94 98 103 74 66 91 81 94 117 105 107 110 115 119 124 126 136 139 137 133 134 133 133 132 137 119 114 111 110 110 116 128 116 95 61 52 70 92 100 96 93 91 91 54 54 89 88 98 98 95 96 81 70 78 111 121 130 110 102 105 107 107 111 116 127 132 134 130 127 130 127 122 113 107 104 107 106 109 122 132 127 117 90 65 94 98 99 96 93 87 87 52 56 89 93 96 96 96 95 106 100 109 118 126 130 118 110 101 99 99 102 104 107 109 110 114 106 105 103 99 99 101 102 105 105 116 121 126 128 123 119 109 110 103 95 86 90 88 86 52 76 87 91 91 96 99 99 104 110 112 120 128 121 115 112 109 106 102 97 97 97 88 85 88 83 87 90 96 100 100 105 110 114 116 123 127 125 126 122 114 110 99 95 94 90 94 85 53 112 93 93 91 91 97 96 104 107 111 116 119 114 115 110 108 110 106 110 111 100 93 99 93 92 99 103 108 112 111 111 113 115 117 119 121 119 113 115 99 95 94 95 94 99 93 86 55 124 121 85 91 88 96 96 100 107 109 113 121 112 113 111 108 109 108 113 114 113 108 100 93 99 108 110 113 112 112 114 115 115 119 117 118 116 112 112 99 95 92 96 94 92 87 82 51 123 183 84 84 91 82 96 99 99 106 111 113 110 108 109 108 111 111 116 123 125 120 110 107 117 120 121 123 115 115 117 118 119 120 119 118 113 109 104 94 95 90 94 86 92 85 84 51 124 199 112 82 86 85 96 101 100 104 113 107 110 109 107 108 112 117 118 127 134 135 131 127 127 130 128 131 125 118 119 124 127 119 122 119 111 107 101 101 98 90 93 87 82 83 78 50 124 200 133 74 83 86 91 94 98 100 108 102 102 108 109 115 122 121 122 125 130 133 132 141 143 141 133 133 131 126 124 128 128 125 123 121 111 103 95 96 97 92 86 85 79 80 81 59 124 201 145 85 75 81 90 94 100 102 99 95 101 106 117 127 127 123 125 119 124 131 139 136 139 133 132 131 132 130 130 132 130 132 120 116 116 102 92 91 92 89 83 84 80 72 88 59 123 193 131 98 79 80 88 91 90 97 102 101 99 113 121 126 131 125 120 119 119 126 127 131 136 128 130 123 127 129 132 129 125 123 113 110 110 98 95 91 90 90 82 78 69 81 91 63 115 137 102 100 90 74 81 83 90 96 96 94 94 105 113 121 120 115 116 114 121 123 124 129 131 120 122 114 121 126 127 119 119 115 107 103 94 92 91 87 83 86 76 70 80 88 95 65 84 103 79 102 93 85 72 87 88 93 97 92 95 100 105 110 112 106 103 103 111 114 110 110 114 109 115 114 117 122 126 111 107 105 107 100 84 81 84 85 80 73 67 77 86 93 98 66 45 46 42 64 63 59 46 43 50 53 56 55 57 57 66 66 67 63 62 63 63 64 60 63 65 65 68 71 68 69 70 67 65 58 56 56 52 48 49 47 46 40 46 54 56 59 65 42 