P2
48
60
255
43 74 77 83 86 91 78 85 89 87 87 86 87 87 86 89 89 87 83 80 83 80 81 81 83 84 82 82 81 83 83 83 82 80 78 76 77 74 72 74 75 79 72 68 68 65 62 37 70 118 124 130 132 134 137 142 143 142 144 142 143 139 142 145 145 145 140 132 133 134 128 129 128 131 128 132 134 132 134 136 131 129 134 127 122 120 119 122 123 124 113 111 107 106 97 59 71 115 122 129 138 138 140 138 139 139 139 136 138 138 142 143 143 145 145 138 127 133 126 125 132 133 130 136 139 135 132 131 133 129 133 129 124 120 122 125 126 128 121 112 107 103 96 55 69 114 118 130 137 141 135 135 136 138 139 142 143 144 147 148 147 145 147 142 139 134 135 135 140 137 139 140 141 138 132 132 144 140 129 127 120 118 120 125 127 125 118 108 104 103 96 55 68 114 117 122 136 140 138 134 139 145 146 146 140 141 144 149 145 143 146 144 145 142 142 142 142 141 143 137 144 145 134 134 143 136 126 121 123 122 122 124 125 126 121 112 107 105 99 58 69 116 119 124 134 134 134 132 137 141 141 139 132 124 127 135 133 129 131 136 136 136 138 138 137 132 143 143 143 141 130 126 125 124 119 116 121 124 122 123 128 123 120 118 109 105 101 60 72 116 121 130 131 133 132 132 134 133 133 135 130 118 111 112 115 114 116 121 120 121 125 128 128 121 130 133 126 120 120 117 113 117 121 119 119 119 118 113 115 116 113 110 110 107 102 62 71 116 118 129 128 125 116 114 119 122 123 117 112 101 96 94 96 99 100 105 105 104 112 118 122 114 119 121 112 108 106 105 99 103 109 106 100 95 77 85 91 97 102 104 109 105 102 63 70 114 115 116 113 109 98 79 72 67 67 65 61 60 57 60 73 86 92 94 96 97 111 111 110 106 110 108 103 96 89 83 76 71 66 61 54 52 50 67 77 83 82 92 100 102 102 62 69 104 99 94 92 86 72 57 54 47 42 40 39 39 44 48 46 66 78 88 93 97 105 109 109 107 102 99 89 84 76 63 53 41 41 40 48 51 63 70 74 72 78 87 86 93 101 60 64 96 94 88 83 81 65 63 70 69 61 55 47 44 47 49 52 57 66 76 85 96 105 111 111 110 99 91 72 71 63 52 47 45 45 54 67 77 86 90 92 91 91 88 85 89 95 58 58 93 97 97 85 80 79 77 76 68 69 69 68 63 60 60 58 61 62 72 84 93 109 112 108 106 100 78 66 62 58 56 57 61 77 96 105 112 114 112 104 102 99 95 94 93 92 59 60 96 101 89 81 78 61 57 72 86 89 82 71 66 72 76 76 71 70 77 88 102 109 110 109 105 99 80 63 62 68 74 73 71 80 88 89 91 91 95 99 98 97 96 95 90 90 57 64 102 101 91 76 57 72 95 107 110 104 102 106 85 70 80 88 87 85 88 92 103 114 116 112 101 90 79 72 76 81 72 61 82 77 63 54 53 59 75 77 77 87 91 93 93 94 58 64 103 100 83 58 76 81 70 54 49 38 57 57 73 82 77 85 88 89 97 95 103 114 115 117 109 93 84 82 77 76 71 72 59 55 73 43 68 59 54 45 62 65 83 93 95 98 59 62 98 87 69 76 63 47 58 46 71 32 75 68 80 58 74 81 79 81 103 97 107 119 129 124 111 95 95 89 78 73 58 66 103 67 47 29 46 63 83 58 44 64 79 97 99 102 63 65 97 90 87 71 50 64 88 59 45 40 56 80 116 91 64 66 86 103 108 102 110 130 138 131 119 98 99 110 90 69 71 94 123 91 56 55 60 84 91 78 66 70 84 100 100 105 67 70 112 101 88 76 75 80 100 97 66 61 71 110 122 107 94 95 101 111 111 103 114 134 136 132 119 101 101 109 109 110 105 104 117 114 91 81 108 111 103 88 83 96 93 99 106 111 72 69 111 108 107 105 90 91 101 120 110 104 108 110 105 114 121 122 120 117 114 107 117 138 134 125 112 101 105 112 115 123 123 119 118 102 97 96 97 90 91 99 102 110 107 106 116 126 75 79 119 113 117 118 110 107 100 95 85 91 96 103 111 116 119 122 127 122 113 105 113 130 131 132 123 105 104 109 118 122 130 131 128 125 121 118 117 108 109 103 110 118 113 114 126 130 79 83 128 122 120 122 122 117 116 112 112 117 117 118 125 123 127 133 129 122 110 105 113 127 131 131 119 107 104 106 113 123 130 131 131 135 134 126 120 118 118 114 119 124 123 130 138 136 78 90 138 127 125 125 125 126 127 127 130 130 128 126 126 132 138 136 128 113 109 105 115 126 131 132 119 104 104 95 105 118 129 133 131 128 133 133 129 127 126 128 128 131 130 138 143 140 75 90 144 135 134 139 137 131 133 134 137 133 131 126 134 143 139 125 116 113 107 108 114 127 128 133 122 105 103 93 97 108 120 127 137 132 125 124 127 129 133 137 141 141 145 145 145 143 78 90 144 143 144 144 144 139 141 141 135 130 132 139 152 148 134 119 108 108 108 111 121 131 134 134 125 107 99 96 95 96 102 116 138 143 145 141 144 154 159 157 159 156 152 149 143 136 81 90 144 149 149 151 152 152 151 144 141 143 148 147 147 145 124 115 109 109 109 115 124 135 136 134 123 115 103 98 98 95 93 109 132 141 146 151 153 160 159 163 160 155 152 145 140 130 76 89 143 148 151 156 158 158 155 153 151 150 145 141 142 140 130 115 107 107 114 118 123 130 133 128 132 115 107 100 99 101 97 116 134 133 144 150 151 152 157 162 155 152 142 141 133 124 72 85 143 146 147 153 156 155 154 152 150 150 150 148 143 137 127 106 97 107 115 118 126 135 137 135 132 119 110 103 91 94 100 129 138 139 148 152 152 149 150 149 153 146 138 132 125 119 69 83 140 144 142 144 145 148 151 148 149 152 150 141 137 134 119 95 99 109 114 120 127 133 137 134 139 125 108 105 98 85 101 133 137 143 143 148 149 152 149 143 143 139 134 129 120 115 66 81 134 138 140 140 144 145 148 151 152 149 150 144 140 128 99 84 108 108 114 120 141 148 140 142 153 129 107 102 104 95 86 117 134 141 137 142 149 153 151 153 144 137 127 119 117 109 62 76 127 131 136 138 141 145 150 150 149 145 146 142 133 111 83 97 108 103 107 114 138 139 133 131 131 118 106 100 102 104 82 98 125 135 135 136 148 152 150 151 144 136 124 116 113 105 62 73 123 123 130 135 139 140 149 147 146 142 140 134 118 92 79 104 105 100 101 106 117 119 119 120 111 108 100 98 99 104 86 83 106 125 130 135 140 145 149 147 142 131 119 110 107 104 61 67 119 119 125 132 137 143 148 149 145 137 132 124 104 81 84 102 104 98 98 101 111 113 111 107 103 101 96 97 98 98 95 82 87 109 128 132 134 137 139 138 137 127 117 107 105 102 61 69 117 116 117 129 138 144 145 149 142 129 122 110 91 84 96 96 95 85 75 92 103 100 99 96 96 95 84 90 95 95 103 95 81 96 114 128 126 137 138 133 131 124 114 108 102 101 60 70 113 116 116 128 134 140 142 139 134 124 115 102 87 95 100 93 82 60 41 50 82 87 84 82 77 44 39 58 78 99 109 104 87 87 105 123 126 134 133 133 128 119 111 105 103 102 60 69 111 115 113 124 130 136 136 132 123 115 106 95 91 103 100 99 99 76 71 79 80 79 67 67 69 73 65 62 90 101 105 105 101 88 97 116 126 128 131 130 120 117 107 101 102 101 60 68 110 112 115 121 127 133 132 127 123 113 101 91 99 107 101 110 108 91 88 92 100 100 98 88 96 117 114 107 105 100 106 107 105 99 98 113 120 124 129 126 122 113 107 101 101 101 60 68 110 110 117 121 124 125 128 123 120 111 97 92 100 102 105 114 103 117 111 118 125 115 115 96 124 145 123 128 123 104 103 112 109 108 105 111 117 123 124 120 119 114 108 106 102 101 60 67 107 108 113 118 123 124 125 120 112 100 97 109 113 106 110 103 118 139 126 119 131 115 113 99 118 144 123 142 133 127 118 118 127 119 114 108 115 119 120 117 119 115 110 104 104 102 61 66 103 106 108 115 120 120 119 115 106 99 122 111 123 113 111 99 103 114 116 107 105 103 106 80 92 119 102 135 118 118 128 132 135 143 133 115 111 115 122 119 115 112 108 104 105 102 61 63 104 107 111 111 117 114 111 112 100 113 123 117 131 113 102 97 97 97 101 98 106 99 104 89 107 119 105 110 115 117 116 127 131 126 128 132 119 114 116 118 117 113 110 104 102 100 62 62 104 107 113 113 114 112 113 108 102 121 113 86 107 101 105 110 109 113 112 110 115 119 122 122 113 105 100 96 106 101 102 106 114 111 127 134 122 119 114 116 117 108 109 103 100 101 62 64 106 107 112 113 112 114 112 110 106 117 90 83 97 97 98 90 80 82 82 85 85 87 90 87 81 82 80 82 82 80 83 93 104 102 109 137 128 114 110 115 116 108 104 103 104 101 61 62 105 104 109 114 117 116 114 108 108 102 74 65 78 86 76 72 63 61 64 68 69 73 70 68 61 58 58 60 63 64 62 66 72 77 95 127 119 121 112 111 111 105 103 101 102 102 60 64 107 105 105 108 115 116 112 111 97 102 65 62 58 56 55 58 65 79 87 77 70 64 59 66 74 78 82 88 85 80 70 68 56 45 77 116 112 114 112 108 108 107 102 101 103 100 61 63 103 103 108 107 115 115 113 115 108 90 64 57 83 91 90 89 85 83 104 104 107 106 108 105 107 107 106 95 92 91 89 89 89 65 60 97 113 115 111 108 107 104 102 102 103 100 62 65 100 100 103 104 111 112 114 118 113 74 66 94 103 99 90 84 85 87 88 90 95 99 103 99 92 88 88 89 88 88 88 98 105 102 83 77 100 110 112 107 105 105 105 102 104 102 63 67 105 105 101 102 104 109 110 112 108 75 94 116 108 107 100 89 86 81 84 84 86 85 88 88 89 87 85 81 83 93 98 104 114 115 108 100 97 107 111 104 103 104 103 104 103 106 65 64 106 106 103 104 102 103 104 104 98 106 115 116 108 111 104 98 93 85 75 66 59 55 58 59 60 63 67 77 87 95 104 107 111 113 113 113 113 113 104 103 98 97 104 100 103 104 84 61 107 106 105 105 105 99 105 107 106 115 109 107 100 101 99 99 98 93 85 74 68 66 65 61 66 72 81 88 93 98 100 102 105 104 112 110 113 110 105 98 96 101 105 102 104 100 99 63 104 107 105 102 104 100 102 104 111 107 103 101 96 97 99 99 99 96 92 98 101 102 101 106 108 103 104 101 105 102 101 102 103 104 108 104 106 107 103 99 100 102 104 105 104 99 104 61 103 107 106 102 106 97 102 105 103 101 98 97 91 96 100 102 103 106 111 117 118 115 116 117 116 113 118 113 109 108 106 107 100 107 106 100 103 103 102 95 100 103 104 104 99 102 112 57 100 103 106 103 100 97 98 103 101 98 98 97 97 107 103 106 112 119 123 119 121 120 121 121 119 120 116 117 115 117 114 112 108 107 105 103 103 105 100 99 101 104 106 104 99 104 115 58 93 101 103 100 96 100 97 100 101 98 97 104 102 113 108 110 110 124 114 120 123 126 129 124 121 118 116 114 112 109 116 116 103 103 111 104 106 101 103 102 103 103 103 102 98 104 115 60 98 97 100 100 102 103 98 101 98 96 99 109 106 111 115 105 109 113 110 119 118 119 119 114 111 113 118 116 109 106 105 114 111 105 106 102 100 101 102 101 100 102 101 99 98 107 113 60 99 98 96 98 101 103 95 100 101 97 97 105 100 103 102 97 101 108 105 114 110 107 109 107 105 106 112 107 101 97 105 109 105 102 103 102 100 100 98 95 98 104 103 99 96 95 80 59 98 103 101 96 98 101 101 103 103 99 94 98 96 93 100 96 94 99 98 107 103 101 95 97 99 102 107 101 95 98 100 100 98 101 101 103 99 96 92 94 101 103 103 98 93 89 49 58 95 100 102 100 100 98 97 98 99 100 97 100 101 95 92 88 89 91 95 98 96 95 94 96 94 94 98 99 97 95 96 99 100 104 105 97 93 89 94 101 101 102 102 96 95 87 44 56 98 100 103 102 100 101 97 93 95 97 95 98 102 97 90 86 87 89 93 95 94 93 92 93 89 91 93 95 96 96 99 95 101 106 99 90 90 98 101 101 102 103 98 94 93 86 43 56 99 101 104 103 103 104 101 101 96 94 96 96 100 98 91 90 88 91 95 90 88 93 92 88 87 89 88 93 95 96 101 99 103 100 93 96 101 100 98 102 104 102 96 94 89 86 46 36 60 62 65 65 66 66 64 66 64 62 62 60 61 60 60 56 55 60 58 58 53 56 56 54 53 54 53 55 57 57 63 61 60 59 61 64 63 61 61 63 65 61 57 57 54 53 28 