P2
48
60
255
22 36 37 37 38 39 39 39 40 41 41 42 43 44 44 46 47 48 49 48 48 49 49 49 49 49 49 49 49 51 50 50 50 50 49 49 48 47 46 45 45 45 45 44 42 41 41 24 36 59 60 60 60 62 62 62 63 65 68 70 75 77 78 79 80 81 81 81 80 79 80 80 81 79 80 81 84 82 81 81 81 82 80 80 80 78 76 74 73 72 72 72 70 68 66 40 36 59 59 60 59 60 60 61 64 67 70 72 78 79 81 84 82 83 83 82 82 81 81 82 82 82 83 83 83 81 83 84 86 86 84 83 82 80 78 74 73 71 71 71 70 69 68 40 35 58 59 60 59 58 60 64 66 69 71 75 79 83 86 86 86 86 88 87 86 85 83 84 84 85 85 86 86 86 88 88 91 91 89 86 84 82 77 74 70 70 70 70 71 71 67 40 35 58 59 59 58 57 59 62 66 69 71 75 80 85 86 88 90 91 92 91 90 88 87 88 88 89 89 88 90 92 92 90 95 95 89 85 85 84 78 73 68 62 65 69 70 69 67 40 35 57 57 56 55 54 56 61 64 67 70 72 75 79 83 87 95 94 98 97 96 95 96 94 90 93 92 93 93 94 94 97 90 88 84 84 80 80 76 74 70 63 59 63 67 68 68 41 34 55 55 52 51 53 55 57 60 61 60 62 67 72 79 80 89 94 98 99 99 101 101 98 95 94 97 96 96 93 93 92 84 79 79 73 73 78 72 70 62 59 60 58 61 67 67 41 33 52 50 50 52 54 54 53 52 50 52 56 60 65 68 74 81 87 93 97 99 99 100 99 99 96 102 96 97 93 87 82 79 75 69 68 65 59 59 61 64 69 66 62 58 61 67 41 31 49 51 51 51 53 54 53 50 48 51 53 56 60 63 68 77 81 86 91 94 95 98 98 99 100 101 94 90 89 81 78 71 69 63 64 62 61 66 71 73 70 70 67 61 60 61 41 31 49 51 55 58 60 64 68 70 66 60 56 56 56 59 63 71 77 82 87 91 92 94 93 97 98 99 97 87 83 80 76 68 65 66 66 68 74 81 86 82 77 74 70 66 63 59 40 32 53 55 59 65 69 72 76 79 79 74 67 63 59 58 61 65 73 80 84 86 87 90 92 94 96 96 91 85 79 77 73 68 68 68 70 76 83 87 90 88 85 81 78 74 68 63 41 34 58 60 66 70 74 78 81 84 87 84 78 70 62 59 59 62 68 74 80 81 82 84 88 92 95 92 88 83 76 73 70 67 64 66 73 81 87 90 93 92 88 84 82 78 72 68 42 36 60 63 68 72 74 77 80 80 82 85 82 77 68 58 55 58 62 66 71 75 81 84 88 92 90 89 85 79 73 69 63 60 63 67 74 81 86 88 90 88 85 83 81 78 76 71 43 36 60 62 66 70 71 71 69 67 66 71 72 65 60 57 56 52 53 57 63 71 75 82 88 89 89 83 77 73 65 59 56 54 55 55 57 61 68 72 74 77 80 79 81 79 77 76 46 36 57 58 61 59 55 54 53 49 44 45 44 52 55 59 56 51 50 51 56 64 73 84 89 93 89 81 75 67 60 54 48 49 49 46 44 42 48 49 57 61 61 67 73 74 76 75 46 34 55 52 46 46 46 46 43 44 39 82 57 78 87 56 54 64 50 50 53 59 71 81 85 90 90 81 73 69 61 51 48 66 66 45 40 49 64 46 64 50 52 54 58 66 71 75 47 33 51 47 43 42 49 60 49 43 41 44 48 91 105 87 57 55 57 52 54 59 68 78 82 85 82 79 72 73 69 67 55 72 75 48 44 45 46 57 86 61 48 52 60 66 73 79 49 34 52 50 47 51 58 63 60 48 48 48 62 91 76 77 58 52 55 53 54 59 67 75 78 82 80 78 72 71 69 66 61 60 63 55 50 54 56 72 69 62 60 62 67 72 76 80 51 35 58 58 56 55 58 63 63 60 59 63 68 73 74 72 69 61 54 53 57 61 67 74 80 81 80 77 75 72 76 75 69 65 62 61 64 69 71 74 70 72 74 76 78 74 76 79 51 38 63 65 64 64 65 64 62 61 61 64 66 70 73 73 64 57 54 55 59 64 69 75 80 83 79 78 77 76 76 75 74 72 68 68 71 73 77 81 82 81 83 83 83 81 78 80 50 41 67 70 72 71 72 71 72 71 72 72 72 74 75 71 63 59 56 57 61 65 70 77 81 84 81 79 79 80 82 81 79 79 79 78 77 78 80 84 88 88 86 85 84 83 81 79 49 42 70 75 76 76 76 76 76 76 75 77 78 78 74 69 66 59 57 59 63 66 70 76 81 82 81 78 80 81 85 86 84 85 83 85 87 88 88 88 88 88 87 84 85 85 83 80 49 43 72 77 80 81 82 81 80 80 78 80 80 77 73 71 66 60 58 59 62 64 68 77 82 84 83 77 78 80 85 88 87 90 90 88 88 87 87 87 88 88 87 87 87 88 85 81 48 43 74 77 81 82 83 83 83 82 82 83 81 77 73 70 66 59 57 60 60 64 70 81 85 88 86 79 76 77 81 87 90 90 90 91 93 91 90 91 93 96 96 94 91 89 88 83 49 43 74 77 82 83 86 85 86 85 84 81 78 76 74 69 63 58 58 58 61 65 73 81 86 89 89 81 77 77 76 85 89 89 88 87 89 93 93 97 98 101 97 98 92 91 90 83 50 43 73 76 81 83 84 83 81 80 80 77 77 76 74 68 61 58 58 58 60 66 75 85 90 93 91 86 78 75 78 84 90 92 90 87 85 86 89 94 100 102 103 99 94 89 88 84 51 43 72 75 78 79 76 77 75 75 76 75 78 78 73 66 61 57 58 58 60 69 82 91 95 100 95 88 83 73 69 86 89 93 92 91 89 88 85 86 90 92 97 94 90 87 87 84 51 44 73 73 75 74 69 74 78 77 77 80 79 78 72 66 57 57 59 58 64 76 90 95 100 107 100 94 87 75 72 84 93 93 96 94 92 90 89 90 85 86 88 89 87 87 85 83 50 43 70 71 69 69 73 76 78 79 81 81 79 78 71 60 56 61 63 62 68 78 90 92 104 129 113 94 91 89 79 79 93 95 94 95 96 95 92 93 90 88 88 87 85 85 83 84 51 42 66 69 69 71 76 77 77 80 82 81 78 73 62 55 61 72 73 67 65 69 79 90 99 104 98 87 83 86 89 83 88 93 93 93 91 98 98 98 92 88 87 85 83 82 80 83 50 40 65 66 69 72 73 75 82 81 82 82 76 66 57 57 70 77 66 53 53 56 67 84 91 90 82 71 55 55 78 87 84 89 89 94 93 96 98 96 93 90 82 85 82 81 79 80 50 39 64 66 68 73 74 75 80 81 82 81 74 61 55 60 73 77 46 36 36 44 54 70 78 78 69 46 38 44 69 85 82 85 87 89 91 92 94 93 93 89 85 81 81 80 80 79 49 39 63 66 67 72 74 75 77 78 80 80 77 63 56 58 75 85 62 51 54 56 56 57 64 72 78 73 63 57 71 80 81 86 86 86 89 90 92 91 92 88 86 82 78 79 79 79 49 39 64 65 69 71 71 74 76 77 79 80 81 72 62 54 64 77 76 69 66 64 67 71 77 78 76 74 78 76 73 72 81 86 85 85 86 87 91 91 91 87 85 80 77 79 78 79 48 38 64 66 66 70 70 71 76 78 79 81 81 76 71 67 59 62 62 64 64 64 69 77 82 76 73 70 70 70 69 73 77 83 85 86 86 87 89 90 90 87 84 81 78 77 76 78 48 39 64 65 67 69 69 73 76 78 78 81 76 74 72 71 67 66 62 62 62 64 67 74 77 73 69 67 66 69 71 72 74 80 83 85 85 88 89 92 91 88 82 82 77 75 75 77 46 40 64 65 66 69 69 72 73 75 78 76 75 73 70 69 66 62 61 58 62 66 70 72 74 74 72 65 66 67 67 71 76 77 80 81 84 85 86 89 90 88 83 81 76 73 74 75 46 39 64 65 66 67 68 70 71 73 75 73 73 70 67 64 62 60 60 59 64 70 71 71 71 70 74 71 67 65 65 65 70 74 77 80 80 82 83 86 86 87 84 79 77 74 74 74 45 39 64 63 65 66 67 68 70 70 70 72 71 65 63 62 59 60 63 61 66 71 72 67 66 67 73 75 72 67 66 63 63 68 70 77 78 78 79 81 84 87 81 77 75 74 75 73 44 39 63 62 64 65 65 65 67 68 70 68 67 64 62 63 63 65 65 64 71 75 76 75 74 77 85 80 77 71 70 69 68 70 70 74 76 75 76 77 79 81 78 77 75 73 73 73 45 39 63 61 63 64 64 64 63 65 68 67 65 66 65 67 67 68 69 69 66 63 65 70 75 75 71 70 72 76 77 74 73 71 73 75 75 74 72 74 76 78 78 77 74 72 73 73 45 39 62 61 63 63 63 63 62 66 66 70 68 68 66 67 67 70 66 60 59 58 59 60 62 64 63 65 67 63 68 77 76 74 76 76 74 73 73 71 74 76 75 76 73 73 73 72 44 37 60 61 62 63 61 60 63 65 66 70 68 65 63 66 64 59 55 53 55 56 57 59 60 63 61 63 59 58 56 64 76 76 74 77 77 74 72 71 73 74 74 74 72 72 72 71 43 36 59 61 62 62 60 59 61 65 66 71 69 60 56 58 57 50 51 53 50 54 57 61 60 59 59 58 58 58 53 52 63 63 63 72 79 74 73 72 73 73 73 72 72 71 70 71 44 36 58 59 60 61 61 60 60 63 66 69 63 53 47 48 48 51 56 58 59 62 68 72 70 69 69 68 68 66 64 58 55 49 51 61 73 73 73 73 74 73 71 70 71 69 70 71 44 35 57 57 57 59 61 61 60 63 68 67 67 61 52 50 54 57 62 63 66 74 75 76 78 79 78 78 77 72 69 65 62 58 55 60 69 74 75 72 73 71 68 69 70 68 71 71 43 34 56 57 56 58 62 63 61 61 65 69 71 65 61 57 54 57 60 63 71 77 81 82 83 84 86 88 84 77 69 64 63 67 69 66 70 73 73 74 70 68 68 68 68 69 71 70 42 34 55 55 55 57 59 63 63 62 63 70 71 66 62 58 55 55 57 59 65 69 72 75 75 78 80 80 76 71 68 66 67 69 72 71 70 70 71 72 69 68 66 66 67 69 70 68 43 34 56 54 54 56 58 61 62 62 63 67 70 67 62 58 55 53 54 55 59 63 67 68 69 70 71 71 69 68 67 66 67 68 71 73 71 70 72 71 68 66 64 65 66 67 67 68 43 34 55 54 54 55 56 60 62 62 62 64 65 65 64 61 58 54 51 49 50 51 52 52 55 55 55 56 58 60 62 65 68 68 71 70 70 69 70 70 66 64 64 64 66 66 66 69 44 34 54 54 54 55 56 58 60 59 59 60 61 62 64 63 61 60 58 55 53 53 54 53 54 55 55 57 60 63 67 68 67 68 68 67 65 67 69 66 63 63 62 64 64 64 65 69 89 34 54 53 53 53 56 58 58 57 57 57 58 59 59 59 60 60 58 58 59 60 61 64 66 65 63 63 66 67 69 67 65 65 63 64 61 63 67 63 61 61 60 61 61 62 65 105 150 33 53 52 52 52 55 55 55 55 56 57 57 58 58 59 62 62 61 60 60 62 65 69 69 69 69 68 69 67 67 66 64 62 60 60 60 59 60 61 59 59 59 59 58 62 71 206 158 33 52 51 51 51 52 53 54 54 55 56 57 57 58 60 62 63 62 62 64 65 70 71 74 73 72 74 71 70 68 67 63 62 62 59 59 58 59 59 57 57 58 58 59 61 83 239 158 32 51 51 50 50 50 51 52 53 55 56 56 58 59 62 63 62 61 62 65 66 66 73 75 76 75 71 72 69 67 66 65 62 59 58 57 57 57 56 56 57 56 57 58 65 80 234 158 31 49 49 50 49 48 48 49 50 52 54 57 58 59 62 61 61 62 64 67 67 69 74 75 76 75 73 71 69 66 65 62 62 59 58 56 56 55 55 56 57 56 57 59 64 74 230 158 31 49 48 48 47 47 46 46 48 50 52 55 56 57 59 62 58 59 65 70 67 68 69 71 72 75 71 71 66 64 63 63 62 58 56 55 54 55 56 56 56 56 56 59 65 71 223 158 30 48 47 47 47 46 45 45 46 49 51 53 54 55 59 61 60 58 60 67 66 67 65 64 66 68 69 66 66 64 63 63 60 57 55 53 53 54 57 56 55 56 57 60 64 68 211 158 30 49 48 47 46 46 46 45 45 46 49 51 53 56 57 58 59 59 58 61 63 63 60 60 61 63 64 63 64 63 63 61 59 56 54 53 54 56 56 56 55 55 56 62 65 67 194 158 19 30 30 30 29 29 29 28 28 28 30 31 32 34 35 36 36 35 36 36 36 36 35 35 35 36 36 38 39 39 37 38 36 34 33 32 34 35 34 34 34 33 36 39 41 41 115 98 