P2
48
60
255
27 45 48 52 55 55 55 55 59 62 60 58 61 69 76 74 68 67 66 62 63 65 67 69 59 60 66 63 73 80 83 85 84 82 77 73 75 70 70 71 71 69 71 69 68 73 78 49 42 73 78 82 88 87 86 87 93 99 100 96 100 116 124 132 135 133 136 137 135 134 136 132 107 112 117 114 121 121 131 130 135 135 130 122 124 118 113 114 117 109 107 117 116 115 122 75 41 70 75 80 87 90 91 92 94 100 100 100 114 125 130 137 142 145 147 145 141 143 144 138 115 119 127 129 136 125 137 143 142 137 131 126 127 125 112 114 112 112 110 104 107 108 109 70 39 66 73 79 87 93 96 96 96 101 103 113 120 123 126 129 132 135 140 147 151 151 147 138 122 110 129 123 137 133 125 135 146 137 130 124 128 128 115 121 116 104 105 105 107 102 103 66 37 64 70 79 89 96 100 101 101 107 111 121 123 127 126 127 132 137 140 144 145 148 143 139 128 101 123 118 127 134 133 126 127 131 135 126 123 124 117 116 110 100 99 104 103 96 100 63 36 62 69 81 89 97 104 111 110 110 112 113 119 123 127 129 131 133 134 137 143 145 136 134 131 107 99 113 117 124 123 113 120 122 127 118 112 120 100 102 102 97 94 98 104 91 95 60 36 62 69 82 93 103 111 116 119 115 118 118 118 118 118 119 124 127 126 132 136 135 132 136 133 127 96 97 105 112 116 105 93 95 97 98 87 88 93 90 92 91 90 94 98 88 88 57 36 61 71 86 98 104 111 111 112 112 115 117 119 116 114 112 115 116 118 120 121 127 129 131 126 124 122 97 87 87 87 86 77 74 79 90 94 81 68 71 72 83 85 84 84 84 88 56 35 63 76 90 98 104 107 108 106 101 93 93 98 98 102 104 104 106 106 107 114 121 122 123 125 123 120 115 101 93 85 83 87 99 109 111 104 91 83 64 53 56 64 71 74 75 79 52 36 63 72 81 85 86 96 84 66 54 51 49 51 61 71 79 83 86 89 95 103 113 117 119 122 127 120 110 100 96 92 87 78 72 68 55 49 45 53 51 44 38 34 38 48 50 66 38 35 54 47 48 47 48 42 32 31 30 30 28 28 25 30 34 40 54 63 77 89 97 107 114 120 123 119 107 96 92 71 42 33 28 31 29 31 33 40 49 58 53 42 32 35 42 64 41 29 37 37 38 38 38 38 35 33 31 31 27 25 23 22 23 24 28 38 53 71 86 102 110 116 121 119 108 88 69 41 32 28 27 28 29 31 36 47 61 76 88 84 59 48 61 71 46 32 48 49 49 49 47 44 42 39 35 30 27 25 25 27 28 30 31 39 48 68 84 102 115 125 130 125 113 90 60 43 38 35 33 32 33 40 47 59 71 81 90 95 88 61 62 56 40 32 53 51 50 47 41 34 29 35 50 61 57 47 38 31 31 34 41 47 53 67 89 109 125 134 134 129 120 101 71 42 36 35 44 63 82 99 97 74 58 51 59 71 79 77 61 59 53 30 46 45 43 35 29 38 48 51 58 56 59 57 50 48 43 43 45 51 58 70 92 119 136 148 145 137 126 108 85 66 64 65 60 47 44 43 49 62 75 81 63 53 64 79 82 90 67 30 46 43 40 40 40 35 35 20 15 12 13 17 30 32 46 45 49 52 61 71 95 127 147 164 158 143 128 108 93 95 72 38 29 20 12 17 21 39 32 36 62 85 87 94 104 114 76 34 52 49 43 35 31 30 37 27 30 27 37 37 70 38 28 54 55 55 63 72 95 127 156 169 160 144 126 110 110 85 33 58 55 43 42 42 43 70 61 53 52 61 85 110 131 140 87 41 63 60 61 56 48 49 58 59 48 46 57 85 101 66 46 60 78 62 68 77 100 128 156 170 161 141 125 119 129 71 56 84 83 68 64 63 92 95 91 92 102 132 133 138 150 154 94 61 103 104 89 76 69 70 82 88 88 96 109 117 116 118 118 107 101 79 80 83 105 128 152 169 161 142 131 128 141 135 125 120 117 116 121 115 126 135 130 136 144 154 159 164 163 156 93 75 119 107 97 97 93 92 94 93 97 100 104 107 108 110 116 110 98 97 89 89 108 133 154 169 159 144 135 134 135 148 142 132 122 123 127 132 146 152 156 159 167 172 170 169 163 154 92 75 124 127 129 131 126 121 114 107 108 110 114 118 123 125 119 107 103 103 92 96 108 133 155 166 159 149 141 142 139 149 151 150 147 146 147 153 161 162 168 169 170 172 172 167 158 151 89 77 133 138 145 145 146 147 142 141 142 140 139 139 139 134 125 117 108 105 99 102 112 133 154 167 169 153 145 145 149 159 164 161 157 155 155 156 158 157 162 167 167 167 165 160 155 149 87 74 127 132 139 141 145 149 147 147 149 153 152 151 148 141 130 120 113 107 103 106 114 132 154 170 169 153 148 148 149 162 171 174 171 166 162 159 160 160 162 167 165 161 158 151 147 146 86 70 121 125 129 137 140 144 145 144 146 151 150 151 149 140 128 121 116 115 109 109 115 132 150 163 163 153 150 149 150 159 166 169 169 169 161 158 163 170 171 172 168 160 152 145 143 143 85 67 113 122 128 134 138 141 143 144 144 149 150 151 147 137 127 120 119 117 112 112 118 126 144 155 162 154 150 151 151 157 165 166 165 164 165 162 164 172 175 175 168 159 149 146 141 133 80 66 112 120 122 131 138 138 143 146 147 142 149 151 145 135 125 116 106 105 110 115 121 134 146 153 155 149 150 145 145 154 158 164 164 167 164 163 165 180 188 179 166 153 144 138 135 132 78 65 106 114 123 131 138 140 143 143 148 146 146 145 143 128 113 94 81 83 97 114 125 137 146 152 156 153 148 136 125 128 143 149 152 155 157 161 165 173 174 168 159 142 138 132 130 127 77 59 100 108 115 123 130 135 138 141 142 139 136 131 121 103 82 90 94 82 96 113 124 137 149 159 155 155 149 140 136 109 96 118 132 138 142 146 154 156 153 147 139 129 131 127 126 123 75 56 96 100 106 115 121 126 128 131 128 123 117 106 87 76 93 120 121 98 96 111 127 141 154 165 177 157 148 142 142 135 83 81 96 110 123 129 132 134 136 134 132 129 128 125 119 119 73 52 89 96 100 106 110 112 114 115 111 109 97 75 66 72 100 118 108 94 91 103 121 139 147 144 157 145 143 135 136 139 102 63 70 83 100 109 114 118 121 122 123 122 120 118 115 114 69 48 82 89 94 96 100 102 103 102 97 85 65 59 68 68 87 97 94 83 85 93 105 118 126 131 135 132 128 120 125 128 112 65 60 68 78 89 97 105 111 112 114 110 111 108 107 106 67 45 74 81 87 88 91 92 91 85 75 63 72 76 64 61 68 71 76 67 63 70 85 96 103 111 111 110 98 91 99 103 117 96 63 62 67 74 84 92 98 101 105 102 103 102 100 99 63 40 68 73 77 81 82 82 79 71 61 78 97 74 67 60 48 46 42 42 46 54 60 68 75 78 80 72 54 50 69 114 125 120 82 60 60 63 71 78 86 89 94 95 94 94 94 97 60 35 60 65 69 70 73 72 66 60 70 100 80 74 71 69 55 27 23 23 23 29 50 54 54 55 58 38 32 40 105 127 127 118 105 71 53 56 61 69 76 82 84 85 84 86 89 94 59 34 55 57 61 62 62 63 66 70 95 89 71 72 72 72 68 57 38 31 27 29 39 49 50 49 38 34 51 101 128 128 125 119 112 92 58 47 55 60 68 72 75 77 80 80 85 92 59 32 51 53 53 57 60 64 62 88 89 70 66 69 70 72 71 68 57 60 50 38 31 30 32 34 52 92 116 123 126 126 122 117 113 103 69 49 51 57 64 71 73 73 73 75 83 91 57 31 51 51 54 62 69 67 72 76 66 60 63 66 68 71 71 68 68 70 68 59 54 44 53 93 119 123 119 118 119 120 120 115 106 95 73 56 50 66 73 78 77 77 72 75 85 91 58 31 50 54 68 74 88 72 65 58 54 58 62 61 60 59 58 57 57 60 58 56 59 86 109 111 106 102 94 92 91 91 98 100 101 90 51 54 56 80 89 91 92 86 79 79 87 90 59 30 54 62 73 98 94 79 53 48 49 53 52 47 46 44 43 44 46 47 49 53 72 88 95 92 85 74 68 65 66 65 66 64 59 52 36 52 65 90 100 101 101 96 87 87 91 93 59 34 58 69 91 115 105 78 39 35 31 36 36 38 38 37 35 36 38 40 44 52 58 63 65 66 56 62 70 55 73 64 47 25 18 20 22 50 72 95 107 107 103 102 98 92 92 93 56 35 60 78 98 120 115 62 25 18 14 15 22 29 48 52 45 65 56 60 101 98 72 82 123 143 113 126 130 107 121 107 71 43 70 72 38 52 78 97 107 106 105 104 102 96 95 93 56 35 59 75 98 118 114 47 40 53 39 26 37 49 66 71 75 91 96 112 144 149 149 146 158 157 149 152 148 124 130 114 97 96 104 122 84 62 84 100 106 108 103 103 101 96 95 92 53 35 58 75 97 114 106 46 59 69 63 54 50 53 67 70 81 102 113 118 134 139 147 144 147 148 136 131 121 94 95 101 104 105 118 133 116 73 83 96 105 102 97 99 96 94 92 87 51 36 59 70 89 107 93 48 68 71 69 63 55 53 58 63 69 83 78 98 115 118 123 118 127 128 97 90 106 120 113 104 103 116 127 143 131 85 89 98 100 96 96 97 93 89 87 82 52 35 57 65 82 101 87 55 69 72 69 67 60 56 64 79 92 103 98 93 93 91 85 80 95 108 121 132 125 116 100 98 107 122 132 146 141 114 94 99 98 94 95 94 92 89 83 82 51 35 56 62 77 97 84 61 68 74 70 67 70 68 61 67 77 99 113 120 123 125 129 126 133 134 130 126 108 99 99 102 116 122 138 145 146 132 101 101 97 95 96 97 92 83 79 88 48 34 56 60 73 94 90 69 71 71 71 69 71 69 63 57 63 77 92 97 98 100 98 97 96 95 94 92 90 93 102 112 118 128 142 147 150 129 111 103 97 95 94 91 85 79 117 89 49 34 56 59 72 88 93 79 80 78 76 71 69 66 65 63 58 58 67 71 76 80 81 81 82 80 83 84 92 101 106 110 121 135 146 149 142 122 111 102 97 96 91 86 78 86 159 80 50 34 58 61 75 86 84 85 91 97 84 75 70 64 64 63 61 58 57 59 62 67 72 71 72 75 82 90 95 100 102 116 131 140 148 145 127 122 114 106 98 93 87 79 84 94 93 77 48 34 56 63 78 94 74 69 80 96 93 80 71 65 61 60 58 59 60 62 67 68 70 76 77 80 83 88 94 102 112 125 138 146 149 137 129 125 114 102 95 88 77 76 107 90 55 129 43 32 55 61 79 97 90 61 69 86 96 91 79 72 68 66 63 60 61 64 65 66 68 74 77 81 88 96 106 116 126 135 144 146 143 131 131 120 106 97 92 79 72 99 115 85 46 93 81 31 52 58 76 98 100 69 65 78 93 97 93 86 81 76 76 74 77 76 77 78 81 88 92 100 106 112 122 128 137 143 148 145 135 130 126 112 101 95 83 71 92 113 115 77 47 47 46 32 51 55 66 88 99 73 67 72 92 103 105 99 99 94 93 93 94 99 101 103 103 107 110 117 123 123 129 136 140 149 146 137 129 125 116 105 95 83 70 80 105 117 118 74 48 45 32 31 51 53 58 72 90 73 69 71 85 102 109 110 112 107 107 108 109 109 111 113 114 117 121 126 130 134 139 141 143 144 140 133 123 116 105 94 81 67 73 99 114 118 118 71 49 46 32 29 49 52 56 61 70 68 67 70 78 97 112 118 115 116 109 110 115 114 115 116 122 124 127 133 136 137 137 142 142 138 131 122 113 106 95 83 70 67 91 111 119 122 116 69 51 46 29 25 47 51 54 56 59 62 63 65 71 87 106 118 117 111 108 107 111 114 116 117 120 121 123 127 130 134 134 138 136 129 119 111 103 93 81 70 64 84 107 115 122 123 117 64 52 50 30 25 41 48 52 55 56 57 59 60 65 74 94 109 120 116 111 112 114 117 116 117 115 113 111 118 122 128 131 131 126 117 107 100 90 77 68 61 80 101 113 119 123 123 116 59 51 54 30 32 41 40 47 52 54 55 57 57 60 63 75 97 112 116 114 117 119 122 119 113 109 108 111 114 118 122 123 121 115 105 96 85 74 64 58 76 97 109 116 122 124 123 113 53 50 58 32 35 53 40 40 45 50 54 56 56 58 59 63 76 95 109 108 109 111 110 108 106 102 98 104 108 109 110 111 108 99 90 79 69 60 58 73 93 108 113 118 122 122 124 110 50 48 61 35 22 35 31 24 24 28 32 34 35 35 36 36 39 48 58 63 64 63 61 59 60 58 57 61 61 61 63 62 58 53 48 42 36 33 42 54 64 70 71 73 73 75 77 67 34 30 37 23 