P2
48
60
255
47 76 80 85 89 88 89 91 95 94 97 98 97 95 94 86 89 89 90 94 95 96 96 94 95 95 93 94 94 96 93 94 92 91 90 90 88 89 86 83 83 77 74 71 65 62 62 38 75 123 130 138 139 140 143 147 151 154 153 157 157 161 159 156 152 151 151 153 154 156 155 153 152 152 152 151 154 153 149 150 152 146 145 145 144 146 140 136 133 124 120 111 105 101 100 62 75 123 130 136 138 142 146 145 148 148 152 158 159 161 160 157 154 151 148 148 149 152 156 153 153 154 154 151 150 149 150 154 152 149 146 145 146 140 137 135 131 125 118 112 106 99 100 61 75 125 129 135 137 141 146 147 149 154 157 159 162 164 165 158 158 154 149 149 150 149 153 153 151 155 156 153 155 154 154 153 153 147 146 145 145 140 136 137 132 126 116 112 103 99 101 62 75 124 126 131 136 139 144 146 149 153 154 157 163 165 165 159 157 157 152 151 151 153 155 154 154 155 156 156 157 156 156 153 152 148 141 138 139 137 136 133 127 124 115 107 105 102 103 61 74 123 123 131 135 140 146 146 148 153 153 155 161 160 162 162 161 158 156 154 152 157 157 154 155 155 154 154 152 156 150 147 147 145 139 135 134 135 136 133 128 125 117 111 105 99 100 61 75 121 125 128 135 139 139 144 145 148 146 150 154 154 154 155 153 154 153 152 150 155 152 153 151 150 152 153 150 150 145 143 142 145 137 130 130 132 131 123 123 119 113 111 103 96 99 60 72 118 122 123 125 126 127 133 132 135 131 134 139 141 146 146 143 146 146 149 149 151 153 155 151 151 147 147 143 136 132 134 128 126 117 112 104 110 102 107 106 105 109 107 100 97 96 60 67 111 117 114 105 102 91 90 90 91 90 88 87 103 116 124 130 135 137 140 146 148 148 154 149 146 141 137 133 123 106 89 79 72 67 57 60 69 75 78 78 84 92 101 98 92 95 56 65 105 93 90 89 87 92 77 66 67 65 56 57 58 70 83 99 116 126 134 141 144 143 148 143 139 132 123 116 103 81 66 58 55 49 49 60 64 68 74 83 85 78 77 79 85 87 57 56 86 90 94 93 88 88 91 89 82 84 75 74 75 68 69 75 93 109 123 130 139 140 139 138 132 123 114 100 84 80 76 75 80 85 93 94 99 97 88 84 82 80 72 70 75 84 55 59 88 88 100 104 108 113 121 132 134 131 123 115 106 98 92 88 91 99 109 119 127 130 133 129 121 112 98 86 81 84 93 106 115 126 132 135 133 128 117 102 98 86 67 65 77 85 55 59 94 89 103 110 119 131 143 150 146 145 142 132 129 120 112 104 97 97 106 115 124 132 134 134 123 109 97 89 92 110 123 130 135 139 140 146 145 142 131 123 115 93 80 76 82 85 55 58 96 99 105 115 121 129 135 137 137 129 119 110 112 115 120 115 106 105 113 123 140 151 152 145 131 110 100 95 103 120 123 114 112 113 115 123 128 127 125 119 112 98 91 87 89 91 52 63 102 106 109 112 112 107 92 71 57 44 39 43 62 71 87 102 102 108 119 125 141 158 156 150 132 112 103 93 99 108 89 72 65 47 41 38 46 59 77 88 93 94 93 93 92 87 51 70 107 102 103 91 76 66 52 44 60 56 65 57 76 69 84 92 98 113 122 124 139 150 151 143 127 105 104 98 92 86 78 70 69 59 90 43 72 46 48 52 64 70 86 92 97 96 58 75 113 103 87 63 59 49 82 62 55 34 47 66 111 112 82 104 120 120 120 122 135 148 148 138 122 107 105 102 103 92 74 101 115 64 45 37 57 61 76 51 47 57 67 84 94 98 61 72 113 98 85 68 68 77 98 93 64 65 69 85 120 115 100 99 121 124 116 121 134 146 146 138 122 103 101 103 104 91 92 111 111 82 74 69 68 91 89 75 62 63 72 84 95 101 63 74 112 102 98 91 83 85 93 107 102 98 97 105 111 114 113 116 118 115 113 120 130 146 147 138 120 102 95 94 101 103 105 110 117 112 105 98 97 95 97 92 86 86 91 89 97 107 65 79 119 114 115 108 106 108 105 103 108 116 117 116 112 111 111 111 113 111 113 120 128 143 142 135 118 105 97 98 96 99 103 106 114 118 120 125 126 121 114 110 101 100 99 99 105 110 64 80 127 123 120 114 113 119 123 128 129 124 120 118 116 118 121 115 115 114 118 120 124 140 144 129 115 102 99 100 103 101 110 114 118 118 115 115 117 118 118 112 103 108 107 107 113 111 66 78 128 129 126 121 122 119 116 119 122 123 126 128 127 127 126 124 120 118 121 118 120 134 140 130 115 101 101 102 108 111 115 121 120 125 128 127 128 126 123 119 117 119 118 116 115 109 64 78 130 132 134 135 137 131 134 139 140 137 135 137 136 136 139 130 122 119 122 117 123 133 139 129 113 102 102 106 105 119 129 131 125 128 134 136 136 131 129 127 130 127 123 116 113 111 64 78 127 130 138 138 137 134 142 146 149 148 145 146 144 148 149 131 127 124 119 117 119 130 135 126 114 102 100 105 108 120 129 143 146 141 138 136 137 134 129 130 130 127 125 117 113 108 63 79 125 134 138 141 140 140 146 145 149 147 150 157 154 154 146 128 126 125 120 118 118 129 131 129 113 103 99 102 106 113 132 144 149 145 144 143 139 134 133 127 127 128 126 116 111 104 61 77 129 135 139 143 142 145 144 144 151 151 158 159 153 156 142 125 125 121 119 117 119 130 132 126 116 105 99 98 104 108 122 142 146 149 148 148 143 137 133 132 129 128 126 115 111 107 63 78 131 135 139 143 148 147 152 147 147 151 155 153 154 155 139 120 123 117 118 116 118 124 131 127 115 109 102 99 99 103 119 132 138 143 148 146 149 140 137 133 136 131 124 110 107 107 63 78 128 133 138 144 145 154 148 150 149 152 154 154 153 148 134 124 116 114 116 114 113 123 130 125 113 103 101 98 98 95 116 130 138 147 150 149 149 142 140 136 134 129 124 115 108 104 61 74 127 132 132 138 148 150 150 149 150 158 159 155 150 142 137 118 112 113 114 114 116 137 141 136 117 103 101 103 98 93 102 115 133 141 145 149 141 143 141 139 135 130 124 116 108 106 61 76 126 128 133 142 145 147 149 150 158 161 157 153 143 139 127 113 111 113 114 120 130 163 151 150 142 109 100 101 97 95 93 98 117 130 138 145 144 144 141 139 137 133 123 114 106 104 60 73 126 124 136 141 147 149 149 152 153 155 151 144 132 124 113 110 113 113 114 114 117 125 131 130 125 105 94 97 98 93 90 84 96 119 131 138 142 140 141 142 137 134 124 113 108 103 60 76 125 128 133 140 148 147 148 151 153 151 146 136 124 109 112 110 112 108 106 99 103 107 111 109 106 95 89 90 93 93 86 84 86 104 123 133 135 140 137 136 136 131 122 114 106 100 59 74 123 127 133 140 141 142 149 148 147 145 138 124 113 106 113 111 110 106 90 71 74 89 90 84 80 69 46 51 79 87 89 88 85 92 109 122 129 131 133 131 130 124 117 110 106 101 59 73 120 128 129 135 138 142 147 140 143 135 133 118 106 110 119 121 102 85 49 42 64 76 74 69 75 78 66 44 56 82 98 97 91 92 105 118 127 133 127 131 127 117 116 111 103 100 61 71 119 124 129 131 138 139 142 138 136 131 129 118 110 118 120 121 116 89 64 76 99 109 104 96 97 91 82 74 81 94 100 104 102 99 110 119 126 128 128 127 122 117 116 107 104 100 60 73 120 123 126 131 137 138 142 135 137 134 126 117 120 126 123 122 120 114 106 103 114 114 104 104 110 107 88 81 88 95 103 108 111 108 109 119 120 122 125 121 119 115 112 103 100 96 59 71 118 123 124 130 134 136 138 138 136 135 130 124 125 122 118 118 114 111 111 112 121 121 110 109 116 114 98 91 92 96 102 107 109 108 112 119 124 123 122 120 118 114 110 102 97 96 60 70 117 120 124 130 135 138 138 137 134 134 132 129 123 117 112 114 110 110 112 122 126 121 110 109 117 119 108 99 95 93 100 106 99 105 114 115 125 124 119 116 117 111 106 99 96 94 59 71 113 120 125 130 135 137 140 139 135 135 129 121 116 114 115 114 113 118 124 130 133 131 115 109 123 130 120 105 103 100 99 99 96 101 110 108 121 120 117 116 115 111 103 97 96 97 59 70 117 120 125 128 134 136 139 138 138 133 124 117 120 116 117 118 124 127 127 133 136 136 123 118 124 134 123 114 110 103 99 95 95 99 108 107 115 119 118 117 112 106 101 98 96 99 59 70 115 120 123 125 133 137 136 137 134 125 113 123 128 120 123 129 130 130 121 122 118 123 120 118 118 117 112 114 113 110 104 102 98 105 113 109 110 122 116 118 114 106 100 99 98 99 61 70 116 119 122 124 128 133 135 132 128 125 122 127 129 123 122 116 107 107 108 108 112 110 110 111 105 103 101 99 96 93 93 96 98 105 113 113 109 120 118 119 114 105 99 98 98 99 59 69 119 120 121 127 131 129 133 134 129 126 124 127 120 114 103 95 93 89 87 79 86 89 94 95 91 83 77 76 78 80 78 81 84 92 108 114 115 123 118 118 114 109 101 99 98 100 57 70 114 117 118 125 125 128 131 130 129 125 124 119 103 95 91 81 62 79 101 104 125 106 94 91 96 107 82 80 57 57 60 61 63 77 102 114 119 127 118 116 109 106 101 103 99 94 58 67 115 117 117 122 122 125 131 131 129 120 117 112 92 74 73 61 52 99 125 114 136 128 123 123 124 116 90 90 64 71 74 77 94 105 112 117 126 128 119 110 109 100 99 99 100 96 58 70 115 117 114 118 120 120 130 131 128 113 114 118 113 103 94 90 83 97 97 99 111 136 107 106 101 101 92 94 97 95 99 110 114 117 119 128 134 131 122 110 109 100 99 100 99 94 56 70 116 115 117 114 118 119 128 137 134 121 118 121 123 120 114 107 111 112 113 114 112 112 112 111 115 116 110 101 102 98 104 109 110 110 120 127 129 127 117 108 103 98 102 98 97 97 56 70 113 109 112 116 116 119 127 136 136 130 127 123 120 123 117 119 114 113 116 121 121 121 121 116 119 117 116 107 107 99 104 107 107 109 117 122 124 125 114 103 98 98 100 99 98 95 56 70 116 117 117 117 116 120 126 130 130 128 128 121 118 120 117 117 121 118 121 121 122 121 118 114 111 112 108 106 102 98 106 106 108 109 114 113 116 120 111 104 99 97 99 104 95 91 54 70 110 115 117 115 117 120 123 127 123 126 126 123 119 120 121 123 117 119 114 112 103 97 94 86 89 94 99 104 103 104 102 105 107 111 107 112 116 117 108 102 101 100 99 100 95 91 53 66 110 113 117 113 112 119 122 124 117 117 123 121 122 126 123 122 118 112 105 101 92 92 90 86 92 98 97 102 102 107 105 108 110 108 106 109 113 111 102 98 100 101 99 96 97 89 52 64 110 109 117 116 116 115 117 115 116 113 117 121 124 128 126 121 122 115 107 106 101 96 96 97 102 106 105 105 107 109 111 111 109 104 104 106 108 107 100 98 100 100 98 96 91 86 51 60 106 107 112 112 112 109 112 110 110 112 109 115 120 130 133 131 126 124 121 117 113 109 109 110 109 114 115 116 118 115 117 114 104 101 104 105 101 102 96 97 101 101 94 93 90 84 48 58 101 106 110 114 115 110 112 111 108 107 111 114 118 130 133 134 133 132 130 126 120 117 117 117 120 123 126 124 125 122 121 113 100 101 99 102 99 96 95 100 95 97 92 85 85 77 49 55 95 101 112 109 111 113 110 108 109 108 112 113 115 126 133 136 138 137 133 134 136 137 135 135 131 129 129 124 130 129 123 105 102 99 97 98 96 93 93 97 93 88 89 85 79 76 54 63 87 96 107 108 110 108 108 108 112 112 107 110 119 128 138 138 140 142 138 140 140 139 136 138 133 127 129 130 132 127 116 108 98 98 94 95 95 93 93 94 91 86 85 78 78 86 56 67 96 90 101 105 109 110 109 106 108 107 110 115 122 130 137 142 141 133 131 137 143 143 144 144 138 130 126 126 128 121 116 108 101 93 94 92 93 91 90 93 88 83 78 77 85 91 57 71 108 95 93 95 100 106 104 101 103 105 109 110 120 129 133 134 137 128 130 140 143 142 145 145 137 131 121 126 122 119 113 104 93 89 88 89 93 91 89 89 86 83 77 82 90 96 57 71 115 107 95 96 96 97 98 101 101 101 106 110 118 126 129 135 131 123 134 140 134 133 132 136 133 128 115 120 121 115 107 102 92 85 84 86 88 91 88 86 87 83 84 92 98 99 60 44 73 72 65 62 59 59 59 61 61 62 63 69 72 74 80 80 78 77 86 85 81 78 82 84 83 78 73 74 76 70 64 59 54 52 53 52 54 55 57 53 55 53 53 59 62 61 39 