P2
48
60
255
34 59 61 62 64 65 66 68 70 73 77 78 81 82 82 80 81 80 80 81 82 80 78 77 76 77 77 76 75 76 76 76 76 76 75 72 69 66 64 62 61 58 57 55 51 46 44 27 56 96 98 101 102 104 108 110 113 119 124 128 129 129 129 127 126 127 128 130 133 131 128 124 125 125 125 124 122 121 119 122 122 121 121 118 112 105 102 98 97 95 93 88 81 74 70 43 54 94 98 101 102 103 107 109 114 119 121 126 128 130 126 124 124 123 123 126 128 128 125 123 125 125 126 122 122 120 120 120 121 121 119 117 109 102 100 96 96 96 94 90 82 73 69 43 54 93 98 100 101 104 106 111 115 119 121 124 128 130 130 128 126 122 122 122 123 125 124 125 127 130 128 123 120 120 120 120 120 120 119 115 108 103 100 99 99 99 95 91 84 73 70 43 52 93 96 101 103 105 108 111 114 119 122 124 126 132 133 131 126 124 122 121 123 125 123 124 129 130 130 124 122 119 119 121 122 122 119 115 109 104 103 100 102 100 98 90 84 76 70 42 52 92 97 102 105 105 107 110 114 118 120 122 123 128 132 131 129 124 121 122 123 122 122 123 129 131 130 126 122 122 123 124 122 122 118 113 109 106 107 104 107 102 99 91 83 76 68 42 53 92 97 102 109 108 109 110 112 117 118 118 120 120 126 129 130 125 118 118 118 119 119 120 124 124 124 121 120 120 120 120 117 120 118 113 110 108 109 109 109 106 99 91 84 78 69 40 52 92 96 103 109 109 110 111 111 113 114 115 116 118 118 118 118 119 117 115 115 116 117 118 120 119 117 117 116 113 111 112 112 114 114 110 107 107 109 109 106 102 96 89 83 77 69 41 51 89 93 95 94 99 100 101 105 106 109 110 111 112 110 110 111 112 110 110 112 115 113 114 114 113 114 110 108 107 105 101 105 108 104 99 94 97 100 97 91 87 85 85 80 77 68 41 51 86 87 79 77 75 77 81 78 81 84 92 95 100 101 103 104 103 104 105 108 112 111 109 108 109 109 107 103 96 87 82 85 82 81 76 76 77 72 70 71 67 65 72 76 74 70 40 50 79 68 63 65 62 54 56 55 57 62 64 65 73 80 83 91 92 92 96 102 105 105 103 101 102 100 94 92 84 69 66 59 54 52 56 54 52 49 51 56 53 55 59 63 69 67 40 49 72 63 60 56 55 55 54 53 47 48 47 54 48 56 70 73 80 82 88 97 100 101 98 97 98 95 89 84 76 67 60 49 45 44 44 47 47 51 60 60 58 57 55 57 60 65 41 47 67 64 70 78 87 90 95 95 88 76 64 55 52 56 61 68 73 78 86 98 109 114 109 108 107 95 84 76 66 59 55 50 48 53 63 71 79 84 87 88 82 73 68 60 59 60 39 48 73 69 81 90 96 101 102 100 93 83 72 63 56 53 57 62 65 73 87 103 116 124 117 117 116 98 79 68 61 56 51 46 48 52 55 57 69 82 88 87 84 80 75 66 64 66 42 49 80 81 89 92 91 81 64 54 51 47 45 49 54 58 58 61 69 77 89 98 108 119 118 115 109 90 78 70 64 54 53 51 46 33 40 20 31 30 39 51 69 78 77 74 70 69 45 58 91 89 89 85 63 40 41 40 40 25 18 22 34 55 47 58 67 78 90 95 103 114 115 111 102 83 80 75 70 59 51 56 77 51 27 21 26 40 48 38 34 52 74 78 76 76 48 61 99 96 90 72 54 57 60 72 74 51 36 40 71 84 62 51 59 81 95 93 99 111 111 109 100 81 82 77 75 58 63 76 89 94 63 50 65 82 79 71 68 66 62 74 78 83 52 60 97 94 89 94 95 99 100 97 93 89 85 81 85 86 80 78 81 90 98 94 98 111 112 106 102 82 81 78 73 70 75 85 94 94 88 86 87 93 97 97 96 95 93 81 75 75 49 62 98 97 104 106 103 100 104 107 108 110 106 102 99 96 88 83 89 93 101 92 100 110 108 107 99 84 79 82 76 67 75 90 100 107 106 109 111 110 108 104 100 100 101 99 93 91 54 60 99 106 105 105 103 101 100 99 103 108 107 103 99 96 93 93 95 96 96 92 100 110 110 105 95 84 77 80 81 78 79 89 98 105 106 108 111 108 105 99 100 104 101 101 101 89 54 60 100 101 106 110 109 110 109 106 107 109 108 107 103 105 104 102 96 96 94 94 99 105 108 103 92 81 79 76 80 84 87 92 98 97 99 102 103 101 102 105 107 109 107 103 96 91 53 57 95 99 106 109 111 110 107 111 110 110 112 111 108 108 106 102 98 94 93 92 97 106 107 103 90 80 79 78 79 81 91 96 99 104 108 107 108 107 106 109 110 110 108 105 96 88 52 57 96 100 105 110 113 112 112 114 114 115 115 117 114 111 105 100 94 94 94 92 97 107 107 101 90 82 79 79 79 80 88 96 102 108 112 113 111 110 107 113 111 110 106 102 96 88 51 57 96 101 105 107 111 116 117 119 117 116 115 116 115 111 104 99 97 95 92 91 98 106 105 100 90 82 80 80 81 85 90 93 102 107 111 112 113 116 116 114 113 107 106 102 95 91 51 57 92 102 108 111 115 120 123 122 122 120 118 116 115 112 105 100 97 96 93 90 97 105 107 99 91 80 78 81 82 85 90 98 107 112 113 115 116 116 117 114 112 110 105 100 97 88 51 56 92 101 108 111 118 125 128 126 124 120 117 116 114 110 104 97 93 93 92 93 101 108 107 103 92 80 77 79 80 78 84 92 103 110 114 115 117 117 115 117 117 115 107 100 97 87 50 53 93 101 106 110 121 130 132 129 125 119 114 109 104 97 88 85 87 90 91 94 103 110 106 103 96 83 77 76 77 77 76 80 87 98 107 112 114 116 118 120 123 124 118 107 100 92 51 54 92 97 105 113 121 129 131 130 119 113 106 98 89 80 83 86 88 89 90 94 103 112 109 105 99 87 77 73 76 81 79 72 78 84 93 105 108 113 112 118 123 125 122 110 100 91 52 54 93 94 101 108 118 123 127 119 110 106 98 87 77 81 86 91 92 89 89 95 108 120 109 109 106 90 78 74 78 82 81 74 75 85 85 92 102 108 109 113 113 117 117 107 99 88 51 54 90 90 97 102 109 115 116 111 104 98 88 76 77 88 91 94 93 91 91 96 120 135 110 112 114 92 82 78 80 81 82 77 75 80 88 82 90 99 104 107 107 106 107 102 92 82 48 52 88 91 93 100 105 109 109 108 100 91 78 75 88 85 84 88 88 91 91 95 111 119 105 108 117 93 81 78 76 72 72 71 67 73 80 85 87 94 100 99 102 102 99 93 89 83 47 51 88 92 91 97 101 105 104 100 88 82 75 83 84 78 79 71 56 68 85 90 99 107 102 101 100 85 73 68 48 38 51 60 60 67 68 82 88 91 89 94 97 97 92 85 85 80 47 52 86 90 90 94 100 102 98 90 79 75 75 76 76 73 73 65 63 66 66 77 86 95 93 90 88 75 60 50 50 45 55 61 57 59 58 61 71 82 83 86 91 92 89 88 83 78 46 51 84 88 92 93 94 94 86 80 72 66 70 69 69 63 63 56 62 62 65 66 73 82 80 79 76 60 49 52 48 44 63 64 55 57 60 59 57 64 72 84 83 85 87 84 80 76 46 49 84 85 91 91 90 84 73 68 55 59 55 59 65 63 59 61 60 66 66 65 62 66 64 62 54 43 51 50 58 57 58 62 58 58 65 62 60 56 60 81 76 79 81 80 76 74 46 48 84 86 90 89 85 75 60 56 51 50 51 59 60 68 71 68 73 83 81 75 59 56 56 55 46 52 55 64 60 63 64 68 63 59 69 56 61 59 62 77 69 70 77 82 78 74 46 48 81 87 90 89 83 68 65 53 52 45 56 54 60 74 77 69 80 82 90 85 74 66 67 66 60 72 79 71 72 70 75 72 65 67 68 60 57 63 56 67 69 62 70 81 81 76 48 51 79 82 79 86 81 71 66 55 53 50 67 62 67 74 74 77 84 86 97 82 77 81 82 82 80 77 93 83 79 68 80 74 66 77 74 72 63 74 60 62 70 64 65 76 84 78 47 52 79 82 73 81 80 70 61 67 55 59 62 68 66 67 72 74 82 85 94 81 71 88 85 88 81 67 79 90 76 67 74 61 62 66 77 63 59 70 56 66 70 72 70 80 85 77 45 53 80 81 84 88 82 71 59 65 52 51 60 52 64 64 67 65 79 88 77 72 72 83 81 86 74 61 74 70 75 60 61 55 58 51 69 51 53 47 44 56 74 80 72 88 85 77 44 52 83 77 84 86 88 79 65 60 50 53 47 47 53 54 61 59 70 81 63 61 68 73 73 72 64 63 72 60 62 61 55 54 49 47 48 42 46 36 37 40 63 77 77 89 84 76 44 50 83 79 81 88 92 83 64 59 54 44 57 67 64 52 59 59 57 64 61 64 66 70 70 66 66 70 69 67 61 57 55 60 61 58 58 64 69 63 58 49 58 75 82 87 82 75 42 50 82 81 77 84 90 89 78 63 61 72 83 86 84 77 73 76 72 74 78 78 75 76 73 68 70 75 78 83 84 82 79 75 67 62 65 73 78 82 81 78 70 82 89 84 77 72 42 50 80 80 76 80 87 87 87 66 82 88 94 93 87 83 76 74 75 80 89 97 98 92 89 90 93 91 89 92 92 88 78 69 63 66 72 76 84 89 87 84 83 84 88 83 73 68 40 87 80 78 77 75 79 85 87 83 83 88 92 93 92 85 82 78 75 74 79 87 89 87 85 88 87 83 84 84 82 77 69 66 69 71 74 79 84 86 85 85 86 86 85 78 71 66 40 112 109 76 75 73 74 78 83 81 82 85 91 92 92 90 84 86 85 83 82 82 82 81 79 80 80 78 79 78 77 77 76 76 74 73 74 81 85 82 82 85 89 87 79 70 67 64 39 113 164 79 74 74 73 74 78 79 81 86 89 88 93 88 85 84 86 90 87 88 89 87 88 88 85 85 85 86 83 81 78 76 74 74 77 81 83 80 82 82 77 78 71 67 63 63 40 113 159 85 73 75 72 70 74 76 82 83 85 86 89 87 86 84 84 86 86 88 85 83 81 80 75 77 82 84 81 79 75 73 74 76 78 80 80 78 79 80 77 78 65 63 60 62 40 111 128 89 79 73 73 71 74 77 78 81 81 83 86 87 85 86 83 83 85 86 88 86 88 85 84 86 87 82 82 77 75 75 78 78 78 79 77 76 77 74 74 71 63 61 62 62 39 96 116 83 89 74 73 74 74 74 78 79 81 80 80 86 85 84 84 84 83 83 83 85 86 84 83 86 82 79 79 81 81 80 79 81 78 77 76 75 75 73 72 66 62 61 63 62 41 69 116 77 90 85 74 75 73 75 75 76 79 78 77 80 84 85 85 88 88 86 82 84 82 82 82 82 83 83 81 82 81 80 82 85 85 81 76 73 71 70 67 63 61 60 64 65 43 60 119 74 91 91 82 72 72 75 75 73 74 79 81 80 81 86 87 86 89 87 88 89 85 84 84 83 85 85 86 87 82 81 82 84 85 78 74 71 68 67 63 62 61 61 63 73 42 64 116 83 88 89 89 78 73 75 75 73 73 78 84 85 87 87 89 89 92 93 94 95 95 93 92 90 93 96 90 90 90 90 87 85 82 80 71 71 71 67 63 64 62 63 72 74 34 63 102 112 78 90 90 86 76 72 73 74 72 77 80 82 85 85 90 93 95 99 103 103 100 100 101 100 98 98 99 96 96 92 89 87 81 77 72 73 70 66 65 65 62 69 76 69 31 60 106 128 80 88 89 89 82 73 73 72 74 76 81 81 81 85 87 92 93 95 101 102 103 106 105 100 101 103 102 99 95 93 90 86 82 79 72 70 64 64 65 64 67 75 77 60 52 70 113 106 119 75 91 91 84 80 72 72 75 75 79 78 80 84 86 89 91 97 98 98 104 107 105 103 103 104 101 96 91 88 88 83 82 78 74 68 63 63 65 68 73 76 72 66 73 68 103 115 124 101 76 91 89 85 77 72 74 75 76 80 78 83 85 88 91 94 99 100 103 103 102 103 104 101 97 91 87 86 85 82 81 76 71 67 65 65 69 75 75 75 69 100 69 59 120 115 105 135 89 80 89 90 84 75 71 72 76 80 79 80 85 83 88 90 94 98 98 99 96 98 96 94 92 85 83 84 79 76 79 72 69 67 65 70 77 76 75 76 79 117 48 77 107 108 125 106 134 89 89 88 88 78 73 72 73 76 78 78 81 80 85 85 90 92 92 93 93 90 90 89 86 81 80 81 75 75 73 69 67 67 68 75 78 76 76 76 114 91 70 43 67 80 62 78 70 79 59 54 55 52 47 45 45 45 49 50 50 48 50 51 53 55 53 53 52 51 51 52 49 49 48 44 44 43 42 43 42 43 46 48 47 45 56 56 71 59 43 