P2
48
60
255
22 30 32 33 41 60 74 79 81 85 86 88 92 95 97 99 99 97 97 96 94 95 95 96 97 99 100 98 100 101 103 103 103 102 99 98 96 92 87 87 81 79 78 76 72 64 39 17 30 49 52 54 69 101 121 131 132 133 141 146 151 156 159 161 161 160 159 157 158 156 155 155 154 157 159 160 160 164 166 169 170 166 162 158 153 148 143 140 134 129 127 124 116 106 70 29 21 46 51 59 74 108 120 129 133 135 140 146 151 156 159 160 159 160 161 162 159 159 157 157 159 157 159 157 161 164 165 168 168 162 161 159 152 147 143 139 135 132 128 124 118 107 78 33 21 40 52 62 83 116 124 130 134 135 140 146 151 158 159 158 160 161 159 161 159 157 155 153 155 155 157 156 160 161 167 168 166 162 161 158 153 149 142 140 138 135 129 124 118 110 86 37 23 42 60 70 95 120 130 132 134 135 141 145 148 153 155 153 152 157 154 158 160 161 155 156 157 157 156 156 157 156 160 163 160 161 157 156 154 153 148 145 143 137 131 126 118 113 92 39 35 71 85 97 116 127 132 135 134 137 141 144 146 149 151 149 147 148 149 156 160 160 157 156 156 157 155 151 150 154 155 156 154 158 154 154 157 150 149 147 143 139 132 126 120 113 97 42 62 110 119 125 128 131 133 135 135 137 139 145 144 144 148 146 145 144 145 146 149 149 151 153 154 152 153 147 148 151 150 149 150 152 152 153 155 150 146 146 141 139 134 126 118 113 100 44 69 115 120 129 126 128 129 129 132 136 139 139 137 139 141 142 138 139 140 139 144 144 145 151 154 148 147 147 146 146 144 142 143 145 149 147 143 137 133 133 128 127 131 128 117 114 105 47 69 114 121 120 111 106 106 107 105 104 104 105 106 112 114 117 123 131 135 136 142 141 142 145 149 146 140 137 132 128 113 115 113 110 114 110 103 98 96 98 102 105 110 119 118 114 107 52 68 110 100 93 95 88 76 70 69 68 67 70 69 74 82 89 98 114 128 135 138 141 139 142 146 141 140 131 115 94 87 85 74 68 62 63 68 72 81 90 89 90 91 96 102 107 110 58 58 80 75 79 81 80 78 71 65 63 63 59 59 59 64 74 87 104 116 129 136 141 138 140 145 136 133 120 96 81 79 74 67 65 67 66 69 77 85 88 88 92 90 87 87 91 103 62 48 72 79 93 105 111 112 113 107 99 88 78 72 70 72 77 81 92 109 122 132 141 141 139 143 140 131 116 94 84 82 78 77 80 89 102 115 125 130 125 116 112 110 102 97 98 99 64 57 96 102 109 120 128 134 137 138 134 125 111 103 97 87 80 81 89 100 115 125 137 143 146 148 143 132 116 100 89 86 84 84 82 87 98 108 121 126 128 127 124 117 110 107 108 107 65 66 107 112 114 116 117 113 91 72 59 49 52 64 77 93 89 82 85 96 107 122 137 151 155 158 149 132 112 99 87 81 68 53 36 43 27 34 31 42 68 97 113 113 109 110 112 112 66 65 104 106 99 76 45 32 26 34 21 57 43 65 78 75 81 83 84 89 102 121 139 155 159 160 146 125 107 93 80 77 72 69 43 32 22 34 33 54 43 39 60 91 110 110 114 114 67 63 100 85 51 38 50 48 42 35 28 49 71 123 76 85 92 82 86 91 99 116 136 156 163 160 142 121 103 94 95 87 85 115 69 59 46 58 56 83 73 65 65 67 93 104 112 113 69 53 75 57 64 78 81 88 72 76 68 73 100 127 106 86 96 105 95 93 100 114 132 151 158 158 141 118 104 108 113 101 108 111 106 98 87 81 80 80 102 107 95 83 85 97 111 118 71 53 85 90 95 98 105 102 103 95 92 92 99 109 116 119 122 122 110 102 105 114 129 141 154 150 139 120 107 119 131 130 123 119 118 118 112 117 124 122 117 120 111 113 117 116 120 121 73 74 121 114 106 109 113 119 124 126 122 122 117 113 110 113 121 122 109 107 110 113 127 139 151 152 142 123 112 113 119 116 111 107 109 112 111 115 116 113 115 113 117 122 127 128 126 124 74 80 124 120 113 111 111 114 114 114 110 109 107 109 114 117 119 113 109 106 109 113 128 144 152 152 144 126 116 114 117 119 122 120 116 111 110 108 110 111 113 122 128 132 140 135 128 124 74 77 128 127 125 125 124 122 120 120 122 125 126 126 127 127 123 116 109 107 110 111 129 141 149 149 140 122 118 118 121 129 133 133 133 136 136 137 137 137 140 141 141 142 136 134 130 124 74 77 128 131 134 132 132 135 138 140 142 141 139 135 132 129 121 120 109 109 111 112 126 140 147 149 137 121 119 119 122 131 141 141 141 142 143 144 145 144 143 145 142 139 136 131 128 122 73 73 126 128 133 139 137 142 142 143 145 142 141 140 135 134 126 117 111 109 110 114 127 140 148 150 134 120 121 120 122 132 141 143 144 146 145 148 144 145 145 146 143 137 131 127 125 122 71 73 120 127 131 140 142 148 145 146 145 142 142 141 138 138 126 113 107 108 108 111 129 142 149 148 134 120 120 119 119 129 141 144 148 151 151 152 148 149 151 147 143 138 131 128 124 119 71 70 119 124 135 142 145 147 149 149 146 147 144 145 144 137 122 112 105 107 107 113 128 144 148 148 134 124 122 118 117 126 140 153 153 152 154 156 153 156 154 151 146 138 133 127 123 116 69 70 116 123 133 142 146 147 151 150 151 152 149 151 145 130 117 107 104 106 108 119 129 143 148 146 138 129 120 113 113 124 140 153 157 155 154 155 154 157 155 150 144 137 131 123 120 113 67 68 113 123 129 138 143 145 147 151 153 154 151 144 142 127 113 104 101 102 110 124 133 143 148 146 143 135 122 108 108 123 140 149 153 152 152 154 155 155 151 146 139 135 128 121 118 113 67 68 113 120 127 133 136 140 143 147 149 149 145 141 133 122 106 95 98 102 112 128 138 145 148 148 145 140 124 113 110 117 135 143 149 153 151 152 153 151 147 144 137 132 125 120 114 109 66 67 111 116 124 128 132 134 139 141 142 143 140 133 123 112 101 97 103 104 113 129 146 154 151 152 150 140 123 114 118 112 127 138 143 148 148 148 147 144 140 140 134 130 123 116 111 108 65 68 109 115 120 124 128 129 134 139 141 141 135 125 116 104 97 100 103 106 114 127 159 164 159 160 160 139 123 114 116 112 123 131 136 142 144 142 140 138 137 134 131 127 121 114 111 108 65 66 110 115 118 125 125 128 133 136 137 137 129 117 110 104 95 102 102 103 113 127 146 154 146 149 154 135 118 109 111 110 117 128 129 135 137 139 138 139 136 129 126 123 119 113 110 110 66 68 110 116 117 125 126 128 131 134 135 131 121 109 109 104 99 101 102 93 94 110 128 133 134 133 133 117 97 97 104 111 119 125 125 129 133 135 135 135 133 128 124 121 118 113 112 111 66 67 111 112 118 122 126 129 133 134 133 126 113 107 114 108 99 93 92 75 58 85 105 113 112 114 110 79 58 80 99 118 121 125 123 123 129 131 132 129 131 129 126 121 118 114 114 110 66 69 114 115 118 124 126 129 133 132 126 116 113 117 122 122 118 108 76 46 47 55 76 82 80 86 93 84 74 92 118 120 121 124 124 124 127 130 129 130 129 127 125 119 116 115 114 112 66 70 114 118 119 121 125 130 130 125 116 115 118 119 120 119 118 120 114 96 92 88 79 70 75 91 100 104 108 116 119 118 118 120 122 121 123 125 124 124 124 124 120 116 116 117 115 112 66 71 116 117 117 116 117 125 127 123 119 122 116 114 114 113 115 117 115 114 113 111 113 101 91 94 102 109 112 116 116 115 118 120 120 114 112 116 118 120 117 118 117 115 115 117 114 111 66 70 116 115 114 112 113 119 122 122 116 115 110 112 114 114 117 119 119 120 123 129 131 128 116 106 108 113 114 116 116 114 118 118 118 114 107 106 111 116 116 115 120 119 116 119 115 111 65 70 115 115 112 114 115 118 118 109 111 114 116 116 117 119 120 123 128 129 132 135 137 134 132 125 122 124 125 122 120 118 118 117 119 119 113 109 110 115 116 114 122 122 119 119 115 110 64 70 116 113 113 115 113 115 111 111 118 121 121 120 121 121 120 126 129 130 134 137 138 137 136 136 135 137 134 129 125 121 116 112 110 111 117 114 108 116 115 120 131 125 119 118 113 107 57 71 120 112 112 118 110 116 120 115 113 113 113 114 116 119 123 125 124 127 133 136 136 141 140 140 139 138 134 130 127 120 115 112 105 102 108 116 114 123 117 125 131 124 119 115 110 101 39 71 123 113 113 122 116 118 114 97 90 91 96 101 103 107 114 117 117 120 121 124 127 137 136 135 132 122 116 112 110 104 101 101 95 89 95 109 114 129 122 129 127 120 115 112 106 83 26 69 120 116 114 127 123 119 118 85 60 65 70 75 77 79 78 82 80 80 82 83 83 89 97 94 84 78 78 78 77 75 74 77 84 73 77 103 122 126 123 129 122 114 111 107 98 57 23 66 116 118 111 126 130 123 114 81 81 95 91 85 80 78 77 76 74 70 74 68 64 63 67 70 77 73 73 80 84 86 93 102 108 106 105 121 127 118 125 122 114 111 105 101 76 45 24 62 106 116 106 115 132 128 122 118 117 113 107 103 105 106 109 118 125 113 105 112 113 106 106 110 114 106 111 116 110 106 105 111 117 123 127 127 116 117 115 108 105 102 99 85 48 43 24 60 96 104 102 101 119 134 140 140 135 124 112 106 104 104 108 110 114 127 129 131 130 135 129 127 130 128 121 113 103 105 109 117 124 131 129 118 110 109 102 97 97 95 86 54 40 42 25 58 92 93 96 94 98 116 124 131 136 127 117 106 104 105 107 109 109 112 120 124 130 129 130 133 125 113 111 109 100 106 111 119 127 127 118 108 101 94 91 90 91 84 56 46 38 39 26 55 90 88 87 90 95 99 108 118 124 125 118 110 104 103 106 110 112 113 114 113 113 115 115 114 114 111 108 107 103 106 110 119 121 117 111 101 92 87 87 86 76 47 46 44 39 36 24 49 82 86 86 85 88 98 102 103 110 118 115 110 102 100 98 100 105 108 111 111 110 106 107 108 108 105 102 100 101 105 110 117 118 112 101 93 89 87 83 66 30 43 43 43 41 38 20 44 75 78 80 83 84 86 93 100 103 110 114 111 104 97 93 93 95 98 100 101 103 104 102 97 95 94 94 97 103 106 111 115 112 102 95 92 88 84 66 24 23 40 38 40 43 41 23 44 68 73 79 81 86 89 93 99 104 106 112 113 108 101 94 90 90 88 87 88 90 90 87 89 91 94 97 101 107 113 117 114 105 98 94 90 84 89 49 22 26 36 35 36 39 39 25 52 71 67 71 80 83 87 90 93 100 105 111 114 116 112 107 102 101 101 99 96 96 97 99 104 104 104 107 111 114 118 117 111 100 93 88 85 98 93 35 26 28 33 33 34 35 37 25 61 84 68 67 70 78 82 84 88 94 102 107 113 120 120 118 112 111 118 124 130 130 132 131 130 127 126 123 122 123 120 113 102 92 86 93 105 103 84 29 27 29 31 34 31 34 39 25 65 98 83 69 66 69 76 80 83 87 94 102 107 116 121 121 120 116 120 128 135 136 135 133 128 127 127 127 126 121 113 102 92 86 99 110 107 99 74 26 28 29 30 35 36 36 41 28 67 106 97 84 71 66 69 74 79 80 84 94 102 109 119 122 124 120 116 121 130 129 130 131 126 125 127 124 118 111 101 91 88 105 109 110 106 97 59 24 28 29 29 34 34 41 46 30 68 110 105 98 88 75 68 67 73 76 78 83 90 98 107 116 121 123 119 120 124 124 125 124 122 119 115 112 108 100 91 91 109 112 111 109 105 93 45 27 27 30 28 33 35 39 46 29 69 112 109 106 101 93 82 73 67 71 76 77 80 87 91 102 108 111 112 111 113 113 111 111 108 104 100 100 96 89 95 110 112 112 111 107 102 83 48 31 29 31 27 31 32 38 43 29 70 113 111 110 107 105 98 90 81 71 67 71 75 77 80 85 90 95 97 95 93 89 88 86 84 86 88 87 90 102 109 112 114 113 110 106 97 73 33 22 26 34 30 29 31 33 42 30 68 113 113 111 110 108 108 102 97 89 77 66 63 67 72 74 75 75 75 76 75 74 76 74 75 79 86 97 106 110 113 114 113 111 106 104 94 63 32 22 19 34 31 33 32 30 38 26 70 111 114 116 114 111 109 109 107 102 94 83 71 61 58 62 66 69 70 70 69 67 67 72 82 96 103 107 107 109 113 115 111 109 106 102 88 56 27 24 22 37 36 31 38 32 35 25 41 69 70 72 73 70 69 68 69 66 65 58 51 44 39 36 35 34 34 34 34 36 42 52 62 65 65 66 67 69 71 70 65 67 66 62 51 31 15 14 16 23 25 22 24 23 22 16 