P2
48
60
255
9 17 30 43 56 61 65 71 75 78 80 83 86 89 92 90 92 93 90 90 89 91 90 88 80 62 52 50 37 34 40 36 34 57 64 66 72 71 74 76 72 71 65 63 58 50 45 24 16 34 61 82 97 106 114 123 128 130 134 139 144 148 149 153 151 154 152 146 143 143 141 134 137 138 119 99 80 86 84 81 109 118 129 132 134 134 134 133 132 127 110 109 101 88 77 46 18 49 77 89 100 112 116 127 131 134 140 144 147 152 153 153 153 153 153 146 146 149 149 149 150 145 134 120 114 118 122 136 134 146 151 148 148 150 149 147 143 135 123 115 103 94 87 50 24 65 88 98 104 119 128 130 134 140 142 146 151 157 158 155 153 154 154 154 150 150 153 155 153 150 143 142 144 145 145 150 152 155 160 160 161 160 156 150 148 143 132 125 111 96 94 53 34 86 91 101 113 129 132 132 138 143 148 154 161 161 157 152 151 152 155 153 152 148 150 155 155 155 148 149 150 148 143 150 153 156 156 161 156 149 143 135 131 125 123 120 119 106 99 57 49 92 92 104 113 127 119 121 131 137 146 154 157 156 152 149 145 145 142 150 149 147 151 154 152 151 147 142 140 140 141 139 134 122 117 107 99 95 102 103 104 104 100 103 116 111 101 62 56 92 97 98 97 107 96 99 101 104 109 112 117 124 132 135 134 136 132 138 145 146 146 148 148 146 141 132 129 127 123 110 94 74 67 64 65 71 76 86 93 96 94 96 102 110 103 63 59 95 97 91 94 102 91 89 85 78 71 71 77 85 90 103 113 121 124 126 132 136 135 141 143 141 138 129 123 115 109 99 87 81 72 66 63 68 75 86 99 103 105 104 99 94 99 63 62 96 87 90 102 97 95 84 72 67 64 66 66 68 78 90 98 109 112 116 126 134 135 137 139 137 135 129 120 112 105 102 98 93 88 88 99 107 120 124 126 123 127 122 112 104 98 57 63 92 90 100 108 108 107 113 108 102 92 87 85 85 88 93 98 102 105 114 126 133 133 135 136 134 132 128 120 109 105 105 102 105 106 117 130 140 142 144 140 135 132 129 124 116 107 64 61 102 105 115 118 122 128 135 137 132 123 115 104 100 98 96 99 100 105 116 124 131 137 137 130 137 133 126 117 109 103 103 109 113 124 133 138 139 141 140 137 135 131 130 127 124 114 68 65 104 110 117 122 123 129 134 136 136 137 132 125 117 107 102 98 98 105 113 125 133 139 142 144 142 133 124 113 106 103 108 115 122 128 135 137 136 136 134 133 129 129 128 123 123 116 68 68 109 113 116 114 119 124 128 132 133 135 135 131 128 118 107 99 97 101 108 123 137 148 149 147 146 136 119 105 98 104 109 113 119 126 131 131 128 131 134 128 124 121 121 118 118 115 69 68 109 112 110 110 113 116 120 127 130 130 130 129 124 120 113 104 97 95 104 124 139 148 150 151 145 133 113 99 99 107 107 103 107 110 117 120 118 123 125 119 111 112 113 116 117 116 69 68 109 109 108 106 107 109 115 119 119 118 115 110 104 101 105 107 101 95 103 120 136 147 149 152 148 132 114 103 108 112 99 90 84 85 93 99 102 110 112 110 106 104 105 108 112 113 69 68 109 107 106 102 99 101 106 110 112 109 104 97 85 77 73 92 114 104 105 120 136 145 149 154 146 130 117 115 122 115 60 56 62 68 75 88 95 92 82 85 91 100 105 109 107 109 68 69 110 104 101 97 95 90 83 81 86 88 82 73 65 55 51 56 121 112 108 122 136 147 151 150 148 137 122 118 128 113 71 57 50 52 46 35 39 53 66 65 73 82 91 100 107 109 68 68 110 103 98 85 74 66 60 57 51 45 47 54 59 74 97 112 120 112 115 126 141 152 152 155 150 136 129 126 125 129 122 101 90 89 87 82 76 66 63 54 49 63 68 83 97 107 70 68 108 94 80 64 56 51 55 60 74 82 93 97 97 104 118 124 123 114 119 132 143 147 150 156 154 140 133 130 127 132 122 116 113 110 110 111 112 110 99 93 92 105 103 101 105 111 73 68 103 95 93 97 96 99 99 100 113 113 115 121 120 120 124 128 123 116 126 134 141 145 147 155 153 145 135 133 130 135 134 128 126 125 124 124 125 127 125 126 126 124 120 124 126 127 81 77 118 119 118 123 126 130 128 129 131 131 130 132 130 129 132 133 127 124 131 132 142 146 148 151 150 145 138 133 135 137 141 139 134 132 131 131 132 135 139 139 140 137 134 134 134 135 81 77 127 128 131 134 138 141 141 140 139 136 133 136 136 138 139 134 129 129 131 130 137 146 148 147 146 143 139 136 140 142 145 145 138 140 138 140 141 144 144 145 143 144 142 142 140 137 84 78 131 135 137 143 143 144 142 141 142 138 139 141 145 146 142 134 126 128 123 131 135 142 142 142 138 136 139 146 140 141 144 146 145 145 142 145 146 148 151 151 150 151 151 149 148 145 87 80 136 139 140 142 139 149 147 146 143 144 145 144 147 148 141 133 127 122 121 131 138 142 142 141 133 132 134 143 139 138 144 147 148 151 149 149 147 149 151 154 153 155 154 150 147 147 88 83 138 137 140 146 148 150 149 147 144 147 147 147 149 144 139 127 122 118 122 133 142 145 145 139 132 129 128 132 139 132 137 148 146 149 151 145 147 148 153 154 158 156 153 156 151 150 89 84 137 142 143 148 152 151 150 150 149 149 146 149 148 146 140 128 115 117 126 139 144 144 145 141 135 126 120 120 131 143 142 146 146 145 152 152 154 152 157 158 158 162 159 160 153 149 89 83 135 141 147 151 154 151 149 148 150 150 148 150 146 146 134 121 110 119 134 146 152 151 148 146 139 129 118 114 117 131 140 146 148 150 153 152 153 151 157 157 159 161 162 159 154 148 88 82 135 137 143 147 155 155 152 148 148 146 146 150 149 139 123 109 111 124 142 158 156 153 152 153 149 135 135 135 122 114 126 139 146 151 150 151 146 145 153 150 154 158 161 157 154 146 87 79 133 135 144 150 152 153 152 153 151 151 147 143 143 129 112 113 116 121 131 149 149 149 147 146 138 135 142 149 139 123 116 129 139 145 149 147 148 150 147 151 154 155 157 156 149 143 85 76 136 135 143 151 150 152 150 152 151 146 147 139 127 106 110 124 118 109 111 121 129 130 130 125 117 117 126 136 143 134 117 112 133 140 144 148 149 150 151 153 150 153 147 150 147 141 84 79 133 136 144 146 148 146 151 152 153 150 137 133 115 98 118 123 107 86 88 102 108 114 115 105 73 51 48 74 114 126 118 98 119 136 140 142 142 146 150 151 150 145 146 146 142 133 81 77 130 136 140 143 142 147 145 146 148 148 138 122 100 98 114 98 49 25 23 55 95 97 96 67 26 17 18 25 82 110 108 94 106 129 139 138 142 144 146 146 149 149 142 137 137 128 79 75 129 134 137 142 144 151 150 147 149 142 129 112 94 97 105 86 37 23 19 45 78 82 86 83 77 33 26 53 96 101 95 92 108 129 137 141 142 139 143 141 143 143 137 136 132 125 75 75 124 128 132 138 143 146 148 147 146 137 126 108 102 93 95 89 59 49 44 83 93 87 91 101 109 104 107 119 109 94 91 105 126 134 135 138 139 141 143 140 136 135 134 132 128 120 73 74 124 126 129 132 139 141 140 143 140 139 128 117 112 99 84 84 92 102 101 106 108 108 111 123 129 131 127 124 119 120 124 134 141 138 134 134 136 137 138 136 132 122 127 124 120 122 71 72 119 124 125 129 134 141 144 144 140 137 133 134 131 123 113 109 109 114 119 125 131 129 122 135 139 134 132 132 132 138 137 144 143 141 139 133 134 134 134 133 131 117 124 125 119 121 72 70 119 120 125 128 132 136 141 142 140 137 135 137 135 132 133 134 128 128 132 137 141 137 130 140 142 136 136 138 140 139 136 138 139 139 140 136 131 131 128 128 129 129 121 119 122 121 71 70 115 121 127 130 132 138 138 139 138 131 134 135 134 137 137 136 135 130 134 139 143 140 136 143 140 138 136 138 139 136 128 126 131 132 132 133 130 130 129 131 131 127 124 123 119 116 70 69 115 119 122 128 131 132 135 133 134 133 134 134 134 135 135 136 135 133 132 132 139 143 138 139 137 135 134 135 138 135 130 126 129 127 128 131 128 129 126 127 127 128 124 119 115 111 69 69 113 115 118 115 126 128 128 129 131 133 133 128 129 131 134 136 131 132 128 130 134 134 132 136 140 133 133 133 133 132 131 130 126 121 121 124 129 126 126 124 125 125 123 123 119 115 70 69 112 114 117 119 122 125 126 127 126 130 127 124 126 131 133 129 127 126 118 115 117 122 126 122 113 112 117 126 130 128 129 130 127 120 115 117 124 127 127 123 122 123 121 121 118 117 72 70 113 114 117 121 120 120 124 124 123 126 119 121 127 130 133 124 122 111 102 101 99 102 108 102 103 106 107 105 108 113 125 127 125 120 115 114 119 125 126 125 125 116 125 125 122 120 74 72 115 115 114 117 120 123 124 121 121 119 113 120 125 125 118 107 98 98 101 101 92 91 94 90 94 99 101 94 92 90 95 104 112 116 113 114 115 122 126 128 126 122 126 123 121 120 74 71 114 114 118 115 117 124 123 118 121 117 117 120 119 108 93 86 88 90 93 99 90 86 83 76 84 85 77 75 76 74 75 76 85 97 103 109 117 119 121 120 122 123 127 127 122 119 74 73 113 111 117 118 117 123 124 119 120 116 114 110 98 80 73 73 74 76 75 85 86 87 76 74 81 80 71 63 63 60 60 59 61 65 79 98 111 122 125 129 131 129 128 126 123 121 75 74 115 113 117 117 118 123 125 119 118 110 102 87 72 60 60 61 59 58 73 99 113 121 119 121 125 121 116 108 102 100 90 73 51 42 57 87 102 121 125 130 133 129 129 128 124 123 75 74 117 116 116 118 117 123 125 117 117 106 92 66 49 44 51 81 102 104 111 122 130 129 124 127 131 131 125 123 110 114 109 104 95 87 95 93 100 114 124 133 132 130 129 125 125 122 75 74 117 108 114 119 119 122 125 119 118 104 89 75 76 82 93 108 107 105 109 115 122 124 123 122 123 123 121 114 113 111 113 112 115 113 114 109 112 116 130 134 129 130 129 125 123 119 73 73 116 111 114 118 122 123 125 124 121 108 98 106 110 108 102 109 99 98 105 109 114 113 110 111 109 112 111 114 117 115 114 117 119 117 119 121 120 120 134 135 131 125 125 122 120 116 71 71 116 115 112 115 119 121 123 126 120 115 110 112 114 117 118 110 109 108 107 102 101 97 95 95 96 105 109 114 118 119 119 120 118 121 125 127 125 125 132 134 129 128 125 117 114 116 71 72 116 114 111 115 116 120 120 124 122 118 115 114 117 121 116 112 109 116 117 111 107 101 96 98 101 106 112 118 122 124 119 119 116 123 121 121 123 124 128 130 127 124 120 118 114 114 72 70 116 116 111 113 115 117 116 121 120 120 117 116 112 109 110 116 111 112 115 114 115 114 109 111 114 115 120 123 118 115 117 119 117 117 113 117 118 123 125 125 124 118 112 118 113 114 69 65 110 113 113 112 113 112 113 117 122 119 116 111 110 108 114 113 112 113 116 118 123 122 121 121 121 124 124 122 118 114 116 114 111 112 111 117 120 124 123 121 117 111 109 112 110 109 66 61 104 107 109 111 110 110 109 113 117 115 115 111 108 106 109 110 112 116 119 120 127 127 128 129 128 129 127 125 119 115 114 111 109 109 112 118 121 125 121 117 110 107 106 108 108 107 65 59 99 102 105 107 107 110 107 107 113 113 114 111 108 106 108 109 114 119 122 123 131 131 136 134 133 132 129 131 125 118 115 114 111 109 113 120 126 123 118 112 109 102 104 102 104 102 62 57 95 98 101 104 103 104 105 108 108 113 115 114 112 112 113 112 118 121 125 125 134 136 137 133 133 132 136 134 134 126 122 118 117 116 120 122 126 121 116 112 106 103 101 99 100 97 59 55 91 95 99 102 100 99 103 106 108 111 113 117 116 116 116 120 124 126 126 130 136 138 137 137 137 135 136 138 136 131 126 122 120 121 120 122 123 120 114 110 108 105 102 102 99 95 58 34 89 91 95 100 99 98 101 104 108 110 113 118 118 118 115 120 126 126 130 136 142 142 143 140 136 136 138 141 139 129 126 127 121 121 117 122 122 121 114 109 108 103 100 98 96 93 57 17 76 89 92 98 101 99 103 104 106 110 114 117 118 115 118 121 126 125 129 137 139 141 137 133 134 134 135 137 135 130 129 124 122 121 121 124 121 117 112 106 104 101 98 97 94 90 54 9 39 55 55 59 63 61 64 64 64 67 69 72 72 72 73 75 76 78 77 80 83 85 80 78 78 83 84 82 82 80 77 76 75 75 74 75 73 70 66 64 63 61 60 59 56 53 31 