P2
48
60
255
25 45 50 53 55 57 59 60 61 63 63 66 67 68 68 69 69 67 66 66 65 64 64 63 64 66 65 66 62 66 67 67 66 65 66 65 64 61 61 59 53 47 40 39 38 39 40 27 41 72 81 85 90 94 96 98 100 101 104 108 110 112 114 115 113 111 109 109 108 105 106 103 103 105 105 104 106 105 108 108 105 105 108 104 103 101 99 96 89 78 66 63 61 61 65 43 42 75 81 87 92 97 99 101 100 100 103 108 111 114 115 118 116 113 111 110 107 106 103 103 104 106 105 106 106 108 110 111 109 109 110 106 104 103 100 97 93 83 68 63 63 60 67 41 44 77 80 88 93 98 102 102 101 101 104 106 107 112 114 114 113 112 110 109 108 107 106 105 106 105 106 107 109 109 109 109 108 108 109 105 105 104 101 98 96 89 73 66 66 63 65 40 45 78 84 91 94 100 104 104 105 103 104 103 105 107 112 112 111 108 108 109 107 107 106 103 105 104 104 107 105 108 108 107 108 107 108 108 106 105 102 101 101 94 76 68 66 65 65 40 47 79 86 92 96 101 103 105 103 102 105 106 104 104 107 106 106 105 103 105 102 102 102 103 104 102 102 101 101 101 103 103 106 106 107 103 101 102 100 98 99 96 77 66 65 65 65 38 47 81 88 92 97 101 100 98 95 97 96 97 100 100 102 102 101 100 99 99 99 98 96 99 101 103 101 96 98 98 98 101 103 101 97 92 88 90 89 89 88 84 76 63 65 66 67 38 47 82 88 93 96 95 90 84 81 77 73 77 82 87 91 94 94 93 91 88 89 92 93 95 97 98 96 94 93 91 92 90 88 83 76 69 64 64 70 74 79 75 67 58 64 68 67 37 47 81 84 82 77 74 72 67 67 63 57 54 56 61 69 79 83 84 84 83 86 88 89 90 92 91 90 88 87 83 80 69 62 55 53 53 53 56 62 68 71 70 60 51 62 70 68 38 46 76 71 67 65 67 68 64 61 58 54 50 48 48 52 57 62 68 75 78 82 84 85 85 85 84 83 79 73 70 64 56 50 49 49 51 55 62 68 73 77 71 63 50 61 71 69 40 46 71 72 69 70 71 72 71 68 63 57 52 49 48 48 50 54 58 64 71 75 77 80 81 80 80 76 70 64 58 54 50 48 49 52 60 70 77 79 78 78 75 65 50 60 68 71 41 47 71 70 69 71 71 71 72 72 72 70 64 57 52 49 48 49 54 60 64 68 73 77 78 79 76 72 65 57 53 50 48 50 54 62 71 74 73 72 72 70 69 60 49 59 66 72 40 47 69 65 64 63 62 60 58 58 61 63 61 56 53 54 52 50 51 56 61 67 76 83 82 81 77 70 62 56 52 50 52 54 54 58 66 67 62 55 51 52 55 51 45 57 67 72 40 47 69 62 58 55 49 46 51 60 72 80 75 69 61 53 54 54 53 56 60 71 81 86 92 90 85 74 63 57 55 54 54 51 64 77 79 74 72 67 60 52 43 41 42 57 64 71 40 45 68 61 53 45 46 54 56 53 49 48 48 54 62 62 55 54 55 58 62 70 87 98 102 99 89 74 61 59 58 57 54 61 60 50 42 38 40 43 48 50 47 37 39 58 63 69 40 43 64 60 55 53 50 45 41 39 33 32 33 38 50 49 53 59 62 63 69 72 87 101 109 104 92 75 66 68 68 63 52 48 56 40 36 36 35 41 38 39 40 39 40 57 63 68 39 47 70 64 61 59 51 43 43 47 42 40 41 53 62 58 54 55 81 75 77 77 88 101 112 109 96 78 76 80 88 65 61 68 68 58 53 52 51 50 42 41 43 45 46 58 63 68 38 50 79 78 84 79 67 58 52 52 56 62 63 61 65 73 82 88 93 86 82 80 91 105 114 112 95 79 82 85 97 92 91 82 75 67 63 61 59 58 55 55 53 49 52 61 62 67 37 51 87 88 85 79 76 70 65 65 66 68 71 73 75 75 81 85 89 87 87 84 91 105 115 113 97 81 83 88 96 85 82 79 80 83 82 80 77 74 69 65 54 48 51 60 62 66 37 53 91 90 88 81 75 73 73 73 73 73 71 71 73 78 85 91 95 88 89 89 94 106 116 113 97 84 84 90 97 91 81 75 71 69 70 72 72 69 64 61 56 52 53 61 62 64 37 54 89 90 90 88 84 75 70 67 66 69 75 81 85 90 96 97 101 90 89 91 96 106 117 116 103 85 84 93 93 96 98 91 83 74 67 63 62 61 65 69 63 59 60 62 62 63 37 53 87 91 93 95 95 94 94 91 90 90 91 91 93 98 98 102 98 93 90 92 96 107 115 117 102 85 83 91 94 98 102 103 100 94 91 88 89 89 89 87 77 69 62 62 61 62 37 52 87 91 96 96 99 101 98 99 96 97 99 99 103 101 100 100 95 93 92 92 94 105 117 116 102 85 84 89 93 99 101 102 104 103 103 105 103 101 97 91 79 69 64 63 62 62 37 51 87 90 94 97 99 103 105 106 106 104 106 106 102 101 100 96 95 94 93 92 95 105 116 114 102 89 85 89 91 98 101 102 104 101 103 107 106 106 101 91 77 68 63 63 61 60 35 51 87 90 94 96 98 102 105 107 107 108 107 106 102 101 101 98 97 96 93 95 98 106 117 114 103 93 88 89 93 98 102 102 104 105 107 110 109 106 102 92 78 68 63 63 60 58 36 50 85 90 94 98 99 101 106 108 106 109 107 105 104 102 101 100 100 98 96 99 102 110 117 114 104 98 91 84 93 97 104 103 104 106 106 109 109 105 101 93 82 68 64 62 59 56 36 50 84 90 94 97 96 98 102 106 106 107 106 103 105 102 99 94 94 95 98 104 106 110 116 116 108 101 92 81 83 87 95 101 103 104 105 107 107 102 101 94 80 68 62 61 57 55 36 49 83 88 93 95 96 99 101 103 104 105 104 101 98 92 86 93 95 93 101 105 109 112 115 116 109 102 92 80 82 78 78 90 97 99 101 102 101 99 97 91 78 66 61 60 54 54 34 48 81 85 90 91 93 95 97 100 99 97 94 90 84 76 85 97 99 95 104 108 108 115 118 118 110 101 93 85 89 83 69 77 87 92 95 98 99 99 94 90 79 66 60 59 52 54 33 48 79 82 87 89 91 93 93 93 93 89 85 78 68 69 87 98 101 96 101 107 114 119 120 118 109 101 93 87 92 84 65 67 75 83 87 92 94 94 92 86 75 63 60 58 50 53 32 46 78 80 83 86 87 89 87 86 86 80 72 65 64 63 78 91 94 89 94 103 116 118 120 115 105 94 85 85 90 81 61 65 68 77 83 86 89 88 87 82 73 61 58 57 50 54 31 46 75 78 81 83 85 84 83 81 77 71 65 63 66 66 64 63 69 74 80 93 103 106 103 99 93 83 74 73 73 66 64 69 66 70 74 80 81 84 79 79 68 57 57 54 50 52 30 46 73 75 74 77 78 78 78 75 71 66 62 65 69 70 68 49 41 48 62 73 86 88 90 87 77 63 54 49 46 58 65 69 70 67 71 75 77 76 75 72 60 53 55 53 49 52 31 46 71 71 63 71 72 72 73 69 64 61 60 69 73 73 74 66 52 46 46 56 63 70 73 68 55 45 40 41 51 66 69 71 72 68 67 70 72 71 70 65 54 51 53 50 49 51 31 46 70 68 66 66 67 67 66 63 60 55 60 72 76 76 78 78 72 62 51 45 51 52 54 49 43 41 45 54 66 70 71 74 73 64 62 65 65 65 64 58 51 50 54 49 49 51 30 45 71 66 63 62 62 61 59 56 52 55 72 77 78 79 80 80 80 75 63 50 43 42 41 40 43 51 60 70 73 73 75 77 76 68 56 56 57 57 56 52 50 48 53 47 49 50 31 46 72 66 64 63 60 58 53 49 54 72 79 78 79 80 82 80 82 82 75 62 52 45 43 47 53 63 70 75 75 76 77 79 79 77 67 54 53 55 53 51 47 48 50 45 49 48 31 46 74 69 68 65 61 55 47 53 69 78 79 76 79 80 82 83 82 85 82 76 66 58 55 59 66 72 74 76 78 80 80 81 80 79 77 62 51 57 61 56 52 50 48 45 49 49 30 46 74 70 71 70 69 66 60 66 69 69 70 63 75 80 81 81 83 85 88 88 84 78 76 76 77 78 80 80 78 78 75 72 76 75 70 66 63 67 62 48 52 50 44 44 47 49 28 45 73 69 72 74 75 77 76 62 54 51 55 56 64 67 66 64 61 62 65 72 82 83 79 73 70 71 74 76 73 73 69 66 63 62 63 71 77 79 71 57 52 50 42 45 48 46 26 43 73 72 68 73 77 83 82 75 63 52 38 33 37 43 47 42 44 43 46 50 52 52 50 49 47 44 48 51 54 56 54 50 44 45 52 62 81 84 72 59 50 49 42 47 46 43 25 42 70 73 67 69 76 82 85 85 84 77 66 44 33 42 56 52 67 56 64 75 65 50 56 67 62 46 53 48 45 42 34 34 47 61 73 82 85 82 67 55 48 45 45 47 45 41 26 41 68 72 69 64 69 76 81 84 88 84 79 72 55 44 64 67 85 85 102 108 107 84 102 102 93 71 72 56 50 44 45 61 76 81 84 86 84 75 61 49 47 45 48 46 42 40 26 34 66 69 71 65 62 67 74 81 87 87 83 82 78 70 69 68 82 96 109 114 117 109 118 110 102 87 76 60 64 69 75 81 84 85 85 83 75 65 54 46 49 51 48 46 40 41 24 22 61 67 70 67 65 62 72 78 83 87 84 84 86 83 79 78 77 81 94 100 102 97 106 96 88 79 76 76 78 81 81 82 84 82 81 76 70 59 49 46 53 52 47 43 40 39 23 18 44 64 67 68 67 70 75 77 80 85 86 84 87 86 87 86 86 88 89 89 88 88 90 89 89 85 82 83 79 83 81 81 83 82 75 68 61 53 49 49 54 50 44 42 40 38 22 17 28 57 63 67 67 68 73 77 78 82 85 83 84 84 87 87 83 82 85 91 92 93 91 89 88 83 80 82 81 80 79 81 81 78 68 65 59 52 49 50 51 45 42 41 39 38 22 18 25 40 60 65 66 67 72 77 77 81 83 82 80 81 84 87 85 80 78 74 75 76 78 77 77 77 79 81 79 76 77 79 79 75 69 61 53 49 51 51 48 43 42 40 38 37 21 17 26 29 52 62 65 66 69 75 78 78 82 81 81 80 80 82 84 84 82 80 77 77 77 78 79 79 78 75 75 75 76 76 75 73 74 61 51 50 52 50 46 41 41 38 39 37 20 17 26 27 42 56 63 64 66 72 79 78 80 80 80 80 79 79 79 79 78 79 79 79 77 76 76 76 74 74 75 74 74 74 71 70 61 59 52 52 53 48 42 38 40 38 37 35 17 17 27 27 39 48 57 63 65 69 75 77 80 82 81 78 77 76 76 74 74 73 73 73 73 73 73 71 73 75 74 74 75 71 71 68 58 57 54 53 50 44 38 38 37 33 33 34 16 17 27 25 39 45 50 58 63 67 73 78 80 85 86 84 81 77 76 75 74 74 73 73 73 73 74 74 75 76 75 76 74 73 77 71 60 56 54 52 47 39 38 40 34 28 28 29 16 17 26 25 36 45 48 52 59 64 69 79 81 83 88 89 88 85 83 83 84 84 85 85 84 83 82 81 80 80 81 80 76 77 76 67 58 56 53 49 42 38 42 42 33 27 26 26 17 17 26 24 34 45 49 47 52 59 65 74 81 82 86 93 95 94 94 99 104 105 106 106 105 101 98 92 90 88 86 81 78 78 71 61 56 55 51 45 39 42 44 43 33 27 26 25 17 15 25 23 32 45 49 50 46 53 60 68 77 82 84 94 97 101 101 103 106 109 109 108 107 106 104 101 96 94 89 81 81 76 64 55 54 52 47 40 41 45 47 44 33 27 26 26 17 16 24 24 32 46 48 51 48 46 53 61 70 78 82 89 98 101 104 107 110 111 110 110 112 108 107 101 98 92 85 80 79 70 57 54 52 49 41 39 44 46 48 46 34 28 27 26 18 16 24 24 31 47 50 50 52 47 46 52 61 73 80 82 89 98 102 109 110 110 108 108 112 111 104 99 96 88 81 79 73 60 53 52 50 42 37 41 46 46 49 46 34 28 27 28 19 16 25 24 30 47 51 51 54 52 46 46 52 63 73 77 82 90 96 100 102 105 107 107 105 103 102 97 89 79 77 72 62 53 52 50 42 37 39 43 46 47 50 47 36 29 28 30 21 17 25 26 29 47 50 54 54 54 51 45 45 52 62 70 74 78 84 90 93 91 93 94 94 95 91 85 77 70 68 61 54 53 50 42 39 41 43 45 46 48 51 47 37 31 29 35 26 11 15 17 18 29 31 35 34 34 33 30 27 27 33 37 41 42 46 48 51 50 50 51 53 53 50 44 41 40 37 34 33 31 24 24 26 27 28 29 29 30 32 29 24 20 19 26 17 