P2
48
60
255
48 77 80 80 83 82 85 87 90 92 96 100 103 102 99 99 99 99 100 101 99 100 100 101 99 100 101 103 100 97 97 98 94 91 95 94 92 88 85 83 79 76 74 73 72 72 70 43 77 127 126 129 133 138 141 143 142 153 158 163 167 170 170 166 163 163 164 162 165 167 164 167 165 166 164 166 164 163 163 160 159 158 155 150 147 141 137 134 128 124 121 119 118 115 115 70 78 130 131 134 136 139 140 142 147 156 162 165 164 170 174 172 167 165 165 163 167 167 165 165 165 169 166 165 167 166 165 166 160 162 161 154 148 143 140 135 129 126 122 120 117 115 115 71 80 132 132 133 136 140 143 142 150 157 160 167 168 170 170 168 173 169 169 167 170 167 168 165 165 168 168 164 168 166 165 166 164 161 159 154 149 147 141 137 132 126 124 122 119 117 116 72 82 133 132 132 138 141 144 144 155 153 154 161 162 164 164 169 171 169 168 169 168 168 167 167 167 165 169 169 165 163 166 166 166 162 160 152 147 146 142 139 135 129 125 122 119 118 117 73 82 131 131 131 137 144 143 140 138 138 141 145 147 142 149 148 150 157 159 162 165 164 163 164 166 166 164 163 157 153 151 154 150 149 146 135 140 137 130 133 134 131 123 121 119 118 119 73 79 128 130 132 137 139 127 116 113 111 117 121 124 124 117 124 135 134 136 144 153 155 156 162 165 162 156 158 146 135 130 136 118 108 111 112 114 116 112 111 111 117 120 120 117 117 119 73 80 127 126 129 126 113 100 99 107 101 100 101 102 105 110 111 123 120 122 125 132 139 149 156 159 158 145 143 130 122 119 110 105 101 89 89 90 92 86 88 92 97 102 112 114 115 117 71 78 122 124 127 113 103 100 106 102 94 88 80 80 81 85 101 107 108 112 113 118 123 144 151 148 150 138 130 121 114 100 99 85 76 73 68 70 74 75 79 82 85 92 103 109 110 114 71 76 119 120 112 103 105 109 110 106 110 89 79 83 84 82 84 89 97 105 105 107 119 134 148 149 141 127 119 110 103 93 84 73 73 66 65 65 70 83 92 86 82 85 91 102 107 110 70 75 117 112 103 104 111 116 121 121 121 112 99 91 90 86 84 86 87 91 94 104 119 136 145 144 135 118 109 99 92 87 83 77 75 75 80 85 95 98 101 99 93 90 91 92 100 107 67 72 114 110 105 114 120 132 142 146 147 144 140 133 128 118 105 98 89 82 84 99 116 133 143 140 125 109 94 87 85 87 92 99 110 122 129 135 137 131 126 115 103 97 93 92 92 104 65 73 112 107 110 122 129 137 143 150 149 143 130 128 127 121 117 108 94 79 83 107 126 145 158 153 130 108 92 84 87 100 115 127 132 130 128 137 149 147 138 128 116 108 102 92 89 98 65 72 112 117 117 122 125 128 125 112 98 90 94 96 84 71 75 96 101 91 95 122 143 161 168 166 145 117 95 88 101 114 107 91 92 108 118 113 111 109 116 121 118 112 106 100 91 90 62 74 115 115 117 117 116 98 95 75 54 45 46 52 72 92 89 80 90 87 101 129 140 155 162 162 151 120 99 83 92 83 81 112 113 84 62 57 68 92 104 89 102 108 104 97 93 92 61 73 117 109 107 102 80 87 63 50 71 38 69 68 100 72 98 107 98 88 113 132 135 145 148 148 145 126 104 74 86 93 109 91 74 65 53 45 50 49 65 94 81 99 101 97 94 95 61 71 108 105 96 64 72 58 87 76 61 33 53 76 139 122 73 93 120 121 125 130 131 141 144 140 135 120 112 92 104 90 72 96 144 81 53 44 72 66 69 60 85 70 95 94 96 102 64 67 101 100 67 68 54 66 124 115 70 68 72 102 152 138 111 114 109 129 126 128 130 142 142 135 129 114 112 106 96 99 106 149 157 92 67 57 66 84 95 51 60 66 75 93 94 101 65 67 105 84 78 72 80 109 126 138 120 95 111 146 150 139 131 130 123 125 124 128 123 133 136 134 129 112 112 106 100 109 121 145 153 136 88 79 89 120 101 63 52 69 67 84 97 106 67 71 104 98 95 95 106 119 125 131 135 128 127 124 130 130 127 121 113 125 126 125 118 127 134 130 126 108 110 108 91 102 118 130 132 134 136 133 130 124 115 101 79 73 85 91 102 111 67 72 110 109 116 126 129 134 127 121 117 121 124 130 130 124 119 109 121 127 126 124 119 129 137 134 127 110 107 111 101 90 109 123 126 126 120 118 111 107 110 108 105 98 92 99 112 117 71 76 122 131 129 135 140 144 148 150 145 147 141 135 132 127 120 119 129 125 129 124 121 133 139 137 132 112 107 113 113 103 102 116 125 137 143 145 143 139 135 132 121 117 111 107 112 118 73 83 136 139 128 130 133 134 137 140 140 138 137 137 137 131 128 135 129 127 129 120 126 139 144 142 137 114 104 113 115 121 111 114 124 125 128 129 130 134 129 129 128 126 120 116 113 119 74 85 140 147 141 141 141 140 143 147 147 145 141 135 129 137 145 136 133 133 127 120 124 140 145 145 138 116 104 114 114 119 123 118 122 133 138 140 141 140 135 136 132 137 143 129 112 119 79 88 147 153 150 145 147 151 149 145 143 142 134 135 147 150 141 133 134 128 123 120 125 143 147 146 138 115 105 111 114 116 123 129 135 135 135 140 139 138 138 140 144 150 150 137 115 109 75 84 148 153 151 148 146 141 145 142 145 148 153 157 150 147 138 133 126 119 123 120 129 159 156 154 152 120 106 108 110 114 120 124 135 143 148 152 155 152 151 152 152 147 143 129 112 104 67 81 139 144 149 150 146 144 149 145 148 152 154 154 150 142 139 127 119 123 127 123 138 165 154 154 163 129 109 111 103 110 121 123 130 138 144 152 148 151 152 153 144 136 129 116 105 99 63 77 127 134 142 143 143 137 142 148 151 149 153 153 146 139 128 117 123 128 128 122 132 144 146 144 148 126 111 114 109 105 118 123 126 134 142 150 148 145 141 140 136 127 119 108 102 99 62 73 123 127 128 131 136 136 136 143 151 153 152 151 143 126 112 117 124 123 113 113 117 127 128 128 126 112 101 106 112 102 111 117 122 130 140 142 146 136 138 135 129 120 117 108 99 97 61 70 118 122 121 130 137 140 141 144 149 154 152 147 135 112 106 119 117 89 44 51 94 105 105 107 105 94 52 75 107 101 96 104 115 124 137 141 147 141 136 139 133 120 113 103 99 97 60 69 118 121 122 132 133 138 146 149 150 145 143 134 119 101 106 112 94 50 25 29 73 86 82 82 86 79 31 53 93 105 96 95 107 117 127 134 141 138 130 136 129 121 112 103 95 95 59 69 114 123 119 127 134 136 143 143 138 137 138 124 107 97 109 104 82 58 56 80 106 90 68 67 80 89 50 57 85 104 104 95 98 108 121 131 140 139 130 129 123 115 108 102 94 92 58 69 113 118 118 129 134 141 141 140 138 134 129 117 106 114 120 110 85 89 118 121 112 103 78 67 82 100 105 89 84 108 112 101 95 103 116 129 134 138 134 122 119 113 108 99 92 87 54 65 108 109 110 125 131 135 135 133 129 132 124 116 120 129 131 126 109 105 112 111 117 116 98 91 95 95 99 92 97 113 117 112 102 98 107 121 126 129 132 125 125 121 114 106 89 86 54 62 103 104 105 125 124 131 132 131 129 130 124 129 129 136 134 130 124 122 115 114 119 123 108 109 103 91 93 103 109 114 120 120 113 101 103 113 122 121 121 122 116 110 97 91 85 84 52 63 98 103 106 116 122 126 128 134 132 132 136 141 140 140 135 128 122 122 121 123 122 116 111 112 105 99 96 100 105 108 113 119 116 111 104 108 116 119 118 114 109 100 91 85 83 80 52 60 96 102 106 114 119 122 130 133 133 132 139 144 143 137 136 131 126 125 127 125 121 110 116 114 110 106 107 106 104 106 110 113 113 110 106 105 112 119 121 115 102 98 89 83 81 80 51 59 96 103 105 110 117 124 133 136 137 138 140 137 133 131 131 131 127 128 126 125 121 113 125 125 121 119 116 117 113 108 110 108 105 104 107 108 103 112 115 112 112 103 89 83 81 79 49 55 96 104 102 112 120 131 132 132 132 129 135 130 129 132 128 132 134 137 136 134 124 118 129 128 130 132 125 123 119 118 114 108 104 100 108 112 106 98 108 109 108 102 92 82 80 77 48 58 92 100 103 116 125 126 125 124 127 128 127 129 128 129 129 132 142 145 149 149 142 139 140 144 146 147 139 135 131 124 114 107 102 101 103 104 109 97 98 106 103 100 97 86 77 76 48 56 91 100 109 119 122 121 116 119 119 120 123 125 125 129 136 136 133 130 129 132 134 138 138 133 129 125 125 125 129 123 112 105 99 96 97 99 103 98 91 103 103 100 98 88 75 75 47 59 94 100 111 120 117 115 113 113 112 109 111 112 121 124 122 109 103 106 110 111 111 110 108 108 106 107 109 102 98 98 100 104 100 93 87 89 96 101 103 108 105 101 91 81 76 77 47 58 94 101 113 117 116 116 117 107 98 99 92 109 112 96 87 91 97 99 97 101 98 94 91 90 90 93 94 94 90 82 79 84 89 82 72 76 91 98 113 118 108 101 95 83 85 78 48 56 96 105 114 116 120 118 116 103 88 73 66 76 70 69 77 81 78 75 67 75 77 69 67 68 64 64 63 68 70 67 62 55 54 54 61 83 95 105 121 124 113 105 99 88 87 78 50 57 99 109 115 118 125 124 115 105 98 78 60 55 47 68 85 98 118 123 125 127 128 127 126 126 123 122 119 111 109 104 91 77 76 86 91 112 119 116 123 125 115 104 100 90 87 84 53 62 101 110 116 121 129 129 120 115 117 113 118 109 104 115 118 117 121 129 135 133 134 131 130 136 139 138 130 120 114 107 101 99 99 108 115 124 127 130 136 130 118 106 97 91 88 80 49 61 106 107 118 122 132 130 127 124 125 127 129 120 116 114 115 114 116 122 132 134 133 131 132 132 132 129 122 113 104 103 101 102 102 115 123 127 124 130 139 131 119 106 92 90 91 84 48 62 106 110 118 124 133 132 128 132 131 135 133 121 115 113 120 121 118 122 123 119 118 119 121 117 117 117 114 111 110 109 101 100 106 116 123 128 126 127 139 137 112 101 95 91 88 83 47 65 112 110 119 128 132 131 127 130 135 139 136 125 121 117 117 116 116 115 113 104 93 93 97 91 94 101 103 103 102 101 100 104 110 117 119 126 124 123 131 123 106 101 97 91 83 85 46 66 108 110 117 120 125 128 128 128 133 135 132 128 122 123 125 119 117 109 97 88 82 80 82 75 83 87 93 96 101 102 106 107 114 116 115 121 120 126 127 113 104 100 93 91 79 80 46 64 107 110 118 120 122 126 123 127 128 129 128 126 123 122 126 127 127 122 112 106 101 102 102 103 104 106 108 108 107 110 109 108 115 115 116 119 120 123 121 109 105 97 94 83 79 80 50 63 106 109 115 116 120 122 120 117 124 129 123 119 120 121 122 127 127 127 125 119 113 111 111 109 111 114 118 116 117 115 111 114 116 115 114 111 116 121 118 110 103 96 92 88 81 77 49 63 105 107 110 115 117 122 116 117 118 125 121 121 122 121 125 129 131 133 134 127 123 114 112 112 117 122 126 121 121 120 110 115 115 112 109 105 115 116 109 106 97 94 90 90 82 81 51 63 105 103 107 111 114 116 113 117 114 118 119 120 120 122 124 130 131 132 138 132 129 122 124 123 125 127 127 124 124 119 113 113 115 110 107 104 105 109 101 99 96 93 87 89 84 84 52 62 101 101 99 106 108 111 118 112 111 117 117 118 117 119 124 128 130 132 131 133 130 126 127 124 125 126 126 122 122 117 111 109 110 104 100 100 94 102 99 90 91 89 84 89 87 84 50 61 101 98 104 99 106 113 115 115 111 111 115 116 114 122 125 125 125 123 128 126 125 124 126 125 121 115 119 119 112 116 112 113 106 104 99 97 91 93 98 91 88 87 86 85 84 83 51 57 95 97 100 99 107 112 114 106 109 113 113 113 116 123 120 118 119 118 120 119 122 117 121 123 117 113 111 114 107 110 113 110 104 102 101 92 93 93 95 87 88 84 87 84 83 81 49 56 93 98 99 96 100 107 109 109 107 116 114 112 114 116 114 117 119 120 120 116 119 115 116 117 116 115 112 110 107 107 110 105 104 103 99 95 92 90 92 87 84 87 86 83 83 78 48 56 92 97 98 95 99 105 102 100 105 106 109 112 110 114 117 115 119 118 119 115 116 120 124 117 117 114 115 115 110 106 108 105 100 97 97 88 89 90 85 86 83 85 85 81 82 79 48 34 56 59 60 60 60 63 61 63 64 66 70 72 67 70 69 71 72 72 71 68 69 73 75 71 70 73 75 69 66 66 64 63 61 58 57 52 51 55 52 51 50 50 49 48 49 48 29 