P2
48
60
255
28 45 40 41 41 41 37 36 34 33 33 32 32 31 27 26 24 25 25 25 24 24 26 27 29 34 38 38 37 36 32 31 31 32 30 29 26 24 20 19 18 18 18 19 23 26 25 14 47 73 66 70 67 68 65 57 56 53 54 53 52 51 46 44 44 46 48 47 47 51 59 61 63 66 68 67 65 64 62 61 63 59 56 52 51 49 46 40 36 34 35 36 39 40 39 24 45 76 70 68 69 67 66 63 59 57 57 59 61 63 63 62 62 61 62 63 66 71 77 78 79 80 80 78 77 77 78 79 78 76 73 71 67 65 63 61 53 43 39 39 40 41 41 26 45 79 72 70 70 69 69 67 65 64 65 63 66 69 75 80 80 82 83 82 82 84 86 85 84 84 84 83 84 84 87 87 87 85 82 84 81 81 79 78 75 70 63 54 48 47 50 32 47 81 74 71 69 72 74 74 71 72 73 70 72 76 80 81 85 86 85 85 85 88 88 87 86 88 88 85 87 87 89 90 87 82 84 86 82 85 86 83 83 84 80 76 71 66 65 41 49 82 78 73 72 75 78 78 76 78 76 78 79 80 80 80 85 86 87 87 88 87 85 86 86 83 87 87 87 87 87 86 84 86 89 88 88 88 88 87 85 85 84 81 79 77 72 44 50 85 81 75 75 79 81 80 78 78 80 80 80 80 81 78 82 81 82 83 83 83 83 84 84 86 83 84 85 85 84 85 85 83 83 81 81 78 79 81 82 82 84 83 81 80 78 47 52 87 81 78 78 81 80 79 79 80 82 83 82 81 81 81 79 79 79 81 83 83 82 83 86 82 83 81 80 79 79 79 77 72 69 69 70 77 81 81 90 88 83 82 81 82 80 48 55 90 86 81 76 74 73 74 76 75 75 74 75 77 75 76 77 77 77 79 82 82 84 84 84 84 81 80 77 77 76 71 67 64 63 64 71 73 78 83 88 90 88 82 80 81 78 47 57 97 88 80 74 73 74 78 77 72 68 65 64 67 69 70 69 72 73 73 75 80 81 81 82 84 82 78 75 74 70 66 63 61 61 65 71 78 83 88 89 87 87 84 83 80 77 48 59 104 89 80 76 77 78 77 75 71 68 64 61 60 61 65 68 70 69 70 72 77 76 78 81 81 80 75 71 71 66 62 59 60 64 71 76 81 84 87 88 86 84 83 82 81 78 48 62 106 88 83 81 82 82 81 77 75 70 66 62 57 57 58 61 64 65 65 68 73 76 77 77 80 80 75 69 63 58 57 61 65 72 76 78 78 81 82 83 84 82 81 81 80 79 48 66 107 93 83 81 81 80 81 79 78 78 77 73 68 61 56 55 55 58 61 65 69 73 75 78 82 80 76 68 58 53 57 61 61 60 61 66 72 75 78 75 77 79 79 79 78 79 48 71 109 92 82 80 77 76 75 74 73 73 73 71 68 64 61 59 53 49 56 64 70 75 78 81 87 83 78 67 50 54 55 47 38 35 33 33 37 44 57 66 68 71 74 76 77 76 47 76 113 87 80 76 73 69 66 67 64 53 44 37 35 36 43 54 57 49 50 62 69 77 86 86 88 83 77 63 46 50 44 43 41 35 32 37 36 25 28 35 52 64 69 71 74 75 47 73 107 85 77 71 65 59 53 43 33 27 33 31 38 35 37 38 43 45 47 59 68 81 89 90 92 84 75 61 43 45 47 43 48 44 40 26 31 37 36 32 31 51 65 68 68 70 46 66 96 86 74 63 56 45 33 34 35 35 34 28 49 46 49 39 42 45 46 61 69 81 88 90 90 83 73 61 57 53 48 49 64 55 42 34 35 42 54 53 43 35 51 63 66 68 45 56 77 80 69 58 47 36 38 48 51 41 35 33 43 55 61 48 48 55 54 60 70 81 86 86 87 83 72 68 64 62 64 60 62 62 60 58 60 66 65 66 63 54 47 56 65 72 49 48 68 70 67 55 46 49 63 66 68 63 62 59 59 62 62 66 69 65 58 65 73 80 84 86 86 81 74 76 69 69 66 65 64 61 61 63 68 73 74 72 71 69 63 57 63 72 46 46 67 65 63 54 60 65 72 74 72 68 63 59 56 61 62 66 68 63 65 70 75 81 82 84 84 82 77 76 77 68 66 66 62 63 64 62 64 67 73 75 77 77 78 70 71 79 51 47 71 68 67 72 77 80 79 75 74 69 65 62 63 67 70 73 71 69 71 73 79 82 84 84 85 83 78 76 82 78 73 71 70 68 68 69 71 72 70 74 79 81 81 78 78 80 51 52 81 77 78 81 81 81 80 78 76 74 73 73 73 73 73 74 75 74 73 76 81 81 84 86 85 82 77 74 78 81 81 78 73 72 72 74 73 74 75 73 75 80 81 80 81 82 51 53 84 83 83 82 82 80 76 75 75 76 74 73 73 74 79 79 79 74 75 79 82 82 83 86 84 82 78 75 77 80 82 85 80 75 75 74 76 77 78 77 78 78 81 82 83 84 52 53 86 85 83 82 81 78 77 75 76 76 77 77 79 83 83 81 76 74 78 80 81 81 84 83 84 82 79 77 76 79 81 85 89 84 76 75 75 76 78 80 83 85 82 85 84 84 52 54 85 84 82 80 81 83 83 85 83 81 82 84 84 85 84 81 77 77 80 81 80 81 83 83 83 82 80 78 77 79 81 83 89 90 88 85 81 81 83 86 87 88 88 86 83 83 52 54 85 82 81 81 81 82 86 87 86 87 87 87 86 87 84 79 79 76 76 81 81 80 81 83 83 81 79 76 75 77 80 83 88 88 89 89 87 88 89 90 90 90 89 86 82 82 51 53 83 82 81 81 83 85 88 89 89 88 89 89 88 85 83 78 71 66 70 77 81 82 83 83 84 83 80 76 70 70 77 85 87 87 88 88 89 90 90 90 89 88 87 84 83 81 50 52 82 80 81 81 82 85 87 88 89 89 88 87 85 85 82 72 60 61 73 78 82 83 86 86 86 84 81 77 72 62 70 81 86 88 87 87 90 92 92 91 88 84 83 83 83 80 48 50 79 80 80 79 80 82 86 86 86 87 88 87 86 82 77 64 54 70 76 81 84 84 90 86 90 86 81 78 75 66 61 75 84 87 88 86 87 87 89 89 89 88 84 83 81 79 48 51 80 79 79 80 80 84 86 86 87 87 87 84 82 78 69 54 64 77 78 82 81 79 81 81 85 85 79 75 76 75 60 68 78 83 86 85 84 86 89 90 89 88 85 82 81 79 47 51 80 80 81 82 82 83 85 85 86 85 83 80 76 71 59 52 74 79 77 76 74 72 73 74 75 75 71 73 74 74 61 61 70 77 81 84 86 91 90 90 88 87 84 83 81 79 48 52 81 79 80 82 83 83 83 82 82 79 79 76 70 61 51 54 68 63 55 57 67 67 65 66 66 65 55 53 61 68 62 59 63 71 76 81 84 89 93 91 88 86 82 82 79 78 47 52 82 81 81 82 81 80 79 80 79 76 73 69 62 51 53 57 58 48 36 34 51 64 59 59 60 54 41 39 51 64 70 69 62 65 72 77 81 85 89 90 83 82 79 79 78 76 46 54 85 84 81 79 79 78 77 77 76 73 70 64 53 54 60 62 60 51 48 51 51 54 54 54 58 61 63 58 60 69 73 76 69 62 68 74 76 82 84 81 80 80 78 77 76 75 47 55 87 81 80 79 77 76 75 73 71 69 65 58 55 59 62 64 65 64 64 65 59 51 45 49 59 67 71 70 71 72 74 78 75 68 66 70 75 77 80 79 80 78 77 76 73 75 46 55 89 80 78 77 75 74 72 71 69 66 62 57 62 65 66 67 68 69 69 67 63 61 58 60 63 71 74 75 75 75 76 78 79 75 65 68 70 74 77 78 78 75 75 73 74 75 45 58 88 80 78 74 74 71 70 68 65 63 60 63 67 70 71 72 73 73 72 73 74 74 74 71 73 75 77 78 78 79 79 79 79 78 71 65 67 70 71 75 75 73 74 74 75 74 46 58 86 78 76 72 70 69 66 66 64 63 64 69 71 74 75 77 76 76 76 78 79 78 76 74 77 79 80 80 81 81 81 80 79 77 73 68 67 70 70 72 76 75 73 74 72 72 46 59 87 76 73 70 68 67 65 65 64 64 69 70 73 75 75 76 77 79 81 82 82 82 79 78 80 82 79 79 81 81 81 80 79 77 74 69 66 68 70 71 73 72 70 71 70 71 45 56 84 76 71 68 67 65 65 64 64 68 70 72 73 72 74 75 77 78 75 74 79 82 82 80 79 78 80 81 79 79 79 77 78 78 76 71 68 66 66 69 70 70 69 69 69 70 44 55 82 77 71 69 66 65 65 65 66 70 70 70 69 68 69 68 63 55 45 43 48 58 67 55 48 52 65 75 75 76 73 73 74 75 75 73 68 68 68 67 70 70 70 70 71 70 44 57 84 75 73 69 67 65 66 68 71 69 69 64 59 57 53 46 39 37 37 36 35 37 38 36 36 37 40 47 56 64 66 65 67 70 72 73 65 69 71 71 70 69 69 69 70 70 45 63 85 74 73 71 69 68 69 71 72 67 65 52 36 32 31 33 37 40 45 48 49 47 47 46 47 43 38 36 35 37 42 46 50 56 65 71 67 71 73 72 71 71 71 69 72 72 45 66 86 77 73 71 71 72 71 74 73 66 57 51 61 63 61 59 55 52 51 54 54 56 57 54 54 53 52 54 57 59 59 59 55 44 49 65 70 74 75 75 73 72 73 72 73 72 45 70 90 81 76 71 71 73 75 76 75 65 61 70 73 74 74 75 76 75 69 67 64 62 62 65 68 72 76 77 77 78 76 75 74 71 56 62 70 76 76 75 75 74 74 73 72 72 45 74 96 84 76 74 73 74 77 78 73 66 71 74 75 77 75 76 75 73 70 68 64 64 64 66 67 70 72 74 76 77 78 77 80 78 73 61 68 77 79 78 76 75 73 73 71 73 47 77 100 83 77 73 74 76 78 74 68 69 71 74 77 78 76 73 69 69 65 61 59 58 57 60 64 67 71 74 76 78 80 81 82 80 76 69 64 74 78 79 75 73 73 72 72 74 48 89 108 88 78 75 73 75 75 72 67 71 74 76 77 77 76 73 71 67 63 62 61 60 63 62 64 66 70 73 75 77 79 79 80 80 78 71 65 70 75 77 74 71 72 73 71 76 44 95 123 90 80 76 73 74 71 67 68 73 75 75 77 77 75 71 69 66 63 63 63 63 62 64 64 66 68 72 75 77 79 80 80 80 79 74 64 66 73 74 72 71 72 71 72 75 37 106 131 96 81 74 73 72 66 65 71 74 76 77 78 78 77 74 72 73 76 76 78 80 80 81 80 79 79 76 76 80 83 82 81 79 79 77 70 62 70 71 71 72 72 72 74 65 34 107 147 100 80 72 73 70 64 69 72 75 76 77 78 79 80 81 81 81 81 81 82 83 82 84 83 82 82 83 83 83 85 83 81 79 78 77 76 66 67 70 70 70 72 73 75 54 37 92 153 112 87 73 72 68 68 71 72 75 76 77 78 79 80 79 79 80 81 83 82 83 83 82 84 84 83 83 81 82 84 83 80 77 77 77 75 73 66 68 70 69 70 74 73 53 37 78 151 127 89 74 71 71 69 70 72 74 78 77 78 77 78 78 78 80 79 79 79 79 80 80 82 83 84 78 77 80 84 81 78 77 76 74 72 72 69 66 68 69 70 77 71 59 38 82 130 146 96 76 71 72 68 69 70 75 76 76 76 77 77 78 80 78 78 74 72 71 71 73 76 78 82 77 78 79 81 77 76 74 73 71 70 70 67 67 68 69 73 78 80 65 45 87 115 145 112 81 74 74 69 68 71 76 76 74 75 74 77 77 78 77 73 71 68 67 65 67 70 72 75 74 76 78 76 75 74 72 70 68 67 67 65 67 68 70 77 79 105 74 65 92 117 118 128 92 72 71 70 69 71 79 75 72 73 72 71 71 71 69 68 67 66 63 61 64 64 68 69 69 72 73 71 72 70 69 67 65 66 66 66 65 69 75 76 105 118 106 94 92 123 100 114 111 85 69 69 70 70 76 79 77 74 69 66 67 67 65 65 63 64 61 60 61 63 64 66 67 69 70 69 68 67 68 67 64 64 65 65 68 73 75 79 147 155 162 109 95 123 100 96 95 109 84 72 71 69 73 82 82 77 71 64 63 62 61 61 61 60 59 57 60 60 61 64 63 64 64 66 67 68 66 63 62 62 63 66 71 73 73 93 173 175 178 110 94 122 97 89 87 95 104 85 77 73 71 72 82 84 80 67 62 60 59 59 60 60 57 56 58 58 60 60 61 62 64 65 65 62 62 61 60 60 63 69 72 72 73 114 177 178 179 110 61 76 62 56 52 53 57 60 48 43 44 44 45 45 49 50 43 39 38 37 37 37 36 35 36 36 37 38 39 39 39 39 39 39 37 35 35 36 42 46 44 45 45 84 110 110 110 68 