P2
48
60
255
50 83 83 86 85 93 91 89 93 94 94 93 96 96 96 94 97 98 95 98 97 97 98 96 97 96 94 96 95 92 87 86 91 94 94 92 91 87 86 85 82 79 76 75 77 75 73 45 83 136 132 138 136 141 146 148 150 149 155 156 160 158 157 161 158 154 156 158 158 157 159 153 156 154 156 160 158 157 148 150 153 150 144 140 138 132 131 135 135 129 129 124 124 123 117 72 82 132 130 132 141 144 150 152 157 159 165 160 165 166 165 164 160 160 159 161 160 157 161 160 157 161 162 162 157 161 158 160 161 158 154 150 147 143 132 126 130 131 129 126 125 123 122 72 84 133 131 134 143 147 144 147 153 159 168 170 169 167 166 166 160 160 160 161 162 159 161 161 161 162 165 164 162 161 159 162 162 160 157 155 148 139 138 134 137 131 128 127 124 125 120 70 82 130 128 136 134 142 148 145 151 157 163 173 173 172 168 169 164 161 159 161 161 160 160 164 164 164 165 164 161 163 163 164 160 161 160 157 149 138 139 136 140 130 126 118 121 125 119 70 77 127 125 129 133 136 145 153 155 159 161 173 169 168 166 171 167 164 159 157 162 162 162 165 161 164 168 166 164 167 167 166 166 160 154 155 148 135 140 143 144 134 124 118 122 122 119 70 70 123 121 137 142 148 143 152 162 166 166 175 172 162 167 166 164 161 160 158 162 159 157 163 162 162 160 157 154 158 160 157 159 157 165 162 153 144 145 139 141 138 128 120 116 119 116 70 75 124 127 138 141 133 131 142 151 159 168 173 167 168 164 151 148 146 146 149 151 153 153 160 158 156 144 147 143 147 145 144 149 155 155 155 151 139 137 126 122 130 132 126 118 118 114 71 78 126 121 121 119 106 100 96 105 120 132 138 146 147 146 144 137 135 135 135 137 141 143 151 152 149 132 136 132 133 135 139 142 138 132 123 114 105 97 93 93 103 108 110 112 116 115 69 77 118 111 107 101 102 96 95 91 97 96 103 107 114 122 126 125 126 127 130 126 131 142 149 149 144 126 124 126 127 125 123 122 109 98 96 92 80 78 81 90 99 96 96 95 110 113 68 74 115 110 104 100 106 109 105 96 79 72 67 69 75 81 97 108 117 117 120 121 127 135 137 139 130 119 113 120 124 116 99 82 77 77 76 83 81 93 91 97 97 93 94 102 112 112 69 71 108 103 103 97 96 89 86 73 62 51 51 55 58 64 67 83 99 101 104 108 120 129 133 133 121 107 100 108 105 92 77 67 55 52 61 72 69 76 85 93 98 97 94 93 105 112 73 67 105 104 103 101 92 76 64 55 52 48 45 46 44 49 56 62 70 82 90 101 120 130 128 123 114 100 80 88 81 69 61 55 49 47 48 49 53 59 65 75 82 88 93 93 103 115 74 63 104 104 101 85 58 69 89 94 87 77 62 54 40 34 40 49 55 68 75 103 123 128 125 120 108 99 70 66 60 51 42 39 46 61 77 83 84 84 77 58 57 80 89 90 105 117 73 68 104 98 93 58 78 97 86 68 49 56 37 47 52 55 38 35 48 60 85 114 132 136 135 125 112 93 70 52 44 36 40 54 57 51 40 53 48 63 79 88 69 60 88 95 98 109 71 73 108 100 85 65 78 69 77 93 53 45 29 54 55 61 51 41 42 60 93 122 143 158 153 141 118 96 73 55 41 40 47 54 70 48 30 43 45 66 63 64 77 76 75 96 107 116 72 75 117 105 89 85 97 103 104 101 65 48 46 56 94 108 65 43 54 82 103 127 150 168 163 151 122 104 83 74 54 45 53 98 121 75 49 46 50 91 96 90 88 86 99 108 112 115 73 76 119 106 102 112 105 132 129 126 107 74 71 95 128 132 104 85 76 102 110 124 148 171 165 155 120 99 89 84 69 83 110 133 140 130 91 80 107 126 126 114 101 114 106 109 119 120 75 83 133 123 121 127 117 111 127 145 152 134 127 136 135 130 117 105 106 113 114 121 151 171 160 155 121 100 96 92 75 98 109 115 116 120 125 124 127 119 112 106 111 121 122 121 125 125 78 89 136 131 128 129 126 116 110 102 106 108 105 100 97 92 88 86 109 122 111 121 151 165 157 156 121 101 99 102 84 81 91 98 97 97 101 105 105 112 111 110 113 115 122 124 126 128 78 92 144 132 130 130 129 124 117 112 109 100 92 95 93 87 80 105 130 124 112 125 153 168 157 159 126 104 105 108 112 106 92 92 94 93 96 99 102 103 102 101 105 113 119 124 127 123 74 95 150 142 131 126 124 122 121 114 110 105 98 94 90 84 103 135 132 127 118 130 155 165 157 160 129 109 109 112 115 128 122 104 95 91 88 86 86 88 92 99 102 110 118 125 126 123 74 93 155 151 142 127 115 111 109 101 93 86 83 83 87 107 133 133 132 126 123 132 153 165 158 158 129 113 111 117 117 126 137 127 106 95 86 84 85 90 96 105 113 119 118 122 125 130 77 91 153 155 150 145 128 113 102 99 94 89 91 95 114 144 142 133 132 129 126 133 152 161 156 155 130 115 113 117 119 121 136 145 144 126 112 102 102 106 116 125 128 122 121 129 139 137 78 88 148 157 157 156 149 142 131 118 117 126 138 145 147 149 146 132 133 127 127 137 153 160 157 153 136 119 114 118 121 122 134 151 154 151 146 147 141 145 142 140 130 132 133 138 133 130 75 84 142 145 153 153 155 155 163 163 162 163 159 156 151 154 146 135 131 126 128 141 153 156 156 155 144 127 115 116 118 121 130 149 157 154 158 158 161 160 160 154 146 138 137 139 133 128 76 81 136 147 145 150 156 156 160 163 166 164 161 155 156 161 146 134 125 124 132 149 158 159 156 156 152 138 118 111 114 121 132 150 156 154 160 155 159 162 157 156 156 149 142 141 140 129 75 82 129 138 146 156 153 152 163 165 162 159 158 156 161 162 150 123 116 123 132 158 171 162 165 163 157 143 121 110 106 114 130 151 154 158 161 159 156 157 149 158 162 157 153 146 134 124 73 82 128 133 143 152 156 159 159 158 157 157 158 160 161 154 133 112 124 127 130 160 202 161 176 174 170 145 121 117 114 105 115 136 153 160 160 159 157 155 158 160 160 159 145 138 126 123 74 83 132 138 145 147 155 160 156 157 153 158 160 165 160 130 108 116 127 126 125 140 175 152 160 163 167 137 117 119 121 113 101 118 144 156 159 158 158 153 156 156 157 148 134 128 126 124 73 84 133 134 138 146 151 152 152 150 156 157 164 159 137 114 104 119 122 122 118 126 132 130 131 131 133 118 110 114 114 114 101 104 126 144 154 157 155 151 151 149 150 143 137 133 128 122 73 86 136 136 136 146 147 151 148 149 156 159 160 143 123 106 109 113 105 104 113 112 106 103 108 122 117 105 103 102 100 100 106 98 107 128 144 152 151 148 145 148 145 142 140 131 126 122 71 84 140 143 140 143 144 150 149 149 156 160 150 129 113 110 120 107 73 45 53 98 91 83 88 94 97 94 55 44 66 86 111 109 101 117 131 143 145 150 145 147 142 142 133 130 125 121 73 85 139 138 142 141 144 146 147 147 153 158 147 124 116 122 135 131 81 51 39 49 67 71 76 77 83 62 51 45 58 98 120 116 107 110 127 138 143 149 147 143 143 137 131 126 119 118 71 82 139 139 138 137 143 145 148 148 150 152 140 121 122 130 140 139 125 88 87 103 91 69 59 68 87 100 98 86 96 117 123 121 118 116 124 135 138 140 143 139 137 130 127 121 118 115 67 80 134 137 137 137 139 142 145 146 149 143 131 130 133 135 135 132 130 124 121 119 119 110 92 90 99 104 103 104 108 114 117 120 121 120 126 132 132 126 131 133 135 129 125 123 117 113 66 79 130 133 136 134 135 138 142 141 144 141 140 138 136 133 130 126 127 125 124 128 130 129 122 118 116 115 111 108 107 111 112 116 115 119 124 133 132 125 123 128 132 128 124 119 116 112 68 75 128 130 129 130 129 133 139 137 137 141 140 140 135 132 131 128 130 130 130 136 142 134 124 123 132 136 126 122 111 112 114 114 116 121 123 126 127 119 114 121 127 124 121 117 115 111 66 74 124 126 124 128 129 133 136 132 130 138 138 138 137 133 133 137 135 137 139 139 138 135 129 124 133 136 134 130 124 120 121 121 116 118 117 119 121 120 115 114 116 123 120 116 114 110 65 76 122 123 125 127 131 128 128 128 123 129 134 139 138 133 132 137 134 140 139 144 143 139 137 137 140 142 133 129 124 117 119 118 113 119 118 117 117 110 114 115 117 121 119 117 114 110 67 76 123 122 124 125 126 125 123 121 120 123 126 131 131 128 128 129 131 138 142 147 149 150 148 145 154 146 129 125 117 111 111 110 106 105 99 103 106 107 109 111 118 120 114 114 111 106 65 77 124 122 123 123 126 123 123 122 118 117 117 115 117 120 123 126 131 130 128 124 112 115 127 130 128 113 102 106 102 102 99 99 92 82 77 83 89 94 100 105 115 117 116 111 112 111 67 76 123 121 120 121 126 128 124 118 114 109 103 93 85 92 99 98 91 85 79 65 62 60 69 79 68 62 60 61 63 66 72 75 71 56 44 53 65 76 87 106 115 118 115 112 111 111 66 76 122 122 125 120 119 125 124 112 101 85 69 57 51 75 88 90 87 87 87 98 101 94 86 83 85 94 99 98 97 95 92 96 98 100 86 65 55 68 87 106 115 116 111 110 109 110 67 74 123 120 125 122 119 122 122 110 92 71 65 83 109 119 112 111 111 115 117 114 116 111 109 111 105 100 102 100 95 92 93 97 108 113 110 105 90 87 93 104 111 110 105 106 109 108 67 75 123 119 124 123 117 116 114 107 98 98 112 122 127 131 122 112 105 103 100 95 86 75 70 76 71 70 74 81 85 87 92 107 118 119 116 113 105 96 98 102 103 102 103 105 108 105 67 75 123 123 123 121 116 111 104 98 96 103 116 126 127 129 128 122 107 97 88 84 82 78 73 69 71 71 77 83 90 98 102 112 113 109 109 109 107 100 97 97 95 98 101 103 107 109 69 75 124 123 121 121 116 111 100 96 101 112 116 117 121 119 118 114 104 102 95 89 82 74 70 66 68 74 80 83 90 95 94 98 99 99 100 99 99 100 97 97 92 96 100 102 105 112 70 71 123 123 117 118 114 108 102 102 107 107 107 107 106 105 101 97 95 95 89 87 89 91 96 95 90 93 93 86 83 84 92 96 93 92 90 88 93 93 94 89 92 96 98 98 104 110 67 73 117 124 118 114 113 109 104 106 102 100 100 96 96 97 96 96 99 99 107 124 139 137 133 137 140 143 142 131 122 119 116 115 106 90 87 90 97 98 98 93 93 95 97 99 107 109 65 75 118 118 119 115 112 109 106 100 99 98 97 94 96 96 98 109 115 118 130 139 147 142 139 139 144 147 139 141 139 138 132 121 109 99 96 100 101 99 96 95 95 95 97 105 109 106 65 104 125 117 119 115 108 106 107 104 100 103 102 105 111 109 112 125 135 133 139 139 134 133 128 129 134 132 125 122 133 134 131 125 119 109 99 102 100 96 95 99 100 95 102 108 106 106 65 121 180 123 117 118 115 106 107 105 102 102 106 107 110 114 122 125 134 137 130 130 125 119 111 114 121 119 116 116 129 134 125 122 114 107 104 99 96 94 94 98 96 96 105 104 104 106 66 111 215 173 122 118 116 111 105 106 107 105 108 110 111 114 122 120 118 123 122 118 115 112 106 99 100 103 105 111 114 113 110 113 105 100 101 94 93 95 96 95 97 100 103 102 104 105 74 133 186 226 163 121 118 116 109 104 103 106 104 108 109 115 117 118 116 117 106 106 106 102 93 76 81 95 100 99 94 92 91 94 96 94 94 97 101 97 95 93 98 104 103 104 107 113 104 145 195 201 224 152 120 117 115 109 105 102 106 108 110 112 111 113 110 103 95 95 93 85 80 74 73 79 83 78 82 81 85 88 88 94 99 100 98 95 96 98 104 103 103 105 108 146 129 145 226 179 214 219 141 118 115 115 112 107 102 105 111 109 108 102 102 92 87 85 85 80 80 80 90 81 70 71 69 73 80 86 91 98 95 90 94 99 100 104 103 102 104 108 123 195 136 143 234 207 182 221 214 139 119 115 115 113 109 108 97 101 107 103 95 88 83 80 75 75 77 79 80 79 77 71 71 77 85 90 91 88 86 92 98 100 103 103 102 102 106 110 171 215 132 143 231 233 193 187 222 214 141 118 111 109 110 109 105 95 89 91 94 90 81 76 72 75 73 71 75 77 80 77 78 78 79 80 84 88 92 97 97 97 98 100 100 103 105 149 211 213 127 90 142 144 138 107 122 140 126 80 70 67 64 67 67 64 60 53 48 49 49 49 48 51 52 50 49 49 47 43 42 43 47 53 53 54 57 57 58 59 60 60 61 64 72 125 133 128 72 