P2
48
60
255
46 76 77 82 86 87 89 88 89 90 90 92 92 90 92 92 90 90 90 88 88 89 88 88 89 91 91 89 90 90 92 91 92 89 89 86 85 86 86 85 80 79 81 79 75 70 65 40 75 121 123 133 137 141 142 141 146 147 146 146 150 149 149 150 149 150 147 145 144 146 143 145 143 143 146 144 145 147 150 148 149 148 144 142 140 136 139 139 132 133 130 124 119 111 105 64 75 119 122 130 134 136 139 144 148 150 151 152 154 157 157 155 156 153 149 150 150 147 148 146 148 145 144 144 148 148 150 145 148 148 147 146 143 136 135 133 132 127 127 123 115 111 104 64 74 119 120 126 133 135 141 148 150 151 155 156 158 159 159 158 157 153 150 152 153 152 149 148 151 152 150 152 151 151 154 151 152 149 150 147 144 141 136 133 130 123 123 123 114 108 104 65 72 119 122 125 131 134 141 148 148 152 154 157 160 157 155 159 160 154 148 150 154 154 150 150 151 155 154 153 152 150 152 154 150 150 150 149 145 142 138 137 132 127 121 119 110 106 104 64 73 118 121 126 121 122 135 137 142 146 152 151 152 155 155 150 151 148 146 147 153 152 147 149 153 154 152 150 150 148 151 152 149 150 149 144 139 138 138 137 134 130 121 116 110 106 103 62 72 115 120 113 95 99 106 113 113 109 118 128 131 131 138 135 134 135 136 143 146 146 142 143 154 149 147 148 146 143 147 147 144 141 138 133 127 132 133 131 129 120 107 107 109 102 99 61 70 108 112 96 86 84 90 92 87 79 80 87 93 100 101 103 109 112 120 129 136 137 139 142 153 145 138 138 133 128 131 127 118 111 98 86 88 93 92 90 88 92 90 93 100 103 96 60 69 108 92 72 77 81 80 75 65 58 60 57 60 66 63 69 82 92 105 117 124 129 134 134 142 135 126 127 119 107 108 96 82 70 61 59 58 58 56 55 50 63 73 70 72 84 87 57 67 101 84 84 79 78 71 66 66 64 61 62 59 56 56 57 66 75 90 104 117 131 132 134 132 123 122 120 112 93 82 71 64 57 56 47 46 47 51 51 52 56 62 62 67 74 83 56 66 96 87 85 72 72 80 78 75 64 55 48 48 60 69 71 73 76 87 99 113 126 140 143 140 134 127 116 102 82 69 63 57 55 52 45 45 53 61 64 63 63 62 57 58 64 82 53 69 101 90 93 94 89 80 67 64 81 93 91 84 82 87 87 83 84 88 99 110 124 145 150 145 141 131 112 90 75 70 66 64 59 54 56 61 62 56 54 63 75 76 75 70 72 76 53 69 111 104 110 107 87 74 102 124 129 125 120 115 107 99 105 106 93 97 102 106 119 146 153 152 143 123 99 83 76 74 73 78 80 88 99 109 113 112 98 74 54 77 84 82 77 75 52 71 118 115 116 106 83 105 118 118 121 117 113 111 108 105 97 103 99 92 102 109 116 136 152 150 137 110 94 85 75 73 82 87 96 106 115 120 116 119 110 103 89 64 86 95 90 84 50 73 122 123 113 96 96 100 101 101 87 70 59 72 90 105 98 92 95 97 108 118 120 128 144 142 130 103 98 87 75 72 75 88 102 110 109 103 103 111 106 93 91 82 71 102 103 90 53 74 122 124 110 95 92 83 73 68 54 102 22 66 54 74 77 80 89 103 123 120 124 127 135 134 121 102 100 92 77 69 74 81 82 62 76 30 45 56 63 81 79 80 72 85 96 97 59 73 126 122 113 96 80 76 97 97 61 42 23 46 70 104 84 65 77 105 119 119 121 128 137 132 121 102 102 98 87 67 52 61 98 72 58 23 26 50 53 57 63 69 73 79 94 102 63 79 130 124 113 97 88 97 110 106 85 74 66 79 94 108 91 84 97 108 116 118 114 125 134 130 121 100 103 99 94 81 70 75 95 95 82 59 57 72 81 81 75 62 68 85 97 103 64 84 136 128 116 110 104 110 113 112 113 106 105 106 111 107 102 105 107 114 118 117 112 129 134 130 119 97 101 101 94 90 87 91 98 108 106 100 104 104 101 94 90 78 76 81 93 102 65 88 140 133 121 117 111 114 122 124 124 123 120 119 118 113 110 114 116 122 118 111 113 126 134 132 117 96 97 107 102 91 87 90 99 106 114 115 113 114 113 109 104 90 89 93 101 113 70 88 142 134 126 124 128 127 125 125 131 135 131 124 119 121 125 126 123 120 116 109 115 128 133 127 111 97 95 100 101 101 100 99 96 99 105 111 115 117 117 109 97 88 90 98 105 115 72 87 142 139 131 137 141 141 136 129 120 125 131 135 134 128 129 128 118 116 113 110 116 130 130 124 105 95 96 96 98 100 103 107 109 114 111 106 103 102 101 100 104 107 106 108 117 120 72 84 139 138 144 148 149 148 147 144 142 138 138 134 133 133 128 117 115 115 114 111 120 135 131 120 106 94 95 95 96 98 99 106 115 115 119 124 124 127 125 127 124 124 128 123 119 120 73 80 130 141 145 146 148 148 144 143 139 136 136 137 136 130 123 120 118 115 113 110 127 135 132 124 105 94 94 95 98 102 104 107 114 120 125 127 126 128 129 131 132 131 128 126 126 117 70 78 132 139 142 140 144 146 142 141 140 141 143 139 139 139 134 125 112 112 112 117 134 137 135 124 109 99 93 91 93 99 107 115 120 124 128 131 131 130 130 132 131 131 128 124 122 114 68 77 130 136 131 136 143 142 140 141 140 143 143 145 142 127 116 111 105 106 113 128 138 138 138 132 117 98 91 89 90 92 96 105 119 128 130 133 132 131 132 131 129 128 126 124 118 110 66 77 131 134 132 138 142 143 145 144 144 143 147 140 119 100 105 109 103 106 113 136 144 144 143 141 120 96 91 86 88 89 91 90 93 112 128 133 134 135 132 130 129 127 122 123 115 108 63 78 130 128 133 136 139 141 144 147 148 148 141 119 93 89 109 110 109 110 119 142 173 159 145 156 123 97 92 89 90 92 89 88 75 84 110 130 135 136 136 133 132 128 123 121 113 109 62 78 128 125 129 131 136 138 146 149 146 137 122 96 74 105 111 112 111 106 108 126 143 146 138 128 104 91 90 91 94 94 89 91 85 66 88 114 128 135 135 134 132 126 121 113 109 104 63 77 123 124 125 129 133 139 145 147 140 127 104 73 86 117 108 99 95 86 92 103 114 123 120 104 85 80 84 89 91 90 88 92 94 74 66 97 116 129 134 132 129 123 116 107 104 103 61 70 120 120 122 126 132 136 141 135 128 107 80 67 110 120 113 95 62 54 54 88 98 103 103 93 78 52 44 54 68 79 89 94 97 90 61 76 105 119 127 129 125 118 109 102 101 101 60 67 118 118 117 118 129 134 135 132 117 96 69 91 121 119 110 102 94 95 101 97 91 88 90 82 72 68 68 65 64 81 88 92 98 94 74 60 90 111 122 124 120 112 107 98 96 98 59 69 116 115 116 120 126 130 129 122 107 81 72 113 119 112 107 102 96 88 99 102 97 77 76 78 79 78 77 67 69 78 83 85 91 92 85 59 69 95 98 112 116 110 102 95 89 95 58 69 116 115 114 120 126 130 125 114 93 68 103 111 109 102 104 100 98 92 83 82 79 67 60 64 65 60 62 67 73 75 79 79 82 86 89 79 58 78 93 105 112 106 100 93 89 92 57 69 114 111 111 120 124 127 125 111 76 90 113 104 99 96 97 96 102 100 100 95 80 67 71 69 70 80 89 85 76 81 80 82 81 82 87 91 74 67 93 107 110 108 98 92 89 89 55 69 111 114 110 118 123 127 118 96 75 114 110 97 95 96 99 104 104 111 117 124 117 108 113 113 104 112 116 107 99 95 90 88 83 81 84 89 90 74 83 105 111 111 98 90 87 88 52 67 110 115 116 118 123 125 117 82 100 115 105 101 101 110 111 113 120 128 131 135 133 126 124 124 121 128 123 115 107 100 96 94 88 85 84 90 96 93 71 103 115 112 101 89 90 86 52 65 111 116 119 118 123 127 114 79 115 111 110 103 107 115 115 114 111 119 125 126 125 130 130 127 122 110 99 94 88 81 74 74 80 84 87 92 96 102 77 104 116 112 97 87 90 88 52 65 110 114 117 117 124 132 116 87 110 106 106 103 103 94 87 84 84 93 96 101 100 100 98 92 87 77 69 66 62 57 56 58 60 71 85 92 97 104 84 105 118 112 99 88 90 87 53 65 111 114 115 116 124 136 118 94 112 101 98 92 76 69 64 73 86 82 92 80 91 90 82 79 94 84 72 74 69 81 51 29 37 59 80 90 92 103 89 111 121 114 101 89 90 85 53 64 108 113 115 115 122 134 126 96 108 96 90 75 51 43 74 116 141 140 163 126 168 171 145 137 169 151 112 124 118 128 82 30 20 39 72 91 98 103 91 117 122 111 97 88 88 84 53 63 106 113 114 113 119 130 133 100 112 106 104 85 46 66 126 142 154 163 181 161 196 210 184 180 208 182 149 155 141 135 107 33 42 77 94 104 106 106 95 128 116 105 92 85 86 87 54 64 104 109 112 111 114 125 136 118 116 118 118 113 100 82 107 127 135 149 171 166 203 200 194 193 204 189 146 138 130 115 89 65 86 93 99 106 109 111 111 135 112 98 86 83 83 87 55 63 104 105 111 114 109 122 138 130 119 125 124 118 114 105 91 87 83 104 129 120 173 181 173 179 173 159 131 116 92 88 83 88 92 92 97 106 119 115 130 133 106 96 84 85 84 88 55 62 103 107 108 109 109 119 135 134 128 130 124 120 115 110 106 105 99 88 81 82 102 115 96 109 124 119 96 99 97 95 91 88 94 95 102 109 120 121 134 119 97 87 80 84 85 84 53 62 101 107 107 109 107 110 124 133 126 130 123 121 115 114 113 110 114 115 112 109 112 116 109 114 109 107 110 117 111 98 95 93 92 97 105 110 120 125 129 105 86 82 80 83 84 85 52 60 99 102 101 111 109 108 116 132 126 127 123 120 115 114 112 114 117 128 132 138 135 122 116 119 119 130 133 119 109 103 98 96 91 102 106 111 118 132 121 95 82 80 82 82 84 86 52 58 95 97 102 106 109 108 110 131 132 124 124 121 117 112 109 117 121 123 121 124 120 111 114 116 115 114 115 110 107 102 94 93 98 103 105 106 119 127 108 82 82 81 84 85 84 82 48 55 92 94 100 102 108 107 110 126 133 118 121 124 119 114 110 108 113 115 117 111 111 110 109 111 113 111 102 99 95 96 94 96 100 102 103 105 114 116 94 81 82 82 82 83 79 82 47 61 89 92 96 101 104 106 109 124 135 121 116 122 123 116 111 110 110 106 106 110 107 105 101 104 102 99 97 101 99 101 101 100 103 106 105 99 110 111 87 79 82 82 81 73 80 76 48 72 98 88 94 102 107 110 111 119 133 127 115 119 128 123 116 115 117 112 112 110 109 106 104 101 108 110 110 111 106 107 104 107 109 105 97 101 109 102 83 84 85 85 79 77 76 77 109 70 118 97 89 97 108 111 114 116 128 127 115 116 126 130 124 123 122 124 125 124 124 120 119 116 115 123 123 120 116 114 109 114 114 103 97 97 102 89 84 86 85 81 78 76 73 93 139 70 122 116 90 94 104 111 113 112 119 122 118 109 120 135 130 123 124 125 132 131 132 129 125 125 121 125 124 123 123 125 103 110 114 103 92 97 96 84 84 86 83 76 76 71 83 110 148 68 119 119 107 90 95 104 108 107 111 120 121 109 116 133 136 133 131 133 131 131 130 130 125 125 123 125 128 125 126 128 120 118 109 97 88 90 86 83 84 86 81 76 71 80 94 124 152 68 121 124 115 100 89 97 106 104 106 110 119 113 110 122 132 134 132 131 131 136 130 130 126 123 123 123 128 122 121 124 121 112 102 92 91 88 80 83 83 82 80 69 73 89 93 138 153 67 119 123 118 108 99 88 96 99 102 103 110 112 110 114 125 127 130 134 130 131 130 127 120 122 126 125 122 123 124 118 110 102 92 91 86 83 77 81 83 81 71 71 83 92 94 156 153 68 118 122 119 114 108 96 86 91 96 101 102 104 109 110 114 124 126 128 122 128 123 121 118 119 120 119 120 120 118 109 106 96 89 86 81 78 76 80 78 70 71 81 88 94 92 169 154 68 120 124 120 117 112 106 94 83 84 91 97 98 101 107 108 121 119 119 117 121 119 118 118 111 113 113 113 115 111 104 94 89 85 80 75 73 77 75 67 69 80 86 91 96 91 179 154 67 119 125 121 117 114 112 104 94 79 78 84 90 95 97 100 105 112 114 120 121 122 119 116 110 111 114 108 110 101 90 82 81 76 73 70 72 70 66 69 79 85 90 93 94 92 186 154 40 74 76 76 72 72 69 67 63 56 48 46 51 53 52 55 59 64 68 71 74 72 73 71 69 68 69 67 65 57 50 47 45 42 43 42 42 41 42 47 53 53 58 59 59 58 119 95 