P2
48
60
255
12 28 36 39 43 46 46 46 45 42 32 27 25 25 25 25 28 33 37 40 42 29 38 38 48 57 57 60 64 67 67 68 69 72 75 75 73 73 70 68 65 63 62 57 53 45 31 15 27 56 62 66 71 73 76 77 79 79 70 61 54 51 53 54 57 59 63 69 71 59 58 71 76 101 100 105 103 107 116 120 117 117 124 124 123 122 114 107 107 103 101 96 88 76 52 23 36 64 68 70 73 77 79 83 85 85 87 84 79 74 74 78 77 74 79 83 86 87 79 93 106 114 113 108 113 115 119 124 122 122 122 123 122 119 115 107 107 103 100 97 87 81 59 22 39 66 70 72 77 80 83 86 90 95 96 98 98 99 100 103 104 100 103 107 111 112 113 117 122 123 118 119 116 119 125 126 126 126 126 127 126 124 117 112 108 104 98 96 87 81 69 23 39 66 69 72 79 83 89 91 96 101 105 107 112 114 116 115 115 116 112 119 120 119 122 126 128 129 130 127 123 125 126 131 135 135 135 133 130 129 123 114 108 102 98 95 87 82 73 26 39 67 67 74 80 83 82 82 90 95 104 113 116 119 122 120 120 122 119 123 124 127 125 128 128 131 132 131 125 129 128 133 137 137 137 132 125 122 113 106 106 108 99 96 90 83 77 29 40 67 68 72 75 66 60 62 69 76 88 101 108 114 120 120 122 120 120 123 125 126 123 124 127 130 131 124 122 128 127 130 131 127 126 116 104 95 89 86 93 102 101 96 91 86 79 33 39 65 65 60 55 50 47 46 50 52 57 67 76 85 99 103 106 109 110 114 118 119 118 118 121 122 121 110 105 109 102 100 98 89 86 81 72 73 64 63 65 77 86 97 91 87 81 39 39 63 58 47 43 40 41 42 41 40 40 40 47 50 56 69 78 83 93 103 108 109 108 107 111 112 107 98 84 78 62 57 55 52 52 50 50 52 53 52 52 52 61 81 90 87 84 47 40 62 52 40 38 38 40 38 39 37 35 35 33 34 38 46 55 66 79 91 99 99 99 97 98 100 91 78 69 58 52 47 42 38 38 38 39 41 45 47 50 48 46 55 83 89 87 53 40 60 51 49 48 46 46 43 41 35 34 34 37 36 37 40 44 55 64 79 83 88 91 90 90 86 80 68 60 51 42 38 39 38 37 35 39 44 51 57 58 58 52 55 75 90 90 55 40 59 55 58 62 61 61 60 58 57 54 50 45 43 45 45 46 51 60 70 73 76 79 83 81 75 73 66 59 51 46 45 46 46 48 55 64 76 82 83 81 80 76 73 78 86 88 55 40 61 59 62 63 68 71 73 76 77 76 71 62 53 47 44 44 46 51 56 63 71 75 73 74 70 64 61 54 49 46 46 48 53 60 69 80 90 95 95 94 90 86 84 82 81 86 55 39 61 59 61 63 64 65 65 65 65 64 64 60 56 51 47 44 42 44 51 56 65 69 69 68 66 61 56 52 47 47 48 47 46 49 55 65 73 80 84 86 85 82 80 80 80 84 53 39 60 55 55 53 45 42 46 51 53 52 49 43 40 37 41 45 43 42 48 55 66 78 79 80 74 65 56 48 46 45 40 34 31 34 30 28 30 34 40 47 56 68 74 76 79 81 52 40 61 55 49 39 35 35 34 34 36 33 24 22 23 26 29 38 46 46 50 60 76 90 92 91 85 72 59 51 50 44 38 39 52 67 51 25 25 27 34 32 38 49 64 72 78 84 55 44 68 60 50 46 42 41 47 54 64 63 37 31 38 51 42 36 50 58 56 67 84 104 114 110 97 85 74 76 62 55 64 69 71 78 76 62 68 73 67 57 50 55 64 73 83 91 59 48 76 72 67 64 59 59 65 73 80 81 83 79 87 92 88 79 72 74 68 74 87 106 116 116 105 97 92 96 85 81 84 86 88 89 87 88 91 88 83 75 73 75 81 89 98 102 64 50 82 82 76 74 66 60 65 75 82 87 87 84 82 81 80 81 81 81 81 80 92 111 118 115 104 102 105 102 90 79 66 65 71 77 83 89 89 87 82 77 85 94 102 107 109 107 65 51 85 87 83 84 81 68 58 59 61 62 61 60 60 66 80 93 88 86 88 83 91 116 123 122 106 104 110 105 106 101 93 79 65 60 64 69 73 76 84 96 108 112 114 116 115 111 67 52 89 91 94 98 100 100 93 85 79 77 81 87 96 103 102 100 93 91 93 87 94 118 127 128 113 109 114 109 111 112 110 113 110 101 90 84 85 96 110 120 127 126 123 120 118 115 69 53 92 97 100 105 111 117 116 114 113 111 112 111 112 113 107 100 95 94 94 92 100 119 127 129 115 111 115 109 112 117 119 121 122 125 123 121 122 123 128 130 132 132 129 123 119 118 68 52 92 98 99 109 119 123 122 122 120 118 120 121 114 114 107 102 96 92 98 97 104 120 129 126 119 113 113 110 109 118 122 126 125 125 131 129 132 132 133 132 136 138 133 126 120 118 68 50 86 91 100 111 118 123 124 121 122 124 123 121 119 113 107 100 95 96 96 99 107 120 130 129 119 113 108 109 110 116 120 126 130 127 133 134 131 131 127 132 139 140 135 124 118 112 66 49 81 89 97 106 115 120 123 122 123 122 122 121 121 114 106 98 93 88 89 96 107 122 131 133 124 111 103 100 104 112 118 124 131 130 130 130 128 130 132 139 135 137 131 121 115 111 67 48 79 87 95 101 112 118 118 119 123 121 118 119 119 113 103 88 76 74 81 92 106 121 127 131 126 113 102 90 83 93 108 117 123 128 128 127 122 127 133 138 138 133 123 118 113 107 65 47 79 85 95 104 112 117 115 118 119 122 120 119 116 103 91 73 67 73 81 91 103 114 128 132 124 115 102 93 86 76 83 103 116 123 126 127 121 124 133 141 141 132 123 118 112 107 63 45 77 79 92 104 107 114 119 117 118 120 120 118 109 93 75 67 78 90 91 91 104 121 135 134 126 119 106 101 101 90 76 79 100 113 118 124 124 125 130 134 140 136 125 115 108 104 63 45 78 80 89 99 104 110 114 115 114 113 114 109 96 81 69 71 93 103 97 98 105 126 138 139 130 122 115 111 109 102 85 69 79 97 107 115 118 119 126 131 133 129 120 115 106 102 61 44 75 79 87 94 101 104 109 108 107 107 106 100 84 70 64 76 98 109 102 102 105 119 125 131 132 126 119 116 118 111 93 73 63 79 94 106 112 115 122 121 125 124 115 108 104 99 60 41 73 77 82 88 96 99 103 104 103 102 99 89 72 63 62 76 92 102 100 95 93 102 109 116 118 112 114 122 119 109 95 75 62 61 79 94 104 107 111 110 116 116 110 103 101 97 59 42 71 73 78 82 89 95 98 99 96 94 91 79 62 65 65 69 79 86 84 78 74 85 93 99 97 87 86 93 92 91 84 72 69 56 65 81 89 98 105 106 103 104 105 104 99 96 58 42 70 70 73 77 79 86 89 93 90 86 80 66 61 70 68 62 61 58 51 48 57 68 76 80 79 67 47 43 46 59 71 75 79 63 56 69 76 82 95 99 99 99 102 99 95 92 54 42 70 69 68 73 75 78 82 84 83 79 69 54 68 73 72 66 45 31 30 31 33 49 59 61 58 43 36 37 41 58 77 83 88 77 58 60 70 78 88 93 95 96 95 95 91 90 54 42 69 67 66 67 71 73 76 78 76 69 54 58 70 73 74 73 61 41 36 35 35 33 36 42 46 48 51 57 68 79 86 91 93 91 69 55 62 71 80 86 87 89 90 90 89 88 55 41 67 65 64 65 67 70 72 73 67 58 49 62 66 68 72 74 70 63 59 58 56 50 48 52 59 65 72 79 85 89 92 91 93 92 79 59 58 65 73 79 85 84 87 88 88 87 54 42 66 64 64 64 65 68 70 69 64 51 56 64 65 68 73 73 75 75 75 75 76 73 72 72 74 76 86 93 97 94 94 94 94 92 87 74 56 60 65 76 80 82 85 84 86 87 54 42 66 64 64 64 65 67 66 66 60 52 67 69 65 69 74 76 77 82 85 88 89 90 87 82 86 88 101 104 106 103 103 97 98 93 89 85 67 59 65 73 80 80 82 84 87 88 53 42 67 63 64 65 65 67 66 63 63 61 69 66 62 66 71 74 78 84 85 91 96 104 101 95 102 107 108 109 106 105 102 98 95 88 84 88 82 60 71 74 80 82 82 82 85 86 52 44 67 64 64 63 63 66 67 72 70 67 69 61 49 56 62 65 67 72 72 69 73 85 87 90 87 84 84 86 88 89 85 85 80 69 78 87 89 67 79 85 87 85 83 82 84 84 53 47 67 64 63 62 62 65 71 78 81 74 67 56 37 30 32 37 41 43 45 47 48 50 51 55 55 52 50 50 49 48 48 45 37 37 64 83 90 82 92 94 87 85 83 82 81 83 54 50 69 64 63 62 64 67 74 81 89 82 69 64 61 56 41 30 24 30 29 41 40 42 44 44 46 51 49 46 46 32 37 42 51 70 79 81 88 92 96 102 91 87 87 83 80 82 55 89 74 65 63 62 63 65 71 80 90 91 79 78 82 77 67 60 59 60 53 59 54 61 61 57 65 77 71 55 66 72 73 71 84 92 95 92 92 105 102 103 92 86 84 84 80 82 56 144 94 67 63 62 62 64 67 78 91 95 85 84 92 90 80 73 70 75 77 81 92 88 84 84 87 86 89 87 90 88 85 90 97 98 101 98 93 102 102 95 90 85 80 81 80 84 61 157 150 70 63 61 61 64 66 78 87 89 87 88 92 92 88 78 74 73 79 76 88 92 91 91 96 95 96 99 86 84 85 94 102 105 105 96 88 97 96 90 86 84 81 79 79 88 67 157 157 79 63 60 62 62 65 68 78 84 85 86 91 93 87 78 76 75 73 75 79 77 76 76 79 82 84 82 80 82 87 93 100 104 102 94 90 90 93 87 84 81 78 77 78 94 72 155 163 99 65 61 61 61 61 62 70 78 84 84 86 91 89 80 74 72 70 70 69 67 66 68 69 69 73 75 81 84 85 93 97 99 96 92 90 88 89 85 81 78 76 76 81 101 70 95 131 112 72 61 59 59 59 60 66 74 84 84 88 86 88 83 77 70 68 67 66 62 60 61 62 63 68 72 74 79 84 93 95 96 96 91 89 88 84 81 78 75 74 75 84 103 55 65 120 115 87 61 59 58 59 59 62 69 78 84 88 86 88 86 81 75 70 66 66 64 61 59 63 67 70 75 77 84 90 94 96 94 95 92 88 86 82 78 74 72 73 76 90 91 44 56 112 114 98 62 57 57 56 59 60 65 72 81 87 87 89 91 86 82 79 77 76 75 73 67 70 74 75 78 81 87 91 93 93 94 95 93 88 84 78 73 70 72 72 78 85 78 44 51 103 112 106 75 52 56 55 57 59 62 67 74 84 86 88 91 93 90 86 87 86 84 83 84 83 85 85 84 88 93 93 96 95 92 92 89 85 79 73 69 68 70 71 77 73 71 57 61 122 114 107 95 57 51 55 55 56 60 62 69 76 82 83 86 95 97 92 91 93 93 92 96 96 94 94 93 97 98 100 101 97 91 89 84 81 74 69 68 66 69 72 67 68 78 79 69 133 122 106 103 82 46 51 53 53 56 59 64 70 77 81 81 90 99 93 88 96 100 98 99 105 104 101 103 103 104 107 106 99 88 86 80 77 69 66 66 66 68 66 63 71 119 94 66 133 128 109 103 98 73 41 52 52 52 56 59 63 69 75 78 87 95 97 95 96 100 101 100 107 109 108 108 109 110 107 102 93 87 83 75 70 65 63 63 65 65 57 66 112 151 95 59 127 136 116 103 99 92 66 42 51 51 53 55 58 61 68 73 77 79 89 92 98 97 101 102 104 108 109 106 107 107 102 97 87 82 77 68 65 62 61 64 64 54 64 111 148 151 91 58 117 145 126 112 100 98 88 63 42 52 51 52 54 58 61 64 67 71 79 82 91 92 98 99 99 100 103 100 96 95 89 87 80 77 69 64 61 60 62 62 51 69 118 149 148 145 102 64 103 141 140 122 109 99 95 85 63 43 52 52 54 54 56 58 60 62 68 74 80 84 85 91 88 90 91 88 86 81 75 73 71 70 64 61 60 61 61 52 83 129 147 144 144 165 106 65 94 128 145 133 119 106 96 94 84 63 43 52 54 54 54 52 54 55 59 64 67 73 73 78 79 78 78 79 73 69 64 63 65 64 61 60 60 60 63 110 140 145 138 141 164 168 102 67 95 114 137 144 129 118 107 96 93 85 65 43 48 54 54 53 52 51 52 56 60 62 67 67 67 70 68 67 62 60 57 57 60 60 60 62 64 87 128 144 141 134 141 165 170 162 96 40 61 70 77 88 85 77 71 64 58 58 52 39 25 29 35 34 33 32 32 32 34 34 35 37 37 38 39 37 35 32 33 34 36 37 38 42 59 81 88 85 80 88 100 104 102 96 57 