P2
48
60
255
25 39 41 42 41 42 43 42 44 45 48 48 49 49 50 53 53 53 54 56 56 57 56 56 55 57 56 53 56 56 56 56 56 56 55 54 53 52 52 52 50 52 51 50 47 48 45 27 38 63 65 68 68 68 69 70 71 72 76 77 77 80 82 86 86 87 88 90 91 92 91 91 92 92 91 90 90 91 90 90 91 88 89 89 87 86 85 85 83 83 81 81 77 73 73 45 37 62 64 66 69 69 69 70 72 72 75 76 79 79 82 87 87 89 89 90 92 92 91 92 94 95 93 92 92 93 91 90 90 89 90 88 87 85 86 85 83 84 81 79 75 73 71 43 37 59 61 65 69 68 69 69 73 73 72 78 79 83 86 86 89 89 91 91 94 97 95 94 98 95 95 94 96 95 95 93 92 93 91 88 88 84 84 84 84 83 81 79 74 71 68 40 37 59 60 65 69 69 69 71 74 73 74 77 81 85 88 90 92 93 93 95 99 101 98 97 99 98 96 97 98 99 96 97 100 96 91 90 88 86 84 84 83 81 80 75 72 71 71 43 37 60 61 64 66 69 68 72 73 73 77 80 85 88 90 92 95 96 95 97 101 103 99 97 98 99 97 98 99 98 99 101 102 95 93 91 90 89 87 86 85 82 80 75 71 69 70 43 37 60 60 62 65 69 71 73 74 76 78 80 85 89 89 92 92 95 94 96 97 98 94 92 94 94 94 95 95 97 97 96 97 91 92 91 92 91 88 87 86 85 80 77 71 69 71 43 37 60 59 62 67 70 73 73 77 79 79 80 81 83 87 87 86 86 87 89 94 93 91 90 89 90 88 89 85 83 82 83 78 73 75 82 85 88 87 85 84 84 83 78 73 70 70 43 37 60 59 63 67 70 70 71 74 76 72 66 59 57 60 64 69 74 73 76 83 89 89 90 88 84 79 75 70 60 52 46 46 48 49 51 62 71 75 71 75 74 77 79 73 68 67 42 36 59 59 63 61 63 65 62 61 55 48 41 40 42 45 50 55 59 60 65 74 83 86 90 85 76 70 66 57 51 46 44 42 40 39 40 45 51 58 63 67 70 61 62 63 66 66 41 35 57 58 53 49 52 55 51 50 47 43 41 40 37 38 44 48 52 54 60 70 79 81 86 87 78 65 61 51 48 41 39 37 34 34 36 39 43 47 50 47 48 53 57 56 62 65 41 34 56 49 51 46 52 50 47 38 38 39 34 33 33 34 37 43 46 50 57 68 81 84 88 92 86 73 63 53 46 41 37 35 34 33 34 37 40 44 48 48 47 47 48 55 63 66 40 34 52 44 40 40 39 41 39 36 35 32 32 31 31 32 33 35 38 45 56 70 84 88 92 94 91 82 69 54 43 38 37 35 35 38 45 52 57 61 66 62 60 58 60 61 66 66 40 33 51 47 46 45 45 48 51 56 54 51 45 37 33 32 33 34 36 44 56 69 82 85 90 95 91 82 68 57 45 40 36 43 55 65 67 69 80 66 58 62 69 70 68 69 69 65 41 34 50 51 51 53 55 56 51 56 60 51 43 43 43 44 36 35 38 47 56 64 78 87 90 89 90 78 71 59 50 47 48 52 47 37 34 35 42 54 69 57 56 68 71 72 71 67 42 34 55 55 55 56 53 46 49 40 29 28 25 42 56 51 39 38 47 53 58 61 76 88 91 91 91 78 73 69 60 46 41 59 51 60 24 50 34 41 43 53 54 56 69 74 76 71 44 33 55 55 54 51 40 39 37 39 31 35 20 53 60 87 46 33 48 61 59 62 78 87 87 89 90 79 72 76 58 41 47 81 55 41 21 22 34 52 57 40 49 56 66 73 76 74 45 35 59 56 51 43 38 35 53 46 36 24 22 40 70 91 57 55 58 62 59 64 77 84 85 89 86 76 72 73 73 68 59 77 69 44 40 39 42 74 69 65 62 59 67 74 77 75 45 38 59 57 50 46 48 59 61 66 43 40 41 53 81 78 71 65 63 60 58 65 77 82 84 88 84 74 69 72 78 76 70 76 80 71 64 69 81 81 77 73 74 75 72 74 79 78 46 39 61 58 53 58 58 63 69 74 72 73 70 74 76 74 68 64 61 58 59 62 73 82 85 85 81 73 69 72 76 78 72 70 73 74 76 79 81 79 80 81 83 84 83 80 82 81 46 41 64 61 63 67 66 66 65 70 72 72 71 74 75 74 68 63 61 59 60 61 71 80 84 83 78 72 71 72 75 77 75 77 80 79 81 85 88 90 91 92 92 91 89 86 85 82 48 41 67 68 69 71 73 73 72 74 74 77 81 85 81 76 68 64 60 58 60 62 68 79 84 83 78 71 72 74 75 78 81 83 87 91 93 92 95 97 98 98 97 94 91 88 86 81 48 43 71 71 71 74 80 82 85 86 88 90 90 89 82 74 69 62 61 58 61 62 68 77 83 84 79 72 71 73 77 80 83 87 90 94 96 96 97 100 101 100 99 97 94 90 86 80 47 43 71 74 73 78 83 85 88 90 90 91 91 85 78 74 69 63 61 60 61 62 69 78 85 85 81 76 71 73 77 79 83 89 92 92 96 97 99 98 99 99 98 96 95 90 86 80 48 42 71 74 77 81 86 86 90 90 89 88 84 81 78 72 67 63 61 60 60 64 71 80 86 90 85 77 72 72 75 79 83 88 92 98 97 96 98 101 99 99 98 97 95 90 85 80 46 41 72 76 80 83 86 87 87 90 86 84 84 82 77 71 66 64 61 60 61 65 74 87 88 91 91 79 73 72 73 79 83 86 90 96 101 99 100 98 99 101 97 95 93 89 84 78 46 40 70 75 79 82 86 87 87 88 86 87 84 80 75 70 65 63 58 60 61 67 79 98 90 92 102 84 75 72 71 78 83 86 88 93 97 98 100 100 100 99 97 93 92 85 83 77 47 41 70 75 80 83 85 88 88 86 87 85 82 77 72 67 66 61 59 61 60 62 69 81 83 80 83 76 71 71 70 73 83 87 89 92 94 96 95 97 99 97 94 88 88 85 82 77 47 41 69 73 76 78 81 85 86 86 85 86 82 76 70 66 64 61 60 59 55 53 55 64 70 67 67 63 64 65 69 69 83 85 84 91 93 93 94 97 97 95 88 85 85 84 80 77 46 40 68 71 74 77 80 81 83 84 85 82 79 73 68 67 65 60 58 54 43 37 46 51 54 55 56 47 34 40 59 66 79 86 85 88 90 91 94 96 95 91 88 85 84 81 78 75 45 39 67 69 72 75 78 80 81 83 83 80 76 70 67 65 63 57 52 39 21 20 33 44 41 44 53 40 25 28 48 63 78 85 86 86 89 89 92 94 92 89 86 85 81 77 76 73 43 38 63 68 71 74 75 77 81 80 80 78 73 67 66 66 63 55 46 32 26 35 55 54 48 53 66 68 55 38 45 61 80 85 84 84 86 88 89 90 88 85 84 81 79 76 73 72 42 37 63 65 69 72 74 75 79 79 79 75 70 66 67 66 64 57 45 37 41 57 61 64 66 68 73 74 69 55 52 71 82 86 85 85 86 88 88 88 87 84 82 81 78 74 73 69 41 36 61 63 66 68 71 73 76 75 77 74 69 67 68 66 65 65 53 41 47 60 71 74 76 79 81 79 68 57 70 81 84 86 87 86 85 88 87 88 84 84 82 79 75 72 71 67 40 35 59 62 64 64 67 69 70 73 75 74 69 67 69 68 67 68 67 65 67 68 79 80 77 81 83 83 79 78 84 86 83 86 86 88 87 86 83 85 85 83 79 78 74 72 69 64 41 33 57 59 61 63 66 69 71 73 76 74 73 72 72 73 75 77 75 74 72 77 85 83 80 81 89 88 83 82 85 87 87 87 88 90 88 87 87 85 84 83 79 76 74 72 67 65 41 34 56 58 59 61 65 68 70 72 74 77 77 77 77 79 80 79 75 76 75 85 91 87 82 81 89 92 87 85 84 86 89 89 88 89 91 91 89 85 84 81 77 73 72 70 66 65 41 33 55 58 59 61 64 66 69 72 74 78 78 77 78 82 80 78 74 74 76 85 91 88 81 82 88 90 88 83 80 83 86 86 87 86 89 88 87 85 83 79 77 73 71 69 65 66 41 34 55 57 59 60 62 65 68 71 76 79 77 75 76 78 78 74 72 72 76 85 88 88 87 85 89 89 85 84 79 80 82 82 84 85 84 84 85 85 81 79 76 74 69 66 66 66 41 33 55 56 58 60 61 63 67 70 74 76 73 72 75 76 73 69 70 72 79 86 91 87 87 87 88 92 88 89 83 78 77 79 81 84 84 82 85 85 81 78 75 71 70 67 66 67 40 34 55 55 58 59 59 63 65 68 70 72 71 71 71 73 70 68 72 76 80 85 89 86 87 88 87 84 85 89 86 79 78 76 82 79 81 78 78 81 78 78 73 70 68 68 66 67 40 35 55 56 58 59 59 61 62 65 67 67 67 67 68 67 68 71 75 71 67 59 57 59 67 70 61 57 57 65 75 77 80 78 78 74 76 77 75 77 77 75 72 71 69 66 66 66 40 34 56 56 57 57 58 59 61 63 63 66 67 64 63 64 65 64 57 51 48 47 47 46 53 55 50 45 46 49 51 58 70 73 67 68 73 75 76 76 75 75 71 71 69 67 66 67 40 34 56 56 57 57 58 60 61 61 62 66 67 62 59 59 51 43 44 46 45 35 35 41 42 48 47 42 41 45 46 42 44 54 54 58 68 74 76 76 74 73 70 72 70 68 67 67 48 34 55 55 57 56 57 59 60 60 61 61 55 49 43 38 35 40 47 52 62 63 72 76 76 81 82 83 77 72 65 58 51 49 47 49 62 72 75 76 73 71 71 72 69 68 67 68 72 35 56 56 56 57 57 59 62 62 61 59 53 40 39 43 51 60 69 73 82 81 83 86 84 87 91 93 90 81 76 77 77 79 77 74 72 72 75 76 72 71 72 71 70 68 67 70 108 34 55 55 56 56 57 58 62 62 64 64 62 62 62 62 62 64 67 74 78 79 78 78 76 75 74 75 75 73 74 73 75 78 82 82 77 74 73 73 70 70 71 70 70 65 67 85 127 33 54 55 56 56 56 56 60 61 63 65 70 71 64 59 58 58 58 58 59 58 58 55 55 57 61 63 67 69 70 73 75 76 77 78 76 73 69 68 70 71 70 71 68 67 67 115 135 34 54 56 55 55 56 57 59 60 63 64 67 66 61 59 56 54 54 55 57 59 57 56 57 58 64 67 68 69 71 71 72 74 73 73 73 72 69 70 69 70 69 69 68 66 68 134 137 33 54 54 55 56 55 58 58 58 60 63 62 63 61 58 57 55 53 54 55 59 60 62 64 64 64 65 65 67 68 68 66 70 70 72 71 72 71 69 68 69 69 69 67 66 70 148 138 34 55 56 56 54 55 55 57 57 58 60 59 58 59 58 56 57 55 54 53 55 58 63 66 68 67 67 66 66 65 65 65 67 69 72 73 72 71 68 67 68 68 68 65 63 73 158 139 35 53 54 55 55 55 55 56 57 58 58 59 59 57 54 55 56 55 55 56 56 58 63 66 69 68 66 66 66 65 67 67 69 72 74 74 73 69 67 68 65 68 66 63 67 69 170 141 34 54 52 54 55 55 54 54 57 58 59 60 60 59 57 56 56 57 60 61 65 68 70 69 72 74 71 69 71 73 75 73 73 75 77 74 72 69 67 68 68 65 63 63 68 68 178 141 34 53 50 51 54 55 55 54 56 57 57 63 64 64 64 63 62 64 67 69 70 65 69 74 79 84 82 79 77 78 69 75 78 79 78 75 72 70 69 68 67 63 62 65 67 68 188 143 35 54 49 49 52 53 54 55 56 57 57 61 63 65 70 71 69 69 73 74 75 77 81 83 86 87 84 82 80 80 76 79 81 82 78 74 72 70 68 67 64 58 59 65 69 68 193 144 36 56 51 47 49 52 53 55 56 56 57 60 64 68 70 73 73 72 75 78 78 80 83 83 81 78 80 82 79 81 82 80 81 81 76 73 71 68 67 63 57 54 61 68 70 69 195 145 35 58 55 50 46 49 52 53 54 55 55 59 63 68 68 71 70 71 75 77 78 78 78 77 77 83 83 81 78 81 81 82 79 75 72 70 67 66 63 57 53 60 67 69 69 69 197 145 35 57 57 55 49 47 49 52 53 55 56 58 63 65 68 68 66 65 71 73 74 75 74 73 75 78 77 79 80 79 80 78 77 74 70 67 65 62 58 55 58 66 69 69 69 69 202 147 36 58 57 58 54 49 47 49 53 55 54 56 59 63 65 65 63 61 63 67 67 68 67 65 66 70 73 76 77 76 75 74 72 70 66 65 62 57 55 56 65 69 69 70 69 69 201 147 22 35 35 36 35 33 31 29 31 33 34 34 35 36 38 39 39 38 38 40 40 40 40 39 39 42 44 44 45 46 45 42 42 41 40 38 35 34 35 38 42 43 42 43 42 43 126 91 