P2
48
60
255
41 69 72 72 75 77 79 81 82 84 87 90 91 93 93 90 93 95 97 97 96 95 99 98 98 100 100 100 100 100 101 100 100 100 94 91 89 86 83 80 78 78 75 74 72 68 64 39 66 111 115 119 124 124 127 129 133 137 141 147 148 148 149 151 146 153 156 156 156 157 159 158 157 159 162 161 159 159 160 154 161 161 154 149 143 138 133 129 126 124 122 121 116 110 103 63 66 109 112 117 120 118 125 128 133 136 140 149 148 153 155 156 156 155 156 156 157 157 157 158 156 159 159 160 158 155 159 157 163 163 158 150 142 138 133 130 125 122 122 120 116 109 104 62 65 108 113 115 112 123 124 128 133 137 141 147 154 159 160 162 161 161 160 157 160 160 160 157 157 159 161 157 160 160 162 163 163 163 158 151 145 142 137 135 130 124 120 119 114 108 103 62 65 107 111 115 118 122 124 124 134 139 141 148 157 159 163 163 162 163 164 157 157 162 162 160 159 160 160 161 162 160 164 163 163 162 155 152 146 144 141 138 135 128 122 118 111 104 101 63 64 105 110 116 120 124 126 131 138 142 144 151 156 160 166 164 165 164 162 160 160 162 160 163 160 165 162 163 161 159 159 158 156 155 152 148 146 144 141 140 137 131 125 119 110 102 100 63 64 103 108 112 118 123 128 135 141 143 142 150 151 156 154 156 158 160 154 153 157 156 159 162 155 162 162 151 152 151 152 152 152 148 144 140 135 137 137 138 132 126 119 111 107 101 98 61 62 102 107 112 119 122 127 129 134 135 137 137 137 142 145 144 146 146 146 151 151 151 155 154 153 154 150 143 140 135 137 134 127 125 125 123 118 116 113 108 109 102 98 94 96 93 91 58 61 99 107 108 100 100 100 104 105 105 109 115 118 119 123 123 123 117 117 128 133 139 144 147 146 144 143 134 127 115 107 94 83 77 83 83 80 80 83 79 76 70 68 68 75 75 79 53 59 95 91 82 75 77 75 69 71 71 67 67 68 70 69 71 78 96 91 98 112 119 134 139 140 140 132 115 101 86 81 65 53 45 43 44 45 49 48 55 56 55 52 49 53 58 60 38 56 82 73 66 57 63 59 58 53 51 46 42 39 41 43 45 53 62 72 82 95 107 119 130 139 128 124 108 89 74 66 59 46 39 37 35 36 40 43 44 51 53 55 58 59 57 60 37 45 64 59 49 50 51 56 51 48 43 40 37 38 41 43 45 51 55 64 72 82 95 111 129 139 120 111 102 81 66 60 53 51 45 44 50 61 69 78 79 84 85 81 77 70 61 57 41 41 59 57 60 69 70 74 78 80 78 73 67 62 52 51 54 57 60 65 69 79 98 116 132 136 128 117 99 82 72 66 61 56 50 53 67 77 94 97 94 104 103 97 87 80 82 75 42 43 69 71 78 84 93 97 95 95 83 72 67 53 51 47 48 55 66 72 78 89 106 121 140 148 138 125 109 92 81 75 59 52 52 46 50 51 57 62 66 76 83 93 92 87 87 86 48 56 85 88 90 95 96 83 69 73 52 42 33 36 35 40 48 58 64 77 91 96 106 129 144 148 128 120 108 95 85 66 57 47 45 45 34 33 37 39 44 62 70 75 95 94 95 96 58 57 95 98 99 96 72 70 50 50 37 56 27 41 37 59 46 48 66 85 99 107 108 130 146 148 136 126 107 101 93 74 43 56 70 40 28 27 35 52 55 43 50 66 80 96 100 100 60 63 104 103 99 76 66 48 60 73 49 36 28 33 56 106 74 49 63 99 107 107 106 130 144 142 141 126 105 104 106 69 54 80 105 68 50 50 57 82 76 72 62 62 74 91 101 100 62 68 106 103 96 81 71 78 86 98 90 69 65 78 102 116 110 107 103 108 105 106 109 129 143 142 141 132 106 100 105 101 106 112 113 116 107 101 102 102 93 88 83 88 86 92 104 107 66 69 107 101 93 93 102 98 100 109 110 114 111 109 112 114 115 122 118 111 107 103 113 128 137 138 138 137 111 98 102 105 102 101 105 106 113 110 111 108 104 103 103 110 113 113 114 113 69 74 116 114 116 119 114 106 107 108 111 113 106 101 102 108 113 118 114 111 103 101 115 126 133 137 133 132 117 102 102 104 103 108 111 114 106 103 102 104 109 111 118 122 125 124 123 117 70 75 120 123 125 127 127 120 116 111 108 103 112 118 121 123 122 122 119 107 103 102 112 130 134 136 134 130 111 101 99 103 106 115 121 130 130 132 134 132 134 135 133 128 128 129 126 121 71 76 128 129 128 132 134 137 139 135 133 136 134 130 129 132 129 125 117 106 105 103 119 130 131 134 131 126 115 104 101 102 109 116 125 129 130 135 139 141 141 139 139 134 134 131 125 122 71 77 128 126 131 134 136 136 141 136 137 138 131 134 130 133 131 122 109 109 107 104 117 123 133 133 134 130 112 103 106 102 106 118 124 128 129 134 135 140 143 143 143 140 137 134 128 119 71 78 127 133 136 135 130 142 139 135 137 136 131 140 137 132 130 118 110 107 107 108 113 125 130 132 132 125 111 105 107 106 107 116 124 129 135 136 137 142 144 145 147 145 140 138 130 120 69 75 127 136 138 141 145 144 143 142 140 141 143 144 142 136 129 118 115 109 113 115 116 122 130 135 132 121 111 108 108 105 111 117 127 138 141 140 139 142 143 146 148 147 145 136 132 120 70 76 130 135 132 141 148 143 144 146 145 144 144 144 141 140 136 122 109 109 115 114 113 121 131 136 130 120 112 109 106 103 106 117 127 137 146 144 142 145 147 145 147 145 140 134 129 119 70 75 129 134 130 139 145 146 148 148 148 146 145 145 147 147 136 116 105 112 121 114 111 120 136 143 136 119 113 110 110 104 101 115 128 139 151 150 145 147 147 152 150 145 136 132 126 117 69 74 129 135 139 142 143 144 148 150 154 151 152 151 151 142 120 105 109 119 120 118 117 127 146 157 150 124 116 113 111 106 103 107 118 134 146 154 150 155 149 152 149 147 135 131 123 117 67 75 126 132 138 142 144 148 151 153 152 147 153 156 146 122 102 111 115 123 122 120 124 137 152 146 149 127 112 112 111 106 105 104 113 128 144 155 154 152 150 150 145 139 134 127 122 116 67 72 124 131 136 138 143 147 150 152 151 153 155 147 133 108 105 115 123 119 108 104 106 115 126 125 121 109 99 103 108 109 106 108 108 117 136 149 150 151 145 144 143 135 132 126 119 110 67 69 121 128 130 134 138 143 149 153 153 152 145 136 113 104 109 108 109 101 91 91 94 97 105 104 104 96 88 85 94 100 102 108 111 106 119 137 145 148 148 141 133 130 121 120 114 109 66 69 117 120 125 130 135 141 143 149 146 148 136 116 99 113 109 89 71 46 41 59 88 89 87 85 83 81 47 36 50 74 88 115 117 109 110 132 142 143 145 139 132 124 121 111 109 106 65 69 113 118 123 126 130 135 141 146 139 134 121 100 106 120 117 83 58 44 51 71 81 84 78 75 75 68 47 37 44 63 96 119 118 115 111 120 133 140 142 134 129 120 118 111 108 105 63 69 113 117 120 123 126 129 138 138 135 129 111 105 118 120 119 106 75 67 81 87 87 84 69 68 81 89 85 62 55 88 115 119 118 119 116 116 129 134 137 131 126 121 116 109 107 104 64 68 112 116 115 121 127 131 137 135 136 128 115 118 121 119 118 111 103 101 95 96 93 91 82 89 102 104 101 103 102 108 114 117 121 123 124 124 129 130 130 128 128 120 114 109 108 105 61 67 109 112 118 121 125 126 133 134 135 131 127 127 122 121 118 113 107 106 105 108 110 120 122 129 133 129 125 120 114 112 116 120 126 128 127 130 127 127 130 128 126 116 111 107 102 103 63 68 109 109 114 119 124 129 131 131 133 135 134 131 128 126 123 121 122 121 127 129 134 133 128 132 139 140 137 131 124 125 121 128 128 132 132 134 131 128 126 128 126 113 107 105 94 105 64 68 110 108 108 115 123 128 128 132 133 135 138 135 128 130 129 129 131 129 132 133 134 134 134 134 137 141 134 132 128 129 124 127 127 130 130 132 132 126 122 125 122 115 108 106 105 104 62 68 110 111 110 113 121 128 129 132 129 133 138 137 130 127 129 128 130 123 131 138 141 136 137 136 141 144 137 132 128 125 122 118 122 127 129 129 130 125 125 125 125 117 109 105 107 104 61 67 108 111 109 115 123 128 129 128 127 129 131 129 120 117 116 125 123 130 134 139 140 138 137 141 142 148 136 133 130 126 120 116 111 110 120 128 130 124 123 126 121 113 106 106 107 101 61 65 108 111 111 114 123 131 129 125 124 125 126 123 117 114 120 125 128 127 126 121 124 127 132 131 125 121 118 116 117 121 115 110 101 98 111 120 121 118 122 125 119 111 108 103 97 101 63 66 107 106 109 114 125 132 129 127 125 121 119 111 102 106 111 110 103 98 97 96 98 98 106 102 97 95 92 90 89 88 90 94 90 69 86 108 118 119 123 124 117 108 105 104 93 101 63 67 107 104 105 110 108 122 125 126 122 118 109 87 82 88 84 77 74 73 74 76 77 80 81 79 71 69 73 77 82 77 70 69 76 70 71 101 108 111 121 125 115 107 102 107 101 100 63 63 107 107 106 106 106 122 121 119 121 116 101 66 66 70 67 72 83 91 92 97 92 86 88 88 97 103 114 126 112 105 101 100 108 112 116 121 114 118 125 124 112 103 102 104 102 103 63 61 106 106 108 104 106 115 119 121 119 118 114 109 112 111 109 109 106 115 126 133 127 124 127 126 126 131 134 121 109 107 101 101 108 116 130 127 124 123 125 120 106 98 101 102 102 101 61 65 105 106 107 103 106 112 117 122 120 121 127 132 123 112 107 107 109 113 113 121 119 117 113 113 109 106 102 94 91 94 100 108 111 119 128 127 127 123 117 115 100 99 102 101 104 97 60 66 104 104 104 103 103 109 114 119 123 129 131 133 121 116 109 106 101 97 90 87 84 79 76 75 71 72 80 88 97 106 111 112 118 123 127 125 123 120 118 113 102 99 100 101 101 98 57 64 103 106 102 101 102 107 111 117 123 130 132 130 121 118 117 114 110 105 100 94 87 82 80 85 94 100 108 110 114 117 116 116 118 121 122 123 119 118 117 112 104 100 101 101 96 96 58 62 103 108 104 101 104 106 109 109 118 123 125 122 121 120 120 117 117 116 116 115 113 109 107 110 112 117 121 124 126 124 121 119 115 120 121 122 118 116 114 110 104 100 100 92 88 90 52 61 101 103 105 104 103 104 101 107 113 119 121 119 123 122 118 123 126 125 124 123 121 122 118 120 122 127 129 132 134 131 128 127 126 126 122 117 119 117 113 108 100 98 97 87 87 85 53 60 99 100 102 106 100 105 106 112 113 113 119 118 124 125 127 128 131 133 133 129 130 125 126 128 129 133 130 134 142 141 138 131 136 131 123 110 114 114 108 103 99 98 94 89 86 81 58 56 93 93 99 101 99 102 102 109 113 111 117 115 126 129 132 135 139 140 140 134 135 133 134 133 132 133 132 134 136 139 141 138 141 128 118 111 109 105 102 99 96 92 91 83 79 80 58 52 85 89 94 99 101 101 103 105 112 110 113 123 126 129 136 138 141 136 134 133 130 131 138 136 131 131 135 131 131 135 138 136 130 121 113 105 107 99 95 94 92 86 85 78 77 87 58 51 83 85 89 92 95 101 101 103 107 110 109 115 118 126 132 138 135 131 132 133 132 133 133 138 137 137 136 132 131 134 132 128 119 115 108 100 99 94 90 91 86 83 80 76 83 92 58 47 79 81 86 87 88 94 98 97 99 104 106 110 114 117 122 133 126 127 133 135 134 139 134 136 137 141 138 136 130 128 123 118 113 110 100 96 91 87 88 88 83 78 75 79 92 95 60 50 75 76 81 84 86 90 92 94 95 99 102 106 106 109 114 126 127 120 129 135 133 139 134 134 138 135 135 132 126 124 117 111 105 101 94 92 87 87 85 81 77 75 77 90 96 98 60 58 82 74 74 80 82 84 82 87 91 93 94 97 97 106 112 119 121 122 128 133 138 136 133 129 126 123 125 121 119 114 108 103 98 95 89 83 82 81 76 74 75 76 88 96 99 102 60 61 96 84 76 75 78 77 79 86 87 90 89 89 92 97 104 110 111 116 120 121 124 124 120 115 112 113 116 114 112 99 100 97 91 84 81 80 77 74 73 74 75 84 95 100 104 104 61 66 99 96 82 77 75 74 75 79 79 83 84 85 87 87 92 100 102 98 104 112 109 106 106 101 99 103 104 96 95 89 87 88 84 81 75 73 72 72 75 76 81 90 98 105 107 106 62 41 65 59 53 50 49 46 45 45 48 49 51 51 52 51 51 56 58 58 56 59 60 59 57 53 53 55 56 53 50 51 50 52 48 46 44 43 44 46 47 49 54 59 63 66 67 66 38 