P2
48
60
255
35 56 59 64 67 70 68 71 73 73 74 76 77 77 79 81 82 83 83 83 82 83 84 84 82 82 82 82 82 83 82 82 82 82 79 80 81 79 79 78 78 77 76 73 69 64 62 37 56 93 99 106 111 112 110 113 118 120 121 123 124 127 128 130 132 132 133 133 131 131 132 135 132 130 130 132 134 134 133 134 134 133 132 132 130 129 128 126 124 124 123 119 112 104 99 62 57 95 100 109 111 111 112 114 118 119 121 122 124 130 133 135 136 132 133 134 134 133 133 135 131 131 132 133 135 135 135 137 135 134 134 133 129 130 126 125 124 124 123 119 109 105 101 63 60 98 101 108 112 113 114 113 116 121 122 124 127 134 137 140 137 135 136 136 136 134 135 134 132 134 138 139 137 135 136 137 136 134 135 133 131 128 124 122 120 118 121 118 110 103 101 61 60 100 100 105 111 114 114 113 115 119 121 124 126 139 142 142 142 138 136 136 144 145 134 136 137 138 140 140 138 139 139 136 138 137 133 129 128 125 118 119 113 106 107 113 106 103 101 62 60 100 100 102 103 108 107 106 112 112 116 117 122 130 137 136 133 131 132 133 141 142 135 139 141 141 137 139 137 139 132 132 138 133 127 116 107 102 93 85 83 84 94 99 102 102 101 62 61 94 98 94 84 73 74 76 81 81 89 92 100 111 122 117 115 118 122 120 126 131 134 139 139 135 134 133 128 121 117 114 108 100 94 88 81 72 67 67 67 70 71 76 85 94 99 61 59 94 92 73 63 58 56 52 55 57 60 64 71 76 86 93 93 102 110 113 115 122 133 133 130 126 125 119 115 95 82 81 76 70 69 58 55 58 50 55 55 54 61 61 66 75 89 59 57 83 58 46 48 52 48 44 44 48 54 53 59 64 68 74 85 95 98 107 113 122 132 127 123 119 116 110 104 92 82 73 62 54 48 48 49 47 48 51 49 53 55 52 55 61 70 51 35 45 41 46 56 55 51 48 42 40 40 43 44 50 54 62 78 88 97 104 110 112 115 120 116 109 106 104 99 89 80 66 56 52 50 48 47 45 46 48 47 50 53 54 55 57 64 41 29 45 48 51 49 48 50 53 59 63 59 49 44 45 51 57 66 80 91 99 103 111 112 110 108 107 102 99 90 82 74 63 57 56 54 53 57 61 66 69 68 68 62 54 50 58 68 45 31 50 53 54 57 64 79 91 94 91 83 73 62 57 58 60 63 71 78 90 96 105 112 111 113 109 102 96 84 77 71 65 62 59 60 64 75 87 94 98 101 101 94 81 69 65 70 50 38 66 68 73 85 95 100 100 89 81 72 58 53 56 64 67 66 65 70 81 92 106 113 114 115 114 102 90 77 70 70 68 56 46 46 52 51 55 63 80 97 107 103 98 87 82 79 52 47 74 79 88 96 91 71 53 42 36 37 46 47 41 42 50 65 66 68 75 88 106 122 124 122 117 98 86 77 73 69 52 44 48 47 42 41 49 53 52 61 84 99 98 91 90 91 56 52 84 87 89 76 51 43 56 49 56 54 62 87 86 57 56 58 63 69 79 90 108 126 140 140 121 94 86 74 72 57 57 73 79 68 63 69 52 87 63 50 56 86 96 92 91 97 60 56 88 88 75 45 45 68 74 49 63 26 72 78 129 96 64 76 81 74 83 91 107 125 140 139 123 97 88 83 78 76 82 111 86 62 28 41 57 85 87 52 50 60 90 93 94 97 61 54 84 79 49 53 65 77 82 53 53 44 58 94 125 119 103 94 105 92 88 92 107 124 136 140 125 100 94 101 102 101 116 117 104 65 58 60 62 99 90 82 62 61 84 97 104 104 65 53 84 69 60 63 80 89 95 82 62 59 83 114 115 92 96 106 108 98 95 93 108 124 137 138 122 101 99 103 112 109 97 96 109 97 76 82 104 105 101 88 76 76 84 104 113 115 71 59 88 75 76 76 76 82 93 100 103 96 97 88 85 90 100 110 111 101 98 94 106 125 134 135 121 102 104 107 111 106 97 89 87 88 89 95 97 99 93 82 93 100 98 111 122 123 76 68 101 90 94 85 75 79 83 85 81 84 81 76 80 92 99 114 115 106 99 95 109 127 135 128 119 102 106 116 117 105 96 91 86 90 96 100 94 92 86 93 110 118 118 123 131 130 77 72 115 108 104 101 92 86 86 85 86 84 84 92 93 102 117 126 120 104 98 100 121 125 134 129 114 100 105 117 126 122 105 99 102 105 102 100 99 100 103 114 121 124 127 130 131 133 78 73 120 114 107 110 105 95 91 90 94 105 104 99 104 123 133 129 117 103 97 95 114 123 134 129 111 99 104 115 128 132 128 110 108 114 120 117 113 119 121 127 127 131 132 134 131 131 77 77 122 120 119 116 114 109 108 114 117 114 106 115 127 134 134 124 111 102 94 92 103 122 132 129 112 101 105 110 129 136 137 131 119 118 128 128 131 134 134 133 135 134 138 133 132 128 74 77 123 122 121 122 125 121 122 125 120 123 128 133 138 134 128 115 107 100 93 98 110 121 131 129 115 103 102 111 128 135 139 140 135 133 133 138 140 140 138 138 138 135 138 135 129 123 71 75 121 124 125 123 123 122 123 125 129 131 131 132 135 135 126 113 103 98 95 100 115 122 130 125 119 105 91 107 123 132 141 141 140 140 140 137 142 142 144 141 140 138 133 130 125 118 67 71 115 121 121 120 123 124 125 126 130 132 132 135 134 133 125 111 101 95 96 106 120 128 129 131 124 109 95 103 114 127 137 140 140 138 139 139 141 145 146 140 137 135 127 124 118 111 64 67 112 110 111 112 114 118 121 127 130 132 135 136 136 131 119 103 94 93 99 114 124 128 130 133 127 116 101 98 106 122 134 138 140 140 139 141 138 136 135 130 128 125 122 116 111 104 62 64 105 107 109 112 114 118 123 127 132 136 139 142 131 124 109 92 94 95 103 120 139 132 131 138 132 121 105 100 97 116 134 136 138 141 137 136 135 133 127 127 123 117 116 111 110 102 59 62 101 104 108 111 113 119 126 127 129 131 134 134 125 109 91 91 96 94 103 130 149 132 131 149 138 118 104 103 102 106 130 135 136 136 137 135 134 133 125 126 121 116 116 111 109 104 61 61 99 101 105 111 116 122 125 129 129 133 135 127 110 91 88 96 94 91 96 112 119 121 125 129 121 107 99 102 107 100 114 130 138 141 140 138 136 136 124 123 118 115 110 109 110 106 60 63 100 99 103 110 116 125 126 130 131 131 128 114 94 86 88 90 86 86 86 95 103 107 110 114 107 94 91 94 99 98 101 118 132 141 138 138 136 131 127 122 118 115 112 110 110 104 60 63 101 98 103 111 116 124 126 129 129 128 118 98 87 95 87 74 52 36 62 87 92 91 95 101 94 67 43 62 84 94 101 108 124 136 137 135 134 131 130 121 116 113 109 109 111 105 59 63 99 100 104 112 117 121 127 131 131 124 106 94 97 100 89 64 55 56 39 51 72 71 75 79 67 46 53 54 77 95 106 109 118 128 134 135 131 130 125 118 113 110 108 111 110 102 57 62 99 101 104 112 115 122 128 129 126 116 107 105 102 96 87 72 61 60 47 43 44 49 54 52 48 47 60 55 78 91 101 112 119 127 133 135 132 129 122 119 112 108 109 113 109 98 58 61 99 103 107 112 115 123 124 126 121 112 110 103 99 93 76 70 59 54 56 55 57 63 65 54 50 52 62 59 63 87 99 110 119 123 131 132 132 130 123 118 112 109 110 113 107 98 58 62 100 105 107 112 117 123 124 121 113 105 95 95 92 86 70 60 62 64 65 69 67 64 64 65 64 53 59 61 66 71 85 91 101 115 125 131 130 127 123 116 112 109 110 109 106 97 57 62 102 105 107 113 117 119 118 116 99 85 77 76 76 64 65 66 60 71 65 68 68 67 71 70 63 57 55 57 57 58 80 87 83 83 105 124 123 126 121 115 108 105 108 106 103 94 57 62 99 105 110 115 114 116 112 93 79 70 66 72 60 60 61 65 64 82 64 69 70 67 70 74 70 64 61 60 64 61 62 75 76 78 80 106 119 122 117 114 109 104 105 105 101 92 55 60 96 103 105 110 111 108 92 78 74 69 71 68 60 64 57 59 65 72 66 70 78 64 75 77 71 66 71 58 59 56 51 69 66 74 65 87 104 114 113 113 110 103 103 105 98 91 55 59 95 102 107 107 107 92 75 69 61 65 69 62 60 68 67 74 66 75 68 77 77 71 68 80 76 66 71 68 62 62 57 63 71 65 66 70 95 105 112 112 108 104 102 101 95 92 58 59 95 101 101 104 95 81 79 75 72 80 69 59 60 71 77 80 74 79 82 85 86 75 78 82 80 75 76 80 67 71 67 64 71 67 70 57 72 101 114 112 105 102 100 98 95 90 58 57 96 98 100 99 84 75 71 66 63 69 63 66 70 76 74 65 62 64 73 83 90 90 85 78 71 72 77 81 69 72 64 73 66 69 69 62 69 90 108 110 102 99 97 96 95 93 56 57 94 97 98 96 84 66 62 68 78 59 60 65 59 54 48 48 56 63 59 59 61 60 62 60 59 51 48 53 61 67 62 67 69 63 56 58 64 81 101 105 99 99 96 96 94 93 55 57 93 95 97 97 89 70 58 61 56 46 39 46 56 69 77 87 95 101 103 101 99 101 107 105 100 90 79 67 60 49 45 45 54 59 65 68 65 89 100 100 98 97 96 97 92 92 56 56 91 92 94 97 95 88 81 69 56 57 68 83 93 95 97 99 103 109 109 107 104 107 105 107 106 104 103 105 99 90 72 57 46 46 63 88 93 97 99 100 97 96 94 98 92 90 55 57 93 93 99 102 108 104 100 94 97 98 94 90 93 94 94 93 93 94 87 83 77 77 78 85 93 97 100 101 100 100 100 97 89 84 85 96 107 109 103 99 98 95 96 97 92 90 58 56 92 91 97 102 105 109 107 107 108 109 102 94 94 92 92 91 90 91 86 86 91 86 84 90 94 98 103 99 103 103 106 110 111 106 103 104 106 107 102 99 96 95 95 94 87 89 92 57 91 91 95 101 103 104 107 105 106 111 107 100 99 96 91 88 90 89 92 98 96 99 98 94 97 97 98 101 105 104 106 108 107 107 102 102 102 103 100 94 93 95 93 91 88 107 119 57 89 89 91 96 94 96 97 98 101 104 102 103 104 105 100 100 94 100 104 106 104 109 111 106 102 104 103 105 106 101 104 107 104 106 101 99 101 97 96 92 92 91 91 91 89 163 121 56 88 87 89 90 93 94 93 96 99 100 99 94 101 104 106 106 108 113 117 121 121 119 117 120 116 113 109 106 107 100 102 102 99 101 100 99 100 95 91 89 91 91 91 90 124 194 121 55 85 86 86 86 94 93 92 96 97 98 95 99 102 103 108 115 111 110 120 118 122 124 123 123 118 115 112 106 110 105 101 98 99 101 101 102 99 92 87 88 90 91 90 107 186 196 121 56 86 84 82 89 91 95 95 95 97 101 101 103 103 105 107 114 112 112 117 115 117 124 122 119 118 116 109 110 115 106 101 99 102 100 103 99 94 90 87 87 89 91 100 175 197 195 120 56 88 86 84 85 82 92 92 96 96 103 104 105 105 105 112 117 123 120 120 114 118 118 121 124 118 115 109 113 116 108 105 98 104 101 98 95 96 90 88 88 90 95 170 197 197 196 121 55 88 86 84 86 88 85 91 95 100 102 104 107 104 108 116 117 120 122 122 118 121 121 118 119 123 115 110 109 109 107 105 102 97 95 97 93 93 88 91 90 92 127 197 198 197 196 121 51 87 86 86 80 81 83 86 92 96 100 102 104 104 111 113 114 120 119 117 112 113 109 116 116 114 112 107 109 103 103 105 102 91 93 91 88 89 91 91 92 92 136 198 197 197 197 122 50 79 82 84 81 80 81 84 87 89 93 98 102 101 104 108 108 111 114 113 104 104 105 108 110 104 98 101 104 107 106 102 91 90 88 89 89 90 90 91 92 87 150 197 197 197 197 122 56 84 78 77 79 80 82 84 84 87 89 96 100 96 99 103 102 104 106 105 104 106 102 104 101 100 101 99 96 96 99 95 90 87 87 89 88 88 90 90 89 87 168 197 197 198 197 121 58 93 84 78 74 75 78 82 86 85 85 92 94 92 93 95 95 98 96 96 94 99 98 96 95 91 89 93 90 90 90 89 90 89 88 86 86 87 88 92 89 91 183 198 198 197 197 122 57 94 91 83 77 77 78 77 79 83 86 87 86 86 85 90 91 92 90 91 88 90 91 92 88 86 81 84 86 88 88 91 88 84 85 86 89 87 89 92 89 90 168 198 197 197 196 121 35 59 58 55 49 48 48 49 49 47 49 53 52 50 49 52 50 50 50 53 53 54 51 52 51 49 46 49 52 54 54 50 51 52 52 54 55 55 56 58 52 55 95 121 122 122 121 75 