P2
48
60
255
20 37 38 43 48 53 58 60 62 64 66 68 68 69 67 62 52 52 55 52 48 45 41 50 56 55 61 53 53 53 58 60 64 70 69 67 61 61 58 52 57 61 64 61 61 59 56 33 40 70 74 80 86 91 95 100 103 108 110 114 118 117 118 116 113 108 100 96 95 97 96 100 107 109 103 102 99 96 107 111 108 117 119 111 98 92 90 95 100 102 102 101 100 96 91 54 47 79 83 87 90 95 99 104 107 112 116 120 123 125 126 125 124 125 122 121 120 120 120 120 121 118 121 124 124 123 121 123 120 124 118 116 114 111 108 110 110 107 106 105 103 99 93 55 49 84 87 90 94 100 103 107 111 115 121 124 125 128 127 129 127 130 129 128 127 128 127 127 124 119 129 130 131 131 130 131 132 132 129 122 124 119 118 116 116 112 110 108 105 102 95 55 51 86 90 93 98 103 108 109 113 115 122 124 122 126 128 132 129 130 131 131 132 133 130 131 135 133 135 134 131 133 134 135 137 137 131 127 128 124 124 121 119 116 112 110 107 102 97 58 51 88 92 96 100 106 111 113 112 116 119 121 120 126 128 129 124 128 132 133 131 129 136 135 136 137 137 137 137 136 135 135 137 135 131 129 130 126 126 123 120 119 115 112 107 103 99 59 51 87 92 98 100 106 110 110 112 111 111 111 113 114 116 116 116 118 123 127 129 129 130 129 129 132 131 129 127 130 128 123 124 125 124 123 122 122 125 121 120 119 117 111 108 102 99 59 52 86 91 95 92 90 90 84 81 72 66 65 68 68 72 77 87 96 106 114 116 122 125 128 122 118 112 113 103 102 93 95 96 91 78 65 70 70 81 92 104 114 116 113 110 103 99 61 50 82 91 109 138 173 190 147 121 82 51 50 50 53 56 58 53 61 80 88 100 154 128 110 103 140 96 78 90 167 203 205 176 147 93 57 68 80 89 92 85 78 78 87 101 104 100 61 70 172 229 190 153 173 192 166 118 102 54 44 44 46 56 66 75 73 58 64 75 93 108 104 83 83 62 64 185 210 224 184 149 133 66 48 46 44 49 60 78 90 107 116 104 89 92 61 87 181 232 216 181 190 223 198 153 127 59 47 50 52 57 70 80 87 79 55 75 104 115 119 110 99 61 93 111 157 205 194 165 153 61 48 48 47 49 51 55 59 65 88 136 177 160 68 80 197 252 236 221 239 231 224 186 149 86 79 72 67 66 69 76 84 89 78 73 101 105 110 119 97 65 103 112 174 226 218 217 153 91 57 57 63 67 67 68 90 104 117 114 170 184 107 96 179 147 124 172 218 244 242 214 151 87 80 74 68 66 65 77 107 115 95 71 94 97 108 118 82 64 111 108 163 240 214 202 185 138 88 90 93 95 95 106 131 173 198 157 151 152 121 98 163 87 78 119 197 237 200 217 152 88 65 59 65 62 58 91 126 170 103 67 76 99 122 117 70 59 99 89 146 138 129 174 145 116 72 77 81 88 91 115 163 219 195 214 161 132 69 52 116 75 73 110 191 221 212 181 126 62 42 45 46 57 71 110 188 191 97 65 66 104 128 121 74 55 97 78 86 81 74 122 113 77 69 69 69 71 69 93 164 183 181 216 157 111 54 40 67 90 98 86 141 95 100 133 94 63 49 75 57 85 58 121 180 155 94 63 70 112 131 128 93 49 94 76 72 72 75 73 60 44 47 40 42 51 62 67 101 98 96 152 145 86 49 44 68 65 59 53 54 69 80 98 56 51 45 52 63 80 63 77 126 83 78 64 87 114 123 129 115 70 74 76 74 71 58 73 86 48 61 54 52 48 54 47 59 71 100 108 99 90 57 50 72 67 62 60 61 65 70 74 75 76 79 80 83 76 69 70 78 96 66 67 100 114 125 129 123 100 69 80 78 69 70 75 85 52 45 44 50 64 76 48 42 57 67 84 93 98 61 56 79 74 68 66 71 75 78 81 85 86 88 86 80 74 72 72 77 85 64 86 107 120 128 129 126 115 73 82 77 81 77 77 80 79 73 74 70 70 67 61 60 58 68 81 93 102 64 57 84 79 82 83 85 85 88 90 89 88 86 84 81 78 75 76 83 78 71 102 112 123 126 129 127 120 101 79 81 78 79 81 80 81 84 84 85 85 81 78 77 80 80 87 95 104 67 56 91 94 99 101 103 103 100 100 99 97 94 93 89 83 82 81 85 63 89 109 113 122 127 129 127 121 116 79 86 87 82 88 88 84 83 83 84 85 85 81 79 83 88 97 105 111 70 61 101 102 106 109 110 109 109 108 106 103 99 97 93 92 89 86 79 66 103 110 113 122 127 128 127 123 118 96 85 96 93 88 92 97 98 100 101 102 101 98 98 102 106 111 114 116 72 65 105 106 110 112 111 113 112 112 104 105 104 104 101 97 92 91 63 90 106 109 110 120 126 128 126 122 119 109 79 98 102 99 98 99 102 105 107 109 112 111 111 112 115 117 120 120 74 68 106 108 113 113 115 114 113 109 110 111 109 109 108 100 96 75 76 97 104 109 109 118 124 126 125 122 119 110 101 77 107 109 109 107 105 107 110 112 115 114 117 117 117 119 124 123 73 85 106 108 112 113 115 115 115 114 118 117 115 114 113 106 83 69 91 94 101 106 111 116 122 124 124 122 118 106 107 93 82 109 113 112 112 111 115 115 120 121 123 123 121 121 126 128 64 62 107 106 112 115 119 121 120 122 122 121 122 119 114 88 68 88 91 91 97 107 113 121 126 125 123 121 114 107 104 106 90 88 129 121 123 122 121 121 122 124 124 125 123 123 133 127 63 62 77 94 112 120 124 124 125 126 126 129 128 114 83 80 95 90 88 93 100 110 121 127 130 128 127 123 110 107 100 104 113 101 82 112 133 132 128 128 134 132 132 126 124 133 138 111 78 65 103 79 77 101 117 127 127 123 119 107 88 86 102 111 106 86 89 96 102 116 129 137 136 133 132 126 114 109 101 101 113 129 121 97 80 102 124 134 140 142 139 125 112 101 115 127 78 64 107 106 94 80 88 81 84 86 93 104 118 123 122 112 102 88 93 95 100 116 139 151 149 146 152 131 117 111 105 103 108 130 139 137 124 108 86 79 80 83 94 90 101 120 123 123 76 66 109 112 113 117 121 123 128 130 131 133 131 126 118 106 96 95 95 93 91 105 128 134 137 139 132 119 113 112 109 109 102 124 139 143 139 135 138 132 131 127 128 131 130 129 126 122 76 66 110 113 117 120 125 128 133 136 135 132 130 124 110 99 96 96 94 87 82 88 105 115 119 123 110 102 100 105 108 113 106 115 132 140 140 142 141 141 143 142 142 142 140 135 131 128 78 64 110 115 118 120 123 128 132 136 134 131 128 117 106 97 96 89 81 55 42 65 89 98 102 106 100 86 74 86 103 110 106 104 122 133 137 141 142 144 148 146 146 144 142 138 132 128 77 63 108 113 116 120 124 127 131 133 133 129 125 117 107 103 100 82 66 56 61 59 71 81 85 87 83 63 44 45 72 96 97 103 116 130 137 141 141 145 147 147 143 140 140 134 132 124 74 62 106 109 110 117 121 125 130 131 132 130 124 117 113 112 105 93 73 70 78 81 82 72 73 76 85 91 83 77 72 79 94 107 120 131 134 137 138 145 146 145 144 141 138 132 130 123 73 59 100 106 111 115 119 123 126 128 129 128 125 121 120 116 110 102 93 84 83 85 90 85 80 86 97 101 95 93 87 97 110 121 129 133 132 133 136 136 141 140 142 136 133 127 125 121 73 56 94 102 106 109 115 120 125 124 124 124 124 124 124 120 112 105 97 88 89 90 99 103 100 103 109 107 101 99 104 109 116 125 132 132 131 131 132 136 140 140 141 133 131 126 122 117 70 56 90 95 103 107 112 114 118 120 119 118 121 122 124 119 110 102 95 89 91 96 105 109 107 106 111 110 101 102 105 109 117 128 131 132 131 129 128 131 136 135 134 133 126 126 119 115 69 55 89 92 99 104 106 108 111 113 113 113 114 114 114 108 103 98 92 92 94 101 112 113 110 107 111 114 107 102 103 105 110 119 127 128 129 126 122 125 130 133 132 131 123 120 114 111 68 53 85 90 95 99 103 105 110 108 106 104 104 103 101 98 96 95 94 95 99 104 115 114 108 106 112 114 114 107 103 104 103 108 113 122 127 126 122 122 126 129 129 126 121 117 111 107 66 51 85 87 92 96 102 105 106 105 102 104 100 95 94 93 95 96 98 99 104 107 116 120 114 110 122 125 125 114 108 105 102 101 99 106 116 121 116 116 120 125 126 123 117 112 108 103 62 51 84 85 92 98 102 104 105 104 101 95 93 89 87 89 95 97 95 84 77 76 82 96 111 115 111 101 96 106 114 114 108 104 102 98 102 111 111 113 116 120 121 120 116 109 105 101 61 50 83 84 89 96 101 105 107 105 99 92 88 80 75 82 84 72 67 64 63 67 69 72 80 81 76 73 71 74 83 100 109 107 102 92 92 99 106 109 113 116 118 118 114 107 104 99 60 52 82 83 87 93 101 106 108 109 101 95 81 66 58 63 61 53 54 57 57 59 61 65 73 73 71 67 67 66 66 69 78 92 93 85 86 90 99 107 112 118 119 116 111 105 101 96 59 52 84 84 86 91 98 108 113 112 104 101 80 66 54 49 51 60 70 77 76 75 71 68 72 66 67 62 61 63 58 60 57 59 66 65 73 81 96 104 113 118 118 114 109 102 98 95 59 53 86 86 86 91 97 106 113 116 105 103 90 77 73 73 67 67 74 84 94 102 107 108 104 98 104 102 101 99 94 87 81 68 58 60 72 76 91 106 114 120 120 117 109 103 98 97 60 52 85 85 85 90 96 105 113 118 114 108 96 81 80 87 85 74 73 78 88 110 123 117 109 104 113 113 114 107 98 91 83 79 83 86 82 84 94 112 117 125 123 116 108 102 97 96 61 52 86 85 86 88 95 103 109 115 113 106 98 90 81 82 87 87 80 77 81 92 111 114 113 112 115 118 117 104 94 88 89 95 102 96 91 94 104 117 123 125 122 114 110 102 98 99 63 51 84 85 86 87 91 98 104 111 111 108 101 95 86 80 79 84 86 86 86 90 97 101 99 101 103 106 104 99 99 102 103 103 102 98 102 104 112 118 124 125 120 114 108 100 98 100 62 49 81 83 84 86 91 96 100 104 108 108 104 98 91 84 79 77 79 83 85 88 86 90 94 98 99 102 103 102 102 104 99 99 100 103 107 113 117 120 122 123 119 113 105 101 98 100 63 49 80 82 82 83 89 92 98 102 102 105 103 100 93 89 85 83 78 79 79 82 80 78 78 79 82 86 91 95 98 96 96 100 102 108 112 118 119 120 118 119 116 110 105 102 99 102 64 49 79 81 80 82 86 89 95 99 99 101 101 98 92 92 91 90 87 85 81 78 75 70 70 71 71 76 83 88 93 96 102 104 106 110 115 119 118 118 115 112 112 107 104 101 100 100 63 47 78 81 80 80 83 87 92 93 95 98 96 95 95 97 95 93 91 90 90 88 84 80 75 77 78 82 88 92 97 101 106 111 112 113 116 117 115 117 113 109 109 107 104 100 100 100 61 44 77 78 80 80 79 82 88 89 91 94 95 97 97 98 100 100 94 96 97 94 93 91 88 86 89 92 97 100 103 106 108 112 113 114 114 114 112 112 111 109 108 103 101 99 101 100 61 43 72 76 78 79 76 81 84 88 88 87 93 95 98 100 102 105 99 106 115 116 116 116 117 116 116 113 110 105 105 110 113 114 116 114 114 113 112 112 108 104 104 100 99 98 98 95 57 40 70 71 77 81 77 77 83 85 86 90 92 95 98 103 106 109 104 109 119 122 124 121 120 121 125 125 124 122 118 119 118 119 121 117 112 110 110 109 107 102 99 100 101 99 98 94 56 40 66 69 75 78 80 77 78 81 84 89 94 94 96 101 105 107 104 106 118 123 126 121 120 120 124 124 118 128 124 126 124 122 123 117 113 112 101 105 103 99 100 100 99 95 95 92 57 38 64 67 71 72 75 75 76 80 80 83 88 93 94 100 100 101 102 103 113 118 120 117 115 119 119 118 125 128 130 124 120 122 116 113 109 110 104 97 97 97 95 98 96 95 95 89 54 36 60 64 68 70 72 75 74 75 75 79 83 86 91 96 95 96 97 95 106 112 109 110 112 114 114 117 128 129 122 118 116 110 113 110 105 103 99 96 95 94 97 97 91 91 90 83 51 34 57 60 64 67 69 72 73 72 70 73 75 78 85 88 90 94 93 90 96 99 104 102 102 101 108 115 119 123 117 111 105 104 108 107 102 97 98 92 88 91 92 91 90 91 88 83 51 20 33 36 37 39 41 43 44 44 44 42 43 45 48 49 53 56 56 54 56 59 60 60 57 58 60 66 70 70 68 65 65 67 64 62 61 58 55 53 54 55 54 55 56 52 51 50 32 