P2
48
60
255
30 51 55 58 61 65 65 65 64 65 68 71 73 76 77 77 78 78 79 80 79 81 80 80 79 80 80 80 79 78 77 79 76 77 75 73 71 72 70 68 67 65 64 62 58 56 51 27 50 85 92 98 101 105 105 106 108 107 110 115 119 123 125 126 126 127 127 129 128 128 128 128 128 127 127 128 129 128 125 127 126 125 121 119 117 115 113 111 108 105 103 100 94 88 82 44 50 87 93 99 102 104 105 108 109 108 109 115 118 122 123 124 125 125 125 128 128 126 128 129 128 128 127 127 127 125 126 127 128 124 122 120 116 114 113 112 110 106 103 100 96 90 82 44 51 87 94 99 101 103 105 105 106 111 111 114 119 123 125 126 127 126 125 128 128 129 131 127 128 129 128 128 129 130 129 125 125 125 122 120 117 115 115 112 109 107 106 100 95 90 82 44 52 89 93 97 103 105 108 107 107 112 112 114 116 120 124 127 127 126 129 128 130 131 131 130 130 130 128 127 130 129 130 127 125 125 122 121 118 117 116 113 111 108 105 101 95 90 83 44 51 87 92 98 102 106 108 108 108 113 113 113 114 118 123 126 127 127 128 129 129 132 130 130 132 131 127 126 130 128 130 129 126 121 122 122 119 120 119 116 114 111 107 102 97 90 85 48 51 87 93 97 98 100 97 99 101 103 106 107 113 119 121 125 128 129 128 124 124 128 129 129 129 130 126 125 127 128 127 127 124 122 121 118 116 114 115 113 114 111 109 102 96 89 85 50 51 86 89 83 79 78 82 86 89 90 87 87 90 100 118 124 125 125 124 126 125 124 126 126 126 126 128 124 126 125 122 122 116 107 98 95 93 96 96 97 99 100 103 100 97 90 85 51 44 70 73 77 86 96 104 107 107 106 98 91 83 82 91 113 118 117 119 120 123 126 126 126 123 122 125 121 119 119 112 100 90 85 82 85 86 85 87 87 86 85 89 92 94 90 86 52 37 66 79 91 98 106 111 113 112 108 107 102 95 89 86 91 107 110 113 116 119 123 127 128 124 120 118 116 112 110 99 86 90 96 97 99 104 107 108 109 103 94 86 84 81 80 83 52 45 80 89 92 94 98 100 101 100 97 96 93 91 89 87 90 97 102 105 109 115 121 124 126 124 121 115 109 107 103 96 92 97 96 97 98 100 103 104 105 103 100 96 89 80 78 78 51 50 81 85 88 91 92 91 90 86 81 78 73 72 73 74 78 84 91 96 102 111 120 125 125 122 118 112 105 99 95 90 86 85 83 82 82 83 85 90 94 94 94 90 89 87 84 79 51 49 77 79 80 80 79 77 75 63 71 66 56 54 54 56 60 66 74 86 96 106 116 121 123 121 119 111 101 90 77 69 64 62 68 61 68 76 73 77 82 85 84 84 82 82 82 83 53 46 72 70 68 62 49 48 51 46 55 49 53 57 57 49 53 60 66 77 89 101 112 121 124 123 117 109 99 83 68 61 55 50 54 54 65 60 56 58 58 62 64 72 75 76 80 83 53 46 69 62 52 44 40 32 28 25 43 27 51 39 52 54 58 59 64 73 85 96 108 120 126 123 117 103 91 79 68 60 59 64 52 41 37 35 35 37 43 43 48 56 68 73 79 84 54 49 74 64 50 35 28 31 39 35 40 24 47 57 81 53 51 64 69 72 84 93 105 120 125 125 114 101 88 76 72 64 54 65 65 51 40 46 38 36 32 31 40 45 55 73 79 84 55 54 81 71 60 51 50 59 65 51 54 53 56 85 95 76 66 66 86 79 83 92 104 118 121 124 113 99 87 83 82 63 75 90 91 57 49 50 50 62 53 44 37 40 62 74 86 90 57 57 89 86 79 67 56 64 75 82 75 71 76 91 88 89 84 81 86 82 83 90 101 117 121 122 113 98 89 89 90 86 89 92 92 82 71 72 69 80 70 58 56 66 71 80 90 94 58 60 95 93 87 79 73 70 73 78 78 73 72 81 82 88 94 94 88 82 85 88 100 114 118 120 112 97 90 89 94 98 97 92 85 79 80 79 79 72 72 70 70 85 92 93 97 97 59 60 99 98 94 90 86 82 81 81 81 79 82 86 89 91 94 93 88 87 87 90 100 113 117 117 110 96 92 92 94 100 101 98 94 89 88 89 84 79 80 81 86 93 98 100 101 100 60 61 102 103 101 99 95 95 95 93 95 95 98 100 98 100 98 94 89 90 90 92 98 110 117 118 110 97 92 95 95 100 104 104 104 102 97 100 99 94 97 95 99 102 103 104 103 100 61 61 102 106 107 107 105 106 109 108 107 108 104 104 105 103 98 94 93 92 90 91 98 111 117 116 109 98 95 96 96 102 106 110 110 111 110 113 113 112 110 110 110 109 109 107 105 101 62 61 102 106 109 110 112 112 113 110 110 109 110 108 105 104 98 95 94 94 91 92 101 110 115 115 109 98 95 98 98 100 108 113 112 112 114 115 115 115 115 116 115 113 112 111 106 102 61 61 101 105 108 109 112 114 114 112 110 112 109 107 109 104 101 96 94 91 89 94 102 110 114 114 109 99 94 96 98 100 105 115 116 115 115 116 116 115 117 118 117 115 113 111 106 103 61 59 99 101 106 110 113 114 113 112 108 112 110 108 107 104 101 97 94 88 90 95 103 110 113 113 108 99 95 94 96 99 107 114 118 119 117 116 116 117 117 120 118 116 113 110 105 101 60 56 95 97 105 110 113 114 114 114 111 113 112 111 106 104 99 96 90 88 91 98 104 109 114 115 109 100 94 90 95 101 105 113 118 121 122 120 119 120 120 120 120 116 113 109 106 101 59 55 93 96 102 106 109 114 113 112 112 113 113 112 109 105 98 93 86 88 91 98 107 115 119 119 111 102 95 89 90 100 107 112 118 120 120 122 121 123 122 120 121 116 112 106 103 98 58 54 90 92 98 101 106 109 110 112 110 113 112 111 108 105 96 88 88 88 90 99 108 123 122 123 120 102 95 90 87 95 105 111 118 120 120 121 124 122 122 119 117 113 108 103 99 95 57 53 87 91 96 101 103 107 110 111 112 111 112 109 106 98 92 85 87 86 86 90 97 105 111 111 107 97 91 89 88 88 99 108 115 120 120 121 122 125 122 117 114 110 105 101 96 92 56 52 86 90 95 100 103 107 108 111 113 111 109 108 101 94 87 84 84 81 76 78 82 89 94 94 87 82 82 85 88 85 95 104 110 116 119 117 118 121 120 117 112 108 103 100 96 90 55 51 86 89 93 99 102 105 106 109 110 109 108 104 98 89 83 83 83 75 58 58 71 73 74 76 73 69 68 77 84 84 89 100 109 112 117 117 117 116 116 115 111 107 101 98 94 90 54 50 84 86 91 97 99 103 104 107 107 106 106 102 95 86 83 80 77 59 36 40 61 58 54 57 55 33 37 64 78 83 86 98 105 110 115 116 116 116 114 114 110 106 102 97 93 89 52 49 82 82 87 94 97 99 102 105 106 107 105 100 95 89 89 86 72 59 59 75 75 65 61 64 69 56 48 63 78 86 92 100 104 111 114 116 117 116 114 111 108 105 101 95 92 86 51 48 80 82 88 92 94 96 99 104 106 105 106 101 100 100 101 98 88 68 66 82 91 91 86 89 84 70 60 74 93 98 101 104 108 111 113 114 116 114 111 107 105 102 98 92 88 83 49 47 76 81 87 91 94 95 98 101 104 105 105 104 104 106 108 102 101 96 93 95 104 107 102 104 99 92 94 101 105 110 110 111 112 112 113 115 114 110 108 106 102 99 94 89 84 81 48 47 79 81 85 89 93 94 96 100 102 105 106 106 108 109 108 107 106 103 100 102 110 109 104 106 106 103 107 111 112 116 115 114 114 113 113 111 109 105 104 102 99 94 89 85 82 79 48 46 78 80 83 88 93 95 95 100 102 106 108 109 108 107 109 109 107 104 102 105 112 107 101 108 111 109 109 114 115 116 115 115 117 114 112 110 106 102 101 99 96 91 86 83 80 78 48 46 77 80 82 88 92 93 94 99 102 106 108 111 107 105 108 107 106 105 102 105 113 107 105 108 111 110 110 112 113 115 113 114 115 112 110 108 102 100 98 97 94 89 84 82 80 79 47 44 75 78 81 85 91 92 93 96 101 105 105 108 105 102 102 103 103 104 103 108 116 114 112 114 114 111 107 107 110 110 109 109 111 111 108 107 103 100 97 95 91 85 83 81 81 79 43 44 74 78 81 85 89 89 91 94 97 103 103 102 100 99 98 97 101 104 104 111 116 118 116 120 118 110 105 105 105 103 104 103 103 104 105 102 101 98 95 94 88 85 82 81 80 79 36 44 74 77 80 84 86 87 88 91 96 98 98 94 91 90 92 93 96 104 102 97 98 113 115 116 109 101 103 103 100 98 96 93 92 94 96 97 97 96 92 91 87 84 82 82 81 78 27 45 74 77 79 81 84 87 88 91 93 93 91 86 82 83 88 90 87 80 69 62 63 72 83 75 68 65 73 85 90 92 86 80 80 83 88 93 95 95 91 90 86 84 83 81 80 74 21 45 73 76 77 80 81 85 88 91 90 86 80 70 67 73 74 67 55 49 48 50 52 52 52 51 48 47 48 52 62 70 70 62 63 73 84 90 96 94 90 90 86 84 84 82 80 65 16 45 73 75 75 77 80 84 86 88 87 80 65 51 56 57 56 57 64 71 80 86 86 81 79 81 84 83 76 71 65 64 68 72 69 71 83 94 97 95 91 89 85 84 84 81 79 53 15 44 73 75 75 76 80 83 85 87 85 80 77 83 86 84 82 78 77 81 99 104 100 99 101 103 102 100 89 83 84 89 93 99 102 99 95 99 99 97 91 88 85 84 83 80 75 39 19 42 72 74 75 76 77 81 84 87 91 91 95 96 95 91 89 88 84 83 100 106 105 101 102 104 112 99 85 88 93 98 101 104 107 102 102 103 100 96 90 87 85 84 82 78 64 30 21 39 69 74 75 75 77 79 84 87 92 96 99 98 94 91 91 93 90 91 93 93 89 91 88 90 95 97 95 98 100 100 99 102 104 102 106 101 98 93 85 85 84 83 80 72 46 26 19 36 66 71 73 74 74 77 80 84 91 94 96 96 93 89 89 91 90 84 88 85 77 75 74 78 86 93 94 96 98 98 96 101 102 104 102 100 94 88 84 83 83 81 77 66 35 29 30 36 61 68 72 73 73 75 78 84 88 92 92 91 92 89 87 87 88 87 87 85 83 82 80 79 76 83 86 91 95 99 98 98 99 101 100 96 92 85 81 81 81 78 73 49 33 34 36 37 63 65 70 72 72 74 78 82 88 91 91 90 90 89 89 87 87 88 86 87 91 91 91 88 85 85 89 95 97 100 99 99 99 99 97 95 87 83 81 81 80 75 60 39 36 32 26 36 66 64 67 71 72 74 78 81 84 89 92 90 89 89 91 93 94 96 98 101 108 109 107 104 101 100 99 101 102 102 99 98 98 98 95 92 87 82 80 80 76 67 34 42 38 28 19 34 68 69 63 67 70 73 75 80 84 86 89 89 88 91 95 97 100 107 112 115 120 121 120 118 118 117 108 108 104 102 101 97 97 98 93 90 85 79 79 77 71 48 26 50 40 28 15 31 68 72 68 63 67 71 74 77 82 84 86 87 88 88 93 97 104 108 112 116 117 122 119 119 120 117 113 111 103 101 99 96 95 95 90 86 82 79 77 71 69 43 31 65 43 29 16 28 68 73 73 66 62 66 69 73 77 81 85 86 86 87 90 95 100 106 113 115 118 120 119 118 119 116 113 109 104 101 98 96 93 92 87 82 78 74 70 72 75 38 47 81 49 29 17 26 66 74 75 72 65 62 66 69 72 74 80 80 84 84 89 93 97 104 110 114 116 117 118 119 117 114 107 104 100 97 93 93 89 86 82 77 72 69 71 82 72 35 72 95 55 35 18 22 63 74 76 75 72 65 62 64 67 70 74 77 79 81 84 90 93 97 103 111 113 113 108 110 107 107 101 99 97 90 88 85 84 80 73 70 68 71 82 83 61 45 98 100 50 37 22 19 55 73 76 78 75 71 64 61 63 65 68 72 74 77 79 84 87 92 95 103 107 104 105 102 100 100 97 96 91 85 84 80 77 73 68 66 71 81 84 77 49 78 112 91 42 31 20 36 47 69 78 80 79 76 71 63 60 61 62 65 69 72 74 77 79 84 85 91 94 92 97 96 95 94 92 87 82 79 76 73 68 65 65 73 81 84 82 61 59 105 113 72 39 32 20 63 62 58 75 80 81 79 75 70 63 59 58 59 62 65 68 70 71 74 77 78 82 83 85 84 85 84 80 75 73 70 68 64 61 66 75 81 85 83 69 53 96 117 103 62 40 35 21 43 59 34 42 49 51 50 48 46 42 38 34 33 36 37 38 39 40 41 41 41 43 44 45 45 46 44 43 41 40 39 39 39 41 46 50 52 53 47 34 49 71 72 55 36 25 22 13 