P2
48
60
255
33 58 62 63 64 65 66 66 68 69 71 72 73 73 60 65 71 69 68 69 69 67 67 66 66 66 67 66 65 65 64 65 63 62 62 60 60 59 58 56 56 54 54 54 46 39 49 32 53 93 98 102 102 105 106 107 110 111 113 115 116 113 86 98 112 112 111 109 109 107 107 107 106 106 106 105 105 105 103 103 101 101 99 98 97 96 93 91 89 88 88 88 81 62 72 48 53 92 98 102 103 105 105 108 110 111 112 114 114 111 106 106 111 110 108 107 108 107 107 106 104 105 105 104 104 103 100 100 100 100 99 98 97 95 93 91 89 89 89 89 85 69 66 48 53 92 97 101 103 106 106 108 111 112 112 113 114 117 111 109 109 108 107 106 105 104 105 103 102 104 102 102 102 100 99 99 99 99 98 98 95 93 91 90 90 91 90 89 87 77 63 47 53 92 97 100 103 106 107 109 110 111 112 112 114 113 107 107 107 105 105 103 102 102 101 101 100 101 98 99 100 98 96 97 97 97 98 96 97 93 91 92 93 93 91 90 88 81 63 44 54 91 96 102 105 107 110 110 110 113 112 112 110 108 106 103 102 103 101 100 98 100 99 99 96 98 97 99 96 95 92 91 94 94 97 98 98 94 95 96 93 94 93 89 88 82 68 40 55 91 97 103 106 109 111 111 110 111 112 111 107 107 104 101 97 95 96 95 94 96 96 96 95 95 94 94 93 91 93 93 95 97 98 98 97 95 95 95 95 95 94 92 89 82 70 37 56 92 97 102 106 103 100 101 100 100 104 102 102 103 100 98 95 93 92 93 93 91 95 95 93 93 92 90 91 91 93 94 93 92 91 90 88 86 84 82 82 82 85 91 89 84 75 38 56 93 97 99 87 83 79 77 77 79 79 80 82 86 89 91 91 90 90 91 91 92 94 93 89 89 88 88 88 89 88 85 82 78 73 69 67 68 66 65 66 70 70 70 75 76 77 43 56 90 86 73 67 65 65 63 58 55 52 53 54 58 64 71 76 81 85 87 89 92 93 91 89 88 85 83 82 77 69 64 59 55 55 52 51 51 52 54 55 57 58 61 63 65 72 45 56 76 68 65 70 69 64 64 64 63 61 59 57 56 55 60 66 70 76 82 88 90 95 93 91 86 80 75 71 63 56 51 50 49 49 51 53 56 57 58 59 60 63 63 63 65 68 45 56 83 80 79 78 77 74 73 72 71 71 70 69 69 68 69 71 72 76 79 87 92 99 97 93 84 74 68 62 57 54 53 53 53 54 56 57 58 58 59 60 61 61 62 63 65 70 45 57 88 85 82 78 74 71 67 68 70 71 68 64 62 66 69 73 77 82 84 88 97 101 100 95 83 72 65 59 56 54 52 51 55 61 66 66 64 59 55 54 57 58 59 61 64 69 46 58 92 87 82 78 71 70 83 88 84 77 71 70 67 62 61 66 74 84 92 95 103 108 105 96 86 77 68 57 53 50 53 65 66 63 57 57 56 63 72 66 57 55 59 62 66 71 46 59 96 91 85 77 75 81 75 60 52 47 44 41 48 57 61 63 72 81 94 101 109 113 110 102 94 83 71 55 50 55 65 63 58 50 43 49 47 51 53 58 64 63 63 66 71 77 50 61 98 94 88 82 72 59 55 69 59 54 51 35 43 52 58 68 75 85 93 103 112 116 115 107 100 87 72 58 57 62 58 77 64 59 43 41 47 56 61 55 59 66 71 73 79 85 54 62 100 98 92 84 75 71 73 85 63 48 38 36 49 59 63 62 83 92 93 103 113 118 118 113 101 88 75 69 69 57 66 84 77 56 43 44 58 67 77 75 72 76 81 86 90 93 58 63 102 101 96 95 91 80 81 87 83 59 52 53 64 75 73 76 85 102 95 103 112 120 118 116 102 88 81 85 79 75 82 89 92 85 80 81 84 82 83 84 83 86 93 98 99 99 61 63 103 104 103 102 98 94 91 90 86 86 83 83 85 83 84 90 98 103 96 103 112 121 118 115 104 88 85 89 91 89 89 89 86 83 82 82 82 85 86 85 85 91 99 104 105 102 62 63 102 105 106 103 100 97 96 96 92 90 87 85 86 88 87 90 99 101 102 101 111 116 115 114 101 86 87 90 90 82 78 79 84 87 88 87 88 87 87 88 93 102 108 108 105 102 62 63 104 105 108 108 106 101 97 97 96 96 95 90 86 82 84 90 101 104 103 98 107 111 114 113 101 87 88 90 92 91 85 81 79 78 78 78 80 87 92 100 107 110 111 108 104 102 61 63 104 106 109 110 111 110 105 100 94 91 89 89 90 95 100 105 108 106 102 99 105 114 114 116 101 88 89 90 91 98 99 98 96 98 98 100 105 109 112 114 114 113 112 108 103 99 60 63 104 107 110 113 114 115 114 113 109 110 109 108 106 108 111 111 107 105 103 98 107 113 113 113 100 88 87 89 92 98 105 109 109 108 109 110 111 115 115 115 114 113 110 104 99 98 59 62 102 105 110 113 117 116 115 115 115 113 113 113 116 118 118 111 105 104 101 100 102 112 111 109 98 89 86 90 92 93 101 106 108 112 112 115 115 114 115 117 114 110 104 100 97 95 57 61 101 104 107 111 116 116 115 116 116 117 116 117 118 119 114 107 104 102 99 99 104 111 111 110 99 91 86 87 90 92 98 102 105 107 110 112 116 114 116 115 112 107 102 98 97 94 57 61 101 104 106 110 114 119 119 117 119 118 117 117 116 115 113 108 103 101 99 102 105 109 109 112 103 92 87 83 86 90 96 100 102 104 109 111 114 114 115 115 111 108 103 100 97 94 58 61 100 104 108 110 113 118 120 119 118 116 115 114 114 112 109 106 101 97 100 106 113 113 111 114 110 94 87 82 83 85 89 95 98 102 107 109 111 111 115 113 110 107 102 99 97 95 57 59 99 103 108 110 113 116 117 117 116 113 113 111 111 107 102 99 96 97 101 109 118 118 111 111 110 97 88 85 89 87 82 87 93 98 103 108 109 109 109 107 106 103 101 98 96 94 57 59 98 101 105 109 111 114 115 113 112 110 107 106 104 101 97 97 102 99 101 109 116 116 107 102 101 94 87 86 92 93 81 80 86 93 98 102 103 104 104 103 102 101 98 97 93 93 56 58 97 101 104 106 108 110 111 112 110 106 105 102 97 94 95 100 103 99 96 102 105 104 98 93 89 83 80 84 91 88 82 75 79 84 90 95 97 97 96 98 98 97 95 94 92 90 55 58 95 99 101 103 106 108 108 106 105 102 98 96 92 92 92 96 97 92 87 89 92 91 87 82 75 68 67 74 76 77 77 74 71 75 83 88 92 94 96 96 95 93 92 90 89 88 55 56 93 97 100 101 101 103 105 103 98 95 93 87 86 88 92 87 76 62 65 77 82 78 74 70 65 59 51 50 56 64 72 77 74 71 79 84 87 90 92 93 91 90 89 87 87 86 53 56 92 96 97 97 94 97 97 97 94 90 85 81 81 89 92 87 71 62 68 74 74 67 63 61 55 48 48 49 53 59 74 78 76 69 74 80 83 84 86 87 87 86 85 85 84 84 53 55 91 93 94 92 92 93 92 89 85 82 80 76 82 90 95 93 87 79 78 80 75 67 60 58 53 53 55 55 60 72 78 80 78 70 71 78 80 81 83 82 83 83 82 83 82 83 52 55 90 90 91 90 90 88 86 84 79 75 74 74 79 90 96 97 95 93 91 89 80 72 64 62 63 65 68 72 79 84 87 86 84 74 66 72 78 80 79 80 81 80 80 80 81 83 53 56 90 90 89 90 88 86 84 80 75 73 69 69 80 93 98 100 100 98 96 93 88 81 76 78 80 81 85 87 89 91 91 90 89 84 69 66 73 78 78 79 79 79 80 81 82 85 55 58 93 90 90 89 88 83 80 77 74 68 62 69 89 97 99 101 101 99 97 96 92 86 86 88 93 94 94 94 92 92 93 91 92 92 84 71 70 74 80 81 82 81 82 83 84 87 56 59 95 89 91 90 88 83 79 76 70 60 63 85 97 100 100 101 101 99 98 99 98 95 98 101 104 102 98 97 95 93 91 90 90 89 85 78 73 71 79 84 85 83 84 85 86 90 57 60 97 95 94 92 88 86 84 78 66 59 78 91 96 97 98 99 97 99 100 100 100 99 102 100 94 90 89 88 87 88 85 85 85 82 76 68 71 74 78 87 88 86 86 87 88 92 59 61 98 97 95 93 92 90 87 82 66 74 84 84 87 90 92 92 90 87 87 86 84 80 78 75 73 71 70 68 66 65 64 63 63 61 57 59 72 81 82 94 92 87 87 87 90 94 60 61 99 99 96 93 93 93 93 88 76 86 81 64 55 57 67 69 68 67 68 67 68 66 63 62 59 55 53 54 52 53 54 53 52 55 67 74 83 86 92 99 93 87 87 88 92 95 61 77 101 99 97 96 94 95 95 93 86 88 80 72 67 58 53 52 66 72 81 74 86 75 62 67 66 61 61 65 57 58 55 55 67 83 86 87 91 93 100 99 91 87 88 90 94 96 61 128 104 100 98 96 94 95 95 95 91 90 85 81 90 88 76 66 70 78 89 85 90 85 76 83 79 74 80 79 65 63 66 76 87 88 91 92 94 98 100 94 89 86 88 91 94 97 62 154 131 100 98 96 94 93 91 90 90 89 86 89 96 98 91 81 78 78 83 79 87 85 80 84 81 76 79 81 82 84 87 86 86 89 90 91 93 97 96 89 86 85 88 91 94 97 63 158 202 101 98 96 96 92 90 89 90 86 85 94 96 100 99 92 87 88 95 95 90 87 83 86 87 89 91 93 86 85 83 83 85 88 91 91 93 95 91 86 84 85 87 91 93 97 63 158 249 128 97 94 95 93 90 88 89 88 90 94 97 99 100 95 92 91 90 90 89 86 85 86 86 86 84 81 81 80 81 83 86 88 91 92 93 90 87 83 82 84 87 89 92 96 63 158 255 209 99 93 92 91 89 87 88 90 92 96 97 96 98 98 95 91 88 85 83 82 82 81 78 77 76 73 75 77 79 81 84 88 90 90 91 89 84 82 81 83 85 87 91 95 68 158 255 252 152 90 89 90 89 87 87 89 93 97 98 97 98 95 94 91 87 83 78 76 74 71 70 71 73 74 75 76 77 81 87 89 89 90 89 87 83 80 80 82 84 86 88 100 73 158 255 236 144 85 85 87 88 87 88 90 93 96 98 99 97 94 90 87 86 84 79 76 76 74 74 73 74 74 75 76 79 84 87 89 88 89 89 85 81 79 79 82 83 84 88 102 68 158 218 87 53 71 79 83 85 85 87 89 93 96 97 99 96 94 92 90 86 83 79 77 77 75 75 76 77 77 78 78 82 86 89 88 88 88 86 81 79 78 78 79 79 81 89 101 68 133 91 54 46 68 83 77 80 83 85 89 92 94 96 98 96 96 93 92 90 89 88 87 86 86 88 89 87 86 82 84 86 89 90 87 88 87 84 80 78 76 76 75 76 80 90 102 67 45 56 48 43 65 93 79 75 79 84 87 91 94 97 98 100 101 102 103 106 110 111 111 113 112 108 104 103 99 96 95 95 94 90 87 87 85 80 78 76 74 73 72 74 82 91 101 67 35 49 44 40 63 93 93 78 74 80 84 87 92 95 96 100 104 107 108 108 110 109 110 110 107 104 103 95 93 94 96 97 94 89 85 85 82 78 74 73 71 70 71 77 84 93 100 65 31 45 41 39 63 93 95 89 77 73 79 84 90 94 94 95 100 104 107 107 105 103 104 106 105 100 96 92 91 92 95 96 91 87 85 80 77 74 70 68 67 68 72 78 85 92 97 63 29 42 39 37 62 94 95 92 86 76 70 78 84 91 93 92 98 102 107 107 104 103 102 102 100 97 93 91 90 91 90 88 84 81 80 76 71 68 66 65 66 69 74 80 86 92 97 62 27 40 37 35 62 93 96 94 90 85 74 71 75 82 88 89 92 95 98 101 100 98 96 94 91 91 90 89 88 87 84 80 79 76 73 68 65 63 63 63 65 70 76 81 86 92 95 60 26 37 35 35 68 93 96 96 92 87 82 74 70 72 78 84 84 87 90 92 89 88 86 84 82 82 84 83 82 78 76 72 70 67 64 61 60 60 61 63 66 72 76 82 87 92 94 59 24 35 34 47 86 93 97 97 95 91 87 81 74 69 69 73 76 78 82 82 80 78 76 75 75 75 75 73 71 68 64 62 61 58 57 57 58 59 61 64 68 73 77 83 87 91 93 58 23 36 39 78 85 94 97 97 97 94 90 86 80 74 70 66 66 69 70 71 69 66 64 63 64 65 64 62 59 56 55 54 54 54 55 57 57 58 61 64 69 74 78 83 87 90 91 57 15 25 30 54 50 58 60 60 60 59 57 55 52 49 46 43 40 38 39 38 38 36 36 36 36 36 35 34 32 32 32 32 32 34 33 34 35 36 38 40 43 47 49 52 54 55 56 35 