P2
48
60
255
32 52 53 53 56 59 61 62 63 64 66 68 69 69 71 71 70 70 70 69 70 70 71 71 69 70 68 70 70 69 68 66 67 68 66 64 63 61 60 58 56 53 52 52 51 51 50 31 51 84 86 87 90 95 98 101 103 104 107 110 111 111 114 114 114 113 114 112 113 113 114 114 111 110 111 113 112 112 109 108 110 110 107 104 102 99 96 94 90 86 84 83 81 82 81 49 51 83 86 86 91 95 99 101 104 105 106 109 111 112 114 114 115 114 113 113 115 114 114 114 113 110 113 114 113 111 107 108 111 110 108 105 101 98 94 93 92 87 83 83 81 82 81 49 51 85 86 86 91 96 99 101 102 104 107 109 110 113 114 114 114 115 114 113 115 113 114 112 113 111 111 111 110 108 106 109 109 108 102 101 96 92 89 89 89 88 83 82 81 82 81 49 51 86 86 87 91 96 98 99 97 99 101 106 106 109 112 112 114 112 112 112 111 112 111 112 113 111 108 107 106 105 101 102 101 100 95 88 82 78 74 73 75 84 85 82 80 82 83 50 52 86 85 87 90 92 84 80 77 76 81 89 93 96 99 104 108 108 107 108 107 108 108 110 107 106 105 103 100 98 96 92 86 83 83 74 63 59 61 63 64 70 82 82 80 83 83 51 52 85 84 86 88 78 66 62 60 60 59 58 62 62 69 82 94 98 101 102 104 104 106 106 102 102 102 97 92 85 79 67 63 60 59 58 54 53 55 56 55 57 63 78 80 83 84 51 53 86 84 85 75 62 60 60 60 55 52 49 47 49 50 58 76 85 90 95 100 102 102 101 100 99 97 88 83 72 63 57 52 49 49 46 49 58 64 66 66 62 58 62 77 81 83 51 53 84 83 77 59 58 66 76 74 68 61 54 48 47 47 49 54 69 79 89 95 97 97 95 94 94 90 81 71 59 54 50 46 45 47 52 65 74 77 78 77 74 69 64 68 79 83 52 53 84 81 62 64 75 81 84 84 80 77 71 65 60 57 54 52 56 72 81 88 88 91 91 88 85 84 73 60 50 47 46 48 51 58 64 70 73 75 77 76 74 73 67 64 75 81 52 52 83 72 64 78 83 85 84 81 77 74 70 68 67 68 69 64 63 67 76 85 88 89 88 88 82 80 69 55 50 50 53 56 60 68 76 79 78 75 73 73 74 74 71 65 70 80 52 53 83 66 71 80 84 83 76 73 72 74 75 71 67 65 67 71 73 73 77 84 91 90 87 86 85 79 66 56 55 57 58 63 75 83 86 86 83 77 72 69 71 73 74 72 73 80 52 53 82 67 77 83 82 75 72 78 82 87 87 84 76 67 65 66 70 78 82 85 92 95 94 92 90 81 68 62 59 57 60 70 83 94 97 97 92 87 79 70 68 71 73 73 73 78 51 54 83 75 81 83 77 70 72 82 93 96 93 89 81 69 62 62 66 72 82 87 95 104 103 98 92 82 72 64 57 57 67 79 90 94 95 91 85 81 80 76 70 71 74 76 77 80 52 54 82 78 82 80 73 72 81 83 84 85 77 68 61 58 58 58 61 70 81 87 98 109 107 105 96 83 73 64 54 61 70 73 72 72 70 70 68 66 69 73 74 73 75 77 78 81 52 53 85 81 81 80 77 79 76 69 58 46 42 37 38 45 51 50 59 80 79 84 97 108 105 106 97 83 74 65 68 56 52 55 53 46 42 45 47 49 52 59 67 72 75 79 80 82 53 54 86 83 80 82 78 73 60 49 53 53 43 41 47 58 67 58 62 74 77 86 96 111 110 109 99 86 76 71 70 58 62 71 75 59 51 53 58 57 54 54 60 68 74 82 84 84 53 54 86 84 80 79 76 66 57 62 68 74 62 57 63 75 74 71 74 76 79 87 97 111 110 109 100 86 78 74 78 78 72 70 71 69 71 68 66 61 61 67 74 75 77 83 86 86 54 54 88 87 83 77 74 73 67 65 69 74 77 73 69 68 69 73 79 80 83 87 97 109 110 109 103 87 80 77 77 79 77 77 75 72 72 70 72 75 80 85 86 85 85 87 89 89 55 55 89 91 91 84 81 81 78 74 75 76 76 76 76 78 80 83 82 85 88 88 98 110 109 108 103 86 81 81 80 84 85 87 86 87 89 89 91 92 95 96 93 91 93 93 91 91 56 55 90 94 94 92 88 87 87 87 89 89 88 86 86 87 88 89 88 90 90 90 97 107 108 106 100 85 81 81 82 86 91 91 95 98 98 100 102 101 102 100 98 96 97 96 93 92 56 56 92 96 97 96 94 91 92 94 94 95 95 94 95 93 94 94 93 92 91 91 96 107 111 106 97 85 81 82 83 83 92 93 97 97 99 102 104 105 104 103 100 101 99 97 94 92 55 56 93 97 98 97 97 96 98 100 101 101 101 100 99 96 97 99 95 94 94 92 96 105 109 106 93 84 82 82 84 83 89 93 94 95 98 102 103 101 102 103 102 103 100 96 94 91 55 56 93 97 100 101 102 103 103 105 105 105 103 100 100 101 102 100 97 95 95 91 97 106 108 104 94 85 82 82 83 84 89 93 96 96 100 104 104 105 105 105 102 101 101 96 92 90 55 56 93 96 98 103 104 106 106 104 106 105 104 103 103 106 105 102 97 95 93 91 98 105 108 106 98 87 82 82 83 86 90 96 101 101 103 106 107 109 109 107 103 101 100 96 92 90 55 56 92 95 99 103 104 105 106 102 106 107 106 108 110 110 107 103 96 95 93 93 101 108 109 108 103 90 84 80 83 86 91 96 101 104 107 109 110 112 110 108 99 99 97 95 91 89 54 55 92 95 97 101 103 106 109 110 111 111 110 112 112 112 108 104 97 95 91 95 106 112 112 111 109 93 86 81 82 85 92 96 100 105 108 109 108 107 107 105 99 98 94 92 90 88 54 54 89 94 96 100 103 106 109 112 112 114 113 114 112 112 108 105 99 93 91 98 110 115 113 112 110 95 86 82 79 84 91 96 101 105 107 110 109 109 108 104 99 95 93 92 89 88 54 53 88 91 94 100 102 105 109 109 114 115 114 114 112 112 110 106 101 91 90 97 112 110 107 106 104 92 80 80 77 83 90 95 100 104 106 107 108 108 106 104 100 97 94 91 87 88 54 53 88 90 95 98 101 104 108 110 114 115 113 114 113 112 110 106 101 90 88 87 102 101 97 96 92 78 69 78 78 81 87 94 99 102 104 106 107 108 106 101 98 96 93 92 89 87 54 52 87 90 94 96 101 104 107 111 113 115 114 114 114 112 110 106 97 90 86 83 88 86 84 88 80 69 66 74 78 79 85 92 97 101 104 106 106 106 104 101 98 95 94 93 90 88 54 52 86 91 94 96 100 101 106 109 110 112 114 113 112 112 108 103 95 86 74 56 75 73 75 80 71 49 48 65 73 79 83 89 97 102 105 108 106 105 104 101 98 94 93 90 90 89 54 51 86 90 94 96 99 100 104 110 111 111 112 112 110 108 104 100 95 82 62 49 57 69 66 69 60 45 44 58 68 80 83 89 96 102 105 108 107 105 103 101 97 94 92 90 90 89 54 51 87 90 93 94 97 101 104 106 110 112 112 110 108 104 101 97 96 87 67 66 79 80 66 62 64 62 51 58 72 83 87 93 98 103 107 107 107 104 103 100 97 95 92 91 90 89 54 51 88 91 93 94 96 99 104 106 111 112 111 109 105 103 99 97 97 94 81 78 85 87 80 75 78 76 64 67 83 88 92 96 99 103 106 108 105 103 103 100 96 94 92 91 90 89 54 51 89 91 93 96 95 98 100 104 109 111 110 109 104 103 99 95 95 94 91 88 87 89 84 86 88 82 79 84 88 92 96 98 100 104 106 105 104 104 101 98 95 94 92 91 90 89 54 52 88 90 94 95 95 99 101 105 108 110 110 108 105 103 99 96 93 92 89 87 89 90 86 91 91 85 83 85 89 93 96 99 100 104 105 105 104 102 101 98 96 95 92 91 90 90 55 52 88 92 93 97 96 99 102 103 107 107 109 107 107 104 99 92 91 89 88 88 93 91 89 93 92 88 85 86 87 92 95 97 99 101 104 104 103 101 100 97 95 92 90 89 89 89 55 53 89 91 94 96 97 99 102 103 103 104 107 107 107 103 97 93 92 91 91 93 97 95 95 97 98 91 89 89 88 91 92 95 97 99 102 103 101 99 98 95 94 93 89 91 89 89 55 54 88 91 94 94 95 100 100 102 102 104 105 105 105 101 96 93 92 95 99 102 105 105 105 107 108 100 95 92 90 90 89 89 92 94 98 100 100 97 96 95 92 92 90 89 89 89 55 55 90 92 93 96 96 97 98 101 102 102 104 102 100 97 93 93 97 99 104 99 97 105 107 105 95 84 86 91 92 89 86 85 89 91 94 97 98 96 95 94 91 89 89 86 87 89 56 56 90 91 94 94 95 93 98 101 102 102 102 101 97 92 90 92 97 94 85 80 78 80 84 78 73 73 71 71 75 80 84 80 82 86 91 94 96 95 94 93 91 89 87 87 87 90 57 56 91 92 93 93 94 94 94 99 101 101 100 97 94 89 83 88 82 74 74 74 75 74 73 72 70 69 67 65 62 60 64 66 68 79 86 93 94 94 92 93 91 88 89 88 89 91 57 57 91 92 93 94 93 93 95 99 99 98 98 94 89 78 73 70 64 65 63 62 64 67 62 66 60 59 57 57 57 56 53 53 61 77 86 92 94 93 92 92 89 88 88 88 89 91 58 58 92 93 92 92 93 93 95 97 98 99 97 94 84 69 56 57 59 68 77 81 77 74 72 76 82 86 90 85 83 80 75 74 87 93 95 95 94 92 91 90 89 87 88 87 89 92 59 59 93 94 92 91 93 92 94 94 97 97 97 94 85 76 77 74 80 87 92 98 100 101 100 100 101 102 99 90 86 81 81 84 94 100 99 96 95 92 90 89 87 88 88 88 90 93 59 72 93 92 91 92 92 93 94 94 95 96 96 92 91 93 98 89 85 88 92 96 100 98 99 97 93 90 86 81 80 79 81 88 94 101 100 95 93 91 89 88 87 87 87 88 90 94 61 131 101 91 90 91 92 91 93 92 93 97 98 96 97 98 103 94 88 87 88 87 88 86 84 83 80 80 78 79 80 80 83 88 94 97 98 96 93 90 88 87 86 86 87 88 91 95 63 156 143 92 91 91 90 91 91 92 91 94 94 97 95 98 100 95 91 89 86 82 78 74 70 68 68 71 73 73 78 82 83 88 93 94 96 95 91 89 87 86 85 85 86 88 92 97 84 158 215 95 90 91 90 90 91 91 92 93 91 94 95 96 97 94 90 88 85 81 76 71 69 70 71 73 73 75 78 82 84 88 91 93 95 93 90 89 87 86 84 85 85 88 92 111 142 158 235 103 89 88 90 90 89 89 91 91 92 95 95 96 95 93 90 88 85 80 78 78 77 79 79 80 80 79 84 87 90 90 91 93 91 92 90 88 87 85 84 84 85 87 94 140 154 158 238 108 89 87 88 88 88 89 90 91 91 92 94 93 92 94 92 92 91 88 88 90 90 88 84 84 87 90 92 94 94 93 92 91 92 90 88 87 85 83 83 83 84 86 107 151 157 158 241 106 93 83 85 87 88 88 90 92 92 92 94 90 90 94 96 96 96 96 100 103 105 103 99 98 97 103 98 95 96 94 93 92 92 91 88 85 84 81 81 80 83 92 105 172 158 158 244 107 90 86 81 84 86 86 88 90 92 93 94 91 90 96 98 100 103 106 107 105 108 109 109 108 108 108 101 96 97 95 94 92 91 88 86 83 82 80 79 79 84 93 100 193 158 158 245 111 91 83 79 80 83 84 85 87 89 93 94 91 94 97 101 103 104 107 105 106 108 112 111 111 109 106 104 98 94 95 93 91 87 84 82 80 79 77 77 78 86 89 103 212 158 158 246 112 92 84 77 75 78 82 84 85 88 91 92 93 96 98 101 103 102 103 104 106 109 110 111 111 109 107 101 93 91 90 88 88 84 80 79 77 74 73 74 79 82 92 106 227 158 158 247 115 93 88 80 73 73 77 81 83 85 88 91 93 94 95 97 99 98 101 103 104 104 100 102 101 103 99 91 89 89 87 85 84 83 78 76 72 71 71 75 77 83 94 110 237 158 158 247 114 94 90 84 77 69 72 75 79 81 84 87 90 92 93 94 93 94 96 99 96 94 92 92 95 91 90 84 84 83 83 82 80 78 75 72 69 68 71 71 77 85 94 114 244 158 158 248 115 96 92 87 81 74 68 69 73 77 78 82 86 88 89 91 90 88 90 91 88 86 86 86 88 86 84 80 79 79 80 78 75 72 70 67 66 67 68 72 79 87 96 120 249 158 98 153 71 59 57 55 52 48 44 41 42 44 46 45 51 52 53 53 53 51 52 54 52 53 51 51 51 49 48 47 46 47 46 45 43 42 40 40 40 40 42 46 50 54 59 78 155 98 