P2
48
60
255
33 56 57 63 65 67 65 65 67 70 72 72 74 74 73 71 69 69 68 68 67 68 68 67 67 69 70 68 69 68 66 67 67 66 64 62 60 58 56 56 56 56 55 52 48 44 42 26 54 90 94 100 106 107 105 108 110 111 114 117 121 120 118 115 113 111 112 110 110 111 111 110 111 110 110 110 112 111 110 110 110 107 103 101 99 95 93 91 91 91 92 88 80 72 69 42 54 91 95 99 105 104 105 108 109 111 113 117 120 119 118 116 114 113 115 114 113 112 110 110 110 108 109 111 111 113 112 110 109 107 105 101 99 97 94 93 92 93 93 91 83 74 70 42 55 92 97 102 107 109 110 110 111 113 114 119 120 120 121 120 118 117 115 115 114 113 113 112 112 111 112 113 113 112 113 111 109 108 107 103 101 99 96 94 94 95 95 93 86 76 70 43 56 92 96 102 109 112 113 112 114 116 119 121 121 120 121 121 120 118 117 114 112 113 113 112 113 111 112 112 112 111 110 110 111 110 107 104 102 101 99 97 98 98 97 95 88 77 71 43 57 93 97 104 110 112 114 115 117 118 121 120 118 118 120 121 118 117 114 112 112 111 110 112 111 111 111 111 110 109 108 107 109 108 106 104 103 103 102 102 101 100 99 96 89 78 71 43 57 93 97 105 111 110 109 108 111 114 119 119 120 120 118 117 114 113 110 109 109 108 108 110 110 109 109 109 106 103 104 105 106 102 103 99 98 99 99 101 102 100 100 98 92 80 71 43 58 94 98 102 96 82 75 76 81 85 95 100 105 109 112 111 108 108 108 107 106 106 108 108 106 105 106 107 105 103 103 102 101 98 95 91 87 83 81 82 86 86 92 95 93 82 73 44 58 94 91 78 68 72 85 89 81 76 68 64 64 68 75 88 96 99 101 103 104 103 103 104 104 104 103 104 100 99 96 92 85 77 71 68 69 71 75 78 81 82 79 80 87 84 75 44 58 79 71 89 98 102 108 109 106 99 94 89 83 74 62 58 66 85 95 97 99 100 99 100 101 101 98 98 96 93 86 70 65 67 71 78 83 89 95 97 98 98 96 92 83 83 76 44 51 81 100 105 107 109 109 106 106 101 95 90 85 83 81 76 73 81 87 91 94 95 96 97 98 97 95 92 90 87 79 70 72 76 81 86 92 97 99 98 100 100 100 98 94 84 80 45 57 100 105 103 107 109 111 109 107 103 96 90 84 80 79 80 80 83 85 87 90 92 94 93 92 90 88 86 84 81 76 74 74 78 83 87 93 96 98 99 100 99 99 97 95 92 81 47 61 101 103 103 105 107 106 105 102 98 93 88 82 78 77 79 81 82 84 86 88 91 92 91 89 85 82 80 77 75 73 74 75 79 83 84 87 90 92 93 94 94 95 94 93 91 84 47 62 99 100 99 100 98 92 86 79 73 68 65 65 68 74 77 79 81 84 83 89 91 91 89 88 83 80 76 73 72 73 73 72 70 69 68 68 69 73 77 82 86 88 90 91 88 82 47 61 99 97 93 88 77 65 56 52 52 52 51 53 57 62 72 78 78 82 86 89 93 94 95 92 85 79 74 71 71 72 68 66 65 69 63 64 65 66 69 72 74 80 86 89 87 81 47 62 97 93 84 72 63 53 51 49 83 67 48 52 67 61 63 73 77 80 88 94 99 100 102 97 89 80 73 70 73 68 64 63 86 83 62 63 68 74 68 67 73 76 81 85 87 83 48 63 98 88 76 64 60 60 69 52 63 53 49 58 84 76 63 64 79 80 90 100 109 113 110 103 94 83 77 76 81 63 72 74 66 64 62 66 79 87 79 74 71 73 80 84 87 84 50 68 106 94 86 85 84 86 87 85 78 71 69 78 85 84 76 72 76 92 103 109 116 125 119 113 102 90 86 89 93 83 91 95 95 91 93 96 97 97 95 91 88 87 89 90 94 93 55 71 114 111 109 104 98 97 102 106 105 102 99 101 100 100 95 90 95 103 113 117 122 128 126 120 107 96 96 98 102 97 100 104 106 105 104 106 107 102 96 93 95 102 106 108 107 102 59 72 117 116 114 113 109 102 97 94 92 89 89 87 85 84 80 88 109 116 120 122 124 128 126 121 113 105 101 106 110 107 94 92 93 92 92 93 92 92 93 97 103 109 111 110 111 108 64 72 119 119 120 119 114 108 100 91 85 82 79 78 79 88 102 115 121 123 123 124 127 128 126 121 114 108 103 109 115 116 113 102 92 89 87 86 87 90 96 104 111 115 116 115 113 110 66 73 121 122 124 125 121 116 110 104 96 97 98 104 112 119 123 123 125 124 123 125 125 126 124 121 115 108 105 108 115 115 120 124 121 115 110 110 112 115 119 121 123 122 121 116 113 109 66 73 119 123 127 129 127 126 124 119 115 119 122 124 125 124 122 122 124 120 121 120 122 123 121 118 115 110 108 106 113 114 115 125 127 130 129 130 130 130 131 131 129 124 120 116 113 109 65 72 118 122 127 131 131 130 128 127 126 126 125 127 126 121 114 115 118 117 120 121 121 121 118 116 114 110 108 105 105 113 118 124 126 130 131 132 133 132 132 132 129 124 120 117 113 108 65 71 118 120 126 131 135 132 131 129 128 125 124 123 121 116 111 116 116 115 118 118 121 122 119 117 114 110 107 101 100 109 113 123 127 130 131 133 134 131 127 128 126 124 119 116 112 108 64 70 116 121 126 130 135 136 133 128 124 123 121 118 114 109 104 109 112 114 116 119 122 122 121 117 113 109 106 97 96 97 105 115 122 127 130 131 132 130 128 126 123 120 118 115 111 106 64 67 114 120 125 130 134 134 131 128 123 119 118 114 105 99 97 107 112 113 117 122 124 127 128 127 119 111 106 96 97 92 91 105 114 120 124 124 126 124 123 123 122 119 116 112 109 104 62 67 115 119 123 126 129 130 127 124 119 117 112 105 98 91 96 114 118 115 118 126 131 130 131 130 126 116 108 98 102 103 85 89 103 113 118 119 118 118 119 118 119 116 113 110 108 104 62 66 112 117 121 122 125 125 121 118 117 111 105 96 88 83 101 118 123 120 119 126 132 127 122 115 110 108 103 98 106 106 94 79 91 102 110 112 114 115 116 116 116 112 111 108 104 101 61 66 110 113 117 118 119 120 116 112 111 104 97 88 79 83 105 118 125 124 117 113 114 114 110 105 100 98 96 96 103 103 96 78 80 92 101 108 109 111 113 114 112 110 108 105 101 99 59 65 107 108 111 113 114 113 110 111 105 95 87 80 78 88 100 107 108 106 103 100 99 99 95 92 89 87 87 91 93 91 87 80 76 84 95 101 106 108 108 109 107 106 105 101 97 95 58 63 104 105 107 108 109 109 108 102 94 85 80 75 83 96 97 92 84 74 80 85 86 85 81 78 75 72 73 74 74 74 78 81 76 79 90 97 102 105 105 105 104 103 100 98 94 91 56 62 101 102 103 105 106 105 103 96 88 79 74 78 94 102 105 99 84 74 76 81 78 75 71 70 65 62 61 61 64 70 82 84 80 77 83 91 95 99 101 100 99 98 95 92 90 89 56 61 98 99 101 101 101 101 96 88 79 71 75 91 100 106 109 106 99 95 92 89 82 74 70 69 66 63 62 63 67 80 89 88 83 79 78 83 90 93 94 95 94 93 91 88 87 88 55 60 97 97 99 98 98 95 88 80 73 72 81 95 103 107 107 106 104 102 100 94 86 77 76 80 76 71 71 73 77 90 94 94 90 84 77 77 82 89 90 91 91 89 88 86 85 86 54 60 96 97 96 96 93 89 83 76 69 72 88 100 105 104 102 104 106 104 102 96 89 80 83 86 88 88 89 91 92 95 96 97 96 92 80 76 77 85 89 88 88 88 87 87 85 86 53 61 97 96 97 96 91 88 83 75 70 83 99 105 107 107 108 108 107 102 100 94 90 89 92 95 93 90 88 90 90 95 97 97 96 94 85 76 76 82 90 90 89 89 87 86 85 85 53 60 97 98 98 97 94 93 88 79 83 93 99 104 105 105 102 96 88 81 77 75 72 74 76 75 71 69 68 68 67 71 78 83 87 86 81 75 76 82 92 95 92 90 88 85 84 85 53 61 98 98 100 99 99 95 93 87 83 84 89 90 87 77 69 64 64 64 67 67 66 66 67 65 62 60 60 60 60 62 63 63 65 67 69 68 78 89 94 100 96 91 88 85 84 84 52 60 98 98 100 100 100 96 94 90 78 68 62 58 65 71 84 79 82 86 84 96 90 77 76 75 71 66 69 70 65 70 68 63 61 61 65 70 82 95 102 105 99 91 86 84 83 83 51 60 97 97 98 101 102 99 96 90 76 61 51 56 86 96 115 96 113 113 105 133 122 102 98 109 106 89 93 99 81 85 74 66 62 62 69 78 90 102 111 108 98 90 86 85 84 83 50 60 98 97 97 99 100 101 100 92 79 70 66 64 82 97 113 108 130 127 132 145 135 122 126 132 126 112 113 112 100 90 75 67 61 76 84 88 96 108 114 107 96 88 85 85 83 82 48 59 97 97 96 98 100 103 104 97 84 80 86 82 76 67 103 92 115 118 135 137 131 125 133 131 128 117 110 107 89 84 70 65 83 90 90 91 100 110 113 104 93 87 85 84 83 79 46 58 95 95 96 98 99 103 105 100 92 91 95 92 86 85 81 78 98 96 113 124 119 111 116 119 115 101 82 84 74 77 81 87 90 87 91 95 100 108 107 99 90 87 84 82 79 75 43 55 92 94 96 97 97 99 97 96 96 97 99 102 92 87 88 88 91 99 100 101 102 91 90 92 86 84 81 86 87 87 89 84 85 90 97 98 101 104 100 92 87 85 82 80 76 71 41 53 89 92 95 95 95 94 93 95 97 99 105 108 103 88 89 95 97 91 89 92 99 91 94 92 88 92 89 92 93 88 80 80 86 96 100 100 102 102 94 89 84 81 78 75 71 66 40 49 84 88 90 92 92 91 92 95 96 101 108 108 109 102 88 87 99 103 102 100 101 102 107 106 109 108 104 96 86 75 73 83 93 98 99 100 103 98 92 84 80 77 74 70 66 64 40 44 78 84 87 88 89 91 94 95 96 102 107 108 105 107 101 89 82 85 90 96 95 96 96 98 97 94 86 76 72 74 82 93 93 96 98 101 100 94 87 81 76 73 69 65 63 63 40 38 70 78 83 85 87 89 94 96 97 100 103 107 105 104 106 102 92 83 78 76 76 77 79 82 78 73 70 71 77 86 92 93 95 97 97 98 95 90 84 78 73 69 65 62 62 62 39 36 64 71 78 82 85 88 93 97 99 99 101 104 109 106 104 105 102 97 89 81 73 70 69 68 66 67 72 81 89 91 91 93 95 95 95 95 92 87 81 74 68 64 61 61 61 62 39 34 63 65 69 77 81 85 91 97 99 98 101 103 107 107 98 102 100 99 96 90 85 80 76 74 75 81 86 91 91 90 91 94 95 93 91 92 89 82 75 68 63 60 59 59 60 61 38 32 61 67 64 68 75 81 88 95 98 101 100 102 105 105 102 104 102 101 99 97 93 90 86 88 91 95 96 94 92 92 94 95 95 93 89 89 83 76 68 62 59 58 59 59 60 60 37 29 58 65 66 64 66 74 81 89 96 101 102 102 103 105 104 108 106 104 103 101 99 96 91 94 98 97 97 95 92 92 95 96 94 90 88 85 77 68 62 58 58 58 58 59 59 60 37 29 55 63 68 64 63 65 73 82 92 98 102 102 102 105 104 106 107 107 106 103 100 98 98 99 100 96 93 94 92 93 99 98 89 86 85 79 69 61 57 56 57 58 57 58 59 59 38 29 51 59 65 67 64 65 65 73 85 94 99 101 102 105 106 108 108 107 104 103 102 99 99 100 99 99 98 97 93 97 99 94 87 83 79 70 60 55 56 56 57 57 57 57 59 60 37 29 48 57 62 68 66 64 65 65 73 86 94 99 100 101 104 107 105 104 101 97 97 94 91 97 100 98 98 97 93 94 94 88 81 78 71 60 55 54 56 56 56 56 56 57 59 60 37 29 47 53 61 66 66 65 64 66 64 72 85 92 96 98 99 103 103 100 94 93 92 95 94 96 96 95 94 89 88 91 87 79 74 70 60 53 53 55 55 56 56 55 56 57 58 59 37 27 47 47 57 65 68 66 64 64 66 65 69 81 89 93 93 96 98 100 95 90 92 92 93 96 90 86 87 82 85 87 76 70 66 58 52 53 53 54 55 55 55 54 56 57 58 58 35 26 46 48 49 61 68 70 66 64 64 65 64 66 77 86 87 85 88 91 90 88 86 88 91 94 89 84 82 79 82 73 64 60 55 51 51 52 54 55 56 55 53 53 56 56 57 57 36 16 27 30 29 33 41 44 43 40 39 40 40 40 40 46 50 50 49 51 52 51 50 51 53 54 53 51 48 47 43 37 35 33 31 31 32 32 34 35 34 33 33 34 34 34 35 35 22 