P2
48
60
255
21 33 34 41 42 35 42 42 57 57 54 58 63 69 73 76 77 78 80 81 81 80 79 79 78 78 77 77 77 78 77 76 75 75 73 71 70 69 66 64 61 55 49 45 45 48 52 29 35 54 57 71 74 56 73 73 93 91 87 93 103 114 120 124 126 126 128 130 130 129 129 129 127 125 126 126 126 124 123 121 121 120 119 116 113 112 108 104 99 91 80 73 73 79 82 48 36 56 62 74 74 56 81 79 91 88 85 91 104 115 120 124 126 125 127 129 129 129 128 128 125 126 127 126 127 123 121 120 122 120 118 115 115 113 107 106 99 94 83 74 72 77 82 50 36 58 66 75 68 60 91 74 85 87 88 95 102 114 120 124 124 125 127 127 128 129 129 129 128 125 126 125 126 120 119 117 118 117 108 101 101 99 100 97 96 95 86 75 72 75 81 51 37 60 64 66 59 76 84 72 77 80 83 91 100 108 115 118 119 120 123 124 127 130 131 131 130 128 125 122 118 115 108 102 93 82 74 71 70 70 70 73 78 86 87 77 71 72 78 50 37 62 60 62 71 77 67 64 61 59 62 66 74 84 98 105 111 111 116 123 128 130 131 129 128 127 122 115 110 103 96 78 67 58 57 58 59 55 53 53 59 71 78 79 73 70 71 46 37 69 79 82 80 71 61 55 55 58 62 65 66 68 73 86 94 99 111 120 125 129 129 127 126 124 117 111 99 93 79 73 67 65 68 67 66 66 68 63 60 61 67 73 74 70 67 43 40 75 86 88 76 65 62 66 70 71 73 75 73 74 73 78 88 95 107 120 129 127 129 126 123 120 116 106 88 82 84 76 76 75 74 82 92 104 109 109 100 89 77 66 68 71 67 40 43 81 90 81 73 73 91 107 112 112 102 90 85 86 85 84 92 95 105 120 126 123 126 124 122 119 113 102 90 88 88 86 84 84 88 99 105 110 113 116 115 114 109 95 74 68 68 41 47 87 89 79 81 103 117 118 122 120 115 107 98 94 95 93 94 97 103 112 117 121 122 121 120 117 110 100 93 91 91 89 87 87 92 99 104 107 109 113 114 114 113 108 98 82 72 43 50 91 87 91 106 117 121 120 120 117 115 110 102 95 94 94 95 96 99 105 111 117 119 117 118 114 106 96 91 88 86 83 80 83 90 95 100 102 105 108 109 111 110 106 102 98 88 49 54 93 94 103 111 115 115 115 115 114 112 109 102 94 89 89 91 92 94 100 109 116 121 121 119 113 102 92 85 82 79 77 79 83 88 91 93 94 96 99 101 104 105 103 103 99 93 54 56 95 98 105 109 110 108 109 107 102 99 97 95 92 89 87 88 88 89 94 105 116 124 127 123 114 99 86 79 76 75 78 80 79 84 92 96 94 90 85 88 95 98 99 99 97 94 55 58 97 100 104 105 104 99 93 94 101 103 103 101 94 84 84 85 85 87 92 100 115 126 130 127 114 97 83 77 75 76 80 81 94 101 102 102 97 96 96 88 79 86 92 94 95 93 56 60 99 101 104 102 97 88 94 94 88 80 78 76 85 90 83 81 84 88 92 97 112 125 132 127 112 92 84 79 76 80 86 94 91 78 72 60 55 61 67 77 83 73 83 88 90 91 55 62 101 101 102 98 89 82 69 63 65 60 63 65 63 73 74 84 87 90 94 100 111 126 130 127 113 95 89 83 84 92 92 74 77 111 109 87 49 55 48 53 59 72 73 82 87 89 56 63 104 104 102 97 85 64 61 82 81 67 66 50 60 101 84 73 94 103 101 103 109 125 131 127 114 99 96 93 106 96 73 84 109 123 101 60 45 46 53 69 56 55 70 81 87 91 57 65 106 108 106 98 81 68 78 96 96 63 55 55 71 109 95 86 99 111 106 105 110 124 128 125 113 102 100 99 107 105 96 95 103 121 115 66 52 53 63 77 77 65 65 79 88 94 60 66 110 111 108 98 89 76 78 96 104 93 80 82 93 97 102 112 114 111 107 106 113 125 126 122 113 103 102 102 105 109 109 104 101 98 100 95 84 89 90 84 73 67 82 90 95 99 63 67 113 118 112 101 97 86 84 90 93 93 94 92 96 101 108 116 115 112 108 107 115 125 125 123 113 103 103 106 108 110 111 109 101 96 93 87 81 80 77 77 78 86 99 106 106 109 70 69 117 121 115 111 107 100 102 103 104 107 108 109 111 114 119 120 117 114 109 107 114 124 124 123 114 102 103 105 110 113 115 116 114 110 106 101 98 96 93 97 100 105 111 114 113 115 73 69 119 120 118 117 116 117 116 117 118 120 122 123 125 125 125 123 119 113 109 106 113 122 121 121 110 100 101 104 108 113 117 120 120 121 120 118 116 114 112 114 117 118 118 117 117 118 73 70 118 120 120 122 122 124 128 129 131 131 132 132 130 130 127 123 117 110 107 104 111 117 119 118 109 99 99 100 104 112 119 121 123 125 127 128 128 127 125 123 125 125 125 123 120 118 71 70 116 121 122 125 125 129 133 134 135 137 134 133 133 132 128 122 114 108 105 104 112 118 118 114 107 98 97 99 101 109 119 123 124 124 126 129 130 131 127 123 121 126 127 125 122 118 70 70 117 120 124 126 125 132 134 136 137 138 136 134 132 131 128 122 112 106 102 109 117 122 122 118 110 101 97 97 99 106 117 122 124 125 126 128 130 132 130 125 120 122 126 125 120 118 70 71 116 121 123 127 129 132 136 138 139 137 135 134 134 132 128 122 111 104 103 115 123 126 124 122 115 103 96 95 96 104 114 120 122 125 127 126 128 130 132 133 130 129 127 124 119 118 69 71 116 120 123 125 131 136 138 139 140 138 135 135 133 132 127 121 111 101 105 119 126 126 124 124 119 104 96 92 90 98 109 117 121 124 126 126 128 129 130 133 133 131 127 120 119 114 68 72 117 121 123 126 128 134 138 139 139 138 136 135 133 131 127 119 109 100 106 121 129 130 128 127 120 104 96 94 89 91 104 112 119 124 127 126 129 129 129 128 128 126 123 117 114 110 67 71 116 119 123 125 126 132 136 138 141 137 137 135 133 130 124 115 105 100 101 111 124 129 124 118 106 98 95 96 96 87 98 109 117 122 125 128 129 130 130 129 126 124 120 115 113 108 65 71 116 119 119 122 128 132 135 138 138 138 137 135 132 126 118 107 102 98 93 97 108 115 112 102 91 86 88 93 97 91 88 103 115 121 124 127 128 127 128 129 126 123 119 113 109 107 63 71 116 117 119 122 126 130 134 135 137 138 136 133 128 122 112 102 102 93 82 90 99 102 97 90 80 71 68 78 89 91 80 95 111 122 124 125 127 129 129 128 124 121 116 113 109 104 62 71 115 117 119 123 125 126 130 135 135 135 133 129 124 116 106 99 96 80 61 64 89 91 84 79 66 49 50 57 76 84 76 90 109 119 123 125 125 126 127 125 121 117 113 109 105 103 62 71 115 116 118 120 123 126 127 132 132 132 129 126 122 111 103 100 94 78 73 82 87 81 75 69 60 57 59 64 73 79 76 90 112 121 123 123 124 123 123 122 119 115 110 107 104 101 60 73 115 115 116 120 122 124 127 130 131 130 128 124 120 111 101 103 108 91 81 86 90 85 75 72 69 75 73 70 73 86 89 97 113 118 120 122 123 123 120 116 114 113 107 105 103 99 60 77 116 115 115 118 119 121 125 127 127 128 127 124 117 109 103 109 116 108 95 92 98 104 92 93 91 79 75 73 87 102 104 106 113 118 119 121 122 119 118 116 113 109 106 103 101 96 58 78 119 115 115 115 117 120 122 124 124 126 124 122 117 109 108 113 116 114 110 110 117 120 108 113 114 106 102 103 108 114 113 113 114 118 118 117 118 116 114 112 108 107 104 101 99 96 58 77 123 117 115 115 116 117 118 121 123 124 123 121 118 113 114 117 115 115 114 115 124 126 113 119 122 116 111 111 113 117 117 116 115 116 116 113 114 114 110 108 107 105 102 97 96 96 59 74 127 118 115 114 114 115 117 119 121 122 122 121 118 118 118 117 117 117 118 119 127 123 112 118 125 120 115 114 113 117 119 119 116 114 113 111 112 111 108 107 105 104 99 98 96 95 58 66 130 122 117 113 113 112 115 118 120 120 120 120 120 121 121 120 121 119 119 120 127 120 113 117 125 120 112 112 113 115 117 117 117 114 112 109 109 108 106 105 105 103 101 98 96 94 59 62 131 124 118 114 113 112 115 116 117 118 118 119 121 123 122 121 120 119 117 119 127 125 120 121 123 118 113 108 109 111 113 113 116 115 112 108 105 102 102 103 103 101 101 98 95 95 58 61 130 127 120 115 115 114 115 117 118 117 118 118 121 122 121 117 116 116 112 105 101 108 116 110 100 97 101 104 104 105 107 108 110 110 109 107 105 104 103 102 100 100 100 96 95 93 56 64 122 135 122 117 116 116 118 119 120 119 117 117 119 118 117 112 110 104 96 96 96 94 96 92 89 89 84 85 92 98 97 96 100 104 106 105 103 103 102 102 101 101 99 96 94 91 55 72 112 143 126 121 118 118 119 121 121 120 118 117 116 112 105 102 96 88 88 89 89 87 92 89 84 85 82 78 72 75 81 78 87 94 95 100 102 102 103 102 102 101 98 95 92 89 55 122 119 150 131 123 120 118 119 120 122 120 119 115 111 104 93 84 77 76 79 76 74 73 76 73 70 69 71 72 69 63 58 56 64 81 84 96 101 103 103 103 101 98 93 91 90 88 53 157 189 148 141 126 122 119 120 122 122 122 120 115 106 94 88 89 85 94 101 103 102 98 95 93 97 98 99 97 93 90 84 81 78 77 88 98 103 104 104 102 99 95 91 89 87 86 52 158 252 195 165 130 124 121 120 120 122 122 121 115 107 102 103 107 106 105 109 111 118 118 116 113 115 112 110 97 93 98 100 100 99 97 95 100 107 106 105 100 97 94 89 86 85 85 51 158 255 251 209 141 127 122 122 120 120 121 120 116 112 111 113 109 106 107 109 110 114 114 111 111 111 104 97 93 98 100 98 100 108 112 107 103 104 105 104 100 96 92 87 88 85 82 49 158 255 255 251 171 134 126 123 121 120 120 117 117 114 115 116 111 109 107 106 109 110 110 109 109 107 103 100 99 96 96 97 103 107 114 111 106 104 104 104 100 95 91 89 86 83 79 48 158 255 255 255 226 145 130 125 121 120 119 116 115 115 114 114 110 108 107 104 99 95 93 91 92 92 91 88 88 92 96 99 103 111 113 110 105 101 101 97 95 91 89 87 83 80 77 45 158 255 255 255 253 181 136 127 121 118 117 115 114 115 113 111 109 106 102 100 97 91 85 80 78 78 82 88 90 94 96 101 107 111 110 111 107 104 101 96 92 89 87 84 82 77 73 42 158 255 255 255 255 236 149 129 121 117 115 113 113 115 112 112 111 107 102 99 96 94 91 88 86 88 89 91 93 97 100 105 109 111 112 110 108 104 102 95 90 87 85 82 78 74 68 37 158 255 255 255 255 254 199 133 120 115 113 113 113 114 114 112 112 109 108 108 103 99 97 96 94 93 94 97 100 105 106 110 111 111 111 109 108 106 103 95 89 85 82 80 75 69 59 33 158 255 255 255 255 255 246 147 120 115 112 111 113 113 113 113 114 115 115 115 112 109 107 106 106 106 105 105 108 111 111 113 112 112 110 109 106 104 100 94 87 81 78 74 68 59 56 32 158 255 255 255 255 255 234 167 118 111 110 110 110 111 111 113 116 117 118 120 121 121 122 122 121 120 118 114 117 118 116 113 113 111 108 106 103 100 95 89 83 79 73 67 59 55 56 30 158 255 255 255 255 252 179 135 127 107 106 106 107 108 111 114 117 119 121 122 122 121 122 122 121 122 120 120 120 122 119 117 115 110 105 102 98 93 89 84 77 72 65 57 53 57 54 29 158 255 255 255 255 228 141 126 120 110 100 101 103 104 108 112 114 117 120 122 120 122 123 121 121 122 120 121 121 119 117 114 110 107 101 97 92 87 83 77 70 63 54 52 56 58 52 28 158 255 255 255 253 171 122 121 117 114 99 94 98 101 104 107 111 114 116 117 118 118 118 114 117 115 114 115 115 112 110 108 104 101 96 92 87 80 74 68 60 52 51 56 59 58 50 27 158 255 255 255 225 125 113 119 115 113 108 95 90 95 99 102 105 107 109 111 110 108 107 108 110 109 111 109 107 104 102 101 100 95 89 84 78 71 64 56 49 50 56 60 59 56 48 25 158 255 254 232 147 105 107 115 115 112 109 104 92 87 93 96 98 101 103 104 103 102 102 104 105 105 106 103 100 96 95 94 91 87 81 74 67 59 51 47 50 54 59 59 58 55 45 24 98 157 128 87 69 58 63 71 70 69 68 66 62 55 52 56 58 59 59 60 60 61 62 61 62 62 61 60 58 56 55 53 51 48 44 40 34 30 28 30 33 36 38 38 37 33 27 14 