P2
48
60
255
30 52 59 62 64 68 69 70 70 72 72 75 77 78 80 82 82 82 82 79 80 79 78 77 79 81 81 77 74 72 72 68 67 64 62 58 56 54 51 50 45 43 40 35 32 35 36 29 48 86 95 101 105 108 110 112 114 115 117 118 122 124 129 131 132 131 128 124 128 126 120 123 123 127 128 123 117 116 117 111 109 104 99 96 91 86 83 80 75 73 67 58 52 55 56 45 48 88 96 101 105 109 110 111 115 116 115 115 117 121 124 129 130 130 128 124 125 125 119 119 122 125 124 120 114 114 114 111 108 104 100 96 90 82 81 80 78 75 68 60 51 53 55 40 51 91 99 102 106 109 111 114 112 113 111 108 111 112 119 128 130 125 123 124 122 124 122 121 119 127 123 119 112 111 112 110 107 103 99 93 83 78 84 83 80 75 69 59 50 50 54 37 55 96 101 104 108 110 110 113 114 113 111 109 108 108 112 125 128 127 125 123 123 122 123 118 119 125 123 119 115 115 119 114 109 102 96 86 73 78 83 83 80 75 69 59 51 49 53 34 58 99 104 107 109 109 111 114 114 113 113 114 107 105 105 119 127 127 125 126 122 118 120 115 121 126 126 120 117 118 118 111 106 97 90 74 70 82 87 83 80 74 67 58 51 48 50 32 59 101 107 110 111 109 110 115 119 119 119 123 118 110 106 112 122 126 124 121 111 111 113 111 118 121 122 117 113 115 112 108 101 92 84 69 83 89 87 83 81 74 68 61 52 49 50 32 62 105 109 113 114 112 107 106 108 110 109 114 116 117 116 115 118 116 116 107 98 106 107 112 115 114 112 107 106 106 104 104 98 92 83 83 93 91 87 82 81 76 74 67 55 49 51 31 62 104 104 98 89 84 82 76 71 65 60 67 74 88 98 101 101 100 101 94 89 101 101 104 110 106 101 96 93 97 98 99 98 97 93 93 92 87 82 75 78 78 77 71 58 48 50 31 60 90 79 76 74 76 80 77 71 65 55 50 50 52 55 59 69 77 79 79 84 93 96 100 106 98 90 81 77 82 83 81 76 74 75 75 73 69 62 59 58 56 53 52 52 47 49 31 58 87 84 88 94 102 101 101 94 89 72 56 46 41 40 43 49 49 54 62 74 88 95 100 100 92 80 67 63 62 59 55 47 45 45 47 48 49 53 54 53 53 48 44 42 41 47 30 57 92 96 101 102 105 105 101 97 88 77 65 51 45 42 42 42 41 43 53 72 86 91 96 94 85 73 58 47 44 42 40 37 36 37 38 41 48 55 58 60 62 58 50 43 41 45 30 56 88 91 93 92 89 89 85 80 76 69 59 50 43 41 41 41 40 40 49 74 85 93 97 92 82 67 51 41 37 37 38 38 40 41 44 50 54 61 66 69 68 62 53 45 40 43 30 51 80 82 83 78 69 61 55 52 50 46 44 44 44 41 38 40 42 42 46 78 97 104 105 95 85 65 46 36 36 36 36 36 37 39 45 52 58 62 64 65 62 57 49 42 39 42 30 49 76 75 64 53 51 43 35 33 31 30 32 37 40 42 45 48 49 52 54 82 104 113 118 108 92 68 42 36 36 36 37 39 39 40 40 41 43 44 45 45 47 49 45 41 39 41 29 50 75 66 57 41 34 35 35 32 33 37 41 54 55 47 41 51 71 80 71 85 104 117 125 119 103 72 41 41 46 40 35 37 38 31 28 27 28 30 33 36 38 38 39 39 39 41 28 53 77 66 55 49 45 44 53 53 51 54 56 58 65 66 73 79 84 88 82 89 103 117 125 124 110 81 45 51 55 45 53 62 61 54 47 40 37 35 35 32 30 33 36 36 38 42 29 64 97 91 86 75 65 60 62 63 63 61 60 59 60 61 69 79 90 89 86 93 105 119 124 126 113 88 55 52 62 71 73 73 69 66 61 52 47 45 40 35 34 34 35 36 41 47 31 73 117 113 105 92 80 72 68 64 62 59 58 60 67 76 85 93 100 94 92 99 111 120 125 126 116 93 69 59 69 80 81 75 65 62 62 59 55 53 48 43 39 40 44 46 52 55 34 77 125 120 116 111 102 92 85 81 79 79 83 85 90 93 101 107 100 95 97 105 115 123 130 124 118 99 77 67 76 87 92 89 81 71 62 58 54 53 52 50 49 52 57 62 65 64 38 77 124 125 124 121 118 114 112 108 105 100 99 98 102 110 112 107 102 96 101 104 109 122 135 126 119 104 81 69 76 92 99 98 94 87 83 80 77 75 74 74 72 69 72 74 73 69 39 76 123 125 128 129 127 124 121 118 113 112 110 112 114 116 114 111 103 97 100 102 108 121 140 132 122 107 82 69 72 89 101 104 106 101 97 98 98 97 95 94 92 87 83 82 79 73 41 75 123 125 127 130 128 125 121 117 116 117 118 118 117 116 118 113 105 99 100 102 107 119 142 133 123 108 84 70 69 83 97 103 108 109 107 106 106 105 104 103 101 96 90 85 80 73 41 72 116 116 124 125 124 127 123 119 116 117 119 120 122 123 118 112 104 101 101 102 109 120 139 138 119 107 88 70 67 81 95 104 111 112 110 109 110 107 104 104 101 96 90 84 80 73 41 71 115 114 118 122 121 124 126 123 121 120 124 123 124 123 113 104 100 99 100 104 113 124 140 139 122 110 91 72 64 76 95 107 113 113 111 105 109 106 106 102 98 93 88 81 77 72 40 69 113 112 114 118 120 120 122 121 121 121 126 122 116 109 101 96 94 96 99 107 117 122 143 136 122 111 94 73 61 69 92 107 112 112 110 107 105 102 100 98 93 90 85 79 74 69 39 67 111 111 111 114 114 115 118 118 115 118 120 113 104 98 94 87 91 101 104 110 118 124 141 137 119 109 97 76 60 65 89 105 110 112 108 106 103 99 96 94 88 90 85 77 72 68 37 64 106 110 105 108 107 110 113 113 112 114 109 103 96 93 88 87 105 114 111 112 117 124 146 131 114 107 95 78 74 65 85 101 108 107 104 104 100 98 94 93 89 86 81 75 70 65 36 63 105 105 105 107 103 99 106 108 106 109 107 99 92 88 83 100 117 116 110 108 110 115 123 115 106 99 87 77 87 81 81 96 105 108 105 100 96 94 91 87 86 81 78 72 68 62 35 60 101 101 102 103 99 97 102 105 106 104 101 93 89 85 89 97 91 94 98 95 95 98 97 95 93 86 75 71 80 81 82 93 103 104 101 99 92 90 87 85 82 77 73 69 66 60 34 59 97 98 100 99 99 99 101 102 103 99 97 91 89 90 92 72 56 43 56 70 75 80 82 80 75 66 62 60 59 62 76 91 100 102 100 95 88 85 80 80 78 75 72 67 62 58 34 57 94 94 96 98 96 97 98 100 98 95 92 88 89 98 103 70 50 37 30 35 57 69 70 67 63 57 41 33 42 53 61 86 97 97 96 92 86 82 79 77 74 72 68 64 61 59 34 55 93 93 93 96 98 97 97 100 97 91 88 88 90 109 114 91 61 57 56 51 47 59 60 59 56 43 38 41 46 48 55 79 94 96 95 92 87 82 77 72 70 67 65 62 61 59 37 54 90 91 93 95 94 97 97 96 95 94 91 93 103 117 118 113 103 91 91 79 64 54 51 51 48 47 46 44 50 53 60 79 91 94 93 88 85 79 75 71 67 66 63 62 61 61 39 53 86 90 92 92 94 95 96 95 94 93 90 97 112 118 116 116 119 118 113 103 82 63 50 45 45 47 47 49 55 58 68 82 89 93 90 87 81 78 72 69 67 63 63 63 63 65 41 53 86 87 88 90 91 92 95 93 91 89 90 96 106 112 114 114 115 114 115 111 96 81 64 53 51 49 51 55 62 67 75 81 83 88 90 84 81 75 68 67 65 63 63 63 66 68 43 51 83 84 85 88 91 93 93 92 88 86 88 96 104 107 109 107 104 107 109 106 97 85 69 65 66 61 62 64 67 72 76 78 79 85 87 85 78 70 67 65 62 63 64 66 68 70 48 53 83 82 85 88 88 91 93 93 90 88 96 102 103 104 103 103 103 104 108 101 94 88 81 80 78 74 71 70 71 73 75 78 78 80 85 81 73 68 65 63 63 63 66 68 70 77 54 54 86 85 85 88 86 87 91 93 96 98 100 102 103 104 105 107 105 104 106 104 99 97 98 98 95 87 75 74 75 71 75 77 77 81 83 77 69 66 65 64 62 64 67 70 74 87 59 54 88 88 88 87 87 87 89 91 93 94 96 97 97 100 105 108 109 107 108 115 113 113 117 118 111 96 84 83 75 74 77 75 75 78 79 71 67 67 65 64 64 65 68 73 85 104 40 55 87 87 89 89 90 90 90 87 87 90 90 94 103 102 105 106 111 112 108 99 94 98 106 103 96 93 94 89 84 81 77 74 72 72 71 69 72 71 68 65 66 67 69 78 99 97 33 52 87 87 89 89 91 91 90 85 81 79 83 87 92 96 96 99 93 85 71 61 58 62 65 62 61 67 75 79 85 82 78 68 64 65 67 70 73 71 67 66 67 69 71 86 120 73 37 52 85 87 87 88 90 90 89 88 86 79 73 65 58 61 60 56 48 43 38 31 31 38 41 34 34 39 43 50 56 58 54 53 59 66 69 71 71 69 65 67 69 71 79 105 140 167 133 51 82 84 84 84 85 88 87 86 86 86 83 79 79 81 70 61 60 63 49 38 33 30 33 34 41 47 49 52 47 46 50 57 66 68 69 70 67 66 67 70 72 75 89 157 240 254 158 49 81 82 82 84 84 84 84 85 88 89 88 91 93 90 89 85 79 77 79 76 71 65 68 64 72 67 59 53 57 62 60 63 66 67 65 65 65 66 68 71 73 81 111 229 255 255 158 49 79 81 81 80 81 82 83 86 88 91 93 94 88 69 62 73 81 77 76 76 81 81 81 79 76 64 57 63 61 59 65 69 68 68 66 64 63 64 68 71 76 92 143 222 251 254 157 48 79 79 79 81 81 83 85 86 89 92 94 95 88 80 78 66 58 60 68 72 69 67 70 72 67 60 61 57 56 69 74 74 71 68 65 64 63 64 70 73 83 111 92 112 179 209 131 49 77 78 78 80 82 83 86 87 88 92 92 91 88 89 85 79 70 59 52 53 55 59 59 60 58 54 51 52 62 71 74 73 71 67 64 65 66 68 72 78 97 96 61 75 103 116 70 51 78 76 77 80 84 86 88 90 90 90 86 84 84 86 86 87 82 69 56 47 45 47 47 49 51 51 53 57 64 70 72 72 70 67 65 66 70 71 76 87 98 75 53 61 82 90 52 50 81 76 76 77 81 84 88 91 90 90 88 85 82 81 78 76 70 62 58 53 49 46 45 46 50 54 58 61 64 68 71 72 71 70 67 71 74 75 83 88 72 54 47 55 70 75 42 45 80 81 76 74 77 82 86 89 92 91 88 84 81 76 73 71 67 69 75 77 70 64 57 55 55 57 60 63 67 71 75 76 71 69 71 78 77 83 82 69 61 43 45 53 63 63 36 45 73 79 80 75 74 78 83 86 89 91 92 89 84 80 79 81 86 94 101 100 93 86 80 77 72 70 70 69 70 76 78 73 68 70 79 82 82 73 63 66 53 39 44 52 59 56 34 46 71 72 77 80 76 76 80 82 85 89 94 95 93 93 94 100 104 109 111 108 105 102 98 95 87 85 82 78 81 81 79 71 67 78 85 81 70 56 62 64 46 37 44 50 56 52 34 46 72 70 69 74 80 77 78 79 81 84 89 94 96 98 100 101 105 109 108 105 102 100 96 92 90 88 83 81 89 90 79 68 74 88 78 66 61 61 62 61 39 34 43 50 52 53 40 47 74 71 68 67 71 79 77 77 78 80 83 85 92 95 100 102 101 100 99 98 94 93 87 85 84 81 78 87 92 84 72 72 84 73 63 60 60 60 59 55 33 31 42 49 53 66 47 48 74 71 68 66 65 68 76 77 76 78 76 77 80 86 90 93 92 91 89 86 82 82 80 78 76 77 81 86 82 71 73 80 67 61 59 57 58 58 57 51 31 28 39 52 67 76 50 49 76 72 69 67 65 64 66 72 77 76 77 73 71 74 77 80 80 79 76 74 72 72 72 70 71 73 77 75 69 73 74 62 58 57 56 56 56 56 53 46 32 28 45 67 77 83 54 49 77 74 69 67 66 64 64 64 67 75 76 75 74 70 68 68 69 69 67 66 65 64 62 64 67 66 67 69 74 66 58 57 54 53 54 54 54 51 48 42 34 49 69 77 82 88 58 50 77 74 71 67 66 66 63 63 63 65 69 76 76 73 73 71 68 66 64 64 64 63 62 65 67 70 73 68 60 57 54 52 53 52 52 51 49 47 43 39 54 72 78 83 88 95 60 31 49 46 44 43 41 40 40 40 39 39 40 41 44 47 46 43 43 44 44 45 46 45 44 46 46 42 38 36 35 33 32 32 31 30 30 30 29 27 24 32 44 48 51 55 58 60 37 