P2
48
60
255
21 36 38 40 44 49 54 58 64 68 72 76 84 89 93 96 96 95 96 96 94 93 95 97 98 102 103 104 103 108 108 112 117 115 110 104 98 95 95 94 93 89 86 80 76 52 29 13 33 58 61 66 71 79 88 96 107 112 119 125 136 144 150 156 155 154 157 159 155 154 156 156 160 164 164 166 168 169 174 182 186 183 177 167 156 150 152 153 149 141 137 128 123 86 49 24 34 59 62 66 71 80 88 97 107 114 118 126 132 143 150 154 156 154 158 160 161 157 159 157 157 160 164 162 163 166 176 182 186 182 174 166 157 152 151 151 146 140 133 125 124 91 47 27 36 60 64 67 72 79 86 93 103 110 115 121 127 136 146 149 150 154 158 162 160 157 160 155 155 157 162 161 159 160 173 182 186 182 176 167 161 159 156 151 147 140 131 123 122 92 43 21 37 61 65 67 72 77 77 80 92 98 106 114 119 121 127 136 141 145 148 156 155 154 154 155 152 150 155 154 155 155 161 170 176 177 175 169 164 162 159 155 147 140 130 123 122 93 45 19 38 62 64 68 72 68 61 67 74 77 82 91 101 103 111 119 127 134 139 144 147 149 148 149 148 146 148 148 148 145 148 153 156 160 161 162 160 154 149 147 147 140 131 123 123 101 46 18 38 62 64 67 63 59 52 59 60 51 52 56 62 65 71 85 101 113 120 130 136 139 138 139 139 138 139 137 138 135 136 137 136 139 147 143 143 131 125 120 127 139 133 124 123 112 54 19 38 62 60 54 55 53 53 53 44 36 37 42 40 43 50 60 75 88 97 111 124 129 131 132 130 127 126 124 121 115 113 112 103 100 104 100 97 95 97 104 97 113 122 122 121 115 67 23 38 61 59 55 51 48 50 47 37 29 35 38 37 40 44 51 57 67 77 90 103 114 120 122 121 117 112 107 102 94 81 75 64 57 57 55 54 64 75 91 96 92 98 113 119 114 90 30 37 61 60 52 44 43 44 44 43 47 47 46 45 45 43 44 44 50 58 69 86 97 108 113 110 105 98 90 80 73 66 59 53 48 47 40 40 50 63 80 95 101 92 100 116 117 107 39 36 58 56 53 48 48 51 57 63 63 60 56 51 47 45 44 42 43 47 54 69 87 98 102 100 93 85 74 63 56 55 55 53 56 58 56 54 49 51 57 74 82 88 99 116 117 114 53 36 53 55 51 54 55 60 68 80 86 85 79 70 56 49 46 45 45 48 55 67 85 98 102 99 90 77 62 53 48 47 51 59 65 77 87 96 94 83 77 79 81 83 88 105 115 117 67 36 55 54 53 55 57 64 76 89 95 100 102 97 86 65 54 50 50 55 64 78 95 109 115 113 101 85 67 57 53 56 64 73 83 97 110 118 121 121 112 108 103 95 95 99 108 118 71 37 56 53 52 52 51 52 66 83 100 107 109 103 89 77 69 60 55 59 74 91 112 130 135 132 121 107 89 75 70 73 75 82 90 98 105 112 115 117 117 114 103 99 98 98 111 118 72 38 57 54 51 47 45 51 58 53 47 48 54 64 67 83 79 68 64 64 81 101 126 148 163 158 139 123 108 93 81 75 71 68 72 81 96 115 125 116 103 90 92 96 96 100 111 118 73 39 59 54 46 34 33 29 24 22 13 12 12 17 35 33 80 86 72 71 87 108 134 156 178 175 154 139 122 109 87 79 77 54 45 36 33 38 49 69 85 91 85 85 91 100 110 119 73 41 64 54 39 32 29 31 37 40 21 23 23 34 98 46 42 103 88 79 91 110 134 159 182 180 159 149 135 131 107 100 43 37 46 17 13 13 15 32 33 47 63 71 88 102 115 120 73 43 68 60 50 50 46 45 55 62 53 44 49 84 117 100 89 89 97 88 97 108 134 157 176 172 153 154 145 147 127 104 62 66 78 35 24 24 31 80 59 46 45 60 85 106 115 122 75 44 71 67 61 55 53 55 64 74 80 85 90 91 91 97 100 96 99 102 102 109 132 156 171 169 161 158 157 160 144 113 104 97 101 95 82 79 96 103 96 88 83 86 97 114 123 124 75 45 75 72 69 64 61 58 60 64 68 69 74 80 84 90 97 108 104 105 106 109 130 154 174 165 159 154 159 161 167 139 100 82 81 84 86 96 108 110 110 103 100 108 119 126 128 126 76 46 75 76 79 78 74 71 69 67 69 70 73 80 89 102 112 104 101 99 102 106 122 157 179 170 155 153 154 159 169 173 137 103 81 72 76 83 91 99 106 111 118 123 129 134 133 129 78 47 76 80 87 91 92 90 91 91 92 94 98 104 111 123 115 98 94 93 93 97 117 155 179 174 150 147 150 154 163 177 169 141 118 108 100 96 99 109 121 129 138 140 141 138 137 132 78 45 77 85 93 102 104 105 105 106 108 113 116 124 130 127 110 93 86 87 86 90 113 150 174 175 149 144 143 147 158 174 182 171 150 136 137 135 136 142 145 149 155 152 147 139 137 132 78 45 78 86 96 105 111 113 115 117 119 124 130 133 132 121 104 88 80 80 81 87 111 144 168 175 148 142 142 145 155 169 182 176 165 153 149 147 146 149 152 158 159 154 147 139 132 128 77 44 76 83 91 103 109 114 116 117 123 127 131 133 131 119 104 86 79 78 79 86 108 138 164 172 149 141 141 144 151 163 173 169 166 162 154 152 152 153 154 158 155 152 146 140 132 122 75 43 72 78 85 96 108 113 117 121 125 132 134 135 129 120 102 84 75 75 77 84 108 139 159 175 151 143 141 139 146 156 164 170 165 165 157 150 152 150 152 152 149 145 142 137 128 123 74 42 68 71 78 89 102 113 118 123 128 136 136 135 128 115 98 77 71 73 77 89 108 135 152 173 154 147 140 133 134 147 159 165 167 164 156 158 157 154 147 145 144 140 138 132 123 120 73 40 66 69 76 86 98 109 118 122 125 127 130 130 125 113 91 70 75 93 91 100 113 141 151 176 159 148 144 142 130 135 148 156 158 158 157 157 156 155 151 149 140 134 130 124 118 116 71 38 64 66 71 79 91 101 110 117 119 123 124 123 121 110 82 69 94 110 99 103 114 148 146 171 169 151 146 152 143 127 137 147 150 153 154 153 153 153 153 150 139 131 128 124 116 113 67 38 61 64 68 75 82 90 99 107 113 118 120 120 121 105 73 73 89 103 90 82 94 117 124 134 144 134 135 149 147 127 131 141 145 147 148 149 148 146 146 141 138 128 124 119 113 112 67 37 60 63 68 71 76 84 92 96 107 111 117 119 119 96 70 71 74 74 66 62 65 83 96 105 109 107 107 117 129 126 126 133 141 144 141 142 141 141 136 134 131 123 119 114 110 107 65 37 60 61 65 67 70 78 85 94 104 108 114 120 114 85 71 63 57 36 23 40 55 57 62 71 87 80 44 48 86 113 118 135 140 140 138 137 136 135 134 131 123 120 115 111 108 105 62 37 60 61 63 67 70 74 83 90 97 105 111 118 103 79 73 58 42 24 16 17 30 43 41 44 54 24 16 27 61 99 120 130 137 139 136 132 132 130 129 125 122 117 111 108 105 100 59 36 60 61 64 66 69 73 77 85 92 98 111 109 84 79 78 70 38 27 42 56 44 34 36 40 46 62 40 30 49 106 126 128 137 140 134 131 129 128 126 122 119 111 109 104 101 96 58 36 60 63 65 66 70 73 77 84 91 98 106 92 81 81 81 79 69 58 62 64 61 48 33 51 86 105 99 74 91 127 134 132 137 142 136 133 128 125 124 117 113 110 107 103 98 94 58 37 61 64 66 65 69 72 74 80 88 99 98 84 82 80 82 80 77 74 72 70 65 63 81 99 108 116 121 121 126 132 140 140 144 145 141 133 131 125 121 116 111 107 105 102 101 96 60 37 62 63 65 66 69 69 70 76 84 92 87 82 80 78 80 78 76 73 71 71 75 92 107 115 121 128 133 129 134 141 146 150 149 149 143 134 129 125 122 117 111 108 105 103 103 96 60 37 61 64 65 66 68 69 69 75 81 86 81 78 79 79 77 74 73 71 72 92 103 106 109 116 123 127 131 128 134 140 145 146 147 146 141 134 128 124 119 115 113 111 108 105 103 99 62 38 63 65 66 67 68 69 71 74 76 78 79 80 81 79 78 78 84 96 96 112 122 125 116 118 128 126 126 116 121 131 138 138 139 140 137 132 126 123 119 115 114 111 109 108 105 101 62 37 62 65 66 67 68 70 70 71 71 74 78 78 77 82 91 96 100 103 102 107 118 132 124 113 121 127 127 120 123 123 127 128 130 131 130 126 121 118 117 115 113 110 112 109 105 101 60 36 61 64 65 67 68 68 69 67 68 68 69 71 72 77 85 90 89 83 75 72 82 95 112 108 101 103 112 115 117 117 120 123 118 121 123 120 115 115 115 112 110 110 111 109 106 101 58 35 61 62 64 65 67 68 68 66 65 64 61 58 57 56 59 61 51 46 43 41 41 50 67 65 56 61 73 81 90 101 108 111 104 106 111 111 108 107 109 110 105 110 110 107 103 99 59 34 59 62 63 64 64 65 66 65 63 61 57 48 36 33 35 34 32 32 33 32 31 32 34 40 40 37 41 50 54 63 76 85 90 92 97 103 100 103 105 106 105 109 109 105 101 97 64 33 57 59 61 63 64 62 63 63 60 59 54 41 28 20 19 21 24 27 28 26 28 32 32 33 33 29 28 30 32 34 38 41 51 74 89 94 96 99 102 100 103 106 105 103 98 99 68 32 54 56 58 61 62 61 61 61 60 56 50 42 39 45 44 48 57 71 86 83 81 80 74 77 79 84 88 69 42 27 24 33 43 61 80 87 93 98 98 97 100 103 102 98 96 107 70 31 52 53 56 58 59 60 59 60 59 55 50 46 47 49 51 52 59 73 109 118 121 120 117 124 125 135 120 103 96 89 82 72 63 66 76 87 93 93 97 97 98 100 99 95 95 116 71 28 51 53 54 55 56 57 58 58 58 54 52 51 52 51 49 48 50 58 78 88 94 95 89 96 100 90 85 83 84 85 82 83 79 73 79 88 90 93 92 94 95 95 94 93 96 125 72 28 48 51 54 54 55 56 56 56 56 55 53 54 54 52 49 46 47 50 60 79 91 98 97 87 83 83 77 73 76 75 77 82 85 79 79 83 87 89 86 88 92 92 92 90 105 128 73 32 46 50 53 54 55 55 54 54 55 55 55 54 53 53 53 47 39 38 43 52 59 63 67 70 72 68 63 59 62 70 79 85 85 81 80 81 81 85 84 87 90 91 89 88 123 130 74 37 48 46 50 53 55 54 54 55 55 56 55 55 54 54 52 51 46 41 32 27 28 29 30 32 34 35 36 49 67 75 79 84 82 82 82 81 80 82 84 87 88 87 85 92 135 131 75 44 52 44 47 50 53 54 54 55 56 55 55 55 55 53 53 51 50 48 44 35 23 17 16 17 21 33 53 63 68 74 78 81 80 81 83 82 82 84 85 87 85 83 81 113 138 132 76 51 54 50 42 47 52 54 55 56 58 58 56 56 56 55 54 53 52 50 48 47 46 41 36 39 50 63 68 70 72 77 81 84 84 83 86 87 87 86 87 84 81 77 80 127 138 134 76 58 56 54 46 40 48 51 54 57 58 58 58 58 59 58 57 56 56 54 54 55 58 69 83 94 92 84 78 79 81 82 86 87 87 85 89 91 89 87 84 81 76 73 94 130 139 134 77 62 56 57 52 41 40 47 52 56 57 59 59 59 60 60 60 60 60 58 57 62 76 86 92 103 107 103 96 95 92 93 93 94 93 92 92 91 89 84 79 74 68 84 104 133 140 135 77 65 58 58 56 52 37 40 47 53 56 59 60 60 61 61 62 62 61 59 61 68 70 79 87 97 107 109 107 104 101 101 99 98 96 94 92 88 85 79 71 64 74 103 106 134 140 135 78 69 61 59 57 56 50 35 38 46 53 57 59 60 61 60 61 61 60 60 61 61 65 71 79 87 90 101 103 100 102 100 100 100 98 93 90 84 78 68 62 62 96 110 108 135 140 135 78 70 64 59 59 59 57 46 33 37 46 52 56 59 61 60 60 59 58 58 57 55 55 63 69 77 80 88 93 94 97 98 97 97 95 90 86 76 66 57 55 87 106 112 108 135 140 136 79 71 70 59 61 61 60 57 41 32 36 45 52 57 58 59 59 58 56 54 52 48 50 54 55 62 66 74 82 86 89 90 90 89 87 84 75 62 54 49 79 105 114 113 109 135 141 137 80 71 75 59 61 62 62 60 55 36 32 36 44 52 56 57 56 55 52 50 46 42 42 41 41 48 50 57 69 76 80 81 82 82 79 72 58 51 46 69 102 110 114 112 109 136 142 140 81 44 49 36 38 38 39 38 37 32 18 19 21 28 32 34 34 32 30 28 24 24 23 23 23 25 27 29 36 40 44 45 46 46 43 36 30 27 33 58 66 69 70 70 69 85 88 86 51 