P2
48
60
255
13 20 21 22 22 23 23 24 23 25 25 26 27 27 28 29 29 29 29 28 28 28 29 29 29 30 30 30 29 30 28 27 26 26 26 25 24 24 23 23 23 23 24 24 25 26 29 21 21 34 35 35 37 37 38 38 39 41 42 43 44 44 45 46 47 47 47 47 46 47 48 49 49 49 50 49 49 49 47 45 44 43 43 42 42 41 40 39 39 38 39 39 41 43 47 33 21 34 35 35 37 38 38 39 41 43 44 44 45 45 45 46 46 47 47 47 49 50 50 50 52 52 51 50 50 49 47 44 43 43 41 42 41 41 41 40 40 38 39 40 41 44 49 34 21 34 35 36 38 37 38 39 42 45 46 47 46 45 42 44 42 42 44 46 47 50 51 51 51 49 49 48 46 45 40 36 34 33 33 34 37 37 38 38 37 38 40 41 42 46 49 35 21 35 35 35 37 38 38 37 37 38 39 38 35 33 32 32 34 34 36 40 43 46 49 49 50 47 47 45 44 39 33 31 30 29 29 29 30 31 31 32 33 35 40 41 43 46 52 35 21 35 35 36 37 38 34 31 29 29 28 29 28 28 27 29 30 32 31 35 36 44 49 48 48 48 46 44 39 36 32 32 31 31 30 29 30 29 30 30 30 32 35 41 44 47 55 35 21 34 35 36 37 32 31 31 31 34 31 28 28 30 30 30 31 35 33 33 36 43 46 47 47 47 46 44 39 35 34 34 32 32 31 31 31 33 35 36 36 36 34 37 43 48 57 36 21 35 36 35 32 31 33 40 43 43 42 38 35 33 34 36 36 38 36 37 39 44 46 46 47 46 45 43 39 38 38 38 36 36 33 34 36 38 40 41 41 41 38 36 40 49 59 37 21 35 35 31 31 37 42 45 46 46 43 40 38 37 37 38 40 40 40 41 43 45 45 46 45 44 44 41 40 39 38 37 35 34 34 36 38 39 41 41 42 42 41 40 39 47 60 38 21 36 31 32 38 42 44 45 45 42 39 36 35 34 35 36 37 38 39 41 43 46 46 47 46 44 43 40 38 37 35 34 33 32 32 34 35 37 38 40 41 42 42 43 43 44 60 39 22 33 33 37 41 42 42 42 40 37 35 35 36 36 35 35 35 37 38 40 43 45 46 48 46 44 42 39 36 34 34 33 32 34 36 40 42 41 38 36 38 40 41 43 45 46 59 41 21 33 38 40 40 40 38 36 40 44 42 40 42 42 40 38 37 37 38 40 41 43 46 48 48 46 41 37 34 33 33 33 34 38 43 45 46 47 41 39 37 36 38 39 43 49 57 42 22 37 39 39 38 36 36 37 42 47 45 44 45 44 41 40 39 38 38 39 40 43 45 47 48 46 40 36 34 34 34 34 38 44 45 45 45 47 41 40 40 38 37 39 42 49 55 43 23 38 39 38 37 37 36 39 41 42 38 41 41 40 40 41 42 39 38 39 39 43 47 48 49 44 40 36 34 34 33 36 42 44 43 41 40 42 37 39 39 40 39 39 43 48 54 42 23 38 39 38 38 35 36 36 33 29 27 27 27 29 34 38 41 41 39 40 40 43 46 49 49 46 41 38 34 34 35 41 42 38 32 33 31 32 29 32 34 38 42 41 43 48 53 40 24 39 38 38 37 34 30 28 28 29 42 25 24 32 30 31 38 43 44 44 41 44 45 48 49 47 42 38 36 36 41 42 34 39 34 54 29 29 30 40 36 32 38 41 43 47 50 36 24 39 39 38 34 29 29 40 35 25 25 24 26 46 46 36 34 40 46 45 42 43 45 48 48 46 42 38 37 39 42 37 38 54 41 29 28 29 34 46 44 36 36 40 43 46 49 34 24 40 40 38 35 32 31 42 48 29 26 26 35 50 44 44 38 39 42 41 42 43 45 46 47 45 42 39 37 37 39 39 41 44 46 33 31 31 39 43 39 37 40 42 44 45 47 32 25 40 41 42 39 34 32 33 37 39 35 33 36 39 38 36 37 41 43 41 42 43 46 46 45 43 42 39 38 38 38 39 39 40 43 43 39 38 38 37 38 40 41 43 44 45 47 31 24 40 42 41 40 38 35 35 36 35 33 33 33 33 35 38 43 45 41 42 42 43 46 47 47 44 42 39 38 38 38 41 44 39 37 37 36 35 36 37 38 40 42 44 44 45 46 30 24 41 42 42 42 42 39 38 38 37 37 36 37 41 43 46 45 42 42 42 42 43 45 46 46 44 42 40 38 39 39 40 46 48 43 38 36 36 35 37 38 41 44 45 45 45 46 30 24 40 42 43 45 45 44 44 43 44 45 47 46 46 47 44 43 44 42 42 41 43 44 46 45 44 42 39 39 39 38 39 41 47 50 47 44 43 42 42 42 44 45 46 45 45 46 30 24 40 42 45 47 47 47 48 49 50 50 50 49 48 43 44 46 43 43 41 41 42 45 47 47 45 43 40 38 39 39 39 41 43 45 48 48 47 45 45 45 46 46 47 46 46 46 30 24 40 43 46 46 46 47 49 50 52 54 52 48 44 47 48 46 44 44 42 41 42 46 49 49 49 46 42 39 39 39 39 41 45 44 43 46 47 47 46 46 47 48 47 47 47 47 30 24 40 43 47 47 48 48 50 53 53 51 46 45 48 49 48 46 44 43 42 40 43 49 52 52 60 55 45 41 39 40 39 41 44 45 43 43 44 46 47 47 47 47 46 47 47 47 31 24 40 42 45 48 48 50 51 51 48 46 46 48 48 49 49 48 42 42 42 41 45 55 61 55 62 59 47 42 40 40 39 40 42 45 45 44 45 44 46 47 47 47 46 47 47 48 31 24 40 42 44 47 48 50 52 50 49 50 48 49 51 51 51 46 40 42 43 45 50 61 58 53 51 48 45 42 41 41 41 40 42 44 45 45 45 46 46 46 46 46 46 46 46 47 31 24 40 41 44 45 42 44 50 48 50 50 50 51 52 53 51 42 44 47 49 50 47 46 45 46 45 43 41 39 40 41 41 40 41 44 46 46 45 46 46 45 45 45 44 46 46 47 31 24 39 39 42 44 45 46 49 48 49 50 52 52 52 52 44 41 38 36 37 39 40 41 41 41 40 39 37 36 34 33 33 34 37 43 45 46 46 45 45 45 46 45 45 46 46 47 31 24 39 40 41 42 45 47 48 48 49 51 52 53 52 52 39 35 27 24 24 25 28 33 38 37 36 37 33 28 27 26 27 30 34 42 45 45 45 45 45 44 45 45 45 45 46 48 32 23 39 40 41 42 44 46 47 47 49 50 53 55 53 48 38 33 26 25 25 25 27 30 33 34 34 32 26 26 27 27 29 35 36 42 45 45 46 44 44 44 44 44 45 46 47 48 33 23 39 40 41 42 43 45 46 46 48 49 52 52 50 44 40 35 37 41 40 37 38 38 36 34 33 31 33 35 37 41 42 39 37 43 44 45 46 44 44 44 44 44 44 46 48 49 33 24 39 40 42 41 43 43 44 46 47 49 51 51 47 43 42 37 37 42 43 41 39 41 43 42 42 43 43 41 41 41 38 35 38 42 42 45 45 44 44 43 44 44 45 46 48 50 35 24 39 40 41 40 40 43 44 45 46 48 50 49 45 43 42 41 42 43 43 40 43 43 45 50 50 43 40 40 39 40 41 40 41 42 42 43 45 44 44 43 43 44 45 46 48 51 36 24 39 40 40 40 40 41 42 43 45 48 48 48 45 43 43 43 43 42 40 38 38 36 39 45 45 37 37 36 36 36 38 41 42 43 43 43 44 44 43 43 44 44 45 46 49 53 37 24 39 39 39 39 39 39 40 42 45 46 46 46 44 43 42 40 38 36 33 32 32 33 36 42 42 39 37 33 32 32 35 38 40 41 42 43 43 44 43 43 44 45 46 47 50 54 38 24 38 39 39 39 39 39 40 42 43 44 45 44 43 41 39 35 33 31 30 32 32 36 36 38 40 38 38 34 33 32 33 34 37 39 41 42 42 43 43 43 43 45 46 48 51 56 38 23 38 38 39 38 38 39 40 41 41 43 43 42 39 36 33 32 31 34 39 40 41 44 43 44 44 44 43 40 39 38 35 34 34 36 37 40 42 42 43 43 44 45 47 48 52 57 41 24 38 38 38 38 38 38 39 40 40 41 40 36 32 32 32 35 37 38 38 40 40 39 39 39 37 37 37 38 38 37 38 38 35 34 34 36 40 42 42 43 45 46 47 49 52 58 55 24 38 38 38 38 37 38 39 39 39 39 34 31 29 32 37 37 35 39 42 41 40 39 39 39 38 38 39 40 39 38 36 36 37 36 32 33 36 41 42 44 45 47 47 50 53 60 82 24 38 38 37 37 37 37 38 38 39 36 30 28 31 37 35 33 34 37 36 35 34 35 35 36 36 36 35 35 35 36 36 35 34 36 34 32 34 40 43 45 46 48 48 51 54 65 120 24 38 38 38 37 37 37 38 38 38 35 32 32 34 33 29 31 32 32 31 30 30 29 31 32 32 31 31 30 31 31 32 34 32 32 34 33 34 39 42 45 46 48 49 52 55 79 145 24 38 37 38 37 37 37 37 38 38 36 33 33 31 26 26 29 32 32 33 35 36 36 37 38 37 37 37 37 37 35 32 31 29 30 32 34 35 38 42 46 47 48 50 53 56 108 155 24 38 38 37 37 37 36 37 37 38 35 34 33 32 33 32 34 39 42 43 50 50 50 50 51 51 51 51 52 46 43 40 39 36 36 37 36 36 38 42 46 48 49 50 54 59 159 158 25 39 38 38 37 36 36 36 37 37 35 33 33 35 37 39 38 39 41 41 43 45 45 45 46 46 47 46 44 42 39 38 38 39 38 38 37 36 39 42 46 49 49 51 54 63 204 158 25 39 38 38 37 36 36 36 36 37 36 34 35 39 38 37 39 41 42 44 42 42 43 43 42 42 43 42 42 42 41 41 39 38 39 39 39 37 39 43 47 49 49 52 56 77 239 158 25 39 38 38 37 37 36 36 36 36 36 35 37 39 40 38 37 38 39 41 42 42 43 44 44 44 45 47 49 47 43 38 37 37 38 39 39 39 40 43 48 50 51 53 57 115 253 158 25 38 38 38 37 37 36 35 36 36 36 35 38 40 41 40 37 35 33 32 30 30 30 31 32 33 34 35 34 32 32 33 34 36 38 39 39 40 41 44 48 50 51 54 61 179 255 158 25 38 37 37 37 36 36 35 35 36 35 35 38 39 41 40 38 37 34 32 28 27 26 27 26 26 27 27 28 29 31 32 35 36 38 39 39 40 41 45 49 51 52 55 82 238 255 158 25 38 37 37 37 36 36 36 35 35 34 35 37 39 39 39 39 40 38 34 31 30 29 29 28 28 28 29 30 31 33 34 36 36 37 39 39 40 42 45 50 51 53 59 162 254 255 158 26 38 37 36 36 36 36 35 35 35 34 35 37 38 38 39 39 40 39 38 37 35 34 33 32 31 32 35 35 36 36 37 37 37 37 38 39 40 42 47 51 52 55 94 241 255 255 158 25 38 37 36 35 36 36 35 35 35 34 35 36 37 38 39 40 41 41 41 42 42 41 43 42 38 41 43 41 39 38 39 38 37 38 38 39 40 43 48 52 53 69 208 255 255 255 158 25 38 36 35 34 35 36 36 35 35 34 35 34 36 38 39 41 42 42 44 46 46 47 46 43 44 44 43 44 43 40 40 39 38 38 37 38 40 43 49 52 58 167 254 255 255 255 158 25 38 35 34 33 34 35 35 34 34 34 33 32 34 36 38 40 43 44 44 46 45 45 44 39 43 43 43 42 42 42 40 39 38 38 37 37 41 45 52 53 67 222 255 255 255 255 158 25 39 36 33 32 32 33 33 34 34 33 31 31 32 35 37 39 41 44 44 44 42 41 38 38 41 39 40 39 39 39 38 37 37 37 36 37 42 48 51 56 66 230 255 255 255 255 158 25 39 37 35 32 31 31 32 33 33 33 31 29 31 33 36 36 36 38 39 39 36 37 35 37 36 35 37 35 35 35 34 35 37 36 36 38 45 47 49 49 69 235 255 255 255 255 158 25 39 37 35 34 32 30 30 31 32 32 30 28 27 30 34 32 33 34 34 33 34 34 32 32 31 32 33 31 31 31 32 33 34 35 35 41 45 44 43 49 70 238 255 255 255 255 158 25 39 37 36 34 33 31 29 29 30 31 31 29 26 27 30 29 30 29 30 29 31 29 30 29 28 28 29 28 28 29 29 30 31 33 35 41 41 39 43 49 73 241 255 255 255 255 158 25 39 37 36 35 33 32 30 29 29 30 31 29 26 26 27 27 26 26 27 27 26 26 27 26 27 27 26 27 28 28 28 29 29 31 36 38 37 39 43 49 73 241 255 255 255 255 158 15 24 23 22 22 21 20 19 18 17 17 18 19 19 16 15 16 15 15 16 16 15 15 16 16 16 16 16 16 17 17 17 17 18 20 23 22 22 24 26 30 44 149 158 158 158 158 98 