P2
48
60
255
30 54 56 58 61 66 66 66 68 58 71 83 87 91 92 86 79 85 91 93 91 82 78 69 74 94 99 98 99 98 104 101 101 96 70 49 33 33 21 19 23 25 30 29 28 24 28 20 49 87 88 90 93 104 105 106 110 104 106 127 141 148 147 151 142 133 134 155 145 138 132 120 124 153 159 158 160 162 162 164 164 160 131 86 59 51 41 31 42 45 48 47 45 45 43 25 53 89 87 87 88 98 103 110 109 111 104 119 138 146 149 154 156 150 138 146 153 140 142 137 138 153 155 156 158 163 167 165 162 159 147 108 71 46 51 31 44 52 46 47 41 36 44 23 60 104 100 96 98 102 103 107 108 106 108 117 134 149 151 154 157 157 153 146 161 147 151 147 147 151 153 156 161 168 167 167 162 156 151 129 81 45 55 34 47 63 54 48 46 36 36 22 62 112 110 110 112 113 112 115 118 118 117 130 138 146 151 156 161 158 157 149 158 154 142 151 149 155 155 157 165 168 161 157 158 154 154 146 95 55 51 45 40 68 69 53 50 49 34 23 64 108 114 117 123 123 122 120 120 127 133 141 146 147 151 151 157 155 155 153 152 156 144 154 152 157 152 156 157 156 154 151 153 151 153 153 112 69 46 56 44 65 78 66 53 52 42 24 65 110 118 128 128 125 126 128 131 135 138 144 148 152 152 149 144 149 149 153 146 148 145 152 153 157 153 151 149 145 140 143 148 148 151 152 127 80 52 55 49 58 83 78 60 50 49 22 67 115 119 121 117 113 109 110 106 102 97 102 106 112 118 122 131 135 136 140 139 139 141 148 153 152 147 144 141 135 132 129 128 124 126 131 123 82 60 45 53 60 79 93 72 52 50 27 65 109 95 87 82 77 79 72 72 67 63 62 67 67 74 85 99 113 121 126 132 136 142 143 144 146 141 135 131 122 112 105 93 83 77 78 73 55 47 39 48 50 64 82 81 60 45 31 61 90 82 85 87 89 83 81 82 74 70 66 61 67 69 75 85 91 102 117 122 129 135 140 144 142 136 130 120 105 98 90 82 73 65 60 60 46 42 43 46 49 53 74 78 65 47 30 50 84 88 99 109 113 115 121 118 115 107 101 97 85 78 74 74 81 92 103 114 122 131 141 145 143 133 124 111 97 89 83 80 78 79 82 84 70 63 66 51 52 62 70 80 65 51 24 51 93 98 102 107 114 119 127 130 132 130 130 124 117 104 89 75 70 78 88 102 117 130 144 150 147 133 118 100 82 77 79 90 100 108 118 121 103 82 86 64 55 65 70 86 83 59 28 56 99 98 100 101 107 116 121 123 123 120 114 113 115 113 106 90 68 64 76 92 108 127 140 150 148 132 109 89 76 81 91 99 103 106 112 118 113 84 87 77 55 68 75 86 94 74 33 55 89 91 93 97 98 95 92 99 107 112 116 113 103 95 92 94 77 58 66 81 97 121 141 153 145 124 99 79 77 86 85 81 84 95 98 101 94 68 70 77 58 65 75 89 93 85 37 60 92 88 85 81 78 86 94 91 99 99 108 108 104 100 91 88 81 58 60 76 91 120 142 152 140 116 87 71 80 79 78 86 92 90 97 101 99 85 62 64 55 61 79 81 87 83 39 59 91 84 74 73 69 61 46 34 43 29 38 52 65 80 94 96 91 70 61 69 84 112 137 151 136 107 84 77 88 87 85 77 64 43 37 33 43 42 42 59 60 61 71 82 91 92 46 62 92 81 62 48 37 31 26 30 17 31 47 74 87 69 67 81 106 91 68 70 82 113 136 146 134 106 88 108 101 81 61 63 72 48 45 16 29 26 24 27 47 60 67 85 92 106 62 56 91 72 43 32 39 54 57 62 62 70 77 87 100 109 103 92 98 109 78 72 82 111 133 140 132 108 96 116 104 86 80 86 85 66 61 40 50 47 45 44 40 37 48 71 93 109 72 61 90 74 60 55 66 66 72 83 80 81 88 91 95 96 90 92 109 101 79 74 84 111 134 142 131 110 102 110 122 101 94 97 92 83 86 78 85 77 69 69 73 70 71 74 88 104 70 74 111 103 95 75 73 78 82 84 83 86 87 82 83 83 91 99 109 96 89 76 85 110 130 134 126 113 109 111 119 104 83 76 80 86 90 90 93 97 95 99 103 103 108 116 122 127 80 82 140 139 133 115 98 89 84 80 75 75 79 88 97 107 110 112 104 108 97 82 84 106 130 134 124 113 111 116 114 109 105 93 80 70 73 77 86 90 94 102 114 124 130 134 134 137 83 85 139 140 141 142 138 134 128 121 121 118 120 122 123 119 114 115 119 111 97 88 84 109 129 139 125 113 111 123 127 124 114 113 113 112 111 106 125 114 116 123 130 133 134 133 133 137 85 81 134 135 138 140 137 135 130 128 125 125 123 124 125 127 130 128 125 113 102 89 87 113 134 143 131 111 110 122 131 134 133 131 123 118 115 115 119 119 119 123 124 130 135 134 137 135 84 80 136 137 138 142 143 142 138 134 135 133 134 138 140 140 135 131 126 113 101 88 100 120 139 147 138 116 112 123 133 138 138 139 140 139 134 131 129 130 132 133 134 137 138 142 141 140 84 81 134 136 139 139 142 143 144 146 148 146 143 147 144 138 136 131 122 114 92 96 118 133 143 145 142 125 114 120 132 140 142 143 144 143 143 142 140 140 142 140 143 147 148 148 148 141 83 81 134 137 141 141 144 148 152 153 151 150 149 145 146 145 138 127 117 100 85 107 130 140 148 152 151 135 118 112 125 138 142 145 149 151 147 149 148 147 150 147 152 154 153 152 146 138 84 78 133 138 142 148 151 152 154 153 155 153 149 150 148 145 135 115 99 83 91 112 136 155 158 170 171 142 122 110 112 121 126 136 141 144 145 152 153 154 151 156 157 155 157 155 149 141 84 77 133 140 149 154 157 158 156 156 156 152 144 143 138 131 113 96 92 81 81 101 128 149 151 159 165 136 119 112 117 115 113 117 128 132 133 141 148 151 152 155 157 157 156 153 147 140 84 75 126 138 146 155 157 155 156 150 144 141 138 135 128 118 98 93 92 77 73 82 105 120 123 129 127 109 97 108 120 115 102 100 108 123 126 127 137 143 147 149 149 150 150 144 144 139 83 74 126 134 142 149 149 149 148 141 137 132 127 127 130 116 83 84 76 49 34 55 77 92 101 105 98 79 75 91 112 110 94 96 101 97 112 119 124 130 135 138 141 142 145 142 140 135 81 70 119 127 135 140 141 140 139 138 132 123 117 123 124 95 73 69 52 41 26 25 55 66 79 83 62 25 22 34 64 85 91 103 117 100 92 102 112 121 130 131 134 134 136 136 134 131 77 68 115 122 127 131 134 133 131 128 119 114 118 122 107 84 74 59 59 71 70 64 62 55 61 63 66 60 55 49 50 85 108 112 123 118 92 92 103 112 120 123 127 130 128 130 128 124 74 65 110 116 123 125 126 126 122 118 118 121 125 120 100 87 81 75 65 66 73 69 61 53 53 65 73 88 92 83 93 110 119 122 124 123 116 94 95 106 112 118 124 123 122 120 120 118 70 60 102 113 119 119 120 121 117 116 124 128 122 118 103 86 85 82 77 75 73 71 69 63 59 70 91 106 110 118 120 124 125 123 124 123 126 108 95 101 108 114 117 117 115 114 112 111 66 58 99 108 115 119 120 120 119 124 128 125 119 114 106 90 88 86 86 86 83 83 91 106 116 123 126 127 133 135 132 132 130 125 125 123 124 118 100 97 103 110 114 112 110 108 105 103 62 55 97 103 112 118 119 121 124 127 127 120 116 114 117 118 119 122 124 127 126 127 139 143 141 140 140 140 142 143 142 141 136 132 128 124 120 119 113 99 101 105 110 113 108 101 100 97 61 54 97 105 112 119 121 123 124 126 121 113 113 114 121 129 130 135 138 139 138 137 139 142 143 143 142 139 140 142 142 142 138 135 133 128 123 120 122 107 103 107 111 113 107 102 96 96 62 56 101 109 115 120 123 121 125 124 120 112 111 112 118 123 122 123 120 116 107 104 103 104 114 107 105 105 107 111 118 126 132 130 130 128 128 121 120 116 104 108 117 115 108 103 98 101 67 60 106 116 119 119 122 122 128 122 114 107 106 108 105 97 90 82 73 65 58 58 61 61 61 59 58 56 56 61 68 82 96 111 123 124 125 124 120 122 108 107 119 120 118 111 108 111 71 61 109 120 127 126 121 120 123 114 103 97 92 83 73 62 48 42 45 60 60 85 83 75 75 86 89 80 64 55 42 38 52 70 91 110 115 120 124 123 107 108 118 125 123 119 116 117 73 60 111 124 133 133 126 117 117 103 90 81 66 54 49 49 51 75 111 111 110 132 130 118 113 139 151 135 111 129 99 62 55 45 55 77 100 111 116 121 110 112 123 125 123 120 117 118 71 57 108 124 135 140 133 113 107 95 78 59 44 38 52 86 93 107 144 145 133 153 153 141 130 159 164 157 140 164 132 106 101 45 31 45 74 103 113 122 117 119 129 127 122 117 113 120 70 54 105 120 132 137 137 116 100 79 58 36 25 45 70 100 105 101 132 145 133 150 149 145 134 152 156 153 131 141 118 117 116 59 25 33 53 80 100 111 115 127 133 125 119 115 108 119 68 50 97 117 131 126 136 119 94 62 39 29 22 25 32 38 43 35 51 41 69 81 76 72 71 82 82 68 35 40 37 62 52 35 36 66 83 93 103 111 120 133 131 121 120 107 112 117 68 50 87 109 133 127 124 129 109 87 82 87 62 30 24 38 45 40 47 40 34 32 30 28 28 32 34 35 40 37 37 33 25 52 87 104 121 114 115 120 126 134 124 120 116 102 121 115 68 50 83 101 127 141 120 134 126 119 104 105 105 91 85 79 77 76 84 80 61 53 46 41 45 53 57 67 87 74 73 82 93 101 110 118 122 130 128 123 132 127 117 120 105 111 123 114 67 57 83 91 116 142 132 128 134 125 119 100 94 97 96 94 96 95 105 109 109 102 88 85 91 101 104 109 112 109 106 105 106 109 113 123 132 132 128 127 128 121 120 112 103 125 118 109 64 62 88 88 102 131 144 127 132 129 122 112 100 86 82 88 92 90 98 110 117 129 132 132 125 126 129 129 119 111 105 105 102 105 117 126 131 125 127 128 122 119 117 104 118 123 112 104 60 62 99 88 94 117 139 134 128 126 120 114 105 97 84 80 84 83 80 86 96 102 111 114 116 113 107 102 95 91 97 101 105 116 124 126 122 130 131 128 122 119 108 110 124 115 107 98 55 62 102 96 92 103 128 134 127 119 114 113 104 98 91 85 82 80 76 73 76 78 82 85 86 85 82 83 84 90 100 107 113 117 122 120 130 134 131 129 123 114 109 121 119 109 100 90 51 60 99 102 95 93 110 121 130 127 114 111 105 99 94 90 94 91 90 83 73 69 69 70 71 73 77 83 91 100 107 109 112 117 121 128 134 131 132 127 117 112 114 120 113 103 93 83 49 56 97 101 101 93 99 116 126 130 127 116 110 106 102 97 98 99 103 106 104 98 92 91 95 96 100 103 106 111 111 110 116 124 129 134 129 132 131 121 117 112 120 116 107 97 85 78 48 51 92 100 104 99 93 103 115 125 130 126 119 117 112 108 108 110 114 116 116 111 104 102 103 106 108 114 118 115 116 119 127 130 136 133 128 126 117 115 111 116 117 109 99 87 79 77 58 49 84 95 102 103 93 90 99 115 126 129 124 125 120 119 120 124 125 125 124 124 123 119 119 118 121 125 130 130 129 130 133 138 137 130 129 124 115 112 115 117 110 102 90 80 75 85 71 46 79 86 98 103 96 84 85 99 118 124 126 130 130 126 130 138 135 139 142 143 146 145 144 143 143 144 141 138 137 138 139 142 132 128 126 114 109 112 117 112 105 92 81 75 77 99 71 43 74 81 90 98 101 86 78 82 104 113 120 127 132 133 136 143 138 142 148 147 148 149 148 151 153 154 150 149 147 147 146 141 127 120 112 104 106 114 116 107 96 84 74 77 87 97 70 39 68 75 81 92 98 88 80 75 83 96 107 117 129 132 132 142 144 145 149 150 151 145 144 145 145 150 150 152 148 151 145 134 119 112 100 102 112 114 108 98 85 75 75 93 83 97 70 33 62 68 74 82 90 85 81 78 74 80 92 105 121 132 137 139 140 144 150 151 151 148 145 145 144 148 148 149 147 148 142 123 107 99 94 107 113 109 97 85 74 71 91 89 79 96 69 31 49 60 68 74 79 81 81 81 74 75 79 89 106 122 135 140 139 137 143 147 149 146 146 145 147 149 149 143 140 139 130 108 97 94 100 106 103 95 83 70 61 84 93 81 79 96 69 26 32 30 37 42 46 48 49 50 48 44 46 48 53 66 75 81 85 86 84 86 89 81 92 92 91 90 87 84 84 81 70 60 56 58 62 63 60 51 44 36 41 57 58 46 49 59 42 