P2
48
60
255
25 41 42 42 42 43 43 44 45 47 46 47 47 49 51 51 52 53 54 55 55 55 54 56 57 56 57 56 57 57 58 59 59 58 57 55 53 51 51 51 50 49 50 49 49 46 45 27 40 66 68 69 69 69 72 71 72 75 76 78 79 81 82 86 85 87 90 91 92 92 91 91 92 92 91 90 92 95 96 96 98 99 97 92 89 86 82 81 81 80 81 78 78 77 75 45 41 68 69 70 70 71 72 73 74 76 78 79 82 84 86 87 89 90 90 90 93 92 92 90 92 92 92 93 95 97 99 100 101 99 99 96 93 90 84 82 82 81 82 80 78 77 76 45 42 69 69 71 72 72 72 74 75 79 82 84 84 86 88 89 91 93 93 92 93 93 90 91 93 94 91 93 96 98 100 102 104 104 103 98 95 92 89 86 84 81 82 81 79 76 75 46 42 70 71 73 73 73 72 74 77 79 81 81 84 87 90 90 93 92 97 97 96 97 94 94 96 96 96 98 99 101 105 105 107 109 104 98 97 90 87 84 83 80 81 81 80 77 74 47 43 72 73 74 73 69 69 70 72 74 77 78 80 83 86 88 90 93 94 99 99 99 96 96 98 97 99 100 102 105 107 106 105 105 103 94 93 86 86 79 77 73 75 81 81 79 76 47 44 73 71 67 62 59 61 64 65 68 70 70 76 79 81 82 87 89 90 96 97 96 97 97 100 99 101 101 102 104 100 99 98 100 97 84 79 73 74 72 69 63 64 71 77 80 77 47 42 66 58 53 51 51 53 54 55 54 58 63 66 71 75 78 82 84 86 90 91 91 93 98 99 100 98 98 97 95 88 84 82 81 77 70 63 58 55 52 53 51 52 56 61 71 76 47 35 51 47 45 44 43 43 43 43 44 46 48 51 55 59 63 68 75 81 86 85 85 89 93 96 94 91 88 84 81 72 59 52 51 50 51 50 48 47 46 48 48 48 48 48 53 64 44 30 46 46 46 46 44 43 42 42 42 42 41 42 45 47 49 53 62 73 80 82 83 86 88 89 88 86 80 71 68 55 47 47 44 43 45 49 52 56 63 69 70 73 70 60 51 51 33 32 52 53 57 61 62 61 59 57 53 50 46 43 42 42 43 45 52 61 73 77 79 80 83 84 84 81 75 71 67 66 64 57 50 53 59 64 67 72 77 82 84 86 87 82 73 57 32 35 60 62 65 66 66 63 59 55 52 50 47 46 46 48 49 49 51 58 68 72 74 76 80 82 82 79 77 73 71 70 65 59 52 51 53 56 61 60 61 68 77 82 85 86 85 75 39 37 61 64 64 59 53 53 58 62 61 61 61 56 50 45 48 51 52 57 63 69 72 72 77 80 80 78 75 72 70 67 60 53 52 51 50 53 64 72 71 65 58 66 75 82 84 82 45 37 59 60 54 47 54 56 51 46 43 43 47 60 68 62 49 48 51 54 61 69 74 77 80 85 82 79 75 72 69 63 55 50 47 42 42 50 47 51 53 58 64 59 64 73 81 82 49 36 58 56 49 50 47 48 47 46 44 57 67 70 67 58 62 50 50 53 57 66 77 85 90 92 88 83 77 75 70 65 53 59 54 44 41 61 58 62 87 62 53 64 68 71 78 82 51 36 56 54 49 45 51 61 50 45 41 44 49 84 102 74 52 54 53 53 56 64 77 89 98 99 92 84 80 79 75 74 68 66 63 46 46 48 46 78 98 81 59 59 69 73 79 85 53 35 57 56 52 51 58 62 57 44 48 49 52 106 110 91 59 50 53 55 56 63 76 88 94 97 91 84 82 81 69 65 69 64 76 61 49 52 71 99 91 72 66 73 76 81 85 89 55 39 64 62 57 53 55 62 68 66 56 59 80 87 78 71 59 55 51 55 57 64 76 86 94 96 91 84 83 81 72 81 63 61 62 64 65 74 81 76 72 69 73 83 88 88 90 91 55 43 73 69 63 56 55 56 58 58 59 60 61 62 64 62 60 57 53 56 57 64 75 86 92 94 91 84 83 84 76 80 78 65 60 61 63 66 68 74 75 76 82 88 92 93 91 90 55 45 74 76 74 67 60 57 59 59 60 60 62 62 64 66 63 56 55 56 57 64 75 86 92 92 88 85 82 83 82 80 85 82 74 70 72 74 76 80 81 85 91 93 94 95 93 91 56 48 78 79 80 77 72 67 66 67 68 69 69 69 68 65 59 56 56 56 59 65 76 85 94 92 88 85 82 83 84 83 83 87 86 84 84 85 88 89 91 94 96 97 97 97 93 90 54 49 80 81 80 81 79 78 77 76 75 76 74 71 69 64 59 58 57 57 60 66 73 81 92 95 91 88 85 83 87 87 86 86 89 89 91 94 97 98 97 99 97 97 98 97 94 91 55 50 79 81 81 82 81 81 81 78 78 77 76 73 69 65 61 59 57 59 60 67 75 84 91 93 91 88 85 84 87 91 95 91 88 90 95 96 99 98 99 98 98 99 99 97 96 92 54 51 83 82 81 82 82 81 81 80 79 79 78 76 75 71 65 59 58 60 64 72 79 84 87 89 88 86 84 85 85 93 97 98 97 94 94 97 100 102 101 99 100 102 102 98 96 93 54 49 82 83 83 83 82 83 83 81 79 81 81 81 79 73 66 59 60 67 70 78 79 83 85 86 86 85 83 81 84 92 99 102 102 101 100 99 99 101 101 103 103 105 103 99 96 92 53 47 78 82 83 84 85 85 85 84 84 84 84 83 80 74 66 62 63 72 76 81 81 83 87 88 88 85 83 81 82 91 101 106 105 104 103 103 103 104 103 104 103 104 99 97 95 91 52 46 76 80 82 83 85 86 88 86 85 85 86 83 79 72 65 64 69 77 78 83 83 85 90 93 92 86 83 83 80 90 99 100 104 104 104 105 104 104 105 103 101 100 96 96 95 89 51 44 75 78 79 81 83 85 85 85 86 86 85 82 77 69 61 63 74 82 80 86 82 85 90 94 92 87 83 83 79 89 96 93 104 105 108 106 104 103 103 100 100 97 94 94 92 86 51 43 72 76 78 79 82 83 83 83 84 86 84 80 73 65 58 63 79 90 82 85 83 88 90 95 98 91 83 83 83 86 96 100 104 104 108 108 104 101 101 100 98 96 91 90 90 85 51 42 71 73 75 76 79 79 79 81 83 85 83 77 70 62 56 72 88 87 80 79 87 93 97 102 109 99 86 85 87 86 93 98 99 104 106 105 104 100 100 100 99 96 90 89 88 85 50 41 68 70 73 75 76 76 79 81 80 81 80 74 66 60 59 77 76 72 69 72 84 91 95 100 112 104 88 89 91 90 91 98 98 103 104 104 102 99 99 99 97 94 90 90 87 83 49 41 68 67 70 72 73 75 77 81 80 79 76 70 63 59 64 74 72 66 62 63 73 86 87 93 98 93 84 84 90 92 90 97 96 100 103 101 100 96 96 98 96 93 91 89 87 82 49 40 66 67 68 70 71 73 75 78 78 78 75 68 61 59 63 68 68 61 52 50 60 72 74 80 85 81 61 57 74 86 88 94 96 100 100 101 99 94 94 95 95 92 91 87 86 82 49 40 66 66 67 68 70 71 74 75 76 77 75 69 63 60 60 63 64 52 44 44 47 54 57 63 74 82 86 81 70 78 90 93 96 98 97 99 97 95 95 94 95 92 90 88 84 81 49 40 65 66 66 66 68 71 73 76 77 77 77 74 68 64 62 58 54 50 52 58 60 61 64 71 81 83 82 75 76 85 91 93 93 95 95 95 95 96 95 93 93 91 89 87 84 81 50 40 65 66 66 66 68 70 74 76 77 78 80 78 75 73 71 69 66 63 61 62 64 69 75 75 81 79 79 82 85 88 90 91 91 92 95 95 95 94 93 92 91 89 87 86 83 81 50 40 65 66 66 66 67 68 72 75 76 78 79 79 78 76 72 74 72 71 65 66 68 75 78 74 80 78 75 78 81 84 88 89 89 90 92 95 93 93 91 91 89 89 87 85 83 82 51 40 63 65 65 66 66 68 70 73 75 77 78 76 74 72 72 70 69 67 68 70 74 81 80 78 81 79 78 76 75 77 79 78 83 87 91 93 92 91 89 89 88 87 86 83 81 81 55 40 64 64 65 65 66 67 69 71 73 75 73 71 67 65 68 67 69 71 71 73 77 80 75 75 79 83 81 81 83 80 79 78 79 80 85 89 89 89 89 87 87 85 84 82 81 83 82 40 65 63 64 65 65 67 69 69 71 71 66 64 65 65 68 71 75 75 73 71 72 76 79 82 83 81 82 83 85 85 82 82 78 79 82 87 89 89 87 87 85 85 82 82 82 86 125 41 65 62 63 64 65 67 67 68 69 66 63 63 67 69 67 68 66 64 64 66 65 65 68 74 73 73 72 70 74 81 84 83 82 80 79 83 87 87 85 85 83 82 81 81 81 98 149 41 65 63 62 63 64 65 66 66 66 62 62 65 69 67 62 58 57 59 58 59 62 62 65 70 68 69 66 64 65 67 74 80 84 79 79 82 86 87 84 82 79 81 81 81 81 134 157 40 63 62 62 63 63 65 65 65 63 61 62 66 63 57 55 52 51 54 51 53 58 59 54 61 63 64 61 59 59 57 61 68 73 78 79 82 86 83 82 81 79 81 82 81 82 186 158 41 64 62 61 62 63 65 65 64 63 62 64 66 63 55 52 55 61 69 69 70 75 75 69 72 75 77 77 78 73 65 58 61 69 78 80 83 85 84 80 78 79 82 82 81 89 232 158 41 65 63 62 62 63 64 64 64 63 64 64 64 63 62 57 58 61 66 72 79 84 85 83 85 86 87 87 79 74 70 73 74 70 74 79 83 84 80 78 74 78 79 81 80 122 252 158 41 64 63 62 62 63 62 63 64 64 66 63 63 63 62 59 58 61 63 64 77 89 92 87 93 96 95 80 75 73 75 80 80 76 77 81 81 82 77 76 75 79 80 79 80 189 255 158 41 64 63 61 62 62 62 62 63 63 66 67 65 65 65 63 59 60 61 61 67 76 81 84 86 86 82 75 73 74 79 82 83 82 81 80 81 80 75 75 78 78 78 77 97 242 255 158 41 64 63 62 62 61 61 61 60 61 65 66 63 65 65 65 63 59 57 57 62 70 73 76 79 79 75 71 71 76 81 83 83 82 80 75 79 77 76 76 76 78 78 76 115 253 255 158 41 65 63 63 62 60 59 59 59 59 61 62 62 64 66 65 65 62 58 55 53 54 55 58 58 63 66 66 73 77 81 82 81 79 74 74 77 75 76 76 76 77 75 79 107 250 255 158 41 64 63 62 60 60 59 59 58 57 59 59 62 63 64 64 64 65 66 64 62 59 60 65 61 65 70 73 77 77 77 78 75 74 74 74 76 75 76 76 77 76 74 79 97 246 255 158 43 64 63 62 61 60 58 58 58 57 58 59 61 60 61 60 59 66 70 68 69 67 64 66 69 73 76 78 77 75 74 73 73 74 73 73 76 75 76 77 76 73 74 77 88 241 255 158 94 69 63 62 62 60 59 56 56 56 57 60 62 61 60 58 57 64 66 65 65 69 69 69 71 73 73 75 75 73 72 73 74 75 74 74 75 75 76 75 72 70 74 77 84 233 255 158 153 110 63 61 61 60 59 57 56 56 56 59 61 62 61 59 58 60 62 63 64 67 69 70 73 75 75 73 76 75 74 74 76 77 77 77 76 73 74 72 68 70 75 77 80 218 255 158 157 135 69 60 59 59 58 58 57 57 57 58 61 63 63 61 60 59 62 67 69 70 71 70 75 78 78 78 78 79 78 78 78 79 78 75 73 72 70 67 65 72 75 76 76 191 255 158 158 154 71 65 58 58 58 58 57 57 58 60 62 64 63 61 59 59 62 65 70 75 75 74 78 80 78 77 79 81 80 81 80 79 78 76 72 70 67 63 68 74 75 75 75 159 255 158 158 171 72 66 61 56 56 56 57 57 58 61 63 64 64 64 61 60 62 64 67 73 77 77 79 78 78 79 76 76 78 80 79 77 75 73 70 65 61 65 70 73 75 75 75 123 254 158 158 184 72 66 62 59 54 54 55 56 57 59 60 63 67 68 65 65 62 63 66 73 76 74 76 77 78 76 76 75 78 78 77 74 71 69 64 59 62 68 70 75 75 74 74 97 249 158 158 197 73 65 61 59 55 53 53 54 55 56 58 61 64 63 64 64 64 64 62 69 74 76 73 75 79 76 77 77 78 77 73 70 69 63 60 61 65 69 72 74 75 75 74 81 232 158 158 210 74 66 60 58 55 53 52 52 53 55 56 57 59 60 61 61 63 69 65 69 75 73 71 72 73 74 76 75 74 73 70 66 62 59 61 63 67 69 73 74 75 75 74 74 163 110 98 135 46 41 37 36 35 33 32 31 32 33 33 34 35 37 38 38 38 43 41 40 42 43 41 42 42 43 45 45 45 44 40 38 36 38 39 41 43 44 46 46 46 46 45 45 47 25 