P2
48
60
255
17 23 22 21 24 27 27 22 26 27 33 35 38 53 55 67 65 84 89 71 79 78 93 99 91 87 85 86 91 98 97 85 99 98 92 89 75 69 58 42 33 28 23 21 22 27 26 13 23 34 36 35 39 42 37 39 41 50 62 53 69 87 100 122 117 147 135 103 140 134 157 150 138 136 142 147 149 157 163 139 163 162 153 151 139 112 112 74 62 48 40 34 33 39 39 22 20 33 33 33 38 34 36 38 45 66 50 57 78 90 124 145 125 144 89 137 142 144 154 141 134 142 149 153 153 161 164 141 168 164 158 153 153 140 114 104 73 51 42 32 29 34 39 22 20 32 30 34 32 34 35 40 65 45 46 70 83 115 150 156 126 91 121 149 138 140 143 136 142 145 152 153 150 158 160 135 163 161 162 156 157 157 139 118 98 63 47 38 29 28 35 23 19 29 31 32 32 32 40 56 51 43 63 79 102 142 154 153 89 113 142 151 126 132 134 141 147 149 151 150 142 146 155 125 159 159 161 160 165 169 165 140 125 88 62 45 35 27 28 23 18 29 30 32 31 46 53 40 43 62 79 99 134 150 143 103 79 142 139 141 123 125 139 142 143 143 149 146 141 146 150 122 149 150 156 156 164 175 171 158 139 122 75 61 45 33 26 20 17 29 30 27 45 53 49 42 59 79 116 125 142 135 108 81 122 134 126 113 115 124 138 144 142 140 143 146 138 137 143 121 143 140 145 142 149 160 164 157 156 133 111 66 57 41 28 19 19 28 25 42 58 47 43 55 80 109 125 117 122 103 70 118 129 104 110 100 112 133 140 141 140 141 141 139 130 130 131 111 125 120 121 117 119 122 124 125 129 134 116 93 66 50 32 20 15 24 37 64 55 45 51 60 81 90 89 88 81 66 86 106 108 95 93 102 120 139 143 137 142 140 139 134 126 125 118 97 96 81 75 71 74 77 81 91 106 115 112 101 83 63 41 24 13 27 68 66 45 54 64 77 82 74 69 64 64 66 73 80 85 93 96 101 114 136 136 135 136 138 136 128 118 115 107 82 71 63 57 51 53 61 67 75 85 97 100 100 84 61 46 25 14 44 54 49 62 77 86 91 86 82 68 60 57 60 64 66 76 94 102 115 112 123 135 140 138 137 137 127 113 106 94 71 60 49 41 41 44 52 63 76 92 103 104 106 103 75 59 27 20 72 71 76 97 95 111 111 106 94 82 71 66 62 65 69 75 90 107 121 129 135 145 155 158 150 139 126 111 95 77 65 52 45 54 64 78 90 87 74 76 97 112 113 112 99 82 43 33 93 91 107 97 109 113 96 78 82 91 89 79 67 54 56 70 85 106 122 138 147 160 169 165 155 140 120 104 84 67 60 63 86 94 80 82 92 105 119 109 74 87 107 108 109 99 58 45 100 109 107 105 105 81 84 111 124 102 98 102 98 86 66 63 72 95 119 138 152 165 172 166 154 140 117 98 76 68 65 87 92 56 36 33 37 44 67 101 105 71 89 106 107 109 65 57 108 116 108 98 73 93 102 73 46 37 31 39 62 85 78 72 76 84 111 133 150 167 172 170 155 136 114 95 85 71 79 73 71 55 66 27 68 38 54 55 85 90 72 95 101 109 68 68 113 112 103 77 83 91 56 44 32 65 25 66 63 69 62 73 83 98 108 133 150 169 174 170 153 137 111 100 95 81 66 65 120 59 38 22 33 42 77 77 50 76 88 84 100 110 70 71 114 107 93 73 79 51 73 59 40 26 24 43 74 110 66 61 97 114 112 130 148 169 169 168 155 132 111 107 105 90 80 92 126 78 52 42 46 51 93 98 88 72 84 100 104 113 72 72 115 105 85 83 62 71 98 84 51 47 42 56 103 120 84 92 102 112 113 126 145 162 166 164 154 127 109 106 107 101 101 105 126 117 73 62 63 90 110 107 97 90 91 98 111 123 80 77 119 108 95 83 86 95 107 117 88 72 73 99 123 116 103 110 111 113 118 126 143 160 159 159 153 127 114 106 111 110 121 121 118 105 95 106 96 100 102 103 111 112 116 115 115 130 85 82 128 115 107 111 108 114 124 122 126 114 111 110 114 112 112 114 120 117 123 126 138 161 155 159 153 127 118 114 118 116 117 122 126 124 123 120 122 124 126 118 125 134 140 137 138 132 85 86 135 126 132 133 125 127 137 141 143 134 127 124 120 116 117 121 127 126 127 125 138 164 159 155 148 124 120 119 126 138 129 128 134 138 138 138 139 138 134 137 142 149 153 155 148 141 86 87 138 142 145 143 139 137 141 145 146 145 136 133 134 131 128 137 131 131 127 126 141 158 158 157 146 125 121 123 129 144 141 140 140 146 149 150 152 149 146 152 150 155 159 163 158 151 89 86 144 149 153 156 155 151 149 152 153 153 152 148 143 139 143 144 134 132 126 126 143 155 158 157 148 127 121 123 128 145 155 152 145 148 149 157 156 154 149 151 155 160 161 165 166 160 93 88 148 154 159 162 164 164 161 159 163 164 158 156 151 150 150 143 133 129 123 127 144 155 160 161 148 130 119 122 128 140 160 164 152 151 155 154 158 160 155 153 158 161 161 166 167 162 96 89 152 159 162 164 166 163 161 160 157 161 160 158 156 161 151 140 131 126 123 128 142 160 161 159 148 129 119 121 123 135 156 168 165 156 156 157 157 158 151 153 156 160 163 166 167 163 92 90 158 158 157 160 161 162 160 162 164 165 162 159 165 164 148 137 129 124 123 132 146 156 159 157 154 134 121 119 120 131 153 168 170 170 161 158 155 157 156 154 152 154 162 165 163 156 88 89 153 160 158 161 163 164 165 167 163 168 170 173 171 158 147 132 127 123 126 138 150 153 152 156 155 134 121 116 118 126 144 165 168 171 170 164 158 161 160 150 148 157 159 165 159 147 86 85 148 151 158 164 165 168 166 168 169 176 174 176 168 159 142 127 122 120 127 140 157 155 153 155 158 136 123 116 115 123 140 161 168 169 170 170 164 163 161 159 160 165 162 156 146 137 80 81 139 149 153 165 169 169 169 174 175 180 176 170 161 144 136 122 115 119 125 143 180 166 156 157 164 131 119 114 109 114 132 151 162 167 167 169 170 170 166 169 167 162 152 145 135 126 76 79 130 138 147 157 165 172 174 178 178 177 171 166 152 138 123 110 112 119 126 132 150 144 145 143 137 111 111 119 106 105 113 136 153 160 163 169 165 166 170 168 164 155 142 139 132 120 73 76 125 129 139 148 157 166 170 173 171 168 161 158 143 124 113 103 118 115 109 108 119 126 132 130 107 93 102 118 116 101 101 122 144 154 161 165 163 162 162 161 158 150 139 131 123 117 70 74 121 120 132 140 147 156 161 166 166 160 157 149 134 115 102 106 119 106 92 95 104 112 117 111 95 67 62 98 111 100 92 104 132 149 156 157 155 153 154 154 150 140 135 124 122 115 70 73 118 123 128 134 144 145 154 158 156 153 147 136 119 104 100 106 105 79 40 60 89 89 92 93 79 30 39 73 98 100 95 93 116 135 144 148 148 148 148 142 140 136 129 120 119 110 68 72 117 121 128 132 141 143 145 146 145 145 140 126 107 99 108 108 91 59 39 34 67 68 68 80 89 77 70 71 98 107 100 89 103 125 137 140 142 140 136 136 133 129 123 118 113 109 67 69 112 121 125 130 135 136 139 140 138 139 131 116 100 108 119 121 96 68 81 96 94 75 62 78 91 102 94 93 116 119 112 96 97 118 129 134 137 134 130 130 126 121 117 110 106 107 66 67 111 117 121 126 130 135 137 136 136 132 125 110 104 118 128 128 116 98 95 110 109 94 84 87 98 104 101 116 119 121 120 107 97 111 121 128 133 131 127 123 119 116 108 105 105 106 64 67 109 111 116 121 122 129 132 131 130 124 118 107 114 127 134 130 123 122 117 121 121 110 97 108 120 122 121 122 122 124 121 115 107 108 112 119 124 126 125 119 115 109 105 103 104 103 62 65 107 106 111 118 118 124 125 126 127 123 115 114 123 134 137 132 130 135 133 134 137 131 123 131 137 135 131 131 129 126 119 113 114 114 115 116 119 123 119 115 108 105 103 103 104 105 61 61 104 107 108 114 118 122 123 123 123 120 116 121 130 136 136 136 136 142 139 144 144 141 137 141 145 142 137 136 133 126 117 110 107 115 119 115 115 118 117 113 107 101 103 106 109 105 62 56 101 107 108 112 116 118 121 124 118 115 121 130 135 137 139 137 134 142 144 150 149 149 145 150 153 152 146 139 134 125 120 119 118 111 117 117 113 113 113 111 107 104 106 110 111 106 64 54 100 105 106 108 114 118 118 116 114 119 128 130 134 134 136 137 138 143 148 157 157 158 156 162 161 155 147 142 135 129 126 123 119 116 116 114 113 110 112 111 109 106 108 111 110 107 65 53 98 107 107 108 112 114 114 115 115 120 123 125 128 129 131 132 140 145 143 149 154 155 153 150 136 120 122 123 121 122 121 114 103 110 115 115 117 113 114 113 110 107 110 114 111 107 65 48 97 107 108 106 110 112 111 112 113 119 120 116 114 118 126 128 125 115 102 93 103 112 113 96 86 81 79 79 77 78 83 86 69 81 106 114 119 116 114 118 113 110 112 115 112 106 63 34 95 107 109 108 109 111 109 109 111 113 113 104 99 108 110 97 84 81 79 74 71 71 73 69 74 85 78 76 70 67 71 74 73 80 99 114 126 123 121 120 115 111 116 118 114 105 60 22 92 107 108 107 108 110 111 110 115 111 104 84 72 78 70 64 67 75 82 86 90 96 109 118 126 130 119 116 108 106 109 118 121 112 117 124 133 129 123 121 114 116 118 119 114 105 56 14 82 104 110 109 105 107 111 115 119 108 92 64 63 68 82 95 109 118 132 138 134 139 136 135 138 133 120 115 115 117 119 118 123 122 120 128 133 128 123 118 113 117 118 116 111 100 39 11 70 105 110 111 108 106 112 118 122 109 95 89 112 107 101 106 115 126 146 146 140 141 131 126 132 119 119 112 113 114 113 117 122 119 118 129 130 126 122 118 115 117 117 116 106 88 18 9 58 100 107 111 110 106 109 114 123 114 107 113 122 111 104 105 102 119 135 131 127 125 117 112 117 111 109 109 109 111 111 120 121 118 122 130 132 129 123 116 117 118 117 113 104 71 11 9 47 96 104 111 112 109 108 108 114 116 111 115 119 113 107 105 106 110 113 111 109 103 99 94 92 97 104 106 110 114 113 118 116 112 120 130 132 129 123 117 118 119 115 110 97 48 8 9 44 88 104 112 112 110 108 107 109 109 107 113 116 113 108 106 100 94 84 78 72 71 70 75 86 95 105 113 118 120 117 116 116 116 122 129 130 127 121 119 120 120 117 105 84 34 8 8 41 82 102 108 111 111 107 106 104 105 107 107 111 110 108 103 97 92 85 80 78 82 83 86 93 104 115 123 128 125 116 119 122 123 126 129 129 125 120 119 118 117 113 100 66 27 8 8 36 86 96 107 109 111 107 105 102 103 108 111 112 111 109 106 103 97 98 99 112 124 128 134 136 136 137 138 134 130 126 126 127 127 130 128 127 124 121 117 117 114 108 89 59 22 8 8 33 91 91 102 107 109 107 107 102 103 107 111 113 114 114 115 115 120 128 137 144 146 146 144 146 147 144 140 141 139 136 131 133 131 129 128 125 121 120 115 113 110 99 80 55 19 8 8 33 95 101 98 106 109 109 107 106 108 109 112 112 118 120 121 127 140 142 138 142 144 144 142 144 147 147 143 144 142 139 135 132 130 128 127 124 118 116 114 111 104 91 82 50 17 8 9 29 96 114 93 104 108 106 106 109 110 113 113 113 114 122 127 133 143 142 145 148 152 150 151 153 155 156 147 142 142 133 131 129 125 120 122 119 114 112 110 106 95 95 82 45 17 8 9 29 97 118 106 94 106 106 107 108 110 113 114 116 114 120 128 132 139 144 149 153 154 152 154 159 153 155 149 142 140 133 127 122 116 115 116 111 106 104 104 96 93 108 79 41 17 8 10 30 96 119 120 94 98 104 105 102 109 107 113 114 117 119 128 129 138 138 145 149 154 149 148 150 150 148 143 142 135 129 120 111 107 107 109 103 102 100 94 88 116 110 75 37 16 9 10 32 97 121 125 114 90 97 102 104 106 108 110 112 112 118 122 123 131 134 134 135 140 142 141 139 135 134 130 128 124 119 111 104 100 102 100 98 97 93 84 110 124 108 73 34 16 10 8 34 98 121 125 124 105 87 94 100 101 103 105 107 107 110 117 120 122 126 125 131 131 131 133 131 128 129 126 121 116 108 101 96 96 95 92 88 86 81 101 125 127 107 70 31 16 11 5 22 62 74 78 78 73 57 53 58 59 60 62 64 66 66 68 69 73 73 72 75 77 76 79 78 77 75 72 68 63 61 58 56 55 54 53 51 46 56 72 80 78 66 42 19 11 7 