P2
48
60
255
17 28 28 31 31 31 35 36 39 40 42 48 52 56 56 63 65 70 68 74 78 85 85 78 83 85 101 100 101 100 109 98 99 100 98 94 95 96 94 91 91 84 82 75 69 63 61 36 29 46 44 45 48 52 57 61 70 70 76 84 84 90 98 106 113 115 112 121 125 130 133 130 135 140 164 150 167 168 170 163 166 170 153 156 159 160 160 157 150 140 134 124 108 98 93 57 27 47 47 47 51 54 58 63 70 77 85 90 90 90 104 108 117 123 119 118 125 127 126 119 136 139 157 158 158 162 163 165 163 166 151 152 163 158 158 159 154 142 135 125 109 99 90 55 28 44 46 50 53 56 59 64 72 82 88 91 93 101 109 113 118 120 122 122 117 119 116 114 124 138 148 160 153 160 149 159 154 156 162 160 157 152 146 137 135 140 133 126 115 102 92 55 28 45 47 50 54 55 60 64 65 70 77 84 92 105 110 112 115 119 119 118 115 111 114 114 121 131 144 143 150 144 150 145 145 140 140 134 136 141 129 123 116 126 126 118 119 107 97 56 29 48 50 53 54 58 59 51 50 54 58 63 70 81 92 101 110 120 119 114 113 106 104 104 116 121 136 137 136 132 125 129 125 113 115 111 107 112 113 119 122 121 112 111 112 107 105 56 29 50 52 52 52 52 51 49 46 46 47 50 57 65 79 86 92 109 111 109 106 106 104 104 105 116 124 122 123 118 108 110 98 103 97 88 84 89 95 106 112 109 100 92 99 103 97 58 29 50 51 49 47 48 46 47 48 44 45 45 47 52 60 65 76 87 98 103 101 100 96 94 98 99 107 104 107 103 95 92 86 88 82 77 72 72 90 111 117 113 108 95 87 91 93 59 30 49 45 43 45 47 50 54 55 46 39 38 40 43 45 50 60 75 80 88 88 83 78 84 92 98 101 100 95 89 84 77 72 76 70 70 75 100 119 134 136 130 118 106 95 84 87 58 28 45 44 48 51 55 57 62 61 57 48 37 31 33 35 41 49 57 63 70 72 76 76 82 92 88 89 93 84 80 75 68 64 58 58 71 98 119 134 145 146 135 119 111 102 92 85 55 27 43 47 51 55 59 63 69 71 63 54 48 36 29 28 29 34 39 47 56 63 65 71 75 82 88 84 82 74 69 62 59 52 53 68 89 109 126 137 147 142 128 112 101 95 88 84 52 27 44 45 48 51 55 60 69 75 72 63 54 43 32 27 25 27 28 33 41 50 56 56 64 70 76 80 73 61 57 55 52 51 60 73 88 99 109 115 116 112 106 98 89 83 81 81 52 25 40 40 42 44 46 49 51 58 60 59 52 41 34 28 25 24 26 29 32 39 49 54 59 73 77 78 71 63 54 49 45 46 44 42 53 70 82 71 55 54 63 73 72 71 71 78 52 25 35 34 35 32 28 26 33 51 72 83 76 45 23 21 23 23 25 28 32 38 49 59 68 78 93 90 84 69 56 45 34 27 55 91 105 110 126 134 117 86 39 38 59 64 69 79 52 25 34 33 32 23 26 42 53 55 56 59 69 85 49 23 16 20 24 28 35 43 56 74 84 90 104 103 96 76 57 43 33 57 61 45 29 26 29 49 72 84 81 55 55 65 73 84 54 25 38 35 30 31 36 31 24 20 14 14 14 21 35 28 24 21 25 32 41 52 70 89 103 115 140 135 116 92 78 61 54 38 33 19 14 15 17 49 32 31 44 62 64 74 85 91 57 29 43 35 30 26 20 16 32 39 15 14 15 44 54 23 22 35 43 42 48 63 81 108 119 137 175 165 134 114 114 76 30 42 90 37 20 18 36 123 79 40 52 59 71 91 100 100 59 32 49 40 31 31 28 26 45 64 28 21 29 128 114 43 33 38 58 51 55 71 94 128 134 144 175 174 133 120 118 95 54 65 83 74 46 53 114 119 89 73 76 92 109 117 116 113 62 35 57 51 50 45 39 42 44 58 70 75 75 96 111 109 98 82 62 60 60 75 99 125 130 145 177 179 135 119 123 129 109 74 64 61 66 74 81 84 88 89 92 113 131 134 125 116 64 37 61 62 60 52 42 39 40 41 44 49 55 64 77 99 110 91 70 66 66 76 105 122 130 141 173 168 145 117 128 133 137 114 81 56 53 53 63 74 77 94 116 128 132 131 122 113 67 37 60 62 63 60 54 44 37 35 38 44 62 77 93 106 98 78 73 69 71 84 99 118 124 140 170 156 145 124 127 140 144 139 120 109 107 106 110 114 124 134 138 139 136 126 116 108 64 36 59 62 65 64 62 61 61 63 69 74 84 94 104 103 88 78 69 68 74 83 94 110 122 132 162 161 141 125 127 144 147 149 145 135 124 126 132 137 144 149 151 150 139 126 115 108 64 36 60 64 69 76 80 84 89 96 100 101 104 106 104 96 86 76 63 65 72 82 94 111 119 130 150 153 141 127 123 136 152 164 165 170 164 155 162 153 158 165 165 151 132 123 118 110 62 35 59 66 75 86 89 95 98 105 108 112 112 107 102 97 82 66 60 62 71 83 97 112 117 130 136 137 134 119 117 127 147 168 168 172 181 189 189 186 184 186 166 156 133 126 118 111 62 33 60 68 80 90 97 104 110 118 120 114 111 112 103 95 80 59 55 59 72 87 99 110 118 128 133 135 125 116 110 123 144 165 159 158 172 185 183 187 196 191 157 146 137 126 121 108 62 34 59 64 77 86 92 100 111 120 115 114 110 107 99 79 70 54 56 59 76 91 104 111 119 127 135 128 123 116 112 111 139 158 148 162 157 172 186 189 184 174 139 141 136 129 121 103 59 33 56 65 71 78 90 102 112 115 114 113 115 107 98 81 57 55 61 66 83 98 113 122 128 152 150 147 126 118 119 108 111 138 153 159 153 176 185 182 174 170 153 138 127 120 111 100 57 32 56 60 65 75 84 97 103 110 114 114 108 110 95 71 53 79 77 76 95 114 134 137 143 214 227 215 164 125 120 122 105 113 137 155 160 162 176 162 161 158 145 132 120 113 106 93 57 31 53 58 63 76 83 89 100 103 111 116 103 97 86 60 68 85 87 89 99 116 126 133 140 193 194 188 179 161 137 127 124 112 117 128 138 150 153 148 156 149 138 121 108 100 99 91 55 29 52 55 60 69 79 89 95 97 100 101 101 95 75 65 74 92 103 85 74 77 85 89 104 118 114 110 130 183 188 157 126 124 122 127 134 130 139 140 134 129 123 113 103 95 91 88 50 30 50 54 57 65 76 80 86 93 96 97 100 86 71 64 75 97 100 74 50 55 62 67 82 87 84 76 84 124 158 154 120 118 126 118 123 119 115 126 125 122 118 107 97 91 87 81 48 28 48 51 53 62 71 76 81 87 92 93 85 70 73 57 60 64 67 53 35 36 40 45 55 63 62 54 42 57 80 100 104 117 127 122 114 113 114 114 115 118 108 98 95 88 86 79 48 27 45 47 52 56 60 67 76 84 88 82 68 70 71 50 37 28 22 19 17 21 25 25 28 33 31 17 14 16 23 46 82 123 125 129 119 113 112 110 112 106 99 92 90 85 80 74 47 26 43 45 51 55 60 66 73 81 81 73 71 70 72 61 22 14 13 13 13 13 15 19 19 17 13 13 13 14 19 57 124 134 127 134 126 117 114 107 106 102 94 88 85 80 76 71 45 25 40 41 46 51 56 64 70 75 70 71 71 72 73 72 33 14 14 15 21 30 21 15 15 16 17 16 16 18 41 124 132 132 126 129 133 121 115 111 101 96 91 83 78 75 74 70 44 24 40 40 44 48 49 59 63 64 69 71 72 73 74 71 60 41 42 50 63 70 65 69 64 66 90 96 81 88 119 133 127 128 126 126 129 124 114 108 100 95 86 81 75 73 69 70 44 22 38 38 43 45 49 55 58 61 66 70 71 71 69 68 65 65 64 65 69 91 108 126 116 98 116 126 127 129 131 128 123 117 115 115 125 121 112 100 94 89 79 77 72 69 68 70 45 22 36 36 38 41 46 49 53 57 62 67 66 66 66 64 62 62 64 71 81 107 111 119 113 97 109 123 115 118 119 121 118 110 98 101 110 117 107 95 88 81 72 68 68 66 68 69 46 20 34 34 35 39 43 45 48 56 62 63 58 57 57 57 57 65 75 75 81 112 120 124 117 105 111 131 129 115 104 100 103 102 93 85 94 109 108 92 81 75 68 67 64 65 67 71 46 20 33 34 35 36 38 42 48 55 59 56 53 50 51 54 58 67 83 84 89 114 118 118 117 109 118 133 134 128 113 96 88 86 84 73 74 98 112 92 78 69 64 63 64 66 68 68 45 21 33 32 34 36 37 41 46 53 56 52 44 39 44 50 58 68 81 75 58 57 77 95 108 100 82 72 81 103 115 104 85 72 69 61 58 76 88 86 74 69 62 62 64 66 67 68 47 21 35 34 34 36 37 39 45 50 46 41 31 31 40 48 53 52 41 43 51 51 42 43 51 56 67 80 77 65 67 85 89 74 53 39 47 68 80 80 71 67 62 62 64 66 66 70 50 21 35 36 35 37 38 40 45 45 37 29 22 25 33 34 27 24 32 43 49 45 36 32 34 41 49 63 67 64 54 45 56 59 33 25 40 62 74 75 70 65 65 64 66 65 65 73 51 20 34 36 36 37 39 40 40 38 29 20 14 14 16 15 17 22 29 31 31 32 34 34 33 33 36 43 58 66 66 47 37 34 17 18 34 54 69 70 69 67 65 67 66 65 67 80 51 20 33 35 36 37 39 38 36 33 22 16 18 40 44 46 56 62 86 99 102 103 95 83 70 88 116 145 173 183 157 118 105 99 62 24 35 47 62 72 69 68 67 63 61 61 68 82 52 19 32 33 34 37 38 36 32 28 25 29 42 46 53 60 64 67 101 141 156 177 196 203 173 176 168 169 213 228 156 110 107 95 83 65 51 45 58 66 66 65 66 62 59 60 74 83 51 19 31 31 32 36 36 35 31 29 31 37 43 41 42 46 53 56 62 82 108 133 161 184 183 173 153 143 151 147 111 95 89 76 82 82 65 58 60 64 66 64 62 60 59 63 80 82 51 18 30 30 32 33 33 33 31 31 33 40 42 40 33 30 28 33 37 44 58 82 108 125 133 125 112 102 90 84 78 68 61 72 86 83 66 58 58 60 63 64 59 57 58 73 83 82 51 17 29 28 30 30 31 32 29 28 31 37 39 37 33 28 22 16 15 18 23 30 45 58 69 69 61 57 53 43 39 41 60 75 81 71 58 56 55 58 59 57 55 55 61 82 82 82 51 15 26 33 28 28 29 28 28 27 29 33 35 37 36 31 26 22 16 13 13 13 14 16 18 19 20 22 22 22 39 54 63 69 70 63 54 54 53 55 56 54 53 56 74 87 82 82 50 15 23 28 27 27 27 26 27 27 27 30 33 35 36 33 32 30 26 18 13 13 12 13 12 12 13 14 20 41 55 63 65 67 64 57 55 54 53 53 53 50 51 60 82 87 81 81 50 16 22 22 23 24 26 25 26 27 27 29 32 34 36 36 37 37 38 41 34 20 14 13 12 13 16 34 52 60 65 70 68 65 61 55 53 50 50 50 50 47 51 68 86 86 81 82 50 20 21 20 21 23 24 25 25 26 26 29 32 33 36 39 43 49 52 56 55 52 44 32 26 42 71 87 84 81 79 77 71 65 59 54 50 48 48 47 46 45 60 73 88 85 80 81 50 22 25 19 20 20 22 24 24 26 27 30 31 35 39 45 51 57 60 61 60 64 73 86 100 111 107 106 105 93 86 78 73 64 59 54 49 47 46 43 43 51 66 76 89 83 80 80 49 23 33 19 18 19 20 21 23 25 27 29 32 36 40 46 51 55 66 76 86 96 102 104 110 113 109 108 108 103 89 80 70 64 58 52 47 45 42 39 46 59 70 78 91 82 79 80 50 25 37 27 17 17 18 19 21 23 26 29 31 34 38 44 49 57 68 73 81 85 92 94 96 102 100 99 95 85 80 73 64 62 57 49 43 40 37 42 56 68 73 78 91 81 79 80 49 26 40 34 21 15 17 17 19 21 24 27 29 31 34 38 43 49 54 60 65 68 76 76 77 77 80 83 76 71 67 58 57 56 50 44 37 33 36 51 65 71 74 79 91 80 79 80 49 26 41 39 30 17 15 16 17 18 20 23 28 29 31 31 34 36 40 44 51 54 57 56 60 55 58 58 58 58 56 54 53 50 42 36 32 33 48 61 67 73 76 80 91 80 78 79 48 27 42 41 37 26 15 15 16 16 18 19 23 26 26 27 28 29 30 31 34 38 39 40 40 42 44 45 45 50 48 47 45 41 33 30 29 43 60 70 72 73 72 79 88 79 78 78 48 17 26 25 24 20 13 9 9 10 10 10 12 14 15 14 15 15 14 14 15 15 16 15 15 21 24 21 23 25 24 24 25 20 17 16 24 34 40 45 46 46 43 44 49 48 48 48 29 