P2
48
60
255
21 32 40 41 48 65 76 79 82 83 83 85 87 88 89 90 89 89 91 90 92 93 91 93 91 91 92 91 91 92 95 95 96 97 93 90 87 78 70 62 65 67 57 42 33 28 26 18 34 58 61 69 85 107 118 128 135 135 136 139 145 147 152 154 152 153 154 150 151 151 151 152 152 150 151 152 153 154 155 158 155 156 152 148 140 129 115 102 102 110 98 72 54 48 41 26 33 55 64 75 91 110 120 130 134 135 138 143 146 150 154 155 156 157 156 154 155 156 155 156 157 154 151 154 155 156 155 157 159 154 155 152 143 134 117 107 102 101 96 77 59 51 40 24 33 55 64 76 98 114 122 129 133 135 138 142 142 147 154 157 155 156 154 155 156 157 156 156 156 153 152 155 154 154 154 156 155 147 151 151 142 134 119 109 100 99 91 77 61 58 43 23 31 57 67 86 107 116 125 130 133 136 139 138 141 144 152 155 153 153 153 155 156 157 155 156 154 152 152 153 154 153 152 151 150 147 149 146 136 133 119 101 99 106 97 76 63 63 45 23 31 57 73 100 112 119 128 133 132 132 135 136 136 139 147 151 152 153 146 150 155 154 152 155 151 151 151 151 149 151 149 143 143 142 141 136 129 116 98 82 77 91 101 81 62 63 52 24 31 59 89 106 114 123 130 133 132 133 134 131 135 128 139 140 143 146 146 148 148 149 152 153 150 147 148 146 147 147 144 140 138 133 130 121 98 84 76 69 57 60 73 81 64 61 59 27 32 75 102 106 113 123 117 107 107 107 115 116 123 124 127 132 136 139 140 141 144 144 142 147 149 148 148 143 141 140 138 131 126 119 108 90 75 66 63 65 59 55 55 65 65 58 63 30 44 96 103 108 114 106 81 70 70 71 74 84 96 107 114 117 124 127 131 132 137 141 142 144 143 136 135 138 135 132 128 119 111 95 74 63 59 58 64 71 77 77 64 59 61 57 63 33 58 105 105 105 92 71 67 65 62 58 60 63 68 77 88 101 110 114 116 120 127 135 139 140 137 131 134 133 131 125 116 100 82 68 58 56 62 82 101 111 118 115 93 74 62 55 61 34 64 107 104 84 64 68 70 79 79 76 68 59 55 55 61 71 80 94 107 110 118 128 133 134 133 131 129 127 121 110 93 74 65 59 58 71 86 99 109 118 120 118 106 91 67 57 61 35 66 107 97 69 73 90 106 119 118 113 103 88 71 58 53 56 64 73 86 99 110 121 127 131 133 131 128 120 106 93 78 68 62 59 63 70 77 86 92 98 102 105 103 99 82 67 63 37 66 102 87 78 94 107 109 110 112 111 106 96 83 73 63 57 59 64 70 88 103 117 128 133 132 128 126 115 98 81 72 64 52 46 51 61 71 75 68 61 66 80 89 92 90 76 67 41 67 104 93 91 96 102 97 89 78 70 74 78 62 53 45 44 54 61 68 82 98 116 129 134 138 137 129 113 96 80 61 50 51 55 51 46 47 47 50 54 53 54 73 84 90 84 70 44 68 105 97 93 89 83 68 51 55 57 57 58 46 53 54 52 48 55 66 80 99 115 134 144 143 141 136 115 97 74 62 57 51 47 42 35 51 44 62 43 44 48 58 72 88 89 75 45 70 110 99 88 75 61 45 44 44 51 41 42 32 39 52 48 54 64 70 83 101 117 141 152 152 152 143 118 97 95 69 46 56 81 45 33 37 58 86 60 51 55 70 79 96 99 84 47 70 114 104 91 76 64 54 51 63 85 56 36 35 51 94 57 44 64 95 95 106 121 145 160 162 157 146 117 103 106 78 59 74 121 87 52 61 104 103 79 67 83 95 103 112 112 100 52 72 119 116 107 97 90 84 72 81 102 104 68 65 108 122 87 70 80 105 104 112 123 145 161 163 160 146 119 110 106 104 96 104 112 119 112 128 121 105 83 85 100 116 122 126 122 110 60 74 121 126 126 122 116 103 87 81 97 112 117 105 104 102 104 104 100 106 110 119 128 150 167 166 162 148 124 114 114 111 107 103 95 90 89 93 84 81 87 100 117 127 130 132 127 116 65 74 128 134 135 133 129 120 105 90 82 81 84 87 95 105 114 118 113 115 119 122 129 151 167 166 164 150 125 116 122 123 119 117 107 96 90 88 91 92 102 113 131 139 139 135 129 117 67 75 130 134 140 142 140 134 122 115 107 104 104 107 113 118 124 130 130 128 124 128 130 146 166 167 164 147 123 117 122 131 132 126 119 111 105 102 103 104 113 130 141 146 144 138 129 117 68 76 130 138 144 147 148 144 135 130 123 121 122 119 120 123 136 143 139 131 127 129 129 145 163 166 163 146 122 118 120 126 135 137 131 126 121 120 122 128 137 143 150 150 143 134 126 119 69 76 131 137 144 148 154 155 151 142 133 130 128 126 130 139 147 144 137 129 128 128 129 144 162 161 159 145 123 118 120 122 134 139 141 135 130 131 138 145 151 152 153 150 143 130 121 116 68 76 130 135 142 146 154 163 162 155 146 139 137 141 147 147 152 144 137 127 126 125 132 148 157 160 155 144 128 115 116 121 133 141 145 145 144 144 148 152 155 157 157 149 138 127 117 115 66 74 126 130 137 142 151 162 162 156 154 149 148 152 152 152 153 143 132 122 118 122 137 147 157 162 157 145 134 116 111 116 130 144 149 151 149 149 149 153 156 157 153 140 131 123 114 108 65 73 123 128 130 138 145 154 155 156 155 152 154 153 154 160 156 138 122 112 116 120 140 150 157 163 161 151 140 123 110 109 122 143 153 154 148 151 150 150 151 152 143 136 124 119 113 106 64 70 121 128 128 131 136 145 148 151 153 155 159 159 160 160 153 132 111 111 116 125 147 156 162 163 163 156 148 134 113 103 115 134 150 154 148 151 150 147 146 141 132 129 121 114 109 104 62 70 119 122 127 128 131 138 143 149 153 156 158 161 160 159 145 118 104 116 117 133 155 161 166 166 167 162 154 142 119 110 109 124 140 150 143 146 148 144 141 127 127 122 114 110 108 101 61 69 115 118 121 122 130 137 143 148 153 157 161 161 161 154 130 107 114 122 123 139 158 165 169 172 172 165 159 146 126 116 110 117 135 145 145 145 145 141 133 124 124 118 113 109 104 99 60 66 113 116 117 121 129 137 140 140 149 153 158 159 157 142 115 106 124 125 127 143 160 166 165 165 164 158 157 144 126 115 115 110 123 138 142 143 140 132 132 128 119 115 111 107 101 96 58 64 109 114 114 120 128 136 136 137 145 147 150 153 149 128 108 114 123 122 124 134 146 153 152 152 148 140 135 125 115 110 114 110 113 129 137 138 135 131 128 124 118 112 108 105 99 94 56 64 106 110 110 116 122 131 135 137 140 144 147 148 137 116 110 121 120 114 111 114 117 124 126 127 124 115 103 97 96 102 110 113 109 120 130 131 128 126 123 120 116 109 106 103 98 92 55 62 105 108 109 113 119 126 132 131 134 139 140 138 123 111 117 121 112 103 93 85 78 85 91 96 93 86 74 67 76 92 120 121 111 113 122 124 125 121 120 115 111 107 104 102 96 91 55 61 104 105 107 111 114 123 123 127 130 133 133 124 116 115 122 125 111 79 61 53 51 61 72 70 71 65 50 53 72 120 129 124 114 111 114 117 120 119 115 112 107 101 102 100 94 91 55 59 100 105 107 108 111 119 121 122 126 129 125 119 116 119 123 124 124 101 59 53 55 56 67 65 72 69 67 81 114 125 123 122 116 113 112 111 115 115 112 111 106 102 101 97 92 90 48 59 99 103 105 106 109 113 119 120 119 121 118 117 116 119 122 122 124 123 111 96 94 88 74 74 90 108 111 116 121 124 122 120 116 111 110 109 112 111 109 107 104 100 100 94 93 89 38 58 97 100 103 106 108 111 115 117 114 116 114 116 116 119 121 121 120 122 125 123 123 119 107 107 118 123 119 119 119 119 119 120 119 112 108 107 107 107 106 103 101 100 97 94 94 82 32 59 96 100 102 103 107 108 107 110 111 113 115 115 118 118 119 117 117 119 124 130 138 138 126 127 139 137 127 121 118 115 116 120 120 114 107 106 105 104 103 101 100 98 94 94 93 69 29 60 96 101 100 102 104 103 101 104 109 109 113 116 119 119 118 117 117 123 130 139 147 147 145 145 148 148 138 129 120 112 113 117 118 113 106 106 104 101 101 99 98 97 95 94 89 56 26 59 96 100 100 101 101 104 103 105 107 110 114 118 120 117 114 115 122 132 141 149 156 157 151 151 158 154 146 136 124 113 106 109 108 107 105 104 105 103 98 97 96 96 94 95 79 44 22 56 95 100 100 100 100 101 102 101 107 111 111 115 110 105 101 105 115 122 119 109 107 121 140 127 108 98 100 101 108 101 89 92 97 103 103 105 106 103 96 96 97 96 95 92 63 37 20 54 93 98 100 99 100 98 101 102 107 110 106 106 98 80 68 69 73 64 56 56 54 57 71 64 55 55 54 54 61 62 53 59 81 98 103 108 109 104 97 95 97 98 94 84 48 34 21 50 90 97 99 98 95 96 100 102 106 109 105 98 80 54 65 69 72 80 84 79 61 52 52 52 58 73 87 89 83 76 83 74 77 94 104 108 109 104 99 97 97 96 93 72 36 34 22 40 85 93 97 98 96 96 102 106 109 108 102 91 73 82 95 85 88 80 85 97 97 92 89 93 102 106 103 82 81 80 89 94 87 96 104 109 108 102 98 97 97 94 85 54 33 35 22 33 74 89 94 98 99 100 101 105 106 106 101 94 90 99 100 90 78 80 74 78 85 92 92 92 89 84 75 71 75 81 92 95 91 96 103 105 102 98 96 96 95 89 74 38 35 35 24 27 61 83 90 95 97 98 100 101 101 100 98 96 98 101 98 93 78 66 66 69 74 76 77 75 71 68 65 67 73 84 88 89 89 90 102 100 98 95 95 95 93 83 53 35 37 34 24 22 49 75 85 92 91 96 100 100 97 95 96 94 94 93 91 87 79 71 61 52 49 47 46 47 49 52 61 70 77 82 84 86 87 87 91 93 94 94 96 94 89 71 37 33 34 34 24 20 36 62 79 86 92 94 99 99 99 97 97 94 94 96 93 92 94 99 98 93 81 77 79 83 86 95 105 102 97 94 94 89 89 88 85 88 91 93 94 91 80 50 32 33 33 35 22 19 33 53 71 81 88 92 95 95 95 94 97 99 100 102 106 112 124 130 131 136 141 148 149 149 147 138 135 133 125 113 106 98 97 91 88 90 91 91 91 85 63 36 33 33 34 35 22 19 33 49 67 73 81 87 90 91 91 92 99 105 108 111 116 126 137 143 144 146 152 154 154 153 153 149 145 144 136 122 110 108 104 98 91 89 89 89 85 72 41 33 34 33 34 36 21 20 33 47 67 66 73 80 84 86 88 94 102 104 107 110 114 123 135 143 148 152 155 153 155 154 154 154 146 139 132 116 111 110 105 98 93 89 87 85 77 54 33 33 32 33 33 36 20 20 34 44 68 73 65 71 75 80 84 89 96 102 102 103 107 116 127 138 147 153 152 149 149 148 147 149 141 133 124 109 106 102 99 94 87 83 81 76 63 36 33 33 34 33 35 36 21 20 33 43 64 79 71 65 69 73 76 83 89 97 100 99 100 104 114 124 138 144 144 139 136 137 140 139 130 124 110 100 98 96 91 87 81 78 74 67 43 32 33 33 34 33 40 35 22 20 32 41 60 84 81 70 63 66 69 71 77 87 95 98 98 95 102 112 123 131 133 128 123 123 130 129 123 111 100 94 95 89 82 78 76 72 67 54 35 34 33 35 32 34 42 36 24 20 32 41 57 82 88 82 70 59 65 66 69 75 81 91 94 89 91 98 109 117 116 110 104 109 115 111 103 95 86 84 81 76 74 74 71 65 60 40 33 35 34 34 32 40 40 38 24 20 33 40 56 76 89 88 83 70 59 61 65 67 68 73 78 79 79 81 88 91 91 91 87 87 91 89 84 76 73 72 70 68 70 68 63 61 50 35 35 34 37 32 32 47 36 39 23 19 33 39 55 75 87 89 88 84 73 60 59 63 63 60 60 63 64 66 67 66 67 66 62 63 65 66 66 62 61 60 60 66 64 60 63 59 41 34 37 36 35 32 36 52 38 37 24 19 32 39 54 75 87 91 92 89 84 73 60 57 59 59 56 54 55 56 57 59 58 57 56 55 54 53 52 53 56 59 61 59 59 66 68 50 37 37 35 39 33 32 44 47 40 38 22 19 32 37 52 76 90 92 95 93 87 82 73 62 55 56 57 57 56 54 53 52 52 52 51 51 51 50 52 54 56 56 54 59 70 72 60 43 38 39 37 37 33 34 45 41 41 36 23 12 19 23 31 47 57 59 58 59 57 54 51 46 38 34 34 35 36 35 34 34 34 34 33 33 33 33 34 34 33 33 37 44 46 43 32 26 24 22 26 23 21 24 26 27 24 21 15 