P2
48
60
255
26 42 45 46 47 52 55 56 59 60 65 67 70 75 78 82 81 83 83 83 80 85 88 90 91 94 96 99 102 101 103 103 102 99 98 95 92 87 86 85 83 78 76 71 70 69 65 38 42 69 74 74 76 82 86 92 94 100 107 111 115 121 130 133 133 135 140 142 142 142 145 147 148 151 157 161 164 164 167 163 164 164 160 153 149 140 137 137 134 127 118 114 113 109 106 61 42 72 76 76 79 84 84 92 95 102 108 112 118 124 131 135 139 143 145 146 148 150 149 149 151 155 156 159 164 165 166 163 164 164 162 155 144 138 135 134 134 124 114 113 111 108 106 64 44 75 77 78 81 83 86 92 100 110 113 116 123 127 135 139 145 148 150 150 138 154 153 155 157 157 161 163 165 167 170 167 165 165 162 158 146 140 138 134 133 124 118 113 110 109 109 66 46 77 79 80 81 83 87 97 111 121 118 120 128 135 139 145 147 153 155 158 157 160 157 157 159 159 164 164 170 172 177 173 170 172 167 161 151 147 145 139 135 127 121 116 113 113 111 68 46 75 79 82 82 81 87 96 107 116 120 125 130 140 148 150 153 157 160 161 163 164 163 162 162 163 168 169 169 174 176 174 174 173 171 167 159 154 151 145 141 130 122 117 116 114 112 66 44 74 77 81 78 74 80 89 99 108 115 123 129 144 150 150 154 156 156 159 160 160 162 161 161 163 165 168 168 170 176 173 172 174 172 170 163 157 151 147 139 128 112 123 118 115 113 68 46 75 73 71 66 66 69 70 77 85 94 102 113 127 136 140 142 142 148 151 150 153 153 156 155 153 157 161 160 159 163 164 165 163 163 156 153 148 140 139 132 127 118 125 123 117 111 68 41 57 53 51 54 56 52 53 52 49 49 53 60 76 94 101 109 120 130 136 141 143 143 146 147 147 148 146 147 142 141 142 148 149 144 133 118 110 114 109 106 107 105 104 111 110 106 67 33 43 45 47 50 49 43 40 35 31 29 30 31 36 47 58 70 88 100 113 122 128 133 133 135 134 132 132 127 115 110 112 108 96 80 66 58 58 69 82 82 86 88 78 82 88 88 63 33 51 57 59 56 51 46 44 44 37 30 28 28 30 32 39 52 63 75 84 95 105 111 114 117 121 118 111 103 94 88 82 71 52 38 37 32 37 45 53 62 71 78 79 84 81 77 54 40 64 63 62 59 62 64 67 70 70 66 55 42 34 31 34 39 46 54 61 72 80 90 96 100 97 100 95 87 73 63 59 45 35 29 28 28 31 40 51 59 70 79 83 84 87 88 57 39 61 60 61 61 64 66 66 66 69 70 67 60 55 49 44 40 40 42 48 57 64 75 82 86 86 82 74 63 50 40 35 32 29 31 38 52 72 92 96 91 90 89 89 92 94 95 61 37 57 54 52 44 41 43 40 34 28 27 28 32 38 47 50 49 46 44 48 52 59 69 80 85 83 73 58 43 35 33 31 33 38 47 55 64 71 71 76 79 83 89 92 90 87 87 56 37 54 47 40 40 38 34 39 34 17 48 16 17 25 32 38 48 50 49 50 54 63 76 92 105 103 85 62 45 35 37 42 38 29 22 26 19 43 19 28 35 40 39 52 71 82 86 55 40 57 50 45 41 45 58 69 44 21 20 19 23 42 41 33 43 49 52 55 60 69 89 116 133 132 109 81 61 54 56 50 32 40 25 25 17 23 26 82 65 36 40 43 52 70 83 55 43 70 66 65 59 55 66 83 82 37 32 31 48 95 61 44 42 57 61 66 69 76 103 143 165 157 123 98 89 84 82 46 48 93 52 33 28 31 45 104 106 89 76 61 73 82 94 66 42 77 78 76 75 78 82 92 100 104 93 94 116 129 109 98 82 81 80 75 76 84 115 154 176 170 133 113 114 121 100 83 89 105 101 76 61 72 121 123 118 101 99 98 102 104 110 73 51 84 85 86 85 83 86 93 97 103 104 103 103 108 116 116 112 110 109 91 86 95 126 155 170 167 138 122 125 129 128 130 127 118 110 107 118 133 144 136 130 123 116 118 123 125 128 81 61 99 99 98 95 94 91 85 82 81 85 88 91 98 105 112 125 132 120 107 97 108 134 158 171 170 144 128 135 145 144 126 114 102 90 86 89 97 100 105 108 113 120 130 137 141 140 85 72 122 123 119 113 111 107 103 100 98 99 99 101 106 118 132 138 129 126 111 100 117 136 155 170 181 146 132 135 147 160 151 128 118 113 105 100 96 96 102 113 126 139 147 152 155 156 92 78 132 131 135 135 134 129 123 119 117 116 115 118 126 138 140 130 121 124 106 110 122 140 158 167 179 148 138 135 149 153 169 163 133 121 117 120 124 128 135 139 149 159 162 163 164 161 94 76 128 134 141 144 143 147 145 139 136 134 136 139 143 146 140 127 115 112 107 113 124 143 157 170 174 143 141 142 151 151 166 175 168 149 134 130 135 138 142 152 161 167 174 167 165 159 95 71 121 127 137 142 146 150 151 153 153 149 148 149 148 144 131 115 103 104 101 112 127 145 157 175 178 146 138 142 147 147 158 176 181 172 164 157 154 157 162 164 166 169 170 163 160 152 92 68 115 122 127 138 142 148 150 152 152 152 149 152 149 137 122 102 95 97 97 112 126 143 163 177 174 148 138 141 143 143 154 171 179 179 175 170 162 163 165 164 163 163 163 159 148 143 84 61 105 112 118 125 134 141 147 149 154 147 148 152 147 133 109 90 86 90 97 112 124 142 162 177 170 150 143 141 136 133 146 166 174 169 172 169 170 164 162 159 160 158 150 145 141 134 79 56 96 99 105 112 121 126 132 142 148 151 150 147 141 123 98 80 81 88 104 121 131 142 155 170 166 153 146 143 132 121 133 155 165 168 168 170 169 164 157 155 151 141 138 140 132 125 74 50 86 93 96 105 110 121 129 135 146 148 147 142 130 109 80 86 97 99 115 126 135 144 154 165 163 155 148 141 133 119 120 140 157 165 164 170 172 168 163 155 150 143 136 133 128 121 68 48 81 91 100 107 118 121 129 135 140 138 137 129 118 91 80 106 106 105 114 131 135 149 161 175 172 159 153 144 140 132 114 130 142 153 157 161 161 162 160 157 148 142 135 129 123 112 65 46 78 85 94 99 110 117 121 122 129 130 128 122 107 75 84 96 103 96 97 112 134 160 159 168 180 162 142 134 139 130 122 119 135 139 149 152 152 152 147 146 141 136 130 121 110 104 61 44 73 78 83 87 97 107 115 120 122 120 120 110 85 69 74 78 80 72 70 82 104 119 125 124 133 124 107 106 118 120 116 107 126 136 141 145 147 145 141 135 128 124 117 111 104 98 59 42 69 73 77 83 91 99 107 109 105 109 108 87 76 68 63 59 44 28 30 49 65 74 84 94 97 87 63 53 74 91 95 101 114 126 135 137 138 130 131 125 116 112 109 103 97 93 57 42 69 72 73 78 85 92 99 102 103 102 85 76 79 79 52 37 23 15 14 18 34 39 42 43 45 33 16 16 30 52 76 110 115 117 129 132 130 128 127 124 113 110 104 96 93 91 56 42 70 70 72 75 80 86 90 96 101 88 76 79 84 84 75 35 22 22 37 50 40 29 27 26 20 17 16 18 27 51 110 124 123 118 128 132 127 125 121 118 110 103 97 93 91 90 54 41 68 70 71 72 76 82 88 91 90 80 82 86 86 85 83 73 63 64 67 65 58 47 34 38 58 56 38 31 51 105 127 131 130 128 130 133 129 124 123 118 109 101 96 92 92 90 53 41 67 68 68 67 71 78 86 89 81 81 86 86 85 85 82 77 74 69 70 69 64 60 72 89 97 103 100 102 108 120 127 137 141 141 138 132 126 119 117 111 106 100 96 95 93 86 52 39 64 65 67 66 70 77 84 84 78 82 83 83 82 77 76 73 72 69 70 72 76 91 93 99 108 112 110 109 115 122 131 141 143 145 140 135 128 121 114 109 103 99 94 91 90 86 54 37 61 62 65 66 68 74 78 76 74 75 74 76 75 73 73 72 70 69 78 96 110 107 95 93 110 119 112 116 119 122 125 128 132 134 133 131 129 121 113 104 99 97 92 92 89 88 54 36 59 60 62 64 66 69 72 71 70 68 69 69 69 68 70 76 85 97 107 121 123 118 106 100 118 128 122 120 118 119 118 112 115 115 120 120 121 115 111 104 98 94 90 86 86 84 52 31 55 57 60 62 68 68 70 64 63 64 64 62 63 66 79 93 98 96 94 102 123 133 125 126 120 119 122 126 127 120 111 103 103 105 104 106 108 110 106 99 94 91 88 86 84 83 51 28 53 57 57 60 63 64 64 61 58 53 50 52 57 62 64 59 52 53 59 61 65 84 99 86 73 73 74 81 93 105 108 98 93 94 91 96 95 101 98 93 89 88 87 85 83 80 48 33 54 54 55 58 60 60 59 54 47 36 28 29 34 31 28 29 31 34 37 37 36 38 43 44 44 49 51 50 48 50 59 68 64 63 74 81 90 93 90 89 86 84 83 81 79 74 45 30 50 51 52 57 59 56 54 46 34 26 27 33 34 31 35 34 34 34 31 29 29 28 29 28 28 30 29 28 27 26 25 24 20 21 35 54 73 81 84 85 80 79 78 77 71 67 42 27 47 47 49 52 54 54 49 42 37 41 48 53 53 55 60 57 68 75 75 70 70 79 78 78 80 87 87 86 94 88 79 72 64 41 44 44 55 72 77 77 75 74 74 70 66 66 39 24 41 43 44 46 49 49 45 44 46 49 55 59 57 54 55 58 68 90 107 114 118 126 121 125 128 133 125 101 97 88 83 81 87 84 72 60 55 63 69 69 70 69 68 62 65 72 38 21 37 39 40 41 43 46 47 49 47 52 55 57 59 59 56 58 58 67 79 87 89 92 99 103 102 98 88 80 79 75 73 82 89 87 76 64 59 56 59 62 62 63 61 60 82 71 38 20 32 35 37 39 39 43 45 48 50 51 54 56 55 56 55 52 48 44 44 46 49 52 58 61 64 65 63 64 67 72 76 83 83 79 69 65 61 58 59 58 58 60 59 77 85 70 38 29 32 30 35 37 40 41 43 45 47 48 49 50 50 49 49 46 41 37 30 24 19 19 19 20 22 24 32 44 54 63 67 70 70 66 63 64 63 59 54 55 58 57 73 85 85 68 37 31 47 29 28 35 38 41 44 45 46 45 44 45 44 45 45 43 39 36 31 27 27 25 23 21 21 22 26 32 41 49 55 56 58 57 58 60 61 59 57 57 55 68 84 87 84 67 38 31 51 47 30 27 34 39 42 46 47 44 44 43 42 43 42 41 40 38 41 45 44 41 44 53 59 51 44 41 43 48 51 52 53 57 61 62 62 59 55 55 63 83 86 86 84 66 38 31 51 52 49 35 25 35 40 44 48 49 48 47 45 46 45 45 48 54 70 81 77 80 89 95 97 95 88 74 60 56 57 58 60 63 67 61 61 56 51 60 81 88 87 87 83 65 37 31 50 51 53 52 39 26 33 41 46 51 53 53 52 49 51 54 59 71 86 93 95 90 87 95 99 99 97 87 77 69 66 70 76 75 71 64 59 51 57 80 89 90 88 86 83 65 37 31 51 52 53 53 53 43 27 34 41 50 55 56 54 53 53 58 65 74 82 83 85 84 84 83 84 83 85 85 80 76 78 79 80 75 65 56 49 54 80 86 88 88 87 87 83 66 37 31 51 53 55 56 56 54 46 29 33 44 52 56 58 55 52 54 56 63 65 66 65 62 59 60 64 72 77 76 73 76 79 81 76 67 56 47 55 80 85 88 87 88 89 87 84 67 37 32 52 54 56 56 56 57 54 49 29 33 43 51 55 55 50 49 45 45 43 43 41 34 29 34 46 55 59 64 63 70 74 71 61 49 41 52 79 85 88 88 89 89 89 88 85 68 37 32 55 54 57 58 57 57 55 54 50 30 28 38 45 48 46 43 38 33 29 26 25 24 26 30 32 37 45 46 55 58 58 44 38 31 44 75 83 88 87 88 89 88 90 88 84 70 36 32 53 55 56 57 59 58 58 55 55 51 30 22 31 37 37 36 33 28 22 20 21 23 22 24 21 21 23 28 33 34 31 26 22 38 73 81 84 85 86 89 89 90 90 88 84 73 36 31 52 54 57 59 59 58 59 58 56 55 52 33 17 21 26 26 25 22 20 17 17 15 15 15 16 16 16 18 20 21 19 17 38 72 80 82 85 87 88 89 89 91 89 89 84 79 37 31 52 54 57 59 58 60 61 59 58 56 53 49 33 16 14 15 16 16 16 16 17 16 17 17 17 18 18 17 15 14 16 40 72 76 81 83 85 87 89 91 92 91 89 89 86 83 41 19 32 33 35 36 36 36 38 38 37 36 34 32 29 19 9 8 8 8 8 8 8 8 9 8 8 8 8 8 9 9 19 42 46 47 50 54 54 53 57 57 56 56 57 56 54 52 31 