P2
48
60
255
38 65 74 76 81 83 86 86 86 86 88 88 91 88 88 89 87 88 88 88 90 90 90 91 91 90 90 89 90 90 89 91 90 90 89 87 83 83 83 81 79 80 77 75 72 66 56 30 62 111 121 128 131 135 140 141 142 140 144 141 145 145 144 144 144 144 143 146 146 144 145 149 149 145 142 143 147 147 148 149 148 145 141 137 133 132 132 130 130 130 127 122 118 111 94 48 67 115 122 130 133 133 139 138 140 135 136 136 141 143 140 146 142 141 143 146 145 143 144 146 148 146 141 145 147 147 142 146 144 138 135 134 130 129 130 129 130 130 128 123 118 113 101 51 71 116 123 130 131 132 135 134 133 129 130 129 131 137 136 134 138 136 138 140 145 143 141 142 147 144 142 144 142 143 137 139 139 134 127 126 122 124 122 124 125 125 128 124 118 112 104 56 76 122 124 128 128 124 126 130 121 114 111 104 112 121 123 127 127 131 129 135 139 136 134 138 144 142 137 137 136 134 130 122 125 124 109 105 103 101 108 118 119 116 124 125 120 111 107 57 77 121 125 129 121 108 101 91 79 74 70 67 65 75 92 102 106 114 120 127 131 131 130 133 138 136 131 130 129 127 107 94 89 83 77 72 63 60 64 76 92 96 114 122 120 114 108 59 77 122 133 132 105 86 76 78 93 100 93 88 74 56 54 65 74 89 105 118 127 125 129 130 131 129 127 125 123 116 81 64 52 49 52 62 81 93 92 82 71 76 86 112 119 116 109 63 75 128 134 111 91 99 120 136 136 131 121 111 97 77 53 49 53 65 81 105 122 123 127 130 130 127 126 124 119 100 68 53 49 47 61 91 106 119 131 134 121 107 87 93 111 110 108 63 78 139 119 108 136 144 143 139 132 125 118 108 97 89 70 53 50 59 69 93 117 126 129 131 129 126 122 122 111 85 66 57 53 59 84 98 109 117 124 133 135 134 122 91 90 107 105 63 84 128 115 154 158 142 135 126 120 113 109 102 92 86 82 66 59 62 64 88 114 124 127 130 132 128 117 114 102 73 67 65 63 76 88 98 105 111 116 123 125 128 131 122 85 91 104 63 78 117 160 168 147 136 127 120 119 121 122 118 110 95 85 79 74 70 69 84 110 125 131 132 131 127 119 108 90 75 76 75 81 92 106 117 120 123 122 119 120 120 124 126 113 78 96 66 80 160 177 154 141 133 125 123 125 128 127 126 124 118 107 93 83 80 81 88 113 128 132 134 136 128 119 110 90 81 81 91 105 114 120 125 127 127 126 122 121 117 117 118 122 103 83 63 98 182 173 148 136 130 127 124 118 110 106 103 101 103 104 106 96 81 85 97 116 127 136 138 134 125 119 108 91 82 90 104 107 100 104 110 112 111 111 111 113 112 114 114 119 115 94 59 105 178 165 144 134 128 109 99 95 96 95 100 91 85 85 89 98 88 81 97 115 130 138 142 141 130 123 109 90 84 96 93 83 86 91 94 94 101 97 92 100 107 105 109 113 113 104 58 107 174 154 140 120 102 99 91 78 71 64 64 71 81 89 82 84 86 83 97 116 133 141 144 143 134 123 106 88 80 83 76 79 77 67 61 62 61 71 87 85 83 100 99 105 110 108 62 108 164 141 120 97 101 96 60 46 40 37 47 52 66 64 83 93 89 83 96 116 134 142 146 146 137 126 107 88 78 85 70 63 55 45 53 44 41 48 50 62 77 68 88 94 102 106 63 98 147 126 97 76 87 58 90 76 54 33 43 64 102 85 67 80 104 96 97 115 133 144 146 145 138 125 108 100 100 83 60 74 84 54 39 34 55 70 77 52 61 73 81 89 98 103 63 90 136 112 92 87 91 84 96 95 60 53 57 89 121 110 103 80 84 114 102 116 135 144 146 145 140 125 109 107 97 76 90 98 104 72 57 53 58 95 97 77 75 75 86 93 98 106 68 82 122 121 119 125 129 121 110 105 94 88 94 107 106 102 101 102 115 119 109 120 141 145 146 144 140 130 110 100 119 109 98 98 106 98 91 91 95 97 96 99 108 109 103 104 108 112 70 80 134 135 139 148 146 140 131 124 119 107 110 114 119 114 115 119 120 115 118 127 149 145 144 144 144 136 117 106 122 128 118 114 119 115 113 118 121 122 122 129 133 131 120 120 128 126 75 84 135 139 154 157 154 145 142 140 139 139 131 133 134 131 123 124 122 120 127 145 149 146 141 143 143 140 126 119 121 121 128 133 130 138 138 141 142 141 139 136 126 133 129 128 132 131 78 84 136 137 150 156 148 141 137 135 135 136 132 129 127 125 125 129 128 128 136 153 148 147 143 144 143 137 128 121 125 125 128 128 128 129 134 137 140 140 139 135 117 133 132 133 134 132 81 87 139 137 142 148 145 147 139 135 131 129 126 123 124 129 132 133 131 132 152 151 146 143 143 141 139 130 128 125 126 127 131 133 131 133 135 139 136 134 134 133 133 135 134 136 134 133 81 87 143 144 142 147 150 152 148 143 146 144 140 137 137 136 136 134 131 145 153 148 143 140 143 139 137 131 130 124 123 129 133 135 139 141 142 146 144 146 144 140 138 137 136 138 135 132 81 90 145 148 144 147 148 148 148 146 148 146 141 140 139 139 138 133 140 148 152 146 147 143 144 141 136 133 127 124 125 126 130 135 136 138 142 145 147 151 148 146 143 140 141 140 135 133 79 93 150 149 148 148 146 144 146 145 142 144 141 139 137 134 137 137 144 150 151 149 149 145 145 143 140 132 128 126 126 129 133 133 136 138 141 143 144 146 146 145 143 140 140 137 135 131 80 93 151 148 149 146 147 146 145 144 143 142 140 138 136 136 137 140 148 156 158 149 145 146 144 141 137 132 128 124 122 127 132 137 135 137 139 142 140 142 141 144 142 140 139 137 133 129 78 97 149 151 149 150 149 147 147 144 144 141 140 140 139 139 139 135 142 157 159 151 145 144 143 142 136 132 128 124 119 118 129 138 140 139 140 141 140 140 142 141 142 139 135 133 131 127 77 98 154 152 147 144 145 146 149 147 144 144 142 140 140 139 132 114 133 158 170 157 144 147 142 150 136 131 127 122 119 112 116 136 141 144 143 144 144 146 141 139 138 138 134 130 128 124 75 98 157 152 146 146 143 145 145 148 145 144 143 142 139 133 115 100 143 177 208 170 143 134 127 137 133 128 126 121 120 114 102 121 136 143 145 147 147 148 145 142 138 133 133 129 124 121 75 101 160 151 148 144 142 142 145 144 146 145 143 138 131 121 100 103 178 187 167 147 129 114 113 118 120 117 117 117 118 117 97 104 121 133 141 148 151 147 145 140 137 135 131 126 124 120 71 101 162 158 150 147 143 137 139 141 141 141 135 129 122 108 86 110 164 133 124 129 119 99 97 99 101 99 99 98 103 110 93 92 108 120 128 137 143 143 139 134 132 131 129 126 122 118 70 101 164 160 154 149 142 134 134 135 135 132 128 121 114 97 79 98 123 93 50 55 101 97 85 81 80 69 46 52 82 97 92 84 96 110 117 124 130 136 133 130 127 127 125 122 116 115 70 104 163 162 160 152 138 133 129 127 130 126 122 115 106 88 79 92 96 73 50 57 96 114 91 81 74 61 47 47 67 87 91 85 89 102 111 116 125 125 128 125 122 121 123 121 117 114 69 103 165 159 162 154 139 132 127 123 122 118 115 111 102 89 92 103 96 80 81 97 109 101 88 83 90 96 89 70 73 96 107 100 89 96 106 113 119 123 123 122 120 120 121 118 114 112 66 105 159 162 160 151 141 131 124 118 116 113 111 108 102 96 109 112 108 107 108 116 113 101 87 88 102 112 115 108 108 110 110 110 103 97 102 109 114 115 119 118 117 116 113 117 114 111 67 99 157 162 159 150 143 129 119 114 110 109 109 108 108 114 117 115 118 120 123 126 121 115 107 107 114 122 122 120 118 118 118 118 117 110 104 103 107 111 112 115 114 112 113 114 112 109 67 100 158 162 154 152 139 125 114 108 106 107 109 111 119 123 123 123 126 130 135 136 130 130 123 117 122 131 130 127 125 124 123 126 126 122 112 106 107 108 109 109 110 110 110 110 108 107 66 99 157 157 149 149 132 120 110 106 107 106 110 118 125 130 133 132 137 141 139 136 133 130 124 120 123 129 133 130 129 128 124 125 129 126 120 112 105 102 105 107 107 109 107 105 106 109 67 99 160 155 154 144 131 119 110 109 107 107 115 123 130 134 138 141 143 144 139 135 133 131 126 122 127 131 132 130 130 129 124 124 125 128 128 120 114 107 102 103 104 106 105 105 107 108 67 97 156 150 151 145 132 117 109 107 108 115 120 128 134 140 144 147 144 143 139 133 125 126 126 125 124 124 121 123 127 128 123 122 120 124 126 120 115 110 104 103 104 104 105 105 109 108 66 96 155 153 149 143 129 119 113 111 113 118 125 133 139 148 149 149 144 132 116 95 85 88 100 103 94 86 82 85 98 114 120 122 115 116 114 117 117 113 108 107 103 104 104 105 107 106 66 98 162 156 147 141 132 124 118 116 124 127 130 131 140 149 146 139 109 81 66 62 63 65 66 67 65 67 67 66 66 74 89 107 112 107 110 115 118 115 113 108 107 104 103 105 106 107 64 102 163 158 150 143 136 130 129 128 127 131 126 126 126 134 115 82 64 66 63 59 57 54 53 55 56 57 59 61 62 59 60 70 94 98 108 111 116 115 116 111 109 106 107 105 106 105 65 104 165 162 161 145 140 139 135 134 132 139 128 119 101 92 63 57 70 71 73 74 74 73 72 68 73 79 82 81 77 71 66 48 56 77 100 113 121 120 121 116 112 109 107 107 108 106 65 107 170 166 162 152 148 146 144 140 133 133 118 103 74 63 74 95 107 103 97 90 89 89 90 87 91 91 90 91 90 87 91 90 81 63 81 106 114 122 124 122 114 111 106 106 107 109 67 110 174 173 168 156 154 152 155 142 132 122 107 87 76 111 132 138 126 113 103 95 91 89 89 91 89 91 93 95 97 103 110 110 109 103 84 94 112 121 128 124 114 109 108 107 108 110 68 113 182 176 169 162 157 165 161 143 130 117 106 105 117 130 142 150 141 135 127 121 116 111 105 102 104 108 111 117 116 117 117 112 114 116 118 114 117 125 127 122 115 107 105 109 109 110 69 116 181 177 174 163 158 174 167 147 135 125 120 122 130 140 142 145 143 135 125 120 113 108 104 104 103 106 112 116 117 115 116 117 118 120 124 128 121 123 121 116 114 108 105 107 111 112 71 120 186 185 175 161 162 176 167 146 133 128 129 127 139 142 138 140 139 132 123 116 111 108 108 104 105 106 111 112 111 114 117 119 121 123 123 126 121 117 116 111 109 106 103 107 110 113 70 118 188 184 176 163 160 169 165 145 127 124 127 134 142 143 137 139 136 130 125 119 116 115 111 110 111 116 116 119 118 119 119 120 122 124 123 124 120 112 109 105 103 104 103 108 110 113 70 119 186 186 178 160 154 161 156 142 126 126 132 141 143 144 138 139 137 132 129 126 127 123 121 122 124 126 124 128 127 124 124 125 121 123 120 122 117 113 107 100 101 102 104 108 111 114 71 118 188 186 175 159 155 155 150 139 130 136 145 146 143 144 144 139 136 132 131 126 127 124 125 124 125 125 125 126 125 124 124 126 125 122 121 120 117 111 104 99 99 104 107 110 113 114 69 119 188 182 175 164 149 145 146 139 138 143 153 154 150 146 146 141 132 130 129 127 124 122 122 123 124 124 124 122 125 126 126 125 123 123 123 117 111 105 101 99 100 105 108 109 112 112 69 119 189 182 177 165 147 142 144 147 140 148 162 156 155 150 149 143 135 132 129 124 123 123 125 122 122 124 124 122 121 121 124 123 119 121 122 117 111 104 101 101 103 107 109 110 110 112 68 113 189 182 174 163 147 141 145 151 149 156 166 162 160 153 152 146 138 132 129 126 127 126 125 122 122 122 125 124 120 119 120 122 120 118 119 117 113 103 102 104 106 109 108 108 110 109 67 105 187 183 177 165 151 147 145 152 158 160 166 172 164 159 156 151 139 136 131 125 126 126 125 121 124 126 123 122 124 121 120 120 120 117 115 113 110 105 105 105 107 108 110 108 107 108 66 106 181 180 176 165 154 149 149 149 151 153 164 167 166 164 162 155 139 136 130 124 125 123 123 123 121 122 124 122 122 115 117 116 117 116 113 108 107 104 106 107 107 109 107 106 106 106 58 112 182 174 172 166 157 150 150 151 144 152 158 162 165 169 160 156 143 134 127 120 118 120 118 115 116 118 119 117 116 112 112 111 113 112 110 104 101 103 105 107 106 105 105 102 102 97 32 68 116 109 103 103 96 90 91 90 86 91 92 98 99 101 95 96 87 80 78 71 72 70 68 68 71 68 68 67 68 68 67 67 69 66 64 60 61 64 63 63 64 64 63 63 61 43 11 