P2
48
60
255
15 31 42 50 55 59 62 63 66 66 67 68 71 73 73 74 74 73 75 74 75 73 73 74 74 74 73 74 75 76 76 76 75 77 76 76 74 74 74 71 70 71 71 69 67 66 61 35 25 55 72 84 91 98 102 103 107 108 110 114 115 117 120 121 120 121 120 120 120 117 117 119 119 118 118 119 121 122 120 120 122 123 124 120 120 118 115 114 115 115 115 113 109 103 101 59 26 60 75 88 94 99 101 103 105 106 104 107 108 114 117 120 121 120 116 118 119 118 117 118 120 119 118 116 118 118 114 116 118 119 124 116 114 113 111 112 112 113 113 112 110 105 101 59 29 65 79 87 95 99 101 101 102 102 101 101 104 111 115 115 114 113 112 118 119 117 115 115 119 116 117 112 114 112 107 107 111 114 114 110 106 104 105 106 106 106 108 110 110 105 99 60 30 68 82 92 97 98 97 95 96 96 95 92 94 101 104 102 102 102 104 108 112 112 109 110 113 113 113 110 109 106 99 92 94 87 77 71 71 68 76 85 91 95 103 105 105 105 100 59 30 70 83 90 96 95 87 78 74 70 66 64 65 70 78 86 86 90 97 103 105 107 106 107 113 108 106 106 105 99 74 64 55 51 51 54 59 63 65 64 66 70 84 102 104 103 100 59 32 71 84 91 93 82 68 64 62 66 69 68 61 50 51 56 63 71 87 96 102 101 105 107 109 106 102 101 100 82 56 46 42 40 50 70 87 99 111 110 92 73 68 87 100 100 99 60 33 75 85 89 84 69 71 84 93 98 92 84 78 64 45 43 47 52 68 88 98 101 103 106 108 105 102 98 94 70 53 45 39 47 67 80 89 100 112 123 121 113 91 73 86 98 97 59 35 75 82 83 75 90 103 108 107 103 95 83 75 70 58 44 46 49 53 74 94 100 103 104 107 103 99 97 86 59 54 47 48 62 72 79 85 91 99 105 109 114 113 100 76 81 94 58 39 75 79 73 88 110 108 103 100 93 85 76 70 65 66 56 48 50 53 71 91 97 101 106 110 107 95 91 78 59 60 57 58 63 72 82 88 93 95 99 102 106 110 108 95 78 82 57 39 75 67 76 107 108 102 98 93 93 94 91 82 71 65 62 61 58 57 66 88 99 107 107 110 107 102 87 70 66 67 64 69 80 90 97 99 102 103 103 102 100 102 105 106 96 76 51 40 73 76 97 110 102 96 94 95 99 103 102 98 89 78 70 64 63 64 69 87 100 104 110 113 111 101 91 77 71 66 75 86 88 90 93 95 95 101 97 97 96 97 98 100 103 88 49 41 73 85 105 105 96 92 93 93 91 86 81 78 78 78 73 70 63 66 74 89 101 109 112 112 110 102 93 79 70 71 81 79 74 76 78 79 82 87 91 92 89 90 93 96 99 96 56 42 76 90 106 99 94 91 79 73 70 75 78 71 73 65 60 63 63 62 71 88 102 111 116 117 114 108 98 84 68 75 72 66 70 74 67 64 61 68 69 70 77 79 82 89 93 95 58 42 77 93 103 95 89 74 68 66 60 50 46 42 48 56 63 58 57 57 67 85 103 113 118 120 118 110 98 84 63 65 63 61 52 48 43 45 49 38 43 56 62 65 75 80 85 91 58 44 82 95 98 89 75 64 60 47 47 40 46 33 62 43 48 59 64 58 66 85 103 115 119 122 119 109 98 83 64 74 60 51 53 65 45 35 32 41 48 45 48 55 64 74 80 88 57 47 85 94 92 82 65 53 42 57 73 54 43 31 40 54 71 49 56 71 76 84 102 115 119 123 119 107 99 90 87 71 52 59 78 80 51 39 35 50 68 65 51 57 66 73 79 86 58 47 86 94 91 77 64 56 57 62 78 68 49 44 51 76 82 71 59 67 81 87 104 116 121 122 118 106 98 87 98 78 73 73 83 88 76 55 54 64 81 73 82 85 86 84 89 97 62 47 88 93 85 80 81 86 82 79 78 81 73 76 78 83 82 80 82 86 83 91 107 116 120 120 119 110 102 87 98 105 97 89 91 89 82 81 88 83 84 98 107 108 107 100 110 114 70 48 90 93 92 90 97 102 103 101 101 97 86 86 90 96 91 91 93 87 90 97 111 115 119 121 121 112 104 102 104 102 102 99 103 108 108 109 109 114 115 115 112 114 116 110 117 120 73 51 95 99 95 97 104 104 105 108 111 109 108 103 101 97 95 95 97 94 95 103 113 117 118 123 122 116 106 107 111 105 104 103 98 98 105 107 112 117 122 119 97 111 116 115 118 120 74 55 100 100 98 99 102 101 98 98 99 98 98 95 98 100 103 105 101 97 100 106 114 116 119 121 119 113 108 106 110 112 112 111 107 105 103 101 106 109 110 112 114 118 117 118 119 119 74 59 101 102 104 106 107 106 109 106 102 102 104 106 108 110 111 108 103 100 104 107 110 116 117 117 112 110 110 107 109 113 112 114 116 115 116 118 117 118 120 123 122 122 121 122 121 117 73 61 103 105 108 112 112 114 115 117 114 119 118 115 114 113 110 105 102 103 104 107 111 117 117 117 114 110 106 106 108 112 113 114 116 116 117 120 121 125 125 127 125 123 124 123 119 116 71 61 104 107 110 114 116 117 117 117 118 117 117 114 112 110 111 106 105 103 103 110 116 119 119 118 115 110 107 108 110 111 114 114 115 117 118 119 120 122 124 125 125 123 123 121 118 115 70 65 106 107 111 115 116 118 118 119 117 116 115 114 111 111 111 108 104 103 105 113 117 121 121 117 113 108 107 106 109 114 118 119 116 117 119 119 119 120 121 125 125 124 122 120 115 112 69 68 107 108 109 113 115 117 117 118 118 118 115 115 113 112 111 107 101 103 105 112 118 119 119 115 113 109 106 103 104 109 116 118 118 118 119 120 119 120 122 122 126 123 120 115 111 111 67 70 109 109 110 112 114 115 116 117 115 116 115 116 114 112 109 97 97 104 106 108 113 115 122 118 112 107 105 103 102 99 110 117 119 120 120 121 122 121 123 123 120 121 119 112 109 108 67 73 113 112 113 110 111 112 114 116 117 116 116 115 115 109 95 80 97 108 109 105 110 107 124 119 110 107 104 101 99 91 92 107 115 119 120 122 122 126 128 128 122 118 116 111 109 107 66 76 115 114 111 107 109 110 112 115 117 117 117 114 109 101 82 74 100 115 111 100 97 98 102 106 105 103 101 101 100 91 81 92 104 112 116 118 123 127 129 130 123 118 112 108 107 105 63 83 119 116 111 107 107 108 110 112 113 115 114 108 102 88 70 75 104 104 103 90 84 87 92 93 95 93 92 95 99 91 76 83 95 102 108 111 117 122 124 123 120 117 110 106 104 102 62 88 127 116 113 109 107 106 104 109 109 109 108 101 92 76 63 76 93 83 87 84 74 75 77 78 78 77 76 81 87 86 71 73 85 92 99 104 107 114 115 114 113 111 107 104 99 99 61 90 133 120 115 109 107 104 102 105 104 100 98 93 84 68 61 69 79 55 37 61 69 65 65 62 51 37 34 61 76 77 68 67 76 85 92 99 102 107 108 105 106 105 104 103 100 97 59 85 138 123 117 111 106 103 99 99 99 97 93 87 76 64 62 71 70 53 40 52 70 66 63 62 59 50 41 49 64 75 79 73 72 80 89 95 99 100 101 102 102 101 102 100 97 96 58 77 134 122 118 113 106 101 98 96 95 92 87 80 70 64 72 80 76 63 65 78 76 65 61 71 84 86 78 70 80 92 95 89 77 76 83 89 94 96 98 98 98 96 95 99 96 95 58 71 134 124 122 115 107 100 96 94 92 88 83 76 67 68 83 86 85 84 86 89 82 71 65 76 90 99 99 98 99 100 99 100 93 79 81 84 89 93 94 95 94 95 97 97 95 92 58 61 132 125 126 117 106 98 93 89 88 84 79 72 71 81 88 90 92 93 94 92 90 88 84 87 95 105 106 106 103 104 106 108 105 94 81 80 85 88 92 92 94 92 94 94 93 93 57 54 135 131 125 116 110 97 90 85 82 80 79 75 78 88 92 93 96 97 99 102 102 100 95 94 99 107 110 110 107 108 108 111 110 103 93 84 82 85 87 89 91 92 92 91 90 92 58 46 128 132 127 123 112 95 88 83 81 79 79 80 88 93 97 99 101 103 102 104 105 102 98 99 103 107 113 111 109 109 109 110 111 110 103 92 86 84 84 88 89 91 91 90 92 91 57 45 123 136 129 124 112 96 88 83 81 79 82 85 93 96 100 102 103 103 103 103 104 102 99 101 103 105 108 110 109 109 109 106 103 110 109 99 90 86 84 85 88 89 90 90 92 91 57 41 119 134 128 126 112 98 87 84 81 84 87 93 96 97 101 104 104 100 95 85 85 92 97 91 84 80 83 92 102 106 107 103 98 103 104 102 95 92 87 88 88 88 89 90 91 91 56 37 118 138 138 123 112 99 89 86 85 87 91 96 94 97 101 102 93 78 63 56 55 59 63 62 59 57 58 61 70 82 95 100 97 96 97 100 99 94 91 90 89 90 90 90 91 91 55 34 116 141 143 126 110 100 90 89 89 91 94 92 90 94 96 83 59 49 46 47 47 48 50 52 52 53 51 54 53 53 62 82 89 89 93 97 99 96 95 92 92 90 91 90 90 90 55 32 114 145 143 131 118 104 94 93 92 92 97 91 85 86 73 51 45 43 37 39 39 39 39 44 45 47 49 49 48 46 46 49 70 78 91 95 100 99 100 97 96 94 93 91 90 89 55 24 112 150 146 140 122 106 100 97 97 96 100 94 76 63 43 40 46 50 56 60 64 64 61 65 69 71 72 75 72 67 59 44 44 59 82 96 103 103 104 101 98 96 92 90 90 90 57 22 112 157 151 145 130 112 104 103 101 99 96 84 60 49 65 72 73 70 71 69 72 72 71 73 75 78 76 78 78 80 84 90 89 68 63 85 97 105 108 105 99 96 92 90 91 90 56 21 113 167 157 155 132 122 111 107 105 101 92 74 56 82 94 95 95 87 84 83 75 75 77 80 82 88 90 95 99 101 98 98 97 97 82 76 94 104 109 106 100 95 91 91 92 92 56 18 113 178 162 157 140 126 124 111 106 101 90 80 86 94 96 95 96 93 89 87 82 78 78 78 81 86 93 95 97 98 97 98 102 103 104 100 97 104 105 103 98 93 90 90 91 93 58 16 106 190 170 161 146 132 135 116 108 105 98 96 97 97 95 95 94 90 87 85 82 81 80 80 81 85 88 91 91 96 100 101 104 104 105 107 103 103 102 98 93 91 89 88 91 93 59 15 93 199 180 163 143 136 146 120 105 104 101 99 98 98 96 96 95 93 90 90 90 87 85 84 88 91 92 94 98 100 102 103 104 103 103 104 101 97 96 94 90 88 86 87 92 94 57 16 68 201 188 170 146 132 143 126 104 98 97 96 99 99 96 99 99 99 96 99 97 97 97 99 100 101 103 105 103 102 104 102 102 102 101 100 100 96 93 88 86 85 86 88 93 94 58 16 39 191 198 180 148 130 137 123 100 93 95 97 98 99 100 100 100 102 101 102 102 102 102 104 104 106 107 108 104 106 105 105 103 101 100 100 98 95 91 87 84 86 87 90 92 93 58 15 31 160 210 181 153 130 128 123 104 93 96 99 101 102 102 100 102 103 102 103 102 102 103 104 105 107 107 108 108 107 105 105 103 101 100 97 95 91 88 84 83 85 90 91 92 93 57 16 28 102 217 189 166 131 119 119 108 100 101 108 109 106 103 101 103 103 101 102 103 105 103 104 105 107 104 105 105 106 106 103 102 101 100 95 91 86 84 83 85 88 91 92 91 93 58 19 28 49 199 200 167 136 119 114 113 108 111 118 118 109 105 101 100 100 100 104 103 105 103 103 104 107 107 106 103 102 104 101 98 100 99 95 91 88 84 85 88 90 92 91 90 91 56 20 32 34 142 209 182 137 116 113 116 114 122 133 126 111 107 103 99 98 98 100 103 103 101 103 104 107 108 108 104 102 101 101 98 96 97 95 93 89 86 87 89 91 92 90 90 88 53 21 35 37 89 200 197 151 120 114 115 121 124 142 136 121 110 102 98 97 95 97 97 99 100 101 99 102 101 101 98 98 96 98 96 94 94 90 88 87 87 90 91 90 92 90 88 86 52 25 41 47 65 157 204 171 126 112 113 116 128 141 146 130 113 104 98 94 92 91 91 91 92 91 92 93 91 94 94 93 93 95 95 93 88 84 83 83 84 89 88 88 88 86 84 82 50 41 59 65 66 142 196 182 140 117 107 110 123 137 149 141 115 105 95 91 89 86 85 83 83 85 82 84 86 87 89 87 89 92 88 86 84 79 78 81 81 83 85 85 85 82 81 78 48 43 45 43 43 91 113 117 95 75 65 62 69 75 90 89 72 64 57 55 52 51 51 49 46 47 48 47 50 52 50 50 52 54 52 50 50 47 47 48 49 50 51 51 50 49 47 47 30 