P2
48
60
255
40 68 64 70 75 75 71 72 76 80 82 83 90 90 89 89 86 87 87 89 94 98 91 88 88 94 94 97 95 92 94 90 94 91 87 84 75 67 70 71 70 68 69 63 62 58 57 34 68 108 106 117 118 118 117 124 123 129 135 142 154 156 154 154 158 153 148 143 146 153 148 146 150 150 151 158 153 152 151 149 150 147 146 141 132 122 104 109 109 112 108 103 95 95 88 52 66 108 109 113 121 119 120 124 133 138 144 150 158 159 155 158 161 156 153 148 154 158 159 151 151 153 155 153 154 158 160 155 153 156 158 146 138 128 119 106 105 112 106 103 100 94 87 53 67 112 108 114 125 122 126 136 140 146 151 149 158 158 155 157 155 153 149 144 154 160 160 152 151 151 154 156 158 154 155 156 153 152 145 134 135 129 124 117 110 116 109 106 104 97 88 54 62 108 109 117 121 124 126 138 150 148 152 159 162 161 159 160 157 157 153 151 149 155 156 153 154 135 148 153 151 143 152 148 144 141 128 134 146 132 128 120 119 122 101 108 105 105 91 51 64 112 109 116 123 126 127 139 151 147 144 150 156 150 147 155 156 155 148 147 150 158 154 156 152 141 143 150 140 138 136 136 130 134 125 128 131 132 138 129 132 121 113 108 106 104 85 45 60 113 108 121 127 129 137 136 140 141 146 142 145 149 142 144 150 151 153 148 151 157 154 149 140 142 144 144 146 147 133 114 107 99 96 103 108 118 136 142 139 126 118 113 107 104 90 43 62 116 112 124 133 139 137 131 132 132 125 116 114 115 123 140 143 144 148 148 151 154 154 147 142 146 145 141 133 126 117 99 91 82 80 78 89 107 118 130 143 129 116 107 106 102 95 45 64 113 114 124 123 127 127 118 124 111 94 84 80 80 96 116 132 134 138 145 151 153 143 147 146 144 142 133 119 110 103 83 79 81 80 86 99 106 108 116 123 122 116 111 108 97 99 50 67 111 118 122 110 109 116 111 101 92 82 76 75 68 74 94 103 114 128 140 141 146 146 147 148 139 130 125 106 93 88 80 81 83 94 107 119 118 109 105 102 100 108 106 104 99 99 59 65 108 115 115 104 101 104 108 124 117 109 99 91 79 75 86 90 97 116 129 144 148 143 148 150 144 133 111 97 84 81 86 97 113 131 135 151 147 129 124 103 96 95 101 101 105 99 62 64 104 108 106 101 111 122 138 146 153 153 155 145 118 94 82 79 91 112 131 156 159 155 159 158 151 134 108 90 86 92 101 121 144 154 150 152 154 147 135 128 107 99 100 102 107 98 63 62 100 99 105 115 127 138 147 147 141 132 130 135 135 124 103 84 84 109 136 155 166 164 166 168 158 129 104 92 91 96 114 117 95 89 93 94 100 109 119 122 114 105 97 99 106 102 62 62 106 99 104 121 134 136 114 77 61 58 63 72 76 97 107 97 88 96 125 151 168 167 169 167 150 123 103 95 83 87 92 71 85 68 52 47 53 74 91 92 102 107 99 96 103 103 60 64 100 102 109 120 114 84 52 46 41 38 34 46 69 75 78 90 90 105 115 145 165 164 167 166 144 115 106 96 79 78 77 89 69 64 83 37 60 51 56 76 78 94 97 101 103 103 64 61 94 100 114 106 67 47 50 70 48 50 56 62 72 74 97 89 87 112 121 134 159 164 164 159 135 111 104 93 79 90 93 77 112 80 43 33 52 55 79 54 67 77 88 91 97 101 64 61 101 103 99 81 47 52 77 93 47 38 39 59 114 86 77 106 108 128 128 127 141 152 161 152 127 110 107 106 106 106 100 96 141 107 55 43 49 69 101 97 80 71 81 92 93 100 64 63 103 94 89 64 71 107 110 114 69 52 55 86 136 125 125 114 135 124 127 122 139 150 146 141 121 116 106 107 121 119 120 126 149 148 100 77 93 117 123 109 88 82 85 94 91 95 63 66 108 103 86 83 97 100 115 131 127 117 116 132 139 128 130 137 129 120 125 125 142 154 149 140 118 117 114 104 117 133 128 128 128 123 120 119 120 112 106 104 101 107 91 90 94 97 63 66 99 96 92 102 113 117 114 110 112 116 115 121 125 126 125 124 126 129 131 125 147 153 146 138 111 115 120 109 113 122 123 121 121 122 130 133 132 128 127 118 114 114 106 97 94 98 66 63 102 99 100 112 115 124 128 130 133 136 129 127 126 120 112 116 126 134 129 127 148 155 145 129 106 115 122 120 111 122 125 122 124 125 130 132 133 134 129 118 119 117 109 110 108 105 63 68 114 110 110 112 112 123 125 127 130 130 125 121 115 110 113 124 123 128 128 126 146 154 143 140 113 116 124 126 122 121 129 125 130 127 127 123 119 117 115 121 113 107 111 117 116 116 70 70 119 120 115 117 117 118 122 121 121 116 115 114 111 112 127 124 119 130 127 133 153 157 155 146 122 116 123 124 127 132 130 131 124 124 127 134 138 140 135 123 123 116 116 123 124 121 73 72 121 127 122 119 129 133 135 129 129 121 121 119 122 130 138 131 123 127 124 138 160 162 156 148 133 118 117 122 124 134 144 142 132 133 131 131 135 142 139 140 129 124 131 134 132 127 74 74 121 119 128 121 136 135 130 128 129 128 134 138 146 150 145 133 126 126 135 146 159 164 157 150 142 131 117 117 122 135 152 158 153 144 142 142 146 141 136 139 132 139 137 136 132 122 71 73 122 123 123 131 138 134 137 144 141 140 146 152 155 153 146 132 124 127 137 149 159 162 160 153 149 141 126 113 123 138 155 156 161 155 148 143 148 143 150 147 149 141 134 135 128 116 70 72 124 120 121 132 143 154 147 146 138 140 146 158 156 158 145 126 123 134 148 153 158 161 158 155 150 144 133 113 113 126 145 159 163 160 156 149 137 136 151 147 142 139 132 134 120 116 69 72 119 122 116 129 142 148 143 141 144 143 152 156 157 149 124 116 124 135 154 166 157 157 159 160 160 153 138 118 107 102 125 150 155 161 162 155 138 137 141 134 133 128 127 125 116 113 68 70 120 122 123 126 121 129 139 146 150 149 157 153 148 119 95 118 123 135 155 178 163 161 164 166 165 163 142 122 113 102 94 128 149 160 161 155 146 136 130 126 122 120 120 115 111 108 66 71 116 118 122 123 124 133 142 146 151 151 157 146 124 92 95 121 122 133 145 156 153 154 157 159 161 159 139 122 114 105 89 100 136 151 153 158 147 141 135 124 117 110 111 107 109 107 64 69 113 116 121 122 127 134 141 146 149 154 153 132 101 76 104 123 116 121 133 145 140 140 143 149 148 144 130 113 106 105 91 91 99 134 146 152 148 143 135 119 112 108 110 109 110 102 64 68 112 111 117 118 124 131 143 147 151 149 139 110 72 84 111 120 111 109 119 131 135 134 132 135 134 127 116 102 100 100 83 89 76 105 135 145 148 144 132 120 114 109 105 105 105 102 64 69 111 111 111 117 120 129 141 148 150 144 120 84 56 106 122 107 103 93 100 116 123 120 119 120 118 112 98 88 93 98 105 105 89 78 113 138 145 145 132 121 112 108 107 110 104 103 63 68 111 113 115 116 121 129 142 142 143 129 100 61 69 122 130 112 76 54 63 97 106 109 104 104 99 93 64 65 83 109 112 114 107 76 92 126 141 138 135 121 113 108 110 110 105 103 64 68 113 112 113 115 119 129 137 139 134 118 80 50 102 127 130 129 99 59 58 65 87 89 84 80 81 69 52 68 100 109 110 114 114 99 73 111 132 137 132 125 115 109 111 110 108 107 65 68 112 112 112 112 119 127 133 133 127 104 65 71 122 130 129 125 120 114 98 84 71 70 68 67 79 87 94 98 99 108 110 113 115 113 79 94 124 136 132 123 115 110 110 109 109 103 65 69 112 116 110 111 119 124 130 125 114 89 55 107 127 128 128 123 116 119 110 89 75 59 58 73 90 99 100 103 103 107 108 109 110 111 100 76 110 124 128 118 112 110 106 107 107 105 63 68 110 114 112 112 116 121 122 115 100 79 67 119 124 126 124 124 122 121 118 113 105 91 98 84 88 100 97 103 105 103 104 105 105 112 112 81 100 121 125 119 112 108 103 105 106 103 63 68 109 110 111 109 112 117 115 113 99 68 94 122 120 123 127 126 118 124 128 128 124 112 119 110 97 94 94 104 105 104 101 104 105 110 109 96 89 116 118 117 108 105 102 105 106 104 63 67 110 110 110 106 107 110 110 109 95 63 113 119 115 115 121 124 115 118 128 127 128 120 128 127 126 107 104 105 106 101 98 97 101 103 105 101 83 113 120 113 107 105 101 105 105 104 65 67 109 109 109 105 104 104 111 109 88 82 118 114 109 107 109 109 108 118 134 140 147 142 142 153 149 138 125 112 107 102 96 94 94 99 106 108 87 109 116 114 105 105 100 105 103 104 65 68 107 108 107 105 106 104 111 107 77 99 111 110 107 96 104 112 122 131 136 137 136 138 145 145 135 124 125 116 108 114 107 94 93 96 107 110 97 102 120 116 109 104 101 103 102 104 63 68 108 107 107 107 107 109 119 110 70 102 104 104 97 96 108 102 98 91 88 83 88 91 94 95 88 82 78 77 79 86 99 97 89 94 98 102 102 100 123 120 107 102 101 102 104 103 64 67 108 105 106 107 106 114 125 119 79 105 93 85 70 62 73 77 83 95 99 108 114 118 113 114 119 114 110 109 106 98 84 72 63 84 97 99 101 103 126 114 107 103 103 103 103 104 63 65 108 108 109 107 107 113 122 120 97 106 97 90 91 107 108 112 108 110 122 133 136 136 131 136 134 127 127 122 113 108 103 102 98 72 80 96 103 105 133 117 107 102 102 105 104 102 62 64 107 106 108 111 107 110 121 123 113 111 99 98 117 120 120 119 124 122 120 126 127 125 120 126 122 121 120 117 113 112 112 106 110 102 88 91 105 111 133 119 102 102 103 103 106 104 63 64 105 107 106 110 108 108 118 125 118 99 99 117 123 115 116 119 118 115 108 101 90 81 88 90 86 86 92 97 99 100 105 111 112 113 102 91 97 121 134 120 102 98 100 103 104 105 64 66 104 106 110 111 109 106 113 118 111 91 107 118 122 114 117 114 106 99 92 79 62 52 51 52 49 55 68 78 85 99 108 110 112 109 104 105 95 125 126 113 100 98 99 103 105 106 64 87 104 106 110 111 107 103 103 106 103 87 108 114 113 113 116 115 111 103 93 84 83 85 83 79 76 75 77 87 102 112 122 111 110 109 108 111 102 118 120 106 98 99 101 103 105 106 66 121 114 105 107 107 105 101 97 96 86 90 104 108 109 105 113 117 121 118 116 118 120 116 113 111 110 113 113 110 113 120 126 106 113 105 109 104 97 102 105 98 99 97 100 101 105 107 68 133 161 106 105 106 108 102 95 85 74 97 106 106 113 113 116 121 125 128 130 137 137 136 135 131 130 129 128 121 120 118 113 104 112 108 114 104 97 89 94 95 97 96 98 102 106 108 67 132 193 108 102 103 102 98 91 76 74 94 105 112 115 120 125 127 130 131 136 139 143 143 140 139 139 132 132 133 125 129 127 122 115 118 115 106 104 91 91 89 94 92 98 105 106 106 63 133 207 116 105 102 99 96 88 78 84 99 110 114 115 122 129 130 134 133 134 144 147 148 143 142 140 137 136 131 127 130 133 132 124 117 114 106 107 99 89 90 90 90 97 106 107 103 63 132 212 134 106 104 99 97 91 89 93 104 109 116 115 120 126 130 132 132 138 144 146 142 136 136 136 137 137 133 128 124 131 133 120 118 108 105 101 98 92 91 89 93 100 107 102 98 62 132 214 161 104 108 102 96 95 91 97 103 106 112 115 118 122 128 122 126 131 141 139 130 126 127 128 128 134 130 124 122 119 123 116 115 104 102 99 95 92 92 92 94 103 106 97 97 63 132 214 187 103 106 105 97 93 92 98 102 104 108 110 115 119 116 118 121 123 132 128 124 118 118 123 124 126 120 115 115 114 113 112 113 102 98 96 96 93 90 93 98 106 100 96 98 81 132 214 205 112 102 108 104 94 93 96 101 100 103 105 109 113 114 116 114 117 115 115 114 115 114 115 111 111 110 104 104 106 107 110 104 95 96 95 99 93 90 94 101 105 95 96 105 105 131 214 212 137 100 108 108 99 92 97 97 97 99 102 105 106 110 110 105 105 102 104 102 103 101 102 101 98 102 99 98 99 99 101 97 92 97 95 96 87 91 97 104 103 95 97 123 117 131 213 214 169 103 106 108 104 98 98 98 90 95 99 102 101 99 101 95 91 89 88 87 90 86 86 84 82 83 84 86 90 91 95 94 96 97 94 88 89 93 101 102 100 96 99 159 119 81 133 130 120 69 64 67 67 62 61 60 54 54 61 62 61 58 57 55 52 50 48 45 46 46 44 44 44 47 47 50 50 53 56 59 61 58 54 52 57 60 63 62 59 59 65 116 73 