P2
48
60
255
20 36 40 46 54 63 66 70 72 75 77 77 79 82 83 87 87 90 88 86 84 86 87 86 88 87 90 90 90 89 90 88 87 87 84 81 79 79 79 78 78 77 77 76 71 68 62 34 37 65 72 83 98 108 113 116 119 122 123 124 126 129 133 137 138 140 140 141 139 138 140 140 142 141 143 143 140 142 142 141 139 136 132 128 128 126 126 127 125 125 123 122 116 112 105 57 41 71 82 99 109 115 120 123 123 125 126 126 127 129 132 134 136 136 138 136 136 137 138 139 138 139 139 136 134 132 134 134 137 136 134 131 128 126 127 127 123 125 121 118 117 113 105 61 46 85 103 115 120 124 124 123 126 127 128 128 129 128 135 135 133 135 136 138 136 134 138 138 135 134 136 135 136 135 136 138 139 140 136 134 132 126 126 127 126 124 120 117 116 114 107 63 61 110 123 129 133 133 133 130 126 127 127 128 132 138 139 140 138 139 140 140 140 142 142 141 139 137 144 141 142 142 142 141 139 140 138 136 132 129 127 128 128 124 119 116 115 115 111 65 76 128 137 146 140 134 125 119 122 124 127 131 137 138 140 144 142 142 145 146 148 143 144 139 142 147 157 149 145 145 146 144 143 145 143 141 136 129 126 122 117 113 111 114 116 114 112 66 87 141 145 146 129 109 109 104 103 108 110 106 114 129 130 133 138 139 139 146 146 146 147 146 142 149 159 149 141 142 142 140 138 140 143 139 133 129 118 108 100 89 86 92 108 113 113 69 88 142 144 128 104 91 79 77 73 79 75 68 64 63 72 79 94 118 130 135 141 140 139 145 144 144 139 136 133 133 120 113 93 87 80 82 83 86 85 85 82 78 73 71 76 96 109 70 91 137 115 96 85 65 63 61 60 52 50 52 52 50 52 59 67 81 108 119 129 132 133 136 138 139 130 126 121 107 97 77 66 57 50 52 54 58 60 64 66 70 74 72 66 71 92 68 87 121 106 103 89 79 73 70 61 54 54 55 63 63 63 65 68 77 92 107 115 126 131 131 133 129 119 112 108 93 80 74 73 65 63 60 59 58 61 70 80 82 84 81 79 73 74 55 81 136 132 130 112 106 102 96 96 87 76 73 73 70 72 74 78 77 83 94 104 111 120 124 125 118 106 102 96 84 81 75 74 72 71 70 75 80 96 102 101 96 100 102 101 99 93 54 100 167 162 134 118 109 115 121 124 123 117 109 100 88 83 80 79 79 80 88 96 105 116 119 122 114 100 94 87 83 80 78 80 83 88 97 107 116 123 124 116 108 102 108 110 113 107 65 102 160 158 135 129 126 130 131 136 136 129 128 127 122 111 94 84 81 80 84 92 105 114 122 124 121 108 93 89 87 87 90 98 108 117 126 128 131 139 140 130 126 117 112 112 114 114 71 105 172 150 142 148 142 131 125 126 128 123 120 120 115 118 118 103 94 92 92 99 113 121 128 135 132 119 104 98 100 102 107 111 109 111 120 125 128 131 130 128 128 125 118 116 118 120 76 101 155 149 160 156 133 123 122 118 107 95 92 97 100 104 105 110 102 101 106 113 122 132 140 145 136 127 115 113 108 106 103 99 97 88 76 68 75 92 108 117 121 125 123 118 118 122 77 95 148 153 157 139 113 88 69 54 41 37 42 44 50 59 84 100 102 103 111 119 129 139 149 148 142 130 123 118 108 102 98 81 57 47 43 38 45 41 52 57 80 105 119 122 119 122 77 89 135 137 117 83 55 53 87 85 48 37 37 48 89 78 50 85 110 110 110 121 128 137 147 147 140 129 121 118 117 110 91 52 76 79 46 38 40 53 93 82 52 54 82 108 118 121 77 84 122 101 82 82 97 98 98 99 66 51 52 70 108 101 76 74 117 120 115 119 127 135 140 139 137 128 121 121 130 120 84 75 100 107 69 53 55 79 111 99 91 86 79 84 103 121 78 84 127 117 123 126 129 126 114 109 111 101 103 104 107 111 113 114 119 122 121 119 128 134 136 138 137 125 119 120 130 121 103 108 106 104 102 102 109 114 113 117 117 113 113 114 114 122 75 86 135 132 142 136 133 131 130 131 131 126 122 123 124 124 124 125 129 122 120 118 125 134 136 134 132 122 115 117 124 132 122 116 116 117 118 120 123 132 133 133 130 125 126 128 123 129 81 85 136 134 139 135 134 130 130 131 128 124 123 126 126 127 130 131 128 125 125 120 129 136 134 134 134 124 120 118 115 131 131 121 117 120 125 131 132 138 140 138 137 136 136 134 130 129 81 87 139 137 140 140 141 141 141 140 136 135 132 134 133 133 138 136 132 131 129 124 133 138 135 136 136 129 126 125 125 126 139 138 127 122 123 127 129 135 142 144 144 141 141 137 134 131 82 91 142 145 146 148 149 150 149 147 141 136 137 140 142 142 142 137 134 135 127 129 134 137 136 138 137 131 126 127 129 130 137 150 147 139 134 136 136 143 148 151 152 148 145 143 140 136 84 92 148 146 150 152 154 155 153 147 142 141 141 144 146 148 143 137 135 137 129 133 136 138 140 141 138 132 127 126 128 129 137 150 152 149 146 141 143 144 148 154 157 155 154 148 144 137 87 94 147 146 151 154 154 155 153 149 147 148 147 146 148 145 146 138 133 133 127 136 140 140 140 142 139 134 126 122 127 130 136 146 149 149 149 149 149 148 150 152 154 153 154 148 143 138 85 93 146 144 147 153 155 153 152 149 150 147 147 148 146 142 140 136 128 127 132 136 137 141 143 144 142 140 132 125 124 127 138 144 143 146 146 149 149 149 148 149 147 148 149 145 141 133 82 91 146 143 145 151 152 150 151 148 150 149 149 150 147 146 141 130 124 126 133 142 142 145 148 148 150 150 138 130 122 122 133 142 144 147 148 147 149 143 148 148 148 148 143 139 134 131 80 94 146 143 144 148 150 148 148 150 153 154 153 150 144 142 135 121 128 135 139 146 144 149 149 146 156 161 144 137 129 127 126 134 140 144 144 147 152 151 150 147 147 144 142 136 131 130 79 97 151 144 146 147 149 149 149 152 152 155 153 149 144 137 125 133 139 139 140 133 128 127 128 126 129 129 130 133 138 137 133 127 133 139 146 149 150 152 153 143 145 140 139 136 128 126 79 101 156 147 140 143 141 139 147 151 154 151 148 141 136 121 121 153 135 127 122 108 104 107 110 111 109 108 108 114 126 129 130 125 116 130 139 147 141 143 149 145 145 141 134 131 128 123 77 104 152 150 143 137 135 139 144 145 145 143 139 134 116 102 122 137 115 99 84 76 81 89 93 94 94 93 80 68 76 97 114 120 108 116 130 142 145 139 142 141 142 140 134 126 123 121 75 100 153 146 139 133 133 134 141 141 132 131 132 118 100 100 108 102 87 65 31 31 36 60 69 70 76 63 35 28 30 61 90 106 110 107 120 134 142 145 140 138 136 135 129 126 125 120 73 94 152 145 135 134 132 132 134 134 127 129 127 112 102 107 98 87 76 61 37 41 51 54 64 65 76 86 84 71 63 71 80 94 108 111 117 127 134 138 136 133 132 130 127 125 123 119 71 99 155 151 140 130 127 128 129 130 128 123 126 115 111 107 103 82 69 65 65 77 82 84 86 81 89 99 104 101 91 79 83 104 114 116 119 128 133 133 132 131 129 126 121 119 120 118 71 99 159 154 140 128 124 125 125 124 127 127 128 125 122 122 116 111 99 92 93 97 100 104 102 100 101 109 108 108 110 110 115 117 120 123 128 128 133 133 129 129 128 125 120 117 117 115 73 103 168 158 138 127 122 124 126 122 129 132 132 134 136 134 129 125 121 114 106 102 100 102 101 96 99 102 103 108 110 114 119 123 127 129 134 133 133 133 128 128 126 124 121 117 114 116 74 103 177 147 131 123 121 126 124 127 127 128 127 133 134 132 128 122 117 115 109 106 105 104 101 103 100 107 108 108 111 113 115 123 123 126 130 134 134 130 127 126 125 122 119 120 117 120 73 104 163 131 132 130 126 125 127 128 125 129 126 127 127 125 119 117 118 114 108 106 111 107 105 102 100 111 111 101 103 107 111 113 113 119 120 125 134 130 126 123 120 121 121 122 121 121 74 99 152 144 134 139 132 131 126 126 124 121 118 118 119 115 118 114 114 113 115 113 119 114 106 104 105 119 117 109 108 109 103 103 108 108 114 112 113 119 123 118 114 121 121 121 119 120 73 98 156 147 146 140 135 132 125 124 119 118 112 112 109 109 106 104 113 119 120 118 111 113 118 120 120 118 113 119 120 114 99 99 99 103 106 111 111 118 122 119 116 118 120 121 121 116 72 93 149 149 150 140 135 131 129 126 108 112 107 103 104 102 98 106 111 106 97 94 95 96 108 117 105 91 94 96 98 107 105 104 97 100 103 110 104 114 117 119 117 116 119 119 120 119 74 94 147 146 149 137 137 131 127 121 108 103 98 94 91 91 92 91 84 81 77 87 88 84 90 94 93 89 90 84 80 81 87 88 89 92 94 98 101 108 114 118 117 115 117 116 119 121 74 92 143 148 146 138 135 128 120 113 99 92 86 75 67 67 66 62 64 70 65 73 76 73 76 83 81 76 70 71 68 66 65 65 65 68 74 87 90 104 109 116 116 115 113 114 120 122 75 90 140 140 140 137 130 120 115 106 91 81 66 53 45 47 56 59 75 93 88 96 94 85 77 87 100 99 91 99 73 60 57 44 46 52 53 73 89 99 107 113 114 115 111 113 119 121 76 88 132 135 136 132 128 120 109 99 89 80 81 85 94 88 91 100 105 103 98 93 92 90 81 87 90 89 94 96 99 95 87 82 97 91 77 77 87 97 106 112 112 110 111 115 119 118 75 88 129 132 130 129 127 122 111 97 87 87 96 106 108 105 105 102 111 124 127 128 124 126 117 122 125 126 125 113 102 102 101 107 110 107 98 93 93 99 109 112 109 109 111 116 117 118 74 88 133 125 124 127 127 122 109 97 96 101 105 114 112 112 111 107 103 105 108 113 113 115 121 118 119 115 111 106 102 105 106 112 119 114 112 102 96 103 108 113 110 109 109 113 116 116 73 85 130 121 120 122 120 118 106 96 95 106 114 117 112 111 108 106 105 105 107 111 110 112 116 112 111 112 110 109 106 106 111 114 118 116 109 102 95 103 107 109 109 108 111 114 113 116 71 89 130 119 118 119 116 115 106 103 103 105 116 115 112 108 103 101 94 91 87 86 82 80 83 84 80 87 92 95 98 104 114 116 116 113 102 98 93 98 107 108 107 107 109 111 114 114 71 92 134 122 114 115 113 112 114 110 104 107 112 115 113 108 105 95 84 77 71 64 60 56 61 65 67 73 80 87 98 110 113 115 114 110 97 98 99 100 105 106 106 107 109 111 115 115 72 97 145 129 113 108 112 118 126 120 111 103 110 114 112 112 110 106 96 87 78 76 77 79 84 80 82 87 94 103 111 116 115 115 113 109 103 106 102 101 101 104 104 106 109 112 114 117 105 116 154 137 121 108 120 127 135 130 117 112 118 116 115 117 118 113 111 111 111 109 103 105 106 106 108 111 115 118 116 118 116 107 110 109 109 109 108 107 104 106 108 106 109 114 114 190 152 129 178 150 134 122 123 130 139 131 123 118 120 121 122 121 127 129 128 130 129 122 121 118 117 122 124 132 131 128 126 122 116 117 119 114 108 109 110 109 106 106 107 108 110 116 196 246 153 126 185 178 143 129 125 129 138 137 129 134 133 133 131 130 133 131 133 132 134 132 130 124 127 131 131 134 132 128 127 124 117 119 116 113 109 109 111 106 107 106 108 109 114 138 243 247 153 130 190 184 157 137 130 128 134 140 138 139 134 138 132 126 123 121 124 118 118 122 120 114 118 120 124 119 123 122 115 114 114 115 115 112 109 109 109 109 109 109 107 109 116 154 246 247 153 134 190 179 163 149 132 124 131 133 139 138 137 130 128 117 114 114 108 107 106 108 104 103 93 98 102 109 114 110 109 111 110 110 112 113 108 109 109 109 104 104 105 111 118 166 246 247 153 134 187 170 163 150 142 129 123 129 133 136 130 123 112 102 102 100 96 94 91 91 96 96 87 91 93 96 102 97 101 102 108 106 108 108 105 100 104 99 100 104 106 114 119 179 246 247 152 136 186 165 158 148 145 137 128 119 121 124 127 115 106 94 91 84 83 82 86 84 87 90 87 84 87 89 86 85 84 92 99 100 101 102 101 98 95 98 101 103 109 115 122 190 247 247 153 138 185 161 151 145 142 139 132 126 119 118 116 113 108 91 83 79 77 79 79 78 77 79 80 77 75 76 79 78 83 87 90 93 92 94 93 93 95 97 100 105 111 117 124 204 247 247 153 86 115 98 91 89 86 87 84 79 71 71 74 68 63 60 50 47 46 44 45 45 44 45 45 44 44 43 45 47 50 51 49 53 55 56 57 58 60 60 64 67 70 74 78 130 152 153 95 