P2
48
60
255
27 46 47 50 51 53 56 58 58 60 61 61 60 62 65 68 70 72 72 73 73 72 73 72 72 70 73 73 75 76 76 71 83 84 82 82 82 83 81 79 77 77 76 75 74 72 70 43 44 73 77 80 83 86 91 94 96 96 97 96 100 104 107 111 116 118 121 120 118 118 118 116 115 115 118 121 122 125 126 128 133 135 134 135 134 134 132 128 126 123 120 119 119 116 112 69 45 73 76 79 81 86 90 94 94 93 95 97 101 104 108 113 119 122 121 122 121 120 120 118 116 117 118 122 123 126 126 130 132 136 137 136 137 138 134 129 126 125 122 118 116 114 112 69 45 73 75 77 80 84 89 93 95 97 100 102 105 106 111 114 117 119 119 124 124 122 122 120 118 121 122 125 126 124 125 128 128 133 136 137 136 138 138 133 129 129 124 117 116 114 110 67 44 72 74 75 79 84 90 94 97 101 104 106 109 110 113 114 116 117 119 122 123 123 123 121 118 118 122 122 121 124 124 128 128 131 135 134 133 135 137 132 130 130 126 120 115 116 111 68 44 71 73 74 77 87 93 95 101 103 106 108 110 112 113 114 113 114 115 118 120 117 116 117 112 109 113 114 112 116 120 122 122 125 125 123 122 120 124 121 117 123 125 124 117 112 113 69 44 72 74 73 79 88 94 95 94 95 99 106 106 109 110 109 109 109 110 109 111 110 106 106 105 106 107 106 106 105 106 104 97 90 89 92 98 98 102 99 101 107 118 119 118 113 111 70 45 74 74 77 81 86 83 83 79 82 85 88 89 94 97 97 101 102 102 99 100 103 101 98 98 99 99 97 89 85 81 70 62 62 57 64 69 77 86 93 94 93 102 108 114 112 113 70 45 74 74 76 79 78 74 71 67 68 69 67 67 66 67 74 83 91 93 91 93 95 95 92 93 94 93 86 79 71 58 54 61 61 57 61 64 70 77 87 91 95 91 93 100 107 111 69 44 75 73 73 72 69 70 68 66 66 56 53 52 51 50 49 54 67 75 78 82 87 91 88 92 91 87 79 70 66 64 67 71 76 83 90 93 94 95 96 98 95 93 93 95 101 107 69 45 74 72 70 65 65 67 67 68 72 79 83 79 74 65 57 55 56 61 65 73 80 83 84 85 87 81 73 65 63 61 61 62 66 67 66 65 68 73 64 65 66 69 78 86 90 98 66 44 72 71 64 63 64 63 65 66 66 67 65 63 59 54 49 47 47 47 45 46 47 47 47 47 46 46 35 32 34 41 45 49 54 57 63 70 77 81 80 77 74 69 62 57 53 67 54 43 68 57 42 35 36 40 45 48 51 54 56 58 60 62 61 56 45 30 20 52 73 81 84 91 94 86 24 44 67 70 71 72 71 68 68 73 83 92 99 101 102 99 96 94 95 89 40 27 38 51 63 68 71 77 81 81 80 73 65 62 67 77 82 81 73 63 47 36 74 81 82 83 84 55 43 72 70 68 63 45 33 28 34 34 32 43 59 81 94 99 100 98 96 102 69 40 73 71 70 72 75 74 64 50 39 34 33 34 34 34 51 71 73 70 64 30 56 64 65 65 68 30 65 71 65 62 43 39 37 28 31 45 32 45 36 44 61 84 100 102 100 104 68 46 75 73 72 72 69 56 40 35 42 34 34 36 45 38 39 50 67 65 61 42 33 46 51 44 45 43 70 70 65 57 36 56 42 29 27 30 41 69 53 49 53 65 89 98 102 110 70 48 77 75 73 70 55 42 37 41 55 38 30 27 29 48 52 36 66 67 62 42 19 30 36 37 25 26 74 75 68 61 55 59 56 38 38 44 71 77 77 78 81 71 76 94 106 114 72 49 80 78 71 60 51 51 53 61 63 56 38 36 44 68 63 55 68 72 69 40 30 55 60 61 54 24 76 81 76 73 67 68 70 71 74 80 85 89 92 91 93 93 93 97 111 118 74 51 83 79 68 62 64 68 69 70 70 72 70 70 72 75 72 71 77 80 72 35 41 65 80 76 58 24 74 85 87 83 77 74 74 77 82 87 93 97 99 97 102 105 110 111 115 119 73 51 84 78 74 74 77 80 83 86 86 85 84 81 78 74 75 77 82 82 74 29 52 93 106 105 80 32 68 90 94 93 86 82 82 83 83 83 84 85 86 96 101 104 111 114 113 110 66 51 82 79 78 78 79 83 84 85 84 84 82 81 78 78 81 87 85 80 71 25 63 97 107 109 99 44 54 90 94 97 91 89 87 88 90 91 92 94 94 98 100 105 109 109 105 99 59 48 78 81 82 82 81 80 79 77 78 82 84 84 83 86 88 91 87 78 58 29 75 98 111 115 109 69 36 84 98 97 93 92 94 92 92 90 92 96 100 102 106 109 109 111 100 92 57 44 76 83 86 87 84 82 82 80 83 85 87 85 86 94 95 92 85 76 38 48 87 103 114 119 113 95 36 73 95 96 95 96 96 95 94 92 94 96 102 105 109 110 109 109 105 96 61 41 75 84 87 88 88 87 87 85 85 84 85 84 92 95 94 90 81 66 29 69 96 110 120 122 114 109 67 52 87 92 93 96 98 98 98 98 99 101 106 110 109 113 112 109 104 101 64 41 74 80 86 88 91 91 90 90 89 89 89 93 95 94 91 83 72 44 49 81 102 112 121 125 123 113 99 41 75 91 94 95 99 102 101 106 105 105 105 108 109 110 110 109 104 102 65 42 73 79 83 88 91 92 94 93 94 95 96 97 97 98 91 76 63 30 71 92 108 116 121 124 127 115 105 75 49 84 92 96 100 103 107 108 111 110 115 116 110 108 106 105 100 98 63 44 75 78 80 84 86 89 92 93 96 98 97 98 98 96 86 72 37 55 81 100 113 120 121 122 122 119 111 95 45 68 89 93 99 103 105 108 112 115 118 121 118 116 108 104 99 97 62 43 75 78 79 83 86 87 89 94 96 96 96 96 95 92 84 56 48 78 84 97 113 126 125 122 127 117 110 103 101 49 84 94 95 99 103 106 108 108 109 114 116 114 112 106 100 95 61 43 78 80 77 79 82 85 89 91 91 93 93 90 89 85 69 53 82 81 78 88 103 110 108 112 115 103 101 105 110 98 51 88 93 96 100 102 104 105 105 109 113 113 113 112 97 95 64 46 77 79 78 78 80 78 84 86 86 84 84 82 79 69 40 80 80 75 69 74 86 93 93 93 89 80 82 95 104 105 89 44 83 91 93 95 97 98 99 99 104 107 110 109 98 108 51 59 80 79 76 74 73 73 73 74 75 73 72 69 60 27 61 78 74 63 51 56 69 76 78 79 70 42 47 73 86 95 94 57 38 70 91 86 84 83 84 86 90 98 106 110 124 67 36 64 112 85 69 62 63 65 63 62 63 63 64 46 27 47 65 70 59 25 17 21 46 64 64 63 44 28 24 32 62 77 80 64 57 40 44 75 99 97 89 89 96 111 129 110 60 80 59 25 61 112 103 79 70 76 77 75 72 55 31 39 61 64 60 60 46 31 37 41 39 49 52 59 65 69 59 45 47 59 67 79 88 77 62 52 41 41 51 58 57 50 48 62 86 95 60 35 46 37 56 69 68 65 54 42 34 46 69 79 76 69 52 50 49 58 67 71 61 52 56 65 76 87 86 76 66 69 84 92 101 102 93 89 95 90 76 66 64 69 80 89 92 94 59 41 63 58 51 47 45 49 60 75 85 92 93 85 78 75 67 56 57 66 75 89 94 89 89 87 94 103 100 96 96 99 101 105 106 106 104 94 97 105 108 106 105 102 102 101 100 100 61 45 75 80 83 88 90 95 96 98 101 101 96 89 84 81 77 79 82 81 82 93 101 101 99 96 101 107 105 102 102 108 109 110 111 110 108 102 92 102 106 106 108 108 107 105 103 100 62 47 77 83 88 92 94 95 96 99 101 101 96 93 88 86 84 86 88 87 88 94 103 105 99 95 104 106 108 108 108 111 113 113 112 109 109 104 95 96 105 105 107 107 107 106 104 102 62 48 79 82 85 90 93 92 94 96 94 98 94 90 87 87 89 88 86 87 90 96 101 100 95 93 102 109 111 111 109 111 114 112 113 108 105 105 98 89 102 103 104 104 106 106 104 103 64 48 79 81 85 88 90 91 91 95 96 95 89 85 86 88 85 86 87 90 92 96 104 100 97 94 101 112 112 110 110 110 112 109 109 105 102 97 95 83 95 103 102 104 107 108 104 103 64 48 78 82 85 87 87 87 89 93 93 91 89 82 82 85 85 85 88 89 91 96 105 107 106 102 103 106 110 112 112 109 107 103 102 100 99 94 93 84 91 101 102 107 108 108 105 105 65 48 78 80 83 85 84 84 88 91 88 90 84 80 81 81 83 83 84 85 84 82 87 98 103 99 81 72 76 83 86 92 94 95 96 94 89 92 95 91 89 104 104 107 105 108 108 106 64 48 78 79 82 84 82 83 87 85 84 85 79 76 75 74 74 75 76 73 64 60 60 61 71 68 58 57 55 52 52 53 58 67 74 76 75 80 93 94 92 103 104 107 105 108 105 104 63 47 77 79 80 80 79 80 84 80 81 74 67 66 66 67 66 61 54 48 47 48 47 46 47 47 46 38 39 33 30 31 29 33 40 49 59 75 89 94 93 102 105 106 107 104 100 101 63 47 76 78 79 78 77 80 84 79 80 73 63 58 56 53 44 36 30 30 30 36 41 42 42 52 60 62 68 70 69 70 74 77 87 91 86 88 95 97 101 103 103 104 104 102 97 99 61 46 74 78 79 77 77 78 82 77 82 70 54 43 37 32 37 45 54 63 70 71 79 80 85 89 99 101 104 102 100 96 102 102 106 105 103 100 100 101 106 106 103 102 101 101 99 96 61 45 75 76 77 77 77 82 84 78 84 78 66 67 71 70 68 70 75 81 87 91 96 96 97 102 106 109 109 105 100 102 106 104 103 107 108 105 103 103 106 103 101 99 99 99 99 95 60 44 72 74 75 77 76 81 87 87 87 89 81 76 77 77 74 72 74 80 87 94 98 101 99 97 100 102 96 94 97 102 103 101 104 110 108 108 106 102 105 102 99 96 96 97 96 96 59 44 72 73 73 75 75 80 86 87 87 92 89 81 79 79 78 77 76 78 78 80 81 81 82 82 81 84 88 93 97 100 101 105 107 107 105 106 107 103 102 100 97 94 96 94 95 92 57 44 72 73 73 75 73 78 84 87 88 93 89 84 78 77 76 78 74 74 74 76 73 72 74 79 81 82 85 90 96 100 101 107 108 108 107 108 103 104 99 96 95 96 93 94 93 92 59 43 71 72 72 74 73 77 82 83 85 90 90 84 80 77 76 73 74 75 77 78 78 76 79 79 81 82 87 93 99 101 104 106 105 105 104 105 104 102 99 95 93 95 93 92 92 92 60 43 70 71 72 74 74 76 78 80 84 87 87 82 78 79 79 76 76 76 75 77 77 76 76 78 83 88 92 96 101 103 105 104 103 103 104 110 109 102 97 94 92 94 93 92 91 93 63 42 68 70 71 72 73 73 77 78 79 82 84 78 74 83 82 81 78 80 81 80 82 79 79 85 91 94 99 101 103 105 107 104 105 103 107 110 106 101 96 92 91 92 91 90 91 96 65 41 68 68 70 72 72 71 74 76 77 80 82 83 81 83 82 84 85 86 86 86 89 91 93 96 99 102 105 106 109 110 112 111 108 106 111 109 104 98 94 91 92 91 91 90 93 100 67 41 67 67 69 70 71 71 74 76 75 77 81 82 82 85 86 86 86 90 93 97 101 103 106 108 110 111 113 113 115 115 113 114 111 114 115 108 104 100 94 91 91 89 90 90 96 104 58 42 66 67 68 68 69 70 71 73 75 75 77 81 83 85 86 87 91 93 97 101 106 110 113 114 116 116 115 116 116 114 113 113 112 114 112 105 100 96 91 90 89 88 88 91 97 91 54 49 67 66 66 67 66 67 70 72 72 73 75 78 80 81 83 86 90 95 99 102 103 108 107 113 111 111 113 114 112 113 113 112 110 111 107 102 97 91 89 89 85 85 85 91 88 85 54 48 73 66 64 65 64 66 69 71 70 72 74 75 78 80 82 83 85 88 94 98 100 101 100 102 105 107 106 108 107 107 109 109 107 105 101 95 92 88 87 85 83 83 86 84 82 86 56 40 66 68 64 63 62 64 66 67 69 70 71 73 77 77 76 76 77 79 83 85 89 93 96 96 96 94 95 100 102 101 102 101 99 97 92 90 86 85 83 81 81 81 78 79 83 88 56 39 58 62 65 63 61 61 64 66 67 68 69 70 72 72 73 73 72 72 73 75 80 82 84 85 86 88 87 91 95 95 93 92 91 88 85 85 80 82 79 77 77 75 76 80 84 87 56 24 36 34 38 38 37 37 38 39 39 40 41 42 43 44 44 43 43 42 41 44 46 47 48 51 50 51 51 52 54 53 54 54 53 53 50 50 47 48 47 47 45 46 47 50 53 54 34 