P2
48
60
255
14 19 21 26 26 28 27 26 20 19 27 27 32 33 32 34 43 47 44 38 32 28 29 26 26 25 23 23 24 25 27 29 26 25 23 23 26 26 27 30 32 36 37 35 29 31 26 12 19 40 45 44 46 44 43 40 34 37 47 55 53 65 74 70 79 82 75 59 49 37 36 37 44 42 39 42 43 43 47 45 39 41 40 47 46 49 51 60 63 65 60 52 49 50 40 22 26 42 48 47 52 50 46 42 40 45 59 58 68 74 84 86 72 74 66 56 43 35 40 46 47 39 38 43 36 39 41 39 41 43 45 48 53 59 75 82 85 81 65 55 46 44 42 24 28 47 43 44 45 45 47 48 54 71 81 82 63 72 80 89 68 49 50 43 37 38 40 44 41 46 50 43 41 40 37 36 42 47 56 58 68 80 94 98 93 91 85 68 54 47 48 26 32 52 52 55 53 51 52 65 81 97 104 115 124 102 79 63 64 59 59 60 57 54 51 47 51 58 58 57 56 55 56 59 61 64 72 84 94 108 115 111 106 100 94 84 66 53 52 32 33 55 57 69 80 81 84 103 108 115 124 137 142 142 138 127 115 104 108 116 108 95 86 81 91 93 93 94 93 93 90 89 89 99 108 114 122 126 124 117 111 105 98 93 81 63 59 32 38 61 67 85 102 111 117 121 125 132 139 141 147 149 137 137 134 133 144 156 146 134 131 132 137 143 135 129 130 127 122 122 126 132 137 135 132 138 130 117 109 100 95 92 84 68 63 32 40 69 83 96 110 111 116 127 131 138 147 148 145 145 140 140 137 138 147 155 159 152 149 150 152 156 145 142 138 133 133 130 134 134 131 122 113 111 107 107 109 99 89 88 81 73 63 30 39 68 92 99 99 90 92 97 104 103 102 98 102 103 119 130 135 139 142 148 153 155 149 146 147 152 145 135 119 116 105 98 102 96 85 79 76 85 111 132 139 129 111 92 80 78 65 29 33 68 100 99 93 108 127 140 142 122 93 79 83 79 87 96 97 106 122 141 142 145 146 144 144 146 143 109 100 94 85 80 71 70 74 73 82 115 138 147 148 142 129 115 91 76 67 33 31 77 101 96 110 133 147 157 149 140 124 102 91 81 77 82 88 95 98 129 137 144 146 145 140 143 139 104 92 86 76 70 66 70 68 83 103 121 130 132 134 132 131 122 105 86 70 41 33 86 97 102 124 138 147 147 139 130 122 107 94 85 77 72 77 83 98 120 129 143 149 148 145 144 137 113 89 84 81 81 78 79 80 85 98 106 107 113 117 119 123 119 106 95 75 48 42 92 100 109 128 136 136 131 126 118 109 100 97 94 94 95 94 93 99 115 124 138 155 149 148 143 131 109 95 85 83 87 86 77 63 58 66 71 72 85 96 107 115 113 103 97 81 46 49 94 105 119 125 129 123 115 103 90 81 78 76 82 99 102 99 96 97 106 120 133 149 149 146 137 120 98 87 85 85 86 86 78 88 98 102 98 82 58 58 86 101 100 96 95 85 46 56 100 109 116 120 116 104 78 80 101 100 94 98 92 85 91 95 90 94 105 119 130 145 147 142 134 112 93 87 83 82 83 80 98 102 93 89 90 94 86 68 54 83 95 95 91 89 46 62 103 113 113 114 103 69 83 84 53 38 31 41 63 82 82 82 90 96 107 124 135 150 151 146 134 111 95 90 81 82 88 99 88 58 43 31 41 40 68 80 72 68 95 93 92 92 51 66 108 116 114 115 80 74 57 53 41 87 28 75 73 76 79 93 90 104 115 125 136 149 148 143 128 108 97 96 96 101 95 76 108 79 106 25 64 35 52 52 71 77 80 90 95 96 54 66 113 115 110 98 69 57 60 78 42 36 30 53 86 83 74 85 98 115 116 122 130 141 137 131 117 106 99 114 109 92 85 85 108 85 51 30 40 44 73 54 57 79 88 97 107 103 58 65 118 122 113 101 85 59 69 79 73 79 71 73 74 78 88 106 122 114 112 121 122 131 130 121 110 105 99 106 105 113 103 92 95 95 81 74 76 62 63 69 72 85 88 97 102 99 59 65 119 123 121 108 98 92 103 108 105 103 99 109 109 106 102 106 107 108 114 120 115 124 130 123 107 103 100 95 98 99 102 107 113 116 116 109 102 104 103 92 88 95 106 119 125 115 64 64 109 116 121 117 111 102 113 127 128 132 125 115 104 112 118 116 112 113 115 118 114 124 133 122 106 98 100 96 100 106 109 113 109 116 124 126 125 117 107 93 98 111 124 124 117 110 64 64 109 122 128 130 132 127 117 114 115 111 110 119 130 136 131 125 123 120 121 117 119 130 129 117 102 99 99 95 107 118 127 130 128 124 114 106 102 105 107 108 116 126 131 127 121 107 63 66 110 120 128 137 140 142 138 133 130 128 129 134 140 137 133 132 127 124 121 117 118 130 132 115 95 98 103 102 106 117 129 137 139 139 136 130 130 128 128 128 127 131 133 130 118 107 63 66 112 120 128 138 144 141 137 135 136 135 137 138 137 137 138 135 128 127 120 118 118 133 137 122 100 97 102 106 106 112 125 133 139 140 139 139 140 137 134 134 134 135 132 124 116 110 64 66 115 122 128 137 143 144 141 142 141 143 144 144 144 146 144 140 133 128 120 115 120 140 138 121 105 97 101 108 109 115 124 132 138 140 143 144 142 142 139 141 138 134 128 121 115 110 64 67 117 122 127 139 145 150 149 149 148 145 144 146 153 158 151 147 139 125 118 116 126 139 137 127 109 99 100 104 106 116 135 143 141 142 144 145 145 148 146 144 142 134 125 118 112 107 64 67 117 127 125 135 146 151 156 154 151 149 154 155 151 146 129 122 122 119 116 120 133 138 136 129 113 101 98 96 94 97 114 125 138 145 148 147 149 153 155 151 143 133 125 117 109 103 61 67 113 124 124 133 145 147 153 153 156 160 163 160 142 121 107 112 111 115 118 125 157 141 137 133 119 105 98 95 95 89 92 108 123 134 146 151 154 158 161 152 147 133 124 115 108 100 60 66 113 119 123 130 140 152 157 160 164 163 154 145 123 100 97 111 114 121 119 129 169 157 143 147 131 107 99 97 100 95 85 98 118 128 137 145 152 160 161 156 143 134 123 113 106 99 59 65 112 115 122 129 138 144 156 170 169 157 145 127 107 87 102 115 120 120 116 122 144 144 142 145 124 102 97 93 98 99 85 83 105 120 127 137 144 151 155 149 137 129 121 111 104 97 58 64 110 116 122 129 138 144 154 168 162 142 129 110 87 93 112 111 104 63 66 109 122 129 131 129 105 93 55 50 80 93 93 81 87 109 120 125 134 140 141 136 129 124 114 108 102 97 58 64 108 114 120 126 135 142 149 152 144 132 118 92 77 112 111 102 78 59 84 101 113 113 114 112 101 90 77 68 68 88 101 100 85 86 105 117 126 131 133 129 123 115 107 105 99 94 58 64 107 112 120 126 134 139 143 145 136 125 103 75 95 118 116 114 96 92 107 114 108 100 92 93 95 101 98 93 89 100 105 108 106 81 83 103 117 124 123 123 117 111 104 99 97 95 59 63 108 112 118 123 127 134 137 134 126 110 83 71 108 119 120 120 117 118 123 128 125 110 87 87 100 110 109 107 107 106 103 106 107 100 77 83 100 113 113 116 112 107 100 97 94 94 59 63 108 111 117 121 124 127 129 128 118 96 67 91 115 121 121 119 119 121 124 132 139 136 131 126 125 126 121 112 111 108 105 105 106 108 101 77 84 101 109 115 107 102 97 97 95 95 58 63 107 111 116 117 122 124 124 122 106 75 75 113 115 118 117 118 118 121 126 138 148 146 139 138 141 136 130 118 109 109 105 106 107 107 107 100 77 88 103 108 104 101 99 97 96 95 57 62 107 110 115 116 121 123 124 115 92 69 108 121 118 117 117 117 120 123 127 137 154 148 144 142 142 141 130 116 111 109 104 106 108 108 110 113 102 81 101 109 109 105 99 99 98 97 57 63 105 111 117 118 122 126 125 112 77 95 122 121 120 116 116 116 119 125 128 139 150 147 141 139 139 136 125 118 114 109 103 102 105 104 104 105 104 89 98 114 114 108 104 100 99 96 57 63 105 111 117 120 126 131 131 109 80 115 119 117 114 112 114 107 111 108 114 121 126 125 124 123 116 109 101 96 91 87 80 76 84 93 96 95 100 102 99 123 119 114 106 101 102 96 57 62 105 111 117 120 127 134 133 114 94 118 115 111 109 100 87 82 93 104 104 114 104 104 101 100 99 91 100 89 97 84 78 66 51 65 89 96 103 110 108 131 122 115 106 101 102 95 55 60 105 112 119 121 125 134 138 120 104 120 110 106 95 59 68 111 131 142 129 148 134 171 136 137 159 124 164 131 152 115 96 89 69 33 88 102 112 113 117 135 124 117 104 100 101 94 53 54 105 111 118 121 123 132 139 128 111 118 114 105 76 52 118 152 161 171 144 179 166 195 167 173 186 148 181 154 155 131 126 117 100 40 105 112 118 114 129 136 124 117 102 100 100 91 53 47 104 111 116 120 124 132 142 139 119 123 120 117 83 69 138 149 151 173 151 168 177 177 162 169 174 157 188 157 138 118 115 107 81 92 114 115 117 118 139 138 124 114 100 102 98 89 52 43 103 110 116 120 123 131 144 147 127 126 127 122 119 73 101 121 119 135 136 150 159 169 152 156 170 132 111 103 107 91 68 48 93 110 110 117 118 127 147 138 121 107 98 101 95 87 51 38 100 108 114 120 121 129 140 150 136 123 128 120 122 112 55 32 69 83 91 94 73 83 78 85 85 67 60 72 70 64 58 91 104 107 113 117 121 136 149 135 117 103 100 102 92 85 50 32 96 106 113 120 120 128 136 148 139 123 132 127 122 115 113 83 94 107 114 101 107 108 115 117 112 118 118 107 95 100 103 101 102 109 114 115 124 140 150 133 113 99 102 99 90 83 50 27 89 102 112 120 119 123 131 146 146 123 133 131 125 117 113 108 107 120 127 132 132 125 132 126 128 124 129 119 112 101 101 100 109 114 115 116 132 148 150 127 107 98 102 96 88 81 50 23 72 103 111 119 119 121 128 143 146 128 128 133 128 124 113 107 109 124 139 156 143 137 137 134 136 147 144 123 111 99 97 105 111 114 115 117 138 152 144 116 102 99 101 93 85 79 46 21 48 98 108 116 120 119 124 138 147 137 125 129 129 125 118 109 107 119 130 149 142 132 127 126 124 127 118 112 107 102 105 109 112 111 112 121 141 151 135 107 98 103 98 90 82 78 35 18 30 79 104 111 120 118 121 132 144 143 129 129 127 124 121 118 115 115 120 126 123 116 117 115 114 112 115 119 116 109 109 109 113 113 111 128 138 150 123 100 100 104 94 86 78 67 16 16 26 53 100 108 117 117 116 124 140 144 134 125 127 125 125 121 122 130 127 129 125 121 120 115 120 119 122 125 122 113 109 112 113 112 112 130 138 141 110 96 102 99 90 82 72 39 10 18 31 31 77 105 111 118 115 118 131 144 140 126 123 123 126 123 124 132 134 130 129 126 124 124 125 123 126 126 125 113 113 112 111 111 116 128 138 127 101 96 101 93 85 76 64 24 9 20 36 41 43 90 108 115 117 115 125 141 145 133 120 121 128 127 123 129 135 133 127 129 127 128 127 126 132 130 124 116 114 114 113 110 119 127 132 115 94 98 95 89 81 76 63 18 10 20 34 33 34 44 99 111 114 113 119 134 143 140 120 116 127 127 126 132 135 140 135 131 130 130 131 131 134 127 124 117 115 118 115 111 115 126 122 102 94 96 90 83 77 88 62 18 11 21 31 31 30 29 61 106 112 113 114 128 137 138 126 114 119 128 129 132 135 141 140 137 135 133 134 132 134 128 124 117 116 120 114 111 114 118 108 94 95 92 86 79 86 93 59 19 12 21 28 28 30 34 31 83 108 112 112 117 129 135 130 121 118 125 129 129 132 139 143 137 136 136 138 135 131 124 119 119 113 119 113 108 111 112 99 93 93 88 82 82 93 91 56 21 13 21 36 36 32 29 29 47 100 108 113 113 121 129 128 126 121 125 126 128 130 137 143 138 137 138 138 138 135 128 124 121 113 115 108 105 107 102 92 93 88 83 79 88 95 91 55 21 13 19 33 35 35 33 32 41 95 106 108 110 113 120 126 126 124 126 126 130 129 137 148 141 138 138 137 138 147 143 130 119 116 111 106 103 100 92 88 89 83 81 83 92 93 90 50 20 13 21 31 32 33 31 26 31 87 109 107 105 109 113 121 124 122 124 126 133 140 155 157 144 138 137 135 137 141 149 131 118 113 107 102 100 93 89 86 82 80 84 85 92 93 89 55 21 14 17 22 21 19 17 16 17 48 67 69 65 64 67 71 75 75 75 78 82 88 95 90 85 83 81 79 81 81 84 76 74 70 66 61 58 54 52 50 49 51 53 53 57 58 54 36 11 7 