P2
48
60
255
16 25 28 38 46 49 49 46 42 37 37 39 37 33 30 27 23 23 24 27 30 34 34 33 31 28 31 34 31 32 40 46 47 48 45 42 43 41 39 35 34 33 30 25 20 21 17 10 26 47 55 73 82 86 85 88 85 78 72 65 64 55 53 53 57 57 56 62 60 62 63 63 61 60 54 54 56 67 75 85 86 84 82 74 74 72 71 65 61 58 52 42 35 35 38 19 28 46 66 85 91 97 97 96 92 90 90 85 85 86 85 82 77 73 73 71 71 72 73 70 70 72 76 79 82 83 89 95 94 91 89 84 80 80 80 77 73 65 58 48 38 31 35 23 26 50 79 91 94 94 98 100 100 100 100 100 98 96 94 86 85 85 81 76 75 76 78 77 80 82 87 93 93 94 92 94 93 90 87 85 82 77 78 78 80 75 67 60 45 37 31 20 30 71 92 92 93 98 99 103 103 100 108 113 113 108 107 103 105 102 98 96 93 92 94 94 96 99 105 104 108 110 105 105 103 101 97 92 92 90 86 82 80 78 73 70 60 41 34 19 46 88 90 91 96 101 102 101 103 106 114 115 115 114 116 115 117 113 110 107 103 104 106 108 110 112 111 115 114 114 111 111 110 105 103 101 100 99 95 91 86 82 76 71 73 57 38 22 56 91 90 95 99 98 99 105 109 114 119 121 122 120 121 119 122 116 118 114 111 115 115 118 120 116 119 120 120 119 117 114 114 111 108 102 103 103 101 93 90 84 77 70 73 71 46 22 57 88 91 96 91 86 84 92 102 108 116 121 119 122 120 121 123 120 120 122 122 120 120 123 123 124 123 122 124 121 118 115 116 111 108 104 96 97 92 83 82 82 78 73 69 73 59 23 54 84 91 83 78 68 70 75 78 86 96 103 108 114 117 116 119 122 120 123 125 122 118 119 121 122 118 116 118 115 113 111 104 103 100 93 84 79 72 71 69 73 75 72 68 72 66 29 52 87 74 75 66 71 73 67 62 58 56 59 70 77 84 97 108 112 115 122 124 121 119 116 120 119 114 111 105 97 86 83 77 69 64 61 64 66 69 69 67 69 68 67 65 68 70 37 49 77 73 72 76 71 72 63 49 40 42 42 40 50 58 76 94 99 107 115 119 116 113 111 112 111 105 98 91 78 68 55 47 43 38 39 44 57 68 66 66 70 68 66 61 62 69 41 47 72 73 88 88 91 87 79 74 63 48 42 42 45 51 63 78 85 96 108 109 109 108 106 104 104 96 83 75 67 57 42 38 37 38 42 52 62 69 71 71 72 69 62 57 60 69 43 46 74 79 88 91 93 87 83 79 79 76 69 60 58 58 59 64 74 90 100 105 105 108 108 102 99 89 75 65 57 48 43 40 39 44 49 55 61 71 80 78 76 74 69 63 65 71 43 50 79 85 91 89 81 66 73 82 87 79 68 58 53 57 67 69 68 79 91 101 108 111 110 101 91 76 60 53 51 47 42 52 63 70 68 80 72 62 69 84 85 79 72 65 64 68 44 51 85 92 91 77 62 80 77 64 45 40 37 42 54 55 52 63 76 81 89 103 116 119 115 110 97 75 63 55 48 49 60 58 43 33 34 40 49 51 62 57 80 82 74 71 70 67 44 54 93 93 87 65 64 50 64 68 48 79 43 56 62 57 58 58 72 88 96 109 123 130 129 120 104 81 67 57 50 55 72 70 89 31 87 43 75 61 41 52 53 77 76 75 71 71 45 63 98 94 83 63 53 69 103 90 45 36 31 48 86 90 66 67 85 91 103 108 123 134 132 124 102 79 73 67 52 68 112 89 54 28 40 46 82 80 64 53 58 68 75 81 79 73 44 69 108 94 80 80 79 88 99 106 66 51 50 75 113 104 82 89 92 101 103 106 117 129 134 123 102 81 76 71 73 77 113 124 66 51 53 73 93 90 77 66 68 66 75 79 77 74 44 71 112 103 109 108 100 100 101 98 102 88 87 96 96 99 102 104 101 100 104 106 110 126 132 126 109 83 77 78 79 84 94 104 96 87 87 94 89 86 80 80 90 81 83 92 87 79 45 76 122 114 114 112 105 105 112 120 117 102 100 98 95 93 97 98 107 105 107 106 107 118 129 121 112 87 78 76 67 75 87 96 96 96 100 104 104 94 84 84 90 90 88 91 88 80 45 77 121 116 112 113 109 106 102 100 100 102 98 95 95 97 103 109 112 109 110 104 105 115 124 120 116 98 79 81 72 70 78 87 97 99 99 96 92 88 90 95 94 94 95 94 90 81 45 76 124 116 116 121 117 118 115 111 109 108 106 102 105 111 118 119 111 111 108 103 104 110 127 121 120 99 80 79 83 73 76 84 90 95 100 101 104 104 103 97 101 103 96 95 93 81 45 76 119 118 119 118 120 124 127 127 121 121 119 116 119 124 128 119 115 113 106 102 104 109 126 122 120 102 81 79 84 86 80 88 97 103 109 111 111 108 107 110 106 104 96 94 92 84 45 76 122 124 123 123 126 127 125 127 127 123 121 124 128 130 127 120 116 114 106 102 103 107 122 126 120 103 82 78 83 87 87 90 97 101 104 106 113 118 122 117 107 97 97 96 92 84 45 76 126 124 124 125 125 128 128 126 127 122 124 128 125 129 129 123 113 111 107 105 104 107 122 126 122 102 83 79 81 85 91 95 100 106 109 112 119 124 124 113 107 102 97 97 90 84 45 73 120 122 121 123 124 129 129 126 128 123 128 132 130 127 126 122 113 108 107 106 103 110 119 120 120 105 85 80 81 84 91 97 103 110 112 116 120 122 122 112 106 102 100 96 90 83 45 72 120 120 120 120 124 128 129 130 130 131 130 128 128 126 124 119 111 107 105 105 105 112 117 120 121 109 89 80 80 85 90 94 104 111 113 119 121 123 119 113 108 103 99 94 88 82 45 71 118 119 119 122 129 134 135 135 136 131 129 129 128 128 123 113 104 99 100 104 109 114 121 125 123 113 93 81 76 79 87 93 101 108 115 120 127 124 122 110 104 103 96 91 87 79 44 68 114 116 119 122 131 134 136 136 134 130 131 131 128 125 114 100 100 99 98 104 112 121 124 124 125 118 97 85 77 74 77 86 96 105 114 122 127 124 120 112 105 98 94 89 85 78 42 64 109 113 117 121 129 134 132 134 133 129 128 126 121 113 104 99 104 105 102 109 118 124 124 124 122 116 100 89 79 76 73 77 86 100 110 119 122 122 118 113 107 100 93 89 85 77 42 63 105 112 116 119 122 128 133 131 130 126 123 117 107 103 100 103 109 108 106 111 119 131 129 123 125 116 98 88 80 80 77 73 77 88 101 109 114 112 110 109 106 99 92 86 82 74 42 64 101 111 116 120 123 126 126 124 123 119 113 103 96 100 100 102 108 112 105 109 118 133 132 123 122 114 95 84 78 80 79 72 69 79 94 105 110 111 110 105 103 94 88 81 80 73 41 64 102 109 114 118 119 122 123 122 115 110 104 95 98 104 102 96 97 96 95 97 105 117 118 116 110 98 80 77 80 80 79 75 66 70 86 98 102 106 104 103 100 91 84 82 78 71 42 64 103 109 112 117 118 119 118 116 111 105 99 100 105 107 106 95 70 62 76 83 92 101 108 105 94 82 65 50 52 70 81 80 72 69 79 91 99 103 101 100 96 91 82 82 75 72 43 61 100 103 110 113 114 114 114 110 105 101 104 108 109 110 108 101 89 83 92 89 87 94 93 85 77 65 53 46 58 78 85 85 82 77 78 86 94 98 99 96 91 87 84 80 76 71 43 60 102 103 109 110 108 108 108 107 104 107 112 111 111 111 108 102 85 78 77 77 76 83 75 66 63 59 59 62 70 81 83 86 87 87 85 84 90 96 96 94 91 88 81 81 78 73 44 61 100 104 111 109 107 106 106 106 103 108 111 108 106 104 101 95 86 82 84 78 78 69 71 66 67 66 62 62 70 76 81 83 85 88 86 86 85 93 94 95 90 87 84 81 75 73 45 59 99 101 103 108 107 108 102 99 101 102 99 97 99 97 96 94 89 86 90 89 87 78 86 82 82 81 73 69 68 70 75 79 82 80 87 87 85 89 94 94 91 86 82 81 75 72 44 58 95 100 103 109 109 108 94 101 97 94 98 93 93 92 91 90 89 90 94 98 95 86 85 84 87 83 79 72 72 67 72 72 75 78 83 87 85 86 98 96 89 84 83 82 77 74 44 59 96 97 105 105 110 104 89 93 92 88 90 92 90 91 91 92 95 96 100 100 94 82 85 83 89 83 80 76 75 69 70 69 72 76 86 87 86 86 100 94 88 83 83 80 76 73 44 59 94 91 99 104 107 104 92 89 77 77 83 85 86 86 92 96 99 100 106 105 99 93 91 95 103 90 85 86 77 74 69 70 66 66 81 88 82 91 104 96 85 80 79 77 79 74 43 55 88 88 94 97 104 105 94 87 70 47 65 80 86 88 92 95 100 100 105 102 105 104 106 108 100 89 86 85 78 73 71 67 50 43 63 75 82 103 106 91 82 78 79 84 80 73 45 57 93 91 88 92 100 107 100 93 82 72 83 85 69 70 74 76 76 79 82 82 79 79 80 76 70 68 66 64 61 59 63 71 72 70 71 80 96 104 95 83 77 78 81 84 80 75 45 59 91 92 88 90 94 101 103 98 100 97 95 94 90 83 78 74 74 72 73 69 69 66 69 71 75 75 73 71 71 77 79 81 84 90 85 90 99 102 91 79 80 80 84 83 76 75 45 58 91 91 88 90 92 98 102 100 106 111 106 103 97 97 96 94 104 99 102 100 97 98 99 104 102 99 88 82 84 81 81 85 89 94 90 93 100 97 88 76 76 81 85 79 76 75 63 56 91 90 89 88 89 95 99 94 101 110 113 109 104 97 96 99 105 111 119 111 109 110 109 106 106 93 85 80 77 78 81 89 91 89 90 94 98 91 80 75 77 81 80 77 75 85 121 55 86 87 87 89 90 95 97 94 98 102 112 112 108 102 95 93 93 93 96 97 95 96 92 85 79 76 75 77 72 77 82 89 86 86 87 91 94 82 72 73 78 78 76 76 76 143 136 53 88 87 87 88 89 93 94 96 97 99 109 113 115 109 103 94 87 85 81 76 73 68 67 76 79 75 75 77 76 82 85 88 85 85 88 84 85 75 70 71 72 73 75 74 98 212 136 55 89 91 88 87 87 90 91 95 102 100 105 110 111 110 109 104 98 92 85 81 75 74 74 77 76 78 84 87 87 90 91 89 81 84 86 80 78 71 71 71 72 70 70 76 180 221 137 53 84 93 89 87 87 85 86 93 101 102 104 105 108 109 110 107 102 96 91 83 75 74 74 78 77 82 89 93 92 91 95 91 87 85 80 74 70 71 69 69 71 73 74 93 168 221 137 51 85 85 83 85 86 84 84 91 100 101 102 104 106 105 106 108 104 95 85 79 76 74 73 70 71 79 89 93 95 92 94 89 83 79 75 71 68 70 71 69 71 72 74 110 131 218 138 50 85 83 83 86 87 84 81 90 95 99 97 102 104 104 106 104 103 98 87 74 72 71 72 72 78 87 94 97 99 94 91 83 80 74 71 71 69 68 71 72 72 74 84 122 122 197 138 53 82 84 85 85 85 83 83 85 87 95 94 98 103 106 109 107 103 100 95 93 91 87 98 94 91 88 88 94 100 96 86 78 74 73 72 71 69 69 70 73 74 80 104 132 124 155 138 56 86 82 82 84 84 85 81 80 84 87 91 97 96 98 101 103 102 100 102 99 97 100 101 100 95 91 84 83 90 90 80 76 71 65 70 67 68 69 72 75 79 93 127 137 123 109 125 59 91 86 80 82 84 84 84 78 77 81 88 95 93 98 99 101 100 107 112 106 103 106 104 106 100 95 86 81 84 83 75 77 67 64 67 67 72 71 73 78 94 109 139 139 116 103 85 59 93 94 87 81 80 84 85 79 76 78 84 87 87 95 95 98 102 107 112 108 106 107 104 105 101 96 84 79 82 75 73 72 67 66 68 73 75 74 77 87 102 135 142 139 107 110 78 60 97 94 91 86 82 81 81 81 78 76 80 81 82 89 88 93 99 103 107 102 105 102 102 99 95 89 82 82 78 70 68 68 69 66 73 74 74 76 83 102 124 145 143 131 105 122 80 60 99 95 95 90 86 81 81 83 79 76 74 77 83 87 90 95 90 93 98 100 96 96 96 94 90 83 79 77 73 67 71 71 68 69 75 74 76 83 101 114 143 145 142 111 106 134 82 60 99 97 97 95 89 85 83 85 84 78 76 81 83 80 85 92 91 88 94 93 86 89 92 87 84 80 77 73 70 69 69 70 71 75 77 78 78 99 108 140 144 144 128 110 112 139 84 37 60 61 61 59 58 56 53 52 52 50 45 47 48 48 53 53 53 55 56 53 51 52 52 54 51 46 44 45 43 42 42 43 47 47 48 50 54 66 81 89 89 88 68 68 78 88 52 