P2
48
60
255
20 31 38 47 49 51 51 52 53 55 54 55 56 57 58 68 76 80 81 79 80 80 79 79 89 94 96 99 98 96 96 95 97 98 100 99 85 72 58 63 59 68 74 80 73 66 59 27 32 51 67 76 80 82 84 87 88 86 86 88 91 96 109 120 127 131 137 139 134 131 132 137 145 146 151 156 156 156 159 157 161 158 159 161 140 120 108 97 96 117 118 122 125 117 106 60 31 60 74 77 80 81 83 86 85 84 89 91 90 95 105 115 128 139 140 139 138 140 142 145 148 148 151 152 153 157 159 161 163 159 158 157 149 134 111 98 102 132 135 133 133 133 120 73 32 66 75 78 80 80 83 84 85 87 89 92 96 102 109 112 126 140 143 142 148 149 153 155 155 153 155 155 156 158 166 167 168 159 159 155 152 146 132 117 126 130 146 136 131 134 125 74 36 69 76 78 80 81 82 84 84 89 93 100 109 113 112 115 137 145 141 145 147 149 151 157 158 157 154 157 156 161 168 168 162 161 160 157 156 150 134 132 138 139 139 129 129 130 123 74 39 70 77 79 80 83 85 85 83 91 99 110 114 112 113 122 133 142 141 144 150 149 153 155 156 153 156 160 157 161 163 162 160 156 157 154 157 152 149 144 149 144 139 134 132 129 125 75 41 71 75 78 81 86 88 93 96 98 101 111 115 117 123 124 127 135 135 146 151 149 149 152 152 149 153 155 155 155 161 157 156 156 158 158 149 146 151 152 153 149 145 140 130 127 124 75 41 71 74 77 81 89 97 101 103 103 105 111 117 119 123 120 121 122 132 140 144 145 148 149 152 151 146 147 149 149 151 149 149 152 156 153 142 136 143 146 154 158 150 143 129 123 121 74 42 68 69 74 84 93 100 98 103 104 95 100 106 106 111 112 113 111 121 128 135 139 139 144 142 143 142 139 132 132 125 130 127 120 124 124 118 132 133 136 139 146 146 136 124 118 117 73 41 66 68 70 72 75 81 84 87 79 63 65 66 73 76 85 89 95 104 108 119 125 130 131 126 127 123 116 106 117 100 94 79 86 80 68 81 90 94 101 114 119 124 127 125 115 112 71 41 62 59 55 56 55 50 48 40 46 45 46 49 57 57 54 64 77 82 88 102 108 116 120 115 112 111 96 81 93 75 60 59 56 47 50 57 60 59 60 68 76 84 97 113 111 109 70 40 50 43 45 45 50 55 41 33 35 34 31 33 41 46 43 45 59 54 71 85 96 110 109 107 101 98 78 69 66 51 44 44 37 39 40 39 41 48 48 59 75 79 71 75 91 99 70 39 46 40 42 43 46 46 43 43 38 35 31 30 29 31 35 39 45 47 57 76 91 104 107 110 103 85 76 65 50 45 44 43 42 38 38 38 43 48 53 57 61 57 58 66 65 84 65 37 53 49 44 46 52 57 57 62 61 57 52 41 32 31 32 36 42 47 50 70 87 96 108 113 108 92 74 59 51 47 42 36 34 34 37 53 77 88 86 76 62 51 53 53 61 89 64 38 58 57 56 56 58 61 59 58 49 38 27 22 22 26 28 26 28 37 49 68 91 106 120 131 133 115 86 55 39 29 25 30 26 20 20 21 32 46 61 70 76 69 64 67 78 97 66 40 65 59 59 59 56 45 33 28 24 17 12 13 20 29 33 39 44 40 44 63 94 119 134 147 152 128 90 42 27 30 28 31 40 28 18 14 20 26 34 38 52 80 89 79 89 103 67 41 69 68 61 56 40 36 31 32 37 24 24 25 31 46 45 61 57 65 59 62 96 128 146 159 160 132 104 78 75 57 59 66 77 69 64 55 60 72 69 58 57 59 81 90 97 106 69 42 70 68 59 47 51 60 58 71 85 92 94 77 66 62 59 60 61 68 64 66 100 133 147 161 164 135 115 124 122 108 106 105 104 103 106 109 119 121 112 100 98 85 89 106 121 119 73 45 75 77 73 66 69 69 71 87 102 106 107 105 98 82 68 60 67 66 68 70 103 137 148 158 162 136 123 129 114 101 94 87 98 104 117 121 128 122 114 113 124 122 115 132 139 133 78 46 81 86 85 82 85 85 78 78 88 92 89 83 78 82 87 75 65 70 70 72 99 136 146 154 157 134 124 130 125 117 108 105 90 81 85 92 100 101 110 130 141 142 145 147 143 141 83 47 88 97 96 102 115 116 107 96 90 87 92 98 105 107 109 96 77 77 74 72 95 127 142 145 147 129 123 135 140 141 137 133 134 132 131 129 136 143 148 153 156 158 155 153 147 141 82 49 88 102 112 123 129 136 138 139 139 135 130 129 131 126 122 110 87 75 75 73 86 118 141 145 140 130 123 132 140 149 151 154 146 149 154 154 157 161 160 161 166 161 157 154 149 143 84 49 89 107 114 118 126 136 141 146 145 144 146 143 141 131 120 110 88 78 75 74 83 112 136 143 139 134 128 128 133 142 156 161 156 158 160 157 156 160 162 164 164 157 155 152 149 145 85 48 89 103 110 117 125 133 139 144 145 142 144 144 142 135 125 113 89 78 77 78 89 113 130 138 135 128 129 131 134 142 153 168 166 162 161 156 155 152 160 164 167 161 156 150 148 140 84 47 85 98 107 114 122 132 140 143 149 148 147 147 145 144 129 106 93 84 78 83 104 123 136 142 139 131 128 130 134 137 146 159 169 167 162 157 158 162 165 163 164 162 158 152 146 138 82 46 81 93 106 113 121 130 138 145 149 152 154 153 149 142 128 103 82 80 78 90 117 129 138 142 143 136 126 127 129 131 146 162 166 165 165 159 154 163 166 166 167 162 158 152 146 136 79 45 77 90 99 105 116 129 137 147 149 152 155 157 151 145 129 96 72 74 79 93 119 135 142 148 152 144 128 125 123 118 141 157 164 162 162 162 163 167 168 170 167 163 155 146 144 134 78 43 75 84 92 103 116 127 134 143 151 153 156 152 147 143 124 84 80 78 80 93 118 141 155 176 204 154 131 125 128 123 128 148 158 161 165 167 168 168 172 173 166 160 147 142 142 134 79 45 75 77 84 99 111 122 132 141 146 149 146 145 142 139 108 83 84 78 77 86 108 139 149 152 160 143 133 123 128 129 123 137 148 157 162 167 166 168 173 168 162 157 151 146 140 132 80 45 75 76 81 95 109 117 126 134 143 147 144 141 134 122 83 81 79 74 70 74 88 103 119 126 130 127 116 118 124 127 120 120 134 143 153 160 160 166 166 167 164 157 149 143 141 129 79 44 74 75 79 91 103 112 123 128 131 136 133 128 122 94 76 77 73 69 65 65 69 78 95 106 107 102 96 99 109 118 117 116 121 130 139 148 154 160 159 161 160 153 147 142 136 129 79 43 74 75 79 85 95 106 115 122 126 128 124 116 98 78 81 76 65 50 25 22 36 58 67 74 74 51 40 49 77 96 114 127 121 121 124 135 143 148 150 151 149 146 142 136 132 131 79 43 73 75 78 81 91 98 107 115 116 114 111 95 74 78 78 76 60 34 26 31 35 48 53 53 53 27 22 23 37 83 131 137 132 127 116 119 132 140 142 143 143 141 137 132 129 130 80 44 72 75 76 80 87 92 99 101 98 99 90 75 74 77 75 74 69 56 52 58 60 53 49 44 44 49 53 50 72 118 134 138 137 133 111 103 118 132 137 134 133 137 135 133 128 129 78 43 73 75 75 80 86 94 96 100 96 90 81 71 74 74 75 74 71 68 64 61 61 56 51 58 85 110 120 122 125 131 130 138 143 139 123 94 95 113 125 133 132 128 130 129 126 128 79 44 73 76 76 80 87 93 95 97 92 86 73 72 72 71 72 71 68 65 63 63 63 74 94 98 103 115 124 129 130 132 128 138 139 137 131 116 81 94 115 126 129 124 127 128 127 128 79 44 72 76 78 81 91 95 100 98 92 79 71 70 69 69 69 66 62 62 63 70 85 102 112 108 106 108 116 120 123 124 128 131 129 132 133 128 113 82 103 119 126 126 129 128 128 129 79 43 71 75 79 83 92 97 103 106 90 70 65 64 65 64 64 66 63 62 67 86 103 107 110 104 103 103 109 110 112 114 117 120 121 123 125 125 124 95 99 118 125 127 129 131 128 129 80 43 70 75 78 86 99 101 108 109 76 63 62 60 62 61 62 65 66 72 87 98 106 107 103 104 103 103 102 101 109 107 109 110 109 110 108 111 115 114 104 121 125 126 128 131 130 129 80 43 71 72 77 87 100 102 110 103 66 61 57 57 62 64 62 63 74 79 89 99 108 110 104 105 109 104 106 101 102 100 103 105 104 100 93 100 109 120 113 126 128 128 129 131 131 129 80 42 69 71 74 85 97 112 114 99 63 54 50 47 54 63 65 65 72 70 80 88 102 109 111 108 108 108 109 106 100 100 98 96 92 82 71 85 106 115 120 131 132 131 132 135 134 130 78 42 69 71 74 85 98 114 121 106 70 67 65 57 50 32 39 49 51 51 51 53 60 74 84 78 75 78 86 91 89 84 78 74 63 50 45 69 98 111 124 132 131 133 131 133 133 130 78 42 71 73 75 84 96 110 120 116 82 74 78 80 79 69 50 45 39 38 41 46 55 56 63 65 64 64 67 71 73 69 64 54 65 98 83 93 109 119 127 129 129 130 130 132 131 130 78 40 70 74 76 81 91 102 114 126 106 83 86 91 85 79 74 65 56 51 46 40 39 40 47 44 42 45 51 66 78 81 92 116 138 137 136 125 119 123 126 125 125 128 129 131 131 126 76 39 67 72 72 77 90 94 99 126 137 121 119 114 96 82 80 84 86 74 79 87 88 83 94 96 100 104 106 103 98 109 130 140 135 144 151 142 131 127 128 128 126 126 129 129 125 116 72 37 65 71 74 74 87 96 104 122 139 142 137 125 117 105 89 87 97 98 91 91 96 97 102 98 95 93 98 111 126 135 137 132 137 151 155 149 140 132 131 126 126 124 126 129 122 112 68 32 64 68 71 73 76 91 101 116 128 136 134 131 119 108 92 84 86 93 97 94 95 96 102 103 103 111 117 121 125 128 128 130 142 151 153 150 143 135 131 127 125 121 127 126 118 110 64 14 58 66 70 68 75 88 95 105 118 126 128 129 126 112 97 89 81 80 87 87 86 84 91 98 98 101 110 116 117 121 123 135 146 152 153 150 145 139 132 129 124 122 125 118 109 102 60 10 38 62 65 70 75 80 88 96 108 117 125 127 129 121 108 96 87 81 80 78 79 78 80 83 86 92 96 104 114 122 129 138 148 154 155 151 150 141 134 130 127 125 119 109 101 98 57 10 23 58 63 67 73 74 77 85 90 104 112 120 125 131 125 107 99 91 87 85 82 77 78 81 87 91 99 105 120 126 133 142 152 156 156 151 148 140 132 128 123 123 113 102 96 91 61 11 24 61 62 64 68 71 70 73 78 92 104 119 130 136 140 129 119 111 110 106 100 95 93 96 102 109 118 123 129 138 142 153 159 156 149 147 139 135 129 124 122 114 103 98 91 93 67 13 28 64 62 62 66 68 68 68 68 81 94 110 124 137 144 144 140 134 128 131 128 129 129 132 134 140 145 145 146 149 156 159 158 155 148 144 131 125 123 120 116 104 97 92 87 104 68 14 28 64 66 60 64 66 67 69 67 71 86 98 113 128 140 142 140 135 132 137 138 137 137 135 135 139 146 151 152 157 161 161 157 154 143 130 123 119 114 109 105 99 92 88 94 114 70 12 23 63 67 64 61 65 65 68 65 66 73 84 98 108 126 135 136 129 131 136 143 139 137 136 136 141 149 147 151 153 153 158 149 132 122 120 115 109 108 99 98 94 88 90 109 117 71 13 21 63 68 67 62 60 65 67 67 67 66 72 85 88 116 125 128 120 123 138 140 138 135 132 139 145 151 146 147 147 145 143 133 123 115 107 105 100 103 99 94 88 90 101 118 119 72 13 24 62 67 68 66 59 59 64 67 65 64 69 72 69 92 111 119 105 102 132 132 135 131 128 135 137 135 138 137 135 129 132 121 116 105 100 98 97 93 91 85 87 91 111 119 119 72 28 65 63 68 70 70 64 54 59 64 65 63 65 66 69 80 94 104 98 103 124 128 133 126 123 124 122 120 126 129 122 118 114 110 104 98 91 92 91 85 82 82 93 106 117 120 120 72 51 74 63 68 72 72 70 63 55 58 64 63 63 66 66 69 76 88 90 95 108 116 120 116 109 109 112 115 121 117 109 109 105 98 93 88 87 90 85 79 78 91 106 115 119 119 119 72 47 53 60 68 72 72 72 70 63 52 56 62 61 62 67 69 68 71 77 81 91 103 106 102 98 100 105 108 106 102 99 96 93 83 80 84 85 83 76 74 89 101 115 119 118 117 117 70 25 23 36 42 44 45 44 45 42 37 29 35 37 37 37 42 42 41 43 46 48 54 58 61 62 62 60 60 58 57 54 50 46 43 48 51 49 45 41 52 61 70 74 73 73 72 72 45 