P2
48
60
255
9 16 15 16 16 15 17 22 29 27 20 20 20 22 23 24 25 33 38 48 55 56 56 57 58 60 60 61 61 62 69 70 71 73 72 71 70 67 65 63 60 56 52 49 45 39 35 16 16 27 26 27 28 30 40 51 52 42 35 32 34 34 38 48 71 80 94 109 110 112 110 111 107 109 111 105 112 118 121 117 118 119 117 115 111 110 107 103 97 92 84 79 71 61 55 28 17 30 28 29 35 46 47 47 39 40 37 34 38 56 74 91 99 98 115 121 121 119 118 121 120 116 115 117 125 125 125 126 123 122 119 114 110 110 106 100 98 92 83 78 74 63 50 27 17 30 33 31 36 31 31 35 38 41 48 60 84 101 108 112 111 119 124 125 126 124 123 120 121 118 121 123 127 129 128 130 129 126 121 115 107 103 100 96 95 93 85 79 71 61 48 25 22 32 30 29 32 39 46 52 59 73 90 98 102 109 108 104 116 121 129 127 128 123 122 121 120 124 128 127 131 130 128 126 125 124 118 114 108 101 95 91 86 83 82 80 72 60 49 28 35 57 54 56 66 65 58 62 74 85 87 92 86 73 71 88 93 104 111 111 120 126 131 111 122 128 129 133 132 123 120 105 106 102 98 99 96 86 79 74 70 67 68 76 74 69 59 35 43 72 74 76 72 52 50 60 66 63 58 50 52 54 50 55 70 89 85 91 101 116 123 112 127 129 129 130 119 103 87 74 77 72 63 54 48 48 51 50 53 51 49 63 75 71 65 38 46 76 76 69 54 50 56 58 50 42 43 40 47 49 50 50 62 76 74 83 97 104 118 116 124 126 125 114 102 89 70 62 64 62 51 44 42 41 44 47 49 49 44 49 68 72 67 39 48 80 70 50 49 52 57 56 52 48 46 46 50 57 59 60 65 71 70 79 88 95 108 113 118 118 113 106 92 87 68 61 60 55 46 44 45 45 46 50 53 52 48 46 50 70 70 42 49 77 53 49 56 59 62 59 55 58 63 68 73 72 75 74 73 76 77 79 83 92 105 111 110 109 107 97 85 77 73 63 65 61 60 62 59 54 53 54 55 57 56 51 45 53 72 42 50 66 55 68 75 72 69 73 81 92 101 101 97 89 84 82 81 82 81 85 88 95 105 106 104 107 106 94 85 78 75 73 74 74 76 81 89 92 90 80 70 70 69 67 55 45 63 44 48 70 70 76 77 76 88 95 106 112 116 115 110 104 99 91 83 83 85 89 91 102 107 107 106 111 107 94 85 80 77 75 76 82 89 98 106 112 112 106 97 87 81 75 67 57 56 43 49 75 75 83 82 87 96 103 109 115 114 113 108 102 98 94 89 85 85 91 99 107 115 116 115 116 107 98 87 80 77 79 85 91 97 102 107 110 108 105 101 97 87 81 73 67 66 43 53 80 80 82 88 92 95 93 86 77 69 68 68 72 84 93 90 89 86 91 99 110 122 130 125 120 106 94 86 80 79 85 90 88 80 75 75 71 76 80 86 89 89 87 80 74 70 46 54 84 85 85 88 86 74 61 59 49 37 40 29 41 48 62 88 90 90 92 99 108 120 130 126 120 105 91 84 84 87 90 73 49 44 33 41 43 50 57 58 69 83 85 83 79 75 47 55 88 87 86 80 64 57 48 42 64 35 48 26 37 54 44 61 96 97 95 98 106 117 128 125 118 102 91 84 93 95 80 39 38 51 26 42 43 63 43 49 57 66 80 81 81 80 50 57 88 88 81 70 61 47 51 71 88 44 31 29 36 82 73 49 97 108 98 101 109 118 127 123 121 102 91 85 102 102 51 57 57 34 30 34 56 79 58 45 47 63 75 81 81 81 52 57 90 88 77 70 66 72 81 84 92 82 58 52 74 92 79 66 89 110 100 105 108 118 129 121 121 103 90 87 101 98 65 73 84 60 51 60 85 87 78 70 60 59 65 76 81 84 54 61 99 92 87 84 86 91 100 106 112 104 95 88 88 91 90 94 102 107 104 108 106 119 128 121 120 103 88 91 94 102 95 91 89 89 92 96 96 98 98 87 78 76 76 78 87 88 57 64 103 99 100 103 102 104 106 109 109 105 98 99 96 98 98 101 108 108 114 106 106 114 124 124 118 105 90 92 99 103 99 96 97 96 94 98 100 103 102 93 90 92 94 91 92 93 57 64 105 108 109 113 113 114 113 110 109 106 102 103 104 103 105 112 113 115 116 107 106 115 123 123 117 107 94 91 103 109 109 101 100 102 102 102 103 104 105 106 105 104 104 100 95 96 60 66 108 110 114 119 119 121 118 113 111 112 111 109 108 111 116 118 122 117 112 106 106 113 119 123 118 104 97 94 103 112 118 114 108 104 107 110 110 110 113 115 116 115 108 101 100 96 59 66 109 113 119 121 122 124 122 118 114 117 115 116 120 123 124 124 123 120 108 105 105 110 118 123 115 105 95 93 97 108 121 121 115 112 112 114 115 116 116 120 120 117 113 104 95 95 57 65 111 115 119 122 119 121 122 119 121 119 119 123 128 131 132 129 120 113 104 103 102 109 118 123 118 106 93 92 93 107 121 125 123 119 118 117 117 119 121 123 126 125 120 109 102 96 56 66 111 117 121 120 119 126 126 123 120 120 123 127 132 132 131 127 116 108 104 100 100 109 120 125 120 110 92 90 91 99 116 124 128 127 128 124 125 126 127 128 128 128 124 117 107 100 59 66 112 120 120 125 127 132 129 129 123 122 122 132 133 132 130 124 111 103 101 96 101 115 125 126 125 115 97 88 87 93 110 123 128 131 132 125 129 128 127 130 127 129 125 117 109 102 60 66 112 121 124 129 129 134 132 130 129 129 128 132 131 132 131 123 102 97 97 101 113 126 131 131 131 125 104 92 86 85 103 123 127 132 133 129 130 130 126 131 131 134 131 117 111 102 60 69 118 120 122 126 134 134 132 134 134 132 128 131 131 131 127 107 97 106 109 112 125 143 141 132 134 137 110 97 94 91 91 116 127 132 133 133 132 133 135 133 133 133 130 115 107 101 60 70 118 118 122 133 140 135 135 136 136 134 129 132 130 126 111 97 106 121 129 121 116 120 122 124 121 113 104 103 108 97 88 99 120 127 131 130 131 134 137 140 140 134 124 114 107 101 60 69 115 114 126 133 139 142 141 137 137 134 131 131 127 111 95 102 114 123 114 103 106 111 114 113 109 102 96 97 113 103 90 88 101 119 127 131 133 136 138 139 138 131 119 113 106 101 60 66 112 112 124 131 136 137 138 137 133 132 130 126 116 97 90 102 114 106 51 41 78 100 104 105 99 90 70 49 89 101 91 88 92 101 120 127 136 138 138 136 135 128 118 111 104 98 58 64 104 112 119 126 133 138 138 136 134 132 130 122 102 99 89 98 106 80 26 27 62 80 89 86 80 53 26 25 63 96 87 86 92 93 109 125 132 133 133 134 133 122 114 108 100 93 57 63 101 110 116 123 131 132 134 133 129 127 128 120 102 97 87 83 86 69 59 80 94 84 78 72 75 83 74 56 69 87 80 86 93 93 106 121 126 129 128 128 124 115 111 103 97 91 56 62 103 107 113 118 125 128 130 129 126 125 125 117 107 100 93 83 72 77 89 98 95 90 82 81 91 88 87 80 70 72 83 90 96 98 109 119 124 125 125 122 116 112 107 99 96 91 55 61 103 104 110 115 121 125 125 124 123 125 124 118 116 111 114 111 107 102 101 106 105 108 109 109 107 100 95 96 93 98 101 100 103 109 116 121 122 121 119 115 112 106 102 98 93 90 54 60 100 103 109 111 116 119 120 123 123 123 121 120 114 112 113 111 107 103 100 104 107 108 108 107 106 103 96 98 101 105 107 109 110 115 118 119 117 114 113 111 105 103 99 95 91 88 55 59 101 103 105 107 110 113 115 119 121 119 117 116 110 103 105 102 102 102 103 105 111 105 101 103 106 101 98 97 95 96 102 105 108 112 115 116 115 110 109 108 104 100 97 91 91 88 54 61 98 100 102 105 106 110 111 114 116 113 113 108 101 96 99 101 101 99 104 109 116 104 106 107 116 108 100 98 95 93 93 94 98 102 108 112 112 108 104 104 103 100 96 91 91 89 54 60 99 102 102 104 106 105 106 110 110 106 103 101 98 93 97 101 103 106 106 116 119 111 105 110 114 111 107 100 99 94 92 92 89 93 96 102 106 102 98 99 101 97 93 92 92 89 53 61 99 102 101 101 104 104 105 104 102 96 95 92 90 93 97 101 107 114 108 101 95 103 107 103 88 86 96 104 103 96 91 90 87 90 88 94 96 94 94 96 99 97 94 92 92 89 53 61 99 100 102 101 102 99 102 97 91 89 90 91 94 96 101 108 103 92 84 86 85 85 89 86 85 84 79 80 87 93 94 90 87 87 86 91 87 88 89 94 96 94 94 93 91 89 53 61 100 99 101 103 103 99 99 91 83 87 86 90 91 96 99 91 80 79 83 84 84 86 88 85 85 82 80 76 73 73 81 85 83 81 83 86 84 89 90 93 94 93 93 93 91 89 53 62 100 99 99 103 105 98 98 90 84 82 81 87 88 85 76 72 72 77 78 77 80 83 85 82 80 75 74 73 67 60 57 61 62 65 73 80 87 89 91 92 94 92 92 93 90 89 51 62 101 99 99 101 105 101 101 93 86 77 73 73 64 55 55 59 63 63 63 58 61 63 64 63 65 64 66 66 69 72 66 57 48 55 56 70 87 88 93 94 94 93 91 92 89 88 51 61 102 101 100 97 100 105 102 100 92 78 70 71 71 61 69 75 82 88 92 93 90 96 94 96 100 102 101 92 87 80 73 68 77 83 82 83 95 97 97 93 93 92 91 92 89 86 50 58 100 103 100 97 94 105 103 100 100 88 84 87 85 85 83 79 83 92 101 117 116 110 112 112 115 118 110 93 80 73 72 76 84 90 98 102 100 99 97 95 94 90 90 91 89 84 48 59 99 102 99 99 95 101 104 100 101 97 96 96 91 88 83 81 78 80 87 100 103 99 94 97 99 93 87 80 78 78 80 83 86 93 100 101 96 96 94 93 92 90 90 90 86 81 47 58 99 100 100 98 96 98 102 102 99 98 100 101 95 89 88 86 85 86 88 89 90 91 89 90 90 87 87 88 85 82 83 84 88 95 98 97 93 91 91 91 89 88 89 88 84 78 59 55 96 101 99 98 99 96 99 100 96 97 99 103 100 95 91 85 85 87 89 90 91 89 88 88 81 81 78 75 78 80 85 89 93 94 95 94 91 86 86 88 88 88 86 85 81 86 105 52 91 98 97 100 97 97 95 95 94 98 98 102 100 98 93 91 86 80 76 70 64 58 58 56 52 62 74 84 91 92 93 94 96 93 93 92 90 83 81 85 87 85 83 82 78 143 115 49 86 93 95 96 94 95 93 91 96 96 99 101 101 101 98 99 96 95 93 91 85 80 83 88 87 96 103 102 102 100 99 97 95 93 92 91 85 82 84 83 83 81 80 76 105 182 114 46 81 87 93 92 93 93 92 91 95 95 98 98 100 101 101 104 105 108 112 112 113 111 112 110 111 113 116 111 106 102 100 97 93 93 93 93 83 83 85 83 81 78 77 84 171 185 115 46 75 83 90 91 92 91 89 89 95 96 96 95 98 99 101 105 108 112 117 116 116 114 119 118 112 113 114 112 107 105 102 99 94 92 92 92 81 82 79 80 79 75 73 130 185 185 115 48 73 77 84 88 90 90 87 90 95 93 94 94 97 100 102 106 109 111 113 113 113 113 119 121 116 116 114 109 108 106 102 99 95 91 91 90 84 82 77 77 75 72 72 163 185 185 114 49 77 73 78 83 87 88 86 87 91 93 93 94 95 99 100 104 107 105 105 108 111 109 115 116 110 107 108 106 105 103 100 98 96 93 87 86 83 80 76 74 71 68 75 176 185 185 114 51 82 76 74 77 81 85 87 87 88 91 91 94 96 100 96 100 100 101 101 105 107 108 111 112 104 102 101 101 103 98 97 95 93 89 85 84 82 77 73 70 66 65 84 182 185 185 114 51 84 82 76 75 76 80 82 83 87 88 88 89 94 99 97 95 96 96 98 101 101 99 100 103 99 95 98 99 100 95 94 93 89 86 82 80 76 73 68 64 65 67 86 176 185 185 114 51 85 85 82 76 74 74 76 81 83 85 87 88 92 95 96 95 93 93 97 100 97 93 93 98 97 93 89 92 93 89 90 90 84 83 81 74 71 67 63 64 68 68 69 117 173 184 114 51 86 87 87 82 75 73 74 76 80 79 82 84 90 92 94 91 92 93 93 96 93 89 90 90 94 93 88 89 89 88 87 85 82 80 74 68 66 62 63 67 69 68 61 69 123 175 114 32 53 55 55 53 48 44 46 46 47 48 48 50 53 55 56 55 57 56 56 56 55 53 54 55 53 51 52 53 52 51 51 47 49 46 42 39 39 37 41 43 44 43 37 37 55 90 70 