P2
48
60
255
26 48 54 57 58 61 63 64 68 69 72 73 73 74 75 75 76 75 73 70 73 72 73 73 74 73 74 72 73 77 77 79 76 74 71 68 65 62 60 57 54 51 50 45 40 32 29 17 44 82 91 91 96 100 102 106 110 113 115 116 117 120 120 122 122 122 119 116 116 117 117 118 119 119 118 118 119 122 122 123 122 119 114 109 104 102 96 92 88 86 81 75 65 53 47 28 47 86 92 92 98 101 103 108 112 114 113 115 119 123 123 122 123 122 120 118 117 119 118 118 120 119 117 118 120 124 125 125 126 123 117 113 108 106 100 96 93 88 82 77 66 54 48 27 50 90 95 95 98 102 106 108 110 113 114 116 121 124 126 123 124 122 122 119 118 119 119 118 119 120 118 117 121 124 126 131 133 130 123 117 113 108 104 97 95 91 84 79 69 55 47 28 54 93 96 95 99 105 107 108 109 111 115 121 124 126 127 125 125 123 122 119 118 120 119 120 120 121 119 118 119 122 123 125 129 129 126 120 121 115 108 100 95 93 86 80 71 56 47 28 57 95 95 95 99 104 105 104 102 105 114 118 122 127 128 129 125 123 119 116 117 120 120 119 120 120 119 116 114 114 115 114 117 117 115 113 112 107 101 95 92 90 90 80 73 58 49 28 57 94 94 95 98 94 84 82 85 88 86 87 88 99 103 111 115 117 114 113 116 121 119 119 121 119 117 114 111 111 111 109 102 97 90 84 76 69 65 65 67 68 77 81 76 62 51 28 57 93 93 92 83 69 63 67 70 68 61 55 54 57 65 74 81 89 100 107 112 120 122 121 120 119 115 111 108 103 96 84 73 62 56 53 54 54 56 58 60 62 62 66 71 65 52 29 59 93 90 72 59 65 77 85 93 89 79 71 68 66 64 65 70 74 87 98 109 118 124 122 119 116 112 107 100 87 72 65 56 53 54 58 60 59 64 67 72 70 64 60 60 64 55 30 57 89 77 71 79 95 106 113 114 112 106 101 94 87 81 82 79 82 84 93 103 114 121 122 116 114 110 103 93 79 72 67 65 68 72 80 83 86 90 92 93 92 86 75 63 58 56 31 57 81 77 85 99 107 112 115 115 114 109 105 103 97 93 89 89 89 89 95 107 116 120 120 115 112 107 99 89 81 77 77 80 84 86 92 96 100 101 102 100 99 97 90 80 66 57 33 53 86 92 100 103 105 107 110 112 113 110 108 105 99 94 93 93 94 97 101 108 114 119 118 114 110 104 96 87 84 83 83 87 93 97 100 104 103 104 100 97 95 94 94 89 79 70 35 57 94 98 102 102 103 102 104 101 96 92 90 89 91 93 94 95 96 99 104 108 114 119 121 117 112 104 95 88 85 85 87 94 97 95 91 87 86 85 86 90 91 90 90 88 86 79 43 60 100 101 100 100 100 94 82 75 73 70 67 73 77 79 84 90 96 99 105 111 117 124 124 121 116 105 96 91 88 88 92 91 85 87 79 71 69 68 65 69 78 85 84 86 85 82 50 64 103 101 98 94 86 74 62 52 49 49 50 47 49 62 76 83 92 98 104 111 118 128 131 124 119 107 99 91 88 92 90 85 79 60 51 46 54 46 48 54 64 72 79 83 83 84 52 65 106 103 95 84 70 54 48 58 65 54 55 42 46 60 60 75 90 99 102 111 118 127 133 125 122 107 100 90 89 92 91 68 62 63 68 46 44 45 56 48 48 59 71 78 81 86 54 67 108 103 88 68 59 57 61 79 85 49 45 46 53 86 80 70 88 110 107 112 118 127 134 129 123 109 100 90 94 102 71 63 94 84 51 43 45 49 72 61 51 49 55 68 79 88 56 69 113 111 101 86 77 73 73 74 77 79 76 78 83 87 90 95 97 115 109 114 120 125 130 127 123 110 101 92 98 107 99 97 90 86 80 75 75 74 71 69 61 64 62 68 82 92 59 71 116 116 112 102 96 92 95 97 99 98 94 93 95 99 104 109 112 113 109 115 121 125 128 123 120 109 103 99 96 106 106 104 102 101 99 97 93 91 87 84 80 78 81 87 94 98 62 72 117 116 117 114 114 112 112 112 110 108 105 102 100 104 107 109 112 112 113 117 118 121 123 120 117 106 102 104 101 101 104 104 104 101 100 98 97 95 94 94 93 94 97 99 100 101 63 72 116 120 120 119 119 120 120 119 115 113 111 110 109 110 111 113 116 114 116 116 118 119 117 116 111 105 100 104 107 107 106 108 110 110 110 109 107 105 107 108 107 107 108 106 104 102 63 72 118 123 123 123 122 122 122 122 119 116 115 113 112 114 116 117 117 117 117 115 115 114 114 112 107 102 100 99 110 113 109 109 111 113 115 117 118 119 119 119 118 117 113 109 108 103 63 73 121 125 125 122 123 124 121 121 120 118 117 118 117 120 122 120 119 119 114 113 113 113 113 110 104 100 98 99 106 112 114 112 115 115 116 119 120 121 123 121 122 121 116 113 109 104 64 73 122 125 127 127 127 126 125 123 124 122 121 121 123 125 124 122 119 116 113 112 112 112 112 112 106 98 97 99 102 110 117 115 117 119 120 121 122 123 124 124 125 123 119 114 111 105 63 73 121 127 130 131 129 129 129 126 125 125 125 124 124 125 125 123 118 114 111 110 111 113 112 110 103 96 97 98 101 107 113 118 121 118 122 123 123 125 127 127 128 126 119 114 109 106 63 73 121 126 132 133 131 130 129 128 129 127 126 126 124 126 126 122 117 112 110 108 111 114 114 110 103 95 94 96 100 105 109 118 124 125 126 126 126 124 126 128 130 126 118 113 108 104 63 72 119 126 131 131 129 131 131 130 129 128 127 125 125 127 127 122 113 109 107 106 109 112 114 110 100 93 90 93 96 101 107 116 122 127 127 129 129 128 129 129 128 121 115 110 107 102 61 72 120 125 128 129 132 132 133 130 130 128 128 127 126 125 125 119 108 104 105 106 110 113 113 110 101 94 90 89 91 93 101 113 119 124 129 130 130 130 130 130 127 120 114 110 106 100 60 70 118 123 126 128 134 135 134 131 131 130 128 125 123 121 119 109 105 104 106 107 113 119 117 116 105 96 93 90 92 90 91 103 114 120 123 129 130 129 131 128 125 119 114 108 104 98 59 69 115 120 125 130 134 135 133 132 130 127 125 122 121 117 112 106 108 109 111 113 122 126 116 117 107 97 95 93 95 92 87 93 108 116 120 123 125 124 124 122 120 114 110 105 101 97 57 67 113 117 122 127 132 134 134 130 129 125 122 119 115 112 108 107 111 114 117 114 115 113 108 106 99 95 97 100 98 93 88 85 97 107 114 118 119 119 117 117 115 113 107 103 99 94 54 66 111 114 117 123 127 131 131 127 125 122 119 114 111 111 102 106 111 111 106 101 99 98 97 95 88 85 90 98 100 94 86 79 87 101 110 114 116 118 117 116 113 108 105 100 96 90 53 64 108 112 115 120 123 126 126 124 119 117 113 109 109 109 100 101 101 90 70 75 91 93 91 88 79 73 71 85 92 89 81 78 85 94 103 109 112 115 113 112 109 105 102 97 92 87 51 63 104 107 112 116 119 122 120 117 114 113 110 109 111 110 102 95 88 67 58 67 80 86 84 81 66 50 48 60 81 79 78 86 92 94 99 106 108 109 110 108 107 105 99 94 88 84 50 61 102 104 107 110 114 117 118 115 111 110 110 112 114 111 105 99 86 77 91 99 96 85 75 70 63 68 64 61 70 72 88 93 96 98 100 103 104 106 105 106 104 100 95 90 85 81 49 60 99 102 105 108 110 112 113 112 109 111 112 114 114 111 108 109 106 104 105 106 103 93 82 85 95 97 90 78 80 93 98 97 99 100 101 102 101 104 103 101 99 97 92 87 83 79 48 60 99 99 101 105 107 109 110 109 110 111 111 116 115 114 114 114 115 115 112 112 110 107 104 109 110 106 102 101 102 102 100 101 103 103 103 101 102 101 101 99 97 93 89 85 81 78 47 61 99 98 99 104 106 108 109 108 109 109 112 114 116 115 116 117 116 117 116 117 115 115 111 115 114 110 106 104 104 103 101 102 103 104 103 101 100 98 99 97 95 91 86 83 79 77 47 62 101 99 100 104 107 107 107 108 109 109 112 112 113 113 114 116 115 115 115 116 116 113 108 112 114 111 105 103 103 101 100 101 100 101 101 99 98 97 96 95 92 87 83 80 79 77 48 62 102 102 100 103 106 107 107 108 106 106 108 108 109 109 111 114 113 110 111 111 109 109 108 109 109 105 98 97 98 98 97 98 97 95 96 94 94 96 94 94 90 86 82 79 79 78 48 62 102 101 100 103 106 108 106 107 106 103 104 103 101 103 105 103 99 92 86 86 83 84 93 89 80 75 75 75 78 86 88 90 90 89 89 90 91 93 93 93 88 84 82 79 79 77 47 60 101 101 101 102 106 108 108 108 104 102 98 94 90 90 83 75 72 70 71 72 70 70 72 69 66 68 66 63 62 63 66 75 81 81 82 84 89 93 95 91 88 84 80 79 78 75 45 59 100 101 102 102 105 107 108 108 104 100 91 83 71 63 62 62 65 65 67 67 66 65 64 61 62 62 58 56 57 56 54 55 60 68 75 84 90 92 93 89 84 82 80 79 76 72 43 57 97 100 101 102 103 105 105 106 102 97 90 86 79 70 76 80 85 84 85 89 87 83 81 79 83 84 81 78 75 69 60 56 60 68 74 84 91 94 91 88 83 80 79 76 73 70 41 55 94 98 100 100 102 104 104 104 102 99 95 95 97 95 89 88 95 100 101 105 103 102 103 102 103 102 99 92 90 81 76 79 84 81 80 87 93 94 90 85 81 78 76 73 71 67 39 53 91 95 98 98 99 101 102 101 101 100 101 102 101 99 96 89 85 88 95 102 101 100 99 98 99 96 90 82 77 73 75 80 82 84 84 90 91 90 85 81 78 75 73 72 68 64 35 47 86 92 95 97 96 97 98 98 99 100 101 104 103 100 98 94 89 89 85 85 88 88 88 87 87 82 76 74 73 74 76 79 83 85 88 89 87 84 80 76 73 73 71 68 65 58 28 33 77 87 93 95 94 94 95 95 98 102 102 103 103 101 97 95 91 88 88 87 84 83 83 82 81 80 77 75 74 74 78 80 82 86 88 85 83 78 73 71 71 70 68 65 61 47 25 28 58 81 89 93 93 93 94 94 99 104 104 102 102 102 99 96 93 90 87 83 79 77 76 74 73 72 72 73 75 75 78 79 83 85 84 82 80 74 70 68 69 69 66 61 51 40 25 28 52 81 83 89 91 92 93 95 97 101 103 102 102 102 102 100 97 95 91 89 87 86 86 84 82 79 78 78 77 79 80 80 82 84 81 81 77 72 68 67 68 66 62 53 41 41 25 28 49 87 82 83 88 89 91 92 94 99 101 102 103 102 101 101 101 101 100 96 95 95 93 91 88 85 83 81 81 81 82 82 83 83 81 79 75 71 68 68 66 62 56 43 40 40 25 28 49 86 90 80 81 86 88 89 92 95 99 103 103 104 102 102 103 104 105 104 101 101 97 93 92 90 87 85 85 84 85 84 83 82 80 76 72 69 68 65 62 57 53 40 40 40 25 28 48 86 94 88 80 80 84 86 89 92 96 101 104 104 104 104 105 106 107 105 103 97 97 95 93 92 90 89 88 86 86 85 83 81 76 73 69 66 65 62 57 54 54 40 40 40 24 28 48 86 95 93 87 81 78 82 85 89 93 96 101 101 101 103 104 105 104 101 98 95 94 92 91 90 90 88 87 86 86 84 81 78 72 68 67 64 60 55 53 58 53 39 39 39 25 27 47 85 94 96 93 88 81 78 81 84 89 93 95 98 99 100 101 101 98 98 94 92 90 88 88 86 86 87 86 84 83 81 78 73 68 64 61 58 54 53 57 62 49 39 39 40 24 28 48 87 95 98 97 93 87 81 79 78 84 88 91 93 95 95 95 95 94 92 91 88 85 85 85 83 83 82 83 81 79 76 72 68 63 59 56 54 53 57 62 64 45 38 39 39 24 28 48 87 96 100 100 95 89 86 82 79 78 81 86 88 90 89 89 87 86 83 83 83 82 80 81 81 79 78 76 74 73 70 66 61 57 55 53 54 57 61 65 63 42 38 38 39 24 28 47 87 96 99 101 98 93 90 86 84 80 76 77 81 83 84 83 81 78 76 76 76 75 74 76 75 71 71 69 68 66 63 60 57 54 53 54 56 61 65 67 63 40 38 38 39 24 28 47 87 97 99 101 100 98 93 89 87 85 82 77 74 74 75 76 75 72 71 71 69 68 68 66 65 64 64 63 62 61 58 55 54 54 54 56 60 65 67 68 60 38 38 38 38 24 17 30 54 60 62 62 63 61 60 57 56 55 53 51 47 46 45 43 43 42 41 41 41 40 39 39 39 39 38 38 36 35 34 33 33 34 35 37 40 42 43 42 35 23 23 24 23 15 