P2
48
60
255
41 68 66 69 70 72 74 75 77 75 80 79 79 80 81 85 84 84 84 82 82 81 80 85 81 82 81 82 81 81 82 80 80 82 82 79 76 74 75 70 69 71 68 66 65 61 60 36 65 108 109 111 113 117 121 124 124 123 126 132 132 135 138 135 136 134 136 137 136 134 134 134 133 134 132 137 134 133 130 129 130 135 135 132 127 122 123 119 117 113 114 107 103 100 98 60 65 107 109 110 114 118 122 124 124 124 131 133 138 138 139 140 141 138 137 136 135 135 132 134 135 133 133 136 134 133 129 128 131 136 135 133 127 126 123 122 120 116 113 107 102 100 96 59 65 106 107 109 114 119 123 125 123 125 129 133 137 140 137 138 140 139 141 140 137 137 136 136 135 134 135 138 138 134 133 128 131 134 133 133 130 127 125 123 122 120 115 107 103 99 97 59 64 105 105 110 115 119 121 123 122 128 129 133 137 136 129 130 133 137 139 141 136 139 139 135 136 133 135 135 137 134 133 129 129 131 131 133 133 123 122 120 122 120 118 109 103 100 97 57 63 104 106 112 119 117 117 122 123 127 131 134 136 138 136 130 129 132 135 139 136 138 136 131 132 134 132 133 133 129 129 131 132 131 133 132 130 127 124 121 120 116 114 111 105 100 96 57 63 104 108 113 115 111 113 116 120 120 127 123 123 128 126 125 126 124 128 133 135 131 129 128 129 131 126 128 126 126 124 123 121 123 123 120 119 121 120 119 117 113 105 106 103 100 94 57 63 102 109 108 106 103 105 109 111 112 113 109 110 110 108 113 117 116 118 122 132 128 127 127 130 129 125 123 122 117 112 104 103 101 102 104 109 110 113 114 109 107 99 97 99 101 95 57 63 102 105 101 98 100 103 112 107 105 103 98 96 95 91 96 103 102 110 116 125 132 131 131 131 124 118 116 111 104 97 90 87 85 92 96 98 99 101 107 104 100 92 91 91 97 94 56 63 105 98 95 99 101 108 116 120 121 118 116 111 106 103 101 97 99 105 114 120 131 135 132 131 124 113 106 100 95 92 94 96 97 105 109 114 117 117 109 102 97 91 87 83 86 89 55 61 97 93 95 102 110 114 120 125 127 129 127 123 118 113 106 99 97 102 110 119 131 139 136 131 124 112 102 94 91 98 106 112 118 123 125 125 125 122 117 112 105 101 92 82 81 81 53 63 95 94 97 103 106 113 121 126 128 129 125 122 121 122 120 113 105 103 110 115 129 142 138 136 126 110 99 95 99 110 123 127 128 127 129 127 126 120 112 110 106 101 96 86 81 76 50 63 98 96 96 100 105 110 116 119 116 106 98 94 90 96 105 109 105 103 109 117 128 136 136 136 123 108 98 92 98 116 122 119 109 104 105 111 113 112 110 107 102 97 92 87 82 81 52 64 101 96 96 99 102 103 99 91 104 104 94 94 95 93 83 86 94 97 106 114 123 135 136 132 119 106 97 90 91 103 96 86 89 100 105 105 103 101 91 89 93 92 89 84 80 80 50 64 100 96 93 97 93 81 86 76 63 55 47 42 62 71 83 87 88 90 104 108 121 132 132 130 118 101 94 92 83 86 87 94 89 72 73 51 57 64 80 87 78 81 86 81 79 78 49 67 105 97 89 83 65 76 68 79 72 49 34 33 54 88 75 75 94 107 108 109 119 124 125 120 114 96 94 98 98 101 80 81 101 90 56 26 32 45 58 64 74 73 64 77 77 78 48 69 108 99 84 63 73 84 85 97 101 66 58 59 74 106 94 93 90 112 111 108 119 123 121 117 110 97 96 99 103 86 96 106 116 115 65 51 50 53 86 79 72 72 64 57 70 77 51 72 114 108 91 81 90 96 107 111 113 112 110 111 110 107 102 105 107 109 110 104 118 122 119 115 105 95 95 95 95 101 109 108 113 115 107 98 87 97 104 104 94 80 77 68 66 77 52 74 116 110 97 93 104 103 108 111 115 114 112 107 100 96 93 98 102 109 109 102 114 123 119 116 101 94 95 93 95 93 99 99 102 107 113 110 110 108 105 100 92 90 90 79 75 87 59 74 120 113 102 97 108 111 114 120 118 115 109 104 96 93 98 98 107 106 107 103 111 124 121 115 97 92 94 93 97 92 98 106 107 108 112 106 102 101 102 102 104 103 96 85 82 90 61 74 119 111 103 100 105 113 118 122 119 116 112 106 103 100 100 105 109 104 106 103 109 122 121 113 94 94 95 94 95 99 97 104 111 114 113 108 113 110 113 110 108 103 92 85 87 93 62 73 118 111 110 107 106 111 117 121 119 114 112 107 103 100 107 110 106 105 106 102 107 120 120 115 94 92 95 94 96 104 106 105 108 115 119 120 117 113 110 115 113 104 95 90 94 99 64 71 117 116 117 118 118 117 117 116 114 113 109 105 104 112 116 111 107 108 107 103 104 114 117 108 94 90 94 95 96 102 107 112 111 110 117 118 119 118 116 114 111 105 104 108 106 104 63 71 117 119 120 124 124 126 122 120 118 116 112 112 115 119 116 113 109 108 106 102 106 115 114 106 95 88 93 96 96 99 104 108 117 117 114 118 124 122 119 118 116 96 108 113 110 109 65 70 116 117 122 123 128 131 124 124 123 122 123 122 118 117 117 114 109 107 104 104 111 114 111 109 102 90 92 94 95 99 104 108 113 119 121 119 121 125 126 124 122 109 112 114 111 107 65 70 115 118 119 122 124 128 129 129 128 126 124 122 121 117 118 114 105 102 103 102 110 114 112 112 102 88 88 90 90 95 104 110 114 115 120 119 117 121 125 125 123 118 115 114 109 102 63 68 112 116 119 118 119 125 126 129 124 124 127 125 122 121 114 103 96 97 100 105 118 116 111 111 104 87 86 86 84 86 93 109 119 121 117 120 119 123 122 122 121 117 113 111 107 103 63 67 111 115 116 113 114 120 124 126 124 126 129 130 125 119 103 100 100 100 104 117 135 123 111 115 105 90 85 85 84 86 85 91 107 120 120 120 120 125 127 127 122 119 111 107 106 102 63 68 111 111 113 114 116 120 124 124 122 125 131 132 123 110 105 106 102 100 108 128 126 120 115 119 112 89 84 83 84 90 90 83 89 108 115 120 119 123 124 126 120 116 112 106 102 103 61 68 110 114 113 114 116 122 122 126 123 125 130 123 112 102 106 106 101 96 99 106 105 106 108 105 99 86 85 80 85 94 93 84 74 86 99 118 124 126 125 125 123 115 107 104 101 99 62 68 110 113 110 110 111 119 121 125 127 128 123 111 99 98 99 82 74 87 90 94 94 96 97 93 87 82 83 81 78 82 89 85 65 69 88 111 120 125 123 122 119 115 109 104 98 99 58 67 110 108 107 106 110 115 119 126 127 125 115 98 93 98 87 63 46 56 74 89 88 86 89 86 81 74 53 45 41 49 74 81 70 60 76 100 115 120 121 119 117 112 105 100 98 97 58 67 112 111 107 103 108 113 117 126 125 118 108 97 98 106 99 78 74 94 96 94 86 78 80 80 79 73 79 77 67 59 76 90 87 66 68 91 105 113 119 120 116 107 103 101 94 93 57 66 111 112 108 103 108 113 114 120 120 115 105 96 105 112 114 103 82 85 92 99 93 76 64 70 79 82 84 82 77 82 92 98 98 85 68 84 102 108 117 118 115 111 106 104 94 93 57 65 108 112 109 105 108 112 116 116 115 111 102 101 108 116 114 111 103 103 99 99 103 101 88 87 90 94 91 88 88 91 93 96 100 98 81 85 100 109 116 117 114 108 103 99 96 93 59 62 105 110 104 105 106 111 115 113 114 112 108 108 113 115 116 113 110 110 108 106 110 111 104 99 103 103 96 93 94 97 97 97 100 101 98 88 101 109 114 118 114 106 104 99 93 96 60 59 101 103 99 105 107 110 115 112 114 112 112 112 115 114 114 114 110 114 113 113 118 116 110 108 112 110 104 101 100 101 100 101 101 105 104 99 100 109 115 113 110 104 104 96 93 98 61 56 100 103 101 102 108 113 116 115 115 116 116 114 113 112 112 112 112 116 117 119 121 120 118 117 117 115 111 105 106 106 102 103 101 103 104 105 104 110 114 114 111 109 109 100 92 97 58 55 97 105 104 99 106 115 118 115 118 117 114 115 112 108 110 108 110 115 119 120 121 121 121 120 121 118 115 108 105 106 106 105 103 104 101 103 108 112 115 114 112 111 108 102 97 95 57 53 93 103 104 103 108 115 118 118 117 118 114 113 109 109 107 104 111 109 105 104 102 100 102 110 104 94 90 89 91 92 97 103 99 101 101 100 107 112 119 117 114 110 108 102 96 92 56 52 92 100 102 100 107 113 118 122 121 116 112 111 107 108 105 100 94 92 97 96 94 94 96 94 90 88 85 84 84 82 80 81 88 99 96 101 106 108 117 117 115 111 109 104 96 89 55 53 90 99 103 102 105 112 117 120 117 113 110 110 103 105 96 83 86 86 89 87 85 92 94 94 90 82 78 70 69 72 73 74 72 86 92 103 103 104 114 118 113 112 106 103 95 91 55 54 87 100 103 103 107 114 117 118 112 108 106 109 100 95 77 74 75 73 72 72 73 81 81 79 75 73 74 70 70 63 64 63 63 68 80 98 102 101 113 119 113 111 106 100 92 91 56 53 91 95 100 102 107 111 117 118 111 105 102 101 91 83 66 71 82 85 90 89 92 94 93 94 95 101 105 98 93 87 80 73 59 60 74 91 100 100 109 118 114 110 103 97 91 91 56 52 89 92 97 102 105 107 116 115 109 104 102 94 80 67 75 88 91 96 102 103 105 106 105 106 105 107 105 99 88 83 83 82 81 87 89 91 96 100 109 115 115 106 100 95 93 90 56 52 87 91 95 101 101 105 109 113 109 105 97 85 84 88 87 83 88 95 107 119 111 108 107 109 108 105 103 95 88 84 86 85 87 88 89 97 103 104 110 113 112 103 97 92 91 91 56 52 87 91 94 97 100 102 105 105 105 101 96 89 95 93 89 89 90 93 100 108 108 108 109 106 101 101 95 91 88 84 86 88 86 89 91 99 105 108 111 111 109 103 95 91 90 92 55 54 85 91 94 94 97 99 101 103 101 100 94 97 98 98 95 93 95 97 99 98 95 93 96 90 83 81 79 81 85 85 86 87 89 89 94 99 105 104 109 110 106 99 91 91 88 87 53 99 85 88 93 94 95 96 98 98 98 97 97 97 97 97 97 94 93 94 87 78 67 61 60 63 61 62 69 76 79 84 89 90 90 92 95 95 100 101 105 102 99 94 90 88 87 87 54 142 109 86 90 92 95 96 95 92 88 91 93 97 97 95 93 93 91 86 77 69 69 68 71 73 76 80 82 84 87 91 91 92 91 92 92 92 99 97 98 95 96 90 88 87 87 87 54 149 175 83 88 92 95 94 91 90 83 86 94 96 97 95 94 93 93 91 84 84 86 84 85 86 87 91 95 96 95 93 91 91 92 92 91 93 97 99 96 92 91 88 86 83 84 87 52 149 201 84 84 89 90 93 92 89 90 90 91 91 92 93 92 92 92 93 92 96 101 106 102 103 101 104 103 100 97 92 88 89 92 92 93 93 93 93 94 90 88 88 86 82 83 88 53 149 204 87 82 87 89 91 91 91 92 89 90 92 92 93 91 91 93 93 100 104 109 106 107 106 109 108 109 104 97 91 92 96 99 95 92 92 91 91 88 87 85 83 83 84 84 85 50 150 206 90 82 84 87 90 92 90 91 90 93 93 92 91 95 92 91 94 104 109 111 108 105 103 108 109 109 107 99 93 94 97 98 98 93 89 89 89 87 85 83 83 83 83 83 82 49 151 205 95 84 82 87 86 86 89 90 87 92 95 94 93 95 96 96 96 101 109 113 105 102 103 106 107 110 109 103 93 96 99 98 98 91 90 87 85 85 84 81 82 82 82 83 81 49 150 207 95 86 84 81 84 86 89 85 85 90 92 90 91 96 100 95 94 100 103 111 108 101 102 106 108 106 104 103 88 93 102 99 95 89 87 81 82 77 77 79 81 82 83 81 81 50 150 180 96 94 87 83 81 83 84 85 84 88 90 91 92 97 96 93 91 94 98 98 100 103 106 106 105 100 94 88 84 91 100 97 90 85 81 76 79 77 78 80 80 79 81 81 79 47 137 132 95 95 90 85 83 84 81 83 84 87 87 90 90 92 93 91 92 88 92 96 97 98 102 100 99 95 88 83 84 92 96 90 86 79 77 76 75 75 76 77 76 78 80 79 78 46 97 114 97 98 97 88 87 85 85 82 80 83 86 90 91 92 91 91 92 87 89 91 91 92 95 95 90 79 84 81 85 92 90 88 81 80 76 76 77 74 75 76 78 78 78 78 76 49 51 82 62 61 63 57 54 53 52 53 51 50 51 54 57 54 58 59 56 55 55 56 56 56 57 55 52 50 53 51 52 56 54 53 50 50 50 47 47 48 44 44 46 48 47 48 48 30 