P2
48
60
255
12 19 19 19 22 21 23 27 29 29 30 35 38 40 40 50 51 39 42 31 28 25 22 25 34 34 42 32 30 25 27 23 21 25 24 21 20 20 20 20 20 22 22 21 21 21 20 12 20 30 30 31 35 35 37 45 46 49 68 73 69 70 73 79 84 75 65 53 48 40 37 39 48 54 66 56 48 44 43 41 35 36 39 38 32 32 32 32 33 34 35 34 34 34 33 20 18 29 30 31 34 37 41 47 49 55 84 74 72 72 78 81 78 82 68 58 46 39 41 47 43 54 60 65 54 50 46 44 37 37 38 36 33 32 31 33 33 35 34 35 35 34 33 20 18 28 29 30 32 38 45 50 50 61 77 71 75 85 84 82 75 75 72 79 47 43 39 49 44 47 58 64 66 64 58 50 42 37 37 36 34 32 33 33 33 35 36 34 34 38 35 21 18 28 29 32 34 50 61 56 48 63 71 71 77 81 76 75 70 68 78 81 53 46 41 51 51 43 61 70 77 81 78 56 48 41 37 37 34 34 33 36 34 35 38 34 33 34 34 21 17 28 31 33 40 60 64 55 54 64 70 70 66 70 69 73 74 71 77 80 66 62 51 62 64 56 50 66 74 80 76 68 52 39 36 35 35 34 34 35 35 34 35 36 33 36 36 20 19 29 32 33 42 44 47 50 44 48 52 56 52 52 57 65 68 73 74 67 68 65 57 81 82 81 61 59 65 68 69 73 50 39 38 36 34 37 36 40 42 41 38 38 35 32 33 21 19 29 30 34 37 38 39 36 36 37 41 41 39 41 43 49 56 63 72 69 80 87 68 86 94 95 87 65 64 59 63 64 52 45 43 40 39 44 55 64 74 68 56 53 45 35 32 20 19 28 30 35 42 47 45 39 38 37 44 42 42 39 41 45 48 56 66 76 84 88 77 97 103 99 101 89 71 59 60 67 59 53 51 52 63 74 89 97 103 95 90 77 65 44 35 21 20 30 43 57 64 66 68 58 54 46 46 48 47 47 46 47 51 54 64 75 87 89 89 103 109 112 110 103 85 70 69 70 66 66 62 64 68 76 85 91 96 95 98 100 87 57 46 19 20 37 57 73 84 79 80 68 65 56 50 51 52 51 54 56 58 60 64 72 85 97 98 112 117 119 115 108 91 81 77 73 68 62 56 59 64 65 62 67 77 87 93 98 101 76 68 22 22 53 70 79 80 73 62 56 58 58 59 55 51 48 51 58 62 65 68 77 91 108 115 123 131 125 121 110 98 87 79 70 61 66 76 81 87 87 88 83 68 70 85 93 99 85 78 26 26 59 67 71 66 57 68 77 81 81 83 85 82 75 56 50 60 65 72 84 94 112 129 137 141 136 122 115 103 88 72 61 70 74 73 66 70 79 83 83 85 77 80 89 96 91 87 31 28 58 64 63 58 69 71 64 48 40 39 44 63 78 80 66 52 63 70 84 100 118 138 150 151 149 131 118 101 80 69 69 66 47 35 33 39 45 67 57 71 80 82 86 93 95 93 40 27 55 62 58 62 57 44 48 37 48 31 70 70 76 60 77 69 62 71 84 99 116 127 143 153 150 129 118 99 80 69 60 63 46 45 31 78 41 90 88 53 57 75 81 91 95 95 46 27 53 60 57 53 45 71 54 39 33 30 37 66 123 91 59 78 81 80 86 100 109 119 133 143 138 129 118 104 95 63 64 94 51 35 32 34 45 96 102 78 61 67 80 92 99 97 50 27 53 60 55 55 68 80 66 44 35 31 40 87 135 127 91 71 95 96 88 102 108 122 130 133 134 121 116 109 111 103 80 105 73 44 37 46 57 120 111 84 70 73 83 95 103 99 56 28 54 62 67 64 75 90 95 59 46 45 63 128 132 112 102 102 110 100 92 102 104 122 128 134 132 114 109 108 114 106 88 94 100 74 59 70 107 117 100 76 76 87 90 102 108 105 61 32 66 81 81 71 70 80 88 94 84 83 93 99 98 106 106 109 112 100 99 99 108 121 122 133 137 118 110 111 115 117 98 91 93 92 88 88 86 84 85 85 94 99 99 107 114 110 61 44 89 97 93 85 78 76 78 74 73 77 81 85 86 97 107 113 108 105 102 96 112 117 125 122 129 122 114 113 115 119 113 103 92 86 87 85 87 89 92 97 108 112 110 112 115 113 63 58 102 107 106 102 93 81 80 82 79 80 85 91 98 105 116 115 108 104 100 100 110 110 127 132 133 125 113 114 114 117 123 119 113 108 100 95 92 99 111 117 120 119 116 116 115 113 63 64 108 115 120 118 114 107 97 94 93 97 103 108 113 120 121 117 106 102 99 105 109 111 125 130 124 120 115 114 113 118 123 131 132 134 126 126 127 130 130 129 127 122 115 118 117 114 66 67 111 118 124 126 124 123 126 123 122 120 124 127 128 129 125 118 109 101 100 101 107 113 125 130 122 117 111 115 114 114 121 126 132 143 148 148 145 140 136 126 120 123 117 117 117 114 66 72 118 122 127 126 130 132 132 131 128 130 134 135 133 131 121 117 105 97 102 98 102 109 123 123 125 117 106 110 114 115 121 125 130 136 142 149 146 146 141 128 125 124 123 121 116 109 67 72 117 124 130 133 135 138 137 136 138 136 136 132 131 133 132 118 105 101 100 97 105 115 121 125 120 117 105 108 114 112 113 122 129 135 136 143 143 145 141 137 128 128 124 122 120 110 65 75 123 120 123 130 130 131 133 136 137 136 135 132 133 133 132 119 100 99 97 98 107 114 122 122 128 123 113 105 109 113 110 124 130 128 126 137 141 146 143 137 127 128 124 122 117 109 65 75 123 118 126 133 129 126 131 136 135 135 135 135 131 135 133 120 97 95 92 99 109 118 125 129 129 127 124 109 105 113 118 124 127 127 130 140 135 141 142 138 127 123 127 123 114 109 63 71 118 119 125 136 137 136 136 134 130 134 135 135 135 134 127 113 97 88 91 100 116 137 135 136 138 141 133 115 106 108 118 119 130 131 134 137 139 138 136 135 127 123 120 120 115 114 63 65 114 122 129 135 135 138 134 132 135 141 139 134 135 129 116 103 90 89 94 95 96 120 142 135 140 174 129 105 106 106 121 128 133 132 134 134 131 131 131 125 125 125 117 121 119 115 63 72 116 117 118 128 132 132 134 132 131 134 139 137 136 120 103 92 90 95 93 89 84 98 123 127 129 134 112 100 103 107 121 132 131 134 133 131 133 129 129 134 132 127 119 116 116 111 62 67 109 111 111 124 128 130 128 136 138 138 136 133 129 108 94 88 95 96 93 83 75 91 108 115 117 119 104 89 97 112 120 127 129 129 129 131 130 127 125 131 129 124 120 120 111 100 58 63 105 108 117 119 121 128 129 130 134 137 135 128 115 95 87 88 92 88 69 43 33 68 99 100 98 106 77 49 76 103 114 125 131 130 129 132 129 124 123 122 122 119 119 118 113 105 56 65 105 108 115 116 116 123 119 122 131 133 129 120 107 90 89 92 88 70 50 46 48 69 87 83 77 91 68 58 64 91 124 131 131 127 134 132 121 122 121 118 119 114 112 111 109 104 50 64 102 105 111 116 117 122 120 121 127 134 127 118 98 90 99 101 98 74 63 77 91 87 86 75 80 103 109 91 87 113 126 131 127 125 130 132 124 124 125 123 118 116 116 115 108 101 47 64 103 102 109 114 117 121 123 129 126 132 126 117 100 100 106 108 99 87 91 87 87 91 86 79 95 110 108 104 113 120 127 133 131 130 130 132 130 119 115 121 123 114 117 115 105 97 41 62 98 103 111 112 115 116 117 122 127 128 121 115 108 107 108 106 96 90 97 98 100 107 109 99 104 118 110 108 118 115 124 128 134 132 133 132 125 131 118 127 125 119 118 115 105 92 32 59 95 102 105 106 110 110 104 115 122 125 119 116 116 114 110 103 100 100 100 110 115 129 127 114 121 130 120 117 120 109 119 128 133 136 133 128 130 127 120 121 124 119 118 110 101 83 21 55 95 97 103 105 106 102 111 117 121 124 118 118 122 120 114 110 113 116 118 121 126 133 126 123 128 127 122 127 125 119 121 125 124 132 132 125 127 127 120 120 123 119 115 108 102 74 18 56 94 94 101 103 107 106 113 114 121 121 120 119 122 122 119 114 120 119 124 125 130 137 131 126 131 137 129 128 128 119 117 125 120 130 131 128 124 123 120 122 115 119 112 108 101 64 18 58 95 95 93 97 102 105 107 109 117 119 121 120 116 122 120 118 115 119 121 124 133 134 138 133 135 133 126 130 129 123 118 123 120 127 129 129 124 126 123 119 120 117 113 108 99 54 18 58 94 93 96 96 100 103 100 98 113 118 119 120 115 114 110 111 111 115 114 110 109 114 120 124 110 107 120 124 128 121 116 118 120 118 124 126 126 126 123 119 117 113 113 107 97 45 18 57 95 96 98 98 98 101 103 107 112 114 114 112 107 103 102 102 96 92 85 84 89 91 91 96 85 96 101 104 107 115 116 114 116 113 112 119 124 123 121 121 115 113 111 105 96 36 18 59 98 98 98 93 101 102 104 107 110 111 110 104 92 86 87 81 73 66 66 72 72 74 76 81 82 84 84 82 82 87 96 106 110 107 109 113 117 122 120 117 117 112 108 105 88 31 17 61 97 99 100 102 103 105 107 104 105 109 110 95 66 59 63 65 72 77 88 96 94 91 79 63 78 87 87 85 79 70 70 82 87 95 104 111 115 121 117 116 115 110 109 103 74 29 17 60 99 100 102 104 101 104 106 104 105 109 107 89 73 77 94 106 113 116 122 123 125 122 124 117 124 131 132 123 113 106 86 71 58 73 94 108 111 114 112 115 113 108 108 101 53 29 18 61 100 100 102 102 105 103 104 102 102 105 111 115 114 103 100 106 111 114 117 126 127 123 121 131 131 137 145 130 115 113 105 106 109 101 97 105 112 113 112 114 111 111 107 92 36 30 18 60 94 100 101 102 104 102 104 101 103 105 117 119 113 103 100 100 106 103 104 110 115 116 115 112 118 117 126 115 106 105 106 114 121 119 108 107 109 114 113 112 110 107 102 73 31 29 17 59 95 98 101 102 99 103 105 104 105 106 115 117 112 103 104 105 105 100 100 102 102 105 112 111 110 101 104 105 104 106 110 118 114 121 115 110 111 112 112 111 109 106 97 47 30 29 17 56 93 96 99 100 100 99 103 101 97 104 109 113 110 107 103 103 102 98 94 92 85 84 90 93 88 89 92 91 101 107 108 116 113 119 115 111 110 110 110 108 105 103 79 32 32 30 18 55 94 97 97 96 91 97 99 102 101 101 103 107 108 103 104 102 101 97 95 95 87 73 69 73 69 74 85 95 100 105 106 112 112 112 109 109 107 108 106 107 104 95 49 32 33 29 18 54 90 92 96 96 97 97 97 99 95 99 103 101 103 102 103 106 105 106 102 98 97 94 94 96 98 99 104 104 105 108 106 107 106 110 110 108 108 110 106 105 98 74 35 34 31 30 20 52 88 92 94 95 95 95 95 97 92 95 99 94 93 101 103 106 108 110 110 111 115 123 128 131 131 130 128 123 115 113 109 103 106 107 103 102 109 109 107 103 88 46 34 34 30 33 20 46 86 91 93 93 92 89 93 95 95 94 97 94 94 98 99 105 110 113 116 125 133 132 138 138 140 142 143 134 126 117 109 107 107 107 106 106 111 107 103 95 61 37 34 33 31 31 19 36 77 87 90 92 92 92 94 90 93 96 100 96 94 101 101 104 109 114 122 127 131 126 132 138 141 139 137 134 126 117 111 111 109 113 114 110 110 106 99 76 41 36 33 30 28 29 18 24 60 79 85 88 90 92 94 92 89 96 101 103 103 105 104 107 110 116 120 124 128 130 134 130 136 136 129 127 121 117 115 115 103 112 117 112 108 100 85 44 39 36 33 29 29 30 19 18 39 63 78 86 89 90 93 93 88 93 101 102 102 108 114 114 117 117 124 125 124 128 132 129 134 135 126 120 112 118 118 118 107 113 116 111 103 91 52 36 40 34 31 29 29 29 20 18 31 39 63 79 85 87 90 93 95 98 99 105 107 109 112 115 118 120 121 125 128 133 129 124 129 133 126 125 114 120 120 115 110 111 112 106 94 59 32 35 40 34 31 28 29 32 20 18 31 34 39 59 77 83 88 90 92 96 98 102 107 111 111 115 119 119 113 117 122 130 129 123 125 128 120 124 116 119 119 112 110 107 106 96 66 33 32 35 38 32 29 30 31 36 26 18 31 34 36 39 54 73 81 85 89 93 95 99 98 103 97 113 115 112 105 108 115 123 126 127 120 125 122 119 115 120 116 108 112 102 97 77 41 31 32 34 35 31 30 32 37 39 27 11 19 21 22 23 24 32 45 49 52 54 55 58 59 62 63 68 69 69 65 64 66 68 69 72 71 74 74 73 72 72 72 69 68 63 53 45 23 20 19 21 20 19 20 21 26 26 16 