P2
48
60
255
17 31 35 41 43 35 39 42 44 45 47 51 60 69 71 59 64 69 68 70 78 64 69 59 53 63 69 72 77 98 100 97 95 95 94 90 86 83 80 81 83 82 81 80 78 71 65 37 25 48 56 65 64 57 65 70 70 75 81 86 103 111 113 106 104 116 116 115 129 100 115 101 109 103 104 117 130 156 161 159 162 157 153 150 142 137 136 137 134 134 135 132 127 116 106 58 24 49 56 62 64 63 63 68 74 80 83 92 108 122 118 110 103 122 126 121 123 103 122 104 137 120 98 116 130 162 165 169 170 164 161 155 148 143 140 139 139 137 139 136 130 126 111 59 24 52 59 61 72 77 70 74 78 79 83 113 118 124 121 103 111 127 133 122 123 107 119 129 137 140 100 108 137 165 169 171 175 176 167 159 154 148 145 141 144 142 139 136 132 128 120 60 25 54 60 71 73 73 70 75 80 85 90 114 122 127 109 98 115 131 127 117 118 119 115 140 134 150 101 109 140 166 169 178 176 176 175 166 161 151 148 145 146 146 141 135 130 128 123 65 31 54 64 67 61 64 70 79 81 85 108 111 114 110 109 101 120 126 119 112 113 132 128 140 143 147 109 96 143 162 166 172 176 176 170 166 160 152 146 143 148 147 142 136 132 126 124 69 34 61 60 62 60 65 69 77 73 72 88 99 98 100 100 109 117 119 105 116 120 140 141 149 150 152 139 111 136 155 159 161 164 163 159 161 161 153 145 139 136 143 139 137 132 128 124 72 35 57 58 58 61 62 62 62 62 69 71 72 71 76 85 98 104 106 96 119 139 152 147 148 146 154 156 149 143 146 144 144 139 127 123 132 139 127 125 116 114 129 137 137 132 129 125 74 30 59 60 56 60 66 68 60 61 59 56 54 54 56 62 66 75 81 100 120 139 147 138 132 133 141 146 141 132 121 102 92 92 84 76 80 90 96 106 105 108 108 126 134 131 128 124 75 32 55 53 64 75 75 77 74 73 63 61 59 55 48 50 55 59 67 91 112 130 133 126 127 132 141 141 127 106 88 75 67 65 60 60 60 68 88 107 131 131 119 111 121 130 128 125 76 32 50 63 76 77 77 82 89 87 82 85 84 77 70 66 59 56 63 80 102 119 124 126 135 140 143 135 122 103 84 74 70 66 73 88 97 116 126 133 139 142 140 132 118 111 125 123 77 31 58 69 69 66 76 97 109 112 104 96 82 81 83 81 73 70 76 87 107 122 140 146 154 157 153 142 131 109 96 89 93 92 102 110 120 127 127 131 131 130 135 140 135 123 113 124 78 39 65 67 70 83 97 102 107 105 103 94 85 79 84 89 93 91 95 112 133 147 171 173 176 177 174 155 139 120 110 109 110 107 101 98 99 105 112 121 120 121 122 126 131 131 122 119 77 55 91 83 88 94 89 82 110 123 126 119 118 108 94 85 103 107 102 124 147 163 185 191 188 188 182 164 144 124 119 120 111 98 96 101 98 106 106 97 93 102 106 111 119 125 127 124 75 70 103 94 88 73 77 101 93 78 65 56 56 72 91 109 96 105 105 123 146 164 187 193 190 193 183 161 140 120 126 116 102 121 108 104 83 79 102 106 90 70 83 94 100 111 118 122 76 76 112 98 73 65 77 66 49 43 62 50 48 74 63 86 115 109 101 126 146 162 186 193 187 190 170 151 136 113 117 115 117 99 66 61 41 42 42 52 69 79 61 75 84 97 111 120 79 79 123 100 62 59 46 40 65 69 76 31 34 85 110 95 85 126 130 141 150 160 183 189 186 185 171 146 137 116 121 127 86 87 115 86 31 65 59 46 39 46 60 56 75 87 106 123 80 82 131 110 66 47 51 66 101 105 92 80 84 95 143 148 104 107 151 150 148 155 164 177 179 180 162 144 144 135 136 91 101 161 147 90 51 42 88 82 74 36 43 55 74 93 108 126 82 88 137 116 85 72 71 98 123 135 116 119 116 128 152 145 147 141 146 151 148 151 168 174 171 168 157 138 143 142 126 118 138 169 169 116 103 101 90 120 106 58 45 56 81 108 118 129 81 88 140 123 120 111 105 101 107 108 106 111 117 123 128 130 139 145 156 155 144 142 168 177 173 169 161 137 142 146 146 154 150 138 145 141 130 123 120 121 104 84 63 71 98 115 127 139 86 92 147 137 138 130 128 129 126 119 117 117 120 118 119 126 144 159 157 148 140 145 165 170 169 170 161 134 139 148 150 149 137 127 116 112 106 96 97 100 96 90 95 105 108 120 132 142 87 93 147 145 142 131 125 120 116 113 109 106 107 122 140 157 170 168 159 144 137 150 169 170 161 165 152 135 135 143 159 166 153 135 126 120 124 118 116 121 124 122 127 126 126 129 138 141 83 93 148 152 150 146 156 162 164 163 155 153 155 157 171 178 174 164 157 144 141 150 161 167 168 170 148 137 134 141 154 167 167 157 149 137 136 134 130 131 135 132 136 130 133 138 143 141 85 92 154 160 167 156 167 173 175 179 174 173 170 183 186 181 172 159 152 145 143 146 158 167 172 170 155 141 133 139 151 165 170 168 164 155 155 160 159 154 155 149 146 138 141 145 145 139 84 91 154 164 168 169 171 172 173 180 182 178 185 189 183 172 168 160 153 147 143 154 166 171 174 172 162 144 132 136 146 160 173 175 169 173 171 167 165 164 165 161 158 160 157 156 148 141 85 89 152 158 168 173 169 170 174 176 180 181 183 188 189 183 176 158 154 148 145 153 164 167 171 170 161 143 133 137 144 158 167 176 178 178 174 169 174 172 174 174 170 164 164 157 150 137 85 86 146 153 164 172 181 183 182 187 187 187 190 188 192 186 168 149 145 143 142 152 160 171 170 166 159 146 134 135 137 155 169 172 175 182 177 178 176 171 169 169 170 164 157 153 145 135 82 85 146 147 159 170 181 182 184 189 186 186 186 180 187 179 157 135 139 144 142 150 175 188 180 176 179 152 136 135 129 136 164 182 177 180 184 179 168 168 171 170 172 166 156 147 139 136 80 83 142 146 155 168 173 180 186 181 182 185 190 186 181 165 145 131 138 143 145 146 184 182 164 170 177 153 133 136 126 117 142 175 180 184 184 180 179 173 170 172 164 159 151 143 133 131 79 82 142 146 157 162 173 174 179 178 179 184 184 187 172 148 130 137 143 143 138 125 132 141 138 145 137 125 124 129 130 108 120 158 180 186 187 185 187 175 172 174 160 149 146 136 130 127 79 82 141 145 151 156 170 172 172 175 176 173 174 168 153 132 121 137 142 138 120 108 116 122 115 115 113 103 106 122 128 109 105 138 165 175 181 187 185 181 179 171 160 148 143 136 132 128 80 83 138 143 152 158 162 165 167 169 168 165 163 160 138 121 121 136 131 114 81 49 88 99 87 91 98 63 77 109 124 112 95 113 149 161 167 176 179 181 175 169 158 145 141 135 130 128 79 79 129 139 145 152 153 152 156 163 165 161 155 145 123 112 122 132 112 85 42 24 41 84 70 80 64 28 41 86 108 110 91 93 123 147 161 164 166 169 165 161 153 141 138 131 126 125 77 77 126 135 140 146 146 149 147 156 153 152 153 139 116 118 139 141 102 73 48 46 74 92 69 91 99 66 51 72 103 115 97 84 99 130 150 159 158 159 161 155 147 141 135 130 129 123 74 76 127 130 137 140 143 145 149 150 150 153 145 131 128 144 156 155 133 87 76 112 141 127 104 111 122 108 84 103 135 137 124 89 85 111 136 151 152 151 147 145 140 137 136 130 127 122 73 74 124 125 131 136 132 140 140 147 152 148 144 142 150 162 162 161 157 153 150 159 167 158 130 133 143 133 131 137 141 144 144 121 84 100 126 141 148 149 142 142 135 134 130 126 123 118 73 73 120 122 124 125 127 134 138 144 148 149 153 161 169 168 164 167 164 166 170 177 170 161 148 157 163 153 143 144 141 143 145 140 107 88 114 132 140 143 139 133 129 126 123 120 118 117 72 73 117 119 121 120 126 130 133 137 142 150 159 169 165 161 171 168 169 166 168 174 167 159 161 163 166 164 157 150 144 145 146 146 141 107 111 129 136 135 132 129 124 122 121 119 117 118 70 75 118 116 117 118 120 119 126 130 139 153 162 164 160 160 167 167 166 163 167 166 162 158 161 161 160 162 157 151 149 147 148 154 153 146 122 124 130 130 127 121 119 119 117 114 115 114 68 76 122 116 115 118 120 114 116 129 136 153 159 159 160 156 159 158 157 157 157 162 162 163 165 165 160 163 154 149 144 143 144 147 151 154 141 125 125 126 125 117 115 115 115 114 115 113 68 77 124 119 118 118 119 117 120 124 132 147 145 146 147 146 145 145 148 152 155 157 152 158 162 164 159 157 152 140 134 136 134 137 139 145 144 126 123 122 122 119 116 114 111 115 115 113 67 76 126 122 121 122 123 117 116 117 126 133 127 131 132 132 135 136 144 130 113 100 96 108 125 127 111 101 101 104 125 130 125 123 126 128 131 128 116 121 119 115 117 113 114 117 116 111 69 77 126 125 124 124 125 122 123 112 115 107 102 106 111 119 117 100 85 82 95 107 110 109 107 106 105 104 96 86 80 88 105 111 108 109 110 120 117 124 125 118 116 113 115 119 116 113 68 76 127 129 127 127 127 125 127 112 108 93 76 76 74 74 60 60 68 64 58 70 72 75 89 84 75 76 72 72 74 70 66 78 82 93 94 110 120 127 127 119 116 115 119 119 116 113 68 75 125 127 126 125 127 127 131 118 106 82 60 52 62 72 83 99 109 118 118 112 105 99 94 109 113 116 109 102 93 86 77 58 51 66 83 102 113 122 128 123 119 120 119 118 115 113 68 74 122 126 125 125 126 127 129 124 115 104 94 112 122 123 126 130 130 146 160 161 160 156 157 159 154 148 134 124 116 107 104 107 99 76 81 103 113 120 124 121 116 122 118 113 111 110 66 72 122 121 123 120 125 121 121 124 120 124 131 134 129 127 123 130 134 136 136 136 136 134 134 130 131 124 123 126 123 118 115 117 118 105 101 112 121 119 123 119 119 117 115 112 108 107 63 68 117 120 122 122 120 120 122 124 122 121 130 132 126 130 129 126 124 119 117 111 110 109 108 107 113 116 116 117 121 118 117 114 117 122 118 119 121 121 120 117 119 117 116 111 107 104 57 65 112 118 121 118 120 117 116 119 121 124 127 127 124 120 124 127 126 124 123 117 108 99 101 99 107 114 120 122 120 118 113 113 115 122 121 117 117 116 116 116 115 114 112 106 103 95 54 62 106 115 119 117 117 116 115 117 114 116 124 126 127 123 121 124 122 114 113 112 109 110 110 110 110 110 110 112 116 114 111 114 113 114 114 114 114 111 112 112 113 114 108 102 98 89 54 62 100 107 117 118 116 115 116 116 118 117 121 122 127 125 120 118 115 113 107 103 101 104 104 103 103 104 106 104 106 111 112 114 113 110 110 111 107 108 110 108 112 112 105 99 90 89 51 68 98 100 109 110 113 110 111 117 117 116 118 122 126 125 120 111 108 112 113 110 103 102 97 99 107 107 105 103 104 109 111 111 112 109 107 108 105 106 106 109 109 108 101 92 86 94 42 69 107 93 99 105 109 109 109 117 119 119 121 126 126 129 131 125 121 128 129 124 128 128 128 132 127 120 118 109 108 111 111 109 109 110 103 104 106 105 105 106 105 103 94 86 96 93 29 70 115 100 92 99 105 106 108 116 122 122 124 126 131 135 139 139 141 139 139 144 147 151 155 153 149 136 130 125 120 117 116 117 117 118 110 105 105 106 108 106 102 95 84 91 103 89 17 70 116 109 90 92 98 104 105 110 114 122 127 126 127 135 144 146 148 150 150 158 156 151 154 155 149 145 136 131 124 122 120 119 118 119 113 110 107 108 106 100 94 86 88 104 112 77 12 71 114 113 99 87 91 98 101 104 110 120 126 126 124 131 140 143 148 152 160 164 160 156 152 153 152 145 138 135 129 129 121 118 118 116 112 104 103 103 97 94 86 86 104 116 117 71 12 72 117 116 112 96 84 91 95 98 103 113 119 123 124 126 136 140 145 161 161 154 146 146 147 152 151 147 145 138 129 121 120 116 117 109 103 100 97 93 88 83 84 103 116 122 116 64 11 71 123 120 113 106 89 83 88 92 94 105 112 118 122 124 132 135 140 155 154 151 134 129 130 138 145 149 143 135 125 120 116 112 109 100 98 93 89 84 79 83 100 114 123 123 114 55 10 71 124 127 117 110 101 88 78 78 85 94 105 115 116 119 129 131 133 139 146 136 125 111 115 129 139 141 134 127 121 118 109 107 103 97 89 82 77 74 81 97 110 120 124 123 114 52 11 44 76 77 77 70 67 60 51 45 46 52 60 67 70 71 77 80 80 81 84 81 73 71 72 77 83 83 81 73 73 70 65 63 61 56 51 46 43 48 57 66 73 76 78 78 70 33 7 