P2
48
60
255
17 31 35 38 41 41 42 42 47 53 56 59 60 63 69 68 70 68 68 71 74 76 77 77 77 79 80 80 80 79 81 83 81 79 76 71 68 61 56 52 51 45 41 36 27 20 18 11 27 50 59 65 64 70 72 73 79 86 96 100 105 108 118 114 118 115 117 121 125 126 128 129 126 130 131 135 131 130 129 134 133 130 124 118 112 103 95 89 87 83 78 68 53 37 31 18 30 55 60 62 67 73 73 77 81 89 95 100 104 110 116 118 118 119 123 126 129 129 131 130 129 131 131 133 132 133 132 134 134 132 125 120 114 111 104 100 98 95 89 80 63 45 35 21 31 55 63 67 74 75 74 77 89 92 99 102 109 113 119 123 126 124 125 125 130 131 131 133 132 132 136 136 133 134 137 135 133 129 126 121 117 111 110 105 106 106 96 88 72 53 41 22 33 59 66 74 78 76 80 86 95 94 99 102 108 112 117 121 125 127 127 130 131 130 133 135 134 133 135 136 136 134 134 136 134 128 124 122 117 114 114 111 110 107 100 92 77 63 46 24 35 61 65 75 76 73 80 85 88 91 95 102 106 109 114 117 124 125 126 128 130 134 133 132 133 130 134 133 134 132 131 130 132 128 124 119 116 116 115 112 109 109 104 96 84 68 52 25 36 62 71 77 77 69 74 76 82 83 91 94 101 107 111 115 121 123 122 124 126 132 134 133 131 131 131 130 129 127 126 125 124 120 117 111 107 111 114 112 110 109 106 97 86 76 59 28 36 65 68 66 59 54 56 56 57 60 61 73 81 98 106 111 113 117 121 121 124 127 130 129 128 127 126 126 123 120 119 115 111 105 105 97 92 97 100 100 103 109 106 97 86 78 66 33 36 60 59 68 77 77 73 65 62 51 44 46 49 61 87 107 110 112 116 116 121 124 125 125 122 122 121 121 119 113 102 94 84 80 69 64 65 73 73 77 77 91 95 100 91 80 69 37 40 69 79 86 87 89 92 96 96 84 60 47 49 51 70 97 104 107 110 111 116 120 123 123 120 117 114 116 113 95 69 56 50 47 49 61 69 73 86 97 93 83 76 79 80 79 70 41 41 73 81 86 87 91 93 99 97 94 85 71 62 63 71 83 93 100 103 106 111 115 119 120 118 113 111 110 108 82 62 60 56 54 74 93 101 104 109 108 108 107 103 96 86 80 74 42 42 73 80 83 86 88 89 92 92 89 85 79 77 75 74 75 81 88 94 99 104 110 116 117 115 110 106 103 99 84 71 70 69 74 83 91 95 99 101 103 102 101 101 99 94 89 80 44 43 71 77 79 80 82 83 79 71 62 59 56 58 65 68 71 72 77 83 90 99 106 111 115 115 107 101 96 90 81 78 79 80 79 76 84 92 96 101 100 99 96 95 95 92 87 83 46 42 68 70 72 71 65 57 46 37 35 35 39 46 49 54 66 69 71 76 85 96 108 114 115 112 107 98 91 83 81 79 76 68 58 55 57 66 71 87 91 94 93 94 91 90 86 85 48 42 66 66 61 46 40 39 42 37 63 45 66 62 53 56 57 65 69 71 80 93 109 120 120 119 109 98 89 80 73 71 63 55 50 41 38 34 35 42 55 69 80 84 86 85 86 86 49 43 67 64 49 35 41 61 59 47 48 36 60 77 103 56 67 70 76 76 80 89 108 126 128 122 109 97 88 79 75 72 65 59 85 52 90 53 65 41 53 42 48 67 78 81 85 89 51 45 69 64 55 45 52 72 78 51 54 54 58 94 103 78 65 84 87 82 84 89 107 123 127 122 108 97 93 89 87 87 63 92 109 59 51 40 50 51 84 67 45 49 67 80 85 89 53 49 78 77 76 62 59 66 72 70 73 70 75 75 79 80 82 90 92 86 85 88 106 121 123 120 106 98 95 99 104 84 83 89 101 72 61 57 57 68 84 70 59 65 72 79 86 90 54 52 85 84 83 77 69 74 80 81 85 87 85 86 87 92 93 93 92 87 85 87 106 118 121 118 106 98 97 103 106 106 95 85 84 86 70 74 76 72 82 81 79 87 97 98 99 98 58 54 88 87 90 88 84 84 87 88 88 89 90 91 91 92 94 98 94 89 85 88 102 116 118 117 105 96 99 105 107 103 98 93 89 87 84 85 88 88 88 90 94 101 105 106 106 102 59 54 90 92 97 99 97 93 93 94 95 97 99 102 105 106 103 99 92 89 83 87 99 114 118 114 106 96 97 106 110 111 106 104 101 98 93 90 90 90 95 100 105 110 111 108 108 102 60 54 92 96 104 108 109 108 108 109 111 111 113 113 112 111 106 98 95 88 84 85 96 112 116 113 103 95 95 103 112 115 117 115 113 112 111 108 110 108 110 113 116 118 116 113 109 103 60 54 91 99 107 112 113 114 114 114 114 114 113 114 114 113 107 100 94 88 83 84 93 107 115 114 103 96 95 99 112 117 120 121 118 118 119 118 119 118 119 120 120 122 122 117 109 103 59 53 90 100 109 113 114 116 116 114 115 116 115 116 118 113 106 98 93 87 83 86 94 106 113 115 108 99 95 99 106 115 120 120 119 120 121 121 121 122 122 123 124 124 124 117 109 102 59 50 89 99 108 113 116 117 119 118 120 119 118 117 116 112 103 95 90 85 83 88 98 107 114 115 112 105 97 96 103 112 118 121 120 121 122 121 122 122 124 124 125 125 124 118 107 102 59 50 88 98 105 111 116 119 120 119 119 120 117 117 117 111 105 96 85 82 86 95 104 110 115 116 114 110 103 95 99 113 120 123 124 124 123 122 123 125 126 127 127 126 123 115 105 101 59 50 88 96 104 111 115 116 117 118 119 123 120 119 118 114 109 91 81 83 91 103 111 119 124 123 120 114 107 98 92 106 127 128 126 126 126 127 124 127 128 128 127 126 121 112 105 101 59 50 87 95 101 108 112 115 117 121 121 123 124 121 118 112 100 82 85 86 94 106 115 130 134 134 136 123 108 98 97 95 112 126 132 133 131 131 128 130 130 131 129 122 118 112 104 100 58 49 84 92 99 105 110 115 117 119 121 123 122 120 113 103 90 87 89 90 88 94 105 113 120 121 118 110 98 96 102 102 98 110 124 134 137 133 132 130 130 128 126 121 115 109 103 97 57 48 83 90 98 103 109 113 115 118 121 123 120 113 102 93 87 89 90 87 82 84 92 98 106 108 102 93 89 96 104 105 97 100 116 127 132 132 133 129 128 127 126 121 114 107 101 96 56 47 82 89 96 101 107 111 112 116 119 120 114 106 96 91 88 82 79 61 46 53 81 91 98 98 89 67 54 66 88 95 94 97 110 119 127 130 132 130 128 125 123 118 113 108 101 95 55 46 78 86 93 98 102 105 107 112 115 113 109 102 92 89 88 79 68 62 66 70 69 84 88 85 76 68 62 60 66 84 92 99 107 116 122 127 129 129 124 120 119 116 110 106 100 94 55 44 77 84 90 95 99 102 104 108 111 110 105 97 95 93 90 88 80 72 73 76 77 76 73 76 78 82 81 76 78 90 99 108 113 115 120 123 125 124 120 120 116 112 110 105 98 91 54 43 75 81 88 91 95 98 101 104 105 102 96 97 98 97 96 94 93 91 88 86 91 88 83 85 92 94 90 95 104 109 113 117 119 119 119 121 121 121 118 117 113 111 108 102 94 88 52 42 72 78 84 88 91 95 98 101 99 90 94 99 98 100 101 101 101 99 100 102 105 104 104 106 105 104 105 108 112 115 117 117 117 119 118 118 118 118 116 114 110 106 105 100 92 87 51 41 70 73 80 85 89 92 95 95 83 87 95 96 97 102 104 105 106 106 107 110 113 115 116 115 113 112 114 115 118 118 118 117 115 116 118 114 113 114 112 112 108 106 104 98 90 84 49 39 69 73 78 81 85 90 96 88 85 91 92 94 96 100 103 105 106 109 111 112 115 115 116 113 112 114 117 118 120 119 119 117 112 112 114 113 109 110 109 108 106 105 102 95 89 83 48 38 68 74 78 79 83 90 96 80 92 89 89 91 95 98 102 104 107 109 111 113 117 118 118 116 114 116 117 118 120 119 117 114 109 108 108 109 108 107 106 105 104 102 99 93 87 82 48 37 65 72 77 79 81 89 97 83 91 88 85 86 92 95 98 100 105 108 110 113 115 117 117 117 118 119 117 118 119 118 116 112 106 104 104 105 107 101 105 104 101 98 95 90 86 80 47 36 65 70 76 79 80 89 99 84 91 86 80 81 85 90 94 94 95 91 90 92 99 109 113 112 107 101 103 110 116 115 112 109 104 97 99 100 102 98 103 102 99 96 92 89 84 80 46 25 64 69 74 78 79 89 104 84 93 87 71 68 71 72 73 70 69 70 73 78 80 83 89 87 86 85 86 85 89 96 102 103 100 92 92 95 100 96 103 99 97 95 91 89 84 78 47 16 58 67 72 77 79 85 105 88 93 94 74 47 33 51 59 67 70 84 88 83 86 81 78 77 79 85 75 74 73 73 76 78 82 80 83 92 99 96 101 97 95 95 92 89 84 78 45 13 46 66 72 75 78 79 101 97 94 101 95 83 58 57 67 89 93 113 128 124 146 137 121 125 132 143 117 118 100 74 62 54 48 55 73 94 101 94 103 95 95 93 92 88 82 77 44 14 33 62 70 75 78 78 93 101 93 102 101 91 83 74 74 84 81 108 121 115 130 132 129 134 136 137 121 123 120 94 77 64 68 90 101 103 104 100 104 96 94 92 91 88 81 76 39 14 25 52 67 72 76 78 88 101 93 100 103 94 86 80 75 75 77 85 90 95 101 105 104 110 115 114 98 98 98 86 86 83 95 104 110 112 107 107 104 94 93 92 89 87 78 73 31 15 25 37 60 69 73 77 81 95 93 95 99 96 87 84 78 73 74 79 88 96 106 103 100 99 100 96 94 89 89 85 87 94 100 106 114 114 108 107 100 93 93 90 87 83 77 68 26 16 25 25 50 64 69 74 76 86 90 89 94 95 90 84 84 82 79 76 83 91 96 96 97 97 98 97 92 86 84 88 96 100 104 110 114 114 107 104 97 94 92 87 85 80 74 64 25 17 24 23 35 58 66 70 73 78 85 84 89 90 90 86 85 85 86 85 85 84 84 87 87 87 86 87 88 91 96 98 100 102 108 111 111 109 105 101 94 92 88 85 82 76 69 64 25 17 23 22 27 52 63 67 70 74 79 81 83 85 88 88 87 85 86 90 91 89 86 87 86 86 88 91 95 98 100 99 102 105 108 108 106 105 102 95 91 88 86 83 79 71 67 67 24 15 22 21 23 52 57 64 68 70 74 78 78 80 85 88 88 87 87 86 89 92 93 93 95 97 98 99 97 97 100 101 104 106 104 103 103 100 94 90 89 85 82 80 75 66 71 67 25 13 22 21 23 53 57 60 66 69 71 75 77 77 83 86 89 90 89 89 90 92 91 90 91 93 94 97 99 102 105 106 106 105 103 103 101 96 93 90 86 83 80 76 69 69 71 68 26 14 23 23 25 50 64 57 63 66 69 72 75 76 80 85 91 93 94 94 93 92 93 94 95 96 98 101 104 107 108 109 107 105 104 101 98 93 91 87 82 80 77 70 66 75 77 69 27 16 24 24 26 48 64 65 58 63 67 69 74 75 77 84 91 97 100 99 97 94 101 104 105 108 109 110 113 112 113 109 107 106 103 99 97 93 89 84 81 78 72 66 73 76 76 71 28 15 24 25 27 46 64 69 64 58 64 66 71 75 77 81 91 100 105 106 106 104 110 113 114 116 117 118 117 116 115 112 110 106 102 97 94 90 85 82 78 72 65 71 78 79 78 71 29 16 25 25 27 44 64 70 71 64 58 63 66 72 75 80 88 98 105 107 109 112 114 115 117 119 121 120 120 119 117 113 109 104 100 94 91 86 81 77 70 65 65 76 80 81 79 71 31 17 25 26 29 43 62 69 70 70 62 57 62 67 73 79 84 95 102 105 110 114 115 115 116 117 119 120 119 117 115 112 106 102 96 90 86 80 74 68 62 64 73 79 81 81 79 72 30 18 26 27 31 43 63 69 72 74 69 60 55 61 69 76 82 87 96 102 105 108 111 114 114 113 117 115 115 112 111 108 104 98 92 86 79 73 65 62 63 70 77 81 83 82 79 72 32 20 26 30 34 42 61 69 73 74 73 68 57 54 61 71 78 82 90 96 101 105 106 108 108 109 110 109 109 108 107 103 98 94 88 79 70 63 62 60 67 76 79 82 82 81 80 73 33 21 30 32 35 42 60 69 73 75 75 73 65 54 53 61 70 76 83 88 94 100 102 102 101 100 99 102 103 104 99 97 91 88 79 67 61 59 59 64 73 78 81 83 83 82 80 74 34 14 19 20 23 26 37 42 45 46 47 46 44 37 33 33 38 43 45 49 53 56 58 59 60 59 59 59 62 61 58 55 51 48 42 38 36 35 38 43 47 49 51 52 52 51 50 46 21 