P2
48
60
255
52 89 92 92 94 97 98 96 101 105 106 113 121 126 127 121 112 109 109 109 110 108 108 106 106 108 111 114 112 115 114 111 112 108 104 98 93 92 89 84 79 78 77 75 72 71 65 40 84 144 145 146 152 155 158 159 164 169 175 189 184 201 201 193 184 175 176 175 175 175 172 169 173 171 173 181 184 186 184 183 186 179 173 164 156 152 143 136 129 122 121 121 118 112 105 63 84 141 142 145 150 152 156 159 168 174 177 187 174 187 198 191 188 178 172 175 175 173 172 171 171 172 176 180 182 183 184 187 189 185 174 167 156 152 147 137 126 121 119 119 115 113 109 66 86 141 141 144 148 149 154 158 169 177 184 192 193 193 199 195 190 178 174 173 171 175 171 167 170 172 172 172 180 180 186 190 188 180 173 165 157 153 148 138 127 124 119 119 119 116 107 65 87 141 144 141 145 147 152 161 170 184 196 194 195 196 196 190 186 176 173 177 177 175 173 172 169 167 171 171 168 171 182 184 184 179 170 161 153 150 148 142 131 122 121 119 120 119 109 63 88 144 143 142 145 149 155 162 175 192 197 195 193 189 183 184 176 172 171 168 171 167 170 168 165 167 169 169 166 172 172 172 176 171 163 158 150 146 150 141 131 124 120 116 119 119 112 59 88 142 143 138 143 145 151 163 174 191 192 185 178 177 172 168 167 163 163 162 165 167 165 168 168 167 167 169 166 166 169 168 162 155 153 149 149 148 147 138 127 122 121 119 117 117 112 58 88 144 144 142 146 147 141 152 167 172 175 174 163 162 155 154 158 154 155 162 158 160 160 162 164 167 168 165 165 161 156 153 147 146 142 138 138 141 134 129 116 111 120 122 121 118 117 69 87 140 142 132 123 119 117 127 136 145 144 143 139 138 133 140 141 146 147 148 152 158 157 162 164 162 164 166 163 157 145 136 131 129 128 122 123 115 110 95 90 93 115 123 125 121 119 75 87 139 137 129 98 87 92 93 88 99 106 103 96 106 110 112 123 124 125 138 146 150 160 163 164 162 160 153 148 139 120 107 107 105 98 94 84 79 76 67 67 72 90 109 121 125 121 74 83 134 123 108 93 76 72 69 67 66 68 65 58 71 76 74 80 86 92 106 128 147 157 165 161 153 145 138 127 111 83 74 67 62 59 55 56 58 58 55 56 60 67 88 106 116 121 73 80 119 109 103 89 83 73 57 52 49 50 47 41 44 44 46 48 58 70 85 108 133 152 157 154 151 132 105 93 86 64 54 48 46 43 40 44 52 49 54 56 60 69 78 85 101 115 74 75 106 102 94 89 82 72 62 54 49 45 45 45 41 43 42 45 50 61 77 94 120 144 152 145 130 111 88 71 63 51 44 40 38 36 38 40 46 59 67 68 71 78 80 78 90 103 72 68 100 98 94 87 74 59 45 40 34 31 30 32 33 35 42 53 56 60 82 99 120 141 151 144 139 105 82 66 53 49 44 35 33 31 31 33 39 44 52 61 73 81 82 79 83 102 70 70 107 99 90 70 49 50 44 53 41 50 34 35 39 33 37 37 50 60 91 116 130 147 145 143 137 112 89 70 49 41 35 35 35 30 31 49 36 48 46 54 55 74 83 81 85 101 69 73 109 101 86 56 52 50 97 76 51 43 30 56 57 52 41 44 48 62 99 127 139 162 170 154 133 112 95 79 59 55 41 45 43 40 26 68 46 69 63 42 55 66 86 87 91 102 69 73 114 107 82 68 77 98 113 86 61 33 37 68 89 82 55 58 74 92 120 131 142 151 165 154 137 116 102 92 87 68 54 64 57 49 29 32 52 83 85 66 58 66 87 92 94 103 66 75 119 108 95 109 107 107 118 124 78 70 74 88 126 110 98 110 110 128 134 138 154 172 173 164 141 119 108 102 100 94 81 73 76 59 55 57 70 100 89 79 76 76 90 95 101 107 68 81 123 112 123 144 141 122 132 136 128 121 122 130 130 133 132 134 132 135 143 141 151 176 168 165 143 117 113 111 111 118 113 99 99 105 106 102 111 105 90 90 102 100 94 102 109 111 70 89 139 137 147 151 157 151 134 121 112 127 120 127 129 135 134 137 145 145 147 142 144 170 165 163 129 115 118 117 119 116 116 113 114 116 116 109 105 110 108 113 119 117 106 112 113 114 71 92 145 151 153 153 155 158 148 139 136 134 141 141 142 145 145 153 155 152 150 142 147 173 171 161 125 115 120 121 124 121 122 125 128 134 127 118 119 118 118 120 123 120 110 115 115 117 72 92 156 159 156 154 155 159 158 156 161 158 160 153 153 160 162 159 151 150 152 142 147 171 170 157 125 116 121 120 123 124 126 134 135 142 145 137 135 130 124 124 127 118 114 114 114 119 73 95 164 168 165 161 156 158 162 167 165 160 162 160 165 173 165 166 145 150 149 142 149 172 169 157 126 116 117 117 121 126 132 136 140 144 141 137 137 132 130 129 132 128 121 117 115 115 72 99 167 170 167 167 168 168 166 163 162 160 165 169 174 170 165 163 152 149 143 140 152 172 170 155 127 114 118 116 120 130 139 142 143 144 147 145 141 131 138 141 144 138 122 120 115 115 72 102 169 173 172 172 169 170 167 166 164 168 173 176 171 173 167 161 154 148 142 142 153 167 161 154 135 113 113 118 122 130 141 147 152 148 146 144 144 138 140 144 145 139 122 116 115 112 70 100 162 170 176 173 167 160 165 166 167 169 174 175 174 171 168 161 150 141 137 140 158 167 160 149 141 121 112 114 122 132 148 152 153 152 150 149 143 139 137 133 136 132 121 112 111 111 69 97 157 165 167 165 165 161 167 169 169 171 167 182 181 175 163 148 138 136 138 142 157 169 163 157 144 127 114 110 111 121 142 151 160 160 157 152 147 136 134 133 130 122 115 112 109 108 67 95 156 160 159 164 158 163 168 173 174 174 173 178 177 166 150 127 127 134 139 149 170 175 168 163 152 136 121 112 100 108 126 140 160 161 158 157 149 142 136 132 126 123 117 111 107 105 66 93 153 154 154 158 160 166 172 177 177 182 180 176 169 152 131 121 133 136 138 155 184 175 167 169 167 140 118 112 110 97 106 120 140 158 159 158 151 145 137 131 124 120 113 112 108 104 65 92 149 152 153 157 159 170 173 180 183 183 176 170 156 134 122 129 136 137 135 143 156 155 152 147 141 119 105 106 111 106 95 108 131 150 159 152 148 144 138 131 123 117 111 112 108 105 64 90 150 149 152 156 166 170 174 176 179 175 169 158 138 118 122 130 134 130 121 115 123 128 125 121 110 98 90 97 106 105 92 88 107 131 143 148 147 144 135 127 122 115 110 104 104 106 66 87 144 145 146 153 167 172 172 171 170 167 156 141 116 116 130 129 124 108 98 91 99 101 99 92 89 66 44 68 92 102 101 82 86 112 129 140 145 142 133 127 121 114 108 105 102 103 66 84 138 141 147 154 161 165 168 166 161 158 139 120 109 131 133 118 96 56 30 32 65 90 76 74 72 47 32 50 76 108 115 101 76 93 115 132 139 136 133 125 118 111 107 108 101 104 66 80 132 138 144 148 154 161 165 159 154 145 129 108 130 140 137 120 77 49 61 100 98 91 68 68 86 90 77 56 83 110 118 119 94 82 103 122 130 135 129 119 113 110 106 104 101 103 66 81 130 135 140 149 149 156 161 156 147 138 120 132 144 140 134 127 102 89 100 104 100 74 56 62 82 86 86 86 96 104 115 121 116 85 89 111 121 126 123 117 113 110 104 100 98 102 65 81 132 136 141 151 153 156 155 150 140 126 134 151 144 137 131 127 119 110 106 105 85 72 62 61 75 88 93 87 93 104 110 112 116 105 84 96 111 119 120 113 111 109 105 101 98 100 65 79 128 133 139 144 147 151 151 143 129 130 152 150 136 134 130 126 121 115 117 116 103 78 64 75 94 97 94 92 91 101 109 111 109 111 99 92 102 113 112 110 107 104 103 100 100 99 65 78 126 133 141 146 147 146 144 131 126 145 149 141 138 135 134 128 125 118 116 118 109 90 90 97 116 112 103 98 94 97 106 109 109 106 102 97 97 108 110 111 105 103 103 99 99 101 65 77 127 134 135 143 140 143 131 121 128 145 145 137 137 133 131 127 131 128 126 121 114 103 112 125 127 123 112 109 99 95 97 100 106 105 105 100 95 103 107 109 103 101 100 97 97 101 69 76 126 128 135 138 138 140 124 121 139 141 140 134 139 130 126 126 138 135 134 136 134 129 130 142 146 143 127 113 104 97 95 99 106 101 103 97 93 98 104 102 99 99 100 96 97 102 97 75 123 128 132 135 137 136 120 126 137 137 138 121 124 118 121 130 141 145 143 144 146 150 148 149 146 126 111 105 104 93 91 93 99 106 102 95 92 100 102 100 99 95 95 95 97 108 129 72 119 126 133 135 133 129 110 126 134 129 118 111 114 109 114 118 114 105 94 87 93 105 115 109 84 69 67 73 76 81 90 90 95 109 105 98 89 105 104 99 97 95 94 92 96 126 142 70 117 122 124 132 132 120 112 124 119 112 106 101 104 102 86 72 65 61 63 66 67 69 72 67 60 55 49 46 47 54 70 74 79 96 98 97 88 102 104 98 94 93 91 92 96 163 145 70 112 119 126 133 132 121 118 121 106 84 73 64 60 56 60 84 94 95 87 76 80 75 66 68 68 73 79 84 82 68 47 46 49 69 88 93 90 98 100 100 95 95 92 94 100 206 144 72 114 117 125 131 132 126 120 107 85 71 81 106 111 110 121 124 137 138 142 135 137 135 126 130 125 125 121 112 98 90 90 95 74 61 74 89 91 100 105 101 97 94 90 94 114 227 144 72 112 117 123 125 131 127 115 104 103 119 134 137 132 133 139 143 145 140 144 145 145 143 140 140 139 132 119 108 102 97 90 97 96 80 77 87 97 103 99 96 95 91 92 95 155 232 144 72 116 114 119 125 127 122 112 112 124 136 138 140 131 119 120 132 145 147 143 142 142 143 142 140 133 127 118 115 103 89 93 99 100 95 88 89 95 99 96 94 93 91 91 98 203 232 143 72 115 118 118 120 121 119 116 120 132 135 137 139 129 117 112 104 107 115 122 121 118 118 117 115 110 103 93 86 84 89 95 102 103 102 97 93 94 97 95 91 92 90 92 114 225 232 144 68 113 117 113 115 116 115 113 121 134 133 138 137 132 122 109 98 86 81 75 71 68 68 67 63 64 65 67 71 82 91 102 101 104 100 94 89 94 85 87 89 89 88 92 123 228 232 143 68 112 113 112 111 111 107 110 118 130 130 131 130 127 123 111 102 89 80 63 51 46 47 49 49 51 61 71 85 92 91 100 97 96 96 87 84 85 79 81 85 88 89 93 122 225 232 144 66 108 109 110 109 109 105 109 114 120 119 131 126 128 125 120 116 111 103 89 79 77 75 71 74 76 81 86 89 89 92 93 92 90 90 86 82 80 82 79 86 87 91 93 118 224 231 144 64 104 109 108 107 104 100 109 106 110 119 130 132 132 131 128 127 128 125 120 120 121 122 119 120 114 108 100 97 92 93 89 87 83 86 82 81 81 80 83 85 86 90 95 117 223 231 143 61 103 104 104 104 103 103 107 108 114 116 125 127 129 131 127 138 141 138 141 143 147 144 139 140 136 128 120 118 103 101 93 88 81 83 80 77 77 78 81 84 86 91 96 114 221 231 143 60 100 100 103 100 100 107 106 108 106 110 119 117 124 134 134 143 144 144 146 146 151 146 146 144 136 132 128 124 116 103 95 88 80 80 77 74 76 78 79 84 86 91 99 110 219 232 144 57 98 98 101 101 104 100 103 102 104 109 116 122 129 134 135 144 142 145 150 142 137 130 131 136 138 131 125 119 118 102 99 93 85 84 76 75 79 79 79 86 88 92 100 111 216 232 144 58 94 94 95 95 94 93 100 103 108 115 119 129 126 127 137 142 149 141 143 140 136 126 125 131 133 127 123 118 111 101 96 88 83 81 77 80 77 78 80 84 91 95 99 111 216 232 144 59 91 90 92 92 94 95 98 102 107 108 116 122 122 125 128 135 137 132 132 124 124 120 122 125 124 122 111 110 109 100 90 86 82 81 77 77 74 77 79 84 90 95 96 110 215 232 143 61 96 91 88 87 88 88 95 97 99 108 112 113 111 126 130 127 127 120 121 115 115 118 116 117 114 110 107 99 97 98 88 86 84 83 77 75 74 77 82 85 90 96 98 108 215 231 143 65 99 96 86 81 81 83 93 96 101 104 109 112 111 114 111 115 112 106 109 102 103 106 105 110 103 104 94 91 91 87 84 80 80 80 75 71 74 79 82 84 93 96 98 107 207 232 143 42 63 61 58 50 47 48 53 57 58 60 62 62 62 64 67 65 64 65 61 56 57 57 60 62 58 59 59 54 55 50 51 49 49 48 43 43 46 51 51 54 57 59 62 66 113 143 88 