P2
48
60
255
38 64 66 66 67 69 71 74 74 75 77 77 77 79 79 76 74 73 72 71 70 70 69 70 71 69 69 70 72 74 75 74 73 72 69 66 64 63 61 60 58 58 57 56 55 52 46 28 61 103 107 105 107 111 114 118 121 122 124 125 127 127 126 125 120 118 118 116 114 111 113 114 114 113 113 113 116 120 119 119 118 115 112 107 104 103 100 96 96 95 92 90 89 84 76 44 61 103 107 109 110 111 114 116 119 122 125 127 128 129 127 124 121 118 115 114 114 114 114 113 117 116 116 117 115 119 117 117 116 114 110 107 102 101 98 96 96 95 92 90 89 86 79 44 59 102 106 109 112 113 114 116 118 121 124 128 129 128 127 125 120 118 115 114 113 113 112 112 112 113 114 115 115 117 114 115 112 109 107 104 101 101 97 95 96 94 91 90 90 88 83 46 60 102 104 109 112 113 115 117 119 122 123 125 126 126 125 121 120 116 114 116 113 113 112 112 114 114 112 114 113 113 111 110 107 105 102 101 99 98 96 95 94 93 90 88 88 88 85 46 61 101 103 106 110 113 113 116 119 122 121 122 123 122 121 118 116 113 112 111 112 110 110 110 113 113 114 112 110 110 107 104 103 103 101 100 97 95 94 93 92 92 89 88 87 88 87 47 60 99 101 107 111 113 115 115 116 119 118 118 116 115 115 111 110 110 111 110 108 108 108 106 108 109 109 108 106 104 102 100 99 100 97 95 92 91 90 86 87 89 90 88 88 87 88 49 60 100 100 106 110 110 107 109 112 113 111 109 111 109 107 104 104 104 105 106 103 104 104 103 106 106 105 103 101 99 96 93 93 92 90 87 84 81 79 80 81 82 85 86 88 88 88 52 60 99 100 103 99 94 93 91 93 93 94 98 99 100 99 99 98 99 103 103 101 101 103 101 103 104 101 97 97 94 90 86 84 76 70 67 65 64 64 66 73 75 79 80 83 86 89 53 59 92 87 90 90 83 80 76 74 71 70 70 73 82 89 92 94 96 97 99 99 99 100 99 102 103 99 94 91 84 81 77 67 62 58 57 56 58 62 69 75 81 84 84 80 79 87 54 54 85 92 95 94 93 90 81 70 61 57 56 56 59 69 81 86 89 93 95 97 98 100 99 101 100 93 87 81 75 71 63 58 56 56 57 60 65 70 76 80 83 85 84 84 83 85 55 59 96 99 99 98 96 92 86 79 72 66 62 60 59 64 66 74 83 89 92 96 100 102 100 99 95 89 81 73 66 61 59 58 59 60 62 66 69 73 76 77 79 80 81 83 85 86 55 58 96 97 95 94 90 82 76 70 66 64 63 63 65 69 72 73 77 85 91 97 103 103 101 98 94 86 75 66 60 57 57 57 59 63 68 70 68 65 66 69 71 73 76 79 82 85 55 58 94 92 90 84 76 67 65 66 65 65 61 57 57 61 70 74 78 84 91 98 107 108 108 101 94 84 73 64 57 56 56 61 72 77 79 76 71 71 70 64 64 68 71 75 79 83 54 56 91 88 83 72 62 69 66 54 48 48 47 48 53 58 63 72 78 84 92 100 110 116 113 108 98 86 73 63 56 56 62 69 66 60 53 56 53 56 58 64 62 65 70 73 79 83 54 57 90 85 77 67 67 53 58 61 62 56 42 51 56 55 63 70 77 86 94 101 114 125 119 116 103 88 74 63 57 64 64 62 62 77 49 51 56 64 59 56 62 64 69 73 80 85 54 60 93 87 82 73 59 61 77 71 57 45 46 58 66 62 63 77 88 93 97 102 111 125 121 116 105 89 77 68 71 68 58 80 72 61 53 59 64 72 68 66 63 66 71 78 84 88 56 63 99 93 89 84 82 76 80 81 67 62 64 69 76 74 77 85 99 101 100 103 111 120 121 118 106 89 79 78 87 71 70 80 86 72 67 69 77 80 76 72 75 79 81 86 90 91 56 66 106 104 103 100 95 92 93 86 84 79 77 78 82 88 92 97 102 108 102 103 109 118 119 116 104 88 81 80 85 85 85 86 86 83 79 76 76 78 77 75 82 90 92 94 93 94 57 67 110 110 109 107 105 101 97 93 89 88 86 86 87 90 92 97 106 109 105 103 107 115 114 113 102 85 83 82 84 81 81 81 83 84 80 79 77 77 79 83 91 95 97 98 96 94 57 69 114 114 110 111 110 107 104 101 97 93 91 93 94 96 100 105 111 111 107 102 106 115 116 113 103 87 82 85 87 86 86 86 85 85 84 84 83 85 89 93 98 100 101 100 96 94 57 69 115 115 112 113 114 114 112 109 108 107 107 104 103 106 110 112 112 110 106 105 107 113 115 114 104 87 82 84 89 91 92 91 94 95 96 97 96 98 100 103 103 105 103 101 97 93 57 69 114 117 116 117 118 116 116 115 113 112 111 108 113 115 116 114 113 109 105 105 107 115 118 114 102 88 82 83 88 92 97 98 99 102 104 107 107 108 108 111 110 105 102 99 96 93 57 69 114 117 119 121 121 120 117 118 116 116 115 116 118 118 117 114 113 108 106 105 108 116 119 117 105 91 83 83 87 91 96 101 105 108 109 111 112 114 114 110 108 104 100 97 95 92 56 67 111 116 119 122 122 120 120 119 118 118 118 116 118 118 116 113 111 106 104 104 107 115 117 117 107 91 83 84 85 89 93 100 104 107 108 113 114 116 114 110 107 102 98 95 92 90 55 65 110 115 118 119 121 121 120 120 119 118 115 117 119 120 117 113 108 106 104 104 110 116 118 119 109 94 84 82 84 85 91 98 104 107 110 110 111 113 108 106 102 99 96 93 90 89 56 64 107 113 114 119 120 118 118 118 117 118 117 118 117 119 116 113 108 103 103 104 112 116 116 118 111 96 85 82 82 84 90 97 103 108 110 112 110 109 108 105 100 97 94 90 87 88 55 63 103 110 113 115 118 119 119 119 118 120 120 119 117 116 115 111 104 102 104 105 114 120 118 121 116 97 87 83 81 81 88 95 101 108 109 109 107 106 106 101 98 95 91 89 87 86 54 61 101 104 108 111 116 118 118 118 118 119 118 119 118 117 112 104 103 108 105 105 118 125 118 117 113 96 84 84 84 79 84 90 98 105 106 107 107 103 102 99 94 92 89 86 84 84 53 59 97 99 106 111 110 114 119 118 119 120 120 117 116 112 107 102 104 107 102 99 106 113 108 103 97 83 76 82 85 77 80 88 96 100 103 105 104 102 99 93 91 89 85 83 83 83 52 59 98 99 103 110 109 111 116 119 120 120 118 115 111 107 105 98 101 101 93 87 87 91 94 91 81 65 66 75 80 75 75 84 92 98 100 102 101 100 95 91 89 88 81 80 82 83 52 57 96 96 100 105 107 109 113 115 117 117 116 112 108 103 101 92 95 87 67 56 80 84 81 76 63 52 54 63 71 71 73 80 89 94 97 98 97 94 92 89 87 83 85 83 81 83 53 56 93 99 101 99 103 109 110 111 113 112 110 108 104 101 96 89 88 74 52 57 73 75 70 63 53 44 44 57 63 69 73 80 87 92 95 96 96 93 89 87 84 82 84 85 83 82 56 56 90 95 98 101 105 108 109 111 112 110 107 104 101 100 96 92 88 69 63 73 82 75 66 59 53 49 49 56 63 76 80 83 88 91 93 94 93 90 89 85 83 81 81 83 83 82 57 56 92 95 97 101 101 105 106 108 108 107 104 102 101 103 101 98 97 91 87 88 91 85 69 61 55 53 52 55 75 87 86 87 89 91 91 92 91 90 89 87 86 82 81 81 84 84 57 55 92 94 95 97 99 98 100 104 107 106 103 102 104 105 105 102 98 99 99 97 94 82 72 77 72 69 67 74 88 90 89 89 90 91 91 91 90 89 87 86 84 82 82 81 82 85 57 55 89 91 92 94 96 94 96 101 103 105 104 102 105 107 105 103 100 99 99 97 91 80 80 90 89 86 87 88 91 91 91 91 91 91 89 89 89 87 85 84 82 80 80 80 81 86 57 54 86 86 92 92 93 97 97 99 101 102 103 105 106 105 102 104 102 101 100 99 91 83 89 100 101 96 91 91 91 93 93 92 91 91 90 88 86 83 83 82 81 81 80 81 82 86 55 53 84 84 87 88 87 91 95 96 99 101 103 103 103 102 101 103 103 101 101 104 98 94 101 110 111 102 93 92 91 91 91 91 90 90 88 85 82 80 79 78 79 79 79 80 82 86 48 52 84 88 87 86 85 88 92 95 97 98 102 100 98 98 100 102 104 104 101 100 102 105 108 108 104 98 93 92 88 87 87 87 88 87 85 82 78 76 75 72 76 77 77 80 82 86 40 53 86 87 86 86 87 88 89 91 93 96 99 96 91 91 95 97 97 89 80 76 80 88 92 84 76 72 76 84 85 84 82 82 83 83 81 80 79 77 74 73 75 76 77 80 84 83 35 52 86 86 86 85 85 86 89 92 93 94 90 87 80 81 84 80 72 67 68 72 70 70 68 63 60 60 59 62 69 76 76 71 74 77 78 79 78 77 77 76 76 77 77 77 83 73 33 52 84 87 89 89 87 90 92 93 93 89 82 70 58 59 60 56 58 62 67 69 67 63 60 57 57 54 52 52 53 55 57 56 63 73 75 77 78 79 78 79 77 75 76 78 82 61 33 51 84 86 89 91 97 98 96 92 89 82 69 62 72 70 72 79 84 87 91 93 90 84 78 83 83 80 71 62 52 47 47 51 58 67 73 75 77 78 77 77 75 73 74 77 77 54 33 50 83 86 89 91 97 100 99 93 86 78 77 87 96 96 92 90 92 95 101 102 101 99 102 101 99 92 84 75 70 69 72 71 66 70 73 75 76 76 77 75 73 72 73 77 65 52 33 48 82 85 88 90 94 96 95 93 86 83 90 95 96 97 93 94 91 88 89 92 89 86 87 88 86 83 76 70 73 76 76 76 76 74 76 75 73 73 75 75 72 72 72 83 55 52 33 47 81 83 87 88 91 92 89 86 78 79 89 93 94 93 92 91 90 88 84 81 79 81 83 81 77 73 69 70 70 70 71 74 76 77 76 70 69 71 74 72 71 70 70 66 49 51 33 44 80 85 87 87 88 88 86 87 83 86 90 92 90 90 89 85 82 78 75 72 70 71 72 69 67 65 60 59 62 67 71 75 76 75 73 67 69 72 70 69 69 66 68 54 48 50 32 52 75 83 85 86 87 88 86 85 83 83 87 90 89 90 88 85 79 72 65 60 57 58 56 55 57 55 54 58 64 69 70 72 74 75 76 78 77 71 68 67 66 65 61 47 48 50 32 54 81 76 82 83 85 84 86 87 88 84 86 88 89 90 89 89 83 77 71 67 65 64 62 62 63 63 64 68 70 70 69 72 72 73 75 75 73 69 65 64 63 62 49 46 47 49 31 54 90 75 77 81 81 82 83 86 89 89 88 89 89 92 93 91 87 83 82 82 82 82 79 78 78 79 79 80 77 73 72 70 70 71 71 71 68 64 62 59 58 59 46 45 47 48 30 52 91 89 73 76 79 78 79 82 87 88 88 90 91 93 96 97 97 98 101 103 102 100 98 97 97 97 91 87 81 75 71 70 70 69 68 66 62 58 57 58 59 59 45 45 46 47 30 52 90 94 87 69 73 77 78 78 82 86 85 88 89 93 96 99 102 105 106 104 102 98 97 97 97 94 90 86 79 73 69 69 67 64 62 58 55 55 56 57 63 56 44 45 46 47 29 51 89 94 96 86 68 69 72 73 77 80 80 85 89 91 95 98 102 102 101 99 98 95 95 96 92 89 85 81 76 71 68 66 60 58 54 51 50 50 53 60 62 51 43 44 45 46 29 51 89 92 96 96 89 71 64 67 69 73 81 83 85 87 91 95 98 97 96 94 93 91 91 91 85 82 80 77 71 67 64 60 55 50 47 47 47 50 55 62 61 45 43 44 45 46 29 50 88 92 93 97 95 91 79 65 62 65 73 78 80 82 84 89 90 91 89 87 86 83 84 82 77 77 75 69 63 60 57 52 48 45 44 45 47 51 58 60 56 42 42 43 44 45 28 49 86 93 94 95 95 95 90 82 72 63 60 65 72 75 78 79 82 83 83 78 79 76 76 70 69 67 62 58 55 51 48 46 45 45 45 45 47 53 58 61 46 41 42 43 44 44 28 46 85 90 95 94 94 95 94 89 82 76 66 57 58 66 70 71 73 73 72 70 73 71 68 62 58 54 51 47 45 44 43 43 44 43 44 45 49 55 59 57 41 41 42 42 43 44 27 42 83 89 93 95 93 94 95 93 89 82 77 71 62 58 57 59 61 62 61 61 62 59 57 52 50 46 44 42 41 42 42 42 42 42 43 46 51 56 59 46 40 41 41 42 42 42 27 23 50 54 56 58 57 57 58 58 56 53 50 47 45 39 35 33 32 32 32 33 33 32 29 28 27 26 25 25 25 26 25 26 26 26 27 30 33 35 34 24 24 25 25 26 26 26 16 