P2
48
60
255
15 34 44 48 52 56 58 58 58 60 61 62 63 63 63 63 64 65 63 65 64 64 63 63 63 62 62 63 64 63 63 62 60 60 57 58 55 50 48 46 45 43 44 43 40 38 29 16 26 59 73 78 85 90 94 95 95 98 98 101 101 101 103 103 103 103 103 103 101 103 100 99 98 100 100 101 102 102 101 98 97 95 90 91 87 81 77 75 73 71 71 70 66 62 49 24 30 65 74 78 85 90 92 94 96 98 100 100 101 102 103 102 101 102 103 102 100 100 99 100 97 98 99 101 101 101 99 96 94 93 90 88 86 81 77 76 74 72 71 69 66 63 53 26 35 71 76 80 86 90 91 93 96 98 98 98 99 101 103 103 104 104 103 101 99 99 99 99 99 98 99 100 100 102 99 101 98 95 92 90 86 82 79 76 73 73 72 70 67 63 57 25 40 75 77 81 86 88 90 92 96 99 98 99 98 100 104 105 104 105 102 101 99 98 99 97 97 97 99 103 101 101 100 100 99 95 92 89 85 82 81 78 75 73 69 69 67 62 60 29 44 77 78 81 85 87 89 92 95 98 98 99 101 102 105 105 105 106 105 101 99 98 97 96 97 99 102 102 100 102 103 100 99 97 93 89 86 83 83 81 76 73 69 68 66 63 61 32 47 79 80 80 81 86 88 87 90 92 95 96 96 97 101 106 107 107 105 104 101 98 97 98 99 100 101 103 101 103 102 97 98 96 94 89 85 83 84 82 79 73 69 67 65 64 63 35 48 79 79 77 81 84 81 77 75 74 77 79 82 92 98 101 103 102 103 100 99 97 99 100 100 101 102 102 100 99 97 94 93 93 88 82 80 80 81 81 80 72 71 68 64 65 65 38 48 79 77 74 77 77 67 65 66 67 63 61 64 69 74 83 92 95 97 98 97 97 98 98 100 101 102 101 99 95 92 88 87 86 80 72 73 70 66 67 67 65 70 69 64 63 67 40 47 77 70 66 67 70 61 63 67 64 55 53 50 49 49 54 66 78 88 90 93 96 96 96 98 100 100 99 93 88 84 78 70 66 57 51 51 50 55 58 57 57 61 64 64 62 65 41 47 73 62 61 63 62 63 70 70 65 63 60 58 52 48 45 45 51 60 75 82 92 94 93 89 94 94 88 83 72 61 53 48 44 43 41 44 48 51 55 56 54 50 54 57 60 65 41 48 71 57 61 69 74 76 79 81 79 77 76 74 69 65 59 56 53 55 64 77 89 89 88 89 89 88 80 74 61 52 45 43 42 45 50 56 62 59 57 59 56 51 48 49 52 63 41 49 71 61 72 81 80 79 79 77 73 71 70 68 66 65 66 67 66 65 68 73 82 87 88 87 87 82 73 64 55 49 49 52 58 65 73 78 78 75 70 63 62 59 53 50 47 59 41 50 73 69 75 78 79 78 72 64 63 64 58 53 49 49 54 65 69 70 72 76 83 89 91 85 80 76 65 54 50 51 58 63 64 66 67 68 68 67 69 70 68 63 59 54 50 56 41 52 79 75 77 76 74 64 58 56 45 39 38 40 42 47 48 52 64 66 72 78 88 99 95 93 87 77 60 48 47 54 57 52 57 57 49 44 45 47 51 54 60 60 59 56 52 60 41 51 81 78 77 73 62 52 45 54 55 52 51 41 46 60 54 58 61 67 73 78 88 103 109 107 99 77 60 49 48 53 58 64 58 54 56 44 42 40 41 45 47 56 57 56 54 61 42 53 84 83 78 72 61 52 56 66 64 46 40 44 55 66 62 63 75 83 81 80 89 105 111 110 97 76 68 58 61 68 63 62 80 60 63 33 40 48 51 40 42 47 55 56 57 64 41 54 89 88 80 70 68 65 71 76 73 71 72 70 72 77 78 84 92 92 82 85 90 105 108 108 96 76 72 67 78 79 71 74 76 74 63 55 51 63 60 52 47 47 52 58 63 68 44 56 95 93 85 79 80 80 80 82 84 84 83 82 83 80 78 80 85 90 89 92 89 101 104 104 92 74 74 73 70 77 83 84 82 81 77 72 70 69 66 61 57 57 57 65 72 75 46 57 96 96 93 90 86 86 87 87 88 88 88 88 87 88 87 90 91 96 96 91 87 98 101 102 84 72 74 78 75 76 81 83 83 86 84 79 76 72 68 67 68 68 66 73 79 79 47 57 96 99 98 97 95 92 91 93 97 99 97 97 97 94 94 98 100 99 99 87 85 96 100 101 84 70 72 81 81 81 86 87 88 90 90 87 84 79 75 73 71 74 78 80 81 79 48 57 96 99 104 105 104 99 97 98 102 103 106 104 100 100 103 101 102 102 97 85 85 92 93 93 78 69 71 81 83 85 87 91 92 94 93 91 89 84 80 76 76 83 87 83 81 79 47 56 96 100 106 109 108 106 102 104 107 107 107 104 103 105 106 102 100 104 91 83 84 91 92 90 74 69 70 76 84 86 87 91 95 95 95 94 92 89 85 81 84 92 92 86 81 78 47 55 94 102 107 110 110 111 109 110 110 108 106 106 104 105 106 105 104 100 88 82 86 91 92 89 76 69 70 74 82 85 87 90 93 97 97 97 96 92 90 89 92 94 92 86 80 76 45 54 91 101 104 108 110 113 112 111 109 107 105 105 106 107 106 108 102 92 85 82 88 92 90 84 75 69 69 73 77 83 86 91 91 94 99 101 100 97 95 94 94 92 88 84 78 74 44 53 91 98 100 105 107 110 109 108 108 105 105 107 107 108 109 106 97 89 82 83 88 88 86 81 74 68 68 69 75 82 85 89 92 93 95 99 98 96 95 94 89 87 85 81 77 72 44 53 89 93 96 100 104 106 106 104 105 107 105 105 108 107 106 104 89 82 80 82 89 91 90 82 72 68 66 67 70 76 84 89 92 94 96 95 97 93 91 91 88 84 82 77 74 71 44 51 85 90 92 96 101 104 105 104 104 106 107 107 108 105 105 100 86 85 79 82 92 98 97 89 73 68 65 71 69 67 81 87 91 93 94 95 95 91 90 90 85 82 79 75 73 71 43 51 85 86 91 93 98 101 103 104 104 104 108 108 106 103 98 91 86 87 79 80 95 111 102 93 74 68 67 73 72 68 73 82 89 91 94 94 93 90 88 85 83 81 76 73 72 71 42 51 85 86 88 92 97 99 101 102 104 105 105 105 103 100 95 83 86 86 78 76 86 102 95 85 69 66 68 74 73 69 65 76 83 91 92 92 90 88 86 85 82 79 73 71 71 70 42 50 86 87 88 89 93 97 99 101 102 103 103 102 100 95 88 79 81 74 68 74 77 86 87 74 61 61 64 70 71 67 63 70 81 86 88 89 89 87 84 83 80 77 72 70 70 70 42 51 85 89 89 90 92 95 98 99 99 100 101 99 97 93 86 80 70 52 50 59 72 76 75 64 53 38 38 48 60 61 67 73 78 84 90 87 87 84 81 81 78 75 71 72 71 71 41 50 86 89 89 90 92 94 98 99 98 98 99 100 97 94 89 83 69 62 70 73 63 62 57 53 42 40 40 45 49 63 77 80 83 86 88 85 83 81 80 80 78 74 72 72 73 71 41 50 86 89 90 90 92 95 97 95 94 99 99 99 99 97 91 85 77 70 68 69 72 63 53 54 58 53 47 47 57 76 83 86 85 86 85 83 80 83 81 78 77 75 74 73 71 69 40 49 84 89 94 91 91 95 96 96 97 98 97 99 100 95 92 85 75 68 60 52 58 59 61 69 63 51 49 53 62 72 79 85 83 85 86 81 82 83 81 78 77 74 75 74 70 68 40 48 82 88 93 91 92 94 95 96 98 97 99 98 97 93 86 71 64 55 48 46 46 47 58 59 51 46 44 45 49 61 65 76 78 82 84 82 81 82 81 78 76 75 75 74 71 67 41 51 84 85 91 89 91 94 95 96 93 96 95 91 90 81 69 54 51 46 45 44 44 44 53 53 46 44 41 41 43 45 53 59 63 71 77 79 77 77 77 76 74 75 75 72 70 66 42 50 81 85 86 90 91 90 93 92 90 87 78 77 66 60 53 47 45 45 44 44 45 46 55 50 50 43 42 40 41 40 43 46 47 53 62 66 74 74 75 76 76 75 73 70 66 68 42 52 82 84 85 88 88 89 90 87 80 66 62 58 50 50 48 44 45 51 48 50 47 52 56 54 48 48 44 41 42 40 40 41 42 45 50 56 64 71 75 75 76 74 71 70 66 66 42 51 81 84 87 86 86 87 89 81 68 57 54 48 47 47 47 52 54 62 69 75 70 74 71 71 62 54 50 47 46 44 42 40 43 44 43 47 57 67 72 75 73 71 71 70 68 68 42 50 82 82 84 85 86 87 86 77 65 55 53 51 52 57 62 66 65 69 71 72 73 79 80 76 65 59 60 60 60 54 46 44 44 45 45 48 51 60 69 73 70 69 67 69 69 67 42 52 81 81 83 84 87 86 87 82 66 66 65 61 57 57 63 64 64 64 64 66 66 66 64 57 54 55 58 59 56 54 50 45 44 49 52 54 54 61 70 70 70 66 68 69 68 69 43 53 83 82 83 83 84 86 86 86 77 78 69 60 57 60 59 56 56 56 57 62 65 62 59 57 58 59 58 54 48 43 42 43 46 55 60 62 60 64 70 70 68 67 67 69 69 68 44 61 85 84 84 80 80 84 87 86 84 82 70 66 68 76 75 70 71 74 77 83 88 86 83 84 85 84 79 73 65 60 61 62 62 62 69 67 67 69 71 69 69 65 65 67 69 70 65 124 99 85 83 80 78 82 84 86 88 81 73 73 78 81 79 77 75 77 78 82 83 84 84 83 82 79 75 68 65 62 61 67 68 68 72 72 76 75 73 69 67 65 63 63 68 93 135 153 135 91 80 79 80 81 83 86 87 84 77 82 86 84 80 77 75 74 69 68 65 65 71 71 67 66 66 60 58 60 63 68 72 71 72 76 78 74 70 67 66 65 63 65 75 195 157 157 154 104 81 77 78 78 78 83 85 83 82 85 84 86 83 77 71 69 62 58 50 45 47 46 47 52 54 54 57 59 64 67 71 72 75 77 75 72 68 65 64 63 61 67 140 252 158 157 160 104 90 75 70 77 73 78 80 84 84 82 84 83 82 81 76 71 64 55 47 46 47 44 47 48 50 51 57 62 66 69 71 72 66 70 68 66 62 61 62 62 61 78 177 255 158 158 179 98 92 81 73 74 74 70 76 77 71 73 82 83 82 85 82 81 76 67 58 58 57 55 54 56 61 63 67 69 68 67 65 64 59 56 58 60 59 58 60 58 65 78 182 255 158 158 195 98 91 84 77 73 70 63 68 66 63 75 84 85 88 91 92 93 92 89 83 87 90 86 83 78 79 82 79 74 68 64 56 53 57 51 52 54 56 56 57 60 65 76 197 255 158 158 205 98 93 88 77 69 67 61 63 69 64 71 82 86 88 93 95 96 95 92 90 92 93 94 88 85 81 83 81 79 76 67 56 52 52 52 51 50 51 52 55 58 66 74 139 246 158 158 216 98 92 90 85 70 61 57 63 63 61 64 72 81 83 90 95 92 91 92 92 94 94 97 90 85 78 79 80 79 74 62 52 53 53 50 50 49 46 47 53 61 68 72 87 149 153 153 185 95 90 91 87 81 66 53 57 59 57 58 61 66 71 78 84 87 87 90 92 92 87 91 89 83 74 73 74 74 67 57 52 51 50 49 47 46 44 50 56 64 69 70 72 83 82 76 96 91 88 87 89 85 77 59 50 54 55 54 56 59 60 65 69 77 77 83 85 85 86 83 84 81 73 68 64 63 57 55 49 49 48 47 43 44 49 54 61 67 68 68 61 71 50 51 76 87 87 87 89 89 84 76 60 48 50 51 51 59 62 58 62 64 73 74 80 77 81 78 72 71 61 58 53 54 54 51 46 44 43 45 44 48 51 58 66 69 68 67 52 58 42 42 75 83 84 86 88 90 88 80 74 60 49 47 47 53 55 55 59 56 61 68 69 72 75 73 68 61 53 51 47 51 47 46 43 41 39 43 48 51 56 63 68 70 69 65 53 51 39 45 70 80 83 85 85 87 89 87 81 73 61 49 50 52 54 54 56 53 54 60 61 67 71 70 60 58 53 48 45 46 46 45 41 38 42 47 49 55 60 67 69 69 68 63 58 47 35 50 64 78 83 84 86 88 87 87 86 78 72 62 53 49 50 51 50 50 53 52 55 56 60 57 53 51 54 49 44 46 42 37 38 43 46 48 54 61 65 67 68 68 66 60 54 46 34 48 61 76 82 84 86 86 86 87 87 86 76 71 65 54 46 46 52 49 48 46 46 46 49 49 49 46 45 45 43 43 38 38 42 45 48 52 57 66 66 67 68 66 64 58 46 44 34 28 36 46 50 51 53 54 53 56 55 54 50 46 44 40 34 28 26 26 28 25 24 25 28 26 27 27 26 25 25 23 24 26 28 30 32 34 39 40 42 42 40 40 40 35 27 28 21 