P2
48
60
255
28 45 43 44 48 48 45 45 45 44 44 46 45 44 41 44 42 47 51 54 54 53 50 42 38 34 33 31 31 31 36 36 35 32 31 33 37 35 31 31 33 36 32 30 30 30 30 18 44 70 67 71 77 76 75 73 73 72 70 74 74 72 71 68 71 78 83 89 90 88 86 81 72 63 56 54 55 51 52 51 58 56 56 58 52 54 55 51 51 53 56 53 48 47 48 30 42 66 65 69 74 78 75 72 74 72 71 73 77 73 75 64 72 75 84 95 97 94 95 94 90 81 68 60 58 59 55 52 54 57 54 57 59 55 53 54 55 53 54 60 51 49 47 29 42 64 65 69 72 76 74 72 73 73 73 73 75 77 74 71 68 73 86 93 96 95 96 102 101 97 87 76 69 65 64 59 54 56 56 54 58 54 52 53 48 51 49 53 56 50 49 30 42 63 68 66 71 76 68 66 66 65 66 68 73 76 72 71 70 68 79 92 94 98 101 105 103 105 101 88 82 78 74 70 62 58 55 52 56 58 50 51 53 50 47 46 52 53 50 31 41 65 69 66 67 63 56 54 53 51 49 50 59 65 68 69 73 69 66 85 95 98 106 107 108 108 108 101 95 92 87 85 75 68 59 54 52 58 56 53 51 53 51 49 49 52 51 32 41 66 68 60 54 50 51 52 54 53 51 46 43 49 51 60 68 73 71 72 90 97 108 110 109 111 112 105 100 97 92 85 70 61 56 52 54 62 68 68 64 59 59 56 54 55 54 33 40 67 61 54 56 64 72 76 77 81 73 59 48 47 50 52 59 67 78 78 77 91 103 105 110 113 113 109 99 89 83 74 62 56 59 66 81 93 94 100 98 88 79 73 65 62 61 35 41 64 58 61 70 80 85 91 92 93 93 86 73 58 56 53 57 63 74 86 87 88 100 106 110 114 115 112 100 83 80 72 67 75 83 98 101 104 110 109 112 109 106 98 87 79 67 30 42 65 65 70 75 81 85 86 87 90 91 90 86 81 74 66 64 65 68 83 93 95 102 105 112 113 115 106 92 84 84 87 94 98 101 102 104 102 107 108 108 111 111 105 98 91 75 30 42 67 67 70 75 78 81 81 81 82 85 87 88 89 86 82 77 73 72 78 92 99 102 105 109 115 116 107 94 93 98 103 104 104 104 104 103 102 101 103 105 108 109 107 103 94 83 33 43 67 66 69 71 74 75 75 73 73 75 82 86 88 89 89 86 79 73 74 85 97 103 105 110 118 114 108 103 103 103 105 107 106 104 99 95 95 90 92 97 102 104 105 105 98 90 40 42 65 64 66 67 70 69 65 64 69 69 71 74 77 84 90 90 85 73 69 78 91 102 107 113 118 114 109 104 101 101 105 106 97 86 87 90 93 92 87 87 94 99 103 104 100 94 45 42 65 62 63 64 62 55 57 64 69 71 78 86 85 73 80 91 90 73 62 71 86 99 107 115 118 112 108 100 95 98 104 94 79 82 79 78 78 80 83 82 84 94 99 102 100 96 52 41 64 61 60 57 50 50 50 50 51 50 57 76 84 85 73 83 89 73 58 66 79 96 106 114 114 108 103 95 91 98 95 76 77 67 54 52 59 62 65 72 74 89 96 101 101 97 55 42 65 62 59 54 48 49 49 51 44 47 34 48 66 85 83 74 81 70 56 62 74 93 103 110 112 108 99 92 87 93 81 76 63 57 37 45 60 102 77 57 64 85 97 103 101 98 58 42 65 62 59 54 53 54 54 56 46 35 35 84 99 82 79 81 72 64 56 61 71 89 100 105 108 105 99 97 88 88 84 75 66 45 36 74 65 103 102 81 66 83 99 102 105 101 59 44 67 62 60 58 57 57 61 64 51 40 42 61 112 109 69 68 76 65 60 63 71 86 97 103 104 103 97 101 98 96 78 75 73 55 41 48 67 108 103 88 77 83 96 103 106 102 60 45 70 65 62 62 61 64 67 69 63 56 59 80 96 89 75 65 70 70 62 64 70 83 96 102 103 103 95 97 107 91 79 75 78 69 63 67 95 98 88 76 77 86 95 105 107 104 60 48 75 70 67 68 68 62 58 60 62 67 70 73 79 80 80 80 73 64 61 66 70 82 93 100 99 100 97 94 101 101 92 80 77 76 76 79 80 74 73 78 86 96 97 104 108 105 61 47 79 78 74 72 73 73 70 71 71 74 78 77 79 79 78 74 65 62 63 66 70 83 95 100 101 98 98 92 95 94 93 88 84 85 87 92 92 90 94 95 94 98 102 103 108 106 61 49 82 84 81 75 74 76 77 80 83 84 85 81 80 81 79 72 66 64 64 64 69 84 95 98 101 99 99 96 95 96 96 97 97 97 102 107 106 105 105 103 102 102 102 104 105 104 61 48 84 88 85 82 79 81 82 84 86 88 87 85 85 83 79 72 68 65 63 64 70 85 96 101 102 100 99 99 98 102 100 103 103 106 109 113 113 112 110 108 108 104 104 103 104 103 61 48 82 87 89 87 87 89 89 90 89 90 90 90 87 81 78 73 68 67 66 65 72 87 96 101 104 102 100 100 100 103 103 106 106 110 113 113 114 112 112 109 107 106 105 105 103 103 61 47 79 84 90 90 91 94 95 96 93 93 92 89 83 81 77 72 67 67 67 67 76 89 97 101 104 101 100 101 101 104 106 107 107 107 110 111 112 110 107 108 109 107 107 106 104 101 62 46 77 81 84 89 93 95 96 94 94 91 88 86 85 83 77 71 67 67 67 71 82 88 95 100 103 99 99 102 103 105 107 107 108 105 106 104 106 109 109 110 113 111 110 108 104 100 61 45 76 79 81 84 90 95 95 95 94 92 91 89 87 83 77 70 67 66 67 78 86 90 95 96 98 96 97 103 106 108 111 111 112 111 109 109 109 110 112 115 116 114 112 109 105 101 61 45 74 76 80 82 86 92 96 97 95 94 92 92 88 83 77 71 65 63 66 84 86 93 95 95 96 96 95 100 108 112 114 114 114 113 114 115 115 116 119 119 118 114 113 108 105 101 61 44 72 75 77 80 84 90 95 96 95 95 93 91 87 81 75 67 62 67 72 81 86 93 97 97 98 100 96 95 102 114 117 118 116 115 116 116 118 120 122 121 116 116 112 109 104 100 61 44 70 74 76 79 82 87 89 96 96 94 89 90 86 78 69 61 66 77 75 77 87 99 101 102 107 105 99 94 96 107 115 119 120 121 118 119 119 121 120 119 116 112 109 107 104 101 61 43 70 71 74 77 82 85 89 93 96 95 89 89 84 73 63 57 71 77 72 73 82 94 101 109 122 110 101 96 96 99 107 115 119 122 121 118 118 120 118 118 115 109 108 108 104 101 64 43 68 70 73 75 80 83 88 91 94 96 92 89 81 71 59 55 71 70 68 67 73 83 95 100 100 98 96 97 99 96 99 107 114 123 124 121 121 119 118 116 114 111 109 108 103 100 66 43 69 70 71 74 78 81 87 90 92 95 94 89 82 72 62 59 66 63 55 55 64 73 86 90 93 82 73 83 95 98 96 100 109 117 121 122 118 118 118 115 113 112 110 108 103 102 63 41 68 69 71 72 77 81 84 89 92 94 95 92 87 78 70 66 62 55 48 45 48 65 78 86 90 87 89 81 94 103 100 97 105 114 121 121 119 117 115 114 112 110 109 108 102 102 59 42 68 70 70 71 74 80 84 88 91 94 95 95 92 85 78 73 70 65 59 62 62 64 75 89 97 100 98 97 100 102 104 100 102 111 117 122 118 116 115 113 111 111 109 108 102 105 67 42 68 70 70 71 73 79 84 87 91 95 97 97 96 91 86 80 76 75 71 74 80 82 83 91 101 102 104 103 101 101 102 104 106 109 117 120 119 118 115 113 112 110 109 106 102 113 71 42 68 69 70 70 73 78 83 87 90 94 96 97 97 93 88 82 80 79 80 85 91 96 94 97 104 102 101 102 100 99 102 105 107 111 115 118 118 118 115 112 111 110 109 103 103 115 72 43 68 69 70 70 74 78 83 86 88 91 95 98 96 92 86 81 78 81 84 89 97 97 99 98 103 103 103 101 103 102 103 106 110 113 114 116 117 117 114 113 111 110 105 103 104 117 73 43 69 69 70 71 73 79 85 86 86 89 94 97 94 87 78 76 77 81 83 89 99 97 94 95 102 103 104 103 103 104 104 108 110 112 113 115 115 115 114 111 110 109 107 103 106 117 72 44 69 69 70 71 73 80 84 85 85 89 92 94 89 80 71 73 80 81 84 84 89 91 95 99 100 102 106 104 102 105 105 106 108 110 113 115 116 115 115 111 111 110 106 102 107 116 68 44 70 70 70 71 73 78 83 82 84 90 92 93 87 73 67 68 70 73 76 77 78 81 86 88 91 93 97 100 103 105 104 104 106 108 112 115 113 113 115 113 111 109 106 102 108 109 54 44 71 70 69 71 73 77 80 81 87 90 95 93 78 61 55 56 58 64 69 72 73 79 84 84 85 86 86 85 85 89 93 92 98 107 112 114 115 113 114 112 110 108 105 101 136 154 45 44 71 70 70 71 72 74 78 83 90 94 97 85 61 48 48 55 59 64 65 64 61 65 67 67 72 74 76 78 79 76 70 67 77 96 109 112 115 113 113 110 111 108 105 103 217 213 60 44 71 71 70 71 71 73 76 84 92 98 93 82 75 68 62 60 62 72 79 84 85 80 81 82 90 89 91 90 88 87 88 93 96 98 105 114 115 113 112 110 110 107 104 113 240 234 94 45 71 70 70 70 70 72 75 85 95 97 87 77 76 72 71 68 65 67 73 80 84 86 85 87 91 93 92 90 92 98 102 104 105 102 103 111 114 113 111 108 108 107 102 137 252 246 134 45 70 70 69 70 71 71 75 84 93 94 83 76 75 74 71 70 72 75 76 78 80 82 84 85 89 93 98 100 101 103 103 104 104 103 104 110 111 110 108 108 109 106 103 180 254 253 147 47 70 68 69 69 70 70 73 82 89 86 81 77 75 74 75 74 73 73 74 78 79 81 81 82 84 88 92 97 100 102 103 104 104 106 108 109 110 108 106 108 108 105 106 226 254 255 151 55 72 68 68 68 69 69 71 79 85 80 77 77 76 75 79 79 80 80 80 81 79 78 80 78 76 82 91 97 101 104 104 104 104 107 108 107 108 106 106 107 107 104 135 246 255 255 157 112 81 69 68 67 68 69 70 75 81 76 75 76 78 80 84 85 86 87 88 90 91 89 90 91 90 93 98 103 106 107 105 106 105 106 107 106 106 105 105 107 105 106 204 250 255 255 158 151 133 70 67 67 67 67 69 74 76 74 73 76 79 83 87 87 87 90 92 92 96 96 96 98 98 100 102 105 109 109 108 106 105 106 108 108 106 104 106 106 104 135 249 254 255 255 158 153 205 84 67 66 66 67 68 70 72 73 72 73 77 82 87 86 86 91 92 94 97 97 96 100 100 102 103 107 110 109 106 105 105 107 108 106 104 103 105 104 108 214 255 255 255 255 157 149 208 92 74 65 65 65 66 68 69 70 70 72 74 78 86 86 87 90 92 95 98 100 100 100 100 102 106 108 110 109 104 105 105 106 106 105 104 102 103 101 148 250 255 255 255 255 158 151 206 81 85 70 63 63 64 65 66 68 68 69 71 73 81 85 88 88 92 99 104 105 101 101 105 115 118 113 113 107 105 104 104 104 104 104 102 101 100 107 171 249 255 255 255 255 158 153 212 81 77 80 67 62 62 63 63 65 65 66 69 71 75 84 86 90 96 102 109 105 99 100 105 113 117 114 111 106 104 103 103 103 102 100 100 97 100 109 171 245 255 255 255 255 158 155 216 82 76 75 74 62 59 60 60 61 63 64 65 68 71 78 85 91 98 103 108 102 94 93 99 108 111 108 105 102 102 101 101 99 97 97 96 96 108 107 174 247 254 255 255 255 158 156 204 81 76 74 74 68 59 57 58 58 60 61 61 63 66 72 79 88 96 100 102 101 92 88 95 103 104 103 100 99 100 98 96 93 93 92 94 107 110 107 172 252 251 255 255 255 158 149 215 82 75 74 73 70 63 58 56 55 56 57 58 59 62 66 73 80 89 93 96 97 89 85 92 97 98 96 96 96 94 91 90 89 88 92 105 109 111 108 162 254 251 255 255 255 158 157 219 81 75 73 72 70 66 60 57 55 55 55 55 55 56 59 63 69 78 84 88 88 82 80 82 85 88 87 89 88 86 86 85 85 90 102 108 110 110 108 156 254 252 255 255 255 158 158 222 81 75 72 71 70 68 63 59 56 55 55 55 54 55 55 57 59 63 70 73 73 71 72 72 75 77 82 86 87 86 85 85 89 98 106 109 113 110 108 145 253 254 255 255 255 157 98 139 50 46 44 44 43 42 41 37 36 35 35 34 34 34 34 35 36 38 40 42 43 45 47 50 50 50 53 54 54 53 53 54 58 63 66 67 69 68 66 87 157 157 157 158 158 96 