P2
48
60
255
17 29 29 24 24 24 26 25 26 42 46 49 50 35 31 50 41 36 29 34 37 38 34 31 32 33 36 41 40 40 43 46 47 47 44 40 35 31 28 27 28 25 23 22 21 21 22 14 28 51 47 40 38 39 46 43 44 64 75 79 81 77 58 58 83 73 61 52 47 46 50 56 63 65 64 66 70 74 75 75 76 74 71 69 62 53 51 47 44 43 40 37 35 34 36 23 27 49 44 41 38 37 48 55 41 64 78 78 80 82 81 66 60 78 77 66 60 57 62 68 72 76 77 78 78 78 77 76 76 74 73 73 67 60 52 51 48 45 41 41 38 36 35 23 27 47 44 42 42 40 50 67 40 61 79 77 78 82 87 82 73 67 71 74 72 73 76 78 81 82 83 82 83 81 78 77 75 73 73 72 69 64 59 53 52 51 46 41 40 38 37 23 27 46 43 45 44 42 49 70 43 62 76 73 75 82 88 89 86 82 81 80 81 84 84 84 86 86 86 85 86 82 81 78 76 73 72 69 66 64 61 59 55 53 53 46 41 40 38 23 28 43 44 46 46 45 50 71 44 60 65 66 75 83 86 89 90 89 89 89 89 90 90 88 89 89 88 87 84 82 81 79 76 72 69 67 64 62 62 60 59 57 54 51 47 41 40 23 26 43 48 46 47 48 46 54 40 47 50 59 69 77 80 83 86 88 92 93 94 96 94 91 90 89 87 85 82 80 79 75 71 66 60 57 57 56 55 54 56 55 55 56 54 46 41 24 27 45 46 47 49 44 41 38 37 38 40 42 42 43 48 58 74 80 88 93 96 97 96 94 91 89 84 80 77 73 62 52 45 43 40 42 43 43 42 41 42 46 49 51 54 54 45 25 27 46 45 43 44 41 40 38 38 38 37 37 37 37 39 43 54 67 78 88 95 99 100 98 90 84 78 71 64 55 44 39 37 37 37 37 37 38 39 41 42 41 42 45 45 47 48 27 29 48 44 48 47 48 50 55 58 59 60 60 54 50 46 44 47 55 68 79 91 100 103 96 88 80 71 59 51 40 38 36 36 37 41 45 47 49 49 48 48 48 49 50 49 47 49 29 34 49 48 55 61 68 72 73 74 74 76 74 71 67 67 66 57 52 65 74 88 100 103 96 87 76 63 52 41 38 39 41 44 49 55 60 62 62 62 61 60 59 57 59 57 54 52 32 47 71 73 73 78 74 79 79 82 83 83 79 74 67 65 70 74 72 73 74 93 107 108 100 91 78 63 51 41 41 43 46 52 63 71 76 78 77 74 70 66 61 57 58 59 57 56 34 56 89 85 81 81 79 83 85 85 84 82 77 69 62 60 62 69 74 82 87 101 111 113 106 95 81 67 51 42 41 44 50 61 70 76 78 78 78 74 70 66 59 53 53 55 56 58 37 58 94 89 83 81 82 79 82 87 90 90 84 73 62 54 53 58 67 79 93 103 115 118 108 96 81 68 49 40 40 43 50 63 75 82 88 87 89 87 77 66 55 53 51 51 54 58 38 62 100 94 88 85 84 85 88 86 73 67 60 55 53 52 50 50 56 72 87 103 115 120 114 102 84 70 49 40 38 44 54 64 65 66 67 60 63 69 73 76 70 62 56 55 57 62 41 66 106 101 93 86 75 67 56 48 46 37 36 31 38 40 43 47 55 74 87 101 113 118 111 100 84 71 55 46 43 46 48 47 50 42 38 35 40 43 45 49 54 55 60 62 65 71 47 68 108 108 102 89 79 68 64 65 73 48 41 41 45 49 50 45 56 81 88 100 109 119 118 106 86 75 65 58 59 46 45 50 60 59 43 42 43 46 49 47 53 58 66 73 80 84 53 69 114 113 108 102 99 91 78 76 75 71 65 64 62 60 61 63 71 87 92 100 116 126 123 111 89 79 74 67 69 65 60 60 58 58 59 58 60 60 58 55 62 76 84 86 89 93 58 69 113 113 112 109 107 103 96 92 86 76 74 71 70 69 68 75 84 93 98 103 120 125 122 110 92 84 83 76 75 71 67 65 66 64 61 58 59 59 61 65 75 86 92 95 97 99 62 68 112 114 114 114 112 110 106 100 95 90 86 82 82 82 84 87 95 100 105 107 119 124 121 108 91 86 87 85 83 79 74 73 74 73 72 71 71 72 76 82 86 94 97 100 100 101 63 68 112 114 115 116 116 114 110 106 103 100 99 99 97 94 94 99 107 108 111 109 117 124 120 108 91 88 89 91 90 91 83 79 80 83 85 85 85 88 91 97 101 105 105 105 102 102 63 67 112 115 117 119 119 119 115 112 109 108 107 105 102 99 102 111 114 113 111 108 119 121 119 108 93 89 90 92 94 97 99 93 88 89 92 95 99 104 107 111 114 115 113 108 105 104 63 66 111 116 118 120 121 121 120 118 115 115 110 108 104 107 113 118 117 116 111 108 117 120 117 107 95 90 90 91 94 98 105 105 102 100 100 103 107 111 115 118 119 118 113 108 105 102 63 66 111 116 119 120 122 124 124 122 121 118 114 113 114 118 121 121 117 115 111 111 117 116 115 107 96 89 89 89 91 95 102 107 111 111 110 110 112 116 118 118 117 115 110 106 104 101 61 65 110 115 118 119 121 124 124 122 122 120 120 121 121 122 121 120 115 114 112 115 119 120 117 110 101 93 89 87 86 91 97 105 107 112 112 112 113 114 115 114 112 109 105 103 101 99 60 64 108 114 117 119 119 122 123 122 124 122 123 122 123 122 122 119 114 111 112 119 121 121 119 113 104 96 91 87 84 85 92 99 105 108 110 112 112 113 112 110 107 105 102 100 99 97 59 63 105 111 116 118 118 120 123 125 125 126 124 123 123 122 121 118 112 109 113 122 125 121 118 116 108 97 91 90 88 82 86 94 101 106 109 112 111 113 113 110 107 105 102 99 95 95 58 62 104 108 112 117 119 122 125 126 129 128 126 123 123 121 119 114 109 107 111 119 122 117 111 109 105 95 89 90 91 84 81 90 96 103 106 109 112 111 113 111 108 105 101 97 94 93 56 60 104 107 110 115 119 122 124 126 126 126 124 125 121 118 115 109 108 105 103 109 112 105 101 98 93 84 79 81 88 88 78 83 91 99 103 104 107 106 107 107 104 102 98 94 93 91 56 60 102 107 110 113 115 119 123 123 123 124 124 124 121 117 111 105 107 101 93 92 94 91 89 85 76 66 64 67 77 85 77 79 86 93 98 102 105 105 105 103 101 98 95 92 90 89 54 60 99 104 107 110 111 116 119 120 121 121 121 120 118 114 107 102 103 94 70 50 77 83 77 71 63 54 43 51 62 73 75 77 82 89 95 99 100 101 100 98 97 94 93 91 90 88 54 61 97 103 107 109 111 113 116 115 117 119 118 117 115 110 104 103 101 87 61 54 76 84 75 68 59 46 39 42 54 64 76 81 83 89 94 97 97 98 98 95 93 91 91 89 88 87 53 61 98 102 106 107 108 110 112 112 114 115 116 115 113 109 106 105 105 97 77 86 95 86 75 68 57 50 48 45 53 72 86 87 87 88 92 96 96 96 95 92 91 90 89 87 86 86 53 56 101 100 105 106 108 109 111 112 113 115 114 116 113 110 108 105 108 110 100 89 96 91 79 73 65 60 57 49 57 86 94 94 94 94 96 96 98 96 94 92 91 89 88 86 86 84 52 87 105 100 105 106 107 109 110 112 113 114 115 115 112 111 109 107 109 111 108 105 103 96 83 80 77 70 68 69 79 93 97 98 99 99 98 97 97 95 93 90 88 87 86 85 85 85 53 154 195 104 103 105 106 108 109 111 110 112 114 113 113 112 109 108 108 110 109 107 107 98 88 88 87 84 83 86 92 97 98 99 101 100 99 98 96 95 92 89 87 86 85 85 85 86 53 158 246 115 99 105 106 106 108 110 110 111 113 113 113 109 110 107 107 107 107 105 107 100 89 91 95 97 93 94 96 98 99 98 99 100 100 97 95 92 91 89 88 86 85 84 85 86 54 158 253 133 102 104 106 106 107 109 110 111 112 111 110 109 107 106 106 105 104 104 104 101 91 96 101 104 97 95 95 97 98 98 97 98 97 95 90 86 90 87 84 80 83 84 85 86 54 146 252 164 103 104 106 107 107 110 110 110 109 109 108 105 103 102 101 104 102 104 107 104 97 105 111 109 98 94 93 93 94 94 94 93 93 93 91 87 88 87 84 82 84 85 86 87 54 136 205 165 104 104 106 108 107 108 109 108 106 106 104 100 98 98 98 101 102 106 109 105 108 115 113 100 94 93 94 91 90 89 87 86 88 89 88 87 87 86 84 84 84 85 86 88 55 158 255 240 112 105 106 107 107 108 109 107 106 105 103 97 95 94 98 101 103 101 89 80 84 88 77 72 74 81 85 87 87 86 83 83 82 82 84 83 84 84 84 84 86 85 86 87 55 158 255 253 139 105 106 106 108 108 108 107 105 102 97 94 91 92 97 94 84 73 64 63 63 62 57 56 57 60 64 70 75 76 75 75 77 78 81 82 82 83 84 84 85 86 86 87 55 158 255 255 193 104 106 107 107 107 107 105 104 99 93 88 84 82 80 68 56 52 57 73 68 63 66 62 58 51 52 55 58 62 64 66 69 74 77 79 80 82 83 83 83 85 86 87 54 158 255 255 240 116 105 106 106 105 105 104 102 97 90 79 69 60 56 50 40 46 55 74 72 64 59 63 56 46 44 43 47 53 53 58 62 68 74 76 79 81 82 82 83 84 84 86 53 158 255 255 254 167 105 105 106 104 104 103 99 94 88 81 74 74 74 75 77 79 80 84 84 83 85 85 81 80 76 73 71 70 69 69 68 69 71 73 77 79 80 82 82 84 84 84 53 158 255 255 255 235 114 104 104 105 103 102 98 92 89 87 86 91 88 85 88 93 97 99 99 99 98 96 93 91 86 83 80 80 77 75 73 71 70 71 75 77 78 80 81 83 84 84 52 158 255 255 255 254 172 104 104 103 102 100 96 92 92 92 92 93 93 90 91 90 91 92 90 88 86 84 83 80 78 78 74 73 74 74 74 74 72 71 73 75 76 78 80 81 83 83 52 158 255 255 255 255 242 123 104 103 101 100 96 93 94 96 94 95 94 95 93 88 82 78 75 73 71 70 70 68 68 69 70 73 73 73 74 73 71 72 72 73 75 76 79 80 82 83 51 158 255 255 255 255 255 206 108 103 101 99 97 96 95 95 94 93 93 92 89 86 82 74 65 66 65 66 69 64 64 65 67 69 70 71 70 71 70 71 71 72 74 75 78 79 81 82 51 158 255 255 255 255 255 253 164 104 102 99 98 97 96 95 92 91 89 86 85 82 77 71 66 69 66 65 67 63 61 62 64 65 67 67 67 68 68 70 70 71 74 75 77 79 80 81 50 158 255 255 255 255 255 255 239 111 101 101 100 100 98 96 92 89 87 86 84 80 75 70 68 70 68 62 62 61 61 62 62 63 63 66 67 68 69 70 71 72 73 75 77 78 80 80 51 158 255 255 255 255 255 255 247 119 101 101 101 99 100 97 95 92 90 88 84 81 78 77 80 85 82 76 70 66 64 63 65 65 66 68 69 70 72 72 73 73 74 75 77 77 79 81 49 158 255 255 255 255 255 255 247 122 106 100 101 99 99 99 97 95 94 92 91 92 91 93 100 104 101 96 91 85 82 79 75 71 72 72 73 74 74 73 73 74 74 75 77 78 80 78 50 158 255 255 255 255 255 255 246 123 111 106 99 98 99 99 97 96 98 97 97 97 101 106 109 110 106 102 98 95 91 88 82 78 77 77 77 77 75 74 73 74 74 75 78 79 76 78 51 158 255 255 255 255 255 255 249 127 111 110 105 97 97 97 97 97 99 98 98 101 104 108 108 105 101 95 93 90 88 84 81 79 77 78 78 77 75 73 73 73 75 77 78 74 76 81 53 158 255 255 255 255 255 255 251 131 112 110 109 105 97 95 96 97 98 97 98 99 101 101 100 99 91 86 87 84 81 79 78 76 76 75 76 76 73 72 74 75 78 75 73 74 77 81 53 158 255 255 255 255 255 255 251 134 112 112 110 107 104 97 93 93 95 95 94 97 97 97 94 88 81 81 80 76 73 73 73 73 72 70 71 72 72 72 75 77 73 71 72 75 78 83 54 158 255 255 255 255 255 255 252 136 112 111 110 108 105 102 97 90 91 92 91 92 93 92 88 82 77 75 74 70 67 67 66 67 67 68 70 71 73 75 74 71 70 70 72 76 79 84 54 158 255 255 255 255 255 255 252 133 113 111 110 108 106 103 100 97 92 88 87 86 88 89 85 79 75 73 73 70 66 66 66 67 68 70 72 75 74 71 69 69 69 70 73 78 80 85 55 98 158 158 158 158 158 158 155 81 69 69 67 68 66 65 62 61 60 57 53 52 51 52 50 48 46 46 46 45 44 43 43 43 45 45 47 45 43 43 42 42 43 44 46 48 50 53 34 