P2
48
60
255
15 23 24 25 28 31 33 38 43 46 47 48 50 52 53 54 56 57 57 58 56 55 56 58 59 61 61 61 61 58 56 55 54 53 53 53 50 50 44 41 31 27 28 31 28 27 23 14 23 38 40 44 49 54 63 76 83 86 88 89 93 94 94 95 97 98 98 98 98 98 97 98 100 103 102 99 100 99 98 97 96 94 92 91 85 83 78 71 61 50 45 45 47 44 41 23 24 40 42 48 55 64 80 91 93 96 97 99 102 107 108 110 111 110 110 109 107 104 105 105 104 105 108 108 106 107 108 105 102 99 98 100 93 91 85 76 73 62 58 54 53 50 44 23 24 41 48 54 64 79 92 97 98 102 106 107 111 115 117 116 115 114 115 113 113 110 112 112 110 109 111 113 114 113 112 112 108 106 106 105 100 102 93 85 78 73 68 67 61 56 49 25 25 45 53 64 78 90 95 98 103 107 110 113 116 115 114 114 112 113 112 112 112 112 114 114 115 113 114 115 116 115 112 109 105 103 105 102 101 106 100 98 91 84 78 73 66 61 57 29 27 50 62 77 90 94 97 102 106 108 111 114 114 113 109 108 107 103 105 109 108 107 109 110 113 112 111 111 111 109 107 105 100 98 98 99 99 103 101 99 98 91 85 79 73 66 62 32 30 60 76 89 95 100 100 104 107 109 109 110 107 102 98 96 97 96 96 97 103 105 105 103 108 111 111 106 102 100 96 95 93 92 88 90 92 98 98 98 99 94 89 83 78 73 67 35 37 74 88 95 99 102 103 104 108 107 104 102 100 92 91 88 88 88 88 87 93 94 94 99 108 109 106 103 98 99 95 84 79 83 80 80 84 89 93 93 95 93 89 85 81 78 75 40 48 86 95 101 105 105 98 98 98 95 87 84 79 75 74 74 75 73 73 74 79 87 90 101 106 101 99 96 91 91 86 72 65 62 63 66 65 71 74 75 78 82 79 80 81 79 77 45 55 94 100 106 105 95 85 77 72 65 62 59 55 52 51 51 50 52 49 49 58 74 83 93 100 96 90 79 77 81 73 57 45 41 41 44 47 47 51 55 58 66 65 67 73 74 79 50 59 97 104 97 82 67 62 63 59 52 49 46 43 40 40 40 39 41 45 48 53 70 81 85 93 91 83 66 60 66 59 49 38 34 33 34 36 37 42 43 47 50 53 50 55 66 78 51 61 103 101 86 66 59 61 61 53 48 45 38 36 36 36 38 38 40 47 54 58 71 78 83 83 87 81 62 56 55 49 42 35 33 32 33 33 34 37 41 46 52 51 51 51 55 71 51 64 104 96 76 64 59 57 53 49 45 41 38 36 34 33 34 37 42 48 52 62 79 88 91 82 85 77 64 57 50 47 41 34 31 31 33 35 37 39 43 46 53 56 56 54 54 66 50 67 103 85 76 69 64 60 52 51 48 43 40 38 37 37 35 34 38 47 56 65 82 96 103 105 102 89 72 63 57 47 34 32 34 35 36 37 42 50 54 46 49 57 61 58 60 68 48 68 104 85 80 77 63 53 63 46 45 40 38 38 39 43 41 41 39 41 55 76 89 101 109 105 103 96 82 73 59 39 37 39 38 35 36 46 36 41 41 57 46 54 62 61 64 70 48 69 99 84 81 70 51 62 49 66 61 56 46 51 43 58 49 48 50 45 54 82 97 109 114 114 111 102 85 76 57 46 44 45 48 43 41 44 45 59 48 39 51 47 61 67 68 74 50 65 94 86 80 61 58 55 63 93 70 50 40 44 54 78 59 52 58 59 64 86 101 111 120 119 116 105 86 76 63 54 46 56 61 44 40 41 52 74 66 44 47 48 59 69 71 76 50 63 90 83 75 71 60 63 73 96 91 51 48 52 79 87 65 70 69 73 78 91 102 115 123 122 117 105 86 80 73 61 60 61 80 58 46 46 65 82 69 59 53 59 62 72 74 80 52 61 91 88 84 73 70 83 84 86 93 88 76 82 85 83 77 78 80 81 85 96 104 114 119 120 117 104 88 85 77 71 66 69 78 74 73 81 82 77 68 70 66 65 71 78 83 84 53 62 95 91 82 79 83 92 92 90 84 82 80 78 79 78 79 85 88 90 101 100 107 114 117 117 114 101 89 88 86 77 72 72 74 76 74 78 78 80 79 75 79 76 75 81 87 90 56 67 105 97 90 92 93 96 97 99 97 94 88 83 80 86 93 94 98 104 105 105 109 113 117 120 114 104 90 88 91 90 81 75 71 73 78 82 83 82 84 88 91 86 87 88 94 94 57 69 110 104 103 100 100 102 100 95 90 87 88 96 103 103 102 106 112 108 107 107 110 113 115 121 115 105 93 89 91 98 98 88 81 80 77 78 82 87 94 100 102 102 97 96 95 95 57 71 113 112 111 110 110 108 105 106 106 107 111 111 111 112 112 113 116 110 107 108 110 113 117 117 113 108 97 90 91 97 103 101 96 92 88 88 88 93 98 102 108 110 106 102 97 95 59 72 114 117 118 118 115 118 116 117 117 115 113 115 114 114 115 115 113 107 107 108 106 108 111 112 112 110 102 94 89 97 103 107 106 104 103 103 103 104 105 109 112 110 108 104 98 95 58 72 117 120 119 121 119 122 121 122 119 118 118 117 117 116 116 115 112 107 110 108 108 111 109 110 110 106 106 98 93 96 101 106 108 110 108 104 110 111 113 112 113 110 105 100 96 95 58 73 117 116 118 121 121 122 122 121 121 119 119 117 115 116 116 114 114 111 112 111 113 109 111 112 110 108 108 103 96 96 103 106 110 111 106 108 110 112 114 113 112 108 101 97 95 96 58 76 115 113 116 120 121 119 120 117 118 117 115 116 116 118 114 115 111 109 111 116 116 113 114 112 111 110 113 106 99 92 97 105 110 112 111 110 110 111 113 110 104 103 98 94 94 93 58 75 113 113 116 117 117 117 119 115 116 116 115 115 116 119 114 108 109 108 116 119 112 120 124 114 113 114 116 104 95 93 88 97 108 112 112 111 110 112 112 108 100 96 95 92 95 91 58 77 114 112 111 110 113 115 116 117 117 117 116 116 115 114 108 107 112 113 119 113 104 104 112 107 105 108 107 95 87 93 89 87 102 109 112 111 110 110 108 102 100 97 94 94 92 88 58 76 114 110 108 111 113 117 116 117 117 116 115 116 114 110 104 108 116 116 115 99 97 100 100 98 96 95 92 84 83 92 94 82 89 102 109 108 109 108 106 101 98 98 94 93 93 90 58 74 114 113 109 111 114 116 115 116 114 115 113 113 110 104 101 112 118 115 102 87 95 98 94 88 84 83 81 76 75 86 92 81 82 94 104 107 108 105 105 101 98 96 95 93 86 91 58 75 115 113 112 113 114 112 113 116 117 114 111 108 105 100 98 115 108 94 74 56 66 90 85 77 76 74 67 43 49 70 83 84 79 86 97 103 104 105 102 99 98 97 95 93 87 92 59 78 117 113 113 112 110 112 115 116 116 113 107 103 99 97 93 102 87 62 39 35 39 58 74 65 63 63 40 38 41 60 81 89 82 79 92 100 103 102 101 99 99 95 95 93 91 92 57 80 119 114 112 111 112 113 113 114 113 111 105 101 99 99 96 90 73 52 46 49 55 59 63 57 56 53 51 50 48 67 89 92 85 79 87 98 100 104 100 98 97 96 94 94 94 93 56 78 121 112 113 110 109 110 111 111 112 108 103 98 100 102 101 96 79 62 60 62 65 62 53 47 47 48 48 56 63 79 90 91 88 81 81 92 101 101 101 99 97 95 95 95 95 91 56 77 122 113 113 111 110 108 110 109 109 103 102 103 104 104 102 98 89 77 64 53 47 45 45 43 41 41 40 48 65 73 84 87 90 84 81 89 97 100 99 97 97 95 94 95 94 90 55 80 120 114 114 113 111 108 111 108 106 106 104 105 106 102 95 92 76 65 48 42 41 42 38 40 37 36 36 39 44 53 68 75 82 81 77 86 94 97 97 96 95 94 91 93 92 88 54 82 126 115 119 112 111 110 109 106 105 104 103 107 102 94 85 76 69 50 44 41 38 37 38 39 39 37 37 36 36 42 53 62 76 72 72 85 91 95 93 94 94 93 92 91 90 89 55 83 131 118 119 111 110 108 104 105 104 103 99 98 93 79 73 57 53 43 43 39 36 36 36 36 38 38 36 35 36 35 38 48 59 63 62 78 88 90 92 93 93 92 92 91 88 88 54 89 128 123 118 111 111 107 104 104 104 93 89 84 70 63 56 46 45 42 41 37 36 34 37 41 40 38 37 35 39 35 34 42 50 53 54 73 86 91 92 92 92 90 90 87 88 88 53 88 132 122 114 109 107 105 100 101 101 78 77 67 53 50 48 40 45 41 41 40 43 44 54 62 60 45 42 37 36 36 35 42 47 45 44 62 87 89 93 95 93 91 89 88 89 88 53 96 139 122 110 107 105 102 98 98 93 71 67 56 48 50 42 43 44 46 50 54 69 83 89 96 87 60 46 44 42 39 39 43 43 41 42 48 83 92 92 93 95 90 87 88 89 87 53 99 142 123 113 108 103 102 98 100 85 66 59 48 44 46 43 46 49 55 52 57 70 82 86 85 69 51 49 51 52 51 50 47 41 38 39 49 79 94 93 93 91 89 86 88 87 88 49 102 141 122 114 106 102 98 97 93 68 56 48 41 40 44 47 50 51 54 55 54 56 57 58 57 51 49 50 50 48 54 58 50 45 41 41 53 83 92 93 93 90 88 85 88 87 88 39 104 145 125 115 105 102 102 100 87 63 53 42 38 40 44 53 48 45 46 54 64 68 69 68 69 71 72 64 51 43 44 48 44 44 45 45 60 87 92 93 93 89 86 85 86 87 85 30 100 148 133 119 110 104 103 100 86 59 49 41 39 41 42 41 43 54 74 87 93 97 95 95 90 90 92 92 85 75 64 53 40 40 44 48 70 89 94 94 91 88 86 86 86 86 79 61 112 157 133 119 110 101 99 98 85 62 46 39 38 35 43 61 71 82 99 102 92 89 83 80 79 84 90 96 96 91 85 81 64 48 46 54 75 90 94 92 90 87 85 85 85 87 76 108 116 159 139 122 113 102 100 99 86 59 46 40 43 50 67 78 79 90 98 93 83 76 70 65 68 77 85 87 92 90 90 89 80 67 55 65 82 90 91 88 87 85 85 85 84 88 102 139 120 161 139 127 117 103 102 99 84 63 57 56 61 74 87 91 89 92 89 84 76 76 75 73 73 74 79 81 87 91 93 94 87 86 79 78 87 89 92 85 85 85 86 83 85 92 157 142 131 168 140 135 123 108 99 96 87 76 75 80 84 89 93 95 94 89 82 80 81 82 83 81 79 77 79 80 85 90 91 89 89 92 89 88 88 89 89 86 84 83 84 84 85 103 216 148 131 175 144 139 127 112 98 93 90 89 89 92 93 93 95 92 93 90 85 87 86 85 84 83 84 84 90 88 87 87 89 91 91 91 88 89 85 87 84 82 83 83 84 84 86 113 233 150 139 182 152 141 129 115 98 93 93 93 95 95 93 94 92 90 95 95 94 90 90 89 90 90 90 90 89 92 91 93 90 95 93 90 87 84 80 81 81 80 81 82 84 86 87 119 239 151 148 195 162 144 133 120 99 92 91 87 90 94 93 94 92 92 94 95 96 90 94 98 95 94 91 93 91 93 95 96 93 89 89 89 88 87 79 76 78 81 80 79 83 86 89 129 241 151 147 205 164 146 138 122 103 91 90 85 89 94 95 92 95 95 95 98 98 93 97 99 98 95 91 92 90 93 96 96 95 92 84 90 86 78 75 75 78 79 79 81 85 84 91 138 242 150 134 203 180 150 140 130 101 92 90 87 93 96 93 95 93 97 99 103 101 98 102 101 98 91 95 93 90 91 96 95 96 94 89 86 84 82 78 77 77 77 78 81 83 85 93 144 243 151 105 198 193 154 139 135 107 91 89 88 93 90 94 91 96 97 101 101 101 98 99 98 94 91 95 94 92 91 90 94 93 93 86 84 82 81 80 75 76 76 78 81 80 86 94 155 243 151 85 170 200 163 147 137 116 92 90 88 92 89 90 92 96 100 102 101 98 102 102 98 96 91 97 94 96 90 88 89 90 90 89 84 80 77 75 75 78 77 79 80 81 88 94 166 243 150 74 136 196 179 150 140 123 101 94 90 91 91 90 94 100 103 101 101 102 100 98 93 89 89 92 91 88 86 85 81 85 86 84 81 79 75 76 75 77 76 79 79 85 90 95 172 243 150 68 116 147 187 156 143 129 105 98 89 92 91 89 93 96 96 96 94 98 94 95 90 84 83 87 85 83 82 83 82 83 83 80 79 79 74 75 74 75 75 77 80 83 89 94 176 243 150 41 65 72 104 106 89 85 70 62 57 57 61 56 56 57 58 58 53 53 54 53 52 47 49 50 49 46 46 48 49 50 50 48 46 47 46 45 45 45 46 48 50 53 56 58 115 151 93 