P2
48
60
255
37 64 68 71 75 78 78 79 81 83 86 89 90 94 94 96 94 94 94 92 93 94 95 94 93 97 97 96 92 94 93 95 94 94 94 91 86 84 84 82 80 82 80 76 71 66 66 39 58 102 109 115 121 125 126 127 129 134 139 144 146 154 156 154 151 152 155 156 157 158 154 158 158 161 159 159 156 155 153 154 154 153 153 149 141 136 133 133 130 131 129 122 115 109 106 62 59 103 107 113 120 124 127 129 132 138 142 147 152 157 159 158 156 156 157 160 158 159 157 159 161 162 161 159 159 159 157 157 156 159 158 154 146 142 136 136 131 130 126 119 113 108 104 63 57 104 107 114 121 126 126 132 137 142 145 151 157 161 164 161 163 162 160 159 159 156 158 162 163 165 161 164 161 161 159 160 159 161 160 155 148 145 140 135 134 130 124 120 113 105 105 65 59 106 107 115 121 124 128 133 139 145 149 154 157 160 163 164 164 162 162 162 162 152 155 163 167 169 166 166 162 164 162 163 162 162 160 155 150 146 141 136 134 131 125 121 112 106 106 60 62 108 107 115 121 123 129 135 143 148 150 156 157 150 155 162 162 159 158 163 159 148 151 156 165 166 167 163 162 163 159 163 165 160 156 154 151 147 144 141 138 132 126 119 113 106 107 60 67 105 107 114 120 125 130 136 142 146 149 153 155 154 154 156 155 153 156 158 157 152 152 155 161 162 159 160 158 157 156 155 155 154 154 151 153 147 144 143 139 133 125 118 111 107 107 59 67 107 108 116 120 121 126 130 134 133 139 141 146 146 142 140 145 145 148 147 152 149 152 153 155 155 152 156 153 148 145 146 146 146 146 148 150 143 139 136 133 129 122 119 112 103 107 62 67 107 108 116 114 108 112 107 108 111 109 111 111 109 110 118 119 126 130 140 141 144 145 144 147 148 144 150 147 140 132 127 123 117 116 121 130 125 119 117 118 116 114 115 115 105 107 63 66 105 108 110 95 89 88 83 82 79 75 76 73 71 74 86 99 100 112 126 135 136 137 141 142 141 140 137 125 124 112 100 91 83 77 78 83 87 86 87 93 98 103 102 112 108 105 64 68 103 90 81 72 71 78 73 70 64 58 55 55 55 54 65 79 85 96 112 124 132 136 138 139 137 132 126 117 109 89 80 71 61 55 52 50 54 59 67 70 78 86 89 98 103 103 65 65 91 70 69 71 76 78 77 69 63 58 56 57 58 60 62 71 77 88 100 114 124 131 136 137 134 128 119 106 92 77 65 58 51 48 45 44 44 48 57 64 71 71 71 73 80 95 64 65 92 78 83 90 93 99 98 91 81 71 61 54 51 53 59 64 71 83 93 108 124 134 140 141 138 126 114 94 80 68 62 57 52 49 49 53 60 72 82 87 89 85 78 69 65 81 65 64 99 94 97 100 100 97 89 74 54 41 38 35 37 38 38 53 63 74 89 105 124 141 149 150 141 130 112 91 74 60 51 37 34 33 32 35 44 64 82 95 104 105 96 84 74 86 63 64 103 103 102 100 93 72 52 43 33 49 29 34 36 45 51 54 60 74 89 106 126 139 150 155 148 131 113 91 69 55 45 43 39 30 32 27 48 33 43 56 77 94 99 96 93 99 65 67 107 107 104 94 63 52 51 70 39 49 22 47 45 65 46 56 78 88 98 108 126 142 149 151 150 132 111 98 82 67 46 43 58 37 39 22 45 38 61 44 49 63 89 96 98 100 67 67 107 107 101 74 48 45 71 93 57 50 36 57 63 87 64 59 83 107 108 114 125 142 151 154 150 131 114 107 107 79 56 64 83 65 59 44 51 53 86 58 48 53 76 96 101 104 67 70 113 107 92 66 64 77 99 112 99 93 92 100 113 109 95 101 113 110 114 119 124 145 154 152 148 131 115 113 111 109 100 103 117 122 115 104 103 106 106 90 73 61 72 91 104 108 66 73 121 113 90 94 102 110 120 120 121 123 122 122 123 117 106 101 110 114 119 119 124 140 151 147 145 125 117 117 112 103 104 106 116 125 123 122 120 122 117 111 94 90 83 97 112 112 70 74 121 119 111 118 117 117 128 132 138 138 133 127 113 99 99 112 117 121 125 121 125 135 148 146 140 120 118 120 119 112 108 106 103 109 122 127 128 127 121 114 107 111 110 112 120 119 72 75 124 122 119 117 117 116 115 117 117 115 108 101 105 114 125 127 124 125 126 124 122 131 148 147 138 117 118 122 121 122 124 127 126 115 103 100 104 105 108 111 114 117 120 122 123 121 73 77 125 124 124 123 123 124 124 119 113 117 127 137 141 142 138 128 124 128 127 125 121 132 145 148 136 116 119 121 120 122 130 140 146 147 148 140 133 132 133 129 125 126 127 128 129 124 74 78 125 124 126 129 133 137 143 149 151 152 154 153 148 143 133 125 123 129 126 119 122 132 142 147 137 117 117 122 121 120 128 141 146 152 155 155 152 149 146 142 140 137 135 132 131 127 74 78 125 126 129 134 138 143 148 155 157 155 153 149 145 140 133 125 126 127 123 120 125 134 142 143 141 127 116 121 120 119 127 141 146 149 154 153 156 152 151 146 145 142 141 133 131 127 72 78 126 127 130 134 140 143 148 154 152 151 149 149 146 141 132 125 124 122 121 120 128 139 143 143 144 137 122 117 117 117 126 141 147 149 150 152 153 155 153 149 149 144 139 132 129 128 71 79 125 128 130 133 139 141 148 148 149 148 150 151 151 143 134 127 119 118 119 118 132 142 143 146 147 141 129 117 116 117 124 137 148 153 156 155 154 156 154 151 148 140 134 130 129 123 73 76 123 127 130 133 137 141 149 151 151 152 156 157 153 143 133 122 117 116 116 120 139 149 151 152 149 143 130 119 115 115 125 136 152 157 160 162 159 156 152 150 144 138 133 124 125 124 75 75 127 127 128 134 139 143 148 155 154 154 155 155 151 141 132 118 119 119 118 126 142 157 157 158 160 159 133 119 116 114 122 135 147 157 161 165 161 156 156 154 148 140 135 128 127 123 75 75 125 127 129 135 139 144 149 156 156 155 154 150 144 136 125 121 123 120 120 124 147 166 156 155 156 154 127 115 115 117 118 125 139 153 159 163 161 159 159 155 150 143 137 133 127 124 74 74 121 124 128 134 142 145 152 158 158 156 153 148 137 126 123 120 123 118 115 114 125 137 142 140 139 129 112 109 112 117 120 117 130 143 158 161 162 166 163 156 148 143 138 131 130 124 74 74 119 120 129 136 139 146 152 157 157 156 151 142 129 120 122 115 114 106 102 102 108 120 127 125 124 112 101 100 104 113 119 120 118 132 148 160 163 163 162 155 150 144 136 132 126 121 72 72 118 119 128 132 138 143 150 158 156 151 144 131 118 122 121 106 92 69 62 79 96 103 105 98 101 93 74 71 85 101 113 124 113 117 139 154 160 162 160 154 147 140 134 130 123 121 70 70 116 120 126 130 134 139 143 153 150 141 133 118 116 127 122 99 71 46 56 67 74 75 70 66 71 64 45 31 58 86 113 125 118 111 126 148 157 158 155 151 149 139 133 131 122 117 69 70 117 119 126 132 135 138 145 150 148 139 126 116 125 130 124 115 79 76 99 101 91 72 59 59 70 91 96 75 60 90 122 127 125 113 116 135 150 153 152 151 141 135 130 126 123 115 69 70 116 120 124 129 133 136 141 145 140 133 123 123 129 126 122 117 110 100 99 99 90 84 74 72 72 86 92 86 88 113 121 124 124 122 114 128 142 148 154 147 136 130 127 124 120 116 69 70 116 119 125 124 129 136 137 139 136 128 126 128 127 122 117 112 110 103 98 97 92 89 87 88 85 87 90 94 107 112 116 120 125 125 121 126 135 142 146 141 135 128 125 121 116 115 69 69 118 121 122 124 128 131 133 136 133 129 126 125 121 114 112 106 108 106 108 104 103 99 98 101 104 100 94 100 106 105 108 114 120 126 126 131 131 136 137 137 132 123 121 117 114 113 67 68 116 122 120 121 125 128 130 132 130 128 120 124 118 115 108 108 110 111 112 112 116 113 118 117 117 114 114 108 115 111 110 112 117 124 129 131 131 130 129 133 130 120 118 115 115 112 65 67 115 116 115 120 121 124 125 124 126 124 120 119 118 116 111 112 117 122 124 133 136 132 133 132 132 123 119 119 114 113 111 117 118 120 128 130 130 128 123 129 126 119 113 113 111 106 64 67 114 117 111 120 121 122 119 124 122 118 121 117 116 115 117 120 127 133 141 143 147 143 138 142 146 139 134 127 119 118 115 116 115 113 118 126 125 122 117 122 122 116 111 112 112 108 62 67 114 116 114 120 122 122 115 121 116 116 115 114 109 115 122 127 127 124 119 116 124 129 137 131 125 125 131 133 127 121 116 111 107 104 110 115 119 120 117 115 119 114 110 112 109 106 63 68 113 116 113 119 118 120 114 115 115 103 100 98 99 108 108 101 90 84 85 86 91 96 91 99 93 93 93 100 111 118 115 104 95 91 92 104 109 113 113 112 119 111 105 108 105 108 62 67 110 114 109 115 115 116 113 115 114 97 70 54 63 73 65 57 49 53 58 57 60 63 57 63 69 71 67 68 69 78 88 90 77 60 67 94 109 113 110 112 116 109 103 108 106 103 61 67 109 110 111 115 114 117 110 112 112 99 84 73 80 75 79 81 75 76 76 82 81 78 77 73 72 67 58 49 49 48 52 56 56 54 76 103 114 115 111 112 114 102 101 108 108 103 60 64 111 111 110 113 113 121 117 116 112 110 112 118 117 110 110 107 107 113 107 99 105 113 114 120 117 110 97 91 96 91 90 102 108 107 110 109 114 112 114 115 114 96 99 105 108 98 61 64 107 109 107 112 116 120 120 119 115 119 128 133 124 115 111 110 113 126 130 130 131 121 114 131 135 135 133 118 108 110 112 114 125 125 123 114 116 117 118 118 114 98 101 105 104 95 60 64 104 106 103 112 115 119 122 122 122 124 131 131 125 117 110 107 105 111 113 118 118 109 111 114 116 117 112 104 101 103 105 116 129 129 127 123 122 123 120 112 109 103 101 101 100 97 59 65 104 108 107 109 114 117 121 123 125 125 127 127 126 118 111 105 99 90 85 84 86 86 84 86 88 88 87 85 92 102 109 119 125 124 126 125 125 124 116 112 104 100 91 99 102 97 58 62 104 105 105 108 111 114 116 119 122 118 121 126 123 120 113 105 98 90 81 70 63 59 55 54 60 67 78 86 93 102 112 120 121 122 125 124 123 119 108 108 102 100 98 103 98 94 54 59 103 102 103 104 107 110 112 113 116 114 118 119 122 120 121 119 113 109 104 101 98 94 95 96 100 101 104 108 112 114 117 120 118 122 125 122 122 117 104 102 98 96 99 98 93 88 61 58 96 96 98 100 102 104 106 106 110 109 112 115 118 122 131 134 132 134 132 132 125 122 121 122 126 130 131 133 130 128 123 119 119 121 118 117 112 114 108 105 94 98 95 92 89 90 109 52 89 95 95 94 95 100 96 100 97 102 108 111 115 121 132 138 140 143 145 147 139 132 135 138 141 143 142 139 137 131 124 123 119 119 116 109 109 107 104 103 101 97 94 89 83 127 126 48 83 87 92 95 97 97 96 93 96 105 108 110 109 118 130 137 142 145 147 144 145 138 139 145 145 147 145 141 132 127 122 121 114 116 116 107 107 105 102 100 96 90 88 85 82 144 126 60 79 81 86 90 92 94 94 94 94 101 103 109 113 118 123 133 138 142 144 145 146 141 143 143 144 143 143 142 133 128 121 122 116 117 116 110 105 99 97 95 93 84 84 79 95 150 126 63 96 72 80 86 89 89 93 94 93 94 97 102 108 116 124 130 136 144 146 145 143 145 143 145 142 142 141 138 133 125 118 115 112 111 108 108 100 96 95 93 89 83 76 88 98 132 120 64 105 90 67 76 82 84 87 88 90 92 98 104 110 110 116 123 134 141 147 142 138 140 144 144 146 141 136 133 127 122 117 116 112 109 105 102 97 92 91 88 85 77 80 95 99 99 86 64 107 103 82 62 72 77 78 81 88 92 94 101 105 107 110 115 126 133 140 140 138 136 139 138 135 136 131 130 123 115 113 112 108 99 95 96 93 89 89 82 74 75 94 100 101 83 56 65 105 106 95 73 56 64 70 72 79 82 89 96 98 100 104 108 118 127 132 136 134 132 134 130 127 123 120 120 116 106 103 106 102 94 86 87 85 84 77 67 69 90 100 103 101 69 39 64 106 108 101 89 67 54 56 63 70 75 84 88 94 97 102 108 110 116 121 129 128 124 122 119 121 119 115 112 108 103 100 98 93 85 82 79 77 69 59 63 83 99 102 102 100 62 27 39 67 65 64 58 50 40 32 31 35 40 47 49 56 58 61 61 63 66 69 73 75 72 72 72 71 69 67 68 62 60 58 55 53 47 44 43 40 33 36 48 56 61 62 63 61 35 14 