P2
48
60
255
27 45 44 46 48 50 51 51 51 52 53 55 56 58 57 57 59 60 61 62 62 63 62 61 60 57 53 49 50 52 37 40 36 43 46 45 43 41 39 39 40 39 38 40 40 40 38 23 44 71 72 75 78 80 82 82 85 87 89 90 93 93 93 93 97 98 98 100 101 101 100 99 96 90 84 82 80 61 71 79 81 67 63 65 60 61 64 69 68 65 62 62 64 65 62 33 44 70 72 75 78 79 81 82 85 88 90 91 92 92 94 96 99 99 100 101 102 102 101 99 95 90 85 83 60 78 77 78 75 74 74 58 60 57 53 58 72 69 63 62 62 59 53 38 43 71 72 74 77 79 81 83 87 88 90 92 93 93 96 99 100 100 102 101 102 101 101 99 95 91 87 83 78 77 78 83 85 84 84 79 77 75 75 75 77 72 62 56 52 56 66 41 43 70 71 73 77 80 82 85 88 89 90 92 91 94 98 101 102 101 101 101 101 101 100 97 93 90 85 85 88 89 84 85 85 85 83 77 74 77 76 78 77 71 64 61 62 65 67 42 43 69 71 73 77 80 83 86 88 88 87 89 90 94 97 99 100 99 100 99 98 98 97 95 90 87 83 87 88 86 83 82 82 80 77 75 71 74 75 74 71 63 66 62 60 64 68 43 43 70 71 72 77 81 76 80 83 82 80 81 85 89 94 95 97 96 97 95 93 93 94 92 88 84 79 84 86 83 80 79 76 73 72 70 65 62 64 62 59 56 59 64 64 66 69 42 43 70 71 71 76 64 61 66 67 64 66 65 74 81 86 90 93 94 93 92 92 93 94 93 87 83 80 82 83 80 77 73 69 65 62 58 56 53 52 53 52 55 57 56 67 68 69 43 43 69 70 72 61 52 52 49 49 49 49 50 54 64 72 78 83 87 88 89 89 92 93 90 86 81 79 79 77 74 69 63 56 51 48 45 45 46 48 46 47 48 53 56 64 68 69 43 44 70 69 57 48 47 49 48 48 49 45 41 41 45 50 59 66 71 78 83 86 91 92 90 83 76 73 70 68 64 55 47 43 42 41 40 40 42 44 46 46 47 46 52 59 66 69 42 44 69 59 47 47 49 52 57 57 56 52 45 41 39 40 43 51 55 68 78 84 91 93 90 84 74 67 62 59 52 46 42 40 39 40 43 50 57 59 58 58 56 54 52 53 56 67 42 44 67 51 46 53 61 64 68 70 72 69 61 55 48 43 41 45 53 58 73 80 89 95 93 88 75 63 58 51 47 43 42 42 45 50 60 69 73 71 70 67 63 60 56 53 53 63 42 44 65 53 58 63 69 73 77 78 78 72 63 56 50 48 48 47 49 56 70 80 89 99 98 92 80 65 55 48 46 45 45 45 48 53 59 63 67 68 68 66 66 63 61 59 56 63 43 44 64 59 63 69 71 73 72 65 60 56 50 44 41 43 44 45 50 56 67 79 89 100 99 93 80 67 55 46 43 41 43 45 45 43 43 46 50 52 54 60 62 62 61 61 61 64 42 44 67 65 69 71 70 65 58 58 49 39 45 35 38 43 44 46 50 56 64 77 88 93 96 94 83 70 57 44 40 42 43 50 47 53 39 39 41 45 49 50 56 61 61 62 62 67 44 44 70 71 71 70 64 54 55 45 48 41 38 35 43 51 55 49 53 65 67 76 88 96 99 95 83 71 58 47 44 42 50 66 60 46 38 43 48 51 46 48 49 57 61 62 64 68 44 46 73 72 71 67 56 53 46 54 66 53 44 44 50 61 58 55 63 68 71 76 87 98 99 96 83 72 63 55 49 49 54 67 74 56 51 52 57 61 56 50 49 53 60 64 67 70 45 47 77 74 70 65 57 54 57 63 70 71 63 61 66 66 64 64 69 72 73 78 84 98 99 97 83 73 67 62 61 64 67 70 73 72 71 70 67 67 61 59 57 56 59 65 70 74 46 47 79 78 73 67 66 68 67 70 71 71 71 70 68 66 65 68 76 75 76 78 87 97 98 97 84 75 71 68 64 63 62 63 67 69 67 66 67 68 65 63 65 65 65 72 77 77 47 50 82 83 80 77 75 73 71 73 75 74 72 71 68 67 65 71 77 79 79 79 87 96 97 93 83 75 71 72 69 68 64 61 63 65 67 67 67 67 64 64 70 73 75 78 81 79 49 50 83 85 83 81 78 77 74 72 72 73 71 69 66 68 75 81 80 80 80 81 88 93 92 89 82 74 71 72 72 72 74 69 64 61 61 62 62 64 66 70 75 79 80 81 83 82 50 51 84 86 85 84 83 82 80 77 75 72 71 73 77 82 86 86 83 80 81 81 87 88 88 85 79 75 73 73 73 75 76 76 75 72 73 73 75 76 79 83 84 84 84 85 84 83 50 50 83 86 87 87 89 88 89 88 87 87 86 86 87 90 90 88 83 80 80 81 85 87 89 86 79 74 72 73 74 74 78 78 78 78 79 81 84 86 88 90 90 89 88 87 85 83 50 49 84 88 89 92 91 95 94 93 94 92 91 88 92 92 91 85 82 80 80 78 88 93 93 88 83 77 72 73 74 74 78 80 83 83 82 84 88 90 93 93 94 92 90 88 84 82 50 49 83 87 92 96 98 97 97 97 95 94 91 89 95 94 90 85 83 79 80 84 91 96 96 92 86 79 74 71 73 75 76 80 84 86 85 88 90 93 94 96 97 94 92 87 84 82 49 50 84 87 93 98 100 100 101 100 98 97 95 96 97 94 89 84 82 78 80 87 93 98 97 94 86 79 74 71 71 73 75 79 84 87 91 93 93 95 95 97 96 94 90 87 84 81 49 49 83 86 92 98 100 102 104 103 100 100 99 99 97 92 88 83 79 79 82 89 95 102 102 102 88 81 77 73 70 71 74 78 81 86 90 94 95 97 97 96 95 92 88 85 82 80 49 49 82 88 92 95 99 102 104 102 102 100 100 99 96 92 88 82 80 83 82 91 100 110 103 102 88 78 75 75 75 71 70 77 81 84 88 92 94 93 95 93 91 90 87 85 82 79 49 49 83 87 91 95 97 100 103 102 103 102 101 98 96 93 89 83 84 87 81 87 97 103 97 91 79 72 71 77 77 71 69 78 82 84 87 81 89 93 93 92 90 86 85 85 82 79 49 49 83 87 91 94 97 99 100 102 103 103 101 98 95 94 90 82 85 85 79 78 85 89 87 82 72 67 68 73 75 73 70 77 82 85 87 85 87 92 93 92 90 87 85 84 82 79 48 48 82 86 90 93 96 99 102 102 103 102 100 97 96 95 90 80 79 72 63 67 75 76 74 67 61 54 48 53 65 68 70 76 81 85 87 90 90 92 92 91 89 87 85 84 81 78 48 48 82 86 89 92 95 98 101 102 102 101 99 98 98 94 90 79 70 53 44 48 65 67 62 58 48 41 40 46 58 63 71 76 80 85 87 89 89 92 92 91 88 88 85 83 80 77 48 49 82 85 88 92 95 99 99 102 101 101 99 97 97 93 88 82 69 60 58 70 76 68 60 56 53 51 45 52 57 64 73 77 80 85 88 89 86 91 91 90 89 87 85 82 78 78 48 49 80 85 87 91 94 97 100 100 101 101 99 98 96 89 86 84 76 63 62 77 80 74 65 59 63 64 53 49 55 71 76 79 82 85 88 89 89 90 90 89 89 86 84 81 78 79 49 50 80 83 87 91 93 96 98 98 99 99 100 99 93 85 85 83 79 76 76 82 83 77 73 68 73 71 67 62 68 74 78 81 84 86 87 90 90 89 89 89 88 84 83 81 79 79 49 50 81 83 88 90 92 95 97 98 98 99 99 96 91 87 84 81 80 81 81 83 84 80 78 78 79 77 76 75 75 73 79 83 85 87 88 89 90 89 88 88 87 84 83 81 80 79 49 51 82 84 88 89 92 94 96 97 98 97 96 94 90 86 83 82 80 81 83 86 87 85 83 84 86 81 81 80 79 77 80 83 85 87 88 88 88 88 87 87 85 83 82 80 80 79 50 52 83 85 86 88 91 93 94 95 95 95 95 92 90 85 84 82 81 76 83 87 92 91 90 90 90 85 84 81 80 80 81 81 82 85 87 87 87 87 86 85 85 82 80 79 79 79 50 53 84 85 86 88 90 92 92 92 94 94 94 90 86 83 83 83 83 81 86 90 96 95 92 94 87 85 84 83 82 81 81 81 81 81 84 87 84 84 80 82 82 82 80 79 79 79 50 54 84 84 85 87 89 91 91 90 92 92 92 86 83 81 84 82 83 86 87 86 90 92 92 91 81 79 80 83 82 80 79 81 80 79 79 83 85 82 75 80 81 80 79 79 78 79 51 56 86 85 85 86 88 89 91 91 90 91 87 83 82 80 82 83 83 82 77 74 74 78 81 75 72 72 73 74 77 75 77 76 76 77 73 78 83 82 78 79 80 78 78 78 78 79 52 70 86 84 85 85 86 87 89 89 90 88 84 81 79 76 79 79 72 69 69 69 68 67 67 65 68 69 67 64 64 66 70 71 73 74 75 75 80 80 78 78 78 78 76 77 78 78 52 120 91 84 84 85 85 85 87 87 88 85 80 77 73 69 69 65 62 62 61 61 60 58 56 58 61 59 55 54 54 54 58 62 65 70 74 74 78 79 78 77 77 76 76 76 78 81 53 150 111 85 84 85 84 84 85 85 86 83 77 72 60 54 53 53 56 60 59 58 56 55 52 54 54 53 57 56 56 56 51 50 53 63 70 74 77 78 77 77 76 76 76 76 78 82 58 157 163 86 84 84 84 84 84 85 85 82 75 67 58 60 59 64 71 75 77 77 79 78 77 76 76 77 79 76 76 71 67 64 66 65 67 73 76 77 77 76 76 75 75 76 79 84 62 158 223 92 84 83 82 82 83 83 84 82 76 69 69 71 72 74 74 78 83 87 85 86 85 85 85 87 85 77 74 70 69 69 72 71 72 74 75 76 76 73 73 74 75 76 79 89 56 158 251 117 84 82 82 81 82 82 82 80 76 72 77 75 73 74 73 72 76 81 81 82 81 82 80 78 76 72 69 67 67 70 71 73 75 74 76 75 74 73 73 73 74 76 80 87 54 158 252 127 83 81 80 80 80 79 79 79 77 78 79 78 75 73 73 72 71 71 72 71 71 71 68 68 67 66 65 63 65 68 69 73 75 75 74 74 73 72 72 72 73 76 81 82 55 158 252 120 84 78 79 79 78 78 77 77 78 78 80 79 77 72 73 71 66 63 59 57 58 56 56 58 58 55 57 61 65 68 69 72 74 74 73 72 70 70 71 71 72 77 76 82 55 158 252 113 82 75 76 77 76 75 75 75 76 77 77 75 78 76 73 67 63 58 53 51 51 49 49 51 53 52 56 62 65 67 70 71 70 71 71 69 68 68 69 70 72 75 75 83 55 158 250 105 77 74 73 74 75 75 74 72 73 75 76 78 78 78 75 71 67 62 60 60 58 56 54 55 56 59 60 63 65 68 70 71 70 70 68 67 66 66 67 69 71 70 76 83 55 155 214 90 77 72 70 72 73 73 72 72 74 75 77 78 79 78 76 72 71 71 73 76 73 71 69 69 67 66 66 66 69 70 70 69 70 69 66 66 65 65 66 68 67 71 78 84 56 69 84 79 77 74 68 69 71 71 72 72 73 74 75 72 75 78 77 76 79 80 86 87 85 84 84 82 80 76 74 74 73 72 70 70 69 68 67 65 64 65 65 64 67 73 78 84 58 37 69 77 76 75 70 64 67 69 70 71 73 73 74 72 70 79 81 83 84 87 90 90 88 88 88 88 85 82 82 72 73 74 71 70 68 67 63 63 63 63 62 63 68 74 78 84 59 33 65 76 76 75 72 66 63 65 67 69 71 72 73 74 66 79 82 85 86 88 90 89 88 88 88 88 85 83 80 70 73 74 72 69 66 65 62 61 61 59 59 64 70 74 78 84 67 30 64 75 75 75 71 71 63 61 64 64 68 71 73 74 75 78 82 84 81 84 88 88 87 87 85 85 83 81 78 77 74 72 69 68 66 63 60 59 57 57 61 66 71 75 78 83 79 30 65 74 75 76 75 73 68 61 59 61 65 69 71 72 74 75 79 81 76 79 85 84 84 81 81 81 79 76 73 71 71 70 67 65 63 60 57 55 52 58 63 68 72 75 77 80 62 28 67 74 76 76 76 74 71 66 60 57 59 62 66 70 72 73 75 77 76 76 79 79 80 76 77 76 73 70 69 67 68 67 64 61 58 56 53 52 55 59 65 70 73 74 75 78 53 28 68 74 76 76 76 74 73 68 64 60 56 56 60 64 68 70 69 67 72 74 75 70 71 71 71 69 64 65 64 63 62 61 60 57 54 51 51 53 57 61 67 70 72 73 74 76 48 19 43 45 46 46 46 46 46 44 42 39 37 34 33 36 39 41 41 36 42 43 42 41 40 41 41 39 38 38 37 36 36 35 34 33 31 31 31 33 36 39 42 43 44 45 46 46 29 