P2
48
60
255
24 40 44 46 50 52 54 55 57 60 58 63 63 62 63 65 67 65 65 65 66 67 67 64 61 59 59 60 59 57 63 61 62 64 61 65 65 68 71 68 63 59 55 51 48 43 41 25 38 67 73 80 84 86 89 90 91 95 100 104 106 103 102 108 110 108 107 107 107 110 108 109 101 101 93 96 97 96 99 99 100 102 113 121 122 126 125 123 115 102 86 81 77 73 65 41 38 68 77 81 86 93 91 93 94 101 109 117 111 107 108 112 111 111 109 108 107 107 111 108 101 101 101 101 100 104 104 110 109 110 129 140 145 145 139 147 126 111 94 80 76 70 64 38 38 65 74 82 91 96 102 105 112 133 135 140 130 121 114 114 117 116 115 108 106 113 120 112 104 104 109 104 102 109 112 110 116 117 130 143 146 148 140 132 116 104 89 84 77 67 63 38 39 66 74 76 82 97 110 110 120 132 157 168 150 133 125 120 119 123 120 114 107 114 126 122 113 108 108 109 107 107 108 108 107 107 113 115 116 111 103 96 90 90 82 75 73 66 64 39 42 67 70 71 76 84 92 95 103 115 132 139 129 121 113 117 119 120 123 121 112 112 114 119 119 111 105 108 104 101 101 98 95 96 90 89 84 80 75 75 76 79 82 78 77 71 68 42 41 64 66 66 67 69 72 74 81 87 90 100 101 100 103 107 108 109 111 119 111 100 105 105 113 106 101 101 99 91 93 89 82 76 73 72 69 68 63 64 73 81 78 81 76 69 72 42 41 64 63 68 69 66 64 63 63 68 71 78 82 85 87 90 96 97 99 105 108 103 96 97 97 94 97 93 86 81 79 73 72 68 64 61 56 58 64 79 87 90 96 89 81 78 77 45 38 65 72 78 80 80 72 62 59 57 62 64 69 74 74 79 80 82 89 90 96 94 92 90 89 86 87 82 74 68 67 64 65 60 55 50 53 66 80 87 93 99 99 92 87 81 79 46 41 72 81 83 86 85 81 74 63 56 52 54 59 65 67 69 68 70 76 79 84 86 89 85 80 79 78 72 66 63 63 63 56 50 48 53 65 75 75 79 85 92 92 86 85 83 76 44 41 74 73 81 80 79 77 75 71 64 56 51 49 54 61 64 61 63 66 68 73 78 81 79 74 75 74 67 61 59 59 52 46 46 57 70 76 77 77 78 79 78 79 79 78 77 74 43 42 72 71 70 70 73 75 77 77 75 72 64 53 46 47 53 57 59 61 63 64 73 75 73 69 66 65 61 55 53 46 42 47 63 81 84 83 84 82 77 73 69 68 68 64 66 66 40 39 64 63 60 60 69 75 84 85 83 82 82 71 55 46 44 48 55 57 56 62 68 70 68 64 61 59 55 51 47 42 47 65 93 98 93 89 86 93 86 74 65 61 58 57 58 59 37 36 58 55 56 57 64 74 84 90 86 77 77 82 76 58 46 45 49 52 53 58 66 67 68 69 63 58 54 51 45 47 60 78 77 75 72 71 69 64 58 60 60 54 50 50 52 53 34 34 53 50 51 56 63 63 61 68 81 81 79 78 70 58 53 46 46 51 55 59 78 96 91 89 78 64 58 52 50 58 64 67 92 95 95 91 93 106 84 61 44 44 46 45 48 50 31 31 48 47 52 51 46 64 88 99 81 65 68 67 73 79 61 51 50 56 59 69 93 112 108 112 95 75 68 58 65 74 80 77 57 44 42 32 35 45 57 69 68 46 38 41 46 49 31 31 49 48 46 44 63 65 53 35 27 26 27 38 51 44 62 73 62 69 76 81 96 108 111 113 97 86 82 81 87 93 61 47 90 93 36 28 28 27 37 36 45 51 52 49 47 49 31 33 51 51 50 50 42 37 62 48 33 30 34 73 125 87 56 52 75 87 79 85 99 109 111 108 97 84 83 99 102 53 60 107 152 135 63 42 42 48 77 61 34 35 46 57 56 52 32 34 53 54 54 42 36 53 98 102 54 44 52 104 118 98 83 81 84 81 79 93 106 114 117 116 104 90 78 81 98 80 84 92 107 115 97 66 68 95 88 73 59 59 68 69 68 61 37 38 61 63 63 64 60 62 90 95 93 87 85 90 93 92 92 98 92 75 89 97 109 121 124 117 107 93 85 74 84 97 101 94 88 87 87 90 92 90 84 77 71 80 97 96 87 82 48 44 72 77 81 78 74 72 77 82 79 82 83 83 84 91 97 95 76 83 93 102 114 121 121 116 104 93 92 82 79 91 98 100 94 89 83 78 81 86 90 93 92 91 98 103 100 94 56 48 78 83 83 82 84 86 85 90 89 98 93 93 101 99 99 88 81 90 94 105 115 120 120 113 103 92 87 91 88 92 103 101 99 100 96 100 102 103 104 102 97 93 95 100 97 94 57 50 81 84 85 84 85 92 97 102 103 102 102 100 102 105 101 85 90 91 95 107 114 123 123 118 108 96 90 91 95 99 110 113 106 101 98 98 99 103 102 99 99 94 94 94 95 95 58 50 82 86 83 88 90 98 99 99 101 100 99 101 106 107 98 88 93 93 99 112 119 129 134 129 115 104 95 92 93 101 108 115 114 108 102 102 100 100 99 98 96 95 94 93 95 94 57 50 85 86 89 92 94 97 99 99 94 100 104 106 109 108 97 94 92 97 109 120 132 136 141 137 126 112 103 94 93 97 112 112 116 113 105 105 102 103 104 105 102 103 99 97 98 98 58 49 88 88 92 96 95 98 102 104 105 105 108 109 113 113 106 96 102 111 116 133 161 147 147 167 153 123 116 105 103 97 114 123 118 114 108 110 111 109 105 106 106 104 103 100 101 100 59 49 85 92 91 97 102 102 106 107 107 107 113 115 120 120 107 113 121 122 119 134 169 142 136 141 132 127 135 133 126 113 104 119 124 117 118 116 112 112 108 111 111 108 109 102 106 103 60 49 86 85 87 98 107 106 105 110 110 112 118 121 122 112 108 120 115 107 107 107 117 123 123 121 112 110 111 119 116 125 108 100 112 120 123 122 119 115 108 111 113 111 107 106 106 97 56 50 82 85 91 102 109 109 110 110 114 121 126 123 115 98 101 88 68 69 85 100 109 111 112 112 106 84 66 58 59 81 96 93 91 99 117 124 126 125 117 114 114 115 112 103 99 93 55 49 78 79 88 97 107 106 112 115 128 131 123 110 101 88 77 42 26 20 26 56 97 107 104 102 66 25 19 19 21 36 71 87 90 83 96 113 126 134 135 129 118 117 109 103 96 91 56 45 74 77 85 95 103 115 123 130 131 133 112 97 104 82 62 34 26 20 22 24 64 94 91 79 30 19 18 19 21 37 70 78 84 90 87 101 115 128 131 132 123 123 113 107 96 87 52 43 70 77 82 88 100 112 129 133 130 119 98 101 108 81 67 58 55 35 30 28 54 72 70 67 50 26 22 23 38 72 79 74 80 98 94 100 103 112 125 123 130 129 114 111 98 85 52 41 70 78 84 87 101 109 126 120 116 103 97 104 105 85 70 84 98 89 72 66 69 51 48 52 62 75 68 85 102 99 76 64 81 99 104 108 109 106 116 123 125 119 110 107 96 87 49 42 69 72 80 85 92 110 114 114 109 94 95 104 103 94 76 75 90 100 90 88 82 78 81 84 87 95 99 104 102 88 74 70 95 111 120 114 111 108 110 115 114 112 105 101 89 82 46 43 67 70 71 80 89 99 106 105 102 94 98 100 99 95 92 84 76 73 71 61 71 92 102 92 85 72 69 85 83 90 93 90 98 111 115 112 108 107 105 103 109 106 100 91 85 75 44 41 63 71 72 76 81 87 97 106 99 96 97 91 87 77 66 61 53 54 58 54 58 77 100 94 63 57 57 62 59 57 75 91 87 94 99 106 103 101 101 98 97 101 91 89 79 73 45 39 64 64 66 73 77 84 91 103 98 97 87 86 80 65 51 51 42 46 50 55 64 85 97 95 70 54 50 45 46 55 58 81 80 82 85 98 98 100 103 100 94 92 86 82 72 69 41 38 65 64 64 70 73 80 87 95 99 93 80 67 56 57 49 48 43 44 53 53 66 85 97 98 87 71 71 55 51 44 58 71 75 57 52 70 82 93 97 101 99 85 76 74 70 65 38 41 63 66 61 63 71 77 86 95 91 77 64 55 45 50 56 57 47 51 75 88 100 101 102 106 109 107 103 85 67 58 69 62 74 54 51 51 59 73 82 89 93 83 73 67 69 63 35 39 63 64 60 63 67 68 80 88 73 56 44 44 47 53 58 67 80 94 114 130 143 135 126 124 119 120 118 119 115 105 96 87 73 69 62 50 54 54 62 77 81 78 68 64 64 60 36 39 64 62 58 60 61 65 77 71 56 45 42 49 49 63 76 96 113 109 111 114 119 125 111 106 107 106 107 107 107 111 111 112 91 88 77 53 53 52 46 51 70 72 63 59 62 58 34 36 61 61 61 61 63 68 69 60 43 39 46 50 53 79 96 101 106 106 117 111 100 97 88 89 91 95 99 101 102 103 96 90 90 95 91 70 53 43 42 43 49 65 64 59 57 57 35 35 59 59 58 61 60 62 57 45 34 33 47 60 79 82 85 93 94 91 94 90 85 80 75 77 77 83 84 84 89 88 85 84 78 74 78 81 62 47 41 37 53 62 61 57 56 57 34 35 58 58 58 62 60 59 50 42 31 37 59 75 74 71 76 80 81 77 75 75 73 71 64 64 68 68 70 69 71 66 70 69 69 64 59 62 63 57 40 34 44 61 62 58 57 56 37 38 59 55 59 60 61 63 54 39 38 42 65 64 57 61 65 67 62 61 62 61 62 64 55 57 61 64 61 63 65 65 62 58 57 52 45 44 46 56 44 38 51 62 61 58 54 54 37 38 58 54 55 57 61 60 48 38 39 53 55 44 41 50 58 67 81 95 103 105 103 100 94 93 108 123 131 134 136 139 134 115 84 64 47 34 29 42 55 49 57 59 60 59 59 54 34 38 59 55 59 57 61 58 60 41 45 53 50 38 56 91 105 116 127 130 138 148 143 140 135 142 149 149 151 151 159 161 145 136 121 112 94 80 69 54 51 55 56 57 60 61 58 54 34 38 59 55 58 57 57 56 63 55 53 53 60 77 88 88 102 114 135 142 145 154 153 149 146 153 152 159 163 158 158 166 149 140 112 99 96 98 90 73 59 55 58 56 62 63 55 54 32 38 58 55 55 55 56 55 60 65 62 60 62 75 89 95 94 95 107 125 131 150 155 150 144 148 151 152 157 151 140 136 122 114 101 94 91 88 81 73 66 61 57 54 61 59 55 53 31 37 58 56 53 55 54 56 60 68 63 65 68 72 79 80 81 85 91 95 106 120 126 121 121 119 126 126 121 117 109 103 92 91 86 74 72 76 70 71 66 65 55 52 58 56 55 52 32 38 58 56 53 55 54 55 58 61 64 67 72 72 74 69 65 63 68 73 77 84 88 89 89 87 88 84 82 79 76 69 60 53 52 57 61 66 66 69 64 63 56 50 54 51 50 48 30 38 58 54 53 52 51 52 54 57 63 64 69 68 70 65 60 56 51 45 42 43 45 44 42 40 39 37 35 36 35 34 35 38 45 53 62 65 67 67 62 57 55 51 50 50 48 48 30 39 59 54 53 49 48 48 52 55 63 66 67 66 64 62 61 61 59 53 46 43 37 31 28 26 26 25 27 28 31 37 42 48 54 63 62 63 60 59 59 57 53 50 47 45 45 46 29 37 60 56 50 50 47 47 51 54 61 67 66 64 62 62 63 63 62 63 66 69 70 72 68 66 64 65 66 70 70 69 64 64 68 63 62 61 56 53 52 51 51 50 46 43 44 45 28 35 59 56 52 50 46 45 48 52 57 60 63 62 64 65 67 69 70 77 92 95 93 96 97 100 102 104 101 101 98 95 89 81 77 73 68 60 54 51 49 50 49 49 45 42 43 44 28 36 56 58 53 49 46 45 45 49 53 59 61 63 67 69 78 84 90 97 106 104 107 115 109 107 107 108 108 110 111 107 104 92 89 83 75 61 53 53 52 50 50 47 44 44 45 44 28 48 55 55 55 49 48 45 45 47 51 53 58 59 66 71 81 89 103 107 103 110 113 109 105 100 98 100 103 101 104 112 109 100 98 89 80 69 62 58 58 53 49 48 46 44 42 43 27 71 56 53 53 53 48 46 43 46 48 53 56 59 63 71 80 85 100 102 111 112 107 101 93 78 75 77 85 86 91 99 104 107 99 87 77 71 65 62 54 50 47 47 45 43 42 42 27 98 59 55 52 52 49 45 44 45 44 48 52 56 60 67 78 79 83 90 98 102 94 84 73 68 58 63 75 79 88 89 96 92 93 81 75 67 65 62 51 48 46 46 43 41 42 42 26 74 40 35 33 30 30 28 27 27 28 28 31 31 36 41 45 46 46 50 58 59 50 48 42 38 30 33 41 46 51 53 52 54 54 47 42 39 36 34 31 30 28 29 26 25 25 25 15 