P2
48
60
255
43 72 59 61 67 77 77 82 83 85 89 95 95 92 96 92 89 80 75 79 74 75 70 69 73 74 72 68 64 67 68 72 77 77 75 70 73 74 71 68 62 60 64 58 59 60 69 43 72 100 94 108 131 132 139 149 150 147 147 149 150 152 151 146 133 126 123 121 116 112 115 120 120 117 109 103 109 104 125 130 134 135 129 123 125 121 120 111 109 107 102 96 98 97 105 73 67 96 99 128 132 136 144 152 150 147 151 156 153 148 143 139 133 126 129 116 112 124 127 122 118 110 101 97 107 121 131 137 133 129 129 132 130 126 122 111 113 111 104 98 97 101 99 68 63 100 119 128 129 133 141 151 153 158 160 166 166 163 156 151 150 142 135 131 128 128 122 113 106 106 109 118 123 132 134 136 140 140 137 135 130 123 123 119 118 114 107 101 98 103 98 67 69 112 122 127 137 143 145 150 155 158 164 172 171 168 167 152 157 154 139 138 136 119 123 120 115 116 121 143 149 149 150 157 156 151 153 148 143 135 130 125 118 112 111 97 98 105 101 64 67 113 116 127 135 141 140 144 151 161 169 167 162 163 158 153 155 155 158 159 155 154 156 154 148 132 143 167 168 161 164 168 171 170 168 168 154 140 144 140 127 114 114 104 103 104 102 65 69 110 114 118 117 114 105 105 108 116 125 122 131 139 142 145 139 142 147 156 162 160 164 164 162 154 165 168 158 151 155 163 164 171 172 174 155 137 141 138 133 122 113 107 104 106 110 64 70 110 99 88 92 97 95 104 112 102 90 86 90 90 99 117 130 129 123 129 149 154 153 157 150 152 157 156 139 130 138 143 143 139 128 112 91 87 88 89 97 110 109 105 103 105 112 62 69 94 80 94 115 129 140 148 133 114 98 83 72 63 66 80 102 113 110 113 134 145 147 142 148 147 146 142 117 111 119 120 98 84 80 77 77 80 79 69 69 66 84 97 101 99 103 66 64 87 114 128 138 145 156 153 142 125 114 102 92 85 85 89 94 99 107 113 127 138 140 139 142 145 141 128 108 105 98 92 80 69 67 79 87 96 111 112 108 77 69 72 92 92 98 66 57 113 122 127 133 146 149 151 153 141 123 108 94 80 82 86 91 98 112 120 131 139 143 147 149 152 138 120 106 97 91 82 78 81 84 91 106 116 131 146 144 126 103 80 83 85 92 58 63 120 122 126 134 141 157 158 156 152 150 153 145 129 116 106 107 113 124 135 137 144 153 156 157 156 139 120 108 92 84 80 79 82 98 112 121 133 149 151 155 131 125 101 86 83 83 52 68 119 120 126 132 146 155 153 151 149 145 143 143 139 140 138 124 120 128 134 146 158 158 158 155 155 140 124 109 96 96 109 128 137 147 157 152 157 162 161 152 131 124 108 102 87 78 49 69 117 118 125 137 145 136 131 128 118 98 93 86 89 104 121 122 118 126 133 147 162 158 157 154 146 132 115 101 99 108 126 130 121 113 120 128 139 146 149 148 127 123 112 108 90 71 46 67 115 116 123 128 126 117 87 57 43 41 49 64 81 81 90 106 93 106 122 131 149 150 153 151 148 131 111 86 81 90 84 80 82 59 47 63 97 126 135 135 127 121 111 107 94 70 42 69 116 116 116 110 80 46 38 38 28 45 68 89 73 76 97 81 55 77 121 133 148 155 158 159 151 125 98 66 61 72 78 72 78 102 32 62 32 45 79 111 119 117 110 105 97 74 39 71 115 110 102 61 40 45 58 56 58 59 69 117 124 73 70 98 80 97 100 124 134 155 160 152 140 119 93 81 87 76 70 112 122 71 45 44 49 43 36 70 108 111 110 107 101 87 31 72 110 100 63 56 87 90 97 87 71 73 106 136 130 116 104 100 114 106 95 111 127 149 159 155 140 113 96 106 97 97 105 133 131 87 63 63 66 81 52 45 77 107 111 106 103 99 36 62 98 76 53 90 122 131 130 132 122 125 134 137 130 135 132 124 124 113 104 116 128 146 151 145 134 111 98 105 104 111 129 134 136 125 109 105 111 110 108 75 62 98 113 115 106 104 48 66 93 76 98 115 127 136 138 138 138 142 140 139 136 130 127 121 121 118 112 118 126 142 152 148 137 113 103 100 97 103 129 135 138 146 141 129 129 124 114 94 57 87 104 115 109 106 61 67 106 116 117 122 131 145 148 155 158 150 146 139 138 136 131 118 127 124 119 123 128 139 150 152 143 117 112 107 99 92 117 130 137 142 149 150 142 138 123 108 84 76 98 107 110 110 64 78 131 136 129 124 131 140 148 151 156 154 147 140 135 128 125 136 129 125 122 125 126 133 152 154 149 126 115 111 112 103 104 120 134 139 139 136 132 125 127 120 105 95 100 109 108 115 68 85 133 137 132 131 125 131 138 143 144 137 132 130 122 123 137 142 137 131 124 125 126 134 151 155 151 136 118 114 113 116 112 110 124 131 138 141 127 130 127 129 118 119 125 126 115 112 70 84 135 138 132 134 137 130 125 129 133 130 122 116 121 140 145 139 144 135 128 127 129 136 153 159 155 147 125 113 113 118 123 126 122 124 131 135 128 134 127 119 126 128 137 132 120 116 71 90 139 135 136 134 136 139 138 130 128 131 131 130 143 148 143 135 135 134 132 130 132 140 154 159 156 150 134 119 114 117 118 127 137 142 138 143 147 138 134 134 133 138 138 131 122 118 72 89 142 137 142 143 137 132 139 136 137 133 132 140 149 149 144 129 128 132 132 132 135 147 157 157 155 152 142 123 116 116 125 125 132 142 149 149 136 145 137 147 139 134 139 137 123 118 71 86 140 138 141 145 139 131 129 128 134 139 144 149 149 151 145 136 129 124 124 127 132 147 153 153 152 152 143 127 118 110 122 126 131 142 150 150 153 151 142 149 141 140 139 138 128 118 72 82 135 133 136 136 137 140 143 137 144 148 149 149 152 148 144 129 109 117 120 125 129 156 167 156 155 156 146 124 113 116 122 124 134 141 145 146 150 153 147 144 140 139 142 140 131 120 73 79 127 123 121 128 128 135 146 142 149 151 156 155 152 145 132 103 112 122 125 124 127 157 171 151 159 170 144 125 113 108 120 125 131 138 148 146 147 148 147 137 135 136 140 137 130 119 73 77 116 116 123 123 131 143 146 149 155 155 159 154 150 139 111 98 125 127 127 123 121 138 143 136 137 143 136 118 114 104 106 121 128 138 142 151 150 150 140 137 140 137 134 135 130 120 72 72 128 122 131 143 136 142 149 154 158 156 155 149 142 122 90 97 129 132 127 117 112 115 117 113 114 121 113 107 110 114 91 105 122 132 140 144 152 148 144 142 135 132 128 126 124 119 71 75 134 131 135 140 139 145 154 159 156 155 150 142 126 87 64 109 127 120 110 96 104 110 96 84 84 93 98 98 104 114 94 90 107 120 138 142 154 153 143 141 137 130 132 122 117 115 71 86 131 137 139 130 140 149 159 159 155 150 143 126 94 72 91 112 101 75 41 30 41 82 78 65 61 75 74 50 68 93 100 93 91 104 125 138 151 157 150 142 134 124 121 120 117 117 73 83 127 136 137 130 142 151 158 157 151 144 133 109 84 100 115 103 70 41 35 40 53 79 74 61 57 55 38 36 49 81 110 104 95 98 109 126 143 155 148 140 133 125 121 120 113 116 70 76 126 126 131 135 144 151 154 151 141 131 121 98 107 120 128 130 101 70 80 91 85 78 70 64 73 76 69 66 84 115 123 111 96 92 102 112 131 140 142 138 132 123 116 115 113 112 69 76 119 125 135 139 141 147 145 143 135 127 113 108 129 128 127 133 126 126 127 126 115 97 89 91 106 114 110 115 118 122 122 118 101 86 95 105 114 127 134 132 128 121 114 110 110 107 67 73 123 127 131 136 140 146 143 137 131 120 113 136 134 127 130 127 126 129 132 135 138 139 139 138 130 122 120 118 120 118 119 117 111 88 83 97 107 117 125 125 122 119 113 107 107 106 66 74 123 121 128 133 138 140 137 130 123 112 128 141 139 139 139 134 135 137 143 150 150 152 151 152 153 138 124 117 116 112 113 113 112 100 74 87 99 106 114 115 117 114 109 106 107 107 67 72 115 120 124 129 134 132 128 120 115 114 131 134 139 136 142 141 139 138 147 146 150 149 150 151 157 142 134 121 121 113 105 106 108 104 75 70 85 96 108 109 107 108 108 106 106 110 64 71 112 117 118 130 129 126 117 111 104 112 126 128 130 133 134 138 135 136 140 142 144 151 149 152 152 149 135 126 124 120 112 104 105 102 90 57 67 82 90 102 104 98 102 106 107 110 58 68 116 114 121 125 126 112 100 99 89 116 111 111 120 125 128 133 137 136 139 146 139 142 143 145 144 142 133 125 128 118 109 102 98 93 95 68 47 63 80 92 101 102 96 103 107 110 59 74 116 119 123 116 110 98 96 73 94 102 104 112 118 126 128 130 129 125 120 109 102 108 117 123 109 106 110 115 117 111 107 102 96 92 87 73 43 51 68 87 102 105 99 99 103 109 58 76 119 123 118 112 108 98 81 59 85 99 107 113 111 101 84 70 62 57 54 58 61 65 67 73 66 65 64 60 61 70 84 94 95 93 94 89 67 60 81 98 104 107 105 99 99 111 55 74 121 122 116 116 119 104 74 71 96 94 80 70 59 51 44 47 59 57 63 58 53 50 53 54 52 50 51 50 50 49 48 52 55 61 78 85 95 79 100 109 110 108 108 108 103 112 64 73 118 118 118 123 129 110 102 89 84 63 62 66 65 73 80 92 102 104 98 89 93 93 94 96 97 91 86 82 82 72 69 73 84 91 89 88 106 110 108 116 110 107 106 109 105 100 47 71 114 117 121 127 132 123 134 108 100 107 113 113 106 102 92 92 96 116 117 114 106 104 116 119 125 126 116 96 90 80 77 91 96 101 99 93 114 125 112 119 109 107 109 109 108 112 89 68 110 110 117 124 130 135 141 115 118 126 123 120 111 113 114 113 108 105 102 106 110 107 112 122 129 123 107 97 100 97 95 96 104 106 104 101 121 132 124 115 105 105 110 109 112 151 113 67 106 109 112 124 131 145 138 120 123 128 123 122 119 119 122 120 119 122 122 125 120 115 123 127 123 120 114 111 104 101 97 100 105 107 104 102 124 130 125 112 100 105 110 108 129 182 124 66 107 106 112 118 132 144 132 124 124 125 124 120 121 118 119 120 119 119 111 114 106 102 101 98 98 102 104 107 104 102 100 101 102 107 107 107 120 128 118 109 103 104 106 106 163 198 130 65 105 105 109 116 126 137 124 130 121 119 123 121 117 115 114 117 116 115 114 110 108 110 109 108 110 109 107 107 103 102 101 102 104 108 112 112 111 124 111 106 103 103 102 117 197 204 129 66 105 105 107 114 121 128 116 138 121 122 120 121 120 120 121 118 119 114 120 117 118 120 115 110 112 112 106 104 103 102 102 104 106 109 114 112 108 113 106 103 101 103 97 157 205 207 122 63 102 104 104 110 115 118 118 125 129 128 127 124 127 124 126 123 124 124 128 129 123 124 122 123 121 118 115 109 105 104 105 109 112 115 112 107 102 105 102 101 104 102 112 115 116 100 48 60 100 104 101 106 110 111 119 126 135 128 130 126 129 131 130 129 126 132 137 140 140 139 139 142 139 132 127 117 116 114 115 116 109 112 107 108 95 100 101 101 100 98 146 185 156 131 88 55 94 101 101 100 103 103 119 122 128 128 127 130 133 136 136 135 136 142 141 145 145 147 151 149 148 143 135 131 121 127 126 119 110 112 105 105 96 98 97 99 97 82 147 194 204 207 129 51 88 94 97 95 99 107 113 116 118 120 120 124 131 136 139 137 141 146 142 146 145 144 148 146 149 144 137 132 125 132 129 116 107 107 103 99 96 97 98 99 84 50 118 179 201 206 129 55 83 89 89 89 95 107 105 110 115 116 118 120 127 132 135 135 140 144 143 141 145 146 147 150 143 145 133 126 129 131 125 111 103 102 98 95 93 92 96 97 66 46 95 168 193 202 126 66 92 81 82 86 91 96 92 103 102 109 112 114 118 127 129 137 138 139 140 144 141 139 142 143 142 139 131 127 129 120 115 104 100 97 87 88 90 92 92 102 71 49 76 115 144 176 122 68 105 92 80 80 85 86 84 93 93 98 106 108 111 116 127 131 134 135 136 134 134 137 141 138 139 138 127 125 119 110 100 99 95 87 80 82 86 88 102 103 75 55 63 93 108 107 73 68 106 101 89 73 75 76 75 79 77 86 95 103 108 115 124 124 127 124 121 122 124 124 125 121 127 121 120 119 107 107 100 96 88 73 72 76 82 99 105 101 78 63 56 88 106 105 64 41 66 62 60 54 41 40 40 40 40 43 51 59 62 64 71 73 72 71 71 69 70 72 70 71 71 69 67 65 65 61 59 55 46 40 42 46 60 64 65 63 52 51 39 57 65 67 40 