P2
48
60
255
16 23 25 36 48 53 54 54 56 59 65 67 68 70 71 75 78 81 82 85 86 87 90 92 91 92 92 93 93 91 92 92 94 95 92 91 91 90 89 89 87 86 84 82 76 68 54 28 24 36 41 61 79 87 90 89 91 98 105 111 112 113 117 120 125 129 131 134 138 141 143 145 148 147 148 151 150 149 153 155 155 154 152 151 150 148 147 145 143 140 135 130 124 112 92 46 25 34 42 66 80 88 91 92 94 101 105 111 115 118 119 121 124 128 132 134 139 141 143 144 143 145 145 150 152 155 154 157 157 156 154 152 151 150 149 148 146 142 138 132 126 119 102 48 23 33 43 71 82 89 94 97 99 103 107 112 116 121 121 121 124 127 129 133 133 136 136 135 141 143 149 148 151 152 155 157 157 158 156 154 151 153 153 150 149 145 140 135 128 120 110 56 22 33 46 73 84 92 98 101 103 105 109 115 119 123 122 122 121 125 126 129 135 134 135 137 142 143 146 147 146 144 152 155 157 159 156 157 156 157 158 158 153 149 143 136 130 121 114 64 21 32 51 76 87 96 102 105 105 106 111 114 120 124 123 122 121 122 124 126 129 130 132 137 139 141 141 144 144 146 150 151 155 156 155 155 152 154 148 138 142 147 146 141 133 125 118 68 20 33 57 78 92 96 93 93 94 99 104 111 117 120 122 121 120 118 121 123 125 128 128 130 135 137 138 138 142 143 146 147 146 146 139 133 121 110 100 98 87 84 96 114 130 128 121 71 19 34 64 81 75 52 47 50 58 65 73 84 95 105 112 114 110 113 116 117 120 122 125 126 129 132 133 133 133 132 133 123 118 100 81 69 61 58 63 65 71 75 74 72 79 116 123 74 19 37 69 68 45 50 50 46 40 39 41 45 50 60 71 88 100 104 107 111 114 117 121 124 126 126 125 121 118 113 101 84 65 55 49 49 54 66 81 97 109 105 99 91 79 83 114 75 20 44 70 55 56 69 74 72 64 55 45 40 40 46 51 62 76 90 97 101 107 113 118 123 124 121 110 101 99 92 77 62 58 60 63 72 88 102 115 122 120 117 115 107 99 88 92 72 19 47 69 63 71 76 76 79 81 76 67 57 49 47 47 53 60 69 81 91 100 108 114 119 121 114 98 89 84 78 71 68 67 70 79 94 106 113 117 122 120 115 113 107 106 100 100 67 19 53 74 71 72 73 73 74 76 73 68 62 57 53 49 49 53 59 67 79 93 103 110 117 118 113 98 88 82 75 69 67 68 71 74 78 83 87 88 91 95 101 101 101 100 100 103 67 20 59 76 73 69 67 64 58 52 50 52 53 52 47 43 46 49 53 61 71 87 102 112 120 121 115 104 95 85 77 70 68 60 52 58 71 81 83 85 76 62 65 81 88 93 97 102 67 21 65 76 72 66 58 47 42 48 42 37 34 38 42 50 46 44 51 57 69 85 103 116 126 128 123 114 103 91 78 70 58 57 69 57 44 52 42 47 57 74 69 54 71 83 90 97 63 23 70 78 70 62 48 37 39 37 48 42 45 60 44 38 47 51 45 54 67 84 103 120 134 133 132 125 110 96 78 63 66 66 56 62 50 36 31 48 42 45 55 64 54 74 87 94 63 25 74 80 71 60 45 37 38 52 61 47 53 31 39 50 58 51 60 58 68 85 107 127 140 146 143 131 117 103 92 84 68 59 84 83 60 53 48 57 54 68 50 47 59 66 83 96 66 27 75 82 77 67 49 48 56 59 70 56 61 64 64 58 77 59 63 84 74 86 110 131 145 151 149 135 121 114 122 104 75 75 94 100 73 64 63 59 83 79 73 65 65 73 86 101 69 29 77 83 82 78 62 59 60 76 79 79 62 65 66 85 85 77 83 89 81 90 116 135 150 154 151 138 128 123 121 116 112 103 101 108 109 92 87 103 109 93 72 75 88 94 97 109 74 34 78 84 86 86 79 69 62 66 81 94 94 97 91 89 92 93 94 87 86 94 117 139 152 157 156 141 135 130 127 118 107 94 87 89 88 90 99 97 92 83 86 96 110 116 117 125 82 49 81 85 89 91 85 79 70 66 67 66 67 72 77 80 84 93 93 91 93 99 120 141 156 160 158 146 141 140 137 130 120 111 94 84 81 78 81 83 89 99 109 115 122 124 130 135 86 57 86 86 89 94 88 83 81 77 73 72 72 77 85 93 101 100 97 98 99 101 120 145 157 160 158 145 140 141 143 143 134 120 117 108 102 101 105 113 118 128 130 132 131 132 133 138 87 76 92 87 91 95 92 88 87 87 85 89 92 99 107 108 104 105 105 101 100 102 119 144 154 159 158 144 141 143 144 151 152 134 119 121 123 126 129 133 137 137 138 138 139 138 138 140 85 95 96 90 90 96 95 94 97 98 103 106 107 105 104 105 108 111 108 101 101 102 119 142 153 158 154 142 137 139 142 149 155 152 134 120 123 130 136 141 142 142 141 141 140 142 143 141 85 117 104 92 91 96 98 97 100 101 102 102 99 96 103 110 116 109 105 103 101 103 120 138 153 153 150 141 136 139 139 148 151 151 153 140 126 125 130 137 143 144 147 147 147 145 145 140 85 147 125 97 90 96 99 99 102 103 104 104 103 104 113 116 114 106 102 101 99 104 119 136 152 153 147 139 135 134 137 140 143 151 152 154 147 135 132 134 142 145 148 149 150 145 144 136 84 156 163 103 89 92 96 98 102 104 110 111 114 115 116 115 110 102 97 93 94 102 117 137 149 153 145 138 128 126 132 132 139 145 151 150 153 153 148 145 144 150 149 148 148 145 140 134 81 157 220 111 88 89 92 97 99 107 112 117 119 118 117 112 107 98 90 86 93 102 115 136 148 155 150 138 124 119 123 127 134 142 147 149 150 152 151 152 148 144 144 141 139 135 133 129 81 158 240 124 87 86 88 93 96 101 111 114 115 119 117 113 105 96 85 87 100 104 117 141 152 155 149 138 127 124 121 120 129 135 143 149 152 150 151 153 150 146 142 135 132 127 127 127 79 158 247 138 86 83 85 89 97 103 108 115 118 118 114 111 104 95 84 95 106 106 123 148 162 161 152 141 134 131 126 115 122 133 138 143 148 153 151 151 146 147 144 136 132 127 124 122 72 158 246 137 85 82 83 89 95 101 104 110 116 118 112 108 99 89 85 100 106 106 119 131 137 146 151 140 139 134 128 117 113 125 136 140 148 149 151 150 146 143 141 137 131 127 125 119 74 158 242 126 87 80 83 88 93 97 102 103 112 114 112 107 100 89 88 95 93 90 94 102 108 117 122 123 128 128 127 118 112 125 129 134 142 145 144 145 145 141 140 136 133 128 123 119 74 158 247 130 91 81 83 86 90 95 98 103 106 110 111 105 97 91 84 78 73 68 68 67 74 83 87 91 99 106 116 115 114 128 129 133 136 139 138 141 142 141 137 135 131 127 121 120 75 158 253 157 94 82 82 85 89 92 95 101 108 109 107 102 96 93 75 55 44 42 50 53 53 59 62 56 52 63 85 101 115 134 133 132 134 138 139 139 140 139 137 132 130 125 121 122 75 158 255 198 98 84 84 86 89 92 94 100 104 106 100 98 96 97 87 53 41 36 36 42 50 54 47 43 42 47 67 98 122 137 136 134 136 135 138 139 138 136 135 132 131 126 123 124 76 158 255 217 103 84 83 87 91 94 96 99 101 103 99 95 96 99 95 66 46 43 41 42 46 56 63 68 66 67 91 114 125 137 141 138 137 140 141 137 136 134 133 132 130 127 127 125 76 158 255 229 114 85 85 87 91 95 97 100 99 96 96 92 92 102 101 87 71 65 65 68 72 81 93 104 106 108 116 124 135 142 143 142 138 140 139 140 138 137 135 135 131 129 126 126 76 158 255 241 120 85 85 88 91 91 95 97 97 96 95 95 98 103 103 99 92 89 94 102 102 97 116 121 123 124 127 134 139 144 146 142 140 142 142 139 140 137 136 132 131 129 127 125 77 158 255 251 141 87 83 86 88 90 94 95 97 96 95 96 99 101 103 102 99 102 109 123 120 109 127 136 134 136 137 141 144 145 143 140 139 138 140 140 138 134 133 130 129 127 126 123 76 158 255 255 172 87 81 84 87 90 92 94 95 97 97 97 98 100 101 103 106 108 115 131 131 125 135 143 141 140 141 142 142 141 140 137 134 136 136 136 133 127 129 129 127 124 123 121 75 158 255 255 190 88 79 81 84 88 89 92 94 95 95 95 94 94 97 101 102 95 94 118 135 132 127 128 130 139 140 139 137 134 133 129 130 132 135 133 124 118 126 125 125 124 119 119 73 158 255 255 207 90 79 80 82 85 88 90 92 94 92 88 86 89 91 82 74 71 73 76 92 93 91 92 96 107 125 132 133 129 124 121 123 127 133 132 127 123 124 123 122 121 119 117 70 158 255 254 174 98 78 77 80 84 88 91 92 92 88 77 73 73 65 57 52 52 58 60 66 71 70 72 69 71 80 92 110 117 111 108 116 122 128 131 129 128 125 123 119 118 117 115 70 158 255 252 162 116 77 76 78 83 86 88 90 90 84 65 52 50 45 42 42 42 45 48 49 51 52 52 50 51 54 58 66 77 81 76 95 115 122 127 128 128 126 122 118 117 113 111 68 158 255 236 101 96 77 74 77 81 85 87 88 86 79 60 50 48 50 56 64 72 77 81 82 84 84 87 85 83 74 65 57 54 53 56 74 103 115 123 127 127 125 121 116 114 110 110 67 158 250 108 54 69 81 73 75 79 83 86 87 85 80 83 87 81 76 79 81 89 97 108 118 112 116 112 114 108 103 100 94 92 104 122 100 102 110 119 124 127 124 118 115 112 109 107 64 158 223 65 50 50 82 72 72 76 80 84 86 86 86 93 96 83 76 76 74 80 84 90 97 91 97 102 112 110 102 97 95 104 119 130 122 112 111 114 121 122 120 115 112 110 107 103 64 158 212 53 57 61 67 75 71 73 75 81 83 84 88 96 97 87 73 70 71 72 77 87 90 90 93 92 90 91 96 95 96 108 120 128 128 113 111 114 116 118 115 111 108 106 104 101 63 158 224 57 43 40 47 81 69 70 72 76 80 80 81 91 95 90 81 69 62 64 69 72 74 80 80 84 82 84 85 88 101 114 120 129 128 112 110 110 110 112 109 106 104 101 101 102 64 158 246 81 44 42 45 90 75 67 68 71 76 76 79 84 88 89 85 77 68 59 52 50 49 55 55 57 61 73 83 95 111 123 127 128 126 120 111 109 107 106 101 101 101 99 99 101 63 158 255 193 58 42 50 160 114 66 64 67 71 74 80 81 84 85 84 84 80 75 67 62 59 57 58 66 72 84 97 108 116 124 125 123 120 116 104 106 103 100 100 98 98 98 99 100 65 158 255 254 215 161 181 174 133 76 62 64 68 71 75 77 81 82 85 90 90 89 89 87 89 90 92 94 98 102 100 119 121 123 120 116 117 112 108 107 101 97 97 96 95 96 98 103 64 158 255 255 255 249 194 147 123 103 65 62 66 71 74 73 79 82 86 90 96 100 106 113 118 123 121 122 120 121 123 125 123 122 119 117 115 113 113 108 99 97 94 93 93 94 100 103 60 158 255 254 247 198 157 141 140 151 99 61 63 68 75 78 81 84 90 95 102 110 118 124 127 130 129 137 135 134 135 135 131 126 122 119 111 113 116 105 99 96 92 89 91 96 100 94 60 158 254 249 224 194 172 197 202 184 133 70 60 65 71 76 81 87 94 99 105 113 120 128 130 133 138 141 144 142 144 136 127 133 126 123 106 108 112 105 98 93 89 88 91 95 91 96 62 156 248 244 239 205 199 241 222 186 114 73 64 60 66 74 80 85 92 98 103 112 119 128 131 132 136 139 141 143 142 135 134 136 130 124 119 114 108 101 94 88 85 87 90 87 93 99 64 156 252 250 248 243 243 251 213 144 95 67 65 61 60 67 75 81 86 93 94 108 116 125 131 131 134 137 138 136 136 135 133 128 124 121 116 110 102 94 88 82 83 83 81 89 96 102 65 158 255 254 254 252 251 242 164 135 89 67 60 57 60 60 67 74 80 85 89 102 108 117 124 127 129 130 131 133 134 131 124 120 117 110 106 100 93 86 81 80 76 78 85 93 100 103 66 158 255 255 255 249 240 184 136 101 81 67 62 56 51 57 60 66 71 76 81 91 101 108 114 114 116 118 121 123 122 117 106 107 106 97 96 89 84 78 72 69 75 83 91 96 101 105 66 158 255 254 248 223 184 168 127 78 78 68 63 58 51 47 53 58 61 64 69 76 84 91 98 103 103 104 106 108 101 101 98 94 91 86 84 79 74 65 66 72 79 86 94 99 102 105 66 98 157 153 142 115 127 134 56 53 47 43 40 37 33 29 28 32 34 35 37 39 43 46 51 53 56 57 59 59 58 55 53 51 50 48 47 42 37 39 43 48 52 56 60 62 63 65 40 