P2
48
60
255
24 44 50 49 48 60 59 57 54 50 50 46 48 52 55 58 59 61 62 62 61 62 58 58 60 59 56 56 56 58 60 64 64 65 63 59 57 55 53 51 49 49 48 47 45 39 31 17 45 82 83 76 85 101 96 90 87 82 81 77 83 88 94 97 100 100 100 101 102 100 95 93 99 99 96 94 94 98 102 105 107 107 103 96 96 90 87 84 80 80 78 76 74 65 55 28 53 84 90 86 102 101 96 93 90 87 86 88 91 93 100 103 106 104 102 102 105 102 97 95 99 102 100 94 96 99 101 106 108 105 103 101 96 92 89 87 83 82 80 76 75 70 57 28 50 85 85 107 117 110 99 92 93 93 90 92 93 97 104 106 108 109 104 101 101 98 97 98 101 102 97 95 94 100 106 111 112 109 106 104 98 96 93 90 86 83 81 77 76 72 63 33 47 82 94 122 119 111 102 99 99 91 86 87 85 85 92 99 100 102 100 98 95 92 93 94 97 99 94 94 97 98 101 109 113 113 121 113 103 98 92 90 85 85 82 78 76 73 66 35 46 96 132 140 121 117 113 104 91 76 68 65 64 62 64 65 66 71 81 87 88 87 92 93 93 96 95 95 94 95 94 99 108 116 125 122 109 100 88 85 83 81 82 78 74 73 68 36 54 107 152 144 129 125 125 102 70 65 61 58 53 51 51 52 54 59 66 75 82 85 87 88 90 91 92 92 90 87 84 83 85 88 84 85 75 69 69 71 67 66 74 78 74 73 68 38 54 131 175 148 136 142 121 81 67 67 68 63 58 52 54 53 57 58 63 69 77 82 86 86 88 88 88 88 88 81 73 74 68 60 57 55 58 59 55 56 57 55 60 73 75 73 69 39 64 170 198 167 153 147 99 76 77 79 75 69 62 59 56 56 59 60 64 70 74 78 81 83 84 86 86 85 83 75 72 69 64 60 55 49 49 49 49 57 63 66 62 58 68 73 70 41 72 208 221 179 176 128 90 80 80 78 74 70 63 57 54 54 56 60 64 69 71 78 79 80 81 81 83 82 77 73 70 68 63 60 54 48 48 51 60 68 73 78 74 63 59 71 71 41 72 233 229 200 175 128 90 81 76 73 68 63 59 55 50 50 53 56 59 64 69 74 79 78 78 79 80 78 75 68 66 64 59 55 50 47 48 50 57 64 70 75 74 72 65 66 72 43 100 240 241 223 159 119 86 76 71 64 64 69 70 69 62 53 50 52 52 59 64 70 74 78 80 80 79 77 72 67 62 58 53 49 45 43 44 49 53 54 61 68 70 72 69 64 73 43 128 253 250 242 168 100 79 69 64 69 76 77 73 72 73 67 59 52 52 54 60 69 75 82 83 82 81 76 71 63 58 53 48 46 50 55 59 64 70 64 55 57 64 69 71 67 71 44 151 254 251 236 144 91 73 66 71 69 70 66 65 66 59 58 61 58 53 56 61 70 79 87 90 92 89 81 71 64 56 50 52 61 56 56 64 68 69 69 63 59 55 66 69 70 70 46 153 254 244 217 121 82 69 75 71 59 46 40 41 58 71 68 50 57 55 54 62 71 81 90 96 98 94 82 71 62 53 52 57 52 62 67 62 54 51 57 62 61 56 57 68 71 71 46 157 253 232 199 113 74 86 82 47 46 41 62 53 46 43 56 63 52 54 55 68 77 85 96 101 106 96 85 73 62 53 52 50 59 56 44 44 34 47 33 37 48 55 55 65 69 73 47 158 249 223 182 101 85 59 54 68 81 55 44 40 55 75 45 54 67 58 58 70 80 88 100 103 112 100 86 76 65 55 53 60 47 47 58 44 33 47 51 61 38 43 57 65 71 75 49 158 247 209 152 93 71 58 63 87 92 55 47 49 62 102 69 50 61 75 68 76 84 91 100 103 107 98 87 79 67 66 66 53 51 76 77 48 44 51 70 78 49 47 55 67 73 75 49 158 245 192 122 83 71 85 113 62 73 58 52 51 72 78 70 70 66 76 76 83 86 93 99 102 105 96 88 84 76 76 63 70 66 75 76 52 51 54 65 56 54 60 64 70 76 78 50 158 245 169 104 84 83 106 120 69 63 59 60 59 66 72 73 75 79 78 83 86 87 94 100 102 103 97 89 88 82 77 83 75 71 69 65 60 59 62 60 58 61 73 75 78 81 81 51 157 233 152 96 92 94 107 96 72 68 67 70 71 74 76 79 83 83 90 87 87 87 96 101 103 102 95 88 87 87 85 80 82 78 75 75 74 70 66 64 66 71 79 82 83 81 81 51 158 227 137 102 98 99 103 91 81 80 80 81 79 82 85 86 86 90 97 92 87 89 95 99 101 99 92 88 86 91 95 90 87 86 83 80 78 81 79 77 75 77 83 86 86 84 84 52 157 216 130 110 104 100 98 91 85 84 84 88 87 86 87 89 96 102 99 88 86 87 91 97 97 95 88 82 84 86 96 96 98 94 89 89 94 91 83 84 82 83 85 90 90 88 85 52 156 204 135 117 107 102 100 97 94 96 96 94 89 92 96 104 105 99 89 85 84 87 91 94 95 94 91 85 81 84 88 96 102 101 95 90 91 96 98 96 93 91 93 95 89 90 86 53 155 202 148 126 108 106 104 102 102 100 98 95 96 101 108 106 100 90 86 83 85 90 96 96 95 96 96 88 83 81 86 89 99 101 100 99 96 98 101 103 102 100 98 98 95 92 86 52 155 208 157 133 111 107 105 104 103 102 100 99 105 106 104 102 97 93 83 85 90 94 96 96 96 97 98 94 84 78 84 97 100 103 100 103 101 96 104 109 108 104 98 99 97 90 86 50 156 216 173 136 113 104 104 103 102 102 103 105 109 108 105 107 98 80 83 82 90 95 99 102 100 103 107 98 88 77 80 85 108 109 105 106 94 105 102 107 108 104 99 96 94 87 82 50 156 224 171 141 110 101 99 103 103 105 109 106 109 112 113 102 80 74 81 85 93 96 109 109 100 112 117 97 89 83 81 73 90 115 119 114 109 107 108 107 104 98 92 94 89 83 80 53 154 225 166 138 112 101 95 102 104 99 109 104 113 114 95 87 68 84 93 93 87 85 88 90 91 95 90 88 86 92 89 81 71 94 115 121 113 109 105 103 103 96 92 91 87 83 79 54 155 214 166 137 110 102 102 104 106 106 105 108 108 99 86 72 73 98 90 80 73 76 77 81 81 80 79 76 74 80 86 89 66 76 86 112 113 112 104 99 102 97 92 87 77 80 74 55 151 192 154 136 116 104 102 103 104 101 102 107 107 92 77 62 86 81 61 47 56 69 70 71 72 73 73 67 50 39 59 78 73 68 82 95 105 109 107 103 100 97 90 85 77 76 78 55 150 193 162 151 125 105 100 99 101 98 102 99 97 83 67 63 79 59 32 26 30 59 64 65 66 66 68 48 27 27 43 65 72 67 75 91 104 104 101 103 97 95 90 82 75 74 77 52 146 199 176 167 135 107 96 98 99 99 99 94 89 75 58 59 66 52 34 32 37 43 58 58 58 59 52 42 34 32 44 60 73 71 69 83 96 98 99 99 94 89 87 81 77 75 81 50 147 198 189 180 143 102 92 94 92 93 91 85 83 65 60 65 57 48 40 42 44 44 48 51 50 53 48 47 42 39 45 68 87 83 73 80 91 95 94 93 90 84 83 78 77 77 84 53 147 202 197 192 144 101 88 88 88 85 87 83 79 67 72 76 65 49 42 45 50 55 55 50 52 67 66 60 54 56 66 85 87 86 81 79 88 92 90 91 86 82 80 78 78 76 84 48 150 210 196 198 139 102 87 86 84 83 83 79 78 80 84 83 81 72 67 65 64 66 68 69 74 72 73 73 73 77 84 87 88 87 86 82 84 89 89 85 84 82 79 76 77 77 87 46 154 219 199 198 133 100 87 82 78 78 80 81 83 87 90 89 88 85 81 80 80 81 81 83 85 82 82 84 83 82 85 88 88 86 87 85 84 84 84 83 83 80 77 75 75 79 84 39 153 218 202 186 139 100 83 79 74 78 81 83 90 88 91 91 91 89 86 84 83 82 85 86 87 84 82 84 88 87 87 90 89 86 87 86 81 82 82 80 80 77 75 74 75 79 86 57 153 219 196 177 140 97 81 78 73 78 79 82 89 87 89 90 92 91 89 87 82 80 78 79 79 76 76 78 84 86 89 89 87 88 86 85 80 80 79 78 77 75 74 74 73 81 117 127 155 220 188 178 136 99 84 76 75 78 79 85 81 80 85 88 89 88 84 81 77 80 80 76 75 81 83 82 81 79 83 85 84 82 79 81 80 75 73 74 75 73 73 73 73 82 114 145 155 206 183 171 137 104 86 78 78 75 83 79 70 76 85 87 87 85 79 78 75 69 66 67 71 68 71 71 74 78 80 80 77 76 70 72 77 72 71 71 73 71 73 73 75 84 165 146 156 220 187 170 133 107 89 79 78 75 80 69 68 79 82 82 83 77 69 64 64 64 57 52 55 59 64 68 64 62 65 72 76 70 65 62 69 68 67 70 72 70 72 72 73 87 204 148 156 220 180 164 124 108 96 86 79 80 72 65 68 78 77 80 70 54 54 54 55 56 51 48 49 51 54 52 51 53 52 54 65 66 58 52 63 65 67 69 70 67 72 73 75 90 217 149 154 216 187 160 126 110 100 90 82 82 67 60 67 69 74 60 47 49 50 47 45 47 44 47 47 45 47 47 48 51 50 49 47 52 45 49 60 66 67 67 69 70 70 74 76 103 225 148 155 217 190 162 130 107 105 93 85 79 63 56 55 48 49 43 48 50 46 40 40 44 39 47 46 41 45 48 49 48 47 48 46 39 39 51 61 66 67 69 70 69 70 72 76 129 232 149 152 213 189 167 127 105 111 94 86 79 62 54 39 35 42 45 47 52 59 64 65 65 62 64 61 65 70 73 74 72 66 59 56 57 52 56 61 65 67 69 70 68 71 73 87 161 237 149 150 217 203 173 133 113 112 100 87 74 59 55 43 55 60 63 68 70 71 76 78 82 85 87 81 85 87 84 74 70 66 64 65 65 61 64 65 67 67 70 70 71 73 74 119 145 236 148 150 219 204 172 137 118 111 101 87 72 60 58 55 61 69 74 70 66 62 63 65 66 67 75 70 65 66 64 62 63 64 65 65 70 70 67 66 68 68 68 68 71 72 77 171 146 236 149 153 217 202 171 140 113 111 101 86 72 64 62 64 67 70 72 66 65 60 57 54 54 56 58 58 55 54 57 61 63 63 65 68 74 74 67 66 68 67 66 68 69 72 102 188 147 231 149 155 218 192 169 140 110 111 100 87 74 67 65 69 72 75 71 65 58 54 51 48 46 45 46 47 46 47 50 53 59 64 66 70 74 73 68 67 66 67 68 68 68 77 172 198 162 235 148 134 173 189 163 141 119 110 98 86 74 68 68 72 75 74 69 65 60 55 50 46 43 40 40 41 43 46 51 57 62 66 68 70 71 71 67 66 66 65 66 68 71 109 227 147 149 229 149 68 137 184 161 141 117 105 95 81 74 68 70 72 73 73 69 65 62 58 54 51 47 47 49 48 49 51 55 60 63 67 66 69 71 70 67 64 63 64 65 68 79 187 238 165 168 237 148 61 139 183 157 140 121 105 89 80 76 69 71 71 71 69 66 63 59 56 54 54 55 58 58 57 57 58 61 65 66 67 67 67 68 67 65 62 62 61 64 69 113 231 228 107 171 230 148 64 120 192 150 139 125 108 92 80 73 70 74 71 69 66 63 60 59 59 59 63 66 67 70 70 70 70 68 70 68 67 66 66 65 67 65 62 60 61 64 74 89 199 236 135 168 237 148 79 91 192 143 134 124 108 93 85 75 74 76 72 67 65 63 62 62 63 68 72 75 77 80 83 81 78 74 70 70 68 66 66 66 66 65 61 58 60 65 73 77 107 194 123 188 235 148 77 78 183 134 116 120 106 93 86 77 74 76 71 68 66 64 65 66 70 75 79 81 79 81 80 83 83 79 73 71 70 70 68 67 65 64 60 59 61 65 60 73 81 103 103 153 234 148 67 68 168 126 101 107 105 93 83 80 77 77 73 70 68 68 70 72 74 75 78 77 77 76 77 79 79 78 75 71 70 69 68 66 65 63 59 58 64 57 52 69 78 83 91 202 238 147 53 60 146 116 93 85 100 92 84 81 78 78 76 71 70 73 74 74 72 73 73 71 70 71 73 75 75 73 74 71 69 68 67 65 62 60 57 60 65 49 45 62 75 81 96 227 239 147 44 52 124 107 85 76 75 91 81 80 81 81 77 76 74 76 76 75 70 69 67 65 66 66 67 66 68 71 72 69 68 66 66 63 58 55 58 65 64 46 41 55 72 78 85 191 238 146 25 28 63 63 50 46 42 45 49 45 48 48 50 49 49 48 47 45 41 40 38 38 39 38 39 38 41 43 42 42 41 39 39 36 34 35 40 41 39 28 25 31 42 47 49 77 145 91 