P2
48
60
255
33 57 62 66 71 75 76 77 77 75 79 80 85 84 86 87 87 89 90 89 89 89 89 90 89 89 89 88 90 90 90 89 89 86 85 83 82 79 80 78 76 79 78 74 69 64 59 34 53 93 101 108 113 118 120 123 125 124 126 127 131 132 133 135 137 141 144 144 145 145 145 145 143 144 140 144 143 144 141 139 138 135 134 131 132 129 127 128 127 128 127 121 113 104 97 55 54 96 102 108 115 115 118 124 122 125 127 128 131 136 140 138 137 139 141 141 142 143 142 144 142 144 143 142 142 142 142 141 140 137 134 131 130 128 126 129 129 129 125 123 114 102 96 55 54 94 100 108 114 117 119 121 124 125 126 128 133 138 140 138 138 142 141 140 139 144 144 145 144 142 143 141 140 143 143 142 140 140 136 135 134 129 127 127 130 128 127 122 115 103 95 53 53 94 100 109 115 116 122 123 123 125 126 129 139 146 147 146 147 145 142 141 141 140 140 139 139 139 139 141 145 145 148 147 146 142 139 136 132 126 124 129 130 130 127 122 115 102 93 53 51 93 100 111 117 120 120 119 119 123 126 130 139 150 154 156 156 151 147 142 138 142 145 144 141 142 146 147 153 152 156 158 156 149 141 139 133 127 122 122 124 126 126 122 112 102 93 51 53 91 101 108 105 103 105 110 114 115 118 123 124 131 140 143 154 156 154 153 144 151 156 158 154 156 155 152 155 153 149 145 141 137 130 129 121 120 118 115 103 94 99 97 98 98 94 51 53 93 99 90 81 80 84 92 93 93 91 91 95 105 116 123 127 135 151 155 147 153 153 153 155 153 144 131 128 123 121 111 95 88 87 92 98 95 87 91 90 82 71 71 79 94 90 51 53 85 74 62 60 64 67 69 62 54 53 52 56 69 79 92 107 112 117 134 136 138 139 138 136 132 124 109 98 98 95 86 71 75 69 66 64 62 62 66 74 72 65 68 76 82 88 52 43 59 43 42 45 46 43 37 35 38 37 35 43 51 66 69 89 91 91 112 123 127 131 132 126 122 109 91 88 79 79 74 60 53 48 44 43 45 52 56 55 50 53 58 63 69 82 51 37 48 40 42 46 50 60 56 49 46 40 36 36 43 46 61 71 78 81 103 111 118 126 132 126 117 104 88 78 71 77 65 53 50 47 47 51 61 64 64 75 74 71 62 58 65 73 50 31 46 52 65 77 85 101 103 102 93 74 56 48 45 46 51 56 69 79 93 103 112 123 130 126 115 100 90 80 68 67 59 58 59 61 75 92 101 104 111 109 100 89 83 76 70 65 44 37 68 74 86 93 105 113 124 127 122 110 90 71 58 54 53 54 62 72 81 95 106 123 129 124 111 94 79 72 63 61 62 65 73 87 104 116 124 129 127 116 105 96 90 83 75 66 46 43 77 82 87 96 102 106 105 99 91 83 76 64 58 58 56 53 55 64 76 93 112 124 130 126 112 91 76 66 63 63 66 63 62 63 61 60 67 79 89 101 103 98 91 87 79 70 46 49 80 81 84 85 71 48 38 35 34 36 42 56 62 53 56 62 60 62 77 98 118 131 138 129 108 90 78 72 67 65 58 58 58 39 49 35 37 48 39 43 61 83 93 91 86 82 50 51 83 83 69 42 31 45 69 35 75 33 63 78 70 55 62 66 73 74 81 104 122 136 142 132 109 91 85 86 83 67 54 79 115 43 49 35 44 76 91 49 38 47 79 91 92 89 54 55 87 76 49 41 54 79 88 39 31 28 37 98 125 75 55 82 92 86 86 101 125 146 148 132 109 95 97 108 99 70 91 114 126 61 40 38 42 97 106 77 61 56 70 93 99 101 63 59 90 79 76 69 77 93 104 78 50 44 69 121 113 100 95 87 103 94 93 99 125 148 148 132 107 101 106 115 113 103 100 100 103 98 92 84 91 103 101 101 94 91 92 99 108 115 72 68 103 103 100 92 97 109 115 113 112 101 101 104 106 107 110 109 103 96 101 102 129 152 149 135 110 111 115 121 121 120 116 115 117 117 117 119 130 131 124 119 109 114 118 118 125 132 81 74 122 119 112 110 108 113 123 130 131 126 123 120 120 121 122 117 109 105 106 105 131 149 148 140 111 112 120 124 131 131 127 126 126 123 124 125 125 123 121 121 122 124 128 135 135 136 82 81 129 126 122 125 126 126 129 130 133 136 131 130 131 131 128 120 118 113 106 107 126 142 143 139 114 109 122 129 131 136 134 131 130 130 137 141 140 139 138 136 134 132 135 138 136 134 82 79 128 129 130 134 135 137 137 136 142 144 139 137 136 133 126 124 124 113 106 110 124 140 141 139 120 110 121 129 131 139 141 140 137 135 136 141 145 144 145 144 143 141 140 137 136 130 80 78 126 129 136 137 135 140 141 139 142 145 142 141 140 138 127 123 124 112 108 110 120 135 142 138 121 111 119 129 129 138 144 149 144 142 141 140 145 146 146 150 147 143 138 138 125 126 78 76 125 132 134 129 130 144 145 141 147 144 145 148 150 143 130 121 120 113 107 108 116 132 140 137 122 110 115 126 129 135 143 152 151 150 149 149 149 153 153 154 150 143 138 135 125 120 75 74 124 131 137 148 152 149 146 144 145 150 149 151 150 142 129 121 118 110 106 109 114 124 135 135 124 112 112 117 125 135 145 149 151 152 153 150 155 154 156 155 153 142 133 128 124 118 71 72 121 131 140 144 151 153 152 152 151 152 153 152 149 143 129 118 112 106 105 109 117 124 133 131 123 112 108 110 116 133 142 147 152 152 154 155 156 155 157 154 146 143 135 129 122 122 71 71 119 129 135 143 146 153 157 157 156 151 155 153 145 136 126 108 105 103 103 112 119 123 132 132 129 114 105 106 109 128 141 149 153 156 156 155 158 162 165 149 145 140 136 132 121 117 70 71 121 124 130 136 141 148 156 156 159 155 155 153 147 133 115 101 100 101 102 115 131 134 135 133 129 118 106 102 107 118 132 146 152 156 153 158 157 161 163 157 148 141 136 128 122 114 68 67 117 120 126 133 143 154 155 154 155 156 153 150 141 126 105 101 101 100 103 120 141 153 145 148 138 122 107 104 113 110 123 133 145 152 152 150 158 164 167 165 151 138 131 124 115 111 65 66 111 115 123 129 141 153 152 157 154 151 146 142 129 108 101 105 103 102 106 126 156 160 144 156 148 123 110 107 116 111 110 119 132 142 144 148 153 154 156 153 146 135 127 119 110 107 63 64 106 113 121 130 138 143 152 152 146 142 140 127 109 96 104 109 103 98 101 117 129 131 129 131 124 111 103 106 118 116 104 109 111 126 131 139 144 148 149 140 138 128 121 114 105 102 62 60 101 109 114 124 131 140 146 145 142 136 127 108 95 95 103 108 100 92 87 96 106 106 110 111 101 91 92 99 102 106 99 103 95 103 120 129 133 135 139 137 132 123 115 106 100 100 62 58 99 107 113 121 131 136 137 138 133 123 108 89 96 94 85 78 59 51 56 75 85 82 84 90 85 74 57 54 63 79 91 101 104 87 105 120 127 129 129 129 126 120 112 103 98 100 61 58 98 103 108 115 123 126 129 128 123 112 91 96 101 95 78 58 51 53 52 52 60 65 58 69 78 80 80 75 73 91 100 105 113 102 94 112 119 120 123 122 123 115 109 101 99 96 61 55 95 103 109 115 119 125 125 126 118 101 97 105 106 102 97 91 82 81 86 77 64 54 53 65 78 89 92 86 91 97 101 108 114 118 100 102 111 118 118 115 114 112 104 100 98 94 57 56 90 96 106 112 115 117 119 119 112 104 113 108 105 102 102 100 96 93 99 97 91 87 84 80 87 91 93 92 93 101 104 111 115 121 117 102 108 113 115 114 110 105 99 97 96 91 55 58 92 94 100 107 111 113 116 114 108 110 115 109 107 106 107 107 106 103 113 118 116 114 115 104 107 104 106 102 103 108 111 110 118 120 116 111 109 113 111 110 107 99 96 96 95 92 54 57 90 92 95 104 109 112 115 115 113 111 110 108 105 111 112 114 112 111 120 126 122 122 129 124 123 123 121 115 116 115 115 117 116 119 116 112 116 114 112 110 107 98 96 96 95 90 55 55 91 92 95 99 107 109 114 115 108 109 109 104 103 110 111 118 121 119 127 136 135 133 134 133 134 139 133 131 127 122 120 115 111 113 112 109 118 120 118 115 108 102 98 97 95 93 55 54 90 94 94 99 106 109 112 108 102 106 103 103 102 104 110 122 126 130 137 144 142 140 137 141 144 147 140 137 133 123 117 112 109 110 111 109 114 125 122 118 112 104 100 96 95 94 58 52 88 95 98 105 109 111 108 105 101 100 103 98 101 105 109 116 122 125 122 128 133 138 136 136 126 108 106 109 114 111 103 99 97 101 108 112 118 124 120 118 113 105 99 99 98 94 60 53 87 90 99 107 111 112 111 104 103 104 99 94 92 97 98 92 90 85 81 84 90 99 104 94 89 87 79 75 67 64 66 74 79 97 103 107 114 124 121 118 114 104 99 98 97 96 59 53 88 90 97 108 113 114 115 108 106 108 100 81 69 69 59 54 53 56 62 70 68 62 68 58 58 53 39 33 33 31 41 50 69 95 103 108 119 128 126 116 111 104 97 96 98 97 58 55 86 89 94 103 111 116 121 114 109 112 104 79 52 35 23 23 24 33 31 40 41 41 45 53 61 69 77 84 92 91 92 96 101 107 110 113 121 129 125 116 109 102 98 100 97 95 56 53 89 89 90 97 109 116 121 119 113 114 107 99 91 82 74 85 82 84 82 84 88 99 100 102 106 114 117 114 108 105 111 115 120 120 114 116 123 132 124 116 107 95 97 98 96 94 54 55 90 88 90 98 107 115 121 125 117 112 111 109 102 94 89 92 98 103 112 114 118 121 123 121 121 117 117 120 120 119 118 118 125 123 121 119 125 125 121 112 102 95 98 92 93 89 53 54 88 87 89 95 102 111 121 125 121 113 114 116 109 99 98 98 98 101 108 112 110 110 107 102 110 115 120 121 120 121 116 119 124 124 122 121 122 122 117 108 102 97 97 92 90 85 53 53 87 87 88 91 96 104 113 120 116 112 114 118 111 102 99 103 110 110 110 103 97 96 99 103 111 118 119 116 117 115 115 117 119 120 119 118 122 121 113 104 97 95 94 90 87 85 79 52 85 83 84 85 92 100 108 115 113 114 116 118 115 107 100 101 107 110 112 107 100 97 97 103 108 110 114 115 113 113 114 116 113 116 116 115 119 114 109 99 94 91 90 86 82 108 128 50 80 83 83 84 86 96 103 109 107 108 114 116 115 108 106 102 101 104 107 111 105 96 97 105 107 108 111 113 109 113 114 114 116 116 116 116 117 113 107 96 89 92 89 84 83 147 132 48 80 82 81 82 84 90 98 103 102 103 112 115 115 110 108 109 107 105 105 107 109 103 105 107 111 113 113 115 116 116 114 115 116 117 120 122 117 108 101 90 89 90 87 83 84 162 133 46 76 80 80 80 81 86 93 101 104 103 108 112 115 117 114 112 111 110 109 112 113 114 114 114 119 121 123 123 122 122 119 121 122 119 120 118 116 108 94 86 87 88 83 80 84 177 132 43 74 74 77 77 78 83 90 96 105 108 106 106 116 120 120 122 121 122 122 123 123 125 126 126 126 128 128 126 128 128 127 127 124 123 117 115 108 95 88 84 85 81 78 82 87 189 133 47 71 71 72 73 77 81 85 92 98 104 108 105 110 117 123 126 127 128 131 130 130 133 130 131 132 128 131 129 132 132 131 127 123 120 111 105 100 89 79 83 80 76 79 83 90 199 133 50 73 68 66 68 72 76 77 83 88 95 102 101 105 109 114 119 125 128 130 129 131 135 133 133 138 139 134 130 130 131 128 120 118 116 106 95 87 79 79 79 74 74 80 84 95 207 133 52 78 68 63 62 65 69 72 76 78 83 88 95 104 106 112 112 121 128 126 127 131 131 124 125 126 134 132 127 126 125 123 114 115 109 96 87 77 75 76 73 71 77 81 83 103 212 133 56 83 73 65 62 60 61 66 68 70 75 79 87 95 100 104 112 119 121 122 129 128 122 118 113 116 123 121 120 116 117 114 107 106 96 82 76 72 71 72 71 74 77 82 83 116 213 133 56 88 79 69 63 62 60 60 63 64 67 72 77 84 89 96 100 101 106 110 110 114 113 110 114 108 107 109 110 103 103 100 100 92 80 72 70 68 67 70 73 74 78 83 84 133 215 133 56 91 86 74 65 61 63 61 59 60 59 62 67 70 78 87 90 93 97 97 100 99 102 105 104 102 96 95 94 96 94 89 84 75 68 64 64 65 67 70 70 74 82 84 82 146 215 133 34 56 56 49 44 38 37 39 37 36 35 35 38 40 42 46 49 52 53 54 55 57 57 56 57 56 55 55 54 55 55 51 46 41 40 38 38 41 43 42 44 47 52 52 51 99 133 81 