P2
48
60
255
29 53 57 59 61 63 65 66 67 68 68 68 69 69 69 68 68 69 69 70 69 69 71 71 71 70 71 71 72 70 66 65 62 61 61 61 60 60 59 59 57 56 54 52 49 43 36 21 49 88 93 95 99 100 106 109 112 113 111 111 112 112 112 114 113 112 112 112 111 110 112 112 112 114 114 113 112 108 104 102 101 98 99 99 97 98 94 93 92 91 89 84 79 72 60 34 51 89 94 96 99 102 107 111 113 112 112 113 111 111 112 113 111 111 110 108 106 107 108 110 110 111 112 109 106 104 102 98 96 95 95 97 97 96 95 94 93 92 89 85 80 75 64 35 55 93 96 96 100 105 109 112 113 113 114 113 112 108 108 111 107 106 106 105 102 102 106 108 108 110 109 105 104 99 99 94 91 92 93 94 93 94 93 93 93 92 89 86 82 78 68 36 56 94 95 96 99 105 109 111 111 111 107 110 110 108 107 105 101 100 100 100 95 99 105 105 107 107 105 101 100 98 95 92 91 90 91 92 92 91 89 89 89 89 88 86 83 80 73 38 57 94 95 96 99 103 107 108 107 105 102 103 104 100 96 93 93 91 96 97 95 99 104 104 104 103 100 97 95 93 91 88 86 82 81 79 80 78 77 78 78 77 82 85 84 82 76 41 58 94 93 95 98 100 101 95 98 96 89 80 78 75 78 76 79 77 84 88 89 95 99 101 101 98 94 93 90 87 84 79 71 65 62 62 63 64 67 68 74 74 74 77 82 81 79 44 59 94 92 94 93 92 90 94 104 105 97 88 75 66 68 67 67 69 74 76 81 91 94 98 98 95 91 88 85 81 75 67 60 56 57 58 59 65 75 81 86 84 81 76 74 79 80 47 58 93 90 84 85 91 100 115 116 109 103 94 86 77 71 66 64 64 67 73 80 89 94 94 94 91 87 84 78 73 66 59 56 56 58 62 68 78 86 88 88 86 85 82 77 79 81 49 58 93 87 87 97 103 111 113 112 106 100 94 88 82 76 70 66 66 69 72 79 88 92 93 91 87 82 78 73 67 60 58 59 61 66 71 79 85 90 88 86 85 85 83 82 82 83 50 58 93 93 96 100 104 109 109 106 101 96 91 85 80 75 71 70 72 76 78 82 88 93 93 90 85 79 72 66 62 60 61 65 71 77 82 85 87 87 84 83 83 81 81 83 83 84 52 57 91 94 98 100 102 105 105 99 95 90 87 82 78 73 69 70 72 74 79 85 91 93 95 93 85 77 69 63 59 59 63 69 75 81 85 84 83 81 79 80 80 78 79 80 82 84 53 55 90 94 97 98 99 100 97 91 85 82 77 71 63 60 61 66 69 71 77 86 94 100 100 97 87 77 67 59 56 60 63 65 66 63 62 62 66 68 71 73 73 74 76 78 80 84 54 56 90 93 94 93 93 90 84 75 68 59 55 55 51 49 52 57 65 70 75 86 97 108 110 104 93 78 66 57 57 60 60 60 56 50 52 50 53 51 53 58 66 71 75 78 81 86 54 56 91 90 90 89 83 74 62 54 50 43 41 53 44 51 49 57 62 69 74 86 99 112 117 114 98 81 67 59 60 59 58 74 61 52 75 51 58 58 52 53 55 65 73 77 82 87 55 58 91 88 87 81 68 52 48 50 47 61 47 51 43 68 68 56 65 73 81 91 103 115 119 119 102 82 68 64 67 54 73 72 76 53 47 51 59 70 60 55 55 58 64 76 84 88 55 58 92 85 76 64 54 50 57 78 49 68 43 40 45 73 80 67 63 86 92 95 104 112 116 115 104 87 72 77 68 64 79 74 52 47 48 53 65 74 70 66 66 66 70 78 86 89 56 61 93 83 69 61 63 65 72 83 60 44 41 44 53 79 78 76 77 90 97 98 105 109 112 113 103 88 78 76 76 80 79 82 64 56 56 62 78 74 70 70 74 77 80 83 88 90 56 66 99 89 86 84 78 76 79 74 76 67 61 69 81 82 79 83 83 92 98 104 106 109 111 111 104 91 82 78 72 73 77 81 83 83 81 76 74 71 71 74 82 88 90 90 92 93 58 67 103 95 91 90 91 91 90 88 83 80 78 78 75 74 72 76 88 99 103 106 106 108 110 112 105 93 85 83 82 79 75 73 74 77 80 78 77 77 79 83 89 93 94 94 95 94 58 65 103 103 104 105 104 101 97 93 88 79 75 72 72 72 77 91 101 107 106 106 108 109 112 113 105 93 85 84 86 87 86 81 79 79 78 77 78 83 88 94 96 97 96 97 95 95 58 65 107 108 108 109 108 106 103 97 90 82 78 77 81 86 95 105 108 109 108 108 109 109 111 111 104 93 86 84 86 88 90 92 91 91 92 96 97 99 100 100 100 99 99 97 96 93 59 66 109 110 109 108 108 107 106 102 99 96 95 95 98 103 107 108 110 109 109 108 109 108 111 110 104 92 86 84 85 88 91 94 95 98 100 104 105 106 106 105 103 101 99 96 95 93 58 66 109 108 107 107 107 108 108 104 105 105 104 104 106 109 110 109 110 109 108 108 108 107 109 108 102 92 85 83 85 88 92 95 97 100 102 104 106 107 105 105 104 103 99 96 92 93 58 67 107 108 106 108 108 108 107 107 108 106 106 107 108 110 110 110 110 110 107 106 107 110 109 108 101 93 86 82 83 87 91 97 99 102 104 105 105 106 107 105 104 101 98 95 93 92 57 66 107 108 108 108 108 109 109 108 108 108 108 111 110 111 112 113 113 108 105 105 107 109 111 109 101 93 87 82 81 84 92 98 102 103 105 106 108 106 106 104 102 98 95 93 91 91 57 65 107 109 110 111 109 109 110 107 109 110 112 112 111 114 112 111 110 102 102 104 108 110 111 112 106 94 88 83 80 78 87 97 105 105 107 107 109 108 105 102 98 96 93 91 89 90 57 65 107 111 111 111 109 109 110 110 111 111 112 113 114 114 108 102 101 101 102 105 108 112 115 117 111 95 88 84 83 75 81 94 104 108 108 108 109 107 105 102 98 94 93 91 89 90 56 64 107 110 111 112 110 111 111 111 111 113 112 115 115 109 101 94 101 103 103 106 110 118 115 107 103 93 87 83 84 82 75 87 98 106 109 109 106 107 105 101 98 95 92 90 89 89 56 64 106 107 111 114 114 113 110 111 112 112 113 113 109 102 94 96 103 107 106 106 105 108 102 98 92 86 79 78 83 83 77 82 93 100 106 109 109 106 104 101 98 94 92 91 89 89 56 65 107 109 114 115 116 113 111 111 109 108 109 107 103 96 90 97 102 108 103 96 93 93 93 90 83 73 68 69 75 79 76 78 87 97 103 105 105 105 102 99 95 92 92 90 90 90 56 63 107 109 113 115 115 113 114 112 108 108 107 104 97 91 89 95 96 91 81 83 86 86 84 78 69 63 59 54 64 69 73 75 83 93 100 102 104 102 97 95 93 92 90 89 89 90 56 64 105 109 112 112 115 115 112 111 109 106 101 98 93 89 89 91 85 71 53 55 75 78 73 66 62 55 48 53 61 64 77 81 84 93 99 100 101 98 94 95 93 91 90 88 89 90 59 64 105 109 111 113 115 114 113 110 105 102 98 93 88 93 91 82 77 67 63 77 77 75 69 61 53 51 52 54 57 75 87 87 87 93 97 99 101 98 96 93 93 90 89 88 87 90 62 63 104 106 110 110 114 114 111 105 101 99 94 88 87 96 97 86 81 76 80 86 84 85 75 65 65 66 67 68 75 89 90 89 92 94 97 98 98 98 95 92 90 90 89 88 87 90 66 62 103 105 109 109 113 111 108 102 98 94 90 85 92 102 105 100 97 93 92 92 91 87 79 85 91 90 89 88 90 91 91 91 92 93 96 98 97 96 93 90 89 88 86 87 86 94 67 62 101 104 105 109 109 107 104 100 95 90 85 85 98 107 108 108 106 104 104 101 100 97 94 99 101 97 94 90 91 92 91 92 92 92 94 96 95 94 91 90 87 84 84 86 87 97 63 61 99 102 104 102 102 102 101 97 92 86 81 90 101 108 109 109 109 108 107 103 105 105 100 103 102 97 92 90 91 91 90 89 91 91 91 94 94 91 89 88 84 83 85 85 88 101 59 61 97 101 101 102 99 98 96 93 88 82 83 95 103 106 107 108 108 106 106 106 106 103 99 103 102 96 86 88 89 87 85 86 86 89 89 91 92 90 89 87 84 83 84 85 89 105 57 59 94 97 98 98 97 94 92 90 84 82 90 96 101 103 104 106 105 104 106 107 105 102 99 101 100 92 86 88 87 83 82 80 83 86 86 88 90 88 86 85 83 83 83 85 90 109 62 55 93 95 95 96 93 92 90 86 83 84 91 96 98 97 100 101 102 102 103 99 96 95 97 94 85 79 79 84 84 81 78 77 77 80 81 83 86 84 84 83 83 82 83 85 92 129 132 56 94 95 95 93 92 90 87 83 81 86 90 91 91 92 95 96 96 92 84 76 73 73 77 71 65 65 66 70 75 75 74 72 69 75 78 80 84 84 84 83 82 82 83 86 96 174 120 58 94 95 94 93 91 89 87 83 84 85 85 84 83 84 86 83 76 68 68 70 71 69 66 61 63 63 61 57 56 60 65 65 64 70 77 81 86 86 84 83 82 82 82 87 102 235 156 59 95 95 94 93 90 90 87 85 86 83 78 70 70 71 66 61 66 72 73 73 70 69 66 64 62 60 62 60 53 50 53 55 58 67 77 84 88 87 85 84 82 81 82 88 109 178 99 59 94 95 94 93 92 92 90 87 83 75 63 53 53 58 64 70 73 74 74 71 66 63 64 66 68 70 68 61 57 51 49 51 57 69 81 88 91 89 85 83 81 81 84 91 141 245 155 58 93 94 93 94 95 94 92 89 80 62 52 58 69 70 70 73 77 83 85 85 85 83 83 82 80 73 66 60 60 65 67 69 71 77 83 87 91 90 86 82 81 81 86 95 184 255 158 58 93 94 93 94 96 95 94 91 80 67 68 83 84 84 83 80 73 71 74 75 77 78 78 75 69 63 61 65 68 66 71 78 78 83 88 90 92 89 84 82 81 83 88 102 227 255 158 57 92 92 91 95 96 97 97 90 81 80 89 92 88 81 79 86 89 85 79 75 75 76 75 72 69 68 68 65 62 70 79 82 82 83 87 89 88 84 81 80 81 84 90 127 250 255 158 56 91 91 92 96 96 96 94 88 82 89 97 98 95 88 81 78 77 77 75 73 72 72 70 67 64 60 57 62 72 79 81 82 81 83 86 86 84 80 79 80 82 85 93 188 255 255 158 56 90 90 91 93 94 90 91 86 84 94 98 99 98 94 87 81 75 69 64 61 59 57 55 55 55 57 65 74 79 81 82 81 82 83 85 84 81 79 79 79 82 87 113 242 255 255 158 56 89 90 90 90 89 88 87 86 92 96 96 97 96 95 93 87 81 77 73 71 67 64 63 65 69 76 80 81 83 82 82 83 83 85 84 82 79 77 78 79 82 91 181 254 255 255 158 55 89 89 89 88 88 85 85 90 93 95 96 97 97 98 98 97 94 91 90 90 88 87 87 88 88 87 86 85 84 83 83 83 83 84 82 78 75 75 76 78 84 119 244 255 255 255 158 54 89 88 88 89 87 87 90 91 94 97 97 99 101 102 102 102 102 103 102 103 103 102 98 95 95 93 91 87 84 83 82 81 82 81 79 75 73 73 74 78 93 209 255 255 255 255 158 52 86 86 86 87 87 87 88 91 93 95 100 101 102 104 105 108 107 104 99 105 103 102 100 98 95 95 94 87 83 82 80 79 79 78 75 71 70 69 73 81 169 254 255 255 255 255 158 53 85 82 85 85 84 83 89 91 93 97 98 98 100 103 105 106 106 102 100 101 99 99 97 96 93 92 90 84 82 79 77 76 75 74 70 66 66 67 72 125 248 255 255 255 255 255 158 51 83 82 82 83 82 83 86 89 91 95 96 98 101 98 100 105 106 102 100 98 92 94 94 93 88 87 84 80 79 76 74 72 69 66 64 62 63 66 79 96 203 254 255 255 255 255 158 49 80 80 78 80 80 80 81 84 89 92 89 91 96 94 96 100 99 96 95 94 89 87 89 86 85 84 78 75 75 73 70 68 64 61 60 60 62 70 67 66 86 200 254 255 255 255 158 47 76 76 76 77 76 79 79 81 81 85 88 89 93 93 90 92 92 89 88 88 85 83 85 83 79 75 71 69 69 68 66 62 59 58 58 61 69 60 57 63 70 90 215 255 255 255 158 45 72 73 72 71 72 73 74 77 77 80 83 84 87 88 88 86 85 84 83 81 79 79 78 74 68 66 65 64 64 63 61 59 57 58 61 66 67 55 55 59 65 72 107 228 255 255 158 26 43 42 42 42 42 43 43 44 45 47 48 49 49 50 51 50 49 48 47 47 46 44 44 41 38 38 38 37 37 36 34 35 35 37 39 39 41 33 33 35 39 42 46 72 139 158 98 