P2
48
60
255
54 92 95 91 80 70 61 59 54 51 50 51 51 53 57 58 60 60 61 61 60 61 62 60 61 68 68 63 59 60 58 58 55 53 54 51 49 49 49 51 52 56 57 59 58 47 44 74 91 145 150 147 121 108 97 90 82 81 81 82 82 89 93 95 95 97 99 100 97 98 96 93 99 109 102 99 95 96 95 95 90 89 88 85 82 78 80 81 86 89 92 96 95 76 71 83 87 136 141 139 116 103 93 88 83 81 85 87 89 92 96 95 95 97 97 94 93 93 91 90 93 100 95 96 94 96 98 96 94 94 90 88 86 85 83 83 87 90 92 94 96 82 71 47 85 136 146 137 121 102 94 88 84 80 82 86 89 95 98 96 97 95 93 90 87 86 85 83 87 93 97 92 91 92 95 96 94 93 91 85 86 86 84 83 84 90 92 94 95 92 77 44 90 128 135 139 119 102 94 87 83 84 83 88 92 93 93 91 88 85 84 82 82 82 82 81 91 92 91 89 86 90 89 92 91 88 85 81 80 77 72 75 80 88 92 93 95 95 82 47 91 131 135 134 112 102 93 80 72 70 74 80 83 83 79 80 81 78 76 79 81 81 80 78 81 91 90 87 81 81 80 80 76 72 67 65 62 60 61 63 68 85 89 92 96 99 89 49 88 134 139 128 109 102 78 68 66 64 65 64 62 63 65 66 67 72 73 74 78 79 79 81 83 90 90 85 80 75 69 67 61 59 57 57 62 67 67 64 61 75 88 94 95 102 98 55 87 143 143 125 108 90 72 68 67 65 57 52 53 55 54 54 56 60 66 68 73 76 75 75 84 87 87 83 73 68 63 59 59 58 59 61 65 70 70 69 69 70 86 95 96 102 105 59 91 146 143 123 97 83 76 75 79 78 70 63 59 56 53 52 51 57 63 66 69 75 75 75 80 95 88 76 71 63 60 57 58 59 62 66 73 83 84 81 80 77 78 89 99 100 107 62 97 158 153 124 97 81 78 80 85 88 80 72 66 61 56 55 56 55 60 65 69 73 75 77 79 89 86 75 69 63 59 58 59 62 66 73 83 91 91 89 85 81 79 83 99 104 107 66 102 173 161 120 92 84 82 84 86 85 78 74 70 62 56 54 55 56 59 62 63 70 73 77 76 71 73 69 67 65 62 59 59 64 73 80 86 89 90 90 84 84 83 83 93 102 105 71 104 182 152 116 103 89 84 83 86 83 78 75 74 71 63 56 53 53 56 60 65 71 78 74 75 78 71 69 65 62 58 57 63 70 75 78 83 85 85 80 80 82 82 85 89 99 104 68 113 166 147 121 106 91 82 78 77 75 71 69 67 67 64 59 55 54 57 62 68 74 79 78 75 80 78 71 66 61 57 60 62 64 64 64 64 66 70 73 75 78 82 88 89 95 101 65 97 160 146 126 100 84 72 63 55 56 54 53 51 47 50 54 53 53 56 62 68 74 82 85 86 90 81 71 65 58 56 56 53 46 46 49 63 67 60 53 54 66 77 87 87 90 95 62 90 138 131 118 90 64 50 56 65 60 49 48 51 53 48 44 48 52 57 64 70 72 83 87 91 93 78 72 65 58 56 49 42 41 41 37 39 39 48 58 62 48 60 80 83 85 88 59 72 104 109 98 61 56 70 55 40 34 53 44 53 62 45 47 49 54 63 67 71 75 86 93 94 93 77 72 64 62 58 46 45 43 48 37 46 51 74 46 44 57 51 67 77 80 87 58 53 86 89 67 70 70 42 52 79 49 37 33 45 104 86 52 42 56 67 67 73 78 87 93 93 91 79 72 66 64 58 61 75 64 38 35 41 75 103 64 43 50 56 62 71 77 84 56 46 73 68 62 65 60 53 54 66 51 49 45 55 79 79 73 67 62 70 70 74 80 85 90 88 87 81 75 68 66 63 68 70 67 59 58 63 68 64 65 70 73 72 71 74 76 81 54 51 75 76 85 102 95 79 73 71 72 68 60 63 71 83 81 72 72 73 71 77 81 85 86 87 86 83 78 73 68 68 71 82 78 71 70 72 75 77 77 78 80 81 77 79 80 82 53 54 83 85 95 104 89 80 76 74 72 71 73 77 84 83 77 76 75 73 74 79 83 85 86 87 88 86 82 78 74 72 72 75 85 90 91 89 84 83 81 81 83 84 83 81 81 83 53 52 87 94 96 91 85 86 91 93 96 92 86 85 83 79 83 82 77 76 79 81 82 85 86 86 87 87 84 82 80 75 76 79 79 85 92 97 96 94 89 88 86 86 86 86 84 85 54 58 100 102 95 89 87 92 94 94 91 89 85 83 82 87 88 83 79 82 82 84 86 87 89 88 88 88 86 83 84 81 79 82 83 81 86 92 96 94 92 89 86 86 87 88 88 87 53 69 112 102 94 89 89 93 92 92 86 86 86 85 88 89 87 82 83 83 83 84 86 88 89 91 90 87 87 84 83 84 81 85 87 86 84 86 90 94 92 88 87 86 86 87 91 88 54 77 119 106 95 91 90 92 93 93 92 91 88 90 92 90 86 85 86 85 84 85 87 89 91 90 90 89 88 86 83 84 84 85 88 91 91 88 87 90 95 86 87 87 88 86 89 90 55 84 124 109 94 89 91 92 96 93 90 90 90 92 93 91 88 85 83 85 86 85 89 90 92 91 90 90 87 88 85 80 81 85 91 94 94 92 89 89 85 85 87 88 87 86 89 88 54 81 120 103 92 89 90 90 91 88 88 92 94 92 91 90 83 73 75 78 91 92 91 94 94 96 98 96 89 88 83 77 77 85 91 96 100 96 94 91 87 86 88 89 87 86 87 89 56 75 117 102 94 89 90 92 91 92 95 96 95 90 87 83 73 62 73 83 95 95 95 101 102 104 117 109 90 88 83 77 67 77 91 97 99 100 97 95 91 86 88 89 88 86 86 87 55 76 114 104 96 92 91 93 94 93 94 97 94 90 83 76 62 68 87 92 92 89 87 90 86 88 94 95 86 84 87 84 75 69 83 94 97 101 99 97 94 89 88 89 88 87 88 86 54 77 119 108 101 96 98 98 97 97 91 94 88 84 79 69 59 90 95 87 74 70 73 74 73 72 74 74 71 69 80 88 86 68 75 88 98 99 99 95 94 93 90 89 88 87 88 86 55 82 131 114 104 96 92 93 96 96 93 88 83 79 73 59 66 87 76 63 55 59 64 65 63 65 65 64 59 53 58 70 80 70 68 81 91 94 94 94 92 92 89 87 85 86 88 88 53 89 136 118 104 94 89 88 91 88 87 83 80 75 68 50 62 65 48 34 28 31 48 57 56 56 56 53 35 30 32 45 61 66 64 75 85 89 90 91 89 89 88 86 84 87 87 87 54 95 133 114 100 91 86 84 83 82 77 80 77 73 61 49 54 50 38 31 30 32 35 48 46 47 48 37 33 30 32 40 52 67 68 72 80 86 89 89 88 87 85 84 84 85 86 88 55 94 138 114 95 83 81 81 80 81 77 75 73 71 60 57 58 49 39 38 48 53 48 47 41 41 49 61 65 51 41 44 62 76 80 77 80 83 83 85 87 83 84 83 82 82 84 87 55 94 138 107 90 80 79 78 77 78 73 69 70 71 69 71 69 62 55 55 59 63 62 57 53 57 67 73 68 61 56 62 73 81 83 83 81 83 81 82 81 80 81 80 79 81 82 86 56 93 125 105 84 77 77 73 73 67 68 69 71 73 77 80 79 74 69 66 67 71 73 72 72 73 75 78 73 70 70 71 78 83 86 85 83 81 80 81 80 80 79 79 78 80 80 83 53 85 118 94 79 76 72 67 63 62 65 67 73 74 80 80 79 77 74 71 72 73 73 74 77 73 75 77 77 75 75 78 81 84 85 85 83 80 76 75 71 75 77 78 77 77 80 83 54 78 111 89 79 70 68 64 59 61 63 70 74 77 80 78 77 76 73 72 71 70 72 75 77 76 76 76 74 75 77 78 81 83 83 85 85 80 74 71 70 69 74 75 75 76 80 82 55 72 103 89 78 68 64 60 59 62 66 71 74 77 76 75 74 73 71 71 70 69 71 75 75 75 74 74 72 72 73 74 78 79 79 81 81 78 74 68 67 69 70 73 76 75 79 82 57 71 101 88 75 65 62 59 61 65 72 73 73 72 71 71 70 69 69 68 68 67 69 71 72 72 70 70 71 70 71 71 72 72 74 76 77 76 74 69 66 68 70 72 75 75 79 84 57 67 103 90 74 68 61 59 61 67 68 70 69 68 67 67 67 70 71 73 75 79 80 79 75 79 84 80 76 73 71 70 67 68 70 72 72 72 72 70 67 67 70 70 74 76 80 86 56 75 106 88 75 67 63 64 67 68 67 67 65 65 64 66 71 76 71 67 69 71 74 78 80 79 74 72 70 69 73 70 67 64 64 66 67 67 69 70 67 66 70 72 74 77 80 86 56 76 102 90 79 67 65 65 70 69 67 65 61 60 60 69 72 59 58 62 63 64 63 65 64 64 63 64 61 58 57 67 70 62 60 62 64 64 66 69 67 67 71 71 74 77 82 87 59 76 111 96 84 70 67 69 73 69 65 61 59 54 53 57 50 47 54 54 55 55 56 55 53 52 53 53 53 52 50 49 58 61 54 58 59 61 65 69 69 68 70 72 75 79 82 88 58 72 113 102 86 74 78 69 69 65 64 60 56 50 39 42 41 47 51 50 50 50 50 51 50 48 50 47 47 47 48 44 44 46 43 52 57 62 65 68 69 70 69 73 76 78 84 89 59 72 114 102 92 80 73 72 69 62 61 61 58 57 57 61 76 79 84 83 82 82 85 83 88 88 86 82 81 77 79 73 66 60 50 55 57 61 62 67 68 70 69 73 76 80 86 91 81 74 114 101 94 84 77 74 67 61 60 59 60 68 73 74 78 86 93 102 101 109 112 117 110 116 114 109 104 94 96 87 78 71 73 68 61 59 62 65 66 69 70 73 77 81 87 94 126 74 111 100 98 86 80 75 64 60 59 60 63 67 70 77 78 78 77 83 93 101 106 101 92 99 108 108 95 82 77 75 74 70 66 64 60 60 61 61 63 66 70 73 76 82 87 116 150 75 110 101 99 89 76 71 63 59 59 60 64 65 64 66 71 70 65 67 67 75 77 75 73 73 77 76 71 64 63 66 64 62 62 62 60 59 59 60 62 66 70 73 78 83 86 153 156 73 109 105 95 84 75 66 61 58 59 59 61 62 61 59 57 54 54 53 52 53 53 50 49 51 54 53 53 53 54 54 54 57 59 60 58 57 57 58 59 63 70 74 78 82 90 146 156 69 109 104 91 83 74 64 60 58 58 59 58 60 59 56 52 48 45 43 40 38 36 35 35 35 37 40 41 43 46 48 52 56 58 57 57 56 55 56 60 64 69 74 77 82 92 142 155 67 104 104 90 78 73 63 59 56 55 57 57 58 57 54 51 47 43 39 37 36 36 36 35 35 36 37 39 42 45 48 51 54 54 53 54 53 55 57 60 65 69 71 75 84 90 133 153 64 98 102 104 75 67 65 58 54 55 56 57 59 57 53 52 49 46 44 44 44 43 43 42 44 45 45 45 46 48 50 52 52 52 53 53 54 54 58 61 66 69 71 76 87 87 110 111 61 95 90 86 74 67 62 57 54 55 56 59 57 55 53 52 51 51 53 55 60 63 64 65 66 61 56 52 50 51 52 52 52 54 53 53 54 56 59 64 65 66 71 78 83 85 104 82 66 96 85 81 77 64 61 58 57 57 56 58 57 57 56 56 57 58 62 66 73 73 76 74 71 70 68 63 59 57 55 55 56 57 55 55 56 58 60 63 63 66 72 78 79 84 98 66 68 98 83 77 74 69 63 61 56 58 59 62 61 59 57 57 55 59 63 67 67 68 67 67 67 68 67 65 62 60 57 57 59 58 57 57 58 59 59 60 63 66 72 74 77 83 88 55 66 98 88 78 75 69 64 63 59 59 64 68 63 63 60 58 56 59 61 64 63 61 59 59 60 61 61 60 59 60 59 59 61 61 60 59 56 57 58 61 64 67 70 72 76 81 72 42 61 96 89 81 75 70 66 62 61 63 71 71 71 65 61 59 55 55 56 56 56 55 55 54 55 56 56 56 59 60 59 60 62 62 60 58 56 57 59 62 64 67 69 70 74 78 62 32 57 89 87 83 76 70 68 63 60 63 68 70 76 68 57 56 54 52 50 49 50 50 49 49 50 51 52 52 54 56 57 60 62 60 56 57 57 58 61 62 63 65 67 69 72 75 63 25 54 82 80 80 77 75 71 68 64 61 62 66 72 63 56 53 50 48 46 46 45 45 46 45 48 48 49 49 50 52 54 58 58 55 55 58 59 59 60 60 62 63 65 67 69 71 66 24 32 49 47 46 46 45 44 45 42 40 36 37 41 39 34 31 29 28 27 27 27 27 27 27 28 28 29 29 30 31 34 35 33 33 34 36 36 36 36 36 37 39 40 40 41 44 41 14 